%TF.GenerationSoftware,KiCad,Pcbnew,8.0.6-8.0.6-0~ubuntu24.04.1*%
%TF.CreationDate,2024-11-07T17:00:29-08:00*%
%TF.ProjectId,uSlime,75536c69-6d65-42e6-9b69-6361645f7063,rev?*%
%TF.SameCoordinates,Original*%
%TF.FileFunction,Legend,Top*%
%TF.FilePolarity,Positive*%
%FSLAX46Y46*%
G04 Gerber Fmt 4.6, Leading zero omitted, Abs format (unit mm)*
G04 Created by KiCad (PCBNEW 8.0.6-8.0.6-0~ubuntu24.04.1) date 2024-11-07 17:00:29*
%MOMM*%
%LPD*%
G01*
G04 APERTURE LIST*
G04 Aperture macros list*
%AMRoundRect*
0 Rectangle with rounded corners*
0 $1 Rounding radius*
0 $2 $3 $4 $5 $6 $7 $8 $9 X,Y pos of 4 corners*
0 Add a 4 corners polygon primitive as box body*
4,1,4,$2,$3,$4,$5,$6,$7,$8,$9,$2,$3,0*
0 Add four circle primitives for the rounded corners*
1,1,$1+$1,$2,$3*
1,1,$1+$1,$4,$5*
1,1,$1+$1,$6,$7*
1,1,$1+$1,$8,$9*
0 Add four rect primitives between the rounded corners*
20,1,$1+$1,$2,$3,$4,$5,0*
20,1,$1+$1,$4,$5,$6,$7,0*
20,1,$1+$1,$6,$7,$8,$9,0*
20,1,$1+$1,$8,$9,$2,$3,0*%
%AMFreePoly0*
4,1,6,0.725000,-0.725000,-0.725000,-0.725000,-0.725000,0.125000,-0.125000,0.725000,0.725000,0.725000,0.725000,-0.725000,0.725000,-0.725000,$1*%
G04 Aperture macros list end*
%ADD10C,0.100000*%
%ADD11C,0.150000*%
%ADD12C,0.152400*%
%ADD13C,0.254000*%
%ADD14C,0.120000*%
%ADD15C,0.152000*%
%ADD16C,0.250000*%
%ADD17C,0.101600*%
%ADD18C,0.127000*%
%ADD19C,0.200000*%
%ADD20RoundRect,0.147500X-0.172500X0.147500X-0.172500X-0.147500X0.172500X-0.147500X0.172500X0.147500X0*%
%ADD21C,1.200000*%
%ADD22RoundRect,0.135000X-0.135000X-0.185000X0.135000X-0.185000X0.135000X0.185000X-0.135000X0.185000X0*%
%ADD23RoundRect,0.135000X0.135000X0.185000X-0.135000X0.185000X-0.135000X-0.185000X0.135000X-0.185000X0*%
%ADD24R,0.800000X0.700000*%
%ADD25RoundRect,0.135000X0.185000X-0.135000X0.185000X0.135000X-0.185000X0.135000X-0.185000X-0.135000X0*%
%ADD26RoundRect,0.140000X0.170000X-0.140000X0.170000X0.140000X-0.170000X0.140000X-0.170000X-0.140000X0*%
%ADD27RoundRect,0.140000X-0.170000X0.140000X-0.170000X-0.140000X0.170000X-0.140000X0.170000X0.140000X0*%
%ADD28C,0.650000*%
%ADD29RoundRect,0.150000X-0.150000X-0.425000X0.150000X-0.425000X0.150000X0.425000X-0.150000X0.425000X0*%
%ADD30RoundRect,0.075000X-0.075000X-0.500000X0.075000X-0.500000X0.075000X0.500000X-0.075000X0.500000X0*%
%ADD31O,1.000000X2.100000*%
%ADD32O,1.000000X1.800000*%
%ADD33RoundRect,0.135000X-0.185000X0.135000X-0.185000X-0.135000X0.185000X-0.135000X0.185000X0.135000X0*%
%ADD34RoundRect,0.140000X-0.140000X-0.170000X0.140000X-0.170000X0.140000X0.170000X-0.140000X0.170000X0*%
%ADD35R,0.250000X0.914400*%
%ADD36R,0.812800X0.250000*%
%ADD37C,3.100000*%
%ADD38R,1.320800X0.508000*%
%ADD39R,0.800000X0.400000*%
%ADD40R,0.400000X0.800000*%
%ADD41FreePoly0,0.000000*%
%ADD42R,1.450000X1.450000*%
%ADD43R,0.700000X0.700000*%
%ADD44C,0.900000*%
%ADD45R,0.700000X1.500000*%
%ADD46R,1.000000X0.800000*%
%ADD47C,0.800000*%
%ADD48R,1.700000X0.900000*%
%ADD49C,1.000000*%
%ADD50RoundRect,0.060300X-0.716700X0.341700X-0.716700X-0.341700X0.716700X-0.341700X0.716700X0.341700X0*%
G04 APERTURE END LIST*
D10*
X14716666Y-2009133D02*
X14716666Y-2509133D01*
X14716666Y-2509133D02*
X14683333Y-2609133D01*
X14683333Y-2609133D02*
X14616666Y-2675800D01*
X14616666Y-2675800D02*
X14516666Y-2709133D01*
X14516666Y-2709133D02*
X14450000Y-2709133D01*
X15383333Y-2709133D02*
X15049999Y-2709133D01*
X15049999Y-2709133D02*
X15049999Y-2009133D01*
X16016666Y-2642466D02*
X15983333Y-2675800D01*
X15983333Y-2675800D02*
X15883333Y-2709133D01*
X15883333Y-2709133D02*
X15816666Y-2709133D01*
X15816666Y-2709133D02*
X15716666Y-2675800D01*
X15716666Y-2675800D02*
X15650000Y-2609133D01*
X15650000Y-2609133D02*
X15616666Y-2542466D01*
X15616666Y-2542466D02*
X15583333Y-2409133D01*
X15583333Y-2409133D02*
X15583333Y-2309133D01*
X15583333Y-2309133D02*
X15616666Y-2175800D01*
X15616666Y-2175800D02*
X15650000Y-2109133D01*
X15650000Y-2109133D02*
X15716666Y-2042466D01*
X15716666Y-2042466D02*
X15816666Y-2009133D01*
X15816666Y-2009133D02*
X15883333Y-2009133D01*
X15883333Y-2009133D02*
X15983333Y-2042466D01*
X15983333Y-2042466D02*
X16016666Y-2075800D01*
X16516666Y-2009133D02*
X16516666Y-2509133D01*
X16516666Y-2509133D02*
X16483333Y-2609133D01*
X16483333Y-2609133D02*
X16416666Y-2675800D01*
X16416666Y-2675800D02*
X16316666Y-2709133D01*
X16316666Y-2709133D02*
X16250000Y-2709133D01*
X17183333Y-2709133D02*
X16849999Y-2709133D01*
X16849999Y-2709133D02*
X16849999Y-2009133D01*
X17816666Y-2642466D02*
X17783333Y-2675800D01*
X17783333Y-2675800D02*
X17683333Y-2709133D01*
X17683333Y-2709133D02*
X17616666Y-2709133D01*
X17616666Y-2709133D02*
X17516666Y-2675800D01*
X17516666Y-2675800D02*
X17450000Y-2609133D01*
X17450000Y-2609133D02*
X17416666Y-2542466D01*
X17416666Y-2542466D02*
X17383333Y-2409133D01*
X17383333Y-2409133D02*
X17383333Y-2309133D01*
X17383333Y-2309133D02*
X17416666Y-2175800D01*
X17416666Y-2175800D02*
X17450000Y-2109133D01*
X17450000Y-2109133D02*
X17516666Y-2042466D01*
X17516666Y-2042466D02*
X17616666Y-2009133D01*
X17616666Y-2009133D02*
X17683333Y-2009133D01*
X17683333Y-2009133D02*
X17783333Y-2042466D01*
X17783333Y-2042466D02*
X17816666Y-2075800D01*
X18316666Y-2009133D02*
X18316666Y-2509133D01*
X18316666Y-2509133D02*
X18283333Y-2609133D01*
X18283333Y-2609133D02*
X18216666Y-2675800D01*
X18216666Y-2675800D02*
X18116666Y-2709133D01*
X18116666Y-2709133D02*
X18050000Y-2709133D01*
X18983333Y-2709133D02*
X18649999Y-2709133D01*
X18649999Y-2709133D02*
X18649999Y-2009133D01*
X19616666Y-2642466D02*
X19583333Y-2675800D01*
X19583333Y-2675800D02*
X19483333Y-2709133D01*
X19483333Y-2709133D02*
X19416666Y-2709133D01*
X19416666Y-2709133D02*
X19316666Y-2675800D01*
X19316666Y-2675800D02*
X19250000Y-2609133D01*
X19250000Y-2609133D02*
X19216666Y-2542466D01*
X19216666Y-2542466D02*
X19183333Y-2409133D01*
X19183333Y-2409133D02*
X19183333Y-2309133D01*
X19183333Y-2309133D02*
X19216666Y-2175800D01*
X19216666Y-2175800D02*
X19250000Y-2109133D01*
X19250000Y-2109133D02*
X19316666Y-2042466D01*
X19316666Y-2042466D02*
X19416666Y-2009133D01*
X19416666Y-2009133D02*
X19483333Y-2009133D01*
X19483333Y-2009133D02*
X19583333Y-2042466D01*
X19583333Y-2042466D02*
X19616666Y-2075800D01*
X20116666Y-2009133D02*
X20116666Y-2509133D01*
X20116666Y-2509133D02*
X20083333Y-2609133D01*
X20083333Y-2609133D02*
X20016666Y-2675800D01*
X20016666Y-2675800D02*
X19916666Y-2709133D01*
X19916666Y-2709133D02*
X19850000Y-2709133D01*
X20783333Y-2709133D02*
X20449999Y-2709133D01*
X20449999Y-2709133D02*
X20449999Y-2009133D01*
X21416666Y-2642466D02*
X21383333Y-2675800D01*
X21383333Y-2675800D02*
X21283333Y-2709133D01*
X21283333Y-2709133D02*
X21216666Y-2709133D01*
X21216666Y-2709133D02*
X21116666Y-2675800D01*
X21116666Y-2675800D02*
X21050000Y-2609133D01*
X21050000Y-2609133D02*
X21016666Y-2542466D01*
X21016666Y-2542466D02*
X20983333Y-2409133D01*
X20983333Y-2409133D02*
X20983333Y-2309133D01*
X20983333Y-2309133D02*
X21016666Y-2175800D01*
X21016666Y-2175800D02*
X21050000Y-2109133D01*
X21050000Y-2109133D02*
X21116666Y-2042466D01*
X21116666Y-2042466D02*
X21216666Y-2009133D01*
X21216666Y-2009133D02*
X21283333Y-2009133D01*
X21283333Y-2009133D02*
X21383333Y-2042466D01*
X21383333Y-2042466D02*
X21416666Y-2075800D01*
D11*
X7757143Y-14419771D02*
X7757143Y-13819771D01*
X7757143Y-13819771D02*
X7900000Y-13819771D01*
X7900000Y-13819771D02*
X7985714Y-13848342D01*
X7985714Y-13848342D02*
X8042857Y-13905485D01*
X8042857Y-13905485D02*
X8071428Y-13962628D01*
X8071428Y-13962628D02*
X8100000Y-14076914D01*
X8100000Y-14076914D02*
X8100000Y-14162628D01*
X8100000Y-14162628D02*
X8071428Y-14276914D01*
X8071428Y-14276914D02*
X8042857Y-14334057D01*
X8042857Y-14334057D02*
X7985714Y-14391200D01*
X7985714Y-14391200D02*
X7900000Y-14419771D01*
X7900000Y-14419771D02*
X7757143Y-14419771D01*
X8671428Y-14419771D02*
X8328571Y-14419771D01*
X8500000Y-14419771D02*
X8500000Y-13819771D01*
X8500000Y-13819771D02*
X8442857Y-13905485D01*
X8442857Y-13905485D02*
X8385714Y-13962628D01*
X8385714Y-13962628D02*
X8328571Y-13991200D01*
X19458207Y-20059580D02*
X19410588Y-20107200D01*
X19410588Y-20107200D02*
X19267731Y-20154819D01*
X19267731Y-20154819D02*
X19172493Y-20154819D01*
X19172493Y-20154819D02*
X19029636Y-20107200D01*
X19029636Y-20107200D02*
X18934398Y-20011961D01*
X18934398Y-20011961D02*
X18886779Y-19916723D01*
X18886779Y-19916723D02*
X18839160Y-19726247D01*
X18839160Y-19726247D02*
X18839160Y-19583390D01*
X18839160Y-19583390D02*
X18886779Y-19392914D01*
X18886779Y-19392914D02*
X18934398Y-19297676D01*
X18934398Y-19297676D02*
X19029636Y-19202438D01*
X19029636Y-19202438D02*
X19172493Y-19154819D01*
X19172493Y-19154819D02*
X19267731Y-19154819D01*
X19267731Y-19154819D02*
X19410588Y-19202438D01*
X19410588Y-19202438D02*
X19458207Y-19250057D01*
X19886779Y-20154819D02*
X19886779Y-19154819D01*
X19886779Y-19154819D02*
X20458207Y-20154819D01*
X20458207Y-20154819D02*
X20458207Y-19154819D01*
X20886779Y-19250057D02*
X20934398Y-19202438D01*
X20934398Y-19202438D02*
X21029636Y-19154819D01*
X21029636Y-19154819D02*
X21267731Y-19154819D01*
X21267731Y-19154819D02*
X21362969Y-19202438D01*
X21362969Y-19202438D02*
X21410588Y-19250057D01*
X21410588Y-19250057D02*
X21458207Y-19345295D01*
X21458207Y-19345295D02*
X21458207Y-19440533D01*
X21458207Y-19440533D02*
X21410588Y-19583390D01*
X21410588Y-19583390D02*
X20839160Y-20154819D01*
X20839160Y-20154819D02*
X21458207Y-20154819D01*
X22027255Y-13969771D02*
X21741541Y-13969771D01*
X21741541Y-13969771D02*
X21741541Y-13369771D01*
X22227255Y-13655485D02*
X22427255Y-13655485D01*
X22512969Y-13969771D02*
X22227255Y-13969771D01*
X22227255Y-13969771D02*
X22227255Y-13369771D01*
X22227255Y-13369771D02*
X22512969Y-13369771D01*
X22770112Y-13969771D02*
X22770112Y-13369771D01*
X22770112Y-13369771D02*
X22912969Y-13369771D01*
X22912969Y-13369771D02*
X22998683Y-13398342D01*
X22998683Y-13398342D02*
X23055826Y-13455485D01*
X23055826Y-13455485D02*
X23084397Y-13512628D01*
X23084397Y-13512628D02*
X23112969Y-13626914D01*
X23112969Y-13626914D02*
X23112969Y-13712628D01*
X23112969Y-13712628D02*
X23084397Y-13826914D01*
X23084397Y-13826914D02*
X23055826Y-13884057D01*
X23055826Y-13884057D02*
X22998683Y-13941200D01*
X22998683Y-13941200D02*
X22912969Y-13969771D01*
X22912969Y-13969771D02*
X22770112Y-13969771D01*
X23684397Y-13969771D02*
X23341540Y-13969771D01*
X23512969Y-13969771D02*
X23512969Y-13369771D01*
X23512969Y-13369771D02*
X23455826Y-13455485D01*
X23455826Y-13455485D02*
X23398683Y-13512628D01*
X23398683Y-13512628D02*
X23341540Y-13541200D01*
X5050000Y-5712628D02*
X5021428Y-5741200D01*
X5021428Y-5741200D02*
X4935714Y-5769771D01*
X4935714Y-5769771D02*
X4878571Y-5769771D01*
X4878571Y-5769771D02*
X4792857Y-5741200D01*
X4792857Y-5741200D02*
X4735714Y-5684057D01*
X4735714Y-5684057D02*
X4707143Y-5626914D01*
X4707143Y-5626914D02*
X4678571Y-5512628D01*
X4678571Y-5512628D02*
X4678571Y-5426914D01*
X4678571Y-5426914D02*
X4707143Y-5312628D01*
X4707143Y-5312628D02*
X4735714Y-5255485D01*
X4735714Y-5255485D02*
X4792857Y-5198342D01*
X4792857Y-5198342D02*
X4878571Y-5169771D01*
X4878571Y-5169771D02*
X4935714Y-5169771D01*
X4935714Y-5169771D02*
X5021428Y-5198342D01*
X5021428Y-5198342D02*
X5050000Y-5226914D01*
X5592857Y-5169771D02*
X5307143Y-5169771D01*
X5307143Y-5169771D02*
X5278571Y-5455485D01*
X5278571Y-5455485D02*
X5307143Y-5426914D01*
X5307143Y-5426914D02*
X5364286Y-5398342D01*
X5364286Y-5398342D02*
X5507143Y-5398342D01*
X5507143Y-5398342D02*
X5564286Y-5426914D01*
X5564286Y-5426914D02*
X5592857Y-5455485D01*
X5592857Y-5455485D02*
X5621428Y-5512628D01*
X5621428Y-5512628D02*
X5621428Y-5655485D01*
X5621428Y-5655485D02*
X5592857Y-5712628D01*
X5592857Y-5712628D02*
X5564286Y-5741200D01*
X5564286Y-5741200D02*
X5507143Y-5769771D01*
X5507143Y-5769771D02*
X5364286Y-5769771D01*
X5364286Y-5769771D02*
X5307143Y-5741200D01*
X5307143Y-5741200D02*
X5278571Y-5712628D01*
X8800000Y-4162628D02*
X8771428Y-4191200D01*
X8771428Y-4191200D02*
X8685714Y-4219771D01*
X8685714Y-4219771D02*
X8628571Y-4219771D01*
X8628571Y-4219771D02*
X8542857Y-4191200D01*
X8542857Y-4191200D02*
X8485714Y-4134057D01*
X8485714Y-4134057D02*
X8457143Y-4076914D01*
X8457143Y-4076914D02*
X8428571Y-3962628D01*
X8428571Y-3962628D02*
X8428571Y-3876914D01*
X8428571Y-3876914D02*
X8457143Y-3762628D01*
X8457143Y-3762628D02*
X8485714Y-3705485D01*
X8485714Y-3705485D02*
X8542857Y-3648342D01*
X8542857Y-3648342D02*
X8628571Y-3619771D01*
X8628571Y-3619771D02*
X8685714Y-3619771D01*
X8685714Y-3619771D02*
X8771428Y-3648342D01*
X8771428Y-3648342D02*
X8800000Y-3676914D01*
X9314286Y-3819771D02*
X9314286Y-4219771D01*
X9171428Y-3591200D02*
X9028571Y-4019771D01*
X9028571Y-4019771D02*
X9400000Y-4019771D01*
X5166666Y-18064819D02*
X5166666Y-18779104D01*
X5166666Y-18779104D02*
X5119047Y-18921961D01*
X5119047Y-18921961D02*
X5023809Y-19017200D01*
X5023809Y-19017200D02*
X4880952Y-19064819D01*
X4880952Y-19064819D02*
X4785714Y-19064819D01*
X6166666Y-19064819D02*
X5595238Y-19064819D01*
X5880952Y-19064819D02*
X5880952Y-18064819D01*
X5880952Y-18064819D02*
X5785714Y-18207676D01*
X5785714Y-18207676D02*
X5690476Y-18302914D01*
X5690476Y-18302914D02*
X5595238Y-18350533D01*
X4557143Y-9069771D02*
X4557143Y-8469771D01*
X4557143Y-8469771D02*
X4700000Y-8469771D01*
X4700000Y-8469771D02*
X4785714Y-8498342D01*
X4785714Y-8498342D02*
X4842857Y-8555485D01*
X4842857Y-8555485D02*
X4871428Y-8612628D01*
X4871428Y-8612628D02*
X4900000Y-8726914D01*
X4900000Y-8726914D02*
X4900000Y-8812628D01*
X4900000Y-8812628D02*
X4871428Y-8926914D01*
X4871428Y-8926914D02*
X4842857Y-8984057D01*
X4842857Y-8984057D02*
X4785714Y-9041200D01*
X4785714Y-9041200D02*
X4700000Y-9069771D01*
X4700000Y-9069771D02*
X4557143Y-9069771D01*
X5128571Y-8526914D02*
X5157143Y-8498342D01*
X5157143Y-8498342D02*
X5214286Y-8469771D01*
X5214286Y-8469771D02*
X5357143Y-8469771D01*
X5357143Y-8469771D02*
X5414286Y-8498342D01*
X5414286Y-8498342D02*
X5442857Y-8526914D01*
X5442857Y-8526914D02*
X5471428Y-8584057D01*
X5471428Y-8584057D02*
X5471428Y-8641200D01*
X5471428Y-8641200D02*
X5442857Y-8726914D01*
X5442857Y-8726914D02*
X5100000Y-9069771D01*
X5100000Y-9069771D02*
X5471428Y-9069771D01*
X10400000Y-14512628D02*
X10371428Y-14541200D01*
X10371428Y-14541200D02*
X10285714Y-14569771D01*
X10285714Y-14569771D02*
X10228571Y-14569771D01*
X10228571Y-14569771D02*
X10142857Y-14541200D01*
X10142857Y-14541200D02*
X10085714Y-14484057D01*
X10085714Y-14484057D02*
X10057143Y-14426914D01*
X10057143Y-14426914D02*
X10028571Y-14312628D01*
X10028571Y-14312628D02*
X10028571Y-14226914D01*
X10028571Y-14226914D02*
X10057143Y-14112628D01*
X10057143Y-14112628D02*
X10085714Y-14055485D01*
X10085714Y-14055485D02*
X10142857Y-13998342D01*
X10142857Y-13998342D02*
X10228571Y-13969771D01*
X10228571Y-13969771D02*
X10285714Y-13969771D01*
X10285714Y-13969771D02*
X10371428Y-13998342D01*
X10371428Y-13998342D02*
X10400000Y-14026914D01*
X10628571Y-14026914D02*
X10657143Y-13998342D01*
X10657143Y-13998342D02*
X10714286Y-13969771D01*
X10714286Y-13969771D02*
X10857143Y-13969771D01*
X10857143Y-13969771D02*
X10914286Y-13998342D01*
X10914286Y-13998342D02*
X10942857Y-14026914D01*
X10942857Y-14026914D02*
X10971428Y-14084057D01*
X10971428Y-14084057D02*
X10971428Y-14141200D01*
X10971428Y-14141200D02*
X10942857Y-14226914D01*
X10942857Y-14226914D02*
X10600000Y-14569771D01*
X10600000Y-14569771D02*
X10971428Y-14569771D01*
X21900000Y-16612628D02*
X21871428Y-16641200D01*
X21871428Y-16641200D02*
X21785714Y-16669771D01*
X21785714Y-16669771D02*
X21728571Y-16669771D01*
X21728571Y-16669771D02*
X21642857Y-16641200D01*
X21642857Y-16641200D02*
X21585714Y-16584057D01*
X21585714Y-16584057D02*
X21557143Y-16526914D01*
X21557143Y-16526914D02*
X21528571Y-16412628D01*
X21528571Y-16412628D02*
X21528571Y-16326914D01*
X21528571Y-16326914D02*
X21557143Y-16212628D01*
X21557143Y-16212628D02*
X21585714Y-16155485D01*
X21585714Y-16155485D02*
X21642857Y-16098342D01*
X21642857Y-16098342D02*
X21728571Y-16069771D01*
X21728571Y-16069771D02*
X21785714Y-16069771D01*
X21785714Y-16069771D02*
X21871428Y-16098342D01*
X21871428Y-16098342D02*
X21900000Y-16126914D01*
X22100000Y-16069771D02*
X22500000Y-16069771D01*
X22500000Y-16069771D02*
X22242857Y-16669771D01*
X8800000Y-12869771D02*
X8600000Y-12584057D01*
X8457143Y-12869771D02*
X8457143Y-12269771D01*
X8457143Y-12269771D02*
X8685714Y-12269771D01*
X8685714Y-12269771D02*
X8742857Y-12298342D01*
X8742857Y-12298342D02*
X8771428Y-12326914D01*
X8771428Y-12326914D02*
X8800000Y-12384057D01*
X8800000Y-12384057D02*
X8800000Y-12469771D01*
X8800000Y-12469771D02*
X8771428Y-12526914D01*
X8771428Y-12526914D02*
X8742857Y-12555485D01*
X8742857Y-12555485D02*
X8685714Y-12584057D01*
X8685714Y-12584057D02*
X8457143Y-12584057D01*
X9000000Y-12269771D02*
X9371428Y-12269771D01*
X9371428Y-12269771D02*
X9171428Y-12498342D01*
X9171428Y-12498342D02*
X9257143Y-12498342D01*
X9257143Y-12498342D02*
X9314286Y-12526914D01*
X9314286Y-12526914D02*
X9342857Y-12555485D01*
X9342857Y-12555485D02*
X9371428Y-12612628D01*
X9371428Y-12612628D02*
X9371428Y-12755485D01*
X9371428Y-12755485D02*
X9342857Y-12812628D01*
X9342857Y-12812628D02*
X9314286Y-12841200D01*
X9314286Y-12841200D02*
X9257143Y-12869771D01*
X9257143Y-12869771D02*
X9085714Y-12869771D01*
X9085714Y-12869771D02*
X9028571Y-12841200D01*
X9028571Y-12841200D02*
X9000000Y-12812628D01*
D12*
X12797615Y-12837737D02*
X12797615Y-13371520D01*
X12797615Y-13371520D02*
X12829014Y-13434318D01*
X12829014Y-13434318D02*
X12860413Y-13465718D01*
X12860413Y-13465718D02*
X12923211Y-13497117D01*
X12923211Y-13497117D02*
X13048807Y-13497117D01*
X13048807Y-13497117D02*
X13111605Y-13465718D01*
X13111605Y-13465718D02*
X13143004Y-13434318D01*
X13143004Y-13434318D02*
X13174403Y-13371520D01*
X13174403Y-13371520D02*
X13174403Y-12837737D01*
X13802384Y-12837737D02*
X13488394Y-12837737D01*
X13488394Y-12837737D02*
X13456995Y-13151727D01*
X13456995Y-13151727D02*
X13488394Y-13120328D01*
X13488394Y-13120328D02*
X13551192Y-13088929D01*
X13551192Y-13088929D02*
X13708187Y-13088929D01*
X13708187Y-13088929D02*
X13770985Y-13120328D01*
X13770985Y-13120328D02*
X13802384Y-13151727D01*
X13802384Y-13151727D02*
X13833783Y-13214525D01*
X13833783Y-13214525D02*
X13833783Y-13371520D01*
X13833783Y-13371520D02*
X13802384Y-13434318D01*
X13802384Y-13434318D02*
X13770985Y-13465718D01*
X13770985Y-13465718D02*
X13708187Y-13497117D01*
X13708187Y-13497117D02*
X13551192Y-13497117D01*
X13551192Y-13497117D02*
X13488394Y-13465718D01*
X13488394Y-13465718D02*
X13456995Y-13434318D01*
D11*
X7792857Y-6569771D02*
X7792857Y-7055485D01*
X7792857Y-7055485D02*
X7821428Y-7112628D01*
X7821428Y-7112628D02*
X7850000Y-7141200D01*
X7850000Y-7141200D02*
X7907142Y-7169771D01*
X7907142Y-7169771D02*
X8021428Y-7169771D01*
X8021428Y-7169771D02*
X8078571Y-7141200D01*
X8078571Y-7141200D02*
X8107142Y-7112628D01*
X8107142Y-7112628D02*
X8135714Y-7055485D01*
X8135714Y-7055485D02*
X8135714Y-6569771D01*
X8735713Y-7169771D02*
X8392856Y-7169771D01*
X8564285Y-7169771D02*
X8564285Y-6569771D01*
X8564285Y-6569771D02*
X8507142Y-6655485D01*
X8507142Y-6655485D02*
X8449999Y-6712628D01*
X8449999Y-6712628D02*
X8392856Y-6741200D01*
X7650000Y-5654819D02*
X7650000Y-5892914D01*
X7411905Y-5797676D02*
X7650000Y-5892914D01*
X7650000Y-5892914D02*
X7888095Y-5797676D01*
X7507143Y-6083390D02*
X7650000Y-5892914D01*
X7650000Y-5892914D02*
X7792857Y-6083390D01*
X8850000Y-5019771D02*
X8650000Y-4734057D01*
X8507143Y-5019771D02*
X8507143Y-4419771D01*
X8507143Y-4419771D02*
X8735714Y-4419771D01*
X8735714Y-4419771D02*
X8792857Y-4448342D01*
X8792857Y-4448342D02*
X8821428Y-4476914D01*
X8821428Y-4476914D02*
X8850000Y-4534057D01*
X8850000Y-4534057D02*
X8850000Y-4619771D01*
X8850000Y-4619771D02*
X8821428Y-4676914D01*
X8821428Y-4676914D02*
X8792857Y-4705485D01*
X8792857Y-4705485D02*
X8735714Y-4734057D01*
X8735714Y-4734057D02*
X8507143Y-4734057D01*
X9421428Y-5019771D02*
X9078571Y-5019771D01*
X9250000Y-5019771D02*
X9250000Y-4419771D01*
X9250000Y-4419771D02*
X9192857Y-4505485D01*
X9192857Y-4505485D02*
X9135714Y-4562628D01*
X9135714Y-4562628D02*
X9078571Y-4591200D01*
X17188095Y6945181D02*
X17188095Y6135658D01*
X17188095Y6135658D02*
X17235714Y6040420D01*
X17235714Y6040420D02*
X17283333Y5992800D01*
X17283333Y5992800D02*
X17378571Y5945181D01*
X17378571Y5945181D02*
X17569047Y5945181D01*
X17569047Y5945181D02*
X17664285Y5992800D01*
X17664285Y5992800D02*
X17711904Y6040420D01*
X17711904Y6040420D02*
X17759523Y6135658D01*
X17759523Y6135658D02*
X17759523Y6945181D01*
X18664285Y6611848D02*
X18664285Y5945181D01*
X18426190Y6992800D02*
X18188095Y6278515D01*
X18188095Y6278515D02*
X18807142Y6278515D01*
X13188094Y2580896D02*
X13664284Y2580896D01*
X13092856Y2295181D02*
X13426189Y3295181D01*
X13426189Y3295181D02*
X13759522Y2295181D01*
X14092856Y2961848D02*
X14092856Y2295181D01*
X14092856Y2866610D02*
X14140475Y2914229D01*
X14140475Y2914229D02*
X14235713Y2961848D01*
X14235713Y2961848D02*
X14378570Y2961848D01*
X14378570Y2961848D02*
X14473808Y2914229D01*
X14473808Y2914229D02*
X14521427Y2818991D01*
X14521427Y2818991D02*
X14521427Y2295181D01*
X14854761Y2961848D02*
X15235713Y2961848D01*
X14997618Y3295181D02*
X14997618Y2438039D01*
X14997618Y2438039D02*
X15045237Y2342800D01*
X15045237Y2342800D02*
X15140475Y2295181D01*
X15140475Y2295181D02*
X15235713Y2295181D01*
X15949999Y2342800D02*
X15854761Y2295181D01*
X15854761Y2295181D02*
X15664285Y2295181D01*
X15664285Y2295181D02*
X15569047Y2342800D01*
X15569047Y2342800D02*
X15521428Y2438039D01*
X15521428Y2438039D02*
X15521428Y2818991D01*
X15521428Y2818991D02*
X15569047Y2914229D01*
X15569047Y2914229D02*
X15664285Y2961848D01*
X15664285Y2961848D02*
X15854761Y2961848D01*
X15854761Y2961848D02*
X15949999Y2914229D01*
X15949999Y2914229D02*
X15997618Y2818991D01*
X15997618Y2818991D02*
X15997618Y2723753D01*
X15997618Y2723753D02*
X15521428Y2628515D01*
X16426190Y2961848D02*
X16426190Y2295181D01*
X16426190Y2866610D02*
X16473809Y2914229D01*
X16473809Y2914229D02*
X16569047Y2961848D01*
X16569047Y2961848D02*
X16711904Y2961848D01*
X16711904Y2961848D02*
X16807142Y2914229D01*
X16807142Y2914229D02*
X16854761Y2818991D01*
X16854761Y2818991D02*
X16854761Y2295181D01*
X17330952Y2961848D02*
X17330952Y2295181D01*
X17330952Y2866610D02*
X17378571Y2914229D01*
X17378571Y2914229D02*
X17473809Y2961848D01*
X17473809Y2961848D02*
X17616666Y2961848D01*
X17616666Y2961848D02*
X17711904Y2914229D01*
X17711904Y2914229D02*
X17759523Y2818991D01*
X17759523Y2818991D02*
X17759523Y2295181D01*
X18664285Y2295181D02*
X18664285Y2818991D01*
X18664285Y2818991D02*
X18616666Y2914229D01*
X18616666Y2914229D02*
X18521428Y2961848D01*
X18521428Y2961848D02*
X18330952Y2961848D01*
X18330952Y2961848D02*
X18235714Y2914229D01*
X18664285Y2342800D02*
X18569047Y2295181D01*
X18569047Y2295181D02*
X18330952Y2295181D01*
X18330952Y2295181D02*
X18235714Y2342800D01*
X18235714Y2342800D02*
X18188095Y2438039D01*
X18188095Y2438039D02*
X18188095Y2533277D01*
X18188095Y2533277D02*
X18235714Y2628515D01*
X18235714Y2628515D02*
X18330952Y2676134D01*
X18330952Y2676134D02*
X18569047Y2676134D01*
X18569047Y2676134D02*
X18664285Y2723753D01*
X19854762Y2580896D02*
X20330952Y2580896D01*
X19759524Y2295181D02*
X20092857Y3295181D01*
X20092857Y3295181D02*
X20426190Y2295181D01*
X20759524Y2295181D02*
X20759524Y2961848D01*
X20759524Y2771372D02*
X20807143Y2866610D01*
X20807143Y2866610D02*
X20854762Y2914229D01*
X20854762Y2914229D02*
X20950000Y2961848D01*
X20950000Y2961848D02*
X21045238Y2961848D01*
X21759524Y2342800D02*
X21664286Y2295181D01*
X21664286Y2295181D02*
X21473810Y2295181D01*
X21473810Y2295181D02*
X21378572Y2342800D01*
X21378572Y2342800D02*
X21330953Y2438039D01*
X21330953Y2438039D02*
X21330953Y2818991D01*
X21330953Y2818991D02*
X21378572Y2914229D01*
X21378572Y2914229D02*
X21473810Y2961848D01*
X21473810Y2961848D02*
X21664286Y2961848D01*
X21664286Y2961848D02*
X21759524Y2914229D01*
X21759524Y2914229D02*
X21807143Y2818991D01*
X21807143Y2818991D02*
X21807143Y2723753D01*
X21807143Y2723753D02*
X21330953Y2628515D01*
X22664286Y2295181D02*
X22664286Y2818991D01*
X22664286Y2818991D02*
X22616667Y2914229D01*
X22616667Y2914229D02*
X22521429Y2961848D01*
X22521429Y2961848D02*
X22330953Y2961848D01*
X22330953Y2961848D02*
X22235715Y2914229D01*
X22664286Y2342800D02*
X22569048Y2295181D01*
X22569048Y2295181D02*
X22330953Y2295181D01*
X22330953Y2295181D02*
X22235715Y2342800D01*
X22235715Y2342800D02*
X22188096Y2438039D01*
X22188096Y2438039D02*
X22188096Y2533277D01*
X22188096Y2533277D02*
X22235715Y2628515D01*
X22235715Y2628515D02*
X22330953Y2676134D01*
X22330953Y2676134D02*
X22569048Y2676134D01*
X22569048Y2676134D02*
X22664286Y2723753D01*
X4867857Y-1544771D02*
X4867857Y-2030485D01*
X4867857Y-2030485D02*
X4896428Y-2087628D01*
X4896428Y-2087628D02*
X4925000Y-2116200D01*
X4925000Y-2116200D02*
X4982142Y-2144771D01*
X4982142Y-2144771D02*
X5096428Y-2144771D01*
X5096428Y-2144771D02*
X5153571Y-2116200D01*
X5153571Y-2116200D02*
X5182142Y-2087628D01*
X5182142Y-2087628D02*
X5210714Y-2030485D01*
X5210714Y-2030485D02*
X5210714Y-1544771D01*
X5467856Y-1601914D02*
X5496428Y-1573342D01*
X5496428Y-1573342D02*
X5553571Y-1544771D01*
X5553571Y-1544771D02*
X5696428Y-1544771D01*
X5696428Y-1544771D02*
X5753571Y-1573342D01*
X5753571Y-1573342D02*
X5782142Y-1601914D01*
X5782142Y-1601914D02*
X5810713Y-1659057D01*
X5810713Y-1659057D02*
X5810713Y-1716200D01*
X5810713Y-1716200D02*
X5782142Y-1801914D01*
X5782142Y-1801914D02*
X5439285Y-2144771D01*
X5439285Y-2144771D02*
X5810713Y-2144771D01*
X2609580Y-12340476D02*
X2657200Y-12388095D01*
X2657200Y-12388095D02*
X2704819Y-12530952D01*
X2704819Y-12530952D02*
X2704819Y-12626190D01*
X2704819Y-12626190D02*
X2657200Y-12769047D01*
X2657200Y-12769047D02*
X2561961Y-12864285D01*
X2561961Y-12864285D02*
X2466723Y-12911904D01*
X2466723Y-12911904D02*
X2276247Y-12959523D01*
X2276247Y-12959523D02*
X2133390Y-12959523D01*
X2133390Y-12959523D02*
X1942914Y-12911904D01*
X1942914Y-12911904D02*
X1847676Y-12864285D01*
X1847676Y-12864285D02*
X1752438Y-12769047D01*
X1752438Y-12769047D02*
X1704819Y-12626190D01*
X1704819Y-12626190D02*
X1704819Y-12530952D01*
X1704819Y-12530952D02*
X1752438Y-12388095D01*
X1752438Y-12388095D02*
X1800057Y-12340476D01*
X2704819Y-11911904D02*
X1704819Y-11911904D01*
X1704819Y-11911904D02*
X2704819Y-11340476D01*
X2704819Y-11340476D02*
X1704819Y-11340476D01*
X2704819Y-10340476D02*
X2704819Y-10911904D01*
X2704819Y-10626190D02*
X1704819Y-10626190D01*
X1704819Y-10626190D02*
X1847676Y-10721428D01*
X1847676Y-10721428D02*
X1942914Y-10816666D01*
X1942914Y-10816666D02*
X1990533Y-10911904D01*
X8892857Y-10269771D02*
X8892857Y-10755485D01*
X8892857Y-10755485D02*
X8921428Y-10812628D01*
X8921428Y-10812628D02*
X8950000Y-10841200D01*
X8950000Y-10841200D02*
X9007142Y-10869771D01*
X9007142Y-10869771D02*
X9121428Y-10869771D01*
X9121428Y-10869771D02*
X9178571Y-10841200D01*
X9178571Y-10841200D02*
X9207142Y-10812628D01*
X9207142Y-10812628D02*
X9235714Y-10755485D01*
X9235714Y-10755485D02*
X9235714Y-10269771D01*
X9464285Y-10269771D02*
X9835713Y-10269771D01*
X9835713Y-10269771D02*
X9635713Y-10498342D01*
X9635713Y-10498342D02*
X9721428Y-10498342D01*
X9721428Y-10498342D02*
X9778571Y-10526914D01*
X9778571Y-10526914D02*
X9807142Y-10555485D01*
X9807142Y-10555485D02*
X9835713Y-10612628D01*
X9835713Y-10612628D02*
X9835713Y-10755485D01*
X9835713Y-10755485D02*
X9807142Y-10812628D01*
X9807142Y-10812628D02*
X9778571Y-10841200D01*
X9778571Y-10841200D02*
X9721428Y-10869771D01*
X9721428Y-10869771D02*
X9549999Y-10869771D01*
X9549999Y-10869771D02*
X9492856Y-10841200D01*
X9492856Y-10841200D02*
X9464285Y-10812628D01*
X4900000Y-13912628D02*
X4871428Y-13941200D01*
X4871428Y-13941200D02*
X4785714Y-13969771D01*
X4785714Y-13969771D02*
X4728571Y-13969771D01*
X4728571Y-13969771D02*
X4642857Y-13941200D01*
X4642857Y-13941200D02*
X4585714Y-13884057D01*
X4585714Y-13884057D02*
X4557143Y-13826914D01*
X4557143Y-13826914D02*
X4528571Y-13712628D01*
X4528571Y-13712628D02*
X4528571Y-13626914D01*
X4528571Y-13626914D02*
X4557143Y-13512628D01*
X4557143Y-13512628D02*
X4585714Y-13455485D01*
X4585714Y-13455485D02*
X4642857Y-13398342D01*
X4642857Y-13398342D02*
X4728571Y-13369771D01*
X4728571Y-13369771D02*
X4785714Y-13369771D01*
X4785714Y-13369771D02*
X4871428Y-13398342D01*
X4871428Y-13398342D02*
X4900000Y-13426914D01*
X5414286Y-13369771D02*
X5300000Y-13369771D01*
X5300000Y-13369771D02*
X5242857Y-13398342D01*
X5242857Y-13398342D02*
X5214286Y-13426914D01*
X5214286Y-13426914D02*
X5157143Y-13512628D01*
X5157143Y-13512628D02*
X5128571Y-13626914D01*
X5128571Y-13626914D02*
X5128571Y-13855485D01*
X5128571Y-13855485D02*
X5157143Y-13912628D01*
X5157143Y-13912628D02*
X5185714Y-13941200D01*
X5185714Y-13941200D02*
X5242857Y-13969771D01*
X5242857Y-13969771D02*
X5357143Y-13969771D01*
X5357143Y-13969771D02*
X5414286Y-13941200D01*
X5414286Y-13941200D02*
X5442857Y-13912628D01*
X5442857Y-13912628D02*
X5471428Y-13855485D01*
X5471428Y-13855485D02*
X5471428Y-13712628D01*
X5471428Y-13712628D02*
X5442857Y-13655485D01*
X5442857Y-13655485D02*
X5414286Y-13626914D01*
X5414286Y-13626914D02*
X5357143Y-13598342D01*
X5357143Y-13598342D02*
X5242857Y-13598342D01*
X5242857Y-13598342D02*
X5185714Y-13626914D01*
X5185714Y-13626914D02*
X5157143Y-13655485D01*
X5157143Y-13655485D02*
X5128571Y-13712628D01*
D10*
%TO.C,D1*%
X6800000Y-12150000D02*
X6800000Y-12950000D01*
X7800000Y-12150000D02*
X6800000Y-12150000D01*
X7800000Y-12150000D02*
X7800000Y-12950000D01*
X7350000Y-12150000D02*
G75*
G02*
X7250000Y-12150000I-50000J0D01*
G01*
X7250000Y-12150000D02*
G75*
G02*
X7350000Y-12150000I50000J0D01*
G01*
D13*
%TO.C,CN2*%
X15645000Y-16150000D02*
X16195000Y-16150000D01*
X15645000Y-16909000D02*
X16515000Y-16909000D01*
X15645000Y-22450000D02*
X15645000Y-16150000D01*
X15645000Y-22450000D02*
X24645000Y-22450000D01*
X16195000Y-16150000D02*
X16195000Y-16909000D01*
X17775000Y-16909000D02*
X18015000Y-16909000D01*
X19275000Y-16909000D02*
X19515000Y-16909000D01*
X20775000Y-16909000D02*
X21015000Y-16909000D01*
X22275000Y-16909000D02*
X22515000Y-16909000D01*
X23785000Y-16910000D02*
X24654000Y-16910000D01*
X24105000Y-16150000D02*
X24105000Y-16909000D01*
X24645000Y-16150000D02*
X24645000Y-22450000D01*
X24655000Y-16150000D02*
X24105000Y-16150000D01*
D14*
X17645000Y-19450000D02*
X16645000Y-19450000D01*
X17145000Y-18450000D01*
X17645000Y-19450000D01*
G36*
X17645000Y-19450000D02*
G01*
X16645000Y-19450000D01*
X17145000Y-18450000D01*
X17645000Y-19450000D01*
G37*
%TO.C,R16*%
X21496359Y-11870000D02*
X21803641Y-11870000D01*
X21496359Y-12630000D02*
X21803641Y-12630000D01*
%TO.C,R15*%
X14453641Y-18370000D02*
X14146359Y-18370000D01*
X14453641Y-19130000D02*
X14146359Y-19130000D01*
D15*
%TO.C,LED1*%
X24400000Y-12799000D02*
X21047000Y-12799000D01*
X24400000Y-14958000D02*
X21047000Y-14958000D01*
D16*
X22075000Y-14456000D02*
G75*
G02*
X21825000Y-14456000I-125000J0D01*
G01*
X21825000Y-14456000D02*
G75*
G02*
X22075000Y-14456000I125000J0D01*
G01*
D14*
%TO.C,R9*%
X10270000Y-6403641D02*
X10270000Y-6096359D01*
X11030000Y-6403641D02*
X11030000Y-6096359D01*
%TO.C,C5*%
X4840000Y-6907836D02*
X4840000Y-6692164D01*
X5560000Y-6907836D02*
X5560000Y-6692164D01*
%TO.C,R14*%
X14146359Y-17370000D02*
X14453641Y-17370000D01*
X14146359Y-18130000D02*
X14453641Y-18130000D01*
%TO.C,C4*%
X10090000Y-1307836D02*
X10090000Y-1092164D01*
X10810000Y-1307836D02*
X10810000Y-1092164D01*
%TO.C,C3*%
X5790000Y-11172164D02*
X5790000Y-11387836D01*
X6510000Y-11172164D02*
X6510000Y-11387836D01*
%TO.C,J1*%
X830000Y-18800000D02*
X830000Y-17100000D01*
X10170000Y-18800000D02*
X10170000Y-17100000D01*
%TO.C,R13*%
X14453641Y-16370000D02*
X14146359Y-16370000D01*
X14453641Y-17130000D02*
X14146359Y-17130000D01*
%TO.C,R7*%
X12070000Y-20403641D02*
X12070000Y-20096359D01*
X12830000Y-20403641D02*
X12830000Y-20096359D01*
%TO.C,R12*%
X23446359Y-11870000D02*
X23753641Y-11870000D01*
X23446359Y-12630000D02*
X23753641Y-12630000D01*
%TO.C,R5*%
X12070000Y-18403641D02*
X12070000Y-18096359D01*
X12830000Y-18403641D02*
X12830000Y-18096359D01*
%TO.C,R4*%
X11070000Y-18096359D02*
X11070000Y-18403641D01*
X11830000Y-18096359D02*
X11830000Y-18403641D01*
D10*
%TO.C,D2*%
X5650000Y-8400000D02*
X5650000Y-9200000D01*
X6650000Y-8400000D02*
X5650000Y-8400000D01*
X6650000Y-8400000D02*
X6650000Y-9200000D01*
X6200000Y-8400000D02*
G75*
G02*
X6100000Y-8400000I-50000J0D01*
G01*
X6100000Y-8400000D02*
G75*
G02*
X6200000Y-8400000I50000J0D01*
G01*
D14*
%TO.C,C2*%
X10190000Y-12942164D02*
X10190000Y-13157836D01*
X10910000Y-12942164D02*
X10910000Y-13157836D01*
%TO.C,C7*%
X21492164Y-15190000D02*
X21707836Y-15190000D01*
X21492164Y-15910000D02*
X21707836Y-15910000D01*
%TO.C,R3*%
X8796359Y-13020000D02*
X9103641Y-13020000D01*
X8796359Y-13780000D02*
X9103641Y-13780000D01*
%TO.C,R2*%
X5720000Y-4503641D02*
X5720000Y-4196359D01*
X6480000Y-4503641D02*
X6480000Y-4196359D01*
%TO.C,R11*%
X14146359Y-19370000D02*
X14453641Y-19370000D01*
X14146359Y-20130000D02*
X14453641Y-20130000D01*
D17*
%TO.C,U5*%
X11150000Y-11650010D02*
X11150000Y-13150010D01*
X11150000Y-14650010D02*
X11150000Y-16150010D01*
X11400010Y-11900000D02*
X11400010Y-15899990D01*
X12650000Y-11650010D02*
X11150000Y-11650010D01*
X12650000Y-16150010D02*
X11150000Y-16150010D01*
X16900000Y-11900000D02*
X11400010Y-11900000D01*
X16900000Y-11900000D02*
X16900000Y-15899990D01*
X16900000Y-15899990D02*
X11400010Y-15899990D01*
X17149990Y-11650010D02*
X15649990Y-11650010D01*
X17149990Y-11650010D02*
X17149990Y-13150010D01*
X17149990Y-14650010D02*
X17149990Y-16150010D01*
X17149990Y-16150010D02*
X15649990Y-16150010D01*
D13*
X12574970Y-13000000D02*
G75*
G02*
X12325030Y-13000000I-124970J0D01*
G01*
X12325030Y-13000000D02*
G75*
G02*
X12574970Y-13000000I124970J0D01*
G01*
D14*
%TO.C,R6*%
X10270000Y-7996359D02*
X10270000Y-8303641D01*
X11030000Y-7996359D02*
X11030000Y-8303641D01*
%TO.C,C1*%
X11792164Y-16390000D02*
X12007836Y-16390000D01*
X11792164Y-17110000D02*
X12007836Y-17110000D01*
%TO.C,R8*%
X11070000Y-20096359D02*
X11070000Y-20403641D01*
X11830000Y-20096359D02*
X11830000Y-20403641D01*
D12*
%TO.C,U1*%
X6921300Y-8576400D02*
X8978700Y-8576400D01*
X8978700Y-5223600D02*
X6921300Y-5223600D01*
X8978700Y-7263261D02*
X8978700Y-6536739D01*
D14*
%TO.C,R1*%
X10070000Y-3253641D02*
X10070000Y-2946359D01*
X10830000Y-3253641D02*
X10830000Y-2946359D01*
%TO.C,U4*%
X11150000Y-10800000D02*
X11150000Y-11600000D01*
X11150000Y-11600000D02*
X11950000Y-11600000D01*
X11350000Y5200000D02*
X24550000Y5200000D01*
X11350000Y-200000D02*
X24550000Y-200000D01*
X11350000Y-11400000D02*
X11350000Y5200000D01*
X12025000Y5400000D02*
X11175000Y5400000D01*
X24000000Y5400000D02*
X24750000Y5400000D01*
X24550000Y5200000D02*
X24550000Y-11400000D01*
X24550000Y-11400000D02*
X11350000Y-11400000D01*
X24750000Y5400000D02*
X24750000Y4800000D01*
X24750000Y-10800000D02*
X24750000Y-11600000D01*
X24750000Y-11600000D02*
X23950000Y-11600000D01*
%TO.C,R10*%
X14146359Y-20370000D02*
X14453641Y-20370000D01*
X14146359Y-21130000D02*
X14453641Y-21130000D01*
D18*
%TO.C,U2*%
X1975000Y-2175000D02*
X1975000Y-1575000D01*
X6925000Y-3175000D02*
X5225000Y-3175000D01*
X8225000Y-575000D02*
X2425000Y-575000D01*
X8675000Y-1575000D02*
X8675000Y-2175000D01*
D14*
%TO.C,RESET1*%
X17600000Y-12400000D02*
X17900000Y-12400000D01*
X17600000Y-15700000D02*
X17600000Y-12400000D01*
X17900000Y-15700000D02*
X17600000Y-15700000D01*
X20100000Y-15700000D02*
X20400000Y-15700000D01*
X20400000Y-12400000D02*
X20100000Y-12400000D01*
X20400000Y-15700000D02*
X20400000Y-12400000D01*
D13*
%TO.C,CN1*%
X450000Y-9400000D02*
X450000Y-13900000D01*
X450000Y-13900000D02*
X5350000Y-13900000D01*
X5350000Y-9400000D02*
X450000Y-9400000D01*
X5350000Y-9400000D02*
X5350000Y-10401000D01*
X5350000Y-11649000D02*
X5350000Y-11651000D01*
X5350000Y-12899000D02*
X5350000Y-13900000D01*
D18*
%TO.C,U3*%
X8100000Y-9050000D02*
X8100000Y-9150000D01*
X8100000Y-12150000D02*
X8100000Y-12050000D01*
X9800000Y-9050000D02*
X8100000Y-9050000D01*
X9800000Y-9050000D02*
X9800000Y-9150000D01*
X9800000Y-12150000D02*
X8100000Y-12150000D01*
X9800000Y-12150000D02*
X9800000Y-12050000D01*
D19*
X8850000Y-9600000D02*
G75*
G02*
X8650000Y-9600000I-100000J0D01*
G01*
X8650000Y-9600000D02*
G75*
G02*
X8850000Y-9600000I100000J0D01*
G01*
D14*
%TO.C,C6*%
X5790000Y-13257836D02*
X5790000Y-13042164D01*
X6510000Y-13257836D02*
X6510000Y-13042164D01*
%TD*%
%LPC*%
D20*
%TO.C,D1*%
X7300000Y-12665000D03*
X7300000Y-13635000D03*
%TD*%
D21*
%TO.C,CN2*%
X17145000Y-17450000D03*
X18645000Y-17450000D03*
X20145000Y-17450000D03*
X21645000Y-17450000D03*
X23145000Y-17450000D03*
%TD*%
D22*
%TO.C,R16*%
X21140000Y-12250000D03*
X22160000Y-12250000D03*
%TD*%
D23*
%TO.C,R15*%
X14810000Y-18750000D03*
X13790000Y-18750000D03*
%TD*%
D24*
%TO.C,LED1*%
X21200000Y-14450000D03*
X21200000Y-13350000D03*
X24100000Y-13350000D03*
X24100000Y-14450000D03*
%TD*%
D25*
%TO.C,R9*%
X10650000Y-6760000D03*
X10650000Y-5740000D03*
%TD*%
D26*
%TO.C,C5*%
X5200000Y-7280000D03*
X5200000Y-6320000D03*
%TD*%
D22*
%TO.C,R14*%
X13790000Y-17750000D03*
X14810000Y-17750000D03*
%TD*%
D26*
%TO.C,C4*%
X10450000Y-1680000D03*
X10450000Y-720000D03*
%TD*%
D27*
%TO.C,C3*%
X6150000Y-10800000D03*
X6150000Y-11760000D03*
%TD*%
D28*
%TO.C,J1*%
X2610000Y-16295000D03*
X8390000Y-16295000D03*
D29*
X2300000Y-15220000D03*
X3100000Y-15220000D03*
D30*
X4250000Y-15220000D03*
X5250000Y-15220000D03*
X5750000Y-15220000D03*
X6750000Y-15220000D03*
D29*
X7900000Y-15220000D03*
X8700000Y-15220000D03*
X8700000Y-15220000D03*
X7900000Y-15220000D03*
D30*
X7250000Y-15220000D03*
X6250000Y-15220000D03*
X4750000Y-15220000D03*
X3750000Y-15220000D03*
D29*
X3100000Y-15220000D03*
X2300000Y-15220000D03*
D31*
X1180000Y-15795000D03*
D32*
X1180000Y-19975000D03*
D31*
X9820000Y-15795000D03*
D32*
X9820000Y-19975000D03*
%TD*%
D23*
%TO.C,R13*%
X14810000Y-16750000D03*
X13790000Y-16750000D03*
%TD*%
D25*
%TO.C,R7*%
X12450000Y-20760000D03*
X12450000Y-19740000D03*
%TD*%
D22*
%TO.C,R12*%
X23090000Y-12250000D03*
X24110000Y-12250000D03*
%TD*%
D25*
%TO.C,R5*%
X12450000Y-18760000D03*
X12450000Y-17740000D03*
%TD*%
D33*
%TO.C,R4*%
X11450000Y-17740000D03*
X11450000Y-18760000D03*
%TD*%
D20*
%TO.C,D2*%
X6150000Y-8915000D03*
X6150000Y-9885000D03*
%TD*%
D27*
%TO.C,C2*%
X10550000Y-12570000D03*
X10550000Y-13530000D03*
%TD*%
D34*
%TO.C,C7*%
X21120000Y-15550000D03*
X22080000Y-15550000D03*
%TD*%
D22*
%TO.C,R3*%
X8440000Y-13400000D03*
X9460000Y-13400000D03*
%TD*%
D25*
%TO.C,R2*%
X6100000Y-4860000D03*
X6100000Y-3840000D03*
%TD*%
D22*
%TO.C,R11*%
X13790000Y-19750000D03*
X14810000Y-19750000D03*
%TD*%
D35*
%TO.C,U5*%
X11902600Y-12222670D03*
D36*
X11711600Y-13150000D03*
X11711600Y-13653070D03*
X11711600Y-14153070D03*
X11711600Y-14653060D03*
D35*
X11902600Y-15575470D03*
X12402600Y-15575470D03*
X12902600Y-15575470D03*
X13402600Y-15575470D03*
X13902600Y-15575470D03*
X14402600Y-15575470D03*
X14902600Y-15575470D03*
X15402600Y-15575470D03*
X15902600Y-15575470D03*
X16410600Y-15575470D03*
D36*
X16537600Y-14653070D03*
X16537600Y-14153070D03*
X16537600Y-13653070D03*
X16537600Y-13150000D03*
D35*
X16410600Y-12222670D03*
X15902600Y-12222670D03*
X15402600Y-12222670D03*
X14902600Y-12222670D03*
X14402600Y-12222670D03*
X13902600Y-12222670D03*
X13402600Y-12222670D03*
X12902600Y-12222670D03*
X12402600Y-12222670D03*
%TD*%
D33*
%TO.C,R6*%
X10650000Y-7640000D03*
X10650000Y-8660000D03*
%TD*%
D34*
%TO.C,C1*%
X11420000Y-16750000D03*
X12380000Y-16750000D03*
%TD*%
D33*
%TO.C,R8*%
X11450000Y-19740000D03*
X11450000Y-20760000D03*
%TD*%
D37*
%TO.C,*%
X2250000Y-6950000D03*
%TD*%
D38*
%TO.C,U1*%
X6654600Y-5949999D03*
X6654600Y-6900000D03*
X6654600Y-7850001D03*
X9245400Y-7850001D03*
X9245400Y-5949999D03*
%TD*%
D25*
%TO.C,R1*%
X10450000Y-3610000D03*
X10450000Y-2590000D03*
%TD*%
D39*
%TO.C,U4*%
X12050000Y-1800000D03*
X12050000Y-2600000D03*
X12050000Y-3400000D03*
X12050000Y-4200000D03*
X12050000Y-5000000D03*
X12050000Y-5800000D03*
X12050000Y-6600000D03*
X12050000Y-7400000D03*
X12050000Y-8200000D03*
X12050000Y-9000000D03*
X12050000Y-9800000D03*
D40*
X13150000Y-10700000D03*
X13950000Y-10700000D03*
X14750000Y-10700000D03*
X15550000Y-10700000D03*
X16350000Y-10700000D03*
X17150000Y-10700000D03*
X17950000Y-10700000D03*
X18750000Y-10700000D03*
X19550000Y-10700000D03*
X20350000Y-10700000D03*
X21150000Y-10700000D03*
X21950000Y-10700000D03*
X22750000Y-10700000D03*
D39*
X23850000Y-9800000D03*
X23850000Y-9000000D03*
X23850000Y-8200000D03*
X23850000Y-7400000D03*
X23850000Y-6600000D03*
X23850000Y-5800000D03*
X23850000Y-5000000D03*
X23850000Y-4200000D03*
X23850000Y-3400000D03*
X23850000Y-2600000D03*
X23850000Y-1800000D03*
D40*
X22750000Y-900000D03*
X21950000Y-900000D03*
X21150000Y-900000D03*
X20350000Y-900000D03*
X19550000Y-900000D03*
X18750000Y-900000D03*
X17950000Y-900000D03*
X17150000Y-900000D03*
X16350000Y-900000D03*
X15550000Y-900000D03*
X14750000Y-900000D03*
X13950000Y-900000D03*
X13150000Y-900000D03*
D41*
X15975000Y-3825000D03*
D42*
X15975000Y-5800000D03*
X15975000Y-7775000D03*
X17950000Y-3825000D03*
X17950000Y-5800000D03*
X17950000Y-7775000D03*
X19925000Y-3825000D03*
X19925000Y-5800000D03*
X19925000Y-7775000D03*
D43*
X23900000Y-850000D03*
X23900000Y-10750000D03*
X12000000Y-10750000D03*
X12000000Y-850000D03*
%TD*%
D22*
%TO.C,R10*%
X13790000Y-20750000D03*
X14810000Y-20750000D03*
%TD*%
D44*
%TO.C,U2*%
X6825000Y-1875000D03*
X3825000Y-1875000D03*
D45*
X4575000Y-3625000D03*
D46*
X8975000Y-2840000D03*
X8975000Y-910000D03*
X1675000Y-2840000D03*
X1675000Y-910000D03*
D45*
X3075000Y-3625000D03*
X7575000Y-3625000D03*
%TD*%
D47*
%TO.C,RESET1*%
X19000000Y-14050000D03*
D48*
X19000000Y-15750000D03*
X19000000Y-12350000D03*
%TD*%
D49*
%TO.C,CN1*%
X4969000Y-11025000D03*
X4969000Y-12275000D03*
%TD*%
D50*
%TO.C,U3*%
X7765000Y-9650000D03*
X7765000Y-10600000D03*
X7765000Y-11550000D03*
X10135000Y-11550000D03*
X10135000Y-9650000D03*
%TD*%
D26*
%TO.C,C6*%
X6150000Y-13630000D03*
X6150000Y-12670000D03*
%TD*%
%LPD*%
M02*
