M48
; DRILL file {KiCad 8.0.6-8.0.6-0~ubuntu24.04.1} date 2024-11-07T17:00:29-0800
; FORMAT={-:-/ absolute / inch / decimal}
; #@! TF.CreationDate,2024-11-07T17:00:29-08:00
; #@! TF.GenerationSoftware,Kicad,Pcbnew,8.0.6-8.0.6-0~ubuntu24.04.1
; #@! TF.FileFunction,Plated,1,2,PTH
FMAT,2
INCH
; #@! TA.AperFunction,Plated,PTH,ViaDrill
T1C0.0118
; #@! TA.AperFunction,Plated,PTH,ViaDrill
T2C0.0157
; #@! TA.AperFunction,Plated,PTH,ComponentDrill
T3C0.0236
; #@! TA.AperFunction,Plated,PTH,ComponentDrill
T4C0.0295
%
G90
G05
T1
X0.1801Y-0.1781
X0.2175Y-0.3888
X0.2854Y-0.6457
X0.3193Y-0.5029
X0.3622Y-0.7126
X0.3847Y-0.4962
X0.3898Y-0.6899
X0.4114Y-0.1732
X0.412Y-0.7336
X0.4193Y-0.1996
X0.4469Y-0.3247
X0.4984Y-0.5577
X0.515Y-0.6793
X0.5179Y-0.8445
X0.5243Y-0.3219
X0.547Y-0.2586
X0.5481Y-0.5413
X0.5492Y-0.3858
X0.6088Y-0.5542
X0.6112Y-0.6489
X0.6122Y-0.3844
X0.6702Y-0.4823
X0.6752Y-0.3937
X0.7067Y-0.3957
X0.7156Y-0.4724
X0.7727Y-0.3934
X0.8012Y-0.3792
X0.8406Y-0.374
X0.8543Y-0.2874
X0.8758Y-0.5707
X0.8819Y-0.1713
X0.8917Y-0.3819
X0.9114Y-0.7462
T2
X0.1575Y-0.6732
X0.2913Y-0.2717
X0.315Y-0.3091
X0.3375Y-0.4173
X0.3899Y-0.1974
X0.3996Y-0.4134
X0.6122Y-0.065
X0.6516Y-0.7874
X0.7402Y-0.7598
X0.748Y-0.6161
X0.7994Y-0.3069
X0.8012Y-0.563
X0.9291Y-0.4547
T3
X0.1956Y-0.4341
X0.1956Y-0.4833
T4
X0.675Y-0.687
X0.7341Y-0.687
X0.7931Y-0.687
X0.8522Y-0.687
X0.9112Y-0.687
T3
G00X0.0465Y-0.6002
M15
G01X0.0465Y-0.6435
M16
G05
G00X0.0465Y-0.7707
M15
G01X0.0465Y-0.8022
M16
G05
G00X0.3866Y-0.6002
M15
G01X0.3866Y-0.6435
M16
G05
G00X0.3866Y-0.7707
M15
G01X0.3866Y-0.8022
M16
G05
M30
