%TF.GenerationSoftware,KiCad,Pcbnew,8.0.6-8.0.6-0~ubuntu24.04.1*%
%TF.CreationDate,2024-11-07T17:00:29-08:00*%
%TF.ProjectId,uSlime,75536c69-6d65-42e6-9b69-6361645f7063,rev?*%
%TF.SameCoordinates,Original*%
%TF.FileFunction,Other,Comment*%
%FSLAX46Y46*%
G04 Gerber Fmt 4.6, Leading zero omitted, Abs format (unit mm)*
G04 Created by KiCad (PCBNEW 8.0.6-8.0.6-0~ubuntu24.04.1) date 2024-11-07 17:00:29*
%MOMM*%
%LPD*%
G01*
G04 APERTURE LIST*
%ADD10C,0.150000*%
%ADD11C,0.100000*%
%ADD12C,0.050000*%
G04 APERTURE END LIST*
D10*
X7880953Y9849943D02*
X7928572Y9897562D01*
X7928572Y9897562D02*
X8023810Y9945181D01*
X8023810Y9945181D02*
X8261905Y9945181D01*
X8261905Y9945181D02*
X8357143Y9897562D01*
X8357143Y9897562D02*
X8404762Y9849943D01*
X8404762Y9849943D02*
X8452381Y9754705D01*
X8452381Y9754705D02*
X8452381Y9659467D01*
X8452381Y9659467D02*
X8404762Y9516610D01*
X8404762Y9516610D02*
X7833334Y8945181D01*
X7833334Y8945181D02*
X8452381Y8945181D01*
X9357143Y9945181D02*
X8880953Y9945181D01*
X8880953Y9945181D02*
X8833334Y9468991D01*
X8833334Y9468991D02*
X8880953Y9516610D01*
X8880953Y9516610D02*
X8976191Y9564229D01*
X8976191Y9564229D02*
X9214286Y9564229D01*
X9214286Y9564229D02*
X9309524Y9516610D01*
X9309524Y9516610D02*
X9357143Y9468991D01*
X9357143Y9468991D02*
X9404762Y9373753D01*
X9404762Y9373753D02*
X9404762Y9135658D01*
X9404762Y9135658D02*
X9357143Y9040420D01*
X9357143Y9040420D02*
X9309524Y8992800D01*
X9309524Y8992800D02*
X9214286Y8945181D01*
X9214286Y8945181D02*
X8976191Y8945181D01*
X8976191Y8945181D02*
X8880953Y8992800D01*
X8880953Y8992800D02*
X8833334Y9040420D01*
X9833334Y9040420D02*
X9880953Y8992800D01*
X9880953Y8992800D02*
X9833334Y8945181D01*
X9833334Y8945181D02*
X9785715Y8992800D01*
X9785715Y8992800D02*
X9833334Y9040420D01*
X9833334Y9040420D02*
X9833334Y8945181D01*
X10500000Y9945181D02*
X10595238Y9945181D01*
X10595238Y9945181D02*
X10690476Y9897562D01*
X10690476Y9897562D02*
X10738095Y9849943D01*
X10738095Y9849943D02*
X10785714Y9754705D01*
X10785714Y9754705D02*
X10833333Y9564229D01*
X10833333Y9564229D02*
X10833333Y9326134D01*
X10833333Y9326134D02*
X10785714Y9135658D01*
X10785714Y9135658D02*
X10738095Y9040420D01*
X10738095Y9040420D02*
X10690476Y8992800D01*
X10690476Y8992800D02*
X10595238Y8945181D01*
X10595238Y8945181D02*
X10500000Y8945181D01*
X10500000Y8945181D02*
X10404762Y8992800D01*
X10404762Y8992800D02*
X10357143Y9040420D01*
X10357143Y9040420D02*
X10309524Y9135658D01*
X10309524Y9135658D02*
X10261905Y9326134D01*
X10261905Y9326134D02*
X10261905Y9564229D01*
X10261905Y9564229D02*
X10309524Y9754705D01*
X10309524Y9754705D02*
X10357143Y9849943D01*
X10357143Y9849943D02*
X10404762Y9897562D01*
X10404762Y9897562D02*
X10500000Y9945181D01*
X11452381Y9945181D02*
X11547619Y9945181D01*
X11547619Y9945181D02*
X11642857Y9897562D01*
X11642857Y9897562D02*
X11690476Y9849943D01*
X11690476Y9849943D02*
X11738095Y9754705D01*
X11738095Y9754705D02*
X11785714Y9564229D01*
X11785714Y9564229D02*
X11785714Y9326134D01*
X11785714Y9326134D02*
X11738095Y9135658D01*
X11738095Y9135658D02*
X11690476Y9040420D01*
X11690476Y9040420D02*
X11642857Y8992800D01*
X11642857Y8992800D02*
X11547619Y8945181D01*
X11547619Y8945181D02*
X11452381Y8945181D01*
X11452381Y8945181D02*
X11357143Y8992800D01*
X11357143Y8992800D02*
X11309524Y9040420D01*
X11309524Y9040420D02*
X11261905Y9135658D01*
X11261905Y9135658D02*
X11214286Y9326134D01*
X11214286Y9326134D02*
X11214286Y9564229D01*
X11214286Y9564229D02*
X11261905Y9754705D01*
X11261905Y9754705D02*
X11309524Y9849943D01*
X11309524Y9849943D02*
X11357143Y9897562D01*
X11357143Y9897562D02*
X11452381Y9945181D01*
X12404762Y9945181D02*
X12500000Y9945181D01*
X12500000Y9945181D02*
X12595238Y9897562D01*
X12595238Y9897562D02*
X12642857Y9849943D01*
X12642857Y9849943D02*
X12690476Y9754705D01*
X12690476Y9754705D02*
X12738095Y9564229D01*
X12738095Y9564229D02*
X12738095Y9326134D01*
X12738095Y9326134D02*
X12690476Y9135658D01*
X12690476Y9135658D02*
X12642857Y9040420D01*
X12642857Y9040420D02*
X12595238Y8992800D01*
X12595238Y8992800D02*
X12500000Y8945181D01*
X12500000Y8945181D02*
X12404762Y8945181D01*
X12404762Y8945181D02*
X12309524Y8992800D01*
X12309524Y8992800D02*
X12261905Y9040420D01*
X12261905Y9040420D02*
X12214286Y9135658D01*
X12214286Y9135658D02*
X12166667Y9326134D01*
X12166667Y9326134D02*
X12166667Y9564229D01*
X12166667Y9564229D02*
X12214286Y9754705D01*
X12214286Y9754705D02*
X12261905Y9849943D01*
X12261905Y9849943D02*
X12309524Y9897562D01*
X12309524Y9897562D02*
X12404762Y9945181D01*
X13357143Y9945181D02*
X13452381Y9945181D01*
X13452381Y9945181D02*
X13547619Y9897562D01*
X13547619Y9897562D02*
X13595238Y9849943D01*
X13595238Y9849943D02*
X13642857Y9754705D01*
X13642857Y9754705D02*
X13690476Y9564229D01*
X13690476Y9564229D02*
X13690476Y9326134D01*
X13690476Y9326134D02*
X13642857Y9135658D01*
X13642857Y9135658D02*
X13595238Y9040420D01*
X13595238Y9040420D02*
X13547619Y8992800D01*
X13547619Y8992800D02*
X13452381Y8945181D01*
X13452381Y8945181D02*
X13357143Y8945181D01*
X13357143Y8945181D02*
X13261905Y8992800D01*
X13261905Y8992800D02*
X13214286Y9040420D01*
X13214286Y9040420D02*
X13166667Y9135658D01*
X13166667Y9135658D02*
X13119048Y9326134D01*
X13119048Y9326134D02*
X13119048Y9564229D01*
X13119048Y9564229D02*
X13166667Y9754705D01*
X13166667Y9754705D02*
X13214286Y9849943D01*
X13214286Y9849943D02*
X13261905Y9897562D01*
X13261905Y9897562D02*
X13357143Y9945181D01*
X14880953Y8945181D02*
X14880953Y9611848D01*
X14880953Y9516610D02*
X14928572Y9564229D01*
X14928572Y9564229D02*
X15023810Y9611848D01*
X15023810Y9611848D02*
X15166667Y9611848D01*
X15166667Y9611848D02*
X15261905Y9564229D01*
X15261905Y9564229D02*
X15309524Y9468991D01*
X15309524Y9468991D02*
X15309524Y8945181D01*
X15309524Y9468991D02*
X15357143Y9564229D01*
X15357143Y9564229D02*
X15452381Y9611848D01*
X15452381Y9611848D02*
X15595238Y9611848D01*
X15595238Y9611848D02*
X15690477Y9564229D01*
X15690477Y9564229D02*
X15738096Y9468991D01*
X15738096Y9468991D02*
X15738096Y8945181D01*
X16214286Y8945181D02*
X16214286Y9611848D01*
X16214286Y9516610D02*
X16261905Y9564229D01*
X16261905Y9564229D02*
X16357143Y9611848D01*
X16357143Y9611848D02*
X16500000Y9611848D01*
X16500000Y9611848D02*
X16595238Y9564229D01*
X16595238Y9564229D02*
X16642857Y9468991D01*
X16642857Y9468991D02*
X16642857Y8945181D01*
X16642857Y9468991D02*
X16690476Y9564229D01*
X16690476Y9564229D02*
X16785714Y9611848D01*
X16785714Y9611848D02*
X16928571Y9611848D01*
X16928571Y9611848D02*
X17023810Y9564229D01*
X17023810Y9564229D02*
X17071429Y9468991D01*
X17071429Y9468991D02*
X17071429Y8945181D01*
D11*
X25000000Y500000D02*
X25000000Y8836420D01*
X0Y500000D02*
X0Y8836420D01*
X25000000Y8250000D02*
X0Y8250000D01*
X25000000Y8250000D02*
X0Y8250000D01*
X25000000Y8250000D02*
X23873496Y7663579D01*
X25000000Y8250000D02*
X23873496Y8836421D01*
X0Y8250000D02*
X1126504Y8836421D01*
X0Y8250000D02*
X1126504Y7663579D01*
D10*
X26680952Y3195181D02*
X26204762Y3195181D01*
X26204762Y3195181D02*
X26157143Y2718991D01*
X26157143Y2718991D02*
X26204762Y2766610D01*
X26204762Y2766610D02*
X26300000Y2814229D01*
X26300000Y2814229D02*
X26538095Y2814229D01*
X26538095Y2814229D02*
X26633333Y2766610D01*
X26633333Y2766610D02*
X26680952Y2718991D01*
X26680952Y2718991D02*
X26728571Y2623753D01*
X26728571Y2623753D02*
X26728571Y2385658D01*
X26728571Y2385658D02*
X26680952Y2290420D01*
X26680952Y2290420D02*
X26633333Y2242800D01*
X26633333Y2242800D02*
X26538095Y2195181D01*
X26538095Y2195181D02*
X26300000Y2195181D01*
X26300000Y2195181D02*
X26204762Y2242800D01*
X26204762Y2242800D02*
X26157143Y2290420D01*
X27157143Y2290420D02*
X27204762Y2242800D01*
X27204762Y2242800D02*
X27157143Y2195181D01*
X27157143Y2195181D02*
X27109524Y2242800D01*
X27109524Y2242800D02*
X27157143Y2290420D01*
X27157143Y2290420D02*
X27157143Y2195181D01*
X28061904Y2861848D02*
X28061904Y2195181D01*
X27823809Y3242800D02*
X27585714Y2528515D01*
X27585714Y2528515D02*
X28204761Y2528515D01*
X28776190Y3195181D02*
X28871428Y3195181D01*
X28871428Y3195181D02*
X28966666Y3147562D01*
X28966666Y3147562D02*
X29014285Y3099943D01*
X29014285Y3099943D02*
X29061904Y3004705D01*
X29061904Y3004705D02*
X29109523Y2814229D01*
X29109523Y2814229D02*
X29109523Y2576134D01*
X29109523Y2576134D02*
X29061904Y2385658D01*
X29061904Y2385658D02*
X29014285Y2290420D01*
X29014285Y2290420D02*
X28966666Y2242800D01*
X28966666Y2242800D02*
X28871428Y2195181D01*
X28871428Y2195181D02*
X28776190Y2195181D01*
X28776190Y2195181D02*
X28680952Y2242800D01*
X28680952Y2242800D02*
X28633333Y2290420D01*
X28633333Y2290420D02*
X28585714Y2385658D01*
X28585714Y2385658D02*
X28538095Y2576134D01*
X28538095Y2576134D02*
X28538095Y2814229D01*
X28538095Y2814229D02*
X28585714Y3004705D01*
X28585714Y3004705D02*
X28633333Y3099943D01*
X28633333Y3099943D02*
X28680952Y3147562D01*
X28680952Y3147562D02*
X28776190Y3195181D01*
X29728571Y3195181D02*
X29823809Y3195181D01*
X29823809Y3195181D02*
X29919047Y3147562D01*
X29919047Y3147562D02*
X29966666Y3099943D01*
X29966666Y3099943D02*
X30014285Y3004705D01*
X30014285Y3004705D02*
X30061904Y2814229D01*
X30061904Y2814229D02*
X30061904Y2576134D01*
X30061904Y2576134D02*
X30014285Y2385658D01*
X30014285Y2385658D02*
X29966666Y2290420D01*
X29966666Y2290420D02*
X29919047Y2242800D01*
X29919047Y2242800D02*
X29823809Y2195181D01*
X29823809Y2195181D02*
X29728571Y2195181D01*
X29728571Y2195181D02*
X29633333Y2242800D01*
X29633333Y2242800D02*
X29585714Y2290420D01*
X29585714Y2290420D02*
X29538095Y2385658D01*
X29538095Y2385658D02*
X29490476Y2576134D01*
X29490476Y2576134D02*
X29490476Y2814229D01*
X29490476Y2814229D02*
X29538095Y3004705D01*
X29538095Y3004705D02*
X29585714Y3099943D01*
X29585714Y3099943D02*
X29633333Y3147562D01*
X29633333Y3147562D02*
X29728571Y3195181D01*
X30680952Y3195181D02*
X30776190Y3195181D01*
X30776190Y3195181D02*
X30871428Y3147562D01*
X30871428Y3147562D02*
X30919047Y3099943D01*
X30919047Y3099943D02*
X30966666Y3004705D01*
X30966666Y3004705D02*
X31014285Y2814229D01*
X31014285Y2814229D02*
X31014285Y2576134D01*
X31014285Y2576134D02*
X30966666Y2385658D01*
X30966666Y2385658D02*
X30919047Y2290420D01*
X30919047Y2290420D02*
X30871428Y2242800D01*
X30871428Y2242800D02*
X30776190Y2195181D01*
X30776190Y2195181D02*
X30680952Y2195181D01*
X30680952Y2195181D02*
X30585714Y2242800D01*
X30585714Y2242800D02*
X30538095Y2290420D01*
X30538095Y2290420D02*
X30490476Y2385658D01*
X30490476Y2385658D02*
X30442857Y2576134D01*
X30442857Y2576134D02*
X30442857Y2814229D01*
X30442857Y2814229D02*
X30490476Y3004705D01*
X30490476Y3004705D02*
X30538095Y3099943D01*
X30538095Y3099943D02*
X30585714Y3147562D01*
X30585714Y3147562D02*
X30680952Y3195181D01*
X32204762Y2195181D02*
X32204762Y2861848D01*
X32204762Y2766610D02*
X32252381Y2814229D01*
X32252381Y2814229D02*
X32347619Y2861848D01*
X32347619Y2861848D02*
X32490476Y2861848D01*
X32490476Y2861848D02*
X32585714Y2814229D01*
X32585714Y2814229D02*
X32633333Y2718991D01*
X32633333Y2718991D02*
X32633333Y2195181D01*
X32633333Y2718991D02*
X32680952Y2814229D01*
X32680952Y2814229D02*
X32776190Y2861848D01*
X32776190Y2861848D02*
X32919047Y2861848D01*
X32919047Y2861848D02*
X33014286Y2814229D01*
X33014286Y2814229D02*
X33061905Y2718991D01*
X33061905Y2718991D02*
X33061905Y2195181D01*
X33538095Y2195181D02*
X33538095Y2861848D01*
X33538095Y2766610D02*
X33585714Y2814229D01*
X33585714Y2814229D02*
X33680952Y2861848D01*
X33680952Y2861848D02*
X33823809Y2861848D01*
X33823809Y2861848D02*
X33919047Y2814229D01*
X33919047Y2814229D02*
X33966666Y2718991D01*
X33966666Y2718991D02*
X33966666Y2195181D01*
X33966666Y2718991D02*
X34014285Y2814229D01*
X34014285Y2814229D02*
X34109523Y2861848D01*
X34109523Y2861848D02*
X34252380Y2861848D01*
X34252380Y2861848D02*
X34347619Y2814229D01*
X34347619Y2814229D02*
X34395238Y2718991D01*
X34395238Y2718991D02*
X34395238Y2195181D01*
D11*
X25250000Y5400000D02*
X30886420Y5400000D01*
X25250000Y0D02*
X30886420Y0D01*
X30300000Y5400000D02*
X30300000Y3348250D01*
X30300000Y1951750D02*
X30300000Y0D01*
X30300000Y5400000D02*
X30886421Y4273496D01*
X30300000Y5400000D02*
X29713579Y4273496D01*
X30300000Y0D02*
X29713579Y1126504D01*
X30300000Y0D02*
X30886421Y1126504D01*
X25730953Y-11602657D02*
X25778572Y-11555038D01*
X25778572Y-11555038D02*
X25873810Y-11507419D01*
X25873810Y-11507419D02*
X26111905Y-11507419D01*
X26111905Y-11507419D02*
X26207143Y-11555038D01*
X26207143Y-11555038D02*
X26254762Y-11602657D01*
X26254762Y-11602657D02*
X26302381Y-11697895D01*
X26302381Y-11697895D02*
X26302381Y-11793133D01*
X26302381Y-11793133D02*
X26254762Y-11935990D01*
X26254762Y-11935990D02*
X25683334Y-12507419D01*
X25683334Y-12507419D02*
X26302381Y-12507419D01*
X26683334Y-11602657D02*
X26730953Y-11555038D01*
X26730953Y-11555038D02*
X26826191Y-11507419D01*
X26826191Y-11507419D02*
X27064286Y-11507419D01*
X27064286Y-11507419D02*
X27159524Y-11555038D01*
X27159524Y-11555038D02*
X27207143Y-11602657D01*
X27207143Y-11602657D02*
X27254762Y-11697895D01*
X27254762Y-11697895D02*
X27254762Y-11793133D01*
X27254762Y-11793133D02*
X27207143Y-11935990D01*
X27207143Y-11935990D02*
X26635715Y-12507419D01*
X26635715Y-12507419D02*
X27254762Y-12507419D01*
X27683334Y-12412180D02*
X27730953Y-12459800D01*
X27730953Y-12459800D02*
X27683334Y-12507419D01*
X27683334Y-12507419D02*
X27635715Y-12459800D01*
X27635715Y-12459800D02*
X27683334Y-12412180D01*
X27683334Y-12412180D02*
X27683334Y-12507419D01*
X28588095Y-11507419D02*
X28397619Y-11507419D01*
X28397619Y-11507419D02*
X28302381Y-11555038D01*
X28302381Y-11555038D02*
X28254762Y-11602657D01*
X28254762Y-11602657D02*
X28159524Y-11745514D01*
X28159524Y-11745514D02*
X28111905Y-11935990D01*
X28111905Y-11935990D02*
X28111905Y-12316942D01*
X28111905Y-12316942D02*
X28159524Y-12412180D01*
X28159524Y-12412180D02*
X28207143Y-12459800D01*
X28207143Y-12459800D02*
X28302381Y-12507419D01*
X28302381Y-12507419D02*
X28492857Y-12507419D01*
X28492857Y-12507419D02*
X28588095Y-12459800D01*
X28588095Y-12459800D02*
X28635714Y-12412180D01*
X28635714Y-12412180D02*
X28683333Y-12316942D01*
X28683333Y-12316942D02*
X28683333Y-12078847D01*
X28683333Y-12078847D02*
X28635714Y-11983609D01*
X28635714Y-11983609D02*
X28588095Y-11935990D01*
X28588095Y-11935990D02*
X28492857Y-11888371D01*
X28492857Y-11888371D02*
X28302381Y-11888371D01*
X28302381Y-11888371D02*
X28207143Y-11935990D01*
X28207143Y-11935990D02*
X28159524Y-11983609D01*
X28159524Y-11983609D02*
X28111905Y-12078847D01*
X29302381Y-11507419D02*
X29397619Y-11507419D01*
X29397619Y-11507419D02*
X29492857Y-11555038D01*
X29492857Y-11555038D02*
X29540476Y-11602657D01*
X29540476Y-11602657D02*
X29588095Y-11697895D01*
X29588095Y-11697895D02*
X29635714Y-11888371D01*
X29635714Y-11888371D02*
X29635714Y-12126466D01*
X29635714Y-12126466D02*
X29588095Y-12316942D01*
X29588095Y-12316942D02*
X29540476Y-12412180D01*
X29540476Y-12412180D02*
X29492857Y-12459800D01*
X29492857Y-12459800D02*
X29397619Y-12507419D01*
X29397619Y-12507419D02*
X29302381Y-12507419D01*
X29302381Y-12507419D02*
X29207143Y-12459800D01*
X29207143Y-12459800D02*
X29159524Y-12412180D01*
X29159524Y-12412180D02*
X29111905Y-12316942D01*
X29111905Y-12316942D02*
X29064286Y-12126466D01*
X29064286Y-12126466D02*
X29064286Y-11888371D01*
X29064286Y-11888371D02*
X29111905Y-11697895D01*
X29111905Y-11697895D02*
X29159524Y-11602657D01*
X29159524Y-11602657D02*
X29207143Y-11555038D01*
X29207143Y-11555038D02*
X29302381Y-11507419D01*
X30254762Y-11507419D02*
X30350000Y-11507419D01*
X30350000Y-11507419D02*
X30445238Y-11555038D01*
X30445238Y-11555038D02*
X30492857Y-11602657D01*
X30492857Y-11602657D02*
X30540476Y-11697895D01*
X30540476Y-11697895D02*
X30588095Y-11888371D01*
X30588095Y-11888371D02*
X30588095Y-12126466D01*
X30588095Y-12126466D02*
X30540476Y-12316942D01*
X30540476Y-12316942D02*
X30492857Y-12412180D01*
X30492857Y-12412180D02*
X30445238Y-12459800D01*
X30445238Y-12459800D02*
X30350000Y-12507419D01*
X30350000Y-12507419D02*
X30254762Y-12507419D01*
X30254762Y-12507419D02*
X30159524Y-12459800D01*
X30159524Y-12459800D02*
X30111905Y-12412180D01*
X30111905Y-12412180D02*
X30064286Y-12316942D01*
X30064286Y-12316942D02*
X30016667Y-12126466D01*
X30016667Y-12126466D02*
X30016667Y-11888371D01*
X30016667Y-11888371D02*
X30064286Y-11697895D01*
X30064286Y-11697895D02*
X30111905Y-11602657D01*
X30111905Y-11602657D02*
X30159524Y-11555038D01*
X30159524Y-11555038D02*
X30254762Y-11507419D01*
X31207143Y-11507419D02*
X31302381Y-11507419D01*
X31302381Y-11507419D02*
X31397619Y-11555038D01*
X31397619Y-11555038D02*
X31445238Y-11602657D01*
X31445238Y-11602657D02*
X31492857Y-11697895D01*
X31492857Y-11697895D02*
X31540476Y-11888371D01*
X31540476Y-11888371D02*
X31540476Y-12126466D01*
X31540476Y-12126466D02*
X31492857Y-12316942D01*
X31492857Y-12316942D02*
X31445238Y-12412180D01*
X31445238Y-12412180D02*
X31397619Y-12459800D01*
X31397619Y-12459800D02*
X31302381Y-12507419D01*
X31302381Y-12507419D02*
X31207143Y-12507419D01*
X31207143Y-12507419D02*
X31111905Y-12459800D01*
X31111905Y-12459800D02*
X31064286Y-12412180D01*
X31064286Y-12412180D02*
X31016667Y-12316942D01*
X31016667Y-12316942D02*
X30969048Y-12126466D01*
X30969048Y-12126466D02*
X30969048Y-11888371D01*
X30969048Y-11888371D02*
X31016667Y-11697895D01*
X31016667Y-11697895D02*
X31064286Y-11602657D01*
X31064286Y-11602657D02*
X31111905Y-11555038D01*
X31111905Y-11555038D02*
X31207143Y-11507419D01*
X32730953Y-12507419D02*
X32730953Y-11840752D01*
X32730953Y-11935990D02*
X32778572Y-11888371D01*
X32778572Y-11888371D02*
X32873810Y-11840752D01*
X32873810Y-11840752D02*
X33016667Y-11840752D01*
X33016667Y-11840752D02*
X33111905Y-11888371D01*
X33111905Y-11888371D02*
X33159524Y-11983609D01*
X33159524Y-11983609D02*
X33159524Y-12507419D01*
X33159524Y-11983609D02*
X33207143Y-11888371D01*
X33207143Y-11888371D02*
X33302381Y-11840752D01*
X33302381Y-11840752D02*
X33445238Y-11840752D01*
X33445238Y-11840752D02*
X33540477Y-11888371D01*
X33540477Y-11888371D02*
X33588096Y-11983609D01*
X33588096Y-11983609D02*
X33588096Y-12507419D01*
X34064286Y-12507419D02*
X34064286Y-11840752D01*
X34064286Y-11935990D02*
X34111905Y-11888371D01*
X34111905Y-11888371D02*
X34207143Y-11840752D01*
X34207143Y-11840752D02*
X34350000Y-11840752D01*
X34350000Y-11840752D02*
X34445238Y-11888371D01*
X34445238Y-11888371D02*
X34492857Y-11983609D01*
X34492857Y-11983609D02*
X34492857Y-12507419D01*
X34492857Y-11983609D02*
X34540476Y-11888371D01*
X34540476Y-11888371D02*
X34635714Y-11840752D01*
X34635714Y-11840752D02*
X34778571Y-11840752D01*
X34778571Y-11840752D02*
X34873810Y-11888371D01*
X34873810Y-11888371D02*
X34921429Y-11983609D01*
X34921429Y-11983609D02*
X34921429Y-12507419D01*
X25500000Y0D02*
X30886420Y0D01*
X25500000Y-22600000D02*
X30886420Y-22600000D01*
X30300000Y0D02*
X30300000Y-11389500D01*
X30300000Y-12710500D02*
X30300000Y-22600000D01*
X30300000Y0D02*
X30886421Y-1126504D01*
X30300000Y0D02*
X29713579Y-1126504D01*
X30300000Y-22600000D02*
X29713579Y-21473496D01*
X30300000Y-22600000D02*
X30886421Y-21473496D01*
D10*
X31030953Y-8250057D02*
X31078572Y-8202438D01*
X31078572Y-8202438D02*
X31173810Y-8154819D01*
X31173810Y-8154819D02*
X31411905Y-8154819D01*
X31411905Y-8154819D02*
X31507143Y-8202438D01*
X31507143Y-8202438D02*
X31554762Y-8250057D01*
X31554762Y-8250057D02*
X31602381Y-8345295D01*
X31602381Y-8345295D02*
X31602381Y-8440533D01*
X31602381Y-8440533D02*
X31554762Y-8583390D01*
X31554762Y-8583390D02*
X30983334Y-9154819D01*
X30983334Y-9154819D02*
X31602381Y-9154819D01*
X32173810Y-8583390D02*
X32078572Y-8535771D01*
X32078572Y-8535771D02*
X32030953Y-8488152D01*
X32030953Y-8488152D02*
X31983334Y-8392914D01*
X31983334Y-8392914D02*
X31983334Y-8345295D01*
X31983334Y-8345295D02*
X32030953Y-8250057D01*
X32030953Y-8250057D02*
X32078572Y-8202438D01*
X32078572Y-8202438D02*
X32173810Y-8154819D01*
X32173810Y-8154819D02*
X32364286Y-8154819D01*
X32364286Y-8154819D02*
X32459524Y-8202438D01*
X32459524Y-8202438D02*
X32507143Y-8250057D01*
X32507143Y-8250057D02*
X32554762Y-8345295D01*
X32554762Y-8345295D02*
X32554762Y-8392914D01*
X32554762Y-8392914D02*
X32507143Y-8488152D01*
X32507143Y-8488152D02*
X32459524Y-8535771D01*
X32459524Y-8535771D02*
X32364286Y-8583390D01*
X32364286Y-8583390D02*
X32173810Y-8583390D01*
X32173810Y-8583390D02*
X32078572Y-8631009D01*
X32078572Y-8631009D02*
X32030953Y-8678628D01*
X32030953Y-8678628D02*
X31983334Y-8773866D01*
X31983334Y-8773866D02*
X31983334Y-8964342D01*
X31983334Y-8964342D02*
X32030953Y-9059580D01*
X32030953Y-9059580D02*
X32078572Y-9107200D01*
X32078572Y-9107200D02*
X32173810Y-9154819D01*
X32173810Y-9154819D02*
X32364286Y-9154819D01*
X32364286Y-9154819D02*
X32459524Y-9107200D01*
X32459524Y-9107200D02*
X32507143Y-9059580D01*
X32507143Y-9059580D02*
X32554762Y-8964342D01*
X32554762Y-8964342D02*
X32554762Y-8773866D01*
X32554762Y-8773866D02*
X32507143Y-8678628D01*
X32507143Y-8678628D02*
X32459524Y-8631009D01*
X32459524Y-8631009D02*
X32364286Y-8583390D01*
X32983334Y-9059580D02*
X33030953Y-9107200D01*
X33030953Y-9107200D02*
X32983334Y-9154819D01*
X32983334Y-9154819D02*
X32935715Y-9107200D01*
X32935715Y-9107200D02*
X32983334Y-9059580D01*
X32983334Y-9059580D02*
X32983334Y-9154819D01*
X33650000Y-8154819D02*
X33745238Y-8154819D01*
X33745238Y-8154819D02*
X33840476Y-8202438D01*
X33840476Y-8202438D02*
X33888095Y-8250057D01*
X33888095Y-8250057D02*
X33935714Y-8345295D01*
X33935714Y-8345295D02*
X33983333Y-8535771D01*
X33983333Y-8535771D02*
X33983333Y-8773866D01*
X33983333Y-8773866D02*
X33935714Y-8964342D01*
X33935714Y-8964342D02*
X33888095Y-9059580D01*
X33888095Y-9059580D02*
X33840476Y-9107200D01*
X33840476Y-9107200D02*
X33745238Y-9154819D01*
X33745238Y-9154819D02*
X33650000Y-9154819D01*
X33650000Y-9154819D02*
X33554762Y-9107200D01*
X33554762Y-9107200D02*
X33507143Y-9059580D01*
X33507143Y-9059580D02*
X33459524Y-8964342D01*
X33459524Y-8964342D02*
X33411905Y-8773866D01*
X33411905Y-8773866D02*
X33411905Y-8535771D01*
X33411905Y-8535771D02*
X33459524Y-8345295D01*
X33459524Y-8345295D02*
X33507143Y-8250057D01*
X33507143Y-8250057D02*
X33554762Y-8202438D01*
X33554762Y-8202438D02*
X33650000Y-8154819D01*
X34602381Y-8154819D02*
X34697619Y-8154819D01*
X34697619Y-8154819D02*
X34792857Y-8202438D01*
X34792857Y-8202438D02*
X34840476Y-8250057D01*
X34840476Y-8250057D02*
X34888095Y-8345295D01*
X34888095Y-8345295D02*
X34935714Y-8535771D01*
X34935714Y-8535771D02*
X34935714Y-8773866D01*
X34935714Y-8773866D02*
X34888095Y-8964342D01*
X34888095Y-8964342D02*
X34840476Y-9059580D01*
X34840476Y-9059580D02*
X34792857Y-9107200D01*
X34792857Y-9107200D02*
X34697619Y-9154819D01*
X34697619Y-9154819D02*
X34602381Y-9154819D01*
X34602381Y-9154819D02*
X34507143Y-9107200D01*
X34507143Y-9107200D02*
X34459524Y-9059580D01*
X34459524Y-9059580D02*
X34411905Y-8964342D01*
X34411905Y-8964342D02*
X34364286Y-8773866D01*
X34364286Y-8773866D02*
X34364286Y-8535771D01*
X34364286Y-8535771D02*
X34411905Y-8345295D01*
X34411905Y-8345295D02*
X34459524Y-8250057D01*
X34459524Y-8250057D02*
X34507143Y-8202438D01*
X34507143Y-8202438D02*
X34602381Y-8154819D01*
X35554762Y-8154819D02*
X35650000Y-8154819D01*
X35650000Y-8154819D02*
X35745238Y-8202438D01*
X35745238Y-8202438D02*
X35792857Y-8250057D01*
X35792857Y-8250057D02*
X35840476Y-8345295D01*
X35840476Y-8345295D02*
X35888095Y-8535771D01*
X35888095Y-8535771D02*
X35888095Y-8773866D01*
X35888095Y-8773866D02*
X35840476Y-8964342D01*
X35840476Y-8964342D02*
X35792857Y-9059580D01*
X35792857Y-9059580D02*
X35745238Y-9107200D01*
X35745238Y-9107200D02*
X35650000Y-9154819D01*
X35650000Y-9154819D02*
X35554762Y-9154819D01*
X35554762Y-9154819D02*
X35459524Y-9107200D01*
X35459524Y-9107200D02*
X35411905Y-9059580D01*
X35411905Y-9059580D02*
X35364286Y-8964342D01*
X35364286Y-8964342D02*
X35316667Y-8773866D01*
X35316667Y-8773866D02*
X35316667Y-8535771D01*
X35316667Y-8535771D02*
X35364286Y-8345295D01*
X35364286Y-8345295D02*
X35411905Y-8250057D01*
X35411905Y-8250057D02*
X35459524Y-8202438D01*
X35459524Y-8202438D02*
X35554762Y-8154819D01*
X36507143Y-8154819D02*
X36602381Y-8154819D01*
X36602381Y-8154819D02*
X36697619Y-8202438D01*
X36697619Y-8202438D02*
X36745238Y-8250057D01*
X36745238Y-8250057D02*
X36792857Y-8345295D01*
X36792857Y-8345295D02*
X36840476Y-8535771D01*
X36840476Y-8535771D02*
X36840476Y-8773866D01*
X36840476Y-8773866D02*
X36792857Y-8964342D01*
X36792857Y-8964342D02*
X36745238Y-9059580D01*
X36745238Y-9059580D02*
X36697619Y-9107200D01*
X36697619Y-9107200D02*
X36602381Y-9154819D01*
X36602381Y-9154819D02*
X36507143Y-9154819D01*
X36507143Y-9154819D02*
X36411905Y-9107200D01*
X36411905Y-9107200D02*
X36364286Y-9059580D01*
X36364286Y-9059580D02*
X36316667Y-8964342D01*
X36316667Y-8964342D02*
X36269048Y-8773866D01*
X36269048Y-8773866D02*
X36269048Y-8535771D01*
X36269048Y-8535771D02*
X36316667Y-8345295D01*
X36316667Y-8345295D02*
X36364286Y-8250057D01*
X36364286Y-8250057D02*
X36411905Y-8202438D01*
X36411905Y-8202438D02*
X36507143Y-8154819D01*
X38030953Y-9154819D02*
X38030953Y-8488152D01*
X38030953Y-8583390D02*
X38078572Y-8535771D01*
X38078572Y-8535771D02*
X38173810Y-8488152D01*
X38173810Y-8488152D02*
X38316667Y-8488152D01*
X38316667Y-8488152D02*
X38411905Y-8535771D01*
X38411905Y-8535771D02*
X38459524Y-8631009D01*
X38459524Y-8631009D02*
X38459524Y-9154819D01*
X38459524Y-8631009D02*
X38507143Y-8535771D01*
X38507143Y-8535771D02*
X38602381Y-8488152D01*
X38602381Y-8488152D02*
X38745238Y-8488152D01*
X38745238Y-8488152D02*
X38840477Y-8535771D01*
X38840477Y-8535771D02*
X38888096Y-8631009D01*
X38888096Y-8631009D02*
X38888096Y-9154819D01*
X39364286Y-9154819D02*
X39364286Y-8488152D01*
X39364286Y-8583390D02*
X39411905Y-8535771D01*
X39411905Y-8535771D02*
X39507143Y-8488152D01*
X39507143Y-8488152D02*
X39650000Y-8488152D01*
X39650000Y-8488152D02*
X39745238Y-8535771D01*
X39745238Y-8535771D02*
X39792857Y-8631009D01*
X39792857Y-8631009D02*
X39792857Y-9154819D01*
X39792857Y-8631009D02*
X39840476Y-8535771D01*
X39840476Y-8535771D02*
X39935714Y-8488152D01*
X39935714Y-8488152D02*
X40078571Y-8488152D01*
X40078571Y-8488152D02*
X40173810Y-8535771D01*
X40173810Y-8535771D02*
X40221429Y-8631009D01*
X40221429Y-8631009D02*
X40221429Y-9154819D01*
D12*
X25500000Y5400000D02*
X36236420Y5400000D01*
X25500000Y-22600000D02*
X36236420Y-22600000D01*
X35650000Y5400000D02*
X35650000Y-8001750D01*
X35650000Y-9398250D02*
X35650000Y-22600000D01*
X35650000Y5400000D02*
X36236421Y4273496D01*
X35650000Y5400000D02*
X35063579Y4273496D01*
X35650000Y-22600000D02*
X35063579Y-21473496D01*
X35650000Y-22600000D02*
X36236421Y-21473496D01*
M02*
