%TF.GenerationSoftware,KiCad,Pcbnew,8.0.6-8.0.6-0~ubuntu24.04.1*%
%TF.CreationDate,2024-11-07T17:00:29-08:00*%
%TF.ProjectId,uSlime,75536c69-6d65-42e6-9b69-6361645f7063,rev?*%
%TF.SameCoordinates,Original*%
%TF.FileFunction,Legend,Bot*%
%TF.FilePolarity,Positive*%
%FSLAX46Y46*%
G04 Gerber Fmt 4.6, Leading zero omitted, Abs format (unit mm)*
G04 Created by KiCad (PCBNEW 8.0.6-8.0.6-0~ubuntu24.04.1) date 2024-11-07 17:00:29*
%MOMM*%
%LPD*%
G01*
G04 APERTURE LIST*
G04 Aperture macros list*
%AMFreePoly0*
4,1,19,0.550000,-0.750000,0.000000,-0.750000,0.000000,-0.744911,-0.071157,-0.744911,-0.207708,-0.704816,-0.327430,-0.627875,-0.420627,-0.520320,-0.479746,-0.390866,-0.500000,-0.250000,-0.500000,0.250000,-0.479746,0.390866,-0.420627,0.520320,-0.327430,0.627875,-0.207708,0.704816,-0.071157,0.744911,0.000000,0.744911,0.000000,0.750000,0.550000,0.750000,0.550000,-0.750000,0.550000,-0.750000,
$1*%
%AMFreePoly1*
4,1,19,0.000000,0.744911,0.071157,0.744911,0.207708,0.704816,0.327430,0.627875,0.420627,0.520320,0.479746,0.390866,0.500000,0.250000,0.500000,-0.250000,0.479746,-0.390866,0.420627,-0.520320,0.327430,-0.627875,0.207708,-0.704816,0.071157,-0.744911,0.000000,-0.744911,0.000000,-0.750000,-0.550000,-0.750000,-0.550000,0.750000,0.000000,0.750000,0.000000,0.744911,0.000000,0.744911,
$1*%
G04 Aperture macros list end*
%ADD10C,0.100000*%
%ADD11C,0.120000*%
%ADD12C,0.000000*%
%ADD13C,1.200000*%
%ADD14C,0.650000*%
%ADD15O,1.000000X2.100000*%
%ADD16O,1.000000X1.800000*%
%ADD17C,3.100000*%
%ADD18C,0.900000*%
%ADD19C,0.800000*%
%ADD20C,1.000000*%
%ADD21R,2.000000X2.000000*%
%ADD22FreePoly0,0.000000*%
%ADD23R,1.000000X1.500000*%
%ADD24FreePoly1,0.000000*%
G04 APERTURE END LIST*
D10*
X6653570Y-16623371D02*
X6578570Y-16023371D01*
X6649999Y-16594800D02*
X6710713Y-16623371D01*
X6710713Y-16623371D02*
X6824999Y-16623371D01*
X6824999Y-16623371D02*
X6878570Y-16594800D01*
X6878570Y-16594800D02*
X6903570Y-16566228D01*
X6903570Y-16566228D02*
X6924999Y-16509085D01*
X6924999Y-16509085D02*
X6903570Y-16337657D01*
X6903570Y-16337657D02*
X6867856Y-16280514D01*
X6867856Y-16280514D02*
X6835713Y-16251942D01*
X6835713Y-16251942D02*
X6774999Y-16223371D01*
X6774999Y-16223371D02*
X6660713Y-16223371D01*
X6660713Y-16223371D02*
X6607141Y-16251942D01*
X6367856Y-16623371D02*
X6317856Y-16223371D01*
X6292856Y-16023371D02*
X6324999Y-16051942D01*
X6324999Y-16051942D02*
X6299999Y-16080514D01*
X6299999Y-16080514D02*
X6267856Y-16051942D01*
X6267856Y-16051942D02*
X6292856Y-16023371D01*
X6292856Y-16023371D02*
X6299999Y-16080514D01*
X6032142Y-16223371D02*
X6082142Y-16623371D01*
X6039285Y-16280514D02*
X6007142Y-16251942D01*
X6007142Y-16251942D02*
X5946428Y-16223371D01*
X5946428Y-16223371D02*
X5860713Y-16223371D01*
X5860713Y-16223371D02*
X5807142Y-16251942D01*
X5807142Y-16251942D02*
X5785713Y-16309085D01*
X5785713Y-16309085D02*
X5824999Y-16623371D01*
X5232142Y-16223371D02*
X5292856Y-16709085D01*
X5292856Y-16709085D02*
X5328571Y-16766228D01*
X5328571Y-16766228D02*
X5360713Y-16794800D01*
X5360713Y-16794800D02*
X5421428Y-16823371D01*
X5421428Y-16823371D02*
X5507142Y-16823371D01*
X5507142Y-16823371D02*
X5560713Y-16794800D01*
X5278571Y-16594800D02*
X5339285Y-16623371D01*
X5339285Y-16623371D02*
X5453571Y-16623371D01*
X5453571Y-16623371D02*
X5507142Y-16594800D01*
X5507142Y-16594800D02*
X5532142Y-16566228D01*
X5532142Y-16566228D02*
X5553571Y-16509085D01*
X5553571Y-16509085D02*
X5532142Y-16337657D01*
X5532142Y-16337657D02*
X5496428Y-16280514D01*
X5496428Y-16280514D02*
X5464285Y-16251942D01*
X5464285Y-16251942D02*
X5403571Y-16223371D01*
X5403571Y-16223371D02*
X5289285Y-16223371D01*
X5289285Y-16223371D02*
X5235713Y-16251942D01*
X5003571Y-16223371D02*
X4910714Y-16623371D01*
X4717856Y-16223371D02*
X4910714Y-16623371D01*
X4910714Y-16623371D02*
X4985714Y-16766228D01*
X4985714Y-16766228D02*
X5017856Y-16794800D01*
X5017856Y-16794800D02*
X5078571Y-16823371D01*
X4539285Y-16623371D02*
X4489285Y-16223371D01*
X4464285Y-16023371D02*
X4496428Y-16051942D01*
X4496428Y-16051942D02*
X4471428Y-16080514D01*
X4471428Y-16080514D02*
X4439285Y-16051942D01*
X4439285Y-16051942D02*
X4464285Y-16023371D01*
X4464285Y-16023371D02*
X4471428Y-16080514D01*
X4289285Y-16223371D02*
X4060714Y-16223371D01*
X4253571Y-16623371D02*
X4189285Y-16109085D01*
X4189285Y-16109085D02*
X4153571Y-16051942D01*
X4153571Y-16051942D02*
X4092857Y-16023371D01*
X4092857Y-16023371D02*
X4035714Y-16023371D01*
X3678571Y-16594800D02*
X3739285Y-16623371D01*
X3739285Y-16623371D02*
X3853571Y-16623371D01*
X3853571Y-16623371D02*
X3907142Y-16594800D01*
X3907142Y-16594800D02*
X3928571Y-16537657D01*
X3928571Y-16537657D02*
X3900000Y-16309085D01*
X3900000Y-16309085D02*
X3864285Y-16251942D01*
X3864285Y-16251942D02*
X3803571Y-16223371D01*
X3803571Y-16223371D02*
X3689285Y-16223371D01*
X3689285Y-16223371D02*
X3635714Y-16251942D01*
X3635714Y-16251942D02*
X3614285Y-16309085D01*
X3614285Y-16309085D02*
X3621428Y-16366228D01*
X3621428Y-16366228D02*
X3914285Y-16423371D01*
X3396428Y-16623371D02*
X3346428Y-16223371D01*
X3321428Y-16023371D02*
X3353571Y-16051942D01*
X3353571Y-16051942D02*
X3328571Y-16080514D01*
X3328571Y-16080514D02*
X3296428Y-16051942D01*
X3296428Y-16051942D02*
X3321428Y-16023371D01*
X3321428Y-16023371D02*
X3328571Y-16080514D01*
X23533333Y-1809133D02*
X23533333Y-1109133D01*
X23066667Y-1109133D02*
X22933333Y-1109133D01*
X22933333Y-1109133D02*
X22866667Y-1142466D01*
X22866667Y-1142466D02*
X22800000Y-1209133D01*
X22800000Y-1209133D02*
X22766667Y-1342466D01*
X22766667Y-1342466D02*
X22766667Y-1575800D01*
X22766667Y-1575800D02*
X22800000Y-1709133D01*
X22800000Y-1709133D02*
X22866667Y-1775800D01*
X22866667Y-1775800D02*
X22933333Y-1809133D01*
X22933333Y-1809133D02*
X23066667Y-1809133D01*
X23066667Y-1809133D02*
X23133333Y-1775800D01*
X23133333Y-1775800D02*
X23200000Y-1709133D01*
X23200000Y-1709133D02*
X23233333Y-1575800D01*
X23233333Y-1575800D02*
X23233333Y-1342466D01*
X23233333Y-1342466D02*
X23200000Y-1209133D01*
X23200000Y-1209133D02*
X23133333Y-1142466D01*
X23133333Y-1142466D02*
X23066667Y-1109133D01*
X22500000Y-1175800D02*
X22466667Y-1142466D01*
X22466667Y-1142466D02*
X22400000Y-1109133D01*
X22400000Y-1109133D02*
X22233334Y-1109133D01*
X22233334Y-1109133D02*
X22166667Y-1142466D01*
X22166667Y-1142466D02*
X22133334Y-1175800D01*
X22133334Y-1175800D02*
X22100000Y-1242466D01*
X22100000Y-1242466D02*
X22100000Y-1309133D01*
X22100000Y-1309133D02*
X22133334Y-1409133D01*
X22133334Y-1409133D02*
X22533334Y-1809133D01*
X22533334Y-1809133D02*
X22100000Y-1809133D01*
X21433333Y-1809133D02*
X21833333Y-1809133D01*
X21633333Y-1809133D02*
X21633333Y-1109133D01*
X21633333Y-1109133D02*
X21700000Y-1209133D01*
X21700000Y-1209133D02*
X21766667Y-1275800D01*
X21766667Y-1275800D02*
X21833333Y-1309133D01*
X8499999Y-20392419D02*
X8166666Y-21392419D01*
X8166666Y-21392419D02*
X7833333Y-20392419D01*
X7499999Y-21392419D02*
X7499999Y-20392419D01*
X7023809Y-21392419D02*
X7023809Y-20392419D01*
X7023809Y-20392419D02*
X6452381Y-21392419D01*
X6452381Y-21392419D02*
X6452381Y-20392419D01*
X5214285Y-21011466D02*
X4452381Y-21011466D01*
X4833333Y-21392419D02*
X4833333Y-20630514D01*
X3500000Y-20392419D02*
X3976190Y-20392419D01*
X3976190Y-20392419D02*
X4023809Y-20868609D01*
X4023809Y-20868609D02*
X3976190Y-20820990D01*
X3976190Y-20820990D02*
X3880952Y-20773371D01*
X3880952Y-20773371D02*
X3642857Y-20773371D01*
X3642857Y-20773371D02*
X3547619Y-20820990D01*
X3547619Y-20820990D02*
X3500000Y-20868609D01*
X3500000Y-20868609D02*
X3452381Y-20963847D01*
X3452381Y-20963847D02*
X3452381Y-21201942D01*
X3452381Y-21201942D02*
X3500000Y-21297180D01*
X3500000Y-21297180D02*
X3547619Y-21344800D01*
X3547619Y-21344800D02*
X3642857Y-21392419D01*
X3642857Y-21392419D02*
X3880952Y-21392419D01*
X3880952Y-21392419D02*
X3976190Y-21344800D01*
X3976190Y-21344800D02*
X4023809Y-21297180D01*
X3166666Y-20392419D02*
X2833333Y-21392419D01*
X2833333Y-21392419D02*
X2500000Y-20392419D01*
X24099999Y-10611466D02*
X23999999Y-10644800D01*
X23999999Y-10644800D02*
X23966665Y-10678133D01*
X23966665Y-10678133D02*
X23933332Y-10744800D01*
X23933332Y-10744800D02*
X23933332Y-10844800D01*
X23933332Y-10844800D02*
X23966665Y-10911466D01*
X23966665Y-10911466D02*
X23999999Y-10944800D01*
X23999999Y-10944800D02*
X24066665Y-10978133D01*
X24066665Y-10978133D02*
X24333332Y-10978133D01*
X24333332Y-10978133D02*
X24333332Y-10278133D01*
X24333332Y-10278133D02*
X24099999Y-10278133D01*
X24099999Y-10278133D02*
X24033332Y-10311466D01*
X24033332Y-10311466D02*
X23999999Y-10344800D01*
X23999999Y-10344800D02*
X23966665Y-10411466D01*
X23966665Y-10411466D02*
X23966665Y-10478133D01*
X23966665Y-10478133D02*
X23999999Y-10544800D01*
X23999999Y-10544800D02*
X24033332Y-10578133D01*
X24033332Y-10578133D02*
X24099999Y-10611466D01*
X24099999Y-10611466D02*
X24333332Y-10611466D01*
X23499999Y-10278133D02*
X23366665Y-10278133D01*
X23366665Y-10278133D02*
X23299999Y-10311466D01*
X23299999Y-10311466D02*
X23233332Y-10378133D01*
X23233332Y-10378133D02*
X23199999Y-10511466D01*
X23199999Y-10511466D02*
X23199999Y-10744800D01*
X23199999Y-10744800D02*
X23233332Y-10878133D01*
X23233332Y-10878133D02*
X23299999Y-10944800D01*
X23299999Y-10944800D02*
X23366665Y-10978133D01*
X23366665Y-10978133D02*
X23499999Y-10978133D01*
X23499999Y-10978133D02*
X23566665Y-10944800D01*
X23566665Y-10944800D02*
X23633332Y-10878133D01*
X23633332Y-10878133D02*
X23666665Y-10744800D01*
X23666665Y-10744800D02*
X23666665Y-10511466D01*
X23666665Y-10511466D02*
X23633332Y-10378133D01*
X23633332Y-10378133D02*
X23566665Y-10311466D01*
X23566665Y-10311466D02*
X23499999Y-10278133D01*
X22766666Y-10278133D02*
X22633332Y-10278133D01*
X22633332Y-10278133D02*
X22566666Y-10311466D01*
X22566666Y-10311466D02*
X22499999Y-10378133D01*
X22499999Y-10378133D02*
X22466666Y-10511466D01*
X22466666Y-10511466D02*
X22466666Y-10744800D01*
X22466666Y-10744800D02*
X22499999Y-10878133D01*
X22499999Y-10878133D02*
X22566666Y-10944800D01*
X22566666Y-10944800D02*
X22633332Y-10978133D01*
X22633332Y-10978133D02*
X22766666Y-10978133D01*
X22766666Y-10978133D02*
X22833332Y-10944800D01*
X22833332Y-10944800D02*
X22899999Y-10878133D01*
X22899999Y-10878133D02*
X22933332Y-10744800D01*
X22933332Y-10744800D02*
X22933332Y-10511466D01*
X22933332Y-10511466D02*
X22899999Y-10378133D01*
X22899999Y-10378133D02*
X22833332Y-10311466D01*
X22833332Y-10311466D02*
X22766666Y-10278133D01*
X22266666Y-10278133D02*
X21866666Y-10278133D01*
X22066666Y-10978133D02*
X22066666Y-10278133D01*
X6996428Y-14873371D02*
X7160713Y-14587657D01*
X7339285Y-14873371D02*
X7264285Y-14273371D01*
X7264285Y-14273371D02*
X7035713Y-14273371D01*
X7035713Y-14273371D02*
X6982142Y-14301942D01*
X6982142Y-14301942D02*
X6957142Y-14330514D01*
X6957142Y-14330514D02*
X6935713Y-14387657D01*
X6935713Y-14387657D02*
X6946428Y-14473371D01*
X6946428Y-14473371D02*
X6982142Y-14530514D01*
X6982142Y-14530514D02*
X7014285Y-14559085D01*
X7014285Y-14559085D02*
X7074999Y-14587657D01*
X7074999Y-14587657D02*
X7303571Y-14587657D01*
X6507142Y-14844800D02*
X6567856Y-14873371D01*
X6567856Y-14873371D02*
X6682142Y-14873371D01*
X6682142Y-14873371D02*
X6735713Y-14844800D01*
X6735713Y-14844800D02*
X6757142Y-14787657D01*
X6757142Y-14787657D02*
X6728571Y-14559085D01*
X6728571Y-14559085D02*
X6692856Y-14501942D01*
X6692856Y-14501942D02*
X6632142Y-14473371D01*
X6632142Y-14473371D02*
X6517856Y-14473371D01*
X6517856Y-14473371D02*
X6464285Y-14501942D01*
X6464285Y-14501942D02*
X6442856Y-14559085D01*
X6442856Y-14559085D02*
X6449999Y-14616228D01*
X6449999Y-14616228D02*
X6742856Y-14673371D01*
X6249999Y-14844800D02*
X6167856Y-14873371D01*
X6167856Y-14873371D02*
X6024999Y-14873371D01*
X6024999Y-14873371D02*
X5964285Y-14844800D01*
X5964285Y-14844800D02*
X5932142Y-14816228D01*
X5932142Y-14816228D02*
X5896427Y-14759085D01*
X5896427Y-14759085D02*
X5889285Y-14701942D01*
X5889285Y-14701942D02*
X5910713Y-14644800D01*
X5910713Y-14644800D02*
X5935713Y-14616228D01*
X5935713Y-14616228D02*
X5989285Y-14587657D01*
X5989285Y-14587657D02*
X6099999Y-14559085D01*
X6099999Y-14559085D02*
X6153570Y-14530514D01*
X6153570Y-14530514D02*
X6178570Y-14501942D01*
X6178570Y-14501942D02*
X6199999Y-14444800D01*
X6199999Y-14444800D02*
X6192856Y-14387657D01*
X6192856Y-14387657D02*
X6157142Y-14330514D01*
X6157142Y-14330514D02*
X6124999Y-14301942D01*
X6124999Y-14301942D02*
X6064285Y-14273371D01*
X6064285Y-14273371D02*
X5921427Y-14273371D01*
X5921427Y-14273371D02*
X5839285Y-14301942D01*
X5346427Y-14473371D02*
X5396427Y-14873371D01*
X5603570Y-14473371D02*
X5642856Y-14787657D01*
X5642856Y-14787657D02*
X5621427Y-14844800D01*
X5621427Y-14844800D02*
X5567856Y-14873371D01*
X5567856Y-14873371D02*
X5482141Y-14873371D01*
X5482141Y-14873371D02*
X5421427Y-14844800D01*
X5421427Y-14844800D02*
X5389284Y-14816228D01*
X5110713Y-14873371D02*
X5060713Y-14473371D01*
X5067856Y-14530514D02*
X5035713Y-14501942D01*
X5035713Y-14501942D02*
X4974999Y-14473371D01*
X4974999Y-14473371D02*
X4889284Y-14473371D01*
X4889284Y-14473371D02*
X4835713Y-14501942D01*
X4835713Y-14501942D02*
X4814284Y-14559085D01*
X4814284Y-14559085D02*
X4853570Y-14873371D01*
X4814284Y-14559085D02*
X4778570Y-14501942D01*
X4778570Y-14501942D02*
X4717856Y-14473371D01*
X4717856Y-14473371D02*
X4632141Y-14473371D01*
X4632141Y-14473371D02*
X4578570Y-14501942D01*
X4578570Y-14501942D02*
X4557141Y-14559085D01*
X4557141Y-14559085D02*
X4596427Y-14873371D01*
X4310713Y-14873371D02*
X4260713Y-14473371D01*
X4267856Y-14530514D02*
X4235713Y-14501942D01*
X4235713Y-14501942D02*
X4174999Y-14473371D01*
X4174999Y-14473371D02*
X4089284Y-14473371D01*
X4089284Y-14473371D02*
X4035713Y-14501942D01*
X4035713Y-14501942D02*
X4014284Y-14559085D01*
X4014284Y-14559085D02*
X4053570Y-14873371D01*
X4014284Y-14559085D02*
X3978570Y-14501942D01*
X3978570Y-14501942D02*
X3917856Y-14473371D01*
X3917856Y-14473371D02*
X3832141Y-14473371D01*
X3832141Y-14473371D02*
X3778570Y-14501942D01*
X3778570Y-14501942D02*
X3757141Y-14559085D01*
X3757141Y-14559085D02*
X3796427Y-14873371D01*
X3510713Y-14873371D02*
X3460713Y-14473371D01*
X3435713Y-14273371D02*
X3467856Y-14301942D01*
X3467856Y-14301942D02*
X3442856Y-14330514D01*
X3442856Y-14330514D02*
X3410713Y-14301942D01*
X3410713Y-14301942D02*
X3435713Y-14273371D01*
X3435713Y-14273371D02*
X3442856Y-14330514D01*
X3260713Y-14473371D02*
X3032142Y-14473371D01*
X3149999Y-14273371D02*
X3214285Y-14787657D01*
X3214285Y-14787657D02*
X3192856Y-14844800D01*
X3192856Y-14844800D02*
X3139285Y-14873371D01*
X3139285Y-14873371D02*
X3082142Y-14873371D01*
X20283333Y-1775800D02*
X20183333Y-1809133D01*
X20183333Y-1809133D02*
X20016667Y-1809133D01*
X20016667Y-1809133D02*
X19950000Y-1775800D01*
X19950000Y-1775800D02*
X19916667Y-1742466D01*
X19916667Y-1742466D02*
X19883333Y-1675800D01*
X19883333Y-1675800D02*
X19883333Y-1609133D01*
X19883333Y-1609133D02*
X19916667Y-1542466D01*
X19916667Y-1542466D02*
X19950000Y-1509133D01*
X19950000Y-1509133D02*
X20016667Y-1475800D01*
X20016667Y-1475800D02*
X20150000Y-1442466D01*
X20150000Y-1442466D02*
X20216667Y-1409133D01*
X20216667Y-1409133D02*
X20250000Y-1375800D01*
X20250000Y-1375800D02*
X20283333Y-1309133D01*
X20283333Y-1309133D02*
X20283333Y-1242466D01*
X20283333Y-1242466D02*
X20250000Y-1175800D01*
X20250000Y-1175800D02*
X20216667Y-1142466D01*
X20216667Y-1142466D02*
X20150000Y-1109133D01*
X20150000Y-1109133D02*
X19983333Y-1109133D01*
X19983333Y-1109133D02*
X19883333Y-1142466D01*
X19183333Y-1742466D02*
X19216666Y-1775800D01*
X19216666Y-1775800D02*
X19316666Y-1809133D01*
X19316666Y-1809133D02*
X19383333Y-1809133D01*
X19383333Y-1809133D02*
X19483333Y-1775800D01*
X19483333Y-1775800D02*
X19550000Y-1709133D01*
X19550000Y-1709133D02*
X19583333Y-1642466D01*
X19583333Y-1642466D02*
X19616666Y-1509133D01*
X19616666Y-1509133D02*
X19616666Y-1409133D01*
X19616666Y-1409133D02*
X19583333Y-1275800D01*
X19583333Y-1275800D02*
X19550000Y-1209133D01*
X19550000Y-1209133D02*
X19483333Y-1142466D01*
X19483333Y-1142466D02*
X19383333Y-1109133D01*
X19383333Y-1109133D02*
X19316666Y-1109133D01*
X19316666Y-1109133D02*
X19216666Y-1142466D01*
X19216666Y-1142466D02*
X19183333Y-1175800D01*
X18550000Y-1809133D02*
X18883333Y-1809133D01*
X18883333Y-1809133D02*
X18883333Y-1109133D01*
X7249999Y-13864228D02*
X7278571Y-13892800D01*
X7278571Y-13892800D02*
X7364285Y-13921371D01*
X7364285Y-13921371D02*
X7421428Y-13921371D01*
X7421428Y-13921371D02*
X7507142Y-13892800D01*
X7507142Y-13892800D02*
X7564285Y-13835657D01*
X7564285Y-13835657D02*
X7592856Y-13778514D01*
X7592856Y-13778514D02*
X7621428Y-13664228D01*
X7621428Y-13664228D02*
X7621428Y-13578514D01*
X7621428Y-13578514D02*
X7592856Y-13464228D01*
X7592856Y-13464228D02*
X7564285Y-13407085D01*
X7564285Y-13407085D02*
X7507142Y-13349942D01*
X7507142Y-13349942D02*
X7421428Y-13321371D01*
X7421428Y-13321371D02*
X7364285Y-13321371D01*
X7364285Y-13321371D02*
X7278571Y-13349942D01*
X7278571Y-13349942D02*
X7249999Y-13378514D01*
X6992856Y-13921371D02*
X6992856Y-13521371D01*
X6992856Y-13635657D02*
X6964285Y-13578514D01*
X6964285Y-13578514D02*
X6935714Y-13549942D01*
X6935714Y-13549942D02*
X6878571Y-13521371D01*
X6878571Y-13521371D02*
X6821428Y-13521371D01*
X6392856Y-13892800D02*
X6449999Y-13921371D01*
X6449999Y-13921371D02*
X6564285Y-13921371D01*
X6564285Y-13921371D02*
X6621427Y-13892800D01*
X6621427Y-13892800D02*
X6649999Y-13835657D01*
X6649999Y-13835657D02*
X6649999Y-13607085D01*
X6649999Y-13607085D02*
X6621427Y-13549942D01*
X6621427Y-13549942D02*
X6564285Y-13521371D01*
X6564285Y-13521371D02*
X6449999Y-13521371D01*
X6449999Y-13521371D02*
X6392856Y-13549942D01*
X6392856Y-13549942D02*
X6364285Y-13607085D01*
X6364285Y-13607085D02*
X6364285Y-13664228D01*
X6364285Y-13664228D02*
X6649999Y-13721371D01*
X5849999Y-13921371D02*
X5849999Y-13607085D01*
X5849999Y-13607085D02*
X5878570Y-13549942D01*
X5878570Y-13549942D02*
X5935713Y-13521371D01*
X5935713Y-13521371D02*
X6049999Y-13521371D01*
X6049999Y-13521371D02*
X6107141Y-13549942D01*
X5849999Y-13892800D02*
X5907141Y-13921371D01*
X5907141Y-13921371D02*
X6049999Y-13921371D01*
X6049999Y-13921371D02*
X6107141Y-13892800D01*
X6107141Y-13892800D02*
X6135713Y-13835657D01*
X6135713Y-13835657D02*
X6135713Y-13778514D01*
X6135713Y-13778514D02*
X6107141Y-13721371D01*
X6107141Y-13721371D02*
X6049999Y-13692800D01*
X6049999Y-13692800D02*
X5907141Y-13692800D01*
X5907141Y-13692800D02*
X5849999Y-13664228D01*
X5649999Y-13521371D02*
X5421427Y-13521371D01*
X5564284Y-13321371D02*
X5564284Y-13835657D01*
X5564284Y-13835657D02*
X5535713Y-13892800D01*
X5535713Y-13892800D02*
X5478570Y-13921371D01*
X5478570Y-13921371D02*
X5421427Y-13921371D01*
X4992856Y-13892800D02*
X5049999Y-13921371D01*
X5049999Y-13921371D02*
X5164285Y-13921371D01*
X5164285Y-13921371D02*
X5221427Y-13892800D01*
X5221427Y-13892800D02*
X5249999Y-13835657D01*
X5249999Y-13835657D02*
X5249999Y-13607085D01*
X5249999Y-13607085D02*
X5221427Y-13549942D01*
X5221427Y-13549942D02*
X5164285Y-13521371D01*
X5164285Y-13521371D02*
X5049999Y-13521371D01*
X5049999Y-13521371D02*
X4992856Y-13549942D01*
X4992856Y-13549942D02*
X4964285Y-13607085D01*
X4964285Y-13607085D02*
X4964285Y-13664228D01*
X4964285Y-13664228D02*
X5249999Y-13721371D01*
X4449999Y-13921371D02*
X4449999Y-13321371D01*
X4449999Y-13892800D02*
X4507141Y-13921371D01*
X4507141Y-13921371D02*
X4621427Y-13921371D01*
X4621427Y-13921371D02*
X4678570Y-13892800D01*
X4678570Y-13892800D02*
X4707141Y-13864228D01*
X4707141Y-13864228D02*
X4735713Y-13807085D01*
X4735713Y-13807085D02*
X4735713Y-13635657D01*
X4735713Y-13635657D02*
X4707141Y-13578514D01*
X4707141Y-13578514D02*
X4678570Y-13549942D01*
X4678570Y-13549942D02*
X4621427Y-13521371D01*
X4621427Y-13521371D02*
X4507141Y-13521371D01*
X4507141Y-13521371D02*
X4449999Y-13549942D01*
X3707141Y-13921371D02*
X3707141Y-13321371D01*
X3707141Y-13549942D02*
X3649999Y-13521371D01*
X3649999Y-13521371D02*
X3535713Y-13521371D01*
X3535713Y-13521371D02*
X3478570Y-13549942D01*
X3478570Y-13549942D02*
X3449999Y-13578514D01*
X3449999Y-13578514D02*
X3421427Y-13635657D01*
X3421427Y-13635657D02*
X3421427Y-13807085D01*
X3421427Y-13807085D02*
X3449999Y-13864228D01*
X3449999Y-13864228D02*
X3478570Y-13892800D01*
X3478570Y-13892800D02*
X3535713Y-13921371D01*
X3535713Y-13921371D02*
X3649999Y-13921371D01*
X3649999Y-13921371D02*
X3707141Y-13892800D01*
X3221427Y-13521371D02*
X3078570Y-13921371D01*
X2935713Y-13521371D02*
X3078570Y-13921371D01*
X3078570Y-13921371D02*
X3135713Y-14064228D01*
X3135713Y-14064228D02*
X3164284Y-14092800D01*
X3164284Y-14092800D02*
X3221427Y-14121371D01*
X2707141Y-13864228D02*
X2678570Y-13892800D01*
X2678570Y-13892800D02*
X2707141Y-13921371D01*
X2707141Y-13921371D02*
X2735713Y-13892800D01*
X2735713Y-13892800D02*
X2707141Y-13864228D01*
X2707141Y-13864228D02*
X2707141Y-13921371D01*
X2707141Y-13549942D02*
X2678570Y-13578514D01*
X2678570Y-13578514D02*
X2707141Y-13607085D01*
X2707141Y-13607085D02*
X2735713Y-13578514D01*
X2735713Y-13578514D02*
X2707141Y-13549942D01*
X2707141Y-13549942D02*
X2707141Y-13607085D01*
X18150000Y-21792466D02*
X17616667Y-21792466D01*
X17883333Y-22059133D02*
X17883333Y-21525800D01*
X17350000Y-21359133D02*
X16916666Y-21359133D01*
X16916666Y-21359133D02*
X17150000Y-21625800D01*
X17150000Y-21625800D02*
X17050000Y-21625800D01*
X17050000Y-21625800D02*
X16983333Y-21659133D01*
X16983333Y-21659133D02*
X16950000Y-21692466D01*
X16950000Y-21692466D02*
X16916666Y-21759133D01*
X16916666Y-21759133D02*
X16916666Y-21925800D01*
X16916666Y-21925800D02*
X16950000Y-21992466D01*
X16950000Y-21992466D02*
X16983333Y-22025800D01*
X16983333Y-22025800D02*
X17050000Y-22059133D01*
X17050000Y-22059133D02*
X17250000Y-22059133D01*
X17250000Y-22059133D02*
X17316666Y-22025800D01*
X17316666Y-22025800D02*
X17350000Y-21992466D01*
X16616666Y-21992466D02*
X16583333Y-22025800D01*
X16583333Y-22025800D02*
X16616666Y-22059133D01*
X16616666Y-22059133D02*
X16649999Y-22025800D01*
X16649999Y-22025800D02*
X16616666Y-21992466D01*
X16616666Y-21992466D02*
X16616666Y-22059133D01*
X16350000Y-21359133D02*
X15916666Y-21359133D01*
X15916666Y-21359133D02*
X16150000Y-21625800D01*
X16150000Y-21625800D02*
X16050000Y-21625800D01*
X16050000Y-21625800D02*
X15983333Y-21659133D01*
X15983333Y-21659133D02*
X15950000Y-21692466D01*
X15950000Y-21692466D02*
X15916666Y-21759133D01*
X15916666Y-21759133D02*
X15916666Y-21925800D01*
X15916666Y-21925800D02*
X15950000Y-21992466D01*
X15950000Y-21992466D02*
X15983333Y-22025800D01*
X15983333Y-22025800D02*
X16050000Y-22059133D01*
X16050000Y-22059133D02*
X16250000Y-22059133D01*
X16250000Y-22059133D02*
X16316666Y-22025800D01*
X16316666Y-22025800D02*
X16350000Y-21992466D01*
X15716666Y-21359133D02*
X15483333Y-22059133D01*
X15483333Y-22059133D02*
X15249999Y-21359133D01*
X13683332Y-21392466D02*
X13749999Y-21359133D01*
X13749999Y-21359133D02*
X13849999Y-21359133D01*
X13849999Y-21359133D02*
X13949999Y-21392466D01*
X13949999Y-21392466D02*
X14016666Y-21459133D01*
X14016666Y-21459133D02*
X14049999Y-21525800D01*
X14049999Y-21525800D02*
X14083332Y-21659133D01*
X14083332Y-21659133D02*
X14083332Y-21759133D01*
X14083332Y-21759133D02*
X14049999Y-21892466D01*
X14049999Y-21892466D02*
X14016666Y-21959133D01*
X14016666Y-21959133D02*
X13949999Y-22025800D01*
X13949999Y-22025800D02*
X13849999Y-22059133D01*
X13849999Y-22059133D02*
X13783332Y-22059133D01*
X13783332Y-22059133D02*
X13683332Y-22025800D01*
X13683332Y-22025800D02*
X13649999Y-21992466D01*
X13649999Y-21992466D02*
X13649999Y-21759133D01*
X13649999Y-21759133D02*
X13783332Y-21759133D01*
X13349999Y-22059133D02*
X13349999Y-21359133D01*
X13349999Y-21359133D02*
X12949999Y-22059133D01*
X12949999Y-22059133D02*
X12949999Y-21359133D01*
X12616666Y-22059133D02*
X12616666Y-21359133D01*
X12616666Y-21359133D02*
X12449999Y-21359133D01*
X12449999Y-21359133D02*
X12349999Y-21392466D01*
X12349999Y-21392466D02*
X12283333Y-21459133D01*
X12283333Y-21459133D02*
X12249999Y-21525800D01*
X12249999Y-21525800D02*
X12216666Y-21659133D01*
X12216666Y-21659133D02*
X12216666Y-21759133D01*
X12216666Y-21759133D02*
X12249999Y-21892466D01*
X12249999Y-21892466D02*
X12283333Y-21959133D01*
X12283333Y-21959133D02*
X12349999Y-22025800D01*
X12349999Y-22025800D02*
X12449999Y-22059133D01*
X12449999Y-22059133D02*
X12616666Y-22059133D01*
X21766666Y-21151966D02*
X21766666Y-21618633D01*
X21933333Y-20885300D02*
X22099999Y-21385300D01*
X22099999Y-21385300D02*
X21666666Y-21385300D01*
X21433332Y-21418633D02*
X21099999Y-21418633D01*
X21499999Y-21618633D02*
X21266666Y-20918633D01*
X21266666Y-20918633D02*
X21033332Y-21618633D01*
X11750000Y-12901966D02*
X11583333Y-13368633D01*
X11583333Y-13368633D02*
X11416666Y-12901966D01*
X10783333Y-13368633D02*
X11183333Y-13368633D01*
X10983333Y-13368633D02*
X10983333Y-12668633D01*
X10983333Y-12668633D02*
X11050000Y-12768633D01*
X11050000Y-12768633D02*
X11116667Y-12835300D01*
X11116667Y-12835300D02*
X11183333Y-12868633D01*
X10483333Y-13301966D02*
X10450000Y-13335300D01*
X10450000Y-13335300D02*
X10483333Y-13368633D01*
X10483333Y-13368633D02*
X10516666Y-13335300D01*
X10516666Y-13335300D02*
X10483333Y-13301966D01*
X10483333Y-13301966D02*
X10483333Y-13368633D01*
X10016667Y-12668633D02*
X9950000Y-12668633D01*
X9950000Y-12668633D02*
X9883333Y-12701966D01*
X9883333Y-12701966D02*
X9850000Y-12735300D01*
X9850000Y-12735300D02*
X9816667Y-12801966D01*
X9816667Y-12801966D02*
X9783333Y-12935300D01*
X9783333Y-12935300D02*
X9783333Y-13101966D01*
X9783333Y-13101966D02*
X9816667Y-13235300D01*
X9816667Y-13235300D02*
X9850000Y-13301966D01*
X9850000Y-13301966D02*
X9883333Y-13335300D01*
X9883333Y-13335300D02*
X9950000Y-13368633D01*
X9950000Y-13368633D02*
X10016667Y-13368633D01*
X10016667Y-13368633D02*
X10083333Y-13335300D01*
X10083333Y-13335300D02*
X10116667Y-13301966D01*
X10116667Y-13301966D02*
X10150000Y-13235300D01*
X10150000Y-13235300D02*
X10183333Y-13101966D01*
X10183333Y-13101966D02*
X10183333Y-12935300D01*
X10183333Y-12935300D02*
X10150000Y-12801966D01*
X10150000Y-12801966D02*
X10116667Y-12735300D01*
X10116667Y-12735300D02*
X10083333Y-12701966D01*
X10083333Y-12701966D02*
X10016667Y-12668633D01*
X9483333Y-13301966D02*
X9450000Y-13335300D01*
X9450000Y-13335300D02*
X9483333Y-13368633D01*
X9483333Y-13368633D02*
X9516666Y-13335300D01*
X9516666Y-13335300D02*
X9483333Y-13301966D01*
X9483333Y-13301966D02*
X9483333Y-13368633D01*
X9016667Y-12668633D02*
X8950000Y-12668633D01*
X8950000Y-12668633D02*
X8883333Y-12701966D01*
X8883333Y-12701966D02*
X8850000Y-12735300D01*
X8850000Y-12735300D02*
X8816667Y-12801966D01*
X8816667Y-12801966D02*
X8783333Y-12935300D01*
X8783333Y-12935300D02*
X8783333Y-13101966D01*
X8783333Y-13101966D02*
X8816667Y-13235300D01*
X8816667Y-13235300D02*
X8850000Y-13301966D01*
X8850000Y-13301966D02*
X8883333Y-13335300D01*
X8883333Y-13335300D02*
X8950000Y-13368633D01*
X8950000Y-13368633D02*
X9016667Y-13368633D01*
X9016667Y-13368633D02*
X9083333Y-13335300D01*
X9083333Y-13335300D02*
X9116667Y-13301966D01*
X9116667Y-13301966D02*
X9150000Y-13235300D01*
X9150000Y-13235300D02*
X9183333Y-13101966D01*
X9183333Y-13101966D02*
X9183333Y-12935300D01*
X9183333Y-12935300D02*
X9150000Y-12801966D01*
X9150000Y-12801966D02*
X9116667Y-12735300D01*
X9116667Y-12735300D02*
X9083333Y-12701966D01*
X9083333Y-12701966D02*
X9016667Y-12668633D01*
X17299999Y-1775800D02*
X17199999Y-1809133D01*
X17199999Y-1809133D02*
X17033333Y-1809133D01*
X17033333Y-1809133D02*
X16966666Y-1775800D01*
X16966666Y-1775800D02*
X16933333Y-1742466D01*
X16933333Y-1742466D02*
X16899999Y-1675800D01*
X16899999Y-1675800D02*
X16899999Y-1609133D01*
X16899999Y-1609133D02*
X16933333Y-1542466D01*
X16933333Y-1542466D02*
X16966666Y-1509133D01*
X16966666Y-1509133D02*
X17033333Y-1475800D01*
X17033333Y-1475800D02*
X17166666Y-1442466D01*
X17166666Y-1442466D02*
X17233333Y-1409133D01*
X17233333Y-1409133D02*
X17266666Y-1375800D01*
X17266666Y-1375800D02*
X17299999Y-1309133D01*
X17299999Y-1309133D02*
X17299999Y-1242466D01*
X17299999Y-1242466D02*
X17266666Y-1175800D01*
X17266666Y-1175800D02*
X17233333Y-1142466D01*
X17233333Y-1142466D02*
X17166666Y-1109133D01*
X17166666Y-1109133D02*
X16999999Y-1109133D01*
X16999999Y-1109133D02*
X16899999Y-1142466D01*
X16599999Y-1809133D02*
X16599999Y-1109133D01*
X16599999Y-1109133D02*
X16433332Y-1109133D01*
X16433332Y-1109133D02*
X16333332Y-1142466D01*
X16333332Y-1142466D02*
X16266666Y-1209133D01*
X16266666Y-1209133D02*
X16233332Y-1275800D01*
X16233332Y-1275800D02*
X16199999Y-1409133D01*
X16199999Y-1409133D02*
X16199999Y-1509133D01*
X16199999Y-1509133D02*
X16233332Y-1642466D01*
X16233332Y-1642466D02*
X16266666Y-1709133D01*
X16266666Y-1709133D02*
X16333332Y-1775800D01*
X16333332Y-1775800D02*
X16433332Y-1809133D01*
X16433332Y-1809133D02*
X16599999Y-1809133D01*
X15933332Y-1609133D02*
X15599999Y-1609133D01*
X15999999Y-1809133D02*
X15766666Y-1109133D01*
X15766666Y-1109133D02*
X15533332Y-1809133D01*
X19416666Y-21151966D02*
X19416666Y-21618633D01*
X19583333Y-20885300D02*
X19749999Y-21385300D01*
X19749999Y-21385300D02*
X19316666Y-21385300D01*
X18816666Y-21251966D02*
X18716666Y-21285300D01*
X18716666Y-21285300D02*
X18683332Y-21318633D01*
X18683332Y-21318633D02*
X18649999Y-21385300D01*
X18649999Y-21385300D02*
X18649999Y-21485300D01*
X18649999Y-21485300D02*
X18683332Y-21551966D01*
X18683332Y-21551966D02*
X18716666Y-21585300D01*
X18716666Y-21585300D02*
X18783332Y-21618633D01*
X18783332Y-21618633D02*
X19049999Y-21618633D01*
X19049999Y-21618633D02*
X19049999Y-20918633D01*
X19049999Y-20918633D02*
X18816666Y-20918633D01*
X18816666Y-20918633D02*
X18749999Y-20951966D01*
X18749999Y-20951966D02*
X18716666Y-20985300D01*
X18716666Y-20985300D02*
X18683332Y-21051966D01*
X18683332Y-21051966D02*
X18683332Y-21118633D01*
X18683332Y-21118633D02*
X18716666Y-21185300D01*
X18716666Y-21185300D02*
X18749999Y-21218633D01*
X18749999Y-21218633D02*
X18816666Y-21251966D01*
X18816666Y-21251966D02*
X19049999Y-21251966D01*
X6532142Y-15223371D02*
X6607142Y-15823371D01*
X6535713Y-15251942D02*
X6474999Y-15223371D01*
X6474999Y-15223371D02*
X6360713Y-15223371D01*
X6360713Y-15223371D02*
X6307142Y-15251942D01*
X6307142Y-15251942D02*
X6282142Y-15280514D01*
X6282142Y-15280514D02*
X6260713Y-15337657D01*
X6260713Y-15337657D02*
X6282142Y-15509085D01*
X6282142Y-15509085D02*
X6317856Y-15566228D01*
X6317856Y-15566228D02*
X6349999Y-15594800D01*
X6349999Y-15594800D02*
X6410713Y-15623371D01*
X6410713Y-15623371D02*
X6524999Y-15623371D01*
X6524999Y-15623371D02*
X6578570Y-15594800D01*
X5807142Y-15594800D02*
X5867856Y-15623371D01*
X5867856Y-15623371D02*
X5982142Y-15623371D01*
X5982142Y-15623371D02*
X6035713Y-15594800D01*
X6035713Y-15594800D02*
X6057142Y-15537657D01*
X6057142Y-15537657D02*
X6028571Y-15309085D01*
X6028571Y-15309085D02*
X5992856Y-15251942D01*
X5992856Y-15251942D02*
X5932142Y-15223371D01*
X5932142Y-15223371D02*
X5817856Y-15223371D01*
X5817856Y-15223371D02*
X5764285Y-15251942D01*
X5764285Y-15251942D02*
X5742856Y-15309085D01*
X5742856Y-15309085D02*
X5749999Y-15366228D01*
X5749999Y-15366228D02*
X6042856Y-15423371D01*
X5524999Y-15623371D02*
X5474999Y-15223371D01*
X5449999Y-15023371D02*
X5482142Y-15051942D01*
X5482142Y-15051942D02*
X5457142Y-15080514D01*
X5457142Y-15080514D02*
X5424999Y-15051942D01*
X5424999Y-15051942D02*
X5449999Y-15023371D01*
X5449999Y-15023371D02*
X5457142Y-15080514D01*
X5210713Y-15394800D02*
X4753571Y-15394800D01*
X4410714Y-15623371D02*
X4464285Y-15594800D01*
X4464285Y-15594800D02*
X4485714Y-15537657D01*
X4485714Y-15537657D02*
X4421428Y-15023371D01*
X3874999Y-15223371D02*
X3924999Y-15623371D01*
X4132142Y-15223371D02*
X4171428Y-15537657D01*
X4171428Y-15537657D02*
X4149999Y-15594800D01*
X4149999Y-15594800D02*
X4096428Y-15623371D01*
X4096428Y-15623371D02*
X4010713Y-15623371D01*
X4010713Y-15623371D02*
X3949999Y-15594800D01*
X3949999Y-15594800D02*
X3917856Y-15566228D01*
X20171866Y-7483333D02*
X20871866Y-7483333D01*
X20871866Y-7016667D02*
X20871866Y-6883333D01*
X20871866Y-6883333D02*
X20838533Y-6816667D01*
X20838533Y-6816667D02*
X20771866Y-6750000D01*
X20771866Y-6750000D02*
X20638533Y-6716667D01*
X20638533Y-6716667D02*
X20405200Y-6716667D01*
X20405200Y-6716667D02*
X20271866Y-6750000D01*
X20271866Y-6750000D02*
X20205200Y-6816667D01*
X20205200Y-6816667D02*
X20171866Y-6883333D01*
X20171866Y-6883333D02*
X20171866Y-7016667D01*
X20171866Y-7016667D02*
X20205200Y-7083333D01*
X20205200Y-7083333D02*
X20271866Y-7150000D01*
X20271866Y-7150000D02*
X20405200Y-7183333D01*
X20405200Y-7183333D02*
X20638533Y-7183333D01*
X20638533Y-7183333D02*
X20771866Y-7150000D01*
X20771866Y-7150000D02*
X20838533Y-7083333D01*
X20838533Y-7083333D02*
X20871866Y-7016667D01*
X20805200Y-6450000D02*
X20838533Y-6416667D01*
X20838533Y-6416667D02*
X20871866Y-6350000D01*
X20871866Y-6350000D02*
X20871866Y-6183334D01*
X20871866Y-6183334D02*
X20838533Y-6116667D01*
X20838533Y-6116667D02*
X20805200Y-6083334D01*
X20805200Y-6083334D02*
X20738533Y-6050000D01*
X20738533Y-6050000D02*
X20671866Y-6050000D01*
X20671866Y-6050000D02*
X20571866Y-6083334D01*
X20571866Y-6083334D02*
X20171866Y-6483334D01*
X20171866Y-6483334D02*
X20171866Y-6050000D01*
X20871866Y-5616667D02*
X20871866Y-5550000D01*
X20871866Y-5550000D02*
X20838533Y-5483333D01*
X20838533Y-5483333D02*
X20805200Y-5450000D01*
X20805200Y-5450000D02*
X20738533Y-5416667D01*
X20738533Y-5416667D02*
X20605200Y-5383333D01*
X20605200Y-5383333D02*
X20438533Y-5383333D01*
X20438533Y-5383333D02*
X20305200Y-5416667D01*
X20305200Y-5416667D02*
X20238533Y-5450000D01*
X20238533Y-5450000D02*
X20205200Y-5483333D01*
X20205200Y-5483333D02*
X20171866Y-5550000D01*
X20171866Y-5550000D02*
X20171866Y-5616667D01*
X20171866Y-5616667D02*
X20205200Y-5683333D01*
X20205200Y-5683333D02*
X20238533Y-5716667D01*
X20238533Y-5716667D02*
X20305200Y-5750000D01*
X20305200Y-5750000D02*
X20438533Y-5783333D01*
X20438533Y-5783333D02*
X20605200Y-5783333D01*
X20605200Y-5783333D02*
X20738533Y-5750000D01*
X20738533Y-5750000D02*
X20805200Y-5716667D01*
X20805200Y-5716667D02*
X20838533Y-5683333D01*
X20838533Y-5683333D02*
X20871866Y-5616667D01*
X11708349Y-12310324D02*
X11565492Y-12357943D01*
X11565492Y-12357943D02*
X11327397Y-12357943D01*
X11327397Y-12357943D02*
X11232159Y-12310324D01*
X11232159Y-12310324D02*
X11184540Y-12262704D01*
X11184540Y-12262704D02*
X11136921Y-12167466D01*
X11136921Y-12167466D02*
X11136921Y-12072228D01*
X11136921Y-12072228D02*
X11184540Y-11976990D01*
X11184540Y-11976990D02*
X11232159Y-11929371D01*
X11232159Y-11929371D02*
X11327397Y-11881752D01*
X11327397Y-11881752D02*
X11517873Y-11834133D01*
X11517873Y-11834133D02*
X11613111Y-11786514D01*
X11613111Y-11786514D02*
X11660730Y-11738895D01*
X11660730Y-11738895D02*
X11708349Y-11643657D01*
X11708349Y-11643657D02*
X11708349Y-11548419D01*
X11708349Y-11548419D02*
X11660730Y-11453181D01*
X11660730Y-11453181D02*
X11613111Y-11405562D01*
X11613111Y-11405562D02*
X11517873Y-11357943D01*
X11517873Y-11357943D02*
X11279778Y-11357943D01*
X11279778Y-11357943D02*
X11136921Y-11405562D01*
X10565492Y-12357943D02*
X10660730Y-12310324D01*
X10660730Y-12310324D02*
X10708349Y-12215085D01*
X10708349Y-12215085D02*
X10708349Y-11357943D01*
X10184539Y-12357943D02*
X10184539Y-11691276D01*
X10184539Y-11357943D02*
X10232158Y-11405562D01*
X10232158Y-11405562D02*
X10184539Y-11453181D01*
X10184539Y-11453181D02*
X10136920Y-11405562D01*
X10136920Y-11405562D02*
X10184539Y-11357943D01*
X10184539Y-11357943D02*
X10184539Y-11453181D01*
X9708349Y-12357943D02*
X9708349Y-11691276D01*
X9708349Y-11786514D02*
X9660730Y-11738895D01*
X9660730Y-11738895D02*
X9565492Y-11691276D01*
X9565492Y-11691276D02*
X9422635Y-11691276D01*
X9422635Y-11691276D02*
X9327397Y-11738895D01*
X9327397Y-11738895D02*
X9279778Y-11834133D01*
X9279778Y-11834133D02*
X9279778Y-12357943D01*
X9279778Y-11834133D02*
X9232159Y-11738895D01*
X9232159Y-11738895D02*
X9136921Y-11691276D01*
X9136921Y-11691276D02*
X8994064Y-11691276D01*
X8994064Y-11691276D02*
X8898825Y-11738895D01*
X8898825Y-11738895D02*
X8851206Y-11834133D01*
X8851206Y-11834133D02*
X8851206Y-12357943D01*
X7994064Y-12310324D02*
X8089302Y-12357943D01*
X8089302Y-12357943D02*
X8279778Y-12357943D01*
X8279778Y-12357943D02*
X8375016Y-12310324D01*
X8375016Y-12310324D02*
X8422635Y-12215085D01*
X8422635Y-12215085D02*
X8422635Y-11834133D01*
X8422635Y-11834133D02*
X8375016Y-11738895D01*
X8375016Y-11738895D02*
X8279778Y-11691276D01*
X8279778Y-11691276D02*
X8089302Y-11691276D01*
X8089302Y-11691276D02*
X7994064Y-11738895D01*
X7994064Y-11738895D02*
X7946445Y-11834133D01*
X7946445Y-11834133D02*
X7946445Y-11929371D01*
X7946445Y-11929371D02*
X8422635Y-12024609D01*
D11*
%TO.C,TP7*%
X11950000Y-18800000D02*
X14350000Y-18800000D01*
X11950000Y-21200000D02*
X11950000Y-18800000D01*
X14350000Y-18800000D02*
X14350000Y-21200000D01*
X14350000Y-21200000D02*
X11950000Y-21200000D01*
%TO.C,TP2*%
X15350000Y-18800000D02*
X17750000Y-18800000D01*
X15350000Y-21200000D02*
X15350000Y-18800000D01*
X17750000Y-18800000D02*
X17750000Y-21200000D01*
X17750000Y-21200000D02*
X15350000Y-21200000D01*
%TO.C,TP3*%
X21300000Y-5250000D02*
X23700000Y-5250000D01*
X21300000Y-7650000D02*
X21300000Y-5250000D01*
X23700000Y-5250000D02*
X23700000Y-7650000D01*
X23700000Y-7650000D02*
X21300000Y-7650000D01*
%TO.C,TP4*%
X18250000Y-2200000D02*
X20650000Y-2200000D01*
X18250000Y-4600000D02*
X18250000Y-2200000D01*
X20650000Y-2200000D02*
X20650000Y-4600000D01*
X20650000Y-4600000D02*
X18250000Y-4600000D01*
%TO.C,TP8*%
X4300000Y-17550000D02*
X6700000Y-17550000D01*
X4300000Y-19950000D02*
X4300000Y-17550000D01*
X6700000Y-17550000D02*
X6700000Y-19950000D01*
X6700000Y-19950000D02*
X4300000Y-19950000D01*
%TO.C,TP5*%
X21300000Y-2200000D02*
X23700000Y-2200000D01*
X21300000Y-4600000D02*
X21300000Y-2200000D01*
X23700000Y-2200000D02*
X23700000Y-4600000D01*
X23700000Y-4600000D02*
X21300000Y-4600000D01*
%TO.C,TP1*%
X23850000Y-9500000D02*
G75*
G02*
X22450000Y-9500000I-700000J0D01*
G01*
X22450000Y-9500000D02*
G75*
G02*
X23850000Y-9500000I700000J0D01*
G01*
D12*
%TO.C,G\u002A\u002A\u002A*%
G36*
X13036685Y-11863120D02*
G01*
X13031965Y-11880366D01*
X13008526Y-11903801D01*
X12964408Y-11935353D01*
X12897652Y-11976948D01*
X12842475Y-12009104D01*
X12794799Y-12035059D01*
X12760205Y-12051875D01*
X12743775Y-12056910D01*
X12737119Y-12051983D01*
X12730097Y-12030041D01*
X12730942Y-12027176D01*
X12747592Y-12009678D01*
X12781274Y-11984063D01*
X12826359Y-11953741D01*
X12877220Y-11922120D01*
X12928227Y-11892611D01*
X12973753Y-11868624D01*
X13008169Y-11853569D01*
X13025848Y-11850856D01*
X13036685Y-11863120D01*
G37*
G36*
X12728122Y-10948728D02*
G01*
X12775516Y-10966135D01*
X12843641Y-10997014D01*
X12863422Y-11006784D01*
X12927483Y-11043860D01*
X12978414Y-11081870D01*
X13012037Y-11117347D01*
X13024173Y-11146823D01*
X13022907Y-11158450D01*
X13009847Y-11171448D01*
X12984643Y-11162673D01*
X12949782Y-11132602D01*
X12941450Y-11124920D01*
X12904246Y-11098507D01*
X12853190Y-11068790D01*
X12796765Y-11040855D01*
X12758563Y-11023066D01*
X12713848Y-10999040D01*
X12689554Y-10979888D01*
X12682224Y-10963269D01*
X12684554Y-10952034D01*
X12698716Y-10944219D01*
X12728122Y-10948728D01*
G37*
G36*
X15594973Y-11757639D02*
G01*
X15635705Y-11775777D01*
X15679601Y-11802076D01*
X15718734Y-11832546D01*
X15751212Y-11864695D01*
X15787540Y-11904697D01*
X15822220Y-11946110D01*
X15850975Y-11983603D01*
X15869526Y-12011847D01*
X15873597Y-12025510D01*
X15855968Y-12034297D01*
X15825395Y-12024644D01*
X15789310Y-11990310D01*
X15788363Y-11989163D01*
X15720274Y-11913920D01*
X15654189Y-11854496D01*
X15595021Y-11815314D01*
X15586452Y-11810814D01*
X15551045Y-11786702D01*
X15542218Y-11767243D01*
X15560112Y-11752692D01*
X15565330Y-11751653D01*
X15594973Y-11757639D01*
G37*
G36*
X12994965Y-11448843D02*
G01*
X13028898Y-11451467D01*
X13046498Y-11456471D01*
X13051529Y-11464161D01*
X13050943Y-11471174D01*
X13042022Y-11492303D01*
X13041549Y-11492655D01*
X13022717Y-11495884D01*
X12982612Y-11497968D01*
X12926785Y-11498732D01*
X12860789Y-11498002D01*
X12790660Y-11495979D01*
X12740142Y-11493057D01*
X12709067Y-11488748D01*
X12693390Y-11482479D01*
X12689063Y-11473677D01*
X12689112Y-11472539D01*
X12694399Y-11464256D01*
X12711201Y-11458326D01*
X12743478Y-11454218D01*
X12795189Y-11451402D01*
X12870296Y-11449344D01*
X12940939Y-11448289D01*
X12994965Y-11448843D01*
G37*
G36*
X15649792Y-11413533D02*
G01*
X15706081Y-11415872D01*
X15770714Y-11419709D01*
X15837747Y-11424610D01*
X15901232Y-11430142D01*
X15955222Y-11435871D01*
X15993772Y-11441365D01*
X16010935Y-11446188D01*
X16014772Y-11451926D01*
X16012989Y-11473389D01*
X15998720Y-11478396D01*
X15961763Y-11481624D01*
X15907690Y-11482554D01*
X15841809Y-11481295D01*
X15769429Y-11477955D01*
X15695859Y-11472645D01*
X15626408Y-11465471D01*
X15597462Y-11459230D01*
X15572329Y-11445469D01*
X15567322Y-11429431D01*
X15585736Y-11415192D01*
X15586038Y-11415083D01*
X15607796Y-11413126D01*
X15649792Y-11413533D01*
G37*
G36*
X15907561Y-10888330D02*
G01*
X15914177Y-10898728D01*
X15909845Y-10927269D01*
X15894904Y-10945680D01*
X15861066Y-10977432D01*
X15814814Y-11016092D01*
X15761709Y-11057217D01*
X15707312Y-11096367D01*
X15657184Y-11129098D01*
X15626841Y-11146331D01*
X15589183Y-11164315D01*
X15564857Y-11171712D01*
X15549731Y-11170605D01*
X15540520Y-11159563D01*
X15553391Y-11138370D01*
X15587021Y-11108772D01*
X15640086Y-11072514D01*
X15643033Y-11070661D01*
X15702828Y-11030231D01*
X15764760Y-10984092D01*
X15815875Y-10941868D01*
X15826348Y-10932591D01*
X15866673Y-10899974D01*
X15892723Y-10885816D01*
X15907561Y-10888330D01*
G37*
G36*
X14144413Y-10372140D02*
G01*
X14123892Y-10469002D01*
X14079526Y-10554598D01*
X14013230Y-10625962D01*
X13926920Y-10680129D01*
X13910212Y-10687464D01*
X13869918Y-10699950D01*
X13824052Y-10704893D01*
X13761906Y-10703829D01*
X13715434Y-10700675D01*
X13668470Y-10692858D01*
X13627994Y-10677775D01*
X13582079Y-10651988D01*
X13520013Y-10605473D01*
X13473818Y-10546994D01*
X13462611Y-10527666D01*
X13443525Y-10499810D01*
X13431379Y-10488863D01*
X13430133Y-10488534D01*
X13423527Y-10473128D01*
X13420835Y-10441797D01*
X13420783Y-10437531D01*
X13416671Y-10404603D01*
X13407997Y-10386798D01*
X13401749Y-10375252D01*
X13403064Y-10348376D01*
X13404342Y-10341742D01*
X13490439Y-10341742D01*
X13491330Y-10397248D01*
X13495579Y-10436700D01*
X13502617Y-10454491D01*
X13507388Y-10458425D01*
X13510558Y-10473864D01*
X13513198Y-10488141D01*
X13533377Y-10513377D01*
X13566334Y-10543660D01*
X13606343Y-10574265D01*
X13647678Y-10600464D01*
X13684614Y-10617533D01*
X13707025Y-10624487D01*
X13747255Y-10634499D01*
X13773520Y-10637734D01*
X13779495Y-10637304D01*
X13789487Y-10635085D01*
X13773042Y-10629892D01*
X13760373Y-10624647D01*
X13749106Y-10610962D01*
X13746924Y-10605244D01*
X13728940Y-10598287D01*
X13721864Y-10597326D01*
X13697811Y-10577906D01*
X13678669Y-10536788D01*
X13665968Y-10478305D01*
X13661243Y-10406795D01*
X13661277Y-10396350D01*
X13667527Y-10318987D01*
X13669679Y-10312384D01*
X13823639Y-10312384D01*
X13826227Y-10345244D01*
X13839006Y-10358316D01*
X13867741Y-10365761D01*
X13881376Y-10365035D01*
X13896467Y-10355486D01*
X13897053Y-10328147D01*
X13888295Y-10300535D01*
X13863690Y-10286390D01*
X13839808Y-10290481D01*
X13823639Y-10312384D01*
X13669679Y-10312384D01*
X13685975Y-10262380D01*
X13718781Y-10222233D01*
X13768104Y-10194254D01*
X13778991Y-10189967D01*
X13812081Y-10180020D01*
X13838523Y-10182175D01*
X13872825Y-10196781D01*
X13917840Y-10229135D01*
X13955588Y-10284394D01*
X13968245Y-10328147D01*
X13975713Y-10353961D01*
X13977023Y-10433354D01*
X13958324Y-10518092D01*
X13932209Y-10595195D01*
X13970691Y-10566744D01*
X13976210Y-10562370D01*
X14012315Y-10520951D01*
X14044832Y-10464928D01*
X14068311Y-10405237D01*
X14077301Y-10352817D01*
X14070171Y-10283631D01*
X14046869Y-10214456D01*
X14010093Y-10162519D01*
X13981000Y-10135634D01*
X13935846Y-10098283D01*
X13902288Y-10076648D01*
X13883639Y-10073073D01*
X13879869Y-10074590D01*
X13872208Y-10065681D01*
X13870804Y-10063119D01*
X13849550Y-10057630D01*
X13804915Y-10055831D01*
X13739719Y-10057753D01*
X13656780Y-10063424D01*
X13648988Y-10066340D01*
X13639682Y-10085363D01*
X13637565Y-10094886D01*
X13621269Y-10105880D01*
X13607702Y-10111964D01*
X13580252Y-10133894D01*
X13547867Y-10166301D01*
X13525494Y-10191482D01*
X13506824Y-10217440D01*
X13496757Y-10244334D01*
X13492321Y-10280970D01*
X13490543Y-10336154D01*
X13490439Y-10341742D01*
X13404342Y-10341742D01*
X13408883Y-10318175D01*
X13413491Y-10276854D01*
X13426371Y-10225251D01*
X13456592Y-10166172D01*
X13499483Y-10108930D01*
X13501843Y-10106265D01*
X13521989Y-10080748D01*
X13530258Y-10065068D01*
X13538766Y-10053421D01*
X13567490Y-10035875D01*
X13609588Y-10017120D01*
X13657840Y-9999972D01*
X13705021Y-9987248D01*
X13743910Y-9981763D01*
X13843813Y-9986032D01*
X13930527Y-10007416D01*
X14002601Y-10047642D01*
X14063972Y-10108265D01*
X14068715Y-10114239D01*
X14114121Y-10184442D01*
X14138473Y-10256482D01*
X14145634Y-10341385D01*
X14145180Y-10352817D01*
X14144413Y-10372140D01*
G37*
G36*
X15361753Y-10372140D02*
G01*
X15341232Y-10469002D01*
X15296866Y-10554598D01*
X15230570Y-10625962D01*
X15144259Y-10680129D01*
X15127552Y-10687464D01*
X15087258Y-10699950D01*
X15041392Y-10704893D01*
X14979246Y-10703829D01*
X14932774Y-10700675D01*
X14885810Y-10692858D01*
X14845333Y-10677775D01*
X14799418Y-10651988D01*
X14737353Y-10605473D01*
X14726274Y-10591448D01*
X14829666Y-10591448D01*
X14836505Y-10598287D01*
X14843344Y-10591448D01*
X14836505Y-10584609D01*
X14829666Y-10591448D01*
X14726274Y-10591448D01*
X14691158Y-10546994D01*
X14679950Y-10527666D01*
X14660865Y-10499810D01*
X14648719Y-10488863D01*
X14647473Y-10488534D01*
X14640867Y-10473128D01*
X14638174Y-10441797D01*
X14638122Y-10437531D01*
X14634011Y-10404603D01*
X14625337Y-10386798D01*
X14619088Y-10375252D01*
X14620404Y-10348376D01*
X14623612Y-10331726D01*
X14707904Y-10331726D01*
X14708415Y-10385633D01*
X14713053Y-10431447D01*
X14721368Y-10456025D01*
X14728401Y-10466897D01*
X14726073Y-10475185D01*
X14725169Y-10478411D01*
X14736817Y-10495743D01*
X14761276Y-10523058D01*
X14761365Y-10523149D01*
X14795321Y-10555155D01*
X14816694Y-10569096D01*
X14823470Y-10564315D01*
X14813636Y-10540155D01*
X14812954Y-10538838D01*
X14804678Y-10508596D01*
X14798755Y-10461372D01*
X14796427Y-10406795D01*
X14796469Y-10396442D01*
X14802772Y-10319034D01*
X14804942Y-10312384D01*
X14958911Y-10312384D01*
X14961499Y-10345244D01*
X14974278Y-10358316D01*
X15003013Y-10365761D01*
X15016648Y-10365035D01*
X15031739Y-10355486D01*
X15032325Y-10328147D01*
X15023567Y-10300535D01*
X14998962Y-10286390D01*
X14975080Y-10290481D01*
X14958911Y-10312384D01*
X14804942Y-10312384D01*
X14821251Y-10262395D01*
X14854066Y-10222233D01*
X14903376Y-10194254D01*
X14914533Y-10189863D01*
X14947528Y-10180003D01*
X14974060Y-10182278D01*
X15008714Y-10197081D01*
X15045327Y-10221656D01*
X15085578Y-10274061D01*
X15103846Y-10328147D01*
X15108521Y-10341989D01*
X15112930Y-10421163D01*
X15097579Y-10507303D01*
X15086503Y-10541422D01*
X15073378Y-10572589D01*
X15063902Y-10584609D01*
X15049225Y-10591448D01*
X15046905Y-10592529D01*
X15021158Y-10611965D01*
X15003411Y-10628219D01*
X14999793Y-10637114D01*
X15015645Y-10638241D01*
X15030880Y-10636745D01*
X15089639Y-10620132D01*
X15151151Y-10589786D01*
X15203780Y-10551098D01*
X15241249Y-10507106D01*
X15275161Y-10438276D01*
X15291126Y-10362995D01*
X15288753Y-10287670D01*
X15267652Y-10218709D01*
X15227433Y-10162519D01*
X15198340Y-10135634D01*
X15153186Y-10098283D01*
X15119628Y-10076648D01*
X15100979Y-10073073D01*
X15097209Y-10074590D01*
X15089548Y-10065681D01*
X15088144Y-10063119D01*
X15066890Y-10057630D01*
X15022255Y-10055831D01*
X14957058Y-10057753D01*
X14874119Y-10063424D01*
X14866328Y-10066340D01*
X14857022Y-10085363D01*
X14854905Y-10094886D01*
X14838609Y-10105880D01*
X14825074Y-10111941D01*
X14797638Y-10133846D01*
X14765269Y-10166233D01*
X14746273Y-10187497D01*
X14725862Y-10214674D01*
X14714787Y-10241647D01*
X14709862Y-10277602D01*
X14707904Y-10331726D01*
X14623612Y-10331726D01*
X14626223Y-10318175D01*
X14630831Y-10276854D01*
X14643711Y-10225251D01*
X14673931Y-10166172D01*
X14716823Y-10108930D01*
X14719182Y-10106265D01*
X14739328Y-10080748D01*
X14747598Y-10065068D01*
X14756106Y-10053421D01*
X14784829Y-10035875D01*
X14826928Y-10017120D01*
X14875179Y-9999972D01*
X14922361Y-9987248D01*
X14961249Y-9981763D01*
X15061153Y-9986032D01*
X15147867Y-10007416D01*
X15219941Y-10047642D01*
X15281311Y-10108265D01*
X15286055Y-10114239D01*
X15331461Y-10184442D01*
X15355813Y-10256482D01*
X15362973Y-10341385D01*
X15362116Y-10362995D01*
X15361753Y-10372140D01*
G37*
G36*
X16238573Y-9742790D02*
G01*
X16241342Y-9793120D01*
X16247378Y-9830238D01*
X16257998Y-9861748D01*
X16274520Y-9895253D01*
X16276749Y-9899405D01*
X16358310Y-10058522D01*
X16423859Y-10203545D01*
X16475484Y-10340689D01*
X16515279Y-10476170D01*
X16545331Y-10616203D01*
X16567734Y-10767003D01*
X16573947Y-10835806D01*
X16578186Y-10943410D01*
X16578171Y-11049847D01*
X16578169Y-11062878D01*
X16574178Y-11186396D01*
X16566494Y-11306148D01*
X16555400Y-11414322D01*
X16541178Y-11503102D01*
X16503514Y-11658225D01*
X16424433Y-11889541D01*
X16320496Y-12110176D01*
X16192471Y-12318581D01*
X16041126Y-12513203D01*
X16026018Y-12530609D01*
X15991122Y-12571719D01*
X15971317Y-12598314D01*
X15964351Y-12614924D01*
X15967973Y-12626078D01*
X15979931Y-12636305D01*
X15985620Y-12640546D01*
X16017424Y-12665364D01*
X16053203Y-12694436D01*
X16064763Y-12703705D01*
X16093713Y-12723970D01*
X16111437Y-12732051D01*
X16120655Y-12734945D01*
X16148421Y-12749403D01*
X16184860Y-12771928D01*
X16246710Y-12806551D01*
X16352159Y-12847575D01*
X16470924Y-12877605D01*
X16595852Y-12895714D01*
X16719789Y-12900975D01*
X16835581Y-12892461D01*
X16936074Y-12869247D01*
X16960485Y-12860404D01*
X17065760Y-12811308D01*
X17163944Y-12748901D01*
X17244910Y-12679406D01*
X17295538Y-12609182D01*
X17329500Y-12518424D01*
X17344618Y-12410869D01*
X17340650Y-12288282D01*
X17317354Y-12152430D01*
X17304966Y-12100809D01*
X17287945Y-12041066D01*
X17268751Y-11994975D01*
X17242976Y-11954628D01*
X17206210Y-11912119D01*
X17154045Y-11859539D01*
X17083576Y-11794368D01*
X17016224Y-11743299D01*
X16953329Y-11710130D01*
X16889616Y-11692132D01*
X16819811Y-11686574D01*
X16779071Y-11687812D01*
X16704803Y-11700778D01*
X16651147Y-11728581D01*
X16615909Y-11772142D01*
X16605849Y-11797216D01*
X16591088Y-11849534D01*
X16576855Y-11914538D01*
X16564761Y-11983758D01*
X16556414Y-12048721D01*
X16553425Y-12100955D01*
X16553622Y-12113471D01*
X16563030Y-12200898D01*
X16585304Y-12273695D01*
X16618856Y-12326384D01*
X16674862Y-12372836D01*
X16739094Y-12404417D01*
X16803197Y-12417251D01*
X16860233Y-12408961D01*
X16873795Y-12401175D01*
X16899460Y-12367975D01*
X16914113Y-12320926D01*
X16914290Y-12268998D01*
X16911990Y-12227633D01*
X16922115Y-12205623D01*
X16923833Y-12204635D01*
X16944364Y-12205074D01*
X16960540Y-12225950D01*
X16971148Y-12260994D01*
X16974977Y-12303936D01*
X16970815Y-12348507D01*
X16957450Y-12388440D01*
X16952664Y-12396947D01*
X16912929Y-12441989D01*
X16860728Y-12473718D01*
X16806133Y-12485663D01*
X16799099Y-12485399D01*
X16746672Y-12473580D01*
X16685873Y-12447545D01*
X16625957Y-12411899D01*
X16576183Y-12371248D01*
X16555144Y-12348226D01*
X16529439Y-12309425D01*
X16512411Y-12263664D01*
X16502962Y-12205928D01*
X16499995Y-12131203D01*
X16502410Y-12034474D01*
X16506094Y-11970649D01*
X16517959Y-11868294D01*
X16537678Y-11787977D01*
X16567004Y-11726539D01*
X16607689Y-11680822D01*
X16661485Y-11647665D01*
X16730146Y-11623911D01*
X16808658Y-11613000D01*
X16905976Y-11624280D01*
X17005491Y-11661753D01*
X17106071Y-11724967D01*
X17206581Y-11813471D01*
X17233697Y-11841236D01*
X17283002Y-11896174D01*
X17318704Y-11946258D01*
X17345132Y-11999475D01*
X17366617Y-12063816D01*
X17387488Y-12147271D01*
X17400606Y-12215587D01*
X17412230Y-12349347D01*
X17405673Y-12478058D01*
X17381049Y-12593925D01*
X17380111Y-12596839D01*
X17342642Y-12671107D01*
X17282100Y-12742850D01*
X17202608Y-12809477D01*
X17108286Y-12868400D01*
X17003257Y-12917029D01*
X16891642Y-12952775D01*
X16777564Y-12973048D01*
X16695296Y-12975858D01*
X16591841Y-12968177D01*
X16482796Y-12950598D01*
X16374736Y-12924722D01*
X16274238Y-12892153D01*
X16187879Y-12854494D01*
X16122235Y-12813346D01*
X16092877Y-12790552D01*
X16035189Y-12747924D01*
X15981583Y-12710514D01*
X15909321Y-12662241D01*
X15783252Y-12768046D01*
X15707226Y-12829493D01*
X15506962Y-12969511D01*
X15298575Y-13084017D01*
X15079996Y-13173916D01*
X14849154Y-13240112D01*
X14603979Y-13283511D01*
X14575727Y-13286263D01*
X14507637Y-13289554D01*
X14423067Y-13290847D01*
X14328942Y-13290273D01*
X14232187Y-13287965D01*
X14139728Y-13284054D01*
X14058489Y-13278671D01*
X13995395Y-13271948D01*
X13882370Y-13253002D01*
X13648903Y-13194250D01*
X13425650Y-13110302D01*
X13211712Y-13000791D01*
X13006191Y-12865346D01*
X12982797Y-12847574D01*
X12900471Y-12778606D01*
X12810247Y-12695057D01*
X12717986Y-12602921D01*
X12629547Y-12508193D01*
X12550794Y-12416868D01*
X12487586Y-12334939D01*
X12425306Y-12240262D01*
X12355381Y-12118582D01*
X12290129Y-11989774D01*
X12234136Y-11862954D01*
X12191985Y-11747237D01*
X12187499Y-11732794D01*
X12130760Y-11503829D01*
X12097525Y-11266731D01*
X12088574Y-11045781D01*
X12168761Y-11045781D01*
X12170202Y-11164830D01*
X12174903Y-11276893D01*
X12182866Y-11375244D01*
X12194094Y-11453160D01*
X12242946Y-11657310D01*
X12316456Y-11871697D01*
X12410993Y-12072071D01*
X12528105Y-12261234D01*
X12669336Y-12441987D01*
X12836234Y-12617134D01*
X12882895Y-12660923D01*
X13068728Y-12814864D01*
X13262495Y-12943191D01*
X13465874Y-13046790D01*
X13680544Y-13126548D01*
X13908183Y-13183349D01*
X13915621Y-13184763D01*
X14013669Y-13199146D01*
X14129270Y-13209967D01*
X14253579Y-13216872D01*
X14377750Y-13219510D01*
X14492939Y-13217526D01*
X14590301Y-13210568D01*
X14723587Y-13191235D01*
X14952499Y-13137133D01*
X15174203Y-13058292D01*
X15385660Y-12956067D01*
X15583831Y-12831812D01*
X15765675Y-12686882D01*
X15846810Y-12614135D01*
X15793031Y-12574432D01*
X15633319Y-12448153D01*
X15461926Y-12291803D01*
X15308802Y-12128451D01*
X15178454Y-11962585D01*
X15177255Y-11960899D01*
X15148492Y-11923302D01*
X15124914Y-11897430D01*
X15111522Y-11888799D01*
X15103829Y-11895836D01*
X15086433Y-11921890D01*
X15065940Y-11959899D01*
X15052532Y-11986713D01*
X15032834Y-12024664D01*
X15019698Y-12048152D01*
X15012490Y-12060869D01*
X14994961Y-12094893D01*
X14974448Y-12137059D01*
X14958109Y-12169513D01*
X14892111Y-12271850D01*
X14813377Y-12357988D01*
X14725746Y-12424217D01*
X14633060Y-12466828D01*
X14570541Y-12481365D01*
X14490295Y-12491721D01*
X14403261Y-12496849D01*
X14317801Y-12496529D01*
X14242280Y-12490541D01*
X14185061Y-12478662D01*
X14153555Y-12467160D01*
X14049125Y-12410621D01*
X13957301Y-12330467D01*
X13879564Y-12227913D01*
X13842650Y-12168310D01*
X13821192Y-12200557D01*
X13778292Y-12256375D01*
X13705206Y-12320933D01*
X13624046Y-12360564D01*
X13536597Y-12374505D01*
X13444642Y-12361991D01*
X13431947Y-12357942D01*
X13387403Y-12330773D01*
X13356645Y-12284902D01*
X13336952Y-12216653D01*
X13331981Y-12141964D01*
X13346453Y-12078225D01*
X13378343Y-12031055D01*
X13425026Y-12002927D01*
X13483876Y-11996317D01*
X13552267Y-12013699D01*
X13577161Y-12026638D01*
X13596969Y-12047470D01*
X13595083Y-12065569D01*
X13574911Y-12077645D01*
X13539862Y-12080409D01*
X13493344Y-12070571D01*
X13466513Y-12068458D01*
X13436005Y-12086142D01*
X13414986Y-12123169D01*
X13407157Y-12175049D01*
X13412031Y-12228836D01*
X13430958Y-12267659D01*
X13467595Y-12288287D01*
X13525547Y-12294356D01*
X13525875Y-12294355D01*
X13612339Y-12283262D01*
X13682738Y-12250033D01*
X13737291Y-12194511D01*
X13776216Y-12116542D01*
X13781834Y-12098777D01*
X13784677Y-12076224D01*
X13779493Y-12051362D01*
X13764451Y-12017035D01*
X13737718Y-11966084D01*
X13716478Y-11922690D01*
X13686691Y-11852875D01*
X13656974Y-11775040D01*
X13631388Y-11699364D01*
X13629397Y-11692959D01*
X13607538Y-11619619D01*
X13593181Y-11561724D01*
X13584734Y-11509679D01*
X13580607Y-11453892D01*
X13579317Y-11390165D01*
X13641223Y-11390165D01*
X13643774Y-11433744D01*
X13651438Y-11482592D01*
X13665299Y-11543635D01*
X13686439Y-11623799D01*
X13689077Y-11633379D01*
X13710793Y-11707546D01*
X13733384Y-11777752D01*
X13754327Y-11836475D01*
X13771100Y-11876195D01*
X13786051Y-11905151D01*
X13805183Y-11939320D01*
X13817383Y-11957476D01*
X13817548Y-11957642D01*
X13827564Y-11954901D01*
X13835948Y-11926333D01*
X13842572Y-11873403D01*
X13847304Y-11797577D01*
X13850016Y-11700322D01*
X13850576Y-11583101D01*
X13850208Y-11521414D01*
X13849140Y-11445477D01*
X13847053Y-11389002D01*
X13843478Y-11347194D01*
X13837946Y-11315261D01*
X13829987Y-11288407D01*
X13819133Y-11261839D01*
X13796742Y-11217851D01*
X13768123Y-11174046D01*
X13740879Y-11143318D01*
X13719644Y-11131728D01*
X13716852Y-11132131D01*
X13699223Y-11148643D01*
X13680645Y-11184627D01*
X13663470Y-11233580D01*
X13650051Y-11288999D01*
X13642738Y-11344382D01*
X13642702Y-11344930D01*
X13641223Y-11390165D01*
X13579317Y-11390165D01*
X13579208Y-11384770D01*
X13579088Y-11364680D01*
X13579540Y-11302581D01*
X13582440Y-11258044D01*
X13589123Y-11223313D01*
X13600920Y-11190632D01*
X13619165Y-11152245D01*
X13639925Y-11112772D01*
X13659396Y-11084769D01*
X13679056Y-11071101D01*
X13704735Y-11065885D01*
X13736197Y-11067006D01*
X13787077Y-11089199D01*
X13833920Y-11137531D01*
X13877359Y-11212540D01*
X13920081Y-11302702D01*
X13919413Y-11583101D01*
X13919332Y-11617296D01*
X13919242Y-11646489D01*
X13918429Y-11748664D01*
X13916723Y-11828287D01*
X13913893Y-11889205D01*
X13909705Y-11935265D01*
X13903929Y-11970314D01*
X13896332Y-11998198D01*
X13892566Y-12009525D01*
X13883543Y-12041727D01*
X13882022Y-12068456D01*
X13889615Y-12096965D01*
X13907933Y-12134504D01*
X13938587Y-12188325D01*
X13942135Y-12194347D01*
X14009594Y-12284137D01*
X14092107Y-12355674D01*
X14184789Y-12404664D01*
X14216396Y-12415643D01*
X14252996Y-12424546D01*
X14294275Y-12429131D01*
X14347767Y-12430154D01*
X14421005Y-12428372D01*
X14440494Y-12427680D01*
X14506108Y-12424471D01*
X14554058Y-12419522D01*
X14592143Y-12411275D01*
X14628161Y-12398172D01*
X14669908Y-12378656D01*
X14706890Y-12358806D01*
X14784565Y-12302540D01*
X14849678Y-12230701D01*
X14905340Y-12139425D01*
X14954659Y-12024848D01*
X14968921Y-11988952D01*
X14989858Y-11943041D01*
X15007517Y-11911372D01*
X15009092Y-11909025D01*
X15029770Y-11870645D01*
X15047304Y-11827010D01*
X15050641Y-11816222D01*
X15054920Y-11794351D01*
X15053159Y-11771732D01*
X15043712Y-11742484D01*
X15024937Y-11700725D01*
X14995188Y-11640575D01*
X14950155Y-11546386D01*
X14906139Y-11439352D01*
X14879591Y-11351974D01*
X14870700Y-11284791D01*
X14870752Y-11283464D01*
X14939166Y-11283464D01*
X14941836Y-11314911D01*
X14957864Y-11382891D01*
X14987059Y-11465873D01*
X15027910Y-11559164D01*
X15046483Y-11596981D01*
X15062154Y-11626505D01*
X15069825Y-11637813D01*
X15075446Y-11632064D01*
X15082605Y-11604035D01*
X15088121Y-11557342D01*
X15091932Y-11497186D01*
X15093977Y-11428766D01*
X15094197Y-11357284D01*
X15092529Y-11287940D01*
X15088914Y-11225935D01*
X15083289Y-11176470D01*
X15075595Y-11144744D01*
X15059439Y-11116229D01*
X15034003Y-11098426D01*
X15007131Y-11102546D01*
X14981518Y-11125848D01*
X14959856Y-11165595D01*
X14944841Y-11219046D01*
X14939166Y-11283464D01*
X14870752Y-11283464D01*
X14871746Y-11257888D01*
X14884251Y-11186692D01*
X14908551Y-11122431D01*
X14941691Y-11070208D01*
X14980714Y-11035131D01*
X15022665Y-11022304D01*
X15061549Y-11033830D01*
X15101101Y-11063982D01*
X15133106Y-11105060D01*
X15149851Y-11149357D01*
X15157254Y-11210598D01*
X15164229Y-11333346D01*
X15164105Y-11357284D01*
X15163531Y-11468534D01*
X15155059Y-11607340D01*
X15148514Y-11681156D01*
X15145388Y-11738291D01*
X15148042Y-11782072D01*
X15158499Y-11819621D01*
X15178781Y-11858058D01*
X15210908Y-11904506D01*
X15256903Y-11966084D01*
X15329847Y-12057899D01*
X15426142Y-12167178D01*
X15529592Y-12274040D01*
X15634854Y-12373248D01*
X15736588Y-12459560D01*
X15829451Y-12527737D01*
X15888853Y-12567063D01*
X15921239Y-12536714D01*
X15926790Y-12531378D01*
X15965991Y-12489131D01*
X16014462Y-12431281D01*
X16067319Y-12364014D01*
X16119676Y-12293514D01*
X16166651Y-12225966D01*
X16217475Y-12145289D01*
X16321497Y-11944791D01*
X16403167Y-11732023D01*
X16462108Y-11509960D01*
X16497943Y-11281576D01*
X16510294Y-11049847D01*
X16498784Y-10817745D01*
X16463037Y-10588246D01*
X16402675Y-10364323D01*
X16383678Y-10309881D01*
X16352854Y-10230074D01*
X16319358Y-10151034D01*
X16285532Y-10077771D01*
X16253720Y-10015295D01*
X16226265Y-9968616D01*
X16205509Y-9942746D01*
X16193358Y-9929785D01*
X16183786Y-9908019D01*
X16180188Y-9893300D01*
X16159812Y-9856025D01*
X16123957Y-9805289D01*
X16075502Y-9744257D01*
X16017328Y-9676094D01*
X15952315Y-9603963D01*
X15883344Y-9531030D01*
X15813295Y-9460460D01*
X15745048Y-9395418D01*
X15681484Y-9339068D01*
X15625483Y-9294575D01*
X15590226Y-9269234D01*
X15386321Y-9140282D01*
X15176475Y-9037465D01*
X15037968Y-8988295D01*
X15255223Y-8988295D01*
X15271010Y-8996441D01*
X15302725Y-9011686D01*
X15341877Y-9030021D01*
X15380438Y-9047725D01*
X15410376Y-9061076D01*
X15423661Y-9066353D01*
X15427678Y-9062682D01*
X15442662Y-9041667D01*
X15463569Y-9008222D01*
X15490980Y-8968335D01*
X15536400Y-8913309D01*
X15588344Y-8858157D01*
X15639561Y-8810497D01*
X15682800Y-8777945D01*
X15698193Y-8769607D01*
X15754983Y-8754446D01*
X15809341Y-8761017D01*
X15854808Y-8787578D01*
X15884924Y-8832391D01*
X15903201Y-8891611D01*
X15922610Y-8997092D01*
X15933357Y-9122952D01*
X15935045Y-9265769D01*
X15931233Y-9458346D01*
X16003631Y-9539329D01*
X16004557Y-9540366D01*
X16046750Y-9588819D01*
X16088052Y-9638216D01*
X16119649Y-9678020D01*
X16132244Y-9694696D01*
X16151973Y-9719757D01*
X16166262Y-9733774D01*
X16175568Y-9734428D01*
X16180346Y-9719403D01*
X16181053Y-9686382D01*
X16178145Y-9633049D01*
X16172077Y-9557086D01*
X16163306Y-9456176D01*
X16152896Y-9339120D01*
X16133270Y-9130683D01*
X16114528Y-8948305D01*
X16096697Y-8792199D01*
X16079803Y-8662578D01*
X16063872Y-8559655D01*
X16048933Y-8483643D01*
X16035010Y-8434753D01*
X16032573Y-8428997D01*
X16012619Y-8394317D01*
X15985585Y-8357747D01*
X15954614Y-8329087D01*
X15915580Y-8314302D01*
X15871001Y-8319882D01*
X15818735Y-8346594D01*
X15756641Y-8395206D01*
X15682580Y-8466488D01*
X15650648Y-8500032D01*
X15592342Y-8564302D01*
X15536259Y-8629345D01*
X15491089Y-8685235D01*
X15482659Y-8696189D01*
X15432698Y-8760121D01*
X15378519Y-8828186D01*
X15330452Y-8887385D01*
X15311067Y-8911193D01*
X15280774Y-8949839D01*
X15260970Y-8977135D01*
X15255223Y-8988295D01*
X15037968Y-8988295D01*
X14959222Y-8960340D01*
X14733094Y-8908464D01*
X14496626Y-8881393D01*
X14248352Y-8878685D01*
X14235841Y-8879173D01*
X13989918Y-8901667D01*
X13907671Y-8918116D01*
X13756693Y-8948311D01*
X13535810Y-9019219D01*
X13326915Y-9114501D01*
X13129652Y-9234273D01*
X13084658Y-9266051D01*
X12892307Y-9420971D01*
X12719820Y-9592448D01*
X12568317Y-9778800D01*
X12438918Y-9978345D01*
X12332742Y-10189402D01*
X12250908Y-10410287D01*
X12194536Y-10639321D01*
X12183954Y-10713955D01*
X12175640Y-10813619D01*
X12170575Y-10926469D01*
X12168761Y-11045781D01*
X12088574Y-11045781D01*
X12087771Y-11025964D01*
X12101476Y-10785991D01*
X12138618Y-10551275D01*
X12199174Y-10326281D01*
X12212474Y-10287887D01*
X12274553Y-10138009D01*
X12352819Y-9983548D01*
X12442636Y-9832461D01*
X12539366Y-9692710D01*
X12638375Y-9572253D01*
X12719598Y-9483160D01*
X12726181Y-9403610D01*
X12796074Y-9403610D01*
X12799564Y-9402024D01*
X12818083Y-9387616D01*
X12846641Y-9362756D01*
X12870192Y-9341858D01*
X12915430Y-9302687D01*
X12960660Y-9264415D01*
X13026617Y-9209434D01*
X12989941Y-9096137D01*
X12984717Y-9079783D01*
X12968620Y-9022929D01*
X12959813Y-8973386D01*
X12956807Y-8919646D01*
X12958113Y-8850203D01*
X12960660Y-8801566D01*
X12969384Y-8729504D01*
X12984658Y-8677500D01*
X13008094Y-8641007D01*
X13041303Y-8615477D01*
X13047806Y-8611917D01*
X13072358Y-8602308D01*
X13095656Y-8605317D01*
X13129964Y-8621819D01*
X13130706Y-8622221D01*
X13170471Y-8652642D01*
X13217235Y-8702022D01*
X13266505Y-8764660D01*
X13313790Y-8834856D01*
X13354598Y-8906909D01*
X13372741Y-8941230D01*
X13391298Y-8969037D01*
X13407430Y-8980061D01*
X13425891Y-8979116D01*
X13434782Y-8976746D01*
X13476445Y-8962789D01*
X13516172Y-8945879D01*
X13545912Y-8929746D01*
X13557614Y-8918116D01*
X13549712Y-8900930D01*
X13525752Y-8865092D01*
X13487660Y-8813433D01*
X13437384Y-8748426D01*
X13376868Y-8672543D01*
X13308059Y-8588257D01*
X13232902Y-8498041D01*
X13153344Y-8404368D01*
X13131106Y-8379239D01*
X13070071Y-8320163D01*
X13018299Y-8286331D01*
X12975976Y-8277839D01*
X12943285Y-8294785D01*
X12923715Y-8325410D01*
X12905431Y-8374850D01*
X12888269Y-8444301D01*
X12872038Y-8534987D01*
X12856547Y-8648132D01*
X12841608Y-8784960D01*
X12827028Y-8946696D01*
X12812617Y-9134564D01*
X12811823Y-9145712D01*
X12806195Y-9226755D01*
X12801548Y-9297250D01*
X12798141Y-9353013D01*
X12796231Y-9389861D01*
X12796074Y-9403610D01*
X12726181Y-9403610D01*
X12735428Y-9291854D01*
X12737004Y-9272850D01*
X12754743Y-9066967D01*
X12771577Y-8887098D01*
X12787673Y-8732027D01*
X12803199Y-8600539D01*
X12818322Y-8491419D01*
X12833208Y-8403451D01*
X12848026Y-8335420D01*
X12862942Y-8286110D01*
X12878123Y-8254305D01*
X12888053Y-8241819D01*
X12929591Y-8216016D01*
X12982900Y-8209153D01*
X13040762Y-8222635D01*
X13078349Y-8243885D01*
X13137041Y-8292326D01*
X13203934Y-8362063D01*
X13277012Y-8451147D01*
X13277446Y-8451711D01*
X13322080Y-8508463D01*
X13373488Y-8572045D01*
X13420630Y-8628799D01*
X13421450Y-8629768D01*
X13467597Y-8687123D01*
X13516173Y-8751817D01*
X13556794Y-8810033D01*
X13565338Y-8822840D01*
X13593898Y-8863285D01*
X13616355Y-8891571D01*
X13628451Y-8902218D01*
X13629609Y-8902135D01*
X13650604Y-8897814D01*
X13689433Y-8888234D01*
X13738695Y-8875208D01*
X13765937Y-8868031D01*
X13972657Y-8826974D01*
X14190302Y-8805330D01*
X14412675Y-8802936D01*
X14633578Y-8819628D01*
X14846814Y-8855245D01*
X15046185Y-8909622D01*
X15079529Y-8920626D01*
X15135154Y-8937627D01*
X15171784Y-8945999D01*
X15193876Y-8946600D01*
X15205885Y-8940283D01*
X15218635Y-8925524D01*
X15251830Y-8885510D01*
X15294417Y-8832976D01*
X15341718Y-8773787D01*
X15389057Y-8713814D01*
X15431758Y-8658922D01*
X15465145Y-8614980D01*
X15493470Y-8578511D01*
X15546346Y-8515916D01*
X15604779Y-8451820D01*
X15664249Y-8390801D01*
X15720236Y-8337441D01*
X15768218Y-8296318D01*
X15803677Y-8272012D01*
X15827695Y-8260845D01*
X15896127Y-8245023D01*
X15959333Y-8255950D01*
X16018012Y-8293696D01*
X16035787Y-8311080D01*
X16066662Y-8347961D01*
X16084974Y-8379183D01*
X16088554Y-8390382D01*
X16099217Y-8434484D01*
X16111799Y-8497588D01*
X16125343Y-8573902D01*
X16138897Y-8657632D01*
X16151503Y-8742984D01*
X16162209Y-8824164D01*
X16170057Y-8895379D01*
X16172382Y-8919220D01*
X16180648Y-8997423D01*
X16189744Y-9076179D01*
X16198089Y-9141582D01*
X16207542Y-9216190D01*
X16223251Y-9375583D01*
X16233670Y-9535800D01*
X16237801Y-9683245D01*
X16237842Y-9686382D01*
X16238573Y-9742790D01*
G37*
D11*
%TO.C,JP1*%
X18350000Y-20057500D02*
X18350000Y-19457500D01*
X18900000Y-18257500D02*
X19200000Y-18557500D01*
X19000000Y-18757500D02*
X21800000Y-18757500D01*
X19500000Y-18257500D02*
X18900000Y-18257500D01*
X19500000Y-18257500D02*
X19200000Y-18557500D01*
X21800000Y-20757500D02*
X19000000Y-20757500D01*
X22450000Y-19457500D02*
X22450000Y-20057500D01*
X18350000Y-19457500D02*
G75*
G02*
X19050000Y-18757500I699999J1D01*
G01*
X19050000Y-20757500D02*
G75*
G02*
X18350000Y-20057500I-1J699999D01*
G01*
X21750000Y-18757500D02*
G75*
G02*
X22450000Y-19457500I0J-700000D01*
G01*
X22450000Y-20057500D02*
G75*
G02*
X21750000Y-20757500I-700000J0D01*
G01*
%TO.C,TP6*%
X15200000Y-2200000D02*
X17600000Y-2200000D01*
X15200000Y-4600000D02*
X15200000Y-2200000D01*
X17600000Y-2200000D02*
X17600000Y-4600000D01*
X17600000Y-4600000D02*
X15200000Y-4600000D01*
%TD*%
%LPC*%
D13*
%TO.C,CN2*%
X17145000Y-17450000D03*
X18645000Y-17450000D03*
X20145000Y-17450000D03*
X21645000Y-17450000D03*
X23145000Y-17450000D03*
%TD*%
D14*
%TO.C,J1*%
X2610000Y-16295000D03*
X8390000Y-16295000D03*
D15*
X1180000Y-15795000D03*
D16*
X1180000Y-19975000D03*
D15*
X9820000Y-15795000D03*
D16*
X9820000Y-19975000D03*
%TD*%
D17*
%TO.C,*%
X2250000Y-6950000D03*
%TD*%
D18*
%TO.C,U2*%
X6825000Y-1875000D03*
X3825000Y-1875000D03*
%TD*%
D19*
%TO.C,RESET1*%
X19000000Y-14050000D03*
%TD*%
D20*
%TO.C,CN1*%
X4969000Y-11025000D03*
X4969000Y-12275000D03*
%TD*%
D21*
%TO.C,TP7*%
X13150000Y-20000000D03*
%TD*%
%TO.C,TP2*%
X16550000Y-20000000D03*
%TD*%
%TO.C,TP3*%
X22500000Y-6450000D03*
%TD*%
%TO.C,TP4*%
X19450000Y-3400000D03*
%TD*%
%TO.C,TP8*%
X5500000Y-18750000D03*
%TD*%
%TO.C,TP5*%
X22500000Y-3400000D03*
%TD*%
D20*
%TO.C,TP1*%
X23150000Y-9500000D03*
%TD*%
D22*
%TO.C,JP1*%
X19100000Y-19757500D03*
D23*
X20400000Y-19757500D03*
D24*
X21700000Y-19757500D03*
%TD*%
D21*
%TO.C,TP6*%
X16400000Y-3400000D03*
%TD*%
%LPD*%
M02*
