%TF.GenerationSoftware,KiCad,Pcbnew,8.0.6-8.0.6-0~ubuntu24.04.1*%
%TF.CreationDate,2024-11-07T17:00:29-08:00*%
%TF.ProjectId,uSlime,75536c69-6d65-42e6-9b69-6361645f7063,rev?*%
%TF.SameCoordinates,Original*%
%TF.FileFunction,Soldermask,Top*%
%TF.FilePolarity,Negative*%
%FSLAX46Y46*%
G04 Gerber Fmt 4.6, Leading zero omitted, Abs format (unit mm)*
G04 Created by KiCad (PCBNEW 8.0.6-8.0.6-0~ubuntu24.04.1) date 2024-11-07 17:00:29*
%MOMM*%
%LPD*%
G01*
G04 APERTURE LIST*
G04 Aperture macros list*
%AMRoundRect*
0 Rectangle with rounded corners*
0 $1 Rounding radius*
0 $2 $3 $4 $5 $6 $7 $8 $9 X,Y pos of 4 corners*
0 Add a 4 corners polygon primitive as box body*
4,1,4,$2,$3,$4,$5,$6,$7,$8,$9,$2,$3,0*
0 Add four circle primitives for the rounded corners*
1,1,$1+$1,$2,$3*
1,1,$1+$1,$4,$5*
1,1,$1+$1,$6,$7*
1,1,$1+$1,$8,$9*
0 Add four rect primitives between the rounded corners*
20,1,$1+$1,$2,$3,$4,$5,0*
20,1,$1+$1,$4,$5,$6,$7,0*
20,1,$1+$1,$6,$7,$8,$9,0*
20,1,$1+$1,$8,$9,$2,$3,0*%
%AMFreePoly0*
4,1,6,0.725000,-0.725000,-0.725000,-0.725000,-0.725000,0.125000,-0.125000,0.725000,0.725000,0.725000,0.725000,-0.725000,0.725000,-0.725000,$1*%
G04 Aperture macros list end*
%ADD10RoundRect,0.147500X-0.172500X0.147500X-0.172500X-0.147500X0.172500X-0.147500X0.172500X0.147500X0*%
%ADD11C,1.200000*%
%ADD12RoundRect,0.135000X-0.135000X-0.185000X0.135000X-0.185000X0.135000X0.185000X-0.135000X0.185000X0*%
%ADD13RoundRect,0.135000X0.135000X0.185000X-0.135000X0.185000X-0.135000X-0.185000X0.135000X-0.185000X0*%
%ADD14R,0.800000X0.700000*%
%ADD15RoundRect,0.135000X0.185000X-0.135000X0.185000X0.135000X-0.185000X0.135000X-0.185000X-0.135000X0*%
%ADD16RoundRect,0.140000X0.170000X-0.140000X0.170000X0.140000X-0.170000X0.140000X-0.170000X-0.140000X0*%
%ADD17RoundRect,0.140000X-0.170000X0.140000X-0.170000X-0.140000X0.170000X-0.140000X0.170000X0.140000X0*%
%ADD18C,0.650000*%
%ADD19RoundRect,0.150000X-0.150000X-0.425000X0.150000X-0.425000X0.150000X0.425000X-0.150000X0.425000X0*%
%ADD20RoundRect,0.075000X-0.075000X-0.500000X0.075000X-0.500000X0.075000X0.500000X-0.075000X0.500000X0*%
%ADD21O,1.000000X2.100000*%
%ADD22O,1.000000X1.800000*%
%ADD23RoundRect,0.135000X-0.185000X0.135000X-0.185000X-0.135000X0.185000X-0.135000X0.185000X0.135000X0*%
%ADD24RoundRect,0.140000X-0.140000X-0.170000X0.140000X-0.170000X0.140000X0.170000X-0.140000X0.170000X0*%
%ADD25R,0.250000X0.914400*%
%ADD26R,0.812800X0.250000*%
%ADD27C,3.100000*%
%ADD28R,1.320800X0.508000*%
%ADD29R,0.800000X0.400000*%
%ADD30R,0.400000X0.800000*%
%ADD31FreePoly0,0.000000*%
%ADD32R,1.450000X1.450000*%
%ADD33R,0.700000X0.700000*%
%ADD34C,0.900000*%
%ADD35R,0.700000X1.500000*%
%ADD36R,1.000000X0.800000*%
%ADD37C,0.800000*%
%ADD38R,1.700000X0.900000*%
%ADD39C,1.000000*%
%ADD40RoundRect,0.060300X-0.716700X0.341700X-0.716700X-0.341700X0.716700X-0.341700X0.716700X0.341700X0*%
G04 APERTURE END LIST*
D10*
%TO.C,D1*%
X7300000Y-12665000D03*
X7300000Y-13635000D03*
%TD*%
D11*
%TO.C,CN2*%
X17145000Y-17450000D03*
X18645000Y-17450000D03*
X20145000Y-17450000D03*
X21645000Y-17450000D03*
X23145000Y-17450000D03*
%TD*%
D12*
%TO.C,R16*%
X21140000Y-12250000D03*
X22160000Y-12250000D03*
%TD*%
D13*
%TO.C,R15*%
X14810000Y-18750000D03*
X13790000Y-18750000D03*
%TD*%
D14*
%TO.C,LED1*%
X21200000Y-14450000D03*
X21200000Y-13350000D03*
X24100000Y-13350000D03*
X24100000Y-14450000D03*
%TD*%
D15*
%TO.C,R9*%
X10650000Y-6760000D03*
X10650000Y-5740000D03*
%TD*%
D16*
%TO.C,C5*%
X5200000Y-7280000D03*
X5200000Y-6320000D03*
%TD*%
D12*
%TO.C,R14*%
X13790000Y-17750000D03*
X14810000Y-17750000D03*
%TD*%
D16*
%TO.C,C4*%
X10450000Y-1680000D03*
X10450000Y-720000D03*
%TD*%
D17*
%TO.C,C3*%
X6150000Y-10800000D03*
X6150000Y-11760000D03*
%TD*%
D18*
%TO.C,J1*%
X2610000Y-16295000D03*
X8390000Y-16295000D03*
D19*
X2300000Y-15220000D03*
X3100000Y-15220000D03*
D20*
X4250000Y-15220000D03*
X5250000Y-15220000D03*
X5750000Y-15220000D03*
X6750000Y-15220000D03*
D19*
X7900000Y-15220000D03*
X8700000Y-15220000D03*
X8700000Y-15220000D03*
X7900000Y-15220000D03*
D20*
X7250000Y-15220000D03*
X6250000Y-15220000D03*
X4750000Y-15220000D03*
X3750000Y-15220000D03*
D19*
X3100000Y-15220000D03*
X2300000Y-15220000D03*
D21*
X1180000Y-15795000D03*
D22*
X1180000Y-19975000D03*
D21*
X9820000Y-15795000D03*
D22*
X9820000Y-19975000D03*
%TD*%
D13*
%TO.C,R13*%
X14810000Y-16750000D03*
X13790000Y-16750000D03*
%TD*%
D15*
%TO.C,R7*%
X12450000Y-20760000D03*
X12450000Y-19740000D03*
%TD*%
D12*
%TO.C,R12*%
X23090000Y-12250000D03*
X24110000Y-12250000D03*
%TD*%
D15*
%TO.C,R5*%
X12450000Y-18760000D03*
X12450000Y-17740000D03*
%TD*%
D23*
%TO.C,R4*%
X11450000Y-17740000D03*
X11450000Y-18760000D03*
%TD*%
D10*
%TO.C,D2*%
X6150000Y-8915000D03*
X6150000Y-9885000D03*
%TD*%
D17*
%TO.C,C2*%
X10550000Y-12570000D03*
X10550000Y-13530000D03*
%TD*%
D24*
%TO.C,C7*%
X21120000Y-15550000D03*
X22080000Y-15550000D03*
%TD*%
D12*
%TO.C,R3*%
X8440000Y-13400000D03*
X9460000Y-13400000D03*
%TD*%
D15*
%TO.C,R2*%
X6100000Y-4860000D03*
X6100000Y-3840000D03*
%TD*%
D12*
%TO.C,R11*%
X13790000Y-19750000D03*
X14810000Y-19750000D03*
%TD*%
D25*
%TO.C,U5*%
X11902600Y-12222670D03*
D26*
X11711600Y-13150000D03*
X11711600Y-13653070D03*
X11711600Y-14153070D03*
X11711600Y-14653060D03*
D25*
X11902600Y-15575470D03*
X12402600Y-15575470D03*
X12902600Y-15575470D03*
X13402600Y-15575470D03*
X13902600Y-15575470D03*
X14402600Y-15575470D03*
X14902600Y-15575470D03*
X15402600Y-15575470D03*
X15902600Y-15575470D03*
X16410600Y-15575470D03*
D26*
X16537600Y-14653070D03*
X16537600Y-14153070D03*
X16537600Y-13653070D03*
X16537600Y-13150000D03*
D25*
X16410600Y-12222670D03*
X15902600Y-12222670D03*
X15402600Y-12222670D03*
X14902600Y-12222670D03*
X14402600Y-12222670D03*
X13902600Y-12222670D03*
X13402600Y-12222670D03*
X12902600Y-12222670D03*
X12402600Y-12222670D03*
%TD*%
D23*
%TO.C,R6*%
X10650000Y-7640000D03*
X10650000Y-8660000D03*
%TD*%
D24*
%TO.C,C1*%
X11420000Y-16750000D03*
X12380000Y-16750000D03*
%TD*%
D23*
%TO.C,R8*%
X11450000Y-19740000D03*
X11450000Y-20760000D03*
%TD*%
D27*
%TO.C,*%
X2250000Y-6950000D03*
%TD*%
D28*
%TO.C,U1*%
X6654600Y-5949999D03*
X6654600Y-6900000D03*
X6654600Y-7850001D03*
X9245400Y-7850001D03*
X9245400Y-5949999D03*
%TD*%
D15*
%TO.C,R1*%
X10450000Y-3610000D03*
X10450000Y-2590000D03*
%TD*%
D29*
%TO.C,U4*%
X12050000Y-1800000D03*
X12050000Y-2600000D03*
X12050000Y-3400000D03*
X12050000Y-4200000D03*
X12050000Y-5000000D03*
X12050000Y-5800000D03*
X12050000Y-6600000D03*
X12050000Y-7400000D03*
X12050000Y-8200000D03*
X12050000Y-9000000D03*
X12050000Y-9800000D03*
D30*
X13150000Y-10700000D03*
X13950000Y-10700000D03*
X14750000Y-10700000D03*
X15550000Y-10700000D03*
X16350000Y-10700000D03*
X17150000Y-10700000D03*
X17950000Y-10700000D03*
X18750000Y-10700000D03*
X19550000Y-10700000D03*
X20350000Y-10700000D03*
X21150000Y-10700000D03*
X21950000Y-10700000D03*
X22750000Y-10700000D03*
D29*
X23850000Y-9800000D03*
X23850000Y-9000000D03*
X23850000Y-8200000D03*
X23850000Y-7400000D03*
X23850000Y-6600000D03*
X23850000Y-5800000D03*
X23850000Y-5000000D03*
X23850000Y-4200000D03*
X23850000Y-3400000D03*
X23850000Y-2600000D03*
X23850000Y-1800000D03*
D30*
X22750000Y-900000D03*
X21950000Y-900000D03*
X21150000Y-900000D03*
X20350000Y-900000D03*
X19550000Y-900000D03*
X18750000Y-900000D03*
X17950000Y-900000D03*
X17150000Y-900000D03*
X16350000Y-900000D03*
X15550000Y-900000D03*
X14750000Y-900000D03*
X13950000Y-900000D03*
X13150000Y-900000D03*
D31*
X15975000Y-3825000D03*
D32*
X15975000Y-5800000D03*
X15975000Y-7775000D03*
X17950000Y-3825000D03*
X17950000Y-5800000D03*
X17950000Y-7775000D03*
X19925000Y-3825000D03*
X19925000Y-5800000D03*
X19925000Y-7775000D03*
D33*
X23900000Y-850000D03*
X23900000Y-10750000D03*
X12000000Y-10750000D03*
X12000000Y-850000D03*
%TD*%
D12*
%TO.C,R10*%
X13790000Y-20750000D03*
X14810000Y-20750000D03*
%TD*%
D34*
%TO.C,U2*%
X6825000Y-1875000D03*
X3825000Y-1875000D03*
D35*
X4575000Y-3625000D03*
D36*
X8975000Y-2840000D03*
X8975000Y-910000D03*
X1675000Y-2840000D03*
X1675000Y-910000D03*
D35*
X3075000Y-3625000D03*
X7575000Y-3625000D03*
%TD*%
D37*
%TO.C,RESET1*%
X19000000Y-14050000D03*
D38*
X19000000Y-15750000D03*
X19000000Y-12350000D03*
%TD*%
D39*
%TO.C,CN1*%
X4969000Y-11025000D03*
X4969000Y-12275000D03*
%TD*%
D40*
%TO.C,U3*%
X7765000Y-9650000D03*
X7765000Y-10600000D03*
X7765000Y-11550000D03*
X10135000Y-11550000D03*
X10135000Y-9650000D03*
%TD*%
D16*
%TO.C,C6*%
X6150000Y-13630000D03*
X6150000Y-12670000D03*
%TD*%
M02*
