%TF.GenerationSoftware,KiCad,Pcbnew,8.0.6-8.0.6-0~ubuntu24.04.1*%
%TF.CreationDate,2024-11-07T17:00:29-08:00*%
%TF.ProjectId,uSlime,75536c69-6d65-42e6-9b69-6361645f7063,rev?*%
%TF.SameCoordinates,Original*%
%TF.FileFunction,Copper,L2,Bot*%
%TF.FilePolarity,Positive*%
%FSLAX46Y46*%
G04 Gerber Fmt 4.6, Leading zero omitted, Abs format (unit mm)*
G04 Created by KiCad (PCBNEW 8.0.6-8.0.6-0~ubuntu24.04.1) date 2024-11-07 17:00:29*
%MOMM*%
%LPD*%
G01*
G04 APERTURE LIST*
G04 Aperture macros list*
%AMFreePoly0*
4,1,19,0.550000,-0.750000,0.000000,-0.750000,0.000000,-0.744911,-0.071157,-0.744911,-0.207708,-0.704816,-0.327430,-0.627875,-0.420627,-0.520320,-0.479746,-0.390866,-0.500000,-0.250000,-0.500000,0.250000,-0.479746,0.390866,-0.420627,0.520320,-0.327430,0.627875,-0.207708,0.704816,-0.071157,0.744911,0.000000,0.744911,0.000000,0.750000,0.550000,0.750000,0.550000,-0.750000,0.550000,-0.750000,
$1*%
%AMFreePoly1*
4,1,19,0.000000,0.744911,0.071157,0.744911,0.207708,0.704816,0.327430,0.627875,0.420627,0.520320,0.479746,0.390866,0.500000,0.250000,0.500000,-0.250000,0.479746,-0.390866,0.420627,-0.520320,0.327430,-0.627875,0.207708,-0.704816,0.071157,-0.744911,0.000000,-0.744911,0.000000,-0.750000,-0.550000,-0.750000,-0.550000,0.750000,0.000000,0.750000,0.000000,0.744911,0.000000,0.744911,
$1*%
G04 Aperture macros list end*
%TA.AperFunction,ComponentPad*%
%ADD10C,1.200000*%
%TD*%
%TA.AperFunction,ComponentPad*%
%ADD11O,1.000000X2.100000*%
%TD*%
%TA.AperFunction,ComponentPad*%
%ADD12O,1.000000X1.800000*%
%TD*%
%TA.AperFunction,ComponentPad*%
%ADD13C,1.000000*%
%TD*%
%TA.AperFunction,SMDPad,CuDef*%
%ADD14R,2.000000X2.000000*%
%TD*%
%TA.AperFunction,SMDPad,CuDef*%
%ADD15C,1.000000*%
%TD*%
%TA.AperFunction,SMDPad,CuDef*%
%ADD16FreePoly0,0.000000*%
%TD*%
%TA.AperFunction,SMDPad,CuDef*%
%ADD17R,1.000000X1.500000*%
%TD*%
%TA.AperFunction,SMDPad,CuDef*%
%ADD18FreePoly1,0.000000*%
%TD*%
%TA.AperFunction,ViaPad*%
%ADD19C,0.600000*%
%TD*%
%TA.AperFunction,ViaPad*%
%ADD20C,0.500000*%
%TD*%
%TA.AperFunction,Conductor*%
%ADD21C,0.254000*%
%TD*%
G04 APERTURE END LIST*
D10*
%TO.P,CN2,1,1*%
%TO.N,BNO_SDA*%
X17145000Y-17450000D03*
%TO.P,CN2,2,2*%
%TO.N,+3.3V*%
X18645000Y-17450000D03*
%TO.P,CN2,3,3*%
%TO.N,BNO_INT2*%
X20145000Y-17450000D03*
%TO.P,CN2,4,4*%
%TO.N,GND*%
X21645000Y-17450000D03*
%TO.P,CN2,5,5*%
%TO.N,BNO_SCL*%
X23145000Y-17450000D03*
%TD*%
D11*
%TO.P,J1,S1,SHIELD*%
%TO.N,GND*%
X1180000Y-15795000D03*
D12*
X1180000Y-19975000D03*
D11*
X9820000Y-15795000D03*
D12*
X9820000Y-19975000D03*
%TD*%
D13*
%TO.P,CN1,1,1*%
%TO.N,GND*%
X4969000Y-11025000D03*
%TO.P,CN1,2,2*%
%TO.N,VBAT*%
X4969000Y-12275000D03*
%TD*%
D14*
%TO.P,TP7,1,1*%
%TO.N,GND*%
X13150000Y-20000000D03*
%TD*%
%TO.P,TP2,1,1*%
%TO.N,+3.3V*%
X16550000Y-20000000D03*
%TD*%
%TO.P,TP3,1,1*%
%TO.N,/ESP32-C6FH4/IO20{slash}PICO*%
X22500000Y-6450000D03*
%TD*%
%TO.P,TP4,1,1*%
%TO.N,BNO_SCL*%
X19450000Y-3400000D03*
%TD*%
%TO.P,TP8,1,1*%
%TO.N,VBUS*%
X5500000Y-18750000D03*
%TD*%
%TO.P,TP5,1,1*%
%TO.N,/ESP32-C6FH4/IO21{slash}POCI*%
X22500000Y-3400000D03*
%TD*%
D15*
%TO.P,TP1,1,1*%
%TO.N,/ESP32-C6FH4/IO9{slash}BOOT*%
X23150000Y-9500000D03*
%TD*%
D16*
%TO.P,JP1,1,A*%
%TO.N,+3.3V*%
X19100000Y-19757500D03*
D17*
%TO.P,JP1,2,C*%
%TO.N,Net-(JP1-C)*%
X20400000Y-19757500D03*
D18*
%TO.P,JP1,3,B*%
%TO.N,GND*%
X21700000Y-19757500D03*
%TD*%
D14*
%TO.P,TP6,1,1*%
%TO.N,BNO_SDA*%
X16400000Y-3400000D03*
%TD*%
D19*
%TO.N,GND*%
X19000000Y-15650000D03*
X8573000Y-10600000D03*
X20304643Y-7795357D03*
X7400000Y-6900000D03*
X23600000Y-11550000D03*
X15550000Y-1650000D03*
D20*
%TO.N,/ESP32-C6FH4/ESP_EN*%
X18176861Y-11998309D03*
X13316601Y-8176104D03*
%TO.N,/ESP32-C6FH4/IO9{slash}BOOT*%
X22650000Y-9700000D03*
D19*
%TO.N,VBUS*%
X8000000Y-7850000D03*
X4000000Y-17100000D03*
D20*
%TO.N,/ESP32-C6FH4/IO8*%
X10450000Y-4400000D03*
X20350000Y-9631002D03*
%TO.N,/ESP32-C6FH4/IO20{slash}PICO*%
X21700000Y-7300000D03*
%TO.N,/ESP32-C6FH4/IO21{slash}POCI*%
X22400000Y-4350000D03*
%TO.N,D+ P*%
X9900000Y-17523003D03*
X17950000Y-10050000D03*
%TO.N,D- N*%
X9200000Y-18100003D03*
X17150000Y-10000000D03*
%TO.N,BNO_INT*%
X13950000Y-9800000D03*
X15524672Y-16482672D03*
%TO.N,Net-(U5-BOOTN)*%
X12659792Y-14165170D03*
X13080216Y-17254389D03*
%TO.N,BNO_SCL*%
X23150000Y-18954000D03*
X21350000Y-9500000D03*
%TO.N,BNO_SDA*%
X15550000Y-9764218D03*
X17023000Y-12250000D03*
X13893601Y-6568104D03*
%TO.N,Net-(JP1-C)*%
X15462843Y-14076070D03*
%TO.N,Net-(U5-ENV_SDA)*%
X13923000Y-13750000D03*
X13154460Y-21450002D03*
D19*
%TO.N,+3.3V*%
X16550000Y-20000000D03*
X20350000Y-14300000D03*
X10150000Y-10500000D03*
X18800000Y-19300000D03*
X9903257Y-5014182D03*
D20*
%TO.N,BatSense*%
X11352002Y-8247538D03*
X9771908Y-12602492D03*
%TO.N,Net-(J1-CC2)*%
X10463626Y-18632763D03*
X7250000Y-16400000D03*
%TO.N,BNO_INT2*%
X19627000Y-9993000D03*
%TO.N,Net-(D2-A)*%
X4575000Y-4525000D03*
X8110000Y-12773000D03*
X5525000Y-9875000D03*
%TO.N,Net-(LED1---Pad4)*%
X22245974Y-14495972D03*
X10651144Y-5070481D03*
%TD*%
D21*
%TO.N,GND*%
X21409286Y-8900000D02*
X21566002Y-8900000D01*
X21700000Y-17505000D02*
X21645000Y-17450000D01*
X21927000Y-9260998D02*
X21927000Y-10227000D01*
X21927000Y-10227000D02*
X23250000Y-11550000D01*
X21566002Y-8900000D02*
X21927000Y-9260998D01*
X21700000Y-19757500D02*
X21700000Y-17505000D01*
X20304643Y-7795357D02*
X21409286Y-8900000D01*
X23250000Y-11550000D02*
X23600000Y-11550000D01*
X13150000Y-20000000D02*
X9845000Y-20000000D01*
X9845000Y-20000000D02*
X9820000Y-19975000D01*
%TO.N,/ESP32-C6FH4/ESP_EN*%
X16892106Y-8176104D02*
X18527000Y-9810998D01*
X13316601Y-8176104D02*
X16892106Y-8176104D01*
X18527000Y-9810998D02*
X18527000Y-11648170D01*
X18527000Y-11648170D02*
X18176861Y-11998309D01*
%TO.N,/ESP32-C6FH4/IO9{slash}BOOT*%
X22850000Y-9500000D02*
X22650000Y-9700000D01*
X23150000Y-9500000D02*
X22850000Y-9500000D01*
%TO.N,VBUS*%
X5500000Y-18600000D02*
X5500000Y-18750000D01*
X4000000Y-16000000D02*
X4000000Y-17100000D01*
X8376002Y-13350000D02*
X6650000Y-13350000D01*
X9200000Y-9050000D02*
X9200000Y-12526002D01*
X6650000Y-13350000D02*
X4000000Y-16000000D01*
X4000000Y-17100000D02*
X5500000Y-18600000D01*
X9200000Y-12526002D02*
X8376002Y-13350000D01*
X8000000Y-7850000D02*
X9200000Y-9050000D01*
%TO.N,/ESP32-C6FH4/IO8*%
X20081004Y-9631002D02*
X19866002Y-9416000D01*
X13545104Y-7145104D02*
X10800000Y-4400000D01*
X19416107Y-9416000D02*
X17145211Y-7145104D01*
X17145211Y-7145104D02*
X13545104Y-7145104D01*
X10800000Y-4400000D02*
X10450000Y-4400000D01*
X20350000Y-9631002D02*
X20081004Y-9631002D01*
X19866002Y-9416000D02*
X19416107Y-9416000D01*
%TO.N,/ESP32-C6FH4/IO20{slash}PICO*%
X22500000Y-6500000D02*
X22500000Y-6450000D01*
X21700000Y-7300000D02*
X22500000Y-6500000D01*
%TO.N,/ESP32-C6FH4/IO21{slash}POCI*%
X22500000Y-4250000D02*
X22400000Y-4350000D01*
X22500000Y-3400000D02*
X22500000Y-4250000D01*
%TO.N,D+ P*%
X11050000Y-16650000D02*
X11050000Y-11150000D01*
X13466782Y-8733218D02*
X16725270Y-8733218D01*
X11050000Y-11150000D02*
X13466782Y-8733218D01*
X17950000Y-9957948D02*
X17950000Y-10050000D01*
X10176997Y-17523003D02*
X11050000Y-16650000D01*
X16725270Y-8733218D02*
X17950000Y-9957948D01*
X9900000Y-17523003D02*
X10176997Y-17523003D01*
%TO.N,D- N*%
X11504000Y-11338052D02*
X13654834Y-9187218D01*
X10242050Y-18100003D02*
X11504000Y-16838053D01*
X9200000Y-18100003D02*
X10242050Y-18100003D01*
X16537218Y-9187218D02*
X17150000Y-9800000D01*
X11504000Y-16838053D02*
X11504000Y-11338052D01*
X13654834Y-9187218D02*
X16537218Y-9187218D01*
%TO.N,BNO_INT*%
X14500000Y-15458000D02*
X14500000Y-10350000D01*
X15524672Y-16482672D02*
X14500000Y-15458000D01*
X14500000Y-10350000D02*
X13950000Y-9800000D01*
%TO.N,Net-(U5-BOOTN)*%
X12659792Y-16833965D02*
X13080216Y-17254389D01*
X12659792Y-14165170D02*
X12659792Y-16833965D01*
%TO.N,BNO_SCL*%
X21445199Y-9595199D02*
X21445199Y-11169147D01*
X20650000Y-9050000D02*
X19450000Y-7850000D01*
X23454000Y-13177948D02*
X23454000Y-17141000D01*
X21350000Y-9500000D02*
X20900000Y-9050000D01*
X23150000Y-17455000D02*
X23145000Y-17450000D01*
X20900000Y-9050000D02*
X20650000Y-9050000D01*
X23454000Y-17141000D02*
X23145000Y-17450000D01*
X21350000Y-9500000D02*
X21445199Y-9595199D01*
X23150000Y-18954000D02*
X23150000Y-17455000D01*
X21445199Y-11169147D02*
X23454000Y-13177948D01*
X19450000Y-7850000D02*
X19450000Y-3400000D01*
%TO.N,BNO_SDA*%
X16400000Y-4061705D02*
X16400000Y-3400000D01*
X17023000Y-12250000D02*
X15550000Y-10777000D01*
X15550000Y-10777000D02*
X15550000Y-9764218D01*
X13893601Y-6568104D02*
X16400000Y-4061705D01*
X17145000Y-12372000D02*
X17145000Y-17450000D01*
X17023000Y-12250000D02*
X17145000Y-12372000D01*
%TO.N,Net-(JP1-C)*%
X16200000Y-14813227D02*
X15462843Y-14076070D01*
X16934024Y-18550000D02*
X16200000Y-17815976D01*
X19934024Y-18550000D02*
X16934024Y-18550000D01*
X20400000Y-19757500D02*
X20400000Y-19015976D01*
X20400000Y-19015976D02*
X19934024Y-18550000D01*
X16200000Y-17815976D02*
X16200000Y-14813227D01*
%TO.N,Net-(U5-ENV_SDA)*%
X13923000Y-16940703D02*
X13923000Y-13750000D01*
X14800000Y-17817703D02*
X13923000Y-16940703D01*
X13154460Y-21450002D02*
X14353998Y-21450002D01*
X14800000Y-21004000D02*
X14800000Y-17817703D01*
X14353998Y-21450002D02*
X14800000Y-21004000D01*
%TO.N,+3.3V*%
X16792500Y-19757500D02*
X16550000Y-20000000D01*
X9903257Y-5014182D02*
X9903257Y-5138596D01*
X19100000Y-19757500D02*
X16792500Y-19757500D01*
X20350000Y-15745000D02*
X18645000Y-17450000D01*
X9903257Y-5138596D02*
X10150000Y-5385339D01*
X19100000Y-19757500D02*
X19100000Y-19600000D01*
X20350000Y-14300000D02*
X20350000Y-15745000D01*
X10150000Y-5385339D02*
X10150000Y-10500000D01*
X19100000Y-19600000D02*
X18800000Y-19300000D01*
%TO.N,BatSense*%
X11352002Y-10205946D02*
X11352002Y-8247538D01*
X9771908Y-12602492D02*
X9771908Y-11786040D01*
X9771908Y-11786040D02*
X11352002Y-10205946D01*
%TO.N,Net-(J1-CC2)*%
X7250000Y-16966005D02*
X8960998Y-18677003D01*
X8960998Y-18677003D02*
X10419386Y-18677003D01*
X7250000Y-16400000D02*
X7250000Y-16966005D01*
X10419386Y-18677003D02*
X10463626Y-18632763D01*
%TO.N,BNO_INT2*%
X23000000Y-14557948D02*
X20145000Y-17412948D01*
X23000000Y-13366000D02*
X23000000Y-14557948D01*
X20145000Y-17412948D02*
X20145000Y-17450000D01*
X19627000Y-9993000D02*
X23000000Y-13366000D01*
%TO.N,Net-(D2-A)*%
X4575000Y-4525000D02*
X5200000Y-5150000D01*
X5525000Y-9875000D02*
X6300000Y-10650000D01*
X6300000Y-11700000D02*
X7373000Y-12773000D01*
X5200000Y-5150000D02*
X5200000Y-9550000D01*
X6300000Y-10650000D02*
X6300000Y-11700000D01*
X5200000Y-9550000D02*
X5525000Y-9875000D01*
X7373000Y-12773000D02*
X8110000Y-12773000D01*
%TO.N,Net-(LED1---Pad4)*%
X19050000Y-11850000D02*
X19050000Y-9691946D01*
X13555603Y-7599104D02*
X13179767Y-7599104D01*
X22245974Y-14495972D02*
X21695972Y-14495972D01*
X19050000Y-9691946D02*
X16958054Y-7600000D01*
X16958054Y-7600000D02*
X13556499Y-7600000D01*
X13179767Y-7599104D02*
X10651144Y-5070481D01*
X21695972Y-14495972D02*
X19050000Y-11850000D01*
X13556499Y-7600000D02*
X13555603Y-7599104D01*
%TD*%
%TA.AperFunction,Conductor*%
%TO.N,GND*%
G36*
X23923644Y-507584D02*
G01*
X23923980Y-507607D01*
X23927000Y-507607D01*
X23927004Y-507608D01*
X23990144Y-507607D01*
X23995630Y-507914D01*
X24098562Y-519512D01*
X24109257Y-521953D01*
X24204407Y-555247D01*
X24214292Y-560007D01*
X24293020Y-609475D01*
X24299654Y-613643D01*
X24308233Y-620485D01*
X24379514Y-691766D01*
X24386356Y-700345D01*
X24439992Y-785707D01*
X24444752Y-795593D01*
X24478045Y-890741D01*
X24480487Y-901438D01*
X24492084Y-1004368D01*
X24492392Y-1009854D01*
X24492392Y-1075963D01*
X24492416Y-1076334D01*
X24499499Y-21597237D01*
X24499191Y-21602741D01*
X24487593Y-21705666D01*
X24485151Y-21716362D01*
X24451858Y-21811512D01*
X24447097Y-21821399D01*
X24393461Y-21906759D01*
X24386620Y-21915337D01*
X24315337Y-21986620D01*
X24306759Y-21993461D01*
X24221399Y-22047097D01*
X24211512Y-22051858D01*
X24116362Y-22085151D01*
X24105666Y-22087593D01*
X24009877Y-22098386D01*
X24002732Y-22099192D01*
X23997247Y-22099500D01*
X14672047Y-22099500D01*
X14637399Y-22085148D01*
X14623047Y-22050500D01*
X14637399Y-22015852D01*
X14649427Y-22007807D01*
X14649112Y-22007218D01*
X14651225Y-22006087D01*
X14651231Y-22006085D01*
X14754006Y-21937413D01*
X14841409Y-21850010D01*
X15243306Y-21448111D01*
X15277953Y-21433760D01*
X15304356Y-21442547D01*
X15304592Y-21442116D01*
X15306983Y-21443421D01*
X15307315Y-21443532D01*
X15307664Y-21443793D01*
X15307665Y-21443794D01*
X15307667Y-21443794D01*
X15307669Y-21443796D01*
X15442517Y-21494091D01*
X15442520Y-21494092D01*
X15486177Y-21498785D01*
X15502127Y-21500500D01*
X17597872Y-21500499D01*
X17597878Y-21500499D01*
X17657478Y-21494092D01*
X17657479Y-21494091D01*
X17657483Y-21494091D01*
X17792331Y-21443796D01*
X17907546Y-21357546D01*
X17993796Y-21242331D01*
X18044091Y-21107483D01*
X18044091Y-21107481D01*
X18044092Y-21107479D01*
X18050500Y-21047879D01*
X18050500Y-20434000D01*
X18064852Y-20399352D01*
X18099500Y-20385000D01*
X18135516Y-20385000D01*
X18170164Y-20399352D01*
X18180088Y-20413644D01*
X18215233Y-20490601D01*
X18215234Y-20490602D01*
X18293010Y-20611625D01*
X18293013Y-20611629D01*
X18293014Y-20611630D01*
X18387168Y-20720291D01*
X18387171Y-20720294D01*
X18495909Y-20814515D01*
X18616861Y-20892246D01*
X18616860Y-20892246D01*
X18684445Y-20923110D01*
X18747741Y-20952017D01*
X18885696Y-20992524D01*
X19028111Y-21013000D01*
X19028115Y-21013000D01*
X19650008Y-21013000D01*
X19707552Y-21008884D01*
X19721940Y-21007855D01*
X19755176Y-20998095D01*
X19786106Y-20999199D01*
X19792517Y-21001591D01*
X19792520Y-21001592D01*
X19836177Y-21006285D01*
X19852127Y-21008000D01*
X20947872Y-21007999D01*
X20947878Y-21007999D01*
X21007478Y-21001592D01*
X21007479Y-21001591D01*
X21007483Y-21001591D01*
X21142331Y-20951296D01*
X21257546Y-20865046D01*
X21343796Y-20749831D01*
X21394091Y-20614983D01*
X21394091Y-20614981D01*
X21394092Y-20614979D01*
X21400499Y-20555379D01*
X21400500Y-20555373D01*
X21400499Y-18959628D01*
X21400499Y-18959620D01*
X21394092Y-18900021D01*
X21394091Y-18900017D01*
X21343796Y-18765169D01*
X21338360Y-18757908D01*
X21320960Y-18734664D01*
X21257546Y-18649954D01*
X21188314Y-18598127D01*
X21142333Y-18563705D01*
X21142331Y-18563704D01*
X21084223Y-18542031D01*
X21007479Y-18513407D01*
X20947879Y-18507000D01*
X20947873Y-18507000D01*
X20798739Y-18507000D01*
X20764091Y-18492648D01*
X20726559Y-18455116D01*
X20712207Y-18420468D01*
X20726559Y-18385820D01*
X20735408Y-18378809D01*
X20811041Y-18331981D01*
X20862361Y-18285196D01*
X20897633Y-18272460D01*
X20928382Y-18285197D01*
X20979257Y-18331576D01*
X21152590Y-18438900D01*
X21342674Y-18512538D01*
X21543072Y-18550000D01*
X21746928Y-18550000D01*
X21947325Y-18512538D01*
X22137409Y-18438900D01*
X22310736Y-18331580D01*
X22361616Y-18285196D01*
X22396890Y-18272459D01*
X22427636Y-18285194D01*
X22478959Y-18331981D01*
X22499295Y-18344572D01*
X22521198Y-18375014D01*
X22522500Y-18386233D01*
X22522500Y-18527914D01*
X22514989Y-18553984D01*
X22469545Y-18626305D01*
X22413688Y-18785937D01*
X22413686Y-18785946D01*
X22394751Y-18954000D01*
X22411612Y-19103650D01*
X22413687Y-19122059D01*
X22469544Y-19281690D01*
X22559523Y-19424890D01*
X22679110Y-19544477D01*
X22822310Y-19634456D01*
X22981941Y-19690313D01*
X23150000Y-19709249D01*
X23318059Y-19690313D01*
X23477690Y-19634456D01*
X23620890Y-19544477D01*
X23740477Y-19424890D01*
X23830456Y-19281690D01*
X23886313Y-19122059D01*
X23905249Y-18954000D01*
X23886313Y-18785941D01*
X23830456Y-18626310D01*
X23830455Y-18626309D01*
X23830454Y-18626305D01*
X23785011Y-18553984D01*
X23777500Y-18527914D01*
X23777500Y-18380041D01*
X23791852Y-18345393D01*
X23800706Y-18338380D01*
X23801426Y-18337933D01*
X23811041Y-18331981D01*
X23961764Y-18194579D01*
X24084673Y-18031821D01*
X24175582Y-17849250D01*
X24231397Y-17653083D01*
X24250215Y-17450000D01*
X24231397Y-17246917D01*
X24175582Y-17050750D01*
X24164158Y-17027808D01*
X24086637Y-16872123D01*
X24081500Y-16850282D01*
X24081500Y-13116145D01*
X24081499Y-13116141D01*
X24080458Y-13110910D01*
X24074725Y-13082085D01*
X24074725Y-13082082D01*
X24057388Y-12994925D01*
X24057386Y-12994914D01*
X24055889Y-12991299D01*
X24019907Y-12904431D01*
X24010085Y-12880720D01*
X24010083Y-12880715D01*
X23941411Y-12777940D01*
X23854008Y-12690537D01*
X22087051Y-10923580D01*
X22072699Y-10888932D01*
X22072699Y-10302362D01*
X22087051Y-10267714D01*
X22121699Y-10253362D01*
X22156347Y-10267714D01*
X22179110Y-10290477D01*
X22322310Y-10380456D01*
X22481941Y-10436313D01*
X22650000Y-10455249D01*
X22787554Y-10439749D01*
X22807262Y-10441550D01*
X22953868Y-10486024D01*
X23150000Y-10505341D01*
X23346132Y-10486024D01*
X23534727Y-10428814D01*
X23708538Y-10335910D01*
X23860883Y-10210883D01*
X23985910Y-10058538D01*
X24078814Y-9884727D01*
X24136024Y-9696132D01*
X24155341Y-9500000D01*
X24136024Y-9303868D01*
X24078814Y-9115273D01*
X23985910Y-8941462D01*
X23985907Y-8941458D01*
X23985905Y-8941455D01*
X23932537Y-8876427D01*
X23860883Y-8789117D01*
X23776290Y-8719693D01*
X23708544Y-8664094D01*
X23708541Y-8664092D01*
X23708539Y-8664091D01*
X23708538Y-8664090D01*
X23549842Y-8579265D01*
X23534726Y-8571185D01*
X23346132Y-8513976D01*
X23150000Y-8494659D01*
X22953867Y-8513976D01*
X22953866Y-8513976D01*
X22765273Y-8571185D01*
X22591458Y-8664092D01*
X22591455Y-8664094D01*
X22439117Y-8789117D01*
X22314091Y-8941458D01*
X22253221Y-9055337D01*
X22236077Y-9073727D01*
X22179112Y-9109521D01*
X22179108Y-9109524D01*
X22107038Y-9181594D01*
X22072390Y-9195946D01*
X22037742Y-9181594D01*
X22030901Y-9173016D01*
X21940478Y-9029112D01*
X21940477Y-9029110D01*
X21820890Y-8909523D01*
X21677690Y-8819544D01*
X21518059Y-8763687D01*
X21518057Y-8763686D01*
X21518047Y-8763684D01*
X21515983Y-8763452D01*
X21486828Y-8749409D01*
X21300009Y-8562590D01*
X21300005Y-8562587D01*
X21284252Y-8552061D01*
X21197233Y-8493917D01*
X21157599Y-8477500D01*
X21083038Y-8446615D01*
X21083032Y-8446613D01*
X21034142Y-8436888D01*
X20961803Y-8422500D01*
X20961800Y-8422500D01*
X20930215Y-8422500D01*
X20895567Y-8408148D01*
X20091852Y-7604433D01*
X20077500Y-7569785D01*
X20077500Y-4949499D01*
X20091852Y-4914851D01*
X20126500Y-4900499D01*
X20497878Y-4900499D01*
X20557478Y-4894092D01*
X20557479Y-4894091D01*
X20557483Y-4894091D01*
X20692331Y-4843796D01*
X20807546Y-4757546D01*
X20893796Y-4642331D01*
X20929089Y-4547703D01*
X20954644Y-4520256D01*
X20992124Y-4518917D01*
X21019572Y-4544472D01*
X21020905Y-4547690D01*
X21038612Y-4595164D01*
X21056205Y-4642333D01*
X21071369Y-4662589D01*
X21142454Y-4757546D01*
X21207290Y-4806082D01*
X21245821Y-4834927D01*
X21257669Y-4843796D01*
X21352292Y-4879088D01*
X21352295Y-4879089D01*
X21379743Y-4904645D01*
X21381082Y-4942124D01*
X21355526Y-4969572D01*
X21352295Y-4970911D01*
X21257666Y-5006205D01*
X21142454Y-5092454D01*
X21056205Y-5207666D01*
X21005907Y-5342520D01*
X20999500Y-5402120D01*
X20999500Y-7021266D01*
X20996750Y-7037449D01*
X20963689Y-7131934D01*
X20963686Y-7131946D01*
X20944751Y-7300000D01*
X20963686Y-7468053D01*
X20963688Y-7468062D01*
X21019543Y-7627687D01*
X21019546Y-7627694D01*
X21047756Y-7672591D01*
X21052175Y-7681532D01*
X21056203Y-7692331D01*
X21079636Y-7723632D01*
X21081896Y-7726923D01*
X21099487Y-7754919D01*
X21109521Y-7770887D01*
X21109524Y-7770891D01*
X21128882Y-7790249D01*
X21133460Y-7795531D01*
X21142454Y-7807546D01*
X21154466Y-7816538D01*
X21159749Y-7821116D01*
X21229110Y-7890477D01*
X21372310Y-7980456D01*
X21531941Y-8036313D01*
X21700000Y-8055249D01*
X21868059Y-8036313D01*
X22027690Y-7980456D01*
X22063411Y-7958010D01*
X22089481Y-7950499D01*
X23547878Y-7950499D01*
X23607478Y-7944092D01*
X23607479Y-7944091D01*
X23607483Y-7944091D01*
X23742331Y-7893796D01*
X23857546Y-7807546D01*
X23943796Y-7692331D01*
X23994091Y-7557483D01*
X23994091Y-7557481D01*
X23994092Y-7557479D01*
X23999064Y-7511225D01*
X24000500Y-7497873D01*
X24000499Y-5402128D01*
X24000499Y-5402127D01*
X24000499Y-5402120D01*
X23994092Y-5342521D01*
X23990062Y-5331716D01*
X23943796Y-5207669D01*
X23935299Y-5196319D01*
X23923313Y-5180307D01*
X23857546Y-5092454D01*
X23799938Y-5049329D01*
X23742332Y-5006204D01*
X23742328Y-5006202D01*
X23647704Y-4970909D01*
X23620256Y-4945354D01*
X23618918Y-4907875D01*
X23644473Y-4880427D01*
X23647676Y-4879099D01*
X23742331Y-4843796D01*
X23857546Y-4757546D01*
X23943796Y-4642331D01*
X23994091Y-4507483D01*
X23994091Y-4507481D01*
X23994092Y-4507479D01*
X24000499Y-4447879D01*
X24000500Y-4447873D01*
X24000499Y-2352128D01*
X24000499Y-2352127D01*
X24000499Y-2352120D01*
X23994092Y-2292521D01*
X23994091Y-2292517D01*
X23943796Y-2157669D01*
X23857546Y-2042454D01*
X23788314Y-1990627D01*
X23742333Y-1956205D01*
X23742331Y-1956204D01*
X23697381Y-1939439D01*
X23607479Y-1905907D01*
X23547879Y-1899500D01*
X21452120Y-1899500D01*
X21392521Y-1905907D01*
X21257666Y-1956205D01*
X21142454Y-2042454D01*
X21056204Y-2157667D01*
X21056202Y-2157671D01*
X21020909Y-2252295D01*
X20995354Y-2279743D01*
X20957875Y-2281081D01*
X20930427Y-2255526D01*
X20929096Y-2252313D01*
X20893796Y-2157669D01*
X20807546Y-2042454D01*
X20738314Y-1990627D01*
X20692333Y-1956205D01*
X20692331Y-1956204D01*
X20647381Y-1939439D01*
X20557479Y-1905907D01*
X20497879Y-1899500D01*
X18402120Y-1899500D01*
X18342521Y-1905907D01*
X18207666Y-1956205D01*
X18092454Y-2042454D01*
X18006204Y-2157667D01*
X18006202Y-2157671D01*
X17970909Y-2252295D01*
X17945354Y-2279743D01*
X17907875Y-2281081D01*
X17880427Y-2255526D01*
X17879096Y-2252313D01*
X17843796Y-2157669D01*
X17757546Y-2042454D01*
X17688314Y-1990627D01*
X17642333Y-1956205D01*
X17642331Y-1956204D01*
X17597381Y-1939439D01*
X17507479Y-1905907D01*
X17447879Y-1899500D01*
X15352120Y-1899500D01*
X15292521Y-1905907D01*
X15157666Y-1956205D01*
X15042454Y-2042454D01*
X14956205Y-2157666D01*
X14905907Y-2292520D01*
X14899500Y-2352120D01*
X14899500Y-4447879D01*
X14905908Y-4507479D01*
X14905908Y-4507481D01*
X14905909Y-4507483D01*
X14918710Y-4541806D01*
X14938611Y-4595164D01*
X14937272Y-4632643D01*
X14927348Y-4646935D01*
X13756771Y-5817513D01*
X13727619Y-5831556D01*
X13725551Y-5831789D01*
X13725538Y-5831792D01*
X13565911Y-5887648D01*
X13565909Y-5887649D01*
X13422713Y-5977625D01*
X13422711Y-5977627D01*
X13378525Y-6021812D01*
X13343877Y-6036163D01*
X13309230Y-6021811D01*
X11200012Y-3912592D01*
X11200008Y-3912589D01*
X11199581Y-3912304D01*
X11097233Y-3843917D01*
X11097230Y-3843915D01*
X11097229Y-3843915D01*
X11063784Y-3830062D01*
X10983038Y-3796615D01*
X10983036Y-3796614D01*
X10983035Y-3796614D01*
X10983032Y-3796613D01*
X10983023Y-3796611D01*
X10870904Y-3774309D01*
X10854393Y-3767740D01*
X10777690Y-3719544D01*
X10618059Y-3663687D01*
X10618055Y-3663686D01*
X10618053Y-3663686D01*
X10450000Y-3644751D01*
X10281946Y-3663686D01*
X10281937Y-3663688D01*
X10122310Y-3719544D01*
X10122308Y-3719545D01*
X9979112Y-3809521D01*
X9979108Y-3809524D01*
X9859524Y-3929108D01*
X9859521Y-3929112D01*
X9769545Y-4072308D01*
X9769544Y-4072310D01*
X9721287Y-4210218D01*
X9696297Y-4238182D01*
X9691221Y-4240284D01*
X9553730Y-4288394D01*
X9400997Y-4384364D01*
X9400993Y-4384367D01*
X9273442Y-4511918D01*
X9273439Y-4511922D01*
X9177469Y-4664655D01*
X9117890Y-4834923D01*
X9117888Y-4834932D01*
X9097692Y-5014182D01*
X9117888Y-5193431D01*
X9117890Y-5193440D01*
X9177469Y-5363708D01*
X9273439Y-5516441D01*
X9273442Y-5516445D01*
X9331086Y-5574089D01*
X9334372Y-5577720D01*
X9358286Y-5606967D01*
X9506633Y-5743125D01*
X9522455Y-5777126D01*
X9522500Y-5779224D01*
X9522500Y-8366785D01*
X9508148Y-8401433D01*
X9473500Y-8415785D01*
X9438852Y-8401433D01*
X8938683Y-7901264D01*
X8929988Y-7889471D01*
X8729307Y-7508895D01*
X8726401Y-7502227D01*
X8726398Y-7502220D01*
X8725789Y-7500478D01*
X8725787Y-7500475D01*
X8725787Y-7500474D01*
X8629817Y-7347740D01*
X8629816Y-7347738D01*
X8502262Y-7220184D01*
X8502259Y-7220182D01*
X8349526Y-7124212D01*
X8179258Y-7064633D01*
X8179257Y-7064632D01*
X8179255Y-7064632D01*
X8179251Y-7064631D01*
X8179249Y-7064631D01*
X8000000Y-7044435D01*
X7820750Y-7064631D01*
X7820741Y-7064633D01*
X7650473Y-7124212D01*
X7497740Y-7220182D01*
X7497736Y-7220185D01*
X7370185Y-7347736D01*
X7370182Y-7347740D01*
X7274212Y-7500473D01*
X7214633Y-7670741D01*
X7214631Y-7670750D01*
X7194435Y-7850000D01*
X7214631Y-8029249D01*
X7214633Y-8029258D01*
X7274212Y-8199526D01*
X7370182Y-8352259D01*
X7370185Y-8352263D01*
X7497739Y-8479817D01*
X7521360Y-8494659D01*
X7650478Y-8575789D01*
X7652222Y-8576399D01*
X7658891Y-8579305D01*
X8039471Y-8779988D01*
X8051264Y-8788683D01*
X8558148Y-9295567D01*
X8572500Y-9330215D01*
X8572500Y-12088591D01*
X8558148Y-12123239D01*
X8523500Y-12137591D01*
X8497431Y-12130081D01*
X8437693Y-12092545D01*
X8278062Y-12036688D01*
X8278061Y-12036687D01*
X8278059Y-12036687D01*
X8278055Y-12036686D01*
X8278053Y-12036686D01*
X8110000Y-12017751D01*
X7941946Y-12036686D01*
X7941942Y-12036686D01*
X7941941Y-12036687D01*
X7941938Y-12036687D01*
X7941938Y-12036688D01*
X7899969Y-12051372D01*
X7889118Y-12053830D01*
X7878641Y-12054976D01*
X7878629Y-12054978D01*
X7638251Y-12116789D01*
X7601120Y-12111518D01*
X7591400Y-12103981D01*
X6941852Y-11454433D01*
X6927500Y-11419785D01*
X6927500Y-10588200D01*
X6927500Y-10588197D01*
X6926561Y-10583479D01*
X6926562Y-10583477D01*
X6904167Y-10470891D01*
X6903386Y-10466966D01*
X6862012Y-10367081D01*
X6856083Y-10352767D01*
X6787411Y-10249992D01*
X6700008Y-10162589D01*
X6385614Y-9848195D01*
X6378081Y-9838482D01*
X6196316Y-9530878D01*
X6196315Y-9530877D01*
X6196290Y-9530834D01*
X6187122Y-9515918D01*
X6187116Y-9515910D01*
X6184391Y-9512748D01*
X6180026Y-9506838D01*
X6115477Y-9404110D01*
X5995890Y-9284523D01*
X5995887Y-9284521D01*
X5850430Y-9193123D01*
X5828728Y-9162537D01*
X5827500Y-9151634D01*
X5827500Y-5088197D01*
X5820001Y-5050500D01*
X5803385Y-4966965D01*
X5766986Y-4879089D01*
X5756084Y-4852769D01*
X5756082Y-4852765D01*
X5724890Y-4806082D01*
X5724890Y-4806083D01*
X5687413Y-4749994D01*
X5435614Y-4498195D01*
X5428081Y-4488482D01*
X5246316Y-4180878D01*
X5246315Y-4180877D01*
X5246290Y-4180834D01*
X5237122Y-4165918D01*
X5237116Y-4165910D01*
X5234391Y-4162748D01*
X5230026Y-4156838D01*
X5165477Y-4054110D01*
X5045890Y-3934523D01*
X5037278Y-3929112D01*
X5010507Y-3912290D01*
X4902690Y-3844544D01*
X4743059Y-3788687D01*
X4743055Y-3788686D01*
X4743053Y-3788686D01*
X4575000Y-3769751D01*
X4406946Y-3788686D01*
X4406937Y-3788688D01*
X4247310Y-3844544D01*
X4247308Y-3844545D01*
X4104112Y-3934521D01*
X4104108Y-3934524D01*
X3984524Y-4054108D01*
X3984521Y-4054112D01*
X3894545Y-4197308D01*
X3894544Y-4197310D01*
X3838688Y-4356937D01*
X3838686Y-4356946D01*
X3819751Y-4525000D01*
X3835486Y-4664655D01*
X3838687Y-4693059D01*
X3894544Y-4852690D01*
X3920558Y-4894091D01*
X3984521Y-4995887D01*
X3984524Y-4995891D01*
X4104111Y-5115478D01*
X4221689Y-5189357D01*
X4226295Y-5192636D01*
X4230878Y-5196316D01*
X4538476Y-5378078D01*
X4548195Y-5385614D01*
X4558148Y-5395567D01*
X4572500Y-5430215D01*
X4572500Y-9488197D01*
X4572500Y-9611803D01*
X4596614Y-9733035D01*
X4625590Y-9802987D01*
X4643917Y-9847233D01*
X4644560Y-9848195D01*
X4692048Y-9919266D01*
X4712588Y-9950007D01*
X4727700Y-9965119D01*
X4737238Y-9978586D01*
X4742569Y-9989707D01*
X4744604Y-10027155D01*
X4719564Y-10055074D01*
X4712607Y-10057778D01*
X4584463Y-10096650D01*
X4460476Y-10162922D01*
X4460475Y-10162923D01*
X5027697Y-10730144D01*
X5008496Y-10725000D01*
X4929504Y-10725000D01*
X4853204Y-10745444D01*
X4784795Y-10784940D01*
X4728940Y-10840795D01*
X4689444Y-10909204D01*
X4669000Y-10985504D01*
X4669000Y-11064496D01*
X4674144Y-11083697D01*
X4106923Y-10516475D01*
X4106922Y-10516476D01*
X4040654Y-10640456D01*
X4040649Y-10640468D01*
X3983470Y-10828961D01*
X3983468Y-10828969D01*
X3964161Y-11024999D01*
X3983468Y-11221030D01*
X3983470Y-11221038D01*
X4040649Y-11409531D01*
X4040654Y-11409543D01*
X4133506Y-11583258D01*
X4133511Y-11583265D01*
X4162445Y-11618520D01*
X4173332Y-11654408D01*
X4162446Y-11680691D01*
X4133091Y-11716460D01*
X4040185Y-11890273D01*
X3982976Y-12078866D01*
X3982976Y-12078867D01*
X3963659Y-12274999D01*
X3963659Y-12275000D01*
X3982976Y-12471132D01*
X3982976Y-12471133D01*
X4040185Y-12659726D01*
X4063205Y-12702793D01*
X4100201Y-12772008D01*
X4133092Y-12833541D01*
X4133094Y-12833544D01*
X4199310Y-12914227D01*
X4258117Y-12985883D01*
X4345427Y-13057537D01*
X4410455Y-13110905D01*
X4410458Y-13110907D01*
X4410462Y-13110910D01*
X4584273Y-13203814D01*
X4772868Y-13261024D01*
X4969000Y-13280341D01*
X5165132Y-13261024D01*
X5353727Y-13203814D01*
X5527538Y-13110910D01*
X5679883Y-12985883D01*
X5804910Y-12833538D01*
X5897814Y-12659727D01*
X5955024Y-12471132D01*
X5965373Y-12366047D01*
X5983051Y-12332975D01*
X6018940Y-12322088D01*
X6048785Y-12336204D01*
X6409616Y-12697035D01*
X6423968Y-12731683D01*
X6409616Y-12766331D01*
X6393720Y-12776953D01*
X6352769Y-12793916D01*
X6352767Y-12793917D01*
X6293470Y-12833538D01*
X6249992Y-12862588D01*
X3512588Y-15599992D01*
X3443644Y-15703175D01*
X3442995Y-15704990D01*
X3396616Y-15816957D01*
X3396613Y-15816967D01*
X3373225Y-15934553D01*
X3372500Y-15938198D01*
X3372500Y-16399996D01*
X3370309Y-16414483D01*
X3243078Y-16825575D01*
X3235068Y-16854472D01*
X3235067Y-16854474D01*
X3234566Y-16859576D01*
X3232052Y-16870957D01*
X3214632Y-16920745D01*
X3214631Y-16920748D01*
X3214631Y-16920750D01*
X3194435Y-17100000D01*
X3214631Y-17279249D01*
X3214633Y-17279258D01*
X3274212Y-17449526D01*
X3370182Y-17602259D01*
X3370185Y-17602263D01*
X3497739Y-17729817D01*
X3529980Y-17750075D01*
X3650478Y-17825789D01*
X3652222Y-17826399D01*
X3658891Y-17829305D01*
X3696725Y-17849255D01*
X3973355Y-17995124D01*
X3997309Y-18023980D01*
X3999500Y-18038467D01*
X3999500Y-19797879D01*
X4005907Y-19857478D01*
X4005909Y-19857483D01*
X4056204Y-19992331D01*
X4142454Y-20107546D01*
X4257669Y-20193796D01*
X4392517Y-20244091D01*
X4392520Y-20244092D01*
X4436177Y-20248785D01*
X4452127Y-20250500D01*
X6547872Y-20250499D01*
X6547878Y-20250499D01*
X6607478Y-20244092D01*
X6607479Y-20244091D01*
X6607483Y-20244091D01*
X6742331Y-20193796D01*
X6857546Y-20107546D01*
X6943796Y-19992331D01*
X6994091Y-19857483D01*
X6994091Y-19857481D01*
X6994092Y-19857479D01*
X7000499Y-19797879D01*
X7000500Y-19797873D01*
X7000499Y-17722218D01*
X7014851Y-17687571D01*
X7049499Y-17673219D01*
X7084147Y-17687571D01*
X8473587Y-19077011D01*
X8560990Y-19164414D01*
X8663765Y-19233086D01*
X8707576Y-19251233D01*
X8777964Y-19280389D01*
X8807867Y-19286337D01*
X8839049Y-19307171D01*
X8846366Y-19343954D01*
X8820000Y-19476512D01*
X8820000Y-19725000D01*
X9520000Y-19725000D01*
X9520000Y-20225000D01*
X8820000Y-20225000D01*
X8820000Y-20473487D01*
X8858429Y-20666689D01*
X8858429Y-20666690D01*
X8933809Y-20848674D01*
X9043246Y-21012460D01*
X9182539Y-21151753D01*
X9346325Y-21261190D01*
X9528310Y-21336570D01*
X9570000Y-21344862D01*
X9570000Y-20541988D01*
X9579940Y-20559205D01*
X9635795Y-20615060D01*
X9704204Y-20654556D01*
X9780504Y-20675000D01*
X9859496Y-20675000D01*
X9935796Y-20654556D01*
X10004205Y-20615060D01*
X10060060Y-20559205D01*
X10070000Y-20541988D01*
X10070000Y-21344862D01*
X10111689Y-21336570D01*
X10111690Y-21336570D01*
X10293674Y-21261190D01*
X10457460Y-21151753D01*
X10596753Y-21012460D01*
X10706190Y-20848674D01*
X10781570Y-20666690D01*
X10781570Y-20666689D01*
X10820000Y-20473487D01*
X10820000Y-20225000D01*
X10120000Y-20225000D01*
X10120000Y-19725000D01*
X10820000Y-19725000D01*
X10820000Y-19476512D01*
X10794524Y-19348434D01*
X10801841Y-19311652D01*
X10816508Y-19297389D01*
X10934516Y-19223240D01*
X11054103Y-19103653D01*
X11144082Y-18960453D01*
X11146982Y-18952165D01*
X11650000Y-18952165D01*
X11650000Y-19750000D01*
X12900000Y-19750000D01*
X12900000Y-18500000D01*
X12102166Y-18500000D01*
X12042627Y-18506401D01*
X12042626Y-18506401D01*
X11907908Y-18556648D01*
X11792811Y-18642811D01*
X11706648Y-18757908D01*
X11656401Y-18892626D01*
X11656401Y-18892627D01*
X11650000Y-18952165D01*
X11146982Y-18952165D01*
X11199939Y-18800822D01*
X11218875Y-18632763D01*
X11199939Y-18464704D01*
X11144082Y-18305073D01*
X11080100Y-18203247D01*
X11073817Y-18166274D01*
X11086939Y-18142531D01*
X11991411Y-17238061D01*
X11991505Y-17237921D01*
X11991545Y-17237862D01*
X12042520Y-17161571D01*
X12073702Y-17140736D01*
X12110485Y-17148052D01*
X12124005Y-17161573D01*
X12124159Y-17161803D01*
X12172380Y-17233972D01*
X12329625Y-17391217D01*
X12343668Y-17420372D01*
X12343900Y-17422436D01*
X12343902Y-17422446D01*
X12343903Y-17422448D01*
X12399760Y-17582079D01*
X12489739Y-17725279D01*
X12609326Y-17844866D01*
X12752526Y-17934845D01*
X12912157Y-17990702D01*
X13080216Y-18009638D01*
X13248275Y-17990702D01*
X13407906Y-17934845D01*
X13551106Y-17844866D01*
X13670693Y-17725279D01*
X13695678Y-17685514D01*
X13726263Y-17663814D01*
X13763236Y-17670095D01*
X13771815Y-17676937D01*
X14158148Y-18063270D01*
X14172500Y-18097918D01*
X14172500Y-18451000D01*
X14158148Y-18485648D01*
X14123500Y-18500000D01*
X13400000Y-18500000D01*
X13400000Y-20201000D01*
X13385648Y-20235648D01*
X13351000Y-20250000D01*
X11650000Y-20250000D01*
X11650000Y-21047834D01*
X11656401Y-21107372D01*
X11656401Y-21107373D01*
X11706648Y-21242091D01*
X11792811Y-21357188D01*
X11907908Y-21443351D01*
X12042626Y-21493598D01*
X12102166Y-21500000D01*
X12361056Y-21500000D01*
X12395704Y-21514352D01*
X12409747Y-21543512D01*
X12418147Y-21618061D01*
X12474004Y-21777692D01*
X12474005Y-21777693D01*
X12563981Y-21920889D01*
X12563984Y-21920893D01*
X12658943Y-22015852D01*
X12673295Y-22050500D01*
X12658943Y-22085148D01*
X12624295Y-22099500D01*
X1002753Y-22099500D01*
X997267Y-22099192D01*
X989061Y-22098267D01*
X894333Y-22087593D01*
X883637Y-22085151D01*
X792860Y-22053388D01*
X788484Y-22051856D01*
X778603Y-22047098D01*
X693240Y-21993461D01*
X684662Y-21986620D01*
X613379Y-21915337D01*
X606538Y-21906759D01*
X570880Y-21850010D01*
X552899Y-21821393D01*
X548144Y-21811519D01*
X514847Y-21716361D01*
X512406Y-21705665D01*
X500808Y-21602733D01*
X500500Y-21597247D01*
X500500Y-21215335D01*
X514852Y-21180687D01*
X549500Y-21166335D01*
X576723Y-21174593D01*
X706325Y-21261190D01*
X888310Y-21336570D01*
X930000Y-21344862D01*
X930000Y-20541988D01*
X939940Y-20559205D01*
X995795Y-20615060D01*
X1064204Y-20654556D01*
X1140504Y-20675000D01*
X1219496Y-20675000D01*
X1295796Y-20654556D01*
X1364205Y-20615060D01*
X1420060Y-20559205D01*
X1430000Y-20541988D01*
X1430000Y-21344862D01*
X1471689Y-21336570D01*
X1471690Y-21336570D01*
X1653674Y-21261190D01*
X1817460Y-21151753D01*
X1956753Y-21012460D01*
X2066190Y-20848674D01*
X2141570Y-20666690D01*
X2141570Y-20666689D01*
X2180000Y-20473487D01*
X2180000Y-20225000D01*
X1480000Y-20225000D01*
X1480000Y-19725000D01*
X2180000Y-19725000D01*
X2180000Y-19476512D01*
X2141570Y-19283310D01*
X2141570Y-19283309D01*
X2066190Y-19101325D01*
X1956753Y-18937539D01*
X1817460Y-18798246D01*
X1653674Y-18688809D01*
X1471691Y-18613429D01*
X1471682Y-18613426D01*
X1430000Y-18605135D01*
X1430000Y-19408011D01*
X1420060Y-19390795D01*
X1364205Y-19334940D01*
X1295796Y-19295444D01*
X1219496Y-19275000D01*
X1140504Y-19275000D01*
X1064204Y-19295444D01*
X995795Y-19334940D01*
X939940Y-19390795D01*
X930000Y-19408011D01*
X930000Y-18605135D01*
X929999Y-18605135D01*
X888317Y-18613426D01*
X888308Y-18613429D01*
X706325Y-18688809D01*
X576723Y-18775406D01*
X539940Y-18782722D01*
X508758Y-18761887D01*
X500500Y-18734664D01*
X500500Y-17185335D01*
X514852Y-17150687D01*
X549500Y-17136335D01*
X576723Y-17144593D01*
X706325Y-17231190D01*
X888310Y-17306570D01*
X930000Y-17314862D01*
X930000Y-16511988D01*
X939940Y-16529205D01*
X995795Y-16585060D01*
X1064204Y-16624556D01*
X1140504Y-16645000D01*
X1219496Y-16645000D01*
X1295796Y-16624556D01*
X1364205Y-16585060D01*
X1420060Y-16529205D01*
X1430000Y-16511988D01*
X1430000Y-17314862D01*
X1471689Y-17306570D01*
X1471690Y-17306570D01*
X1653674Y-17231190D01*
X1817460Y-17121753D01*
X1956753Y-16982460D01*
X2066190Y-16818674D01*
X2112405Y-16707101D01*
X2138923Y-16680582D01*
X2176426Y-16680582D01*
X2192323Y-16691204D01*
X2256633Y-16755513D01*
X2256635Y-16755515D01*
X2279190Y-16768537D01*
X2387862Y-16831280D01*
X2387864Y-16831280D01*
X2387865Y-16831281D01*
X2493465Y-16859576D01*
X2534230Y-16870499D01*
X2534231Y-16870500D01*
X2534234Y-16870500D01*
X2685769Y-16870500D01*
X2685769Y-16870499D01*
X2832135Y-16831281D01*
X2963365Y-16755515D01*
X3070515Y-16648365D01*
X3139312Y-16529205D01*
X3146280Y-16517137D01*
X3146280Y-16517136D01*
X3146281Y-16517135D01*
X3185499Y-16370769D01*
X3185500Y-16370769D01*
X3185500Y-16219231D01*
X3185499Y-16219230D01*
X3146281Y-16072866D01*
X3146280Y-16072862D01*
X3077033Y-15952925D01*
X3070515Y-15941635D01*
X2963365Y-15834485D01*
X2832137Y-15758719D01*
X2832133Y-15758718D01*
X2685769Y-15719500D01*
X2685766Y-15719500D01*
X2534234Y-15719500D01*
X2534231Y-15719500D01*
X2387866Y-15758718D01*
X2387862Y-15758719D01*
X2256634Y-15834485D01*
X2256634Y-15834486D01*
X2149486Y-15941634D01*
X2149485Y-15941634D01*
X2103952Y-16020500D01*
X2074199Y-16043330D01*
X2061517Y-16045000D01*
X1480000Y-16045000D01*
X1480000Y-15545000D01*
X2180000Y-15545000D01*
X2180000Y-15146512D01*
X2141570Y-14953310D01*
X2141570Y-14953309D01*
X2066190Y-14771325D01*
X1956753Y-14607539D01*
X1817460Y-14468246D01*
X1653674Y-14358809D01*
X1471691Y-14283429D01*
X1471682Y-14283426D01*
X1430000Y-14275135D01*
X1430000Y-15078011D01*
X1420060Y-15060795D01*
X1364205Y-15004940D01*
X1295796Y-14965444D01*
X1219496Y-14945000D01*
X1140504Y-14945000D01*
X1064204Y-14965444D01*
X995795Y-15004940D01*
X939940Y-15060795D01*
X930000Y-15078011D01*
X930000Y-14275135D01*
X929999Y-14275135D01*
X888317Y-14283426D01*
X888308Y-14283429D01*
X706325Y-14358809D01*
X576723Y-14445406D01*
X539940Y-14452722D01*
X508758Y-14431887D01*
X500500Y-14404664D01*
X500500Y-7677605D01*
X514852Y-7642957D01*
X549500Y-7628605D01*
X584148Y-7642957D01*
X594770Y-7658854D01*
X608637Y-7692333D01*
X631716Y-7748049D01*
X659131Y-7795533D01*
X749725Y-7952447D01*
X749735Y-7952462D01*
X893403Y-8139693D01*
X893413Y-8139705D01*
X1060294Y-8306586D01*
X1060306Y-8306596D01*
X1247537Y-8450264D01*
X1247546Y-8450270D01*
X1247550Y-8450273D01*
X1294709Y-8477500D01*
X1442088Y-8562590D01*
X1451951Y-8568284D01*
X1670007Y-8658606D01*
X1670010Y-8658606D01*
X1670013Y-8658608D01*
X1897974Y-8719690D01*
X1897975Y-8719690D01*
X1897986Y-8719693D01*
X2131989Y-8750500D01*
X2131993Y-8750500D01*
X2368007Y-8750500D01*
X2368011Y-8750500D01*
X2602014Y-8719693D01*
X2829993Y-8658606D01*
X3048049Y-8568284D01*
X3252450Y-8450273D01*
X3439699Y-8306592D01*
X3606592Y-8139699D01*
X3750273Y-7952450D01*
X3868284Y-7748049D01*
X3958606Y-7529993D01*
X4019693Y-7302014D01*
X4050500Y-7068011D01*
X4050500Y-6831989D01*
X4019693Y-6597986D01*
X4011686Y-6568104D01*
X3958608Y-6370013D01*
X3958604Y-6370003D01*
X3897462Y-6222394D01*
X3868284Y-6151951D01*
X3750273Y-5947550D01*
X3750270Y-5947546D01*
X3750264Y-5947537D01*
X3606596Y-5760306D01*
X3606586Y-5760294D01*
X3439705Y-5593413D01*
X3439693Y-5593403D01*
X3252462Y-5449735D01*
X3252447Y-5449725D01*
X3048050Y-5331716D01*
X2829996Y-5241395D01*
X2829986Y-5241391D01*
X2602025Y-5180309D01*
X2602018Y-5180308D01*
X2602014Y-5180307D01*
X2368011Y-5149500D01*
X2131989Y-5149500D01*
X1897986Y-5180307D01*
X1897982Y-5180307D01*
X1897974Y-5180309D01*
X1670013Y-5241391D01*
X1670003Y-5241395D01*
X1451949Y-5331716D01*
X1247552Y-5449725D01*
X1247537Y-5449735D01*
X1060306Y-5593403D01*
X1060294Y-5593413D01*
X893413Y-5760294D01*
X893403Y-5760306D01*
X749735Y-5947537D01*
X749725Y-5947552D01*
X631716Y-6151949D01*
X594770Y-6241146D01*
X568251Y-6267664D01*
X530748Y-6267664D01*
X504230Y-6241145D01*
X500500Y-6222394D01*
X500500Y-1806001D01*
X3124500Y-1806001D01*
X3124500Y-1943998D01*
X3151417Y-2079318D01*
X3151420Y-2079329D01*
X3204223Y-2206807D01*
X3204225Y-2206811D01*
X3234616Y-2252294D01*
X3280883Y-2321539D01*
X3378460Y-2419116D01*
X3424102Y-2449613D01*
X3493189Y-2495775D01*
X3620672Y-2548580D01*
X3620678Y-2548581D01*
X3620681Y-2548582D01*
X3756001Y-2575499D01*
X3756007Y-2575500D01*
X3893993Y-2575500D01*
X4029328Y-2548580D01*
X4156811Y-2495775D01*
X4271542Y-2419114D01*
X4369114Y-2321542D01*
X4445775Y-2206811D01*
X4498580Y-2079328D01*
X4525500Y-1943993D01*
X4525500Y-1806007D01*
X4525499Y-1806001D01*
X6124500Y-1806001D01*
X6124500Y-1943998D01*
X6151417Y-2079318D01*
X6151420Y-2079329D01*
X6204223Y-2206807D01*
X6204225Y-2206811D01*
X6234616Y-2252294D01*
X6280883Y-2321539D01*
X6378460Y-2419116D01*
X6424102Y-2449613D01*
X6493189Y-2495775D01*
X6620672Y-2548580D01*
X6620678Y-2548581D01*
X6620681Y-2548582D01*
X6756001Y-2575499D01*
X6756007Y-2575500D01*
X6893993Y-2575500D01*
X7029328Y-2548580D01*
X7156811Y-2495775D01*
X7271542Y-2419114D01*
X7369114Y-2321542D01*
X7445775Y-2206811D01*
X7498580Y-2079328D01*
X7525500Y-1943993D01*
X7525500Y-1806007D01*
X7498580Y-1670672D01*
X7445775Y-1543189D01*
X7399613Y-1474102D01*
X7369116Y-1428460D01*
X7271539Y-1330883D01*
X7203074Y-1285137D01*
X7156811Y-1254225D01*
X7156808Y-1254223D01*
X7156807Y-1254223D01*
X7029329Y-1201420D01*
X7029318Y-1201417D01*
X6893998Y-1174500D01*
X6893993Y-1174500D01*
X6756007Y-1174500D01*
X6756001Y-1174500D01*
X6620681Y-1201417D01*
X6620670Y-1201420D01*
X6493192Y-1254223D01*
X6378460Y-1330883D01*
X6280883Y-1428460D01*
X6204223Y-1543192D01*
X6151420Y-1670670D01*
X6151417Y-1670681D01*
X6124500Y-1806001D01*
X4525499Y-1806001D01*
X4498580Y-1670672D01*
X4445775Y-1543189D01*
X4399613Y-1474102D01*
X4369116Y-1428460D01*
X4271539Y-1330883D01*
X4203074Y-1285137D01*
X4156811Y-1254225D01*
X4156808Y-1254223D01*
X4156807Y-1254223D01*
X4029329Y-1201420D01*
X4029318Y-1201417D01*
X3893998Y-1174500D01*
X3893993Y-1174500D01*
X3756007Y-1174500D01*
X3756001Y-1174500D01*
X3620681Y-1201417D01*
X3620670Y-1201420D01*
X3493192Y-1254223D01*
X3378460Y-1330883D01*
X3280883Y-1428460D01*
X3204223Y-1543192D01*
X3151420Y-1670670D01*
X3151417Y-1670681D01*
X3124500Y-1806001D01*
X500500Y-1806001D01*
X500500Y-1002752D01*
X500808Y-997266D01*
X512406Y-894332D01*
X514848Y-883637D01*
X548145Y-788477D01*
X552897Y-778610D01*
X606541Y-693235D01*
X613375Y-684666D01*
X684666Y-613375D01*
X693235Y-606541D01*
X778610Y-552897D01*
X788477Y-548145D01*
X883640Y-514847D01*
X894330Y-512406D01*
X997270Y-500807D01*
X1002741Y-500500D01*
X23923644Y-507584D01*
G37*
%TD.AperFunction*%
%TA.AperFunction,Conductor*%
G36*
X10408148Y-13096915D02*
G01*
X10422500Y-13131563D01*
X10422500Y-14353214D01*
X10408148Y-14387862D01*
X10373500Y-14402214D01*
X10346278Y-14393956D01*
X10293679Y-14358811D01*
X10293675Y-14358809D01*
X10111691Y-14283429D01*
X10111682Y-14283426D01*
X10070000Y-14275135D01*
X10070000Y-15078011D01*
X10060060Y-15060795D01*
X10004205Y-15004940D01*
X9935796Y-14965444D01*
X9859496Y-14945000D01*
X9780504Y-14945000D01*
X9704204Y-14965444D01*
X9635795Y-15004940D01*
X9579940Y-15060795D01*
X9570000Y-15078011D01*
X9570000Y-14275135D01*
X9569999Y-14275135D01*
X9528317Y-14283426D01*
X9528308Y-14283429D01*
X9346325Y-14358809D01*
X9182539Y-14468246D01*
X9043246Y-14607539D01*
X8933809Y-14771325D01*
X8858429Y-14953309D01*
X8858429Y-14953310D01*
X8820000Y-15146512D01*
X8820000Y-15545000D01*
X9520000Y-15545000D01*
X9520000Y-16045000D01*
X8938483Y-16045000D01*
X8903835Y-16030648D01*
X8896048Y-16020500D01*
X8857033Y-15952925D01*
X8850515Y-15941635D01*
X8743365Y-15834485D01*
X8612137Y-15758719D01*
X8612133Y-15758718D01*
X8465769Y-15719500D01*
X8465766Y-15719500D01*
X8314234Y-15719500D01*
X8314231Y-15719500D01*
X8167866Y-15758718D01*
X8167862Y-15758719D01*
X8036634Y-15834485D01*
X8036634Y-15834486D01*
X7929487Y-15941632D01*
X7927758Y-15943886D01*
X7895278Y-15962634D01*
X7859053Y-15952925D01*
X7847397Y-15940123D01*
X7840478Y-15929112D01*
X7840477Y-15929110D01*
X7720890Y-15809523D01*
X7577690Y-15719544D01*
X7418059Y-15663687D01*
X7418055Y-15663686D01*
X7418053Y-15663686D01*
X7250000Y-15644751D01*
X7081946Y-15663686D01*
X7081937Y-15663688D01*
X6922310Y-15719544D01*
X6922308Y-15719545D01*
X6779112Y-15809521D01*
X6779108Y-15809524D01*
X6659524Y-15929108D01*
X6659521Y-15929112D01*
X6569545Y-16072308D01*
X6569544Y-16072310D01*
X6513688Y-16231937D01*
X6513686Y-16231946D01*
X6495211Y-16395919D01*
X6494751Y-16400000D01*
X6496383Y-16414483D01*
X6513686Y-16568053D01*
X6513687Y-16568061D01*
X6528373Y-16610033D01*
X6530831Y-16620887D01*
X6531976Y-16631354D01*
X6531978Y-16631369D01*
X6620956Y-16977390D01*
X6622500Y-16989593D01*
X6622500Y-17027808D01*
X6631519Y-17073149D01*
X6646613Y-17149037D01*
X6646616Y-17149047D01*
X6663289Y-17189298D01*
X6663289Y-17226801D01*
X6636770Y-17253319D01*
X6610618Y-17255422D01*
X6610531Y-17256236D01*
X6547879Y-17249500D01*
X6547873Y-17249500D01*
X5057215Y-17249500D01*
X5022567Y-17235148D01*
X4938683Y-17151264D01*
X4929988Y-17139471D01*
X4748314Y-16794940D01*
X4744848Y-16786572D01*
X4629691Y-16414485D01*
X4627500Y-16399998D01*
X4627500Y-16280215D01*
X4641852Y-16245567D01*
X6895567Y-13991852D01*
X6930215Y-13977500D01*
X8437802Y-13977500D01*
X8437805Y-13977500D01*
X8559037Y-13953386D01*
X8644322Y-13918059D01*
X8673235Y-13906083D01*
X8776010Y-13837411D01*
X8863413Y-13750008D01*
X9346733Y-13266686D01*
X9381380Y-13252335D01*
X9407449Y-13259845D01*
X9424049Y-13270275D01*
X9444218Y-13282948D01*
X9603849Y-13338805D01*
X9771908Y-13357741D01*
X9939967Y-13338805D01*
X10099598Y-13282948D01*
X10242798Y-13192969D01*
X10338852Y-13096915D01*
X10373500Y-13082563D01*
X10408148Y-13096915D01*
G37*
%TD.AperFunction*%
%TA.AperFunction,Conductor*%
G36*
X18809207Y-12496626D02*
G01*
X19887213Y-13574632D01*
X19901565Y-13609280D01*
X19887213Y-13643928D01*
X19878636Y-13650769D01*
X19847733Y-13670187D01*
X19720185Y-13797736D01*
X19697973Y-13833085D01*
X19667386Y-13854786D01*
X19630413Y-13848503D01*
X19611214Y-13825765D01*
X19604404Y-13809325D01*
X19576465Y-13741873D01*
X19505276Y-13635331D01*
X19414669Y-13544724D01*
X19308127Y-13473535D01*
X19200266Y-13428857D01*
X19189742Y-13424498D01*
X19189737Y-13424497D01*
X19064072Y-13399500D01*
X19064069Y-13399500D01*
X18935931Y-13399500D01*
X18935927Y-13399500D01*
X18810262Y-13424497D01*
X18810257Y-13424498D01*
X18691874Y-13473534D01*
X18585331Y-13544723D01*
X18494723Y-13635331D01*
X18423534Y-13741874D01*
X18374498Y-13860257D01*
X18374497Y-13860262D01*
X18349500Y-13985927D01*
X18349500Y-14114072D01*
X18374497Y-14239737D01*
X18374498Y-14239742D01*
X18374499Y-14239744D01*
X18423535Y-14358127D01*
X18494724Y-14464669D01*
X18585331Y-14555276D01*
X18691873Y-14626465D01*
X18810256Y-14675501D01*
X18935931Y-14700500D01*
X19064069Y-14700500D01*
X19189744Y-14675501D01*
X19308127Y-14626465D01*
X19414669Y-14555276D01*
X19490324Y-14479620D01*
X19524971Y-14465269D01*
X19559619Y-14479621D01*
X19571221Y-14498085D01*
X19624212Y-14649526D01*
X19714989Y-14793994D01*
X19722500Y-14820064D01*
X19722500Y-15464784D01*
X19708148Y-15499432D01*
X18858845Y-16348734D01*
X18824197Y-16363086D01*
X18815193Y-16362252D01*
X18746976Y-16349500D01*
X18543024Y-16349500D01*
X18342544Y-16386976D01*
X18342540Y-16386977D01*
X18342537Y-16386978D01*
X18152366Y-16460650D01*
X17978957Y-16568020D01*
X17928011Y-16614463D01*
X17892736Y-16627199D01*
X17861989Y-16614463D01*
X17811043Y-16568020D01*
X17795703Y-16558522D01*
X17773801Y-16528079D01*
X17772500Y-16516862D01*
X17772500Y-12740764D01*
X17773014Y-12733686D01*
X17775891Y-12713977D01*
X17795097Y-12681765D01*
X17831455Y-12672569D01*
X17846438Y-12678092D01*
X17846690Y-12677570D01*
X17849164Y-12678760D01*
X17849171Y-12678765D01*
X18008802Y-12734622D01*
X18176861Y-12753558D01*
X18344920Y-12734622D01*
X18504551Y-12678765D01*
X18647751Y-12588786D01*
X18739911Y-12496626D01*
X18774559Y-12482274D01*
X18809207Y-12496626D01*
G37*
%TD.AperFunction*%
%TA.AperFunction,Conductor*%
G36*
X5287904Y-10990351D02*
G01*
X5302256Y-11024999D01*
X5287904Y-11059647D01*
X5263855Y-11083695D01*
X5269000Y-11064496D01*
X5269000Y-10985504D01*
X5263854Y-10966302D01*
X5287904Y-10990351D01*
G37*
%TD.AperFunction*%
%TD*%
%TA.AperFunction,Conductor*%
%TO.N,BNO_SDA*%
G36*
X17261321Y-12249953D02*
G01*
X17269580Y-12253413D01*
X17272974Y-12261678D01*
X17272025Y-12701703D01*
X17268580Y-12709969D01*
X17260325Y-12713378D01*
X17024543Y-12713378D01*
X17016270Y-12709951D01*
X17014575Y-12707804D01*
X16799184Y-12357313D01*
X16797772Y-12348470D01*
X16803026Y-12341219D01*
X16804621Y-12340400D01*
X17020812Y-12249915D01*
X17025371Y-12249009D01*
X17261321Y-12249953D01*
G37*
%TD.AperFunction*%
%TD*%
%TA.AperFunction,Conductor*%
%TO.N,BNO_SDA*%
G36*
X15737717Y-9841786D02*
G01*
X15771635Y-9855982D01*
X15777944Y-9862338D01*
X15778449Y-9869689D01*
X15679259Y-10255432D01*
X15673880Y-10262591D01*
X15667928Y-10264218D01*
X15432072Y-10264218D01*
X15423799Y-10260791D01*
X15420741Y-10255432D01*
X15321550Y-9869689D01*
X15322808Y-9860823D01*
X15328363Y-9855982D01*
X15545484Y-9765107D01*
X15554437Y-9765075D01*
X15737717Y-9841786D01*
G37*
%TD.AperFunction*%
%TD*%
%TA.AperFunction,Conductor*%
%TO.N,Net-(D2-A)*%
G36*
X5755561Y-9783199D02*
G01*
X5761117Y-9788040D01*
X5963740Y-10130941D01*
X5964998Y-10139807D01*
X5961940Y-10145166D01*
X5795166Y-10311940D01*
X5786893Y-10315367D01*
X5780941Y-10313740D01*
X5438040Y-10111117D01*
X5432661Y-10103958D01*
X5433165Y-10096609D01*
X5522436Y-9878822D01*
X5528743Y-9872468D01*
X5746609Y-9783166D01*
X5755561Y-9783199D01*
G37*
%TD.AperFunction*%
%TD*%
%TA.AperFunction,Conductor*%
%TO.N,VBUS*%
G36*
X8276284Y-7739260D02*
G01*
X8282122Y-7744599D01*
X8510042Y-8176830D01*
X8510870Y-8185746D01*
X8507966Y-8190560D01*
X8340560Y-8357966D01*
X8332287Y-8361393D01*
X8326830Y-8360042D01*
X7894599Y-8132122D01*
X7888879Y-8125232D01*
X7889233Y-8117329D01*
X7997436Y-7853815D01*
X8003746Y-7847464D01*
X8267329Y-7739233D01*
X8276284Y-7739260D01*
G37*
%TD.AperFunction*%
%TD*%
%TA.AperFunction,Conductor*%
%TO.N,Net-(D2-A)*%
G36*
X5329318Y-9510679D02*
G01*
X5344077Y-9517434D01*
X5610429Y-9639342D01*
X5616526Y-9645901D01*
X5616376Y-9654442D01*
X5526861Y-9871486D01*
X5520539Y-9877828D01*
X5520482Y-9877851D01*
X5304244Y-9966484D01*
X5295290Y-9966451D01*
X5289258Y-9960716D01*
X5081034Y-9526376D01*
X5080547Y-9517434D01*
X5086526Y-9510768D01*
X5091584Y-9509618D01*
X5324449Y-9509618D01*
X5329318Y-9510679D01*
G37*
%TD.AperFunction*%
%TD*%
%TA.AperFunction,Conductor*%
%TO.N,+3.3V*%
G36*
X10276647Y-9903427D02*
G01*
X10279551Y-9908241D01*
X10424020Y-10375038D01*
X10423192Y-10383954D01*
X10417354Y-10389293D01*
X10154511Y-10499115D01*
X10145556Y-10499142D01*
X10145489Y-10499115D01*
X9882645Y-10389293D01*
X9876333Y-10382941D01*
X9875979Y-10375039D01*
X10020449Y-9908240D01*
X10026169Y-9901351D01*
X10031626Y-9900000D01*
X10268374Y-9900000D01*
X10276647Y-9903427D01*
G37*
%TD.AperFunction*%
%TD*%
%TA.AperFunction,Conductor*%
%TO.N,BNO_SDA*%
G36*
X16767058Y-11811259D02*
G01*
X17109959Y-12013882D01*
X17115338Y-12021041D01*
X17114833Y-12028392D01*
X17025564Y-12246175D01*
X17019255Y-12252531D01*
X17019175Y-12252564D01*
X16801392Y-12341833D01*
X16792438Y-12341800D01*
X16786882Y-12336959D01*
X16584259Y-11994058D01*
X16583001Y-11985192D01*
X16586057Y-11979835D01*
X16752834Y-11813058D01*
X16761106Y-11809632D01*
X16767058Y-11811259D01*
G37*
%TD.AperFunction*%
%TD*%
%TA.AperFunction,Conductor*%
%TO.N,BatSense*%
G36*
X9898109Y-12105919D02*
G01*
X9901167Y-12111278D01*
X10000357Y-12497020D01*
X9999099Y-12505886D01*
X9993543Y-12510727D01*
X9776425Y-12601601D01*
X9767471Y-12601634D01*
X9767391Y-12601601D01*
X9550272Y-12510727D01*
X9543963Y-12504371D01*
X9543458Y-12497020D01*
X9642649Y-12111278D01*
X9648028Y-12104119D01*
X9653980Y-12102492D01*
X9889836Y-12102492D01*
X9898109Y-12105919D01*
G37*
%TD.AperFunction*%
%TD*%
%TA.AperFunction,Conductor*%
%TO.N,VBUS*%
G36*
X4126647Y-16503427D02*
G01*
X4129551Y-16508241D01*
X4274020Y-16975038D01*
X4273192Y-16983954D01*
X4267354Y-16989293D01*
X4004511Y-17099115D01*
X3995556Y-17099142D01*
X3995489Y-17099115D01*
X3732645Y-16989293D01*
X3726333Y-16982941D01*
X3725979Y-16975039D01*
X3870449Y-16508240D01*
X3876169Y-16501351D01*
X3881626Y-16500000D01*
X4118374Y-16500000D01*
X4126647Y-16503427D01*
G37*
%TD.AperFunction*%
%TD*%
%TA.AperFunction,Conductor*%
%TO.N,Net-(D2-A)*%
G36*
X4805561Y-4433199D02*
G01*
X4811117Y-4438040D01*
X5013740Y-4780941D01*
X5014998Y-4789807D01*
X5011940Y-4795166D01*
X4845166Y-4961940D01*
X4836893Y-4965367D01*
X4830941Y-4963740D01*
X4488040Y-4761117D01*
X4482661Y-4753958D01*
X4483165Y-4746609D01*
X4572436Y-4528822D01*
X4578743Y-4522468D01*
X4796609Y-4433166D01*
X4805561Y-4433199D01*
G37*
%TD.AperFunction*%
%TD*%
%TA.AperFunction,Conductor*%
%TO.N,D+ P*%
G36*
X10240085Y-17275479D02*
G01*
X10248273Y-17278906D01*
X10414648Y-17445281D01*
X10418075Y-17453554D01*
X10414648Y-17461827D01*
X10413108Y-17463123D01*
X10084791Y-17694140D01*
X10076053Y-17696098D01*
X10069819Y-17692877D01*
X9902765Y-17527154D01*
X9899306Y-17518898D01*
X9899966Y-17284752D01*
X9903416Y-17276492D01*
X9911698Y-17273088D01*
X10240085Y-17275479D01*
G37*
%TD.AperFunction*%
%TD*%
%TA.AperFunction,Conductor*%
%TO.N,D+ P*%
G36*
X17749593Y-9576201D02*
G01*
X18116467Y-9865104D01*
X18120847Y-9872915D01*
X18118421Y-9881534D01*
X18117535Y-9882536D01*
X17952379Y-10049021D01*
X17948510Y-10051607D01*
X17729979Y-10141182D01*
X17721025Y-10141149D01*
X17714716Y-10134793D01*
X17714666Y-10134670D01*
X17614647Y-9882536D01*
X17564660Y-9756524D01*
X17564795Y-9747572D01*
X17567260Y-9743942D01*
X17734083Y-9577119D01*
X17742355Y-9573693D01*
X17749593Y-9576201D01*
G37*
%TD.AperFunction*%
%TD*%
%TA.AperFunction,Conductor*%
%TO.N,D- N*%
G36*
X9691215Y-17970744D02*
G01*
X9698373Y-17976122D01*
X9700000Y-17982074D01*
X9700000Y-18217931D01*
X9696573Y-18226204D01*
X9691214Y-18229262D01*
X9305471Y-18328452D01*
X9296605Y-18327194D01*
X9291764Y-18321638D01*
X9277568Y-18287720D01*
X9200889Y-18104518D01*
X9200857Y-18095566D01*
X9291764Y-17878366D01*
X9298120Y-17872058D01*
X9305471Y-17871553D01*
X9691215Y-17970744D01*
G37*
%TD.AperFunction*%
%TD*%
%TA.AperFunction,Conductor*%
%TO.N,+3.3V*%
G36*
X10190649Y-5014139D02*
G01*
X10198909Y-5017593D01*
X10202308Y-5025878D01*
X10202189Y-5027504D01*
X10196011Y-5070480D01*
X10214446Y-5198705D01*
X10235771Y-5245400D01*
X10236711Y-5248607D01*
X10275094Y-5517566D01*
X10272870Y-5526240D01*
X10265164Y-5530802D01*
X10263511Y-5530919D01*
X10027555Y-5530919D01*
X10019644Y-5527839D01*
X10008451Y-5517566D01*
X9700101Y-5234552D01*
X9696323Y-5226433D01*
X9699392Y-5218021D01*
X9699685Y-5217713D01*
X9899812Y-5016643D01*
X9908074Y-5013198D01*
X10190649Y-5014139D01*
G37*
%TD.AperFunction*%
%TD*%
%TA.AperFunction,Conductor*%
%TO.N,VBUS*%
G36*
X4276284Y-16989260D02*
G01*
X4282122Y-16994599D01*
X4510042Y-17426830D01*
X4510870Y-17435746D01*
X4507966Y-17440560D01*
X4340560Y-17607966D01*
X4332287Y-17611393D01*
X4326830Y-17610042D01*
X3894599Y-17382122D01*
X3888879Y-17375232D01*
X3889233Y-17367329D01*
X3997436Y-17103815D01*
X4003746Y-17097464D01*
X4267329Y-16989233D01*
X4276284Y-16989260D01*
G37*
%TD.AperFunction*%
%TD*%
%TA.AperFunction,Conductor*%
%TO.N,D- N*%
G36*
X17029240Y-9500343D02*
G01*
X17029455Y-9500558D01*
X17029786Y-9500903D01*
X17319196Y-9814996D01*
X17322282Y-9823402D01*
X17318898Y-9831164D01*
X17154153Y-9997233D01*
X17145894Y-10000693D01*
X17145814Y-10000693D01*
X16909779Y-10000027D01*
X16901516Y-9996577D01*
X16898292Y-9990370D01*
X16842780Y-9677323D01*
X16844709Y-9668580D01*
X16846021Y-9667015D01*
X17012694Y-9500343D01*
X17020967Y-9496916D01*
X17029240Y-9500343D01*
G37*
%TD.AperFunction*%
%TD*%
%TA.AperFunction,Conductor*%
%TO.N,Net-(D2-A)*%
G36*
X8013394Y-12545808D02*
G01*
X8018235Y-12551364D01*
X8109109Y-12768483D01*
X8109142Y-12777437D01*
X8109109Y-12777517D01*
X8018235Y-12994635D01*
X8011879Y-13000944D01*
X8004528Y-13001449D01*
X7618786Y-12902259D01*
X7611627Y-12896880D01*
X7610000Y-12890928D01*
X7610000Y-12655071D01*
X7613427Y-12646798D01*
X7618783Y-12643741D01*
X8004528Y-12544550D01*
X8013394Y-12545808D01*
G37*
%TD.AperFunction*%
%TD*%
%TA.AperFunction,Conductor*%
%TO.N,BatSense*%
G36*
X11539719Y-8325106D02*
G01*
X11573637Y-8339302D01*
X11579946Y-8345658D01*
X11580451Y-8353009D01*
X11481261Y-8738752D01*
X11475882Y-8745911D01*
X11469930Y-8747538D01*
X11234074Y-8747538D01*
X11225801Y-8744111D01*
X11222743Y-8738752D01*
X11123552Y-8353009D01*
X11124810Y-8344143D01*
X11130365Y-8339302D01*
X11347486Y-8248427D01*
X11356439Y-8248395D01*
X11539719Y-8325106D01*
G37*
%TD.AperFunction*%
%TD*%
%TA.AperFunction,Conductor*%
%TO.N,Net-(J1-CC2)*%
G36*
X7437717Y-16477568D02*
G01*
X7471635Y-16491764D01*
X7477944Y-16498120D01*
X7478449Y-16505471D01*
X7379259Y-16891214D01*
X7373880Y-16898373D01*
X7367928Y-16900000D01*
X7132072Y-16900000D01*
X7123799Y-16896573D01*
X7120741Y-16891214D01*
X7021550Y-16505471D01*
X7022808Y-16496605D01*
X7028363Y-16491764D01*
X7245484Y-16400889D01*
X7254437Y-16400857D01*
X7437717Y-16477568D01*
G37*
%TD.AperFunction*%
%TD*%
M02*
