G04 #@! TF.GenerationSoftware,KiCad,Pcbnew,8.0.2*
G04 #@! TF.CreationDate,2024-08-14T03:58:17-07:00*
G04 #@! TF.ProjectId,uSlime_BNO085,75536c69-6d65-45f4-924e-4f3038352e6b,rev?*
G04 #@! TF.SameCoordinates,Original*
G04 #@! TF.FileFunction,Legend,Top*
G04 #@! TF.FilePolarity,Positive*
%FSLAX46Y46*%
G04 Gerber Fmt 4.6, Leading zero omitted, Abs format (unit mm)*
G04 Created by KiCad (PCBNEW 8.0.2) date 2024-08-14 03:58:17*
%MOMM*%
%LPD*%
G01*
G04 APERTURE LIST*
G04 Aperture macros list*
%AMRoundRect*
0 Rectangle with rounded corners*
0 $1 Rounding radius*
0 $2 $3 $4 $5 $6 $7 $8 $9 X,Y pos of 4 corners*
0 Add a 4 corners polygon primitive as box body*
4,1,4,$2,$3,$4,$5,$6,$7,$8,$9,$2,$3,0*
0 Add four circle primitives for the rounded corners*
1,1,$1+$1,$2,$3*
1,1,$1+$1,$4,$5*
1,1,$1+$1,$6,$7*
1,1,$1+$1,$8,$9*
0 Add four rect primitives between the rounded corners*
20,1,$1+$1,$2,$3,$4,$5,0*
20,1,$1+$1,$4,$5,$6,$7,0*
20,1,$1+$1,$6,$7,$8,$9,0*
20,1,$1+$1,$8,$9,$2,$3,0*%
%AMFreePoly0*
4,1,19,0.550000,-0.750000,0.000000,-0.750000,0.000000,-0.744911,-0.071157,-0.744911,-0.207708,-0.704816,-0.327430,-0.627875,-0.420627,-0.520320,-0.479746,-0.390866,-0.500000,-0.250000,-0.500000,0.250000,-0.479746,0.390866,-0.420627,0.520320,-0.327430,0.627875,-0.207708,0.704816,-0.071157,0.744911,0.000000,0.744911,0.000000,0.750000,0.550000,0.750000,0.550000,-0.750000,0.550000,-0.750000,
$1*%
%AMFreePoly1*
4,1,19,0.000000,0.744911,0.071157,0.744911,0.207708,0.704816,0.327430,0.627875,0.420627,0.520320,0.479746,0.390866,0.500000,0.250000,0.500000,-0.250000,0.479746,-0.390866,0.420627,-0.520320,0.327430,-0.627875,0.207708,-0.704816,0.071157,-0.744911,0.000000,-0.744911,0.000000,-0.750000,-0.550000,-0.750000,-0.550000,0.750000,0.000000,0.750000,0.000000,0.744911,0.000000,0.744911,
$1*%
G04 Aperture macros list end*
%ADD10C,0.150000*%
%ADD11C,0.152400*%
%ADD12C,0.120000*%
%ADD13C,0.254000*%
%ADD14C,0.101600*%
%ADD15RoundRect,0.140000X0.170000X-0.140000X0.170000X0.140000X-0.170000X0.140000X-0.170000X-0.140000X0*%
%ADD16RoundRect,0.140000X-0.140000X-0.170000X0.140000X-0.170000X0.140000X0.170000X-0.140000X0.170000X0*%
%ADD17RoundRect,0.135000X-0.135000X-0.185000X0.135000X-0.185000X0.135000X0.185000X-0.135000X0.185000X0*%
%ADD18C,3.100000*%
%ADD19RoundRect,0.140000X0.140000X0.170000X-0.140000X0.170000X-0.140000X-0.170000X0.140000X-0.170000X0*%
%ADD20FreePoly0,90.000000*%
%ADD21R,1.500000X1.000000*%
%ADD22FreePoly1,90.000000*%
%ADD23RoundRect,0.135000X-0.185000X0.135000X-0.185000X-0.135000X0.185000X-0.135000X0.185000X0.135000X0*%
%ADD24RoundRect,0.135000X0.185000X-0.135000X0.185000X0.135000X-0.185000X0.135000X-0.185000X-0.135000X0*%
%ADD25C,1.200000*%
%ADD26R,0.250000X0.914400*%
%ADD27R,0.812800X0.250000*%
%ADD28RoundRect,0.135000X0.135000X0.185000X-0.135000X0.185000X-0.135000X-0.185000X0.135000X-0.185000X0*%
G04 APERTURE END LIST*
D10*
X104049366Y-95716666D02*
X104082700Y-95749999D01*
X104082700Y-95749999D02*
X104116033Y-95849999D01*
X104116033Y-95849999D02*
X104116033Y-95916666D01*
X104116033Y-95916666D02*
X104082700Y-96016666D01*
X104082700Y-96016666D02*
X104016033Y-96083333D01*
X104016033Y-96083333D02*
X103949366Y-96116666D01*
X103949366Y-96116666D02*
X103816033Y-96149999D01*
X103816033Y-96149999D02*
X103716033Y-96149999D01*
X103716033Y-96149999D02*
X103582700Y-96116666D01*
X103582700Y-96116666D02*
X103516033Y-96083333D01*
X103516033Y-96083333D02*
X103449366Y-96016666D01*
X103449366Y-96016666D02*
X103416033Y-95916666D01*
X103416033Y-95916666D02*
X103416033Y-95849999D01*
X103416033Y-95849999D02*
X103449366Y-95749999D01*
X103449366Y-95749999D02*
X103482700Y-95716666D01*
X103416033Y-95483333D02*
X103416033Y-95049999D01*
X103416033Y-95049999D02*
X103682700Y-95283333D01*
X103682700Y-95283333D02*
X103682700Y-95183333D01*
X103682700Y-95183333D02*
X103716033Y-95116666D01*
X103716033Y-95116666D02*
X103749366Y-95083333D01*
X103749366Y-95083333D02*
X103816033Y-95049999D01*
X103816033Y-95049999D02*
X103982700Y-95049999D01*
X103982700Y-95049999D02*
X104049366Y-95083333D01*
X104049366Y-95083333D02*
X104082700Y-95116666D01*
X104082700Y-95116666D02*
X104116033Y-95183333D01*
X104116033Y-95183333D02*
X104116033Y-95383333D01*
X104116033Y-95383333D02*
X104082700Y-95449999D01*
X104082700Y-95449999D02*
X104049366Y-95483333D01*
X103033333Y-91049366D02*
X103000000Y-91082700D01*
X103000000Y-91082700D02*
X102900000Y-91116033D01*
X102900000Y-91116033D02*
X102833333Y-91116033D01*
X102833333Y-91116033D02*
X102733333Y-91082700D01*
X102733333Y-91082700D02*
X102666667Y-91016033D01*
X102666667Y-91016033D02*
X102633333Y-90949366D01*
X102633333Y-90949366D02*
X102600000Y-90816033D01*
X102600000Y-90816033D02*
X102600000Y-90716033D01*
X102600000Y-90716033D02*
X102633333Y-90582700D01*
X102633333Y-90582700D02*
X102666667Y-90516033D01*
X102666667Y-90516033D02*
X102733333Y-90449366D01*
X102733333Y-90449366D02*
X102833333Y-90416033D01*
X102833333Y-90416033D02*
X102900000Y-90416033D01*
X102900000Y-90416033D02*
X103000000Y-90449366D01*
X103000000Y-90449366D02*
X103033333Y-90482700D01*
X103300000Y-90482700D02*
X103333333Y-90449366D01*
X103333333Y-90449366D02*
X103400000Y-90416033D01*
X103400000Y-90416033D02*
X103566667Y-90416033D01*
X103566667Y-90416033D02*
X103633333Y-90449366D01*
X103633333Y-90449366D02*
X103666667Y-90482700D01*
X103666667Y-90482700D02*
X103700000Y-90549366D01*
X103700000Y-90549366D02*
X103700000Y-90616033D01*
X103700000Y-90616033D02*
X103666667Y-90716033D01*
X103666667Y-90716033D02*
X103266667Y-91116033D01*
X103266667Y-91116033D02*
X103700000Y-91116033D01*
X111333333Y-101492893D02*
X111100000Y-101159560D01*
X110933333Y-101492893D02*
X110933333Y-100792893D01*
X110933333Y-100792893D02*
X111200000Y-100792893D01*
X111200000Y-100792893D02*
X111266667Y-100826226D01*
X111266667Y-100826226D02*
X111300000Y-100859560D01*
X111300000Y-100859560D02*
X111333333Y-100926226D01*
X111333333Y-100926226D02*
X111333333Y-101026226D01*
X111333333Y-101026226D02*
X111300000Y-101092893D01*
X111300000Y-101092893D02*
X111266667Y-101126226D01*
X111266667Y-101126226D02*
X111200000Y-101159560D01*
X111200000Y-101159560D02*
X110933333Y-101159560D01*
X111600000Y-100859560D02*
X111633333Y-100826226D01*
X111633333Y-100826226D02*
X111700000Y-100792893D01*
X111700000Y-100792893D02*
X111866667Y-100792893D01*
X111866667Y-100792893D02*
X111933333Y-100826226D01*
X111933333Y-100826226D02*
X111966667Y-100859560D01*
X111966667Y-100859560D02*
X112000000Y-100926226D01*
X112000000Y-100926226D02*
X112000000Y-100992893D01*
X112000000Y-100992893D02*
X111966667Y-101092893D01*
X111966667Y-101092893D02*
X111566667Y-101492893D01*
X111566667Y-101492893D02*
X112000000Y-101492893D01*
X106063333Y-101426226D02*
X106030000Y-101459560D01*
X106030000Y-101459560D02*
X105930000Y-101492893D01*
X105930000Y-101492893D02*
X105863333Y-101492893D01*
X105863333Y-101492893D02*
X105763333Y-101459560D01*
X105763333Y-101459560D02*
X105696667Y-101392893D01*
X105696667Y-101392893D02*
X105663333Y-101326226D01*
X105663333Y-101326226D02*
X105630000Y-101192893D01*
X105630000Y-101192893D02*
X105630000Y-101092893D01*
X105630000Y-101092893D02*
X105663333Y-100959560D01*
X105663333Y-100959560D02*
X105696667Y-100892893D01*
X105696667Y-100892893D02*
X105763333Y-100826226D01*
X105763333Y-100826226D02*
X105863333Y-100792893D01*
X105863333Y-100792893D02*
X105930000Y-100792893D01*
X105930000Y-100792893D02*
X106030000Y-100826226D01*
X106030000Y-100826226D02*
X106063333Y-100859560D01*
X106663333Y-101026226D02*
X106663333Y-101492893D01*
X106496667Y-100759560D02*
X106330000Y-101259560D01*
X106330000Y-101259560D02*
X106763333Y-101259560D01*
X115966033Y-97366666D02*
X115632700Y-97599999D01*
X115966033Y-97766666D02*
X115266033Y-97766666D01*
X115266033Y-97766666D02*
X115266033Y-97499999D01*
X115266033Y-97499999D02*
X115299366Y-97433333D01*
X115299366Y-97433333D02*
X115332700Y-97399999D01*
X115332700Y-97399999D02*
X115399366Y-97366666D01*
X115399366Y-97366666D02*
X115499366Y-97366666D01*
X115499366Y-97366666D02*
X115566033Y-97399999D01*
X115566033Y-97399999D02*
X115599366Y-97433333D01*
X115599366Y-97433333D02*
X115632700Y-97499999D01*
X115632700Y-97499999D02*
X115632700Y-97766666D01*
X115266033Y-96733333D02*
X115266033Y-97066666D01*
X115266033Y-97066666D02*
X115599366Y-97099999D01*
X115599366Y-97099999D02*
X115566033Y-97066666D01*
X115566033Y-97066666D02*
X115532700Y-96999999D01*
X115532700Y-96999999D02*
X115532700Y-96833333D01*
X115532700Y-96833333D02*
X115566033Y-96766666D01*
X115566033Y-96766666D02*
X115599366Y-96733333D01*
X115599366Y-96733333D02*
X115666033Y-96699999D01*
X115666033Y-96699999D02*
X115832700Y-96699999D01*
X115832700Y-96699999D02*
X115899366Y-96733333D01*
X115899366Y-96733333D02*
X115932700Y-96766666D01*
X115932700Y-96766666D02*
X115966033Y-96833333D01*
X115966033Y-96833333D02*
X115966033Y-96999999D01*
X115966033Y-96999999D02*
X115932700Y-97066666D01*
X115932700Y-97066666D02*
X115899366Y-97099999D01*
X114966033Y-97366666D02*
X114632700Y-97599999D01*
X114966033Y-97766666D02*
X114266033Y-97766666D01*
X114266033Y-97766666D02*
X114266033Y-97499999D01*
X114266033Y-97499999D02*
X114299366Y-97433333D01*
X114299366Y-97433333D02*
X114332700Y-97399999D01*
X114332700Y-97399999D02*
X114399366Y-97366666D01*
X114399366Y-97366666D02*
X114499366Y-97366666D01*
X114499366Y-97366666D02*
X114566033Y-97399999D01*
X114566033Y-97399999D02*
X114599366Y-97433333D01*
X114599366Y-97433333D02*
X114632700Y-97499999D01*
X114632700Y-97499999D02*
X114632700Y-97766666D01*
X114266033Y-97133333D02*
X114266033Y-96699999D01*
X114266033Y-96699999D02*
X114532700Y-96933333D01*
X114532700Y-96933333D02*
X114532700Y-96833333D01*
X114532700Y-96833333D02*
X114566033Y-96766666D01*
X114566033Y-96766666D02*
X114599366Y-96733333D01*
X114599366Y-96733333D02*
X114666033Y-96699999D01*
X114666033Y-96699999D02*
X114832700Y-96699999D01*
X114832700Y-96699999D02*
X114899366Y-96733333D01*
X114899366Y-96733333D02*
X114932700Y-96766666D01*
X114932700Y-96766666D02*
X114966033Y-96833333D01*
X114966033Y-96833333D02*
X114966033Y-97033333D01*
X114966033Y-97033333D02*
X114932700Y-97099999D01*
X114932700Y-97099999D02*
X114899366Y-97133333D01*
X108309523Y-92359580D02*
X108261904Y-92407200D01*
X108261904Y-92407200D02*
X108119047Y-92454819D01*
X108119047Y-92454819D02*
X108023809Y-92454819D01*
X108023809Y-92454819D02*
X107880952Y-92407200D01*
X107880952Y-92407200D02*
X107785714Y-92311961D01*
X107785714Y-92311961D02*
X107738095Y-92216723D01*
X107738095Y-92216723D02*
X107690476Y-92026247D01*
X107690476Y-92026247D02*
X107690476Y-91883390D01*
X107690476Y-91883390D02*
X107738095Y-91692914D01*
X107738095Y-91692914D02*
X107785714Y-91597676D01*
X107785714Y-91597676D02*
X107880952Y-91502438D01*
X107880952Y-91502438D02*
X108023809Y-91454819D01*
X108023809Y-91454819D02*
X108119047Y-91454819D01*
X108119047Y-91454819D02*
X108261904Y-91502438D01*
X108261904Y-91502438D02*
X108309523Y-91550057D01*
X108738095Y-92454819D02*
X108738095Y-91454819D01*
X108738095Y-91454819D02*
X109309523Y-92454819D01*
X109309523Y-92454819D02*
X109309523Y-91454819D01*
X110309523Y-92454819D02*
X109738095Y-92454819D01*
X110023809Y-92454819D02*
X110023809Y-91454819D01*
X110023809Y-91454819D02*
X109928571Y-91597676D01*
X109928571Y-91597676D02*
X109833333Y-91692914D01*
X109833333Y-91692914D02*
X109738095Y-91740533D01*
X103083333Y-91949366D02*
X103050000Y-91982700D01*
X103050000Y-91982700D02*
X102950000Y-92016033D01*
X102950000Y-92016033D02*
X102883333Y-92016033D01*
X102883333Y-92016033D02*
X102783333Y-91982700D01*
X102783333Y-91982700D02*
X102716667Y-91916033D01*
X102716667Y-91916033D02*
X102683333Y-91849366D01*
X102683333Y-91849366D02*
X102650000Y-91716033D01*
X102650000Y-91716033D02*
X102650000Y-91616033D01*
X102650000Y-91616033D02*
X102683333Y-91482700D01*
X102683333Y-91482700D02*
X102716667Y-91416033D01*
X102716667Y-91416033D02*
X102783333Y-91349366D01*
X102783333Y-91349366D02*
X102883333Y-91316033D01*
X102883333Y-91316033D02*
X102950000Y-91316033D01*
X102950000Y-91316033D02*
X103050000Y-91349366D01*
X103050000Y-91349366D02*
X103083333Y-91382700D01*
X103750000Y-92016033D02*
X103350000Y-92016033D01*
X103550000Y-92016033D02*
X103550000Y-91316033D01*
X103550000Y-91316033D02*
X103483333Y-91416033D01*
X103483333Y-91416033D02*
X103416667Y-91482700D01*
X103416667Y-91482700D02*
X103350000Y-91516033D01*
D11*
X108498295Y-97937727D02*
X108498295Y-98471510D01*
X108498295Y-98471510D02*
X108529694Y-98534308D01*
X108529694Y-98534308D02*
X108561093Y-98565708D01*
X108561093Y-98565708D02*
X108623891Y-98597107D01*
X108623891Y-98597107D02*
X108749487Y-98597107D01*
X108749487Y-98597107D02*
X108812285Y-98565708D01*
X108812285Y-98565708D02*
X108843684Y-98534308D01*
X108843684Y-98534308D02*
X108875083Y-98471510D01*
X108875083Y-98471510D02*
X108875083Y-97937727D01*
X109534463Y-98597107D02*
X109157675Y-98597107D01*
X109346069Y-98597107D02*
X109346069Y-97937727D01*
X109346069Y-97937727D02*
X109283271Y-98031924D01*
X109283271Y-98031924D02*
X109220473Y-98094722D01*
X109220473Y-98094722D02*
X109157675Y-98126121D01*
D10*
X112883333Y-97966033D02*
X112650000Y-97632700D01*
X112483333Y-97966033D02*
X112483333Y-97266033D01*
X112483333Y-97266033D02*
X112750000Y-97266033D01*
X112750000Y-97266033D02*
X112816667Y-97299366D01*
X112816667Y-97299366D02*
X112850000Y-97332700D01*
X112850000Y-97332700D02*
X112883333Y-97399366D01*
X112883333Y-97399366D02*
X112883333Y-97499366D01*
X112883333Y-97499366D02*
X112850000Y-97566033D01*
X112850000Y-97566033D02*
X112816667Y-97599366D01*
X112816667Y-97599366D02*
X112750000Y-97632700D01*
X112750000Y-97632700D02*
X112483333Y-97632700D01*
X113483333Y-97499366D02*
X113483333Y-97966033D01*
X113316667Y-97232700D02*
X113150000Y-97732700D01*
X113150000Y-97732700D02*
X113583333Y-97732700D01*
X104116033Y-97116666D02*
X103782700Y-97349999D01*
X104116033Y-97516666D02*
X103416033Y-97516666D01*
X103416033Y-97516666D02*
X103416033Y-97249999D01*
X103416033Y-97249999D02*
X103449366Y-97183333D01*
X103449366Y-97183333D02*
X103482700Y-97149999D01*
X103482700Y-97149999D02*
X103549366Y-97116666D01*
X103549366Y-97116666D02*
X103649366Y-97116666D01*
X103649366Y-97116666D02*
X103716033Y-97149999D01*
X103716033Y-97149999D02*
X103749366Y-97183333D01*
X103749366Y-97183333D02*
X103782700Y-97249999D01*
X103782700Y-97249999D02*
X103782700Y-97516666D01*
X104116033Y-96449999D02*
X104116033Y-96849999D01*
X104116033Y-96649999D02*
X103416033Y-96649999D01*
X103416033Y-96649999D02*
X103516033Y-96716666D01*
X103516033Y-96716666D02*
X103582700Y-96783333D01*
X103582700Y-96783333D02*
X103616033Y-96849999D01*
D12*
X105140000Y-97057836D02*
X105140000Y-96842164D01*
X105860000Y-97057836D02*
X105860000Y-96842164D01*
X103092164Y-92240000D02*
X103307836Y-92240000D01*
X103092164Y-92960000D02*
X103307836Y-92960000D01*
X109696359Y-100770000D02*
X110003641Y-100770000D01*
X109696359Y-101530000D02*
X110003641Y-101530000D01*
X108007836Y-100790000D02*
X107792164Y-100790000D01*
X108007836Y-101510000D02*
X107792164Y-101510000D01*
X114307500Y-93600000D02*
X114307500Y-90800000D01*
X115007500Y-90150000D02*
X115607500Y-90150000D01*
X115607500Y-94250000D02*
X115007500Y-94250000D01*
X116307500Y-90800000D02*
X116307500Y-93600000D01*
X116507500Y-93400000D02*
X116807500Y-93100000D01*
X116507500Y-93400000D02*
X116807500Y-93700000D01*
X116807500Y-93700000D02*
X116807500Y-93100000D01*
X114307500Y-90850000D02*
G75*
G02*
X115007500Y-90150000I700000J0D01*
G01*
X115007500Y-94250000D02*
G75*
G02*
X114307500Y-93550000I-1J699999D01*
G01*
X115607500Y-90150000D02*
G75*
G02*
X116307500Y-90850000I0J-700000D01*
G01*
X116307500Y-93550000D02*
G75*
G02*
X115607500Y-94250000I-699999J-1D01*
G01*
X115220000Y-95446359D02*
X115220000Y-95753641D01*
X115980000Y-95446359D02*
X115980000Y-95753641D01*
X114170000Y-95753641D02*
X114170000Y-95446359D01*
X114930000Y-95753641D02*
X114930000Y-95446359D01*
D13*
X104495000Y-95800000D02*
X105045000Y-95800000D01*
X104505000Y-95800000D02*
X104505000Y-89500000D01*
X105045000Y-95800000D02*
X105045000Y-95041000D01*
X105365000Y-95040000D02*
X104496000Y-95040000D01*
X106875000Y-95041000D02*
X106635000Y-95041000D01*
X108375000Y-95041000D02*
X108135000Y-95041000D01*
X109875000Y-95041000D02*
X109635000Y-95041000D01*
X111375000Y-95041000D02*
X111135000Y-95041000D01*
X112955000Y-95800000D02*
X112955000Y-95041000D01*
X113505000Y-89500000D02*
X104505000Y-89500000D01*
X113505000Y-89500000D02*
X113505000Y-95800000D01*
X113505000Y-95041000D02*
X112635000Y-95041000D01*
X113505000Y-95800000D02*
X112955000Y-95800000D01*
D12*
X112005000Y-93500000D02*
X111505000Y-92500000D01*
X112505000Y-92500000D01*
X112005000Y-93500000D01*
G36*
X112005000Y-93500000D02*
G01*
X111505000Y-92500000D01*
X112505000Y-92500000D01*
X112005000Y-93500000D01*
G37*
X103092164Y-93190000D02*
X103307836Y-93190000D01*
X103092164Y-93910000D02*
X103307836Y-93910000D01*
D14*
X106000680Y-96050000D02*
X106000680Y-97550000D01*
X106000680Y-99050000D02*
X106000680Y-100550000D01*
X106250690Y-96299990D02*
X106250690Y-100299980D01*
X107500680Y-96050000D02*
X106000680Y-96050000D01*
X107500680Y-100550000D02*
X106000680Y-100550000D01*
X111750680Y-96299990D02*
X106250690Y-96299990D01*
X111750680Y-96299990D02*
X111750680Y-100299980D01*
X111750680Y-100299980D02*
X106250690Y-100299980D01*
X112000670Y-96050000D02*
X110500670Y-96050000D01*
X112000670Y-96050000D02*
X112000670Y-97550000D01*
X112000670Y-99050000D02*
X112000670Y-100550000D01*
X112000670Y-100550000D02*
X110500670Y-100550000D01*
D13*
X105754200Y-96316930D02*
G75*
G02*
X105504260Y-96316930I-124970J0D01*
G01*
X105504260Y-96316930D02*
G75*
G02*
X105754200Y-96316930I124970J0D01*
G01*
D12*
X113203641Y-96170000D02*
X112896359Y-96170000D01*
X113203641Y-96930000D02*
X112896359Y-96930000D01*
X105120000Y-98646359D02*
X105120000Y-98953641D01*
X105880000Y-98646359D02*
X105880000Y-98953641D01*
%LPC*%
D15*
X105500000Y-97430000D03*
X105500000Y-96470000D03*
D16*
X102720000Y-92600000D03*
X103680000Y-92600000D03*
D17*
X109340000Y-101150000D03*
X110360000Y-101150000D03*
D18*
X115100000Y-99900000D03*
D19*
X108380000Y-101150000D03*
X107420000Y-101150000D03*
D20*
X115307500Y-93500000D03*
D21*
X115307500Y-92200000D03*
D22*
X115307500Y-90900000D03*
D23*
X115600000Y-95090000D03*
X115600000Y-96110000D03*
D24*
X114550000Y-96110000D03*
X114550000Y-95090000D03*
D25*
X112005000Y-94500000D03*
X110505000Y-94500000D03*
X109005000Y-94500000D03*
X107505000Y-94500000D03*
X106005000Y-94500000D03*
D16*
X102720000Y-93550000D03*
X103680000Y-93550000D03*
D26*
X106753280Y-96622660D03*
D27*
X106562280Y-97549990D03*
X106562280Y-98053060D03*
X106562280Y-98553060D03*
X106562280Y-99053050D03*
D26*
X106753280Y-99975460D03*
X107253280Y-99975460D03*
X107753280Y-99975460D03*
X108253280Y-99975460D03*
X108753280Y-99975460D03*
X109253280Y-99975460D03*
X109753280Y-99975460D03*
X110253280Y-99975460D03*
X110753280Y-99975460D03*
X111261280Y-99975460D03*
D27*
X111388280Y-99053060D03*
X111388280Y-98553060D03*
X111388280Y-98053060D03*
X111388280Y-97549990D03*
D26*
X111261280Y-96622660D03*
X110753280Y-96622660D03*
X110253280Y-96622660D03*
X109753280Y-96622660D03*
X109253280Y-96622660D03*
X108753280Y-96622660D03*
X108253280Y-96622660D03*
X107753280Y-96622660D03*
X107253280Y-96622660D03*
D28*
X113560000Y-96550000D03*
X112540000Y-96550000D03*
D23*
X105500000Y-98290000D03*
X105500000Y-99310000D03*
D18*
X102900000Y-99900000D03*
%LPD*%
M02*
