%TF.GenerationSoftware,KiCad,Pcbnew,8.0.5-8.0.5-0~ubuntu22.04.1*%
%TF.CreationDate,2024-10-21T19:33:50-07:00*%
%TF.ProjectId,uSlime_BNO085,75536c69-6d65-45f4-924e-4f3038352e6b,rev?*%
%TF.SameCoordinates,Original*%
%TF.FileFunction,Drillmap*%
%TF.FilePolarity,Positive*%
%FSLAX45Y45*%
G04 Gerber Fmt 4.5, Leading zero omitted, Abs format (unit mm)*
G04 Created by KiCad (PCBNEW 8.0.5-8.0.5-0~ubuntu22.04.1) date 2024-10-21 19:33:50*
%MOMM*%
%LPD*%
G01*
G04 APERTURE LIST*
%ADD10C,0.050000*%
%ADD11C,0.200000*%
%ADD12C,0.310000*%
G04 APERTURE END LIST*
D10*
X11634999Y-8935711D02*
X10165000Y-8935000D01*
X10165000Y-10215000D02*
X11635000Y-10215000D01*
X11735000Y-10115000D02*
X11734999Y-9035711D01*
X10065000Y-9035000D02*
G75*
G02*
X10165000Y-8935000I100000J0D01*
G01*
X10065000Y-9035000D02*
X10065000Y-10115000D01*
X10165000Y-10215000D02*
G75*
G02*
X10065000Y-10115000I0J100000D01*
G01*
X11634999Y-8935711D02*
G75*
G02*
X11734999Y-9035711I1J-99999D01*
G01*
X11735000Y-10115000D02*
G75*
G02*
X11635000Y-10215000I-100000J0D01*
G01*
D11*
D12*
X10135000Y-9835000D02*
X10445000Y-10145000D01*
X10445000Y-9835000D02*
X10135000Y-10145000D01*
X11355000Y-9835000D02*
X11665000Y-10145000D01*
X11665000Y-9835000D02*
X11355000Y-10145000D01*
D11*
X10323277Y-10528984D02*
X10323277Y-10328984D01*
X10323277Y-10328984D02*
X10370896Y-10328984D01*
X10370896Y-10328984D02*
X10399467Y-10338508D01*
X10399467Y-10338508D02*
X10418515Y-10357555D01*
X10418515Y-10357555D02*
X10428039Y-10376603D01*
X10428039Y-10376603D02*
X10437563Y-10414698D01*
X10437563Y-10414698D02*
X10437563Y-10443270D01*
X10437563Y-10443270D02*
X10428039Y-10481365D01*
X10428039Y-10481365D02*
X10418515Y-10500412D01*
X10418515Y-10500412D02*
X10399467Y-10519460D01*
X10399467Y-10519460D02*
X10370896Y-10528984D01*
X10370896Y-10528984D02*
X10323277Y-10528984D01*
X10523277Y-10528984D02*
X10523277Y-10395650D01*
X10523277Y-10433746D02*
X10532801Y-10414698D01*
X10532801Y-10414698D02*
X10542324Y-10405174D01*
X10542324Y-10405174D02*
X10561372Y-10395650D01*
X10561372Y-10395650D02*
X10580420Y-10395650D01*
X10647086Y-10528984D02*
X10647086Y-10395650D01*
X10647086Y-10328984D02*
X10637563Y-10338508D01*
X10637563Y-10338508D02*
X10647086Y-10348031D01*
X10647086Y-10348031D02*
X10656610Y-10338508D01*
X10656610Y-10338508D02*
X10647086Y-10328984D01*
X10647086Y-10328984D02*
X10647086Y-10348031D01*
X10770896Y-10528984D02*
X10751848Y-10519460D01*
X10751848Y-10519460D02*
X10742324Y-10500412D01*
X10742324Y-10500412D02*
X10742324Y-10328984D01*
X10875658Y-10528984D02*
X10856610Y-10519460D01*
X10856610Y-10519460D02*
X10847086Y-10500412D01*
X10847086Y-10500412D02*
X10847086Y-10328984D01*
X11104229Y-10528984D02*
X11104229Y-10328984D01*
X11104229Y-10328984D02*
X11170896Y-10471841D01*
X11170896Y-10471841D02*
X11237562Y-10328984D01*
X11237562Y-10328984D02*
X11237562Y-10528984D01*
X11418515Y-10528984D02*
X11418515Y-10424222D01*
X11418515Y-10424222D02*
X11408991Y-10405174D01*
X11408991Y-10405174D02*
X11389943Y-10395650D01*
X11389943Y-10395650D02*
X11351848Y-10395650D01*
X11351848Y-10395650D02*
X11332801Y-10405174D01*
X11418515Y-10519460D02*
X11399467Y-10528984D01*
X11399467Y-10528984D02*
X11351848Y-10528984D01*
X11351848Y-10528984D02*
X11332801Y-10519460D01*
X11332801Y-10519460D02*
X11323277Y-10500412D01*
X11323277Y-10500412D02*
X11323277Y-10481365D01*
X11323277Y-10481365D02*
X11332801Y-10462317D01*
X11332801Y-10462317D02*
X11351848Y-10452793D01*
X11351848Y-10452793D02*
X11399467Y-10452793D01*
X11399467Y-10452793D02*
X11418515Y-10443270D01*
X11513753Y-10395650D02*
X11513753Y-10595650D01*
X11513753Y-10405174D02*
X11532801Y-10395650D01*
X11532801Y-10395650D02*
X11570896Y-10395650D01*
X11570896Y-10395650D02*
X11589943Y-10405174D01*
X11589943Y-10405174D02*
X11599467Y-10414698D01*
X11599467Y-10414698D02*
X11608991Y-10433746D01*
X11608991Y-10433746D02*
X11608991Y-10490889D01*
X11608991Y-10490889D02*
X11599467Y-10509936D01*
X11599467Y-10509936D02*
X11589943Y-10519460D01*
X11589943Y-10519460D02*
X11570896Y-10528984D01*
X11570896Y-10528984D02*
X11532801Y-10528984D01*
X11532801Y-10528984D02*
X11513753Y-10519460D01*
X11694705Y-10509936D02*
X11704229Y-10519460D01*
X11704229Y-10519460D02*
X11694705Y-10528984D01*
X11694705Y-10528984D02*
X11685182Y-10519460D01*
X11685182Y-10519460D02*
X11694705Y-10509936D01*
X11694705Y-10509936D02*
X11694705Y-10528984D01*
X11694705Y-10405174D02*
X11704229Y-10414698D01*
X11704229Y-10414698D02*
X11694705Y-10424222D01*
X11694705Y-10424222D02*
X11685182Y-10414698D01*
X11685182Y-10414698D02*
X11694705Y-10405174D01*
X11694705Y-10405174D02*
X11694705Y-10424222D01*
X9862500Y-10757500D02*
X10062500Y-10957500D01*
X10062500Y-10757500D02*
X9862500Y-10957500D01*
X10304229Y-10748984D02*
X10428039Y-10748984D01*
X10428039Y-10748984D02*
X10361372Y-10825174D01*
X10361372Y-10825174D02*
X10389944Y-10825174D01*
X10389944Y-10825174D02*
X10408991Y-10834698D01*
X10408991Y-10834698D02*
X10418515Y-10844222D01*
X10418515Y-10844222D02*
X10428039Y-10863270D01*
X10428039Y-10863270D02*
X10428039Y-10910889D01*
X10428039Y-10910889D02*
X10418515Y-10929936D01*
X10418515Y-10929936D02*
X10408991Y-10939460D01*
X10408991Y-10939460D02*
X10389944Y-10948984D01*
X10389944Y-10948984D02*
X10332801Y-10948984D01*
X10332801Y-10948984D02*
X10313753Y-10939460D01*
X10313753Y-10939460D02*
X10304229Y-10929936D01*
X10513753Y-10929936D02*
X10523277Y-10939460D01*
X10523277Y-10939460D02*
X10513753Y-10948984D01*
X10513753Y-10948984D02*
X10504229Y-10939460D01*
X10504229Y-10939460D02*
X10513753Y-10929936D01*
X10513753Y-10929936D02*
X10513753Y-10948984D01*
X10713753Y-10948984D02*
X10599467Y-10948984D01*
X10656610Y-10948984D02*
X10656610Y-10748984D01*
X10656610Y-10748984D02*
X10637563Y-10777555D01*
X10637563Y-10777555D02*
X10618515Y-10796603D01*
X10618515Y-10796603D02*
X10599467Y-10806127D01*
X10837563Y-10748984D02*
X10856610Y-10748984D01*
X10856610Y-10748984D02*
X10875658Y-10758508D01*
X10875658Y-10758508D02*
X10885182Y-10768031D01*
X10885182Y-10768031D02*
X10894705Y-10787079D01*
X10894705Y-10787079D02*
X10904229Y-10825174D01*
X10904229Y-10825174D02*
X10904229Y-10872793D01*
X10904229Y-10872793D02*
X10894705Y-10910889D01*
X10894705Y-10910889D02*
X10885182Y-10929936D01*
X10885182Y-10929936D02*
X10875658Y-10939460D01*
X10875658Y-10939460D02*
X10856610Y-10948984D01*
X10856610Y-10948984D02*
X10837563Y-10948984D01*
X10837563Y-10948984D02*
X10818515Y-10939460D01*
X10818515Y-10939460D02*
X10808991Y-10929936D01*
X10808991Y-10929936D02*
X10799467Y-10910889D01*
X10799467Y-10910889D02*
X10789944Y-10872793D01*
X10789944Y-10872793D02*
X10789944Y-10825174D01*
X10789944Y-10825174D02*
X10799467Y-10787079D01*
X10799467Y-10787079D02*
X10808991Y-10768031D01*
X10808991Y-10768031D02*
X10818515Y-10758508D01*
X10818515Y-10758508D02*
X10837563Y-10748984D01*
X11028039Y-10748984D02*
X11047086Y-10748984D01*
X11047086Y-10748984D02*
X11066134Y-10758508D01*
X11066134Y-10758508D02*
X11075658Y-10768031D01*
X11075658Y-10768031D02*
X11085182Y-10787079D01*
X11085182Y-10787079D02*
X11094705Y-10825174D01*
X11094705Y-10825174D02*
X11094705Y-10872793D01*
X11094705Y-10872793D02*
X11085182Y-10910889D01*
X11085182Y-10910889D02*
X11075658Y-10929936D01*
X11075658Y-10929936D02*
X11066134Y-10939460D01*
X11066134Y-10939460D02*
X11047086Y-10948984D01*
X11047086Y-10948984D02*
X11028039Y-10948984D01*
X11028039Y-10948984D02*
X11008991Y-10939460D01*
X11008991Y-10939460D02*
X10999467Y-10929936D01*
X10999467Y-10929936D02*
X10989944Y-10910889D01*
X10989944Y-10910889D02*
X10980420Y-10872793D01*
X10980420Y-10872793D02*
X10980420Y-10825174D01*
X10980420Y-10825174D02*
X10989944Y-10787079D01*
X10989944Y-10787079D02*
X10999467Y-10768031D01*
X10999467Y-10768031D02*
X11008991Y-10758508D01*
X11008991Y-10758508D02*
X11028039Y-10748984D01*
X11180420Y-10948984D02*
X11180420Y-10815650D01*
X11180420Y-10834698D02*
X11189943Y-10825174D01*
X11189943Y-10825174D02*
X11208991Y-10815650D01*
X11208991Y-10815650D02*
X11237563Y-10815650D01*
X11237563Y-10815650D02*
X11256610Y-10825174D01*
X11256610Y-10825174D02*
X11266134Y-10844222D01*
X11266134Y-10844222D02*
X11266134Y-10948984D01*
X11266134Y-10844222D02*
X11275658Y-10825174D01*
X11275658Y-10825174D02*
X11294705Y-10815650D01*
X11294705Y-10815650D02*
X11323277Y-10815650D01*
X11323277Y-10815650D02*
X11342324Y-10825174D01*
X11342324Y-10825174D02*
X11351848Y-10844222D01*
X11351848Y-10844222D02*
X11351848Y-10948984D01*
X11447086Y-10948984D02*
X11447086Y-10815650D01*
X11447086Y-10834698D02*
X11456610Y-10825174D01*
X11456610Y-10825174D02*
X11475658Y-10815650D01*
X11475658Y-10815650D02*
X11504229Y-10815650D01*
X11504229Y-10815650D02*
X11523277Y-10825174D01*
X11523277Y-10825174D02*
X11532801Y-10844222D01*
X11532801Y-10844222D02*
X11532801Y-10948984D01*
X11532801Y-10844222D02*
X11542324Y-10825174D01*
X11542324Y-10825174D02*
X11561372Y-10815650D01*
X11561372Y-10815650D02*
X11589943Y-10815650D01*
X11589943Y-10815650D02*
X11608991Y-10825174D01*
X11608991Y-10825174D02*
X11618515Y-10844222D01*
X11618515Y-10844222D02*
X11618515Y-10948984D01*
X12008991Y-10739460D02*
X11837563Y-10996603D01*
X12266134Y-10748984D02*
X12285182Y-10748984D01*
X12285182Y-10748984D02*
X12304229Y-10758508D01*
X12304229Y-10758508D02*
X12313753Y-10768031D01*
X12313753Y-10768031D02*
X12323277Y-10787079D01*
X12323277Y-10787079D02*
X12332801Y-10825174D01*
X12332801Y-10825174D02*
X12332801Y-10872793D01*
X12332801Y-10872793D02*
X12323277Y-10910889D01*
X12323277Y-10910889D02*
X12313753Y-10929936D01*
X12313753Y-10929936D02*
X12304229Y-10939460D01*
X12304229Y-10939460D02*
X12285182Y-10948984D01*
X12285182Y-10948984D02*
X12266134Y-10948984D01*
X12266134Y-10948984D02*
X12247086Y-10939460D01*
X12247086Y-10939460D02*
X12237563Y-10929936D01*
X12237563Y-10929936D02*
X12228039Y-10910889D01*
X12228039Y-10910889D02*
X12218515Y-10872793D01*
X12218515Y-10872793D02*
X12218515Y-10825174D01*
X12218515Y-10825174D02*
X12228039Y-10787079D01*
X12228039Y-10787079D02*
X12237563Y-10768031D01*
X12237563Y-10768031D02*
X12247086Y-10758508D01*
X12247086Y-10758508D02*
X12266134Y-10748984D01*
X12418515Y-10929936D02*
X12428039Y-10939460D01*
X12428039Y-10939460D02*
X12418515Y-10948984D01*
X12418515Y-10948984D02*
X12408991Y-10939460D01*
X12408991Y-10939460D02*
X12418515Y-10929936D01*
X12418515Y-10929936D02*
X12418515Y-10948984D01*
X12618515Y-10948984D02*
X12504229Y-10948984D01*
X12561372Y-10948984D02*
X12561372Y-10748984D01*
X12561372Y-10748984D02*
X12542325Y-10777555D01*
X12542325Y-10777555D02*
X12523277Y-10796603D01*
X12523277Y-10796603D02*
X12504229Y-10806127D01*
X12694706Y-10768031D02*
X12704229Y-10758508D01*
X12704229Y-10758508D02*
X12723277Y-10748984D01*
X12723277Y-10748984D02*
X12770896Y-10748984D01*
X12770896Y-10748984D02*
X12789944Y-10758508D01*
X12789944Y-10758508D02*
X12799467Y-10768031D01*
X12799467Y-10768031D02*
X12808991Y-10787079D01*
X12808991Y-10787079D02*
X12808991Y-10806127D01*
X12808991Y-10806127D02*
X12799467Y-10834698D01*
X12799467Y-10834698D02*
X12685182Y-10948984D01*
X12685182Y-10948984D02*
X12808991Y-10948984D01*
X12885182Y-10768031D02*
X12894706Y-10758508D01*
X12894706Y-10758508D02*
X12913753Y-10748984D01*
X12913753Y-10748984D02*
X12961372Y-10748984D01*
X12961372Y-10748984D02*
X12980420Y-10758508D01*
X12980420Y-10758508D02*
X12989944Y-10768031D01*
X12989944Y-10768031D02*
X12999467Y-10787079D01*
X12999467Y-10787079D02*
X12999467Y-10806127D01*
X12999467Y-10806127D02*
X12989944Y-10834698D01*
X12989944Y-10834698D02*
X12875658Y-10948984D01*
X12875658Y-10948984D02*
X12999467Y-10948984D01*
X13123277Y-10748984D02*
X13142325Y-10748984D01*
X13142325Y-10748984D02*
X13161372Y-10758508D01*
X13161372Y-10758508D02*
X13170896Y-10768031D01*
X13170896Y-10768031D02*
X13180420Y-10787079D01*
X13180420Y-10787079D02*
X13189944Y-10825174D01*
X13189944Y-10825174D02*
X13189944Y-10872793D01*
X13189944Y-10872793D02*
X13180420Y-10910889D01*
X13180420Y-10910889D02*
X13170896Y-10929936D01*
X13170896Y-10929936D02*
X13161372Y-10939460D01*
X13161372Y-10939460D02*
X13142325Y-10948984D01*
X13142325Y-10948984D02*
X13123277Y-10948984D01*
X13123277Y-10948984D02*
X13104229Y-10939460D01*
X13104229Y-10939460D02*
X13094706Y-10929936D01*
X13094706Y-10929936D02*
X13085182Y-10910889D01*
X13085182Y-10910889D02*
X13075658Y-10872793D01*
X13075658Y-10872793D02*
X13075658Y-10825174D01*
X13075658Y-10825174D02*
X13085182Y-10787079D01*
X13085182Y-10787079D02*
X13094706Y-10768031D01*
X13094706Y-10768031D02*
X13104229Y-10758508D01*
X13104229Y-10758508D02*
X13123277Y-10748984D01*
X13266134Y-10748984D02*
X13266134Y-10787079D01*
X13342325Y-10748984D02*
X13342325Y-10787079D01*
X13637563Y-11025174D02*
X13628039Y-11015650D01*
X13628039Y-11015650D02*
X13608991Y-10987079D01*
X13608991Y-10987079D02*
X13599468Y-10968031D01*
X13599468Y-10968031D02*
X13589944Y-10939460D01*
X13589944Y-10939460D02*
X13580420Y-10891841D01*
X13580420Y-10891841D02*
X13580420Y-10853746D01*
X13580420Y-10853746D02*
X13589944Y-10806127D01*
X13589944Y-10806127D02*
X13599468Y-10777555D01*
X13599468Y-10777555D02*
X13608991Y-10758508D01*
X13608991Y-10758508D02*
X13628039Y-10729936D01*
X13628039Y-10729936D02*
X13637563Y-10720412D01*
X13704229Y-10768031D02*
X13713753Y-10758508D01*
X13713753Y-10758508D02*
X13732801Y-10748984D01*
X13732801Y-10748984D02*
X13780420Y-10748984D01*
X13780420Y-10748984D02*
X13799468Y-10758508D01*
X13799468Y-10758508D02*
X13808991Y-10768031D01*
X13808991Y-10768031D02*
X13818515Y-10787079D01*
X13818515Y-10787079D02*
X13818515Y-10806127D01*
X13818515Y-10806127D02*
X13808991Y-10834698D01*
X13808991Y-10834698D02*
X13694706Y-10948984D01*
X13694706Y-10948984D02*
X13818515Y-10948984D01*
X14056610Y-10948984D02*
X14056610Y-10748984D01*
X14142325Y-10948984D02*
X14142325Y-10844222D01*
X14142325Y-10844222D02*
X14132801Y-10825174D01*
X14132801Y-10825174D02*
X14113753Y-10815650D01*
X14113753Y-10815650D02*
X14085182Y-10815650D01*
X14085182Y-10815650D02*
X14066134Y-10825174D01*
X14066134Y-10825174D02*
X14056610Y-10834698D01*
X14266134Y-10948984D02*
X14247087Y-10939460D01*
X14247087Y-10939460D02*
X14237563Y-10929936D01*
X14237563Y-10929936D02*
X14228039Y-10910889D01*
X14228039Y-10910889D02*
X14228039Y-10853746D01*
X14228039Y-10853746D02*
X14237563Y-10834698D01*
X14237563Y-10834698D02*
X14247087Y-10825174D01*
X14247087Y-10825174D02*
X14266134Y-10815650D01*
X14266134Y-10815650D02*
X14294706Y-10815650D01*
X14294706Y-10815650D02*
X14313753Y-10825174D01*
X14313753Y-10825174D02*
X14323277Y-10834698D01*
X14323277Y-10834698D02*
X14332801Y-10853746D01*
X14332801Y-10853746D02*
X14332801Y-10910889D01*
X14332801Y-10910889D02*
X14323277Y-10929936D01*
X14323277Y-10929936D02*
X14313753Y-10939460D01*
X14313753Y-10939460D02*
X14294706Y-10948984D01*
X14294706Y-10948984D02*
X14266134Y-10948984D01*
X14447087Y-10948984D02*
X14428039Y-10939460D01*
X14428039Y-10939460D02*
X14418515Y-10920412D01*
X14418515Y-10920412D02*
X14418515Y-10748984D01*
X14599468Y-10939460D02*
X14580420Y-10948984D01*
X14580420Y-10948984D02*
X14542325Y-10948984D01*
X14542325Y-10948984D02*
X14523277Y-10939460D01*
X14523277Y-10939460D02*
X14513753Y-10920412D01*
X14513753Y-10920412D02*
X14513753Y-10844222D01*
X14513753Y-10844222D02*
X14523277Y-10825174D01*
X14523277Y-10825174D02*
X14542325Y-10815650D01*
X14542325Y-10815650D02*
X14580420Y-10815650D01*
X14580420Y-10815650D02*
X14599468Y-10825174D01*
X14599468Y-10825174D02*
X14608991Y-10844222D01*
X14608991Y-10844222D02*
X14608991Y-10863270D01*
X14608991Y-10863270D02*
X14513753Y-10882317D01*
X14685182Y-10939460D02*
X14704230Y-10948984D01*
X14704230Y-10948984D02*
X14742325Y-10948984D01*
X14742325Y-10948984D02*
X14761372Y-10939460D01*
X14761372Y-10939460D02*
X14770896Y-10920412D01*
X14770896Y-10920412D02*
X14770896Y-10910889D01*
X14770896Y-10910889D02*
X14761372Y-10891841D01*
X14761372Y-10891841D02*
X14742325Y-10882317D01*
X14742325Y-10882317D02*
X14713753Y-10882317D01*
X14713753Y-10882317D02*
X14694706Y-10872793D01*
X14694706Y-10872793D02*
X14685182Y-10853746D01*
X14685182Y-10853746D02*
X14685182Y-10844222D01*
X14685182Y-10844222D02*
X14694706Y-10825174D01*
X14694706Y-10825174D02*
X14713753Y-10815650D01*
X14713753Y-10815650D02*
X14742325Y-10815650D01*
X14742325Y-10815650D02*
X14761372Y-10825174D01*
X14837563Y-11025174D02*
X14847087Y-11015650D01*
X14847087Y-11015650D02*
X14866134Y-10987079D01*
X14866134Y-10987079D02*
X14875658Y-10968031D01*
X14875658Y-10968031D02*
X14885182Y-10939460D01*
X14885182Y-10939460D02*
X14894706Y-10891841D01*
X14894706Y-10891841D02*
X14894706Y-10853746D01*
X14894706Y-10853746D02*
X14885182Y-10806127D01*
X14885182Y-10806127D02*
X14875658Y-10777555D01*
X14875658Y-10777555D02*
X14866134Y-10758508D01*
X14866134Y-10758508D02*
X14847087Y-10729936D01*
X14847087Y-10729936D02*
X14837563Y-10720412D01*
X15199468Y-11025174D02*
X15189944Y-11015650D01*
X15189944Y-11015650D02*
X15170896Y-10987079D01*
X15170896Y-10987079D02*
X15161372Y-10968031D01*
X15161372Y-10968031D02*
X15151849Y-10939460D01*
X15151849Y-10939460D02*
X15142325Y-10891841D01*
X15142325Y-10891841D02*
X15142325Y-10853746D01*
X15142325Y-10853746D02*
X15151849Y-10806127D01*
X15151849Y-10806127D02*
X15161372Y-10777555D01*
X15161372Y-10777555D02*
X15170896Y-10758508D01*
X15170896Y-10758508D02*
X15189944Y-10729936D01*
X15189944Y-10729936D02*
X15199468Y-10720412D01*
X15275658Y-10815650D02*
X15275658Y-10948984D01*
X15275658Y-10834698D02*
X15285182Y-10825174D01*
X15285182Y-10825174D02*
X15304230Y-10815650D01*
X15304230Y-10815650D02*
X15332801Y-10815650D01*
X15332801Y-10815650D02*
X15351849Y-10825174D01*
X15351849Y-10825174D02*
X15361372Y-10844222D01*
X15361372Y-10844222D02*
X15361372Y-10948984D01*
X15485182Y-10948984D02*
X15466134Y-10939460D01*
X15466134Y-10939460D02*
X15456611Y-10929936D01*
X15456611Y-10929936D02*
X15447087Y-10910889D01*
X15447087Y-10910889D02*
X15447087Y-10853746D01*
X15447087Y-10853746D02*
X15456611Y-10834698D01*
X15456611Y-10834698D02*
X15466134Y-10825174D01*
X15466134Y-10825174D02*
X15485182Y-10815650D01*
X15485182Y-10815650D02*
X15513753Y-10815650D01*
X15513753Y-10815650D02*
X15532801Y-10825174D01*
X15532801Y-10825174D02*
X15542325Y-10834698D01*
X15542325Y-10834698D02*
X15551849Y-10853746D01*
X15551849Y-10853746D02*
X15551849Y-10910889D01*
X15551849Y-10910889D02*
X15542325Y-10929936D01*
X15542325Y-10929936D02*
X15532801Y-10939460D01*
X15532801Y-10939460D02*
X15513753Y-10948984D01*
X15513753Y-10948984D02*
X15485182Y-10948984D01*
X15608992Y-10815650D02*
X15685182Y-10815650D01*
X15637563Y-10748984D02*
X15637563Y-10920412D01*
X15637563Y-10920412D02*
X15647087Y-10939460D01*
X15647087Y-10939460D02*
X15666134Y-10948984D01*
X15666134Y-10948984D02*
X15685182Y-10948984D01*
X15904230Y-10815650D02*
X15904230Y-11015650D01*
X15904230Y-10825174D02*
X15923277Y-10815650D01*
X15923277Y-10815650D02*
X15961373Y-10815650D01*
X15961373Y-10815650D02*
X15980420Y-10825174D01*
X15980420Y-10825174D02*
X15989944Y-10834698D01*
X15989944Y-10834698D02*
X15999468Y-10853746D01*
X15999468Y-10853746D02*
X15999468Y-10910889D01*
X15999468Y-10910889D02*
X15989944Y-10929936D01*
X15989944Y-10929936D02*
X15980420Y-10939460D01*
X15980420Y-10939460D02*
X15961373Y-10948984D01*
X15961373Y-10948984D02*
X15923277Y-10948984D01*
X15923277Y-10948984D02*
X15904230Y-10939460D01*
X16113753Y-10948984D02*
X16094706Y-10939460D01*
X16094706Y-10939460D02*
X16085182Y-10920412D01*
X16085182Y-10920412D02*
X16085182Y-10748984D01*
X16275658Y-10948984D02*
X16275658Y-10844222D01*
X16275658Y-10844222D02*
X16266134Y-10825174D01*
X16266134Y-10825174D02*
X16247087Y-10815650D01*
X16247087Y-10815650D02*
X16208992Y-10815650D01*
X16208992Y-10815650D02*
X16189944Y-10825174D01*
X16275658Y-10939460D02*
X16256611Y-10948984D01*
X16256611Y-10948984D02*
X16208992Y-10948984D01*
X16208992Y-10948984D02*
X16189944Y-10939460D01*
X16189944Y-10939460D02*
X16180420Y-10920412D01*
X16180420Y-10920412D02*
X16180420Y-10901365D01*
X16180420Y-10901365D02*
X16189944Y-10882317D01*
X16189944Y-10882317D02*
X16208992Y-10872793D01*
X16208992Y-10872793D02*
X16256611Y-10872793D01*
X16256611Y-10872793D02*
X16275658Y-10863270D01*
X16342325Y-10815650D02*
X16418515Y-10815650D01*
X16370896Y-10748984D02*
X16370896Y-10920412D01*
X16370896Y-10920412D02*
X16380420Y-10939460D01*
X16380420Y-10939460D02*
X16399468Y-10948984D01*
X16399468Y-10948984D02*
X16418515Y-10948984D01*
X16561373Y-10939460D02*
X16542325Y-10948984D01*
X16542325Y-10948984D02*
X16504230Y-10948984D01*
X16504230Y-10948984D02*
X16485182Y-10939460D01*
X16485182Y-10939460D02*
X16475658Y-10920412D01*
X16475658Y-10920412D02*
X16475658Y-10844222D01*
X16475658Y-10844222D02*
X16485182Y-10825174D01*
X16485182Y-10825174D02*
X16504230Y-10815650D01*
X16504230Y-10815650D02*
X16542325Y-10815650D01*
X16542325Y-10815650D02*
X16561373Y-10825174D01*
X16561373Y-10825174D02*
X16570896Y-10844222D01*
X16570896Y-10844222D02*
X16570896Y-10863270D01*
X16570896Y-10863270D02*
X16475658Y-10882317D01*
X16742325Y-10948984D02*
X16742325Y-10748984D01*
X16742325Y-10939460D02*
X16723277Y-10948984D01*
X16723277Y-10948984D02*
X16685182Y-10948984D01*
X16685182Y-10948984D02*
X16666134Y-10939460D01*
X16666134Y-10939460D02*
X16656611Y-10929936D01*
X16656611Y-10929936D02*
X16647087Y-10910889D01*
X16647087Y-10910889D02*
X16647087Y-10853746D01*
X16647087Y-10853746D02*
X16656611Y-10834698D01*
X16656611Y-10834698D02*
X16666134Y-10825174D01*
X16666134Y-10825174D02*
X16685182Y-10815650D01*
X16685182Y-10815650D02*
X16723277Y-10815650D01*
X16723277Y-10815650D02*
X16742325Y-10825174D01*
X16818516Y-11025174D02*
X16828039Y-11015650D01*
X16828039Y-11015650D02*
X16847087Y-10987079D01*
X16847087Y-10987079D02*
X16856611Y-10968031D01*
X16856611Y-10968031D02*
X16866135Y-10939460D01*
X16866135Y-10939460D02*
X16875658Y-10891841D01*
X16875658Y-10891841D02*
X16875658Y-10853746D01*
X16875658Y-10853746D02*
X16866135Y-10806127D01*
X16866135Y-10806127D02*
X16856611Y-10777555D01*
X16856611Y-10777555D02*
X16847087Y-10758508D01*
X16847087Y-10758508D02*
X16828039Y-10729936D01*
X16828039Y-10729936D02*
X16818516Y-10720412D01*
M02*
