G04 #@! TF.GenerationSoftware,KiCad,Pcbnew,8.0.2*
G04 #@! TF.CreationDate,2024-08-14T03:58:17-07:00*
G04 #@! TF.ProjectId,uSlime_BNO085,75536c69-6d65-45f4-924e-4f3038352e6b,rev?*
G04 #@! TF.SameCoordinates,Original*
G04 #@! TF.FileFunction,Paste,Top*
G04 #@! TF.FilePolarity,Positive*
%FSLAX46Y46*%
G04 Gerber Fmt 4.6, Leading zero omitted, Abs format (unit mm)*
G04 Created by KiCad (PCBNEW 8.0.2) date 2024-08-14 03:58:17*
%MOMM*%
%LPD*%
G01*
G04 APERTURE LIST*
G04 Aperture macros list*
%AMRoundRect*
0 Rectangle with rounded corners*
0 $1 Rounding radius*
0 $2 $3 $4 $5 $6 $7 $8 $9 X,Y pos of 4 corners*
0 Add a 4 corners polygon primitive as box body*
4,1,4,$2,$3,$4,$5,$6,$7,$8,$9,$2,$3,0*
0 Add four circle primitives for the rounded corners*
1,1,$1+$1,$2,$3*
1,1,$1+$1,$4,$5*
1,1,$1+$1,$6,$7*
1,1,$1+$1,$8,$9*
0 Add four rect primitives between the rounded corners*
20,1,$1+$1,$2,$3,$4,$5,0*
20,1,$1+$1,$4,$5,$6,$7,0*
20,1,$1+$1,$6,$7,$8,$9,0*
20,1,$1+$1,$8,$9,$2,$3,0*%
G04 Aperture macros list end*
%ADD10RoundRect,0.140000X0.170000X-0.140000X0.170000X0.140000X-0.170000X0.140000X-0.170000X-0.140000X0*%
%ADD11RoundRect,0.140000X-0.140000X-0.170000X0.140000X-0.170000X0.140000X0.170000X-0.140000X0.170000X0*%
%ADD12RoundRect,0.135000X-0.135000X-0.185000X0.135000X-0.185000X0.135000X0.185000X-0.135000X0.185000X0*%
%ADD13RoundRect,0.140000X0.140000X0.170000X-0.140000X0.170000X-0.140000X-0.170000X0.140000X-0.170000X0*%
%ADD14RoundRect,0.135000X-0.185000X0.135000X-0.185000X-0.135000X0.185000X-0.135000X0.185000X0.135000X0*%
%ADD15RoundRect,0.135000X0.185000X-0.135000X0.185000X0.135000X-0.185000X0.135000X-0.185000X-0.135000X0*%
%ADD16R,0.250000X0.914400*%
%ADD17R,0.812800X0.250000*%
%ADD18RoundRect,0.135000X0.135000X0.185000X-0.135000X0.185000X-0.135000X-0.185000X0.135000X-0.185000X0*%
G04 APERTURE END LIST*
D10*
X105500000Y-97430000D03*
X105500000Y-96470000D03*
D11*
X102720000Y-92600000D03*
X103680000Y-92600000D03*
D12*
X109340000Y-101150000D03*
X110360000Y-101150000D03*
D13*
X108380000Y-101150000D03*
X107420000Y-101150000D03*
D14*
X115600000Y-95090000D03*
X115600000Y-96110000D03*
D15*
X114550000Y-96110000D03*
X114550000Y-95090000D03*
D11*
X102720000Y-93550000D03*
X103680000Y-93550000D03*
D16*
X106753280Y-96622660D03*
D17*
X106562280Y-97549990D03*
X106562280Y-98053060D03*
X106562280Y-98553060D03*
X106562280Y-99053050D03*
D16*
X106753280Y-99975460D03*
X107253280Y-99975460D03*
X107753280Y-99975460D03*
X108253280Y-99975460D03*
X108753280Y-99975460D03*
X109253280Y-99975460D03*
X109753280Y-99975460D03*
X110253280Y-99975460D03*
X110753280Y-99975460D03*
X111261280Y-99975460D03*
D17*
X111388280Y-99053060D03*
X111388280Y-98553060D03*
X111388280Y-98053060D03*
X111388280Y-97549990D03*
D16*
X111261280Y-96622660D03*
X110753280Y-96622660D03*
X110253280Y-96622660D03*
X109753280Y-96622660D03*
X109253280Y-96622660D03*
X108753280Y-96622660D03*
X108253280Y-96622660D03*
X107753280Y-96622660D03*
X107253280Y-96622660D03*
D18*
X113560000Y-96550000D03*
X112540000Y-96550000D03*
D14*
X105500000Y-98290000D03*
X105500000Y-99310000D03*
M02*
