G04 #@! TF.GenerationSoftware,KiCad,Pcbnew,8.0.2*
G04 #@! TF.CreationDate,2024-08-17T01:02:59-07:00*
G04 #@! TF.ProjectId,uSlime_BNO085,75536c69-6d65-45f4-924e-4f3038352e6b,rev?*
G04 #@! TF.SameCoordinates,Original*
G04 #@! TF.FileFunction,Copper,L1,Top*
G04 #@! TF.FilePolarity,Positive*
%FSLAX46Y46*%
G04 Gerber Fmt 4.6, Leading zero omitted, Abs format (unit mm)*
G04 Created by KiCad (PCBNEW 8.0.2) date 2024-08-17 01:02:59*
%MOMM*%
%LPD*%
G01*
G04 APERTURE LIST*
G04 Aperture macros list*
%AMRoundRect*
0 Rectangle with rounded corners*
0 $1 Rounding radius*
0 $2 $3 $4 $5 $6 $7 $8 $9 X,Y pos of 4 corners*
0 Add a 4 corners polygon primitive as box body*
4,1,4,$2,$3,$4,$5,$6,$7,$8,$9,$2,$3,0*
0 Add four circle primitives for the rounded corners*
1,1,$1+$1,$2,$3*
1,1,$1+$1,$4,$5*
1,1,$1+$1,$6,$7*
1,1,$1+$1,$8,$9*
0 Add four rect primitives between the rounded corners*
20,1,$1+$1,$2,$3,$4,$5,0*
20,1,$1+$1,$4,$5,$6,$7,0*
20,1,$1+$1,$6,$7,$8,$9,0*
20,1,$1+$1,$8,$9,$2,$3,0*%
%AMFreePoly0*
4,1,19,0.550000,-0.750000,0.000000,-0.750000,0.000000,-0.744911,-0.071157,-0.744911,-0.207708,-0.704816,-0.327430,-0.627875,-0.420627,-0.520320,-0.479746,-0.390866,-0.500000,-0.250000,-0.500000,0.250000,-0.479746,0.390866,-0.420627,0.520320,-0.327430,0.627875,-0.207708,0.704816,-0.071157,0.744911,0.000000,0.744911,0.000000,0.750000,0.550000,0.750000,0.550000,-0.750000,0.550000,-0.750000,
$1*%
%AMFreePoly1*
4,1,19,0.000000,0.744911,0.071157,0.744911,0.207708,0.704816,0.327430,0.627875,0.420627,0.520320,0.479746,0.390866,0.500000,0.250000,0.500000,-0.250000,0.479746,-0.390866,0.420627,-0.520320,0.327430,-0.627875,0.207708,-0.704816,0.071157,-0.744911,0.000000,-0.744911,0.000000,-0.750000,-0.550000,-0.750000,-0.550000,0.750000,0.000000,0.750000,0.000000,0.744911,0.000000,0.744911,
$1*%
G04 Aperture macros list end*
G04 #@! TA.AperFunction,SMDPad,CuDef*
%ADD10RoundRect,0.140000X0.170000X-0.140000X0.170000X0.140000X-0.170000X0.140000X-0.170000X-0.140000X0*%
G04 #@! TD*
G04 #@! TA.AperFunction,SMDPad,CuDef*
%ADD11RoundRect,0.140000X-0.140000X-0.170000X0.140000X-0.170000X0.140000X0.170000X-0.140000X0.170000X0*%
G04 #@! TD*
G04 #@! TA.AperFunction,SMDPad,CuDef*
%ADD12RoundRect,0.135000X-0.135000X-0.185000X0.135000X-0.185000X0.135000X0.185000X-0.135000X0.185000X0*%
G04 #@! TD*
G04 #@! TA.AperFunction,SMDPad,CuDef*
%ADD13RoundRect,0.140000X0.140000X0.170000X-0.140000X0.170000X-0.140000X-0.170000X0.140000X-0.170000X0*%
G04 #@! TD*
G04 #@! TA.AperFunction,SMDPad,CuDef*
%ADD14FreePoly0,90.000000*%
G04 #@! TD*
G04 #@! TA.AperFunction,SMDPad,CuDef*
%ADD15R,1.500000X1.000000*%
G04 #@! TD*
G04 #@! TA.AperFunction,SMDPad,CuDef*
%ADD16FreePoly1,90.000000*%
G04 #@! TD*
G04 #@! TA.AperFunction,SMDPad,CuDef*
%ADD17RoundRect,0.135000X-0.185000X0.135000X-0.185000X-0.135000X0.185000X-0.135000X0.185000X0.135000X0*%
G04 #@! TD*
G04 #@! TA.AperFunction,SMDPad,CuDef*
%ADD18RoundRect,0.135000X0.185000X-0.135000X0.185000X0.135000X-0.185000X0.135000X-0.185000X-0.135000X0*%
G04 #@! TD*
G04 #@! TA.AperFunction,ComponentPad*
%ADD19C,1.200000*%
G04 #@! TD*
G04 #@! TA.AperFunction,SMDPad,CuDef*
%ADD20R,0.250000X0.914400*%
G04 #@! TD*
G04 #@! TA.AperFunction,SMDPad,CuDef*
%ADD21R,0.812800X0.250000*%
G04 #@! TD*
G04 #@! TA.AperFunction,SMDPad,CuDef*
%ADD22RoundRect,0.135000X0.135000X0.185000X-0.135000X0.185000X-0.135000X-0.185000X0.135000X-0.185000X0*%
G04 #@! TD*
G04 #@! TA.AperFunction,ViaPad*
%ADD23C,0.600000*%
G04 #@! TD*
G04 #@! TA.AperFunction,ViaPad*
%ADD24C,0.500000*%
G04 #@! TD*
G04 #@! TA.AperFunction,Conductor*
%ADD25C,0.254000*%
G04 #@! TD*
G04 APERTURE END LIST*
D10*
X105500000Y-97430000D03*
X105500000Y-96470000D03*
D11*
X102720000Y-92600000D03*
X103680000Y-92600000D03*
D12*
X109340000Y-101150000D03*
X110360000Y-101150000D03*
D13*
X108380000Y-101150000D03*
X107420000Y-101150000D03*
D14*
X115307500Y-93500000D03*
D15*
X115307500Y-92200000D03*
D16*
X115307500Y-90900000D03*
D17*
X115600000Y-95090000D03*
X115600000Y-96110000D03*
D18*
X114550000Y-96110000D03*
X114550000Y-95090000D03*
D19*
X112005000Y-94500000D03*
X110505000Y-94500000D03*
X109005000Y-94500000D03*
X107505000Y-94500000D03*
X106005000Y-94500000D03*
D11*
X102720000Y-93550000D03*
X103680000Y-93550000D03*
D20*
X106753280Y-96622660D03*
D21*
X106562280Y-97549990D03*
X106562280Y-98053060D03*
X106562280Y-98553060D03*
X106562280Y-99053050D03*
D20*
X106753280Y-99975460D03*
X107253280Y-99975460D03*
X107753280Y-99975460D03*
X108253280Y-99975460D03*
X108753280Y-99975460D03*
X109253280Y-99975460D03*
X109753280Y-99975460D03*
X110253280Y-99975460D03*
X110753280Y-99975460D03*
X111261280Y-99975460D03*
D21*
X111388280Y-99053060D03*
X111388280Y-98553060D03*
X111388280Y-98053060D03*
X111388280Y-97549990D03*
D20*
X111261280Y-96622660D03*
X110753280Y-96622660D03*
X110253280Y-96622660D03*
X109753280Y-96622660D03*
X109253280Y-96622660D03*
X108753280Y-96622660D03*
X108253280Y-96622660D03*
X107753280Y-96622660D03*
X107253280Y-96622660D03*
D22*
X113560000Y-96550000D03*
X112540000Y-96550000D03*
D17*
X105500000Y-98290000D03*
X105500000Y-99310000D03*
D23*
X113200000Y-90900000D03*
X106000000Y-101100000D03*
X109300000Y-98425196D03*
D24*
X110150000Y-97550000D03*
D23*
X113000000Y-95650000D03*
D24*
X111650050Y-100869892D03*
X113700000Y-92800000D03*
X112127797Y-98534409D03*
D25*
X108380000Y-101243140D02*
X108380000Y-101250000D01*
X107505000Y-94500000D02*
X105535000Y-96470000D01*
X106562280Y-99053050D02*
X106753280Y-99244050D01*
X105535000Y-96470000D02*
X105500000Y-96470000D01*
X110090806Y-98425196D02*
X110462942Y-98053060D01*
X105500000Y-96470000D02*
X105520000Y-96470000D01*
X105520000Y-96470000D02*
X106600360Y-97550360D01*
X108380000Y-101250000D02*
X108750890Y-100879110D01*
X109300000Y-98425196D02*
X108753280Y-97878476D01*
X109300000Y-98425196D02*
X108753280Y-98971916D01*
X108753280Y-98971916D02*
X108753280Y-99975460D01*
X106753280Y-99975460D02*
X106753280Y-100346720D01*
X106753280Y-100346720D02*
X106000000Y-101100000D01*
X108753280Y-97878476D02*
X108753280Y-96622660D01*
X106753280Y-99244050D02*
X106753280Y-99975460D01*
X110462942Y-98053060D02*
X111388280Y-98053060D01*
X109300000Y-98425196D02*
X110090806Y-98425196D01*
X108750890Y-100879110D02*
X108750890Y-99863030D01*
X115307500Y-90900000D02*
X113200000Y-90900000D01*
X102720000Y-92600000D02*
X102720000Y-93550000D01*
X111388280Y-97549990D02*
X111950010Y-97549990D01*
X111388270Y-97550000D02*
X111388280Y-97549990D01*
X110150000Y-97550000D02*
X111388270Y-97550000D01*
X112540000Y-96960000D02*
X112540000Y-96550000D01*
X111950010Y-97549990D02*
X112540000Y-96960000D01*
X113960000Y-94500000D02*
X114350000Y-94890000D01*
X112005000Y-94500000D02*
X113960000Y-94500000D01*
X111261280Y-95243720D02*
X111683974Y-94821026D01*
X114350000Y-94890000D02*
X114350000Y-95090000D01*
X111261280Y-96622660D02*
X111261280Y-95243720D01*
X110505000Y-94500000D02*
X110505000Y-93755000D01*
X112600000Y-100800000D02*
X112600000Y-98866002D01*
X113560000Y-96550000D02*
X114110000Y-96550000D01*
X105839260Y-98050740D02*
X106687140Y-98050740D01*
X114550000Y-96110000D02*
X115400000Y-96110000D01*
X105500000Y-97430000D02*
X106120740Y-98050740D01*
X103680000Y-95919999D02*
X103680000Y-93550000D01*
X105190001Y-97430000D02*
X103680000Y-95919999D01*
X110460000Y-101123140D02*
X110460000Y-101350000D01*
X112600000Y-98866002D02*
X113560000Y-97906002D01*
X113000000Y-95650000D02*
X113000000Y-95990000D01*
X113560000Y-96800000D02*
X113460000Y-96700000D01*
X113560000Y-97906002D02*
X113560000Y-96800000D01*
X109350000Y-92600000D02*
X103680000Y-92600000D01*
X107253280Y-95886460D02*
X107712740Y-95427000D01*
X105500000Y-97430000D02*
X105190001Y-97430000D01*
X106120740Y-98050740D02*
X106687140Y-98050740D01*
X110560000Y-101450000D02*
X111950000Y-101450000D01*
X110505000Y-93755000D02*
X109350000Y-92600000D01*
X103680000Y-92600000D02*
X103680000Y-93550000D01*
X111950000Y-101450000D02*
X112600000Y-100800000D01*
X107712740Y-95427000D02*
X110032000Y-95427000D01*
X107253280Y-96622660D02*
X107253280Y-95886460D01*
X110032000Y-95427000D02*
X110505000Y-94954000D01*
X110460000Y-101350000D02*
X110560000Y-101450000D01*
X114110000Y-96550000D02*
X114550000Y-96110000D01*
X105500000Y-98390000D02*
X105839260Y-98050740D01*
X113000000Y-95990000D02*
X113560000Y-96550000D01*
X111069892Y-100869892D02*
X110753280Y-100553280D01*
X111650050Y-100869892D02*
X111069892Y-100869892D01*
X110753280Y-100553280D02*
X110753280Y-99975460D01*
X115600000Y-94890000D02*
X115600000Y-93792500D01*
X115600000Y-93792500D02*
X115307500Y-93500000D01*
X114300000Y-92200000D02*
X113700000Y-92800000D01*
X112127797Y-98534409D02*
X111329191Y-98534409D01*
X115307500Y-92200000D02*
X114300000Y-92200000D01*
X108250510Y-99863030D02*
X108250510Y-100398312D01*
X107540000Y-101108822D02*
X107540000Y-101123140D01*
X108250510Y-100398312D02*
X107540000Y-101108822D01*
X106687140Y-98549850D02*
X106260150Y-98549850D01*
X106260150Y-98549850D02*
X105500000Y-99310000D01*
X109250000Y-101160000D02*
X109340000Y-101250000D01*
X109340000Y-101250000D02*
X109440000Y-101150000D01*
X109250000Y-99863030D02*
X109250000Y-101160000D01*
G04 #@! TA.AperFunction,Conductor*
G36*
X106514066Y-100765539D02*
G01*
X106277164Y-101214805D01*
X105999293Y-101100707D01*
X105885195Y-100822836D01*
X106334461Y-100585934D01*
X106514066Y-100765539D01*
G37*
G04 #@! TD.AperFunction*
G04 #@! TA.AperFunction,Conductor*
G36*
X105086731Y-97142288D02*
G01*
X105537862Y-97149771D01*
X105546076Y-97153334D01*
X105549365Y-97161663D01*
X105549179Y-97163558D01*
X105501649Y-97425513D01*
X105496800Y-97433041D01*
X105496189Y-97433437D01*
X105206391Y-97608610D01*
X105197539Y-97609957D01*
X105192136Y-97606939D01*
X104910618Y-97330083D01*
X104907123Y-97321840D01*
X104910480Y-97313539D01*
X105078306Y-97145713D01*
X105086578Y-97142287D01*
X105086731Y-97142288D01*
G37*
G04 #@! TD.AperFunction*
G04 #@! TA.AperFunction,Conductor*
G36*
X113567898Y-96556227D02*
G01*
X113813887Y-96781321D01*
X113817678Y-96789435D01*
X113816942Y-96794067D01*
X113689850Y-97132414D01*
X113683733Y-97138954D01*
X113678897Y-97140000D01*
X113441103Y-97140000D01*
X113432830Y-97136573D01*
X113430150Y-97132414D01*
X113303057Y-96794065D01*
X113303356Y-96785117D01*
X113306110Y-96781323D01*
X113552102Y-96556226D01*
X113560518Y-96553170D01*
X113567898Y-96556227D01*
G37*
G04 #@! TD.AperFunction*
G04 #@! TA.AperFunction,Conductor*
G36*
X113800000Y-90773000D02*
G01*
X113800000Y-91027000D01*
X113314805Y-91177164D01*
X113199000Y-90900000D01*
X113314805Y-90622836D01*
X113800000Y-90773000D01*
G37*
G04 #@! TD.AperFunction*
G04 #@! TA.AperFunction,Conductor*
G36*
X103910815Y-92323758D02*
G01*
X104233132Y-92469886D01*
X104239251Y-92476422D01*
X104240000Y-92480541D01*
X104240000Y-92719458D01*
X104236573Y-92727731D01*
X104233131Y-92730114D01*
X103910818Y-92876240D01*
X103901868Y-92876535D01*
X103896843Y-92872883D01*
X103782870Y-92730114D01*
X103684825Y-92607297D01*
X103682343Y-92598696D01*
X103684825Y-92592703D01*
X103896845Y-92327114D01*
X103904683Y-92322788D01*
X103910815Y-92323758D01*
G37*
G04 #@! TD.AperFunction*
G04 #@! TA.AperFunction,Conductor*
G36*
X110506442Y-94503427D02*
G01*
X110508985Y-94507239D01*
X110730826Y-95045152D01*
X110730812Y-95054107D01*
X110726175Y-95059557D01*
X109946569Y-95542923D01*
X109937732Y-95544370D01*
X109930460Y-95539144D01*
X109928704Y-95532979D01*
X109928704Y-95300005D01*
X109905357Y-94512047D01*
X109908537Y-94503676D01*
X109916705Y-94500005D01*
X109917052Y-94500000D01*
X110498169Y-94500000D01*
X110506442Y-94503427D01*
G37*
G04 #@! TD.AperFunction*
G04 #@! TA.AperFunction,Conductor*
G36*
X110635848Y-101011608D02*
G01*
X110829426Y-101320148D01*
X110831215Y-101326366D01*
X110831215Y-101562350D01*
X110827788Y-101570623D01*
X110819515Y-101574050D01*
X110816928Y-101573761D01*
X110368296Y-101472064D01*
X110360986Y-101466892D01*
X110359183Y-101460660D01*
X110359004Y-101156952D01*
X110362426Y-101148677D01*
X110365103Y-101146673D01*
X110620338Y-101007552D01*
X110629242Y-101006602D01*
X110635848Y-101011608D01*
G37*
G04 #@! TD.AperFunction*
G04 #@! TA.AperFunction,Conductor*
G36*
X103687491Y-93555246D02*
G01*
X103942885Y-93768191D01*
X103947044Y-93776121D01*
X103946298Y-93781414D01*
X103809899Y-94132537D01*
X103803709Y-94139007D01*
X103798993Y-94140000D01*
X103561007Y-94140000D01*
X103552734Y-94136573D01*
X103550101Y-94132537D01*
X103532607Y-94087504D01*
X103413701Y-93781412D01*
X103413900Y-93772461D01*
X103417111Y-93768194D01*
X103672508Y-93555246D01*
X103681056Y-93552581D01*
X103687491Y-93555246D01*
G37*
G04 #@! TD.AperFunction*
G04 #@! TA.AperFunction,Conductor*
G36*
X114206131Y-94563151D02*
G01*
X114652833Y-94814925D01*
X114658357Y-94821973D01*
X114657911Y-94829561D01*
X114553114Y-95084843D01*
X114546803Y-95091195D01*
X114544482Y-95091893D01*
X114238618Y-95150194D01*
X114229849Y-95148377D01*
X114226009Y-95144025D01*
X114022662Y-94745974D01*
X114021951Y-94737048D01*
X114024807Y-94732381D01*
X114192117Y-94565071D01*
X114200389Y-94561645D01*
X114206131Y-94563151D01*
G37*
G04 #@! TD.AperFunction*
G04 #@! TA.AperFunction,Conductor*
G36*
X113805396Y-96283756D02*
G01*
X114093300Y-96419833D01*
X114099315Y-96426467D01*
X114100000Y-96430411D01*
X114100000Y-96669588D01*
X114096573Y-96677861D01*
X114093300Y-96680166D01*
X113805397Y-96816242D01*
X113796453Y-96816679D01*
X113791627Y-96813409D01*
X113565838Y-96557743D01*
X113562931Y-96549275D01*
X113565838Y-96542256D01*
X113791628Y-96286589D01*
X113799672Y-96282657D01*
X113805396Y-96283756D01*
G37*
G04 #@! TD.AperFunction*
G04 #@! TA.AperFunction,Conductor*
G36*
X109414805Y-98148032D02*
G01*
X109300707Y-98425903D01*
X109022836Y-98540001D01*
X108785934Y-98090735D01*
X108965539Y-97911130D01*
X109414805Y-98148032D01*
G37*
G04 #@! TD.AperFunction*
G04 #@! TA.AperFunction,Conductor*
G36*
X112245318Y-93950391D02*
G01*
X112245539Y-93950485D01*
X113198015Y-94369924D01*
X113204206Y-94376395D01*
X113205000Y-94380632D01*
X113205000Y-94619367D01*
X113201573Y-94627640D01*
X113198015Y-94630075D01*
X112245539Y-95049514D01*
X112236587Y-95049712D01*
X112230116Y-95043521D01*
X112230022Y-95043300D01*
X112056834Y-94627000D01*
X112005868Y-94504492D01*
X112005855Y-94495541D01*
X112230022Y-93956698D01*
X112236363Y-93950377D01*
X112245318Y-93950391D01*
G37*
G04 #@! TD.AperFunction*
G04 #@! TA.AperFunction,Conductor*
G36*
X114544799Y-96108807D02*
G01*
X114552275Y-96113735D01*
X114553406Y-96115838D01*
X114658271Y-96370222D01*
X114658256Y-96379177D01*
X114652980Y-96384994D01*
X114125237Y-96667769D01*
X114116326Y-96668656D01*
X114109398Y-96662982D01*
X114108011Y-96657456D01*
X114108011Y-96424855D01*
X114108586Y-96421233D01*
X114122010Y-96380000D01*
X114226804Y-96058098D01*
X114232623Y-96051293D01*
X114240137Y-96050231D01*
X114544799Y-96108807D01*
G37*
G04 #@! TD.AperFunction*
G04 #@! TA.AperFunction,Conductor*
G36*
X113215974Y-96022662D02*
G01*
X113614025Y-96226009D01*
X113619832Y-96232823D01*
X113620194Y-96238618D01*
X113561893Y-96544482D01*
X113556978Y-96551967D01*
X113554843Y-96553114D01*
X113299561Y-96657911D01*
X113290606Y-96657883D01*
X113284925Y-96652833D01*
X113033151Y-96206132D01*
X113032076Y-96197244D01*
X113035070Y-96192118D01*
X113202380Y-96024808D01*
X113210652Y-96021382D01*
X113215974Y-96022662D01*
G37*
G04 #@! TD.AperFunction*
G04 #@! TA.AperFunction,Conductor*
G36*
X113970166Y-92363059D02*
G01*
X114136940Y-92529833D01*
X114140367Y-92538106D01*
X114138740Y-92544058D01*
X113936117Y-92886959D01*
X113928958Y-92892338D01*
X113921607Y-92891833D01*
X113703824Y-92802564D01*
X113697468Y-92796255D01*
X113697435Y-92796175D01*
X113608166Y-92578392D01*
X113608199Y-92569438D01*
X113613038Y-92563883D01*
X113955941Y-92361258D01*
X113964807Y-92360001D01*
X113970166Y-92363059D01*
G37*
G04 #@! TD.AperFunction*
G04 #@! TA.AperFunction,Conductor*
G36*
X112031191Y-98307216D02*
G01*
X112036032Y-98312772D01*
X112126906Y-98529892D01*
X112126939Y-98538846D01*
X112126906Y-98538926D01*
X112036032Y-98756044D01*
X112029676Y-98762353D01*
X112022325Y-98762858D01*
X111636583Y-98663668D01*
X111629424Y-98658289D01*
X111627797Y-98652337D01*
X111627797Y-98416480D01*
X111631224Y-98408207D01*
X111636580Y-98405150D01*
X111738553Y-98378929D01*
X111741467Y-98378560D01*
X111814427Y-98378560D01*
X111814428Y-98378560D01*
X111872911Y-98366927D01*
X111926120Y-98331373D01*
X111929680Y-98329781D01*
X112022328Y-98305958D01*
X112031191Y-98307216D01*
G37*
G04 #@! TD.AperFunction*
G04 #@! TA.AperFunction,Conductor*
G36*
X109900000Y-98298196D02*
G01*
X109900000Y-98552196D01*
X109414805Y-98702360D01*
X109299000Y-98425196D01*
X109414805Y-98148032D01*
X109900000Y-98298196D01*
G37*
G04 #@! TD.AperFunction*
G04 #@! TA.AperFunction,Conductor*
G36*
X114794064Y-95853056D02*
G01*
X115132414Y-95980150D01*
X115138954Y-95986267D01*
X115140000Y-95991103D01*
X115140000Y-96228896D01*
X115136573Y-96237169D01*
X115132414Y-96239849D01*
X114794067Y-96366942D01*
X114785117Y-96366643D01*
X114781321Y-96363887D01*
X114556227Y-96117898D01*
X114553170Y-96109482D01*
X114556227Y-96102102D01*
X114657797Y-95991103D01*
X114781322Y-95856111D01*
X114789435Y-95852321D01*
X114794064Y-95853056D01*
G37*
G04 #@! TD.AperFunction*
G04 #@! TA.AperFunction,Conductor*
G36*
X103687491Y-92605246D02*
G01*
X103942885Y-92818191D01*
X103947044Y-92826121D01*
X103946298Y-92831414D01*
X103809899Y-93182537D01*
X103803709Y-93189007D01*
X103798993Y-93190000D01*
X103561007Y-93190000D01*
X103552734Y-93186573D01*
X103550101Y-93182537D01*
X103532607Y-93137504D01*
X103413701Y-92831412D01*
X103413900Y-92822461D01*
X103417111Y-92818194D01*
X103672508Y-92605246D01*
X103681056Y-92602581D01*
X103687491Y-92605246D01*
G37*
G04 #@! TD.AperFunction*
G04 #@! TA.AperFunction,Conductor*
G36*
X110280876Y-93352202D02*
G01*
X110281316Y-93352667D01*
X110921884Y-94067500D01*
X110924853Y-94075948D01*
X110921458Y-94083567D01*
X110509142Y-94497260D01*
X110500875Y-94500701D01*
X110500841Y-94500701D01*
X109919155Y-94500016D01*
X109910886Y-94496579D01*
X109907469Y-94488302D01*
X109907680Y-94486105D01*
X110092785Y-93526587D01*
X110095997Y-93520535D01*
X110264331Y-93352201D01*
X110272603Y-93348775D01*
X110280876Y-93352202D01*
G37*
G04 #@! TD.AperFunction*
G04 #@! TA.AperFunction,Conductor*
G36*
X115727862Y-94553427D02*
G01*
X115730167Y-94556700D01*
X115866242Y-94844602D01*
X115866679Y-94853547D01*
X115863409Y-94858372D01*
X115607745Y-95084160D01*
X115599275Y-95087068D01*
X115592255Y-95084160D01*
X115336590Y-94858372D01*
X115332657Y-94850327D01*
X115333756Y-94844603D01*
X115469833Y-94556699D01*
X115476467Y-94550685D01*
X115480411Y-94550000D01*
X115719589Y-94550000D01*
X115727862Y-94553427D01*
G37*
G04 #@! TD.AperFunction*
G04 #@! TA.AperFunction,Conductor*
G36*
X111553444Y-100642700D02*
G01*
X111558285Y-100648256D01*
X111649159Y-100865375D01*
X111649192Y-100874329D01*
X111649159Y-100874409D01*
X111558285Y-101091527D01*
X111551929Y-101097836D01*
X111544578Y-101098341D01*
X111158836Y-100999151D01*
X111151677Y-100993772D01*
X111150050Y-100987820D01*
X111150050Y-100751963D01*
X111153477Y-100743690D01*
X111158833Y-100740633D01*
X111544578Y-100641442D01*
X111553444Y-100642700D01*
G37*
G04 #@! TD.AperFunction*
G04 #@! TA.AperFunction,Conductor*
G36*
X106049612Y-97927966D02*
G01*
X106054284Y-97935605D01*
X106054427Y-97937426D01*
X106054427Y-98173305D01*
X106051488Y-98181060D01*
X105821441Y-98440930D01*
X105813391Y-98444853D01*
X105807463Y-98443648D01*
X105504092Y-98292536D01*
X105498215Y-98285780D01*
X105497850Y-98284426D01*
X105476533Y-98181060D01*
X105445796Y-98032011D01*
X105447481Y-98023216D01*
X105454892Y-98018189D01*
X105455404Y-98018096D01*
X106040907Y-97925869D01*
X106049612Y-97927966D01*
G37*
G04 #@! TD.AperFunction*
G04 #@! TA.AperFunction,Conductor*
G36*
X112547390Y-96559031D02*
G01*
X112548334Y-96560211D01*
X112742923Y-96838740D01*
X112744852Y-96847485D01*
X112742738Y-96852400D01*
X112510600Y-97166164D01*
X112502924Y-97170776D01*
X112494235Y-97168611D01*
X112492921Y-97167478D01*
X112325414Y-96999971D01*
X112322219Y-96994019D01*
X112281590Y-96793159D01*
X112283309Y-96784372D01*
X112285173Y-96782198D01*
X112530864Y-96558264D01*
X112539284Y-96555225D01*
X112547390Y-96559031D01*
G37*
G04 #@! TD.AperFunction*
G04 #@! TA.AperFunction,Conductor*
G36*
X105857883Y-98785072D02*
G01*
X105955227Y-98882416D01*
X105958654Y-98890689D01*
X105958429Y-98892971D01*
X105955380Y-98908301D01*
X105955380Y-99104014D01*
X105954099Y-99109337D01*
X105823991Y-99364025D01*
X105817176Y-99369833D01*
X105811381Y-99370195D01*
X105505517Y-99311893D01*
X105498032Y-99306978D01*
X105496888Y-99304848D01*
X105392088Y-99049561D01*
X105392116Y-99040606D01*
X105397164Y-99034926D01*
X105843868Y-98783151D01*
X105852755Y-98782076D01*
X105857883Y-98785072D01*
G37*
G04 #@! TD.AperFunction*
G04 #@! TA.AperFunction,Conductor*
G36*
X111462824Y-94275401D02*
G01*
X112000507Y-94497147D01*
X112006847Y-94503468D01*
X112006857Y-94503491D01*
X112230083Y-95043379D01*
X112230078Y-95052334D01*
X112223742Y-95058662D01*
X112223606Y-95058717D01*
X111390368Y-95391108D01*
X111386033Y-95391941D01*
X111149738Y-95391941D01*
X111141465Y-95388514D01*
X111138038Y-95380241D01*
X111138477Y-95377064D01*
X111447103Y-94283041D01*
X111452648Y-94276009D01*
X111461541Y-94274957D01*
X111462824Y-94275401D01*
G37*
G04 #@! TD.AperFunction*
G04 #@! TA.AperFunction,Conductor*
G36*
X109378785Y-100563427D02*
G01*
X109380436Y-100565502D01*
X109565785Y-100862274D01*
X109567261Y-100871107D01*
X109564919Y-100875877D01*
X109346820Y-101142656D01*
X109338931Y-101146892D01*
X109331125Y-101144886D01*
X109075892Y-100969058D01*
X109071023Y-100961543D01*
X109070928Y-100957906D01*
X109072835Y-100943334D01*
X109073124Y-100941876D01*
X109078390Y-100922226D01*
X109078390Y-100901648D01*
X109078489Y-100900130D01*
X109121668Y-100570182D01*
X109126139Y-100562423D01*
X109133269Y-100560000D01*
X109370512Y-100560000D01*
X109378785Y-100563427D01*
G37*
G04 #@! TD.AperFunction*
G04 #@! TA.AperFunction,Conductor*
G36*
X115364882Y-95853356D02*
G01*
X115368678Y-95856112D01*
X115593772Y-96102102D01*
X115596829Y-96110518D01*
X115593772Y-96117898D01*
X115368678Y-96363887D01*
X115360564Y-96367678D01*
X115355932Y-96366942D01*
X115017586Y-96239849D01*
X115011046Y-96233732D01*
X115010000Y-96228896D01*
X115010000Y-95991103D01*
X115013427Y-95982830D01*
X115017584Y-95980151D01*
X115355934Y-95853057D01*
X115364882Y-95853356D01*
G37*
G04 #@! TD.AperFunction*
G04 #@! TA.AperFunction,Conductor*
G36*
X105809725Y-97347649D02*
G01*
X105814342Y-97352469D01*
X105954086Y-97624365D01*
X105955380Y-97629713D01*
X105955380Y-97694737D01*
X105967013Y-97753221D01*
X106004843Y-97809838D01*
X106006590Y-97818621D01*
X106003388Y-97824611D01*
X105865384Y-97962616D01*
X105857111Y-97966043D01*
X105851515Y-97964618D01*
X105393231Y-97715016D01*
X105387604Y-97708049D01*
X105388003Y-97700298D01*
X105497109Y-97434609D01*
X105503422Y-97428258D01*
X105504820Y-97427775D01*
X105800839Y-97346534D01*
X105809725Y-97347649D01*
G37*
G04 #@! TD.AperFunction*
G04 #@! TA.AperFunction,Conductor*
G36*
X103807266Y-92963427D02*
G01*
X103809899Y-92967463D01*
X103946298Y-93318585D01*
X103946099Y-93327538D01*
X103942885Y-93331808D01*
X103687493Y-93544752D01*
X103678944Y-93547418D01*
X103672507Y-93544752D01*
X103417114Y-93331808D01*
X103412955Y-93323878D01*
X103413700Y-93318589D01*
X103550101Y-92967463D01*
X103556291Y-92960993D01*
X103561007Y-92960000D01*
X103798993Y-92960000D01*
X103807266Y-92963427D01*
G37*
G04 #@! TD.AperFunction*
G04 #@! TA.AperFunction,Conductor*
G36*
X114564809Y-91807417D02*
G01*
X115290810Y-92190122D01*
X115296529Y-92197010D01*
X115295703Y-92205927D01*
X115291845Y-92210205D01*
X114564169Y-92695551D01*
X114555385Y-92697290D01*
X114550943Y-92695385D01*
X114219153Y-92461854D01*
X114217614Y-92460559D01*
X114047342Y-92290287D01*
X114043915Y-92282014D01*
X114047342Y-92273741D01*
X114047649Y-92273445D01*
X114551425Y-91809162D01*
X114559830Y-91806077D01*
X114564809Y-91807417D01*
G37*
G04 #@! TD.AperFunction*
G04 #@! TA.AperFunction,Conductor*
G36*
X107804856Y-100669164D02*
G01*
X107808406Y-100671595D01*
X107938808Y-100801997D01*
X107942235Y-100810270D01*
X107941139Y-100815214D01*
X107906028Y-100890513D01*
X107899500Y-100940099D01*
X107899500Y-100970404D01*
X107897614Y-100976774D01*
X107705532Y-101272717D01*
X107698153Y-101277791D01*
X107690785Y-101276956D01*
X107424618Y-101153183D01*
X107418562Y-101146588D01*
X107418100Y-101144967D01*
X107356755Y-100849704D01*
X107358427Y-100840908D01*
X107363978Y-100836417D01*
X107795905Y-100668959D01*
X107804856Y-100669164D01*
G37*
G04 #@! TD.AperFunction*
G04 #@! TA.AperFunction,Conductor*
G36*
X110641215Y-97420741D02*
G01*
X110648373Y-97426119D01*
X110650000Y-97432071D01*
X110650000Y-97667928D01*
X110646573Y-97676201D01*
X110641214Y-97679259D01*
X110462590Y-97725191D01*
X110459676Y-97725560D01*
X110419823Y-97725560D01*
X110336534Y-97747877D01*
X110307537Y-97764618D01*
X110304601Y-97765816D01*
X110255471Y-97778449D01*
X110246605Y-97777191D01*
X110241764Y-97771635D01*
X110227568Y-97737717D01*
X110150889Y-97554515D01*
X110150857Y-97545563D01*
X110241764Y-97328363D01*
X110248120Y-97322055D01*
X110255471Y-97321550D01*
X110641215Y-97420741D01*
G37*
G04 #@! TD.AperFunction*
G04 #@! TA.AperFunction,Conductor*
G36*
X113287599Y-95649970D02*
G01*
X113295863Y-95653416D01*
X113299270Y-95661697D01*
X113299248Y-95662379D01*
X113273918Y-96079617D01*
X113270513Y-96087181D01*
X113103507Y-96254187D01*
X113095234Y-96257614D01*
X113086961Y-96254187D01*
X113085930Y-96253008D01*
X112794049Y-95870238D01*
X112791758Y-95861582D01*
X112795050Y-95854901D01*
X112995851Y-95652757D01*
X113004111Y-95649304D01*
X113287599Y-95649970D01*
G37*
G04 #@! TD.AperFunction*
G04 #@! TA.AperFunction,Conductor*
G36*
X109300707Y-98424489D02*
G01*
X109414805Y-98702360D01*
X108965539Y-98939262D01*
X108785934Y-98759657D01*
X109022836Y-98310391D01*
X109300707Y-98424489D01*
G37*
G04 #@! TD.AperFunction*
G04 #@! TA.AperFunction,Conductor*
G36*
X104784148Y-99798828D02*
G01*
X104791677Y-99808534D01*
X104808863Y-99837596D01*
X104922401Y-99951134D01*
X104922406Y-99951138D01*
X104974803Y-99982125D01*
X105060605Y-100032868D01*
X105060606Y-100032868D01*
X105060607Y-100032869D01*
X105214796Y-100077665D01*
X105250819Y-100080500D01*
X105749180Y-100080499D01*
X105749185Y-100080498D01*
X105749194Y-100080498D01*
X105769469Y-100078902D01*
X105785204Y-100077665D01*
X105939393Y-100032869D01*
X106025197Y-99982125D01*
X106054337Y-99964892D01*
X106091466Y-99959607D01*
X106121456Y-99982125D01*
X106128280Y-100007068D01*
X106128280Y-100423682D01*
X106544132Y-100007830D01*
X106578780Y-99993478D01*
X106613428Y-100007830D01*
X106627780Y-100042478D01*
X106627780Y-100257440D01*
X106613428Y-100292088D01*
X106204552Y-100700963D01*
X106204552Y-100700964D01*
X106271091Y-100789848D01*
X106386188Y-100876011D01*
X106520906Y-100926258D01*
X106580446Y-100932660D01*
X106590500Y-100932660D01*
X106625148Y-100947012D01*
X106639500Y-100981660D01*
X106639500Y-101384692D01*
X106642356Y-101420991D01*
X106642356Y-101420993D01*
X106687506Y-101576397D01*
X106688731Y-101579227D01*
X106687601Y-101579715D01*
X106692295Y-101612685D01*
X106669777Y-101642676D01*
X106644834Y-101649500D01*
X103627606Y-101649500D01*
X103592958Y-101635148D01*
X103578606Y-101600500D01*
X103592958Y-101565852D01*
X103608854Y-101555230D01*
X103624028Y-101548944D01*
X103698049Y-101518284D01*
X103902450Y-101400273D01*
X103903875Y-101399180D01*
X104076966Y-101266362D01*
X104089699Y-101256592D01*
X104256592Y-101089699D01*
X104400273Y-100902450D01*
X104518284Y-100698049D01*
X104608606Y-100479993D01*
X104669693Y-100252014D01*
X104700500Y-100018011D01*
X104700500Y-99833476D01*
X104714852Y-99798828D01*
X104749500Y-99784476D01*
X104784148Y-99798828D01*
G37*
G04 #@! TD.AperFunction*
G04 #@! TA.AperFunction,Conductor*
G36*
X116280632Y-89857573D02*
G01*
X116281149Y-89857607D01*
X116284100Y-89857607D01*
X116284104Y-89857608D01*
X116347245Y-89857607D01*
X116352732Y-89857915D01*
X116392477Y-89862393D01*
X116455661Y-89869512D01*
X116466357Y-89871953D01*
X116561507Y-89905247D01*
X116571392Y-89910007D01*
X116650120Y-89959475D01*
X116656754Y-89963643D01*
X116665333Y-89970485D01*
X116736614Y-90041766D01*
X116743456Y-90050345D01*
X116797092Y-90135707D01*
X116801852Y-90145593D01*
X116835145Y-90240741D01*
X116837587Y-90251438D01*
X116849184Y-90354368D01*
X116849492Y-90359854D01*
X116849492Y-90425991D01*
X116849493Y-90426008D01*
X116849497Y-99172389D01*
X116835145Y-99207037D01*
X116800497Y-99221389D01*
X116765849Y-99207037D01*
X116755227Y-99191140D01*
X116750016Y-99178559D01*
X116718284Y-99101951D01*
X116600273Y-98897550D01*
X116600270Y-98897546D01*
X116600264Y-98897537D01*
X116456596Y-98710306D01*
X116456586Y-98710294D01*
X116289705Y-98543413D01*
X116289693Y-98543403D01*
X116102462Y-98399735D01*
X116102447Y-98399725D01*
X115898050Y-98281716D01*
X115679996Y-98191395D01*
X115679986Y-98191391D01*
X115452025Y-98130309D01*
X115452018Y-98130308D01*
X115452014Y-98130307D01*
X115218011Y-98099500D01*
X114981989Y-98099500D01*
X114747986Y-98130307D01*
X114747982Y-98130307D01*
X114747974Y-98130309D01*
X114520013Y-98191391D01*
X114520003Y-98191395D01*
X114301949Y-98281716D01*
X114097552Y-98399725D01*
X114097538Y-98399734D01*
X114072380Y-98419039D01*
X114036155Y-98428745D01*
X114003677Y-98409992D01*
X113993971Y-98373767D01*
X114007902Y-98345518D01*
X114047411Y-98306010D01*
X114060572Y-98286313D01*
X114116083Y-98203235D01*
X114136731Y-98153386D01*
X114163386Y-98089037D01*
X114187500Y-97967805D01*
X114187500Y-97844199D01*
X114187500Y-97254019D01*
X114190629Y-97236789D01*
X114203518Y-97202475D01*
X114228449Y-97175406D01*
X114245650Y-97167276D01*
X114256508Y-97162145D01*
X114267886Y-97158387D01*
X114293035Y-97153386D01*
X114376319Y-97118888D01*
X114407233Y-97106083D01*
X114510008Y-97037411D01*
X114510017Y-97037401D01*
X114511873Y-97035880D01*
X114511965Y-97035992D01*
X114521382Y-97028998D01*
X114789362Y-96885409D01*
X114808657Y-96879753D01*
X114835204Y-96877665D01*
X114939321Y-96847416D01*
X114942434Y-96846622D01*
X114971821Y-96840158D01*
X115057769Y-96807873D01*
X115092229Y-96807873D01*
X115178178Y-96840158D01*
X115178182Y-96840159D01*
X115261111Y-96862082D01*
X115262259Y-96862401D01*
X115314796Y-96877665D01*
X115350819Y-96880500D01*
X115849180Y-96880499D01*
X115849185Y-96880498D01*
X115849194Y-96880498D01*
X115869469Y-96878902D01*
X115885204Y-96877665D01*
X116039393Y-96832869D01*
X116177598Y-96751135D01*
X116291135Y-96637598D01*
X116372869Y-96499393D01*
X116417665Y-96345204D01*
X116420500Y-96309181D01*
X116420499Y-95910820D01*
X116419556Y-95898839D01*
X116417665Y-95874796D01*
X116389291Y-95777132D01*
X116372869Y-95720607D01*
X116372360Y-95719747D01*
X116355482Y-95691208D01*
X116316292Y-95624942D01*
X116311008Y-95587815D01*
X116316290Y-95575060D01*
X116372869Y-95479393D01*
X116417665Y-95325204D01*
X116420500Y-95289181D01*
X116420499Y-94890820D01*
X116419254Y-94875000D01*
X116417665Y-94854796D01*
X116401600Y-94799500D01*
X116372869Y-94700607D01*
X116339832Y-94644745D01*
X116296502Y-94571477D01*
X116294377Y-94567472D01*
X116232199Y-94435917D01*
X116227500Y-94414979D01*
X116227500Y-94272287D01*
X116241852Y-94237639D01*
X116244413Y-94235255D01*
X116270291Y-94212832D01*
X116270294Y-94212829D01*
X116364515Y-94104091D01*
X116442247Y-93983137D01*
X116502017Y-93852259D01*
X116542524Y-93714304D01*
X116563000Y-93571889D01*
X116563000Y-92950000D01*
X116563000Y-92949992D01*
X116557855Y-92878062D01*
X116557855Y-92878060D01*
X116548095Y-92844822D01*
X116549200Y-92813892D01*
X116551591Y-92807483D01*
X116558000Y-92747873D01*
X116557999Y-91652128D01*
X116557999Y-91652120D01*
X116551592Y-91592521D01*
X116542597Y-91568404D01*
X116501296Y-91457669D01*
X116415046Y-91342454D01*
X116345814Y-91290627D01*
X116299833Y-91256205D01*
X116299831Y-91256204D01*
X116254881Y-91239439D01*
X116164979Y-91205907D01*
X116105379Y-91199500D01*
X114509620Y-91199500D01*
X114450021Y-91205907D01*
X114315166Y-91256205D01*
X114199954Y-91342454D01*
X114113702Y-91457670D01*
X114079453Y-91549496D01*
X114066750Y-91568404D01*
X113940294Y-91684947D01*
X113934311Y-91689656D01*
X113899995Y-91712586D01*
X113779491Y-91833089D01*
X113778051Y-91834471D01*
X113705101Y-91901703D01*
X113696759Y-91909567D01*
X113696479Y-91909837D01*
X113666396Y-91942717D01*
X113655173Y-91951825D01*
X113355873Y-92128685D01*
X113340863Y-92137911D01*
X113340855Y-92137917D01*
X113337692Y-92140643D01*
X113331779Y-92145010D01*
X113229108Y-92209523D01*
X113229106Y-92209525D01*
X113109524Y-92329108D01*
X113109521Y-92329112D01*
X113019545Y-92472308D01*
X113019544Y-92472310D01*
X112963688Y-92631937D01*
X112963686Y-92631946D01*
X112944751Y-92800000D01*
X112962285Y-92955621D01*
X112963687Y-92968059D01*
X113019544Y-93127690D01*
X113109523Y-93270890D01*
X113229110Y-93390477D01*
X113372310Y-93480456D01*
X113531941Y-93536313D01*
X113700000Y-93555249D01*
X113868059Y-93536313D01*
X113986816Y-93494758D01*
X114024260Y-93496861D01*
X114049250Y-93524824D01*
X114052000Y-93541008D01*
X114052000Y-93571893D01*
X114072475Y-93714301D01*
X114072476Y-93714304D01*
X114102149Y-93815364D01*
X114098140Y-93852653D01*
X114068939Y-93876184D01*
X114045577Y-93877228D01*
X114021803Y-93872500D01*
X113333038Y-93872500D01*
X113313290Y-93868344D01*
X113277658Y-93852653D01*
X113056859Y-93755420D01*
X112449358Y-93487896D01*
X112443309Y-93485278D01*
X112443207Y-93485235D01*
X112443194Y-93485230D01*
X112443173Y-93485221D01*
X112423454Y-93478142D01*
X112388491Y-93465590D01*
X112382496Y-93464719D01*
X112371844Y-93461920D01*
X112307461Y-93436977D01*
X112307456Y-93436976D01*
X112106976Y-93399500D01*
X111903024Y-93399500D01*
X111702544Y-93436976D01*
X111702540Y-93436977D01*
X111702537Y-93436978D01*
X111512366Y-93510650D01*
X111338954Y-93618022D01*
X111297824Y-93655516D01*
X111262550Y-93668252D01*
X111228602Y-93652314D01*
X111228382Y-93652071D01*
X111072521Y-93478140D01*
X111063743Y-93464190D01*
X111062803Y-93461920D01*
X111061083Y-93457767D01*
X110992411Y-93354992D01*
X110905008Y-93267589D01*
X110702249Y-93064830D01*
X110700405Y-93062883D01*
X110688912Y-93050058D01*
X110657779Y-93015315D01*
X110648493Y-93005231D01*
X110648459Y-93005194D01*
X110648061Y-93004774D01*
X110648057Y-93004770D01*
X110648053Y-93004766D01*
X110598070Y-92958606D01*
X110598068Y-92958604D01*
X110598065Y-92958602D01*
X110596005Y-92957066D01*
X110596057Y-92956994D01*
X110588688Y-92951269D01*
X109750007Y-92112588D01*
X109726903Y-92097151D01*
X109647233Y-92043917D01*
X109647230Y-92043915D01*
X109647229Y-92043915D01*
X109613784Y-92030062D01*
X109533038Y-91996615D01*
X109533032Y-91996613D01*
X109484142Y-91986888D01*
X109411803Y-91972500D01*
X109411800Y-91972500D01*
X104370856Y-91972500D01*
X104350623Y-91968128D01*
X104124430Y-91865579D01*
X104119721Y-91863128D01*
X104076395Y-91837506D01*
X103920992Y-91792356D01*
X103884692Y-91789500D01*
X103884690Y-91789500D01*
X103475310Y-91789500D01*
X103475307Y-91789500D01*
X103439008Y-91792356D01*
X103439006Y-91792356D01*
X103283606Y-91837505D01*
X103224452Y-91872489D01*
X103187323Y-91877772D01*
X103174566Y-91872488D01*
X103116198Y-91837969D01*
X102970000Y-91795493D01*
X102970000Y-92122163D01*
X102963177Y-92147105D01*
X102947506Y-92173604D01*
X102902356Y-92329006D01*
X102902356Y-92329008D01*
X102899500Y-92365307D01*
X102899500Y-92834692D01*
X102902356Y-92870991D01*
X102902356Y-92870993D01*
X102936084Y-92987083D01*
X102936765Y-92989690D01*
X102942504Y-93014454D01*
X102959131Y-93057258D01*
X102959131Y-93092742D01*
X102942502Y-93135551D01*
X102929167Y-93186657D01*
X102928809Y-93187955D01*
X102902357Y-93279004D01*
X102902356Y-93279008D01*
X102899500Y-93315307D01*
X102899500Y-93784692D01*
X102902356Y-93820991D01*
X102902356Y-93820993D01*
X102936084Y-93937083D01*
X102936765Y-93939690D01*
X102942505Y-93964455D01*
X102949763Y-93983138D01*
X102966675Y-94026673D01*
X102970000Y-94044416D01*
X102970000Y-94354504D01*
X102989829Y-94348744D01*
X103027106Y-94352859D01*
X103050554Y-94382127D01*
X103052500Y-94395798D01*
X103052500Y-95858196D01*
X103052500Y-95981802D01*
X103076614Y-96103034D01*
X103105610Y-96173035D01*
X103123917Y-96217232D01*
X103190605Y-96317038D01*
X103190606Y-96317039D01*
X103190608Y-96317042D01*
X103192588Y-96320006D01*
X104531760Y-97659178D01*
X104536091Y-97664134D01*
X104556172Y-97690497D01*
X104715919Y-97847598D01*
X104730559Y-97882124D01*
X104727446Y-97897488D01*
X104727991Y-97897647D01*
X104682334Y-98054795D01*
X104682334Y-98054797D01*
X104679500Y-98090816D01*
X104679500Y-98489179D01*
X104679501Y-98489194D01*
X104682334Y-98525203D01*
X104687625Y-98543413D01*
X104727131Y-98679393D01*
X104754657Y-98725938D01*
X104783706Y-98775057D01*
X104788989Y-98812186D01*
X104783706Y-98824943D01*
X104727130Y-98920608D01*
X104682334Y-99074795D01*
X104682334Y-99074797D01*
X104679500Y-99110816D01*
X104679500Y-99244821D01*
X104665148Y-99279469D01*
X104630500Y-99293821D01*
X104595852Y-99279469D01*
X104585230Y-99263573D01*
X104547462Y-99172394D01*
X104518284Y-99101951D01*
X104502605Y-99074795D01*
X104441609Y-98969146D01*
X104400273Y-98897550D01*
X104400270Y-98897546D01*
X104400264Y-98897537D01*
X104256596Y-98710306D01*
X104256586Y-98710294D01*
X104089705Y-98543413D01*
X104089693Y-98543403D01*
X103902462Y-98399735D01*
X103902447Y-98399725D01*
X103698050Y-98281716D01*
X103479996Y-98191395D01*
X103479986Y-98191391D01*
X103252025Y-98130309D01*
X103252018Y-98130308D01*
X103252014Y-98130307D01*
X103018011Y-98099500D01*
X102781989Y-98099500D01*
X102547986Y-98130307D01*
X102547982Y-98130307D01*
X102547974Y-98130309D01*
X102320013Y-98191391D01*
X102320003Y-98191395D01*
X102101949Y-98281716D01*
X101897552Y-98399725D01*
X101897537Y-98399735D01*
X101710306Y-98543403D01*
X101710294Y-98543413D01*
X101543413Y-98710294D01*
X101543403Y-98710306D01*
X101399735Y-98897537D01*
X101399725Y-98897552D01*
X101281716Y-99101949D01*
X101244770Y-99191146D01*
X101218251Y-99217664D01*
X101180748Y-99217664D01*
X101154230Y-99191145D01*
X101150500Y-99172394D01*
X101150500Y-93800000D01*
X101941210Y-93800000D01*
X101942854Y-93820913D01*
X101987969Y-93976198D01*
X102070277Y-94115373D01*
X102070281Y-94115378D01*
X102184621Y-94229718D01*
X102184626Y-94229722D01*
X102323802Y-94312031D01*
X102469999Y-94354505D01*
X102470000Y-94354504D01*
X102470000Y-93800000D01*
X101941210Y-93800000D01*
X101150500Y-93800000D01*
X101150500Y-93299999D01*
X101941208Y-93299999D01*
X101941209Y-93300000D01*
X102470000Y-93300000D01*
X102470000Y-92850000D01*
X101941210Y-92850000D01*
X101942854Y-92870913D01*
X101987968Y-93026195D01*
X102002080Y-93050058D01*
X102007363Y-93087186D01*
X102002080Y-93099942D01*
X101987968Y-93123804D01*
X101942854Y-93279085D01*
X101942854Y-93279086D01*
X101941208Y-93299999D01*
X101150500Y-93299999D01*
X101150500Y-92349999D01*
X101941208Y-92349999D01*
X101941209Y-92350000D01*
X102470000Y-92350000D01*
X102470000Y-91795494D01*
X102469999Y-91795493D01*
X102323801Y-91837969D01*
X102184626Y-91920277D01*
X102184621Y-91920281D01*
X102070281Y-92034621D01*
X102070277Y-92034626D01*
X101987969Y-92173801D01*
X101942854Y-92329085D01*
X101942854Y-92329086D01*
X101941208Y-92349999D01*
X101150500Y-92349999D01*
X101150500Y-90352752D01*
X101150808Y-90347266D01*
X101162406Y-90244332D01*
X101164848Y-90233637D01*
X101198145Y-90138477D01*
X101202897Y-90128610D01*
X101256541Y-90043235D01*
X101263375Y-90034666D01*
X101334666Y-89963375D01*
X101343235Y-89956541D01*
X101428610Y-89902897D01*
X101438477Y-89898145D01*
X101533640Y-89864847D01*
X101544330Y-89862406D01*
X101647262Y-89850808D01*
X101652758Y-89850501D01*
X116280632Y-89857573D01*
G37*
G04 #@! TD.AperFunction*
G04 #@! TA.AperFunction,Conductor*
G36*
X108520907Y-97573458D02*
G01*
X108580446Y-97579860D01*
X108926115Y-97579860D01*
X108985656Y-97573458D01*
X108988638Y-97572754D01*
X108988824Y-97573542D01*
X109017749Y-97573538D01*
X109017818Y-97573247D01*
X109019049Y-97573538D01*
X109019690Y-97573538D01*
X109020797Y-97573951D01*
X109020798Y-97573951D01*
X109020801Y-97573952D01*
X109062360Y-97578419D01*
X109080407Y-97580360D01*
X109354382Y-97580359D01*
X109389030Y-97594711D01*
X109403074Y-97623872D01*
X109413687Y-97718059D01*
X109469544Y-97877690D01*
X109559523Y-98020890D01*
X109679110Y-98140477D01*
X109822310Y-98230456D01*
X109981941Y-98286313D01*
X110150000Y-98305249D01*
X110318059Y-98286313D01*
X110360032Y-98271625D01*
X110370888Y-98269167D01*
X110381357Y-98268023D01*
X110429840Y-98255556D01*
X110466969Y-98260826D01*
X110489498Y-98290809D01*
X110488096Y-98317505D01*
X110488493Y-98317599D01*
X110487976Y-98319783D01*
X110487959Y-98320118D01*
X110487790Y-98320569D01*
X110487787Y-98320582D01*
X110481380Y-98380180D01*
X110481380Y-98725939D01*
X110487788Y-98785541D01*
X110487936Y-98785938D01*
X110487936Y-98786167D01*
X110488493Y-98788524D01*
X110487936Y-98788655D01*
X110487936Y-98817464D01*
X110488493Y-98817596D01*
X110487936Y-98819952D01*
X110487936Y-98820182D01*
X110487788Y-98820578D01*
X110481380Y-98880180D01*
X110481380Y-98969146D01*
X110467028Y-99003794D01*
X110432380Y-99018146D01*
X110427155Y-99017867D01*
X110426157Y-99017760D01*
X110080400Y-99017760D01*
X110020798Y-99024168D01*
X110020402Y-99024316D01*
X110020173Y-99024316D01*
X110017816Y-99024873D01*
X110017684Y-99024316D01*
X109988876Y-99024316D01*
X109988744Y-99024873D01*
X109986387Y-99024316D01*
X109986158Y-99024316D01*
X109985761Y-99024168D01*
X109985762Y-99024168D01*
X109926159Y-99017760D01*
X109580400Y-99017760D01*
X109520798Y-99024168D01*
X109520402Y-99024316D01*
X109520173Y-99024316D01*
X109517816Y-99024873D01*
X109517684Y-99024316D01*
X109488876Y-99024316D01*
X109488744Y-99024873D01*
X109486387Y-99024316D01*
X109486158Y-99024316D01*
X109485761Y-99024168D01*
X109485762Y-99024168D01*
X109426159Y-99017760D01*
X109080400Y-99017760D01*
X109020799Y-99024168D01*
X109020796Y-99024168D01*
X109019677Y-99024586D01*
X109019031Y-99024586D01*
X109017817Y-99024873D01*
X109017749Y-99024586D01*
X108988818Y-99024586D01*
X108988634Y-99025366D01*
X108985650Y-99024660D01*
X108926114Y-99018260D01*
X108580446Y-99018260D01*
X108520909Y-99024660D01*
X108517926Y-99025366D01*
X108517742Y-99024587D01*
X108488809Y-99024585D01*
X108488741Y-99024873D01*
X108487522Y-99024585D01*
X108486879Y-99024585D01*
X108485763Y-99024169D01*
X108485757Y-99024167D01*
X108426159Y-99017760D01*
X108080400Y-99017760D01*
X108020798Y-99024168D01*
X108020402Y-99024316D01*
X108020173Y-99024316D01*
X108017816Y-99024873D01*
X108017684Y-99024316D01*
X107988876Y-99024316D01*
X107988744Y-99024873D01*
X107986387Y-99024316D01*
X107986158Y-99024316D01*
X107985761Y-99024168D01*
X107985762Y-99024168D01*
X107926159Y-99017760D01*
X107580400Y-99017760D01*
X107522917Y-99023940D01*
X107486933Y-99013374D01*
X107468961Y-98980458D01*
X107468680Y-98975221D01*
X107468680Y-98880215D01*
X107462279Y-98820679D01*
X107461574Y-98817697D01*
X107462359Y-98817511D01*
X107462360Y-98788599D01*
X107462065Y-98788530D01*
X107462360Y-98787277D01*
X107462360Y-98786642D01*
X107462771Y-98785543D01*
X107469180Y-98725933D01*
X107469179Y-98380188D01*
X107469179Y-98380187D01*
X107469179Y-98380180D01*
X107462772Y-98320582D01*
X107462771Y-98320580D01*
X107462771Y-98320577D01*
X107462627Y-98320190D01*
X107462627Y-98319967D01*
X107462066Y-98317593D01*
X107462627Y-98317460D01*
X107462627Y-98288652D01*
X107462067Y-98288520D01*
X107462627Y-98286147D01*
X107462627Y-98285926D01*
X107462771Y-98285543D01*
X107463183Y-98281716D01*
X107466013Y-98255390D01*
X107469180Y-98225933D01*
X107469179Y-97880188D01*
X107469179Y-97880180D01*
X107462772Y-97820581D01*
X107462771Y-97820578D01*
X107461786Y-97817937D01*
X107461788Y-97785393D01*
X107461574Y-97785343D01*
X107461788Y-97784434D01*
X107461789Y-97783674D01*
X107462279Y-97782360D01*
X107468680Y-97722824D01*
X107468680Y-97622898D01*
X107483032Y-97588250D01*
X107517680Y-97573898D01*
X107522916Y-97574178D01*
X107580407Y-97580360D01*
X107926152Y-97580359D01*
X107926158Y-97580359D01*
X107985757Y-97573952D01*
X107985758Y-97573951D01*
X107985763Y-97573951D01*
X107986143Y-97573808D01*
X107986364Y-97573808D01*
X107988747Y-97573246D01*
X107988879Y-97573808D01*
X108017687Y-97573806D01*
X108017820Y-97573247D01*
X108020184Y-97573806D01*
X108020408Y-97573806D01*
X108020797Y-97573951D01*
X108020801Y-97573951D01*
X108020803Y-97573952D01*
X108020802Y-97573952D01*
X108059628Y-97578125D01*
X108080407Y-97580360D01*
X108426152Y-97580359D01*
X108426158Y-97580359D01*
X108485758Y-97573952D01*
X108485759Y-97573951D01*
X108485763Y-97573951D01*
X108486862Y-97573541D01*
X108487499Y-97573541D01*
X108488747Y-97573246D01*
X108488817Y-97573541D01*
X108517734Y-97573541D01*
X108517920Y-97572753D01*
X108520907Y-97573458D01*
G37*
G04 #@! TD.AperFunction*
G04 #@! TA.AperFunction,Conductor*
G36*
X109104433Y-93241852D02*
G01*
X109185851Y-93323270D01*
X109200203Y-93357918D01*
X109185851Y-93392566D01*
X109151203Y-93406918D01*
X109142200Y-93406084D01*
X109106976Y-93399500D01*
X108903024Y-93399500D01*
X108702544Y-93436976D01*
X108702540Y-93436977D01*
X108702537Y-93436978D01*
X108512366Y-93510650D01*
X108338954Y-93618022D01*
X108287637Y-93664802D01*
X108252363Y-93677538D01*
X108221616Y-93664801D01*
X108170742Y-93618423D01*
X107997409Y-93511099D01*
X107807325Y-93437461D01*
X107606928Y-93400000D01*
X107403072Y-93400000D01*
X107202674Y-93437461D01*
X107012590Y-93511099D01*
X106839257Y-93618423D01*
X106788380Y-93664802D01*
X106753106Y-93677538D01*
X106722359Y-93664801D01*
X106671045Y-93618022D01*
X106671042Y-93618020D01*
X106671041Y-93618019D01*
X106497637Y-93510652D01*
X106497634Y-93510651D01*
X106497633Y-93510650D01*
X106307462Y-93436978D01*
X106307460Y-93436977D01*
X106307456Y-93436976D01*
X106106976Y-93399500D01*
X105903024Y-93399500D01*
X105702544Y-93436976D01*
X105702540Y-93436977D01*
X105702537Y-93436978D01*
X105512366Y-93510650D01*
X105338954Y-93618022D01*
X105188236Y-93755420D01*
X105188233Y-93755423D01*
X105065328Y-93918177D01*
X105065325Y-93918181D01*
X104974420Y-94100744D01*
X104974417Y-94100751D01*
X104918603Y-94296914D01*
X104918602Y-94296920D01*
X104899785Y-94500000D01*
X104918602Y-94703079D01*
X104918603Y-94703085D01*
X104974417Y-94899248D01*
X104974420Y-94899255D01*
X105065325Y-95081818D01*
X105065328Y-95081822D01*
X105188233Y-95244576D01*
X105188236Y-95244579D01*
X105338954Y-95381977D01*
X105338955Y-95381978D01*
X105338959Y-95381981D01*
X105512363Y-95489348D01*
X105702544Y-95563024D01*
X105903024Y-95600500D01*
X105903026Y-95600500D01*
X106106974Y-95600500D01*
X106106976Y-95600500D01*
X106307456Y-95563024D01*
X106497637Y-95489348D01*
X106671041Y-95381981D01*
X106722364Y-95335193D01*
X106757632Y-95322459D01*
X106788381Y-95335195D01*
X106817805Y-95362018D01*
X106833742Y-95395967D01*
X106821006Y-95431241D01*
X106819443Y-95432878D01*
X106765867Y-95486454D01*
X106763933Y-95489349D01*
X106697197Y-95589227D01*
X106696026Y-95592054D01*
X106687381Y-95612923D01*
X106678355Y-95634713D01*
X106651835Y-95661231D01*
X106633086Y-95664960D01*
X106580400Y-95664960D01*
X106520801Y-95671367D01*
X106385946Y-95721665D01*
X106270733Y-95807914D01*
X106211411Y-95887157D01*
X106179157Y-95906293D01*
X106142820Y-95897018D01*
X106137537Y-95892440D01*
X106065378Y-95820281D01*
X106065373Y-95820277D01*
X105926198Y-95737969D01*
X105770913Y-95692854D01*
X105750000Y-95691208D01*
X105750000Y-96600500D01*
X105735648Y-96635148D01*
X105701000Y-96649500D01*
X105582254Y-96649500D01*
X105574477Y-96648879D01*
X105546247Y-96644341D01*
X105546247Y-96644340D01*
X105307286Y-96640376D01*
X105273451Y-96626031D01*
X105264352Y-96616932D01*
X105250000Y-96582284D01*
X105250000Y-95691209D01*
X105249999Y-95691208D01*
X105229086Y-95692854D01*
X105229085Y-95692854D01*
X105073801Y-95737969D01*
X104934626Y-95820277D01*
X104934621Y-95820281D01*
X104820281Y-95934621D01*
X104820277Y-95934626D01*
X104763901Y-96029952D01*
X104733910Y-96052470D01*
X104696782Y-96047185D01*
X104687077Y-96039657D01*
X104321852Y-95674432D01*
X104307500Y-95639784D01*
X104307500Y-94256790D01*
X104310825Y-94239047D01*
X104312298Y-94235255D01*
X104417494Y-93964457D01*
X104430872Y-93913189D01*
X104431171Y-93912105D01*
X104457643Y-93820993D01*
X104460500Y-93784690D01*
X104460500Y-93315310D01*
X104459204Y-93298844D01*
X104457749Y-93280343D01*
X104469339Y-93244676D01*
X104502755Y-93227651D01*
X104506598Y-93227500D01*
X109069785Y-93227500D01*
X109104433Y-93241852D01*
G37*
G04 #@! TD.AperFunction*
M02*
