G04 #@! TF.GenerationSoftware,KiCad,Pcbnew,8.0.2-8.0.2-0~ubuntu22.04.1*
G04 #@! TF.CreationDate,2024-06-06T03:56:06-07:00*
G04 #@! TF.ProjectId,uSlime_BNO085,75536c69-6d65-45f4-924e-4f3038352e6b,rev?*
G04 #@! TF.SameCoordinates,Original*
G04 #@! TF.FileFunction,Soldermask,Top*
G04 #@! TF.FilePolarity,Negative*
%FSLAX46Y46*%
G04 Gerber Fmt 4.6, Leading zero omitted, Abs format (unit mm)*
G04 Created by KiCad (PCBNEW 8.0.2-8.0.2-0~ubuntu22.04.1) date 2024-06-06 03:56:06*
%MOMM*%
%LPD*%
G01*
G04 APERTURE LIST*
G04 Aperture macros list*
%AMRoundRect*
0 Rectangle with rounded corners*
0 $1 Rounding radius*
0 $2 $3 $4 $5 $6 $7 $8 $9 X,Y pos of 4 corners*
0 Add a 4 corners polygon primitive as box body*
4,1,4,$2,$3,$4,$5,$6,$7,$8,$9,$2,$3,0*
0 Add four circle primitives for the rounded corners*
1,1,$1+$1,$2,$3*
1,1,$1+$1,$4,$5*
1,1,$1+$1,$6,$7*
1,1,$1+$1,$8,$9*
0 Add four rect primitives between the rounded corners*
20,1,$1+$1,$2,$3,$4,$5,0*
20,1,$1+$1,$4,$5,$6,$7,0*
20,1,$1+$1,$6,$7,$8,$9,0*
20,1,$1+$1,$8,$9,$2,$3,0*%
G04 Aperture macros list end*
%ADD10RoundRect,0.140000X0.140000X0.170000X-0.140000X0.170000X-0.140000X-0.170000X0.140000X-0.170000X0*%
%ADD11RoundRect,0.135000X-0.185000X0.135000X-0.185000X-0.135000X0.185000X-0.135000X0.185000X0.135000X0*%
%ADD12RoundRect,0.140000X0.170000X-0.140000X0.170000X0.140000X-0.170000X0.140000X-0.170000X-0.140000X0*%
%ADD13C,3.100000*%
%ADD14RoundRect,0.135000X0.135000X0.185000X-0.135000X0.185000X-0.135000X-0.185000X0.135000X-0.185000X0*%
%ADD15RoundRect,0.135000X0.185000X-0.135000X0.185000X0.135000X-0.185000X0.135000X-0.185000X-0.135000X0*%
%ADD16C,1.200000*%
%ADD17R,0.304800X0.431800*%
%ADD18R,0.431800X0.304800*%
%ADD19RoundRect,0.135000X-0.135000X-0.185000X0.135000X-0.185000X0.135000X0.185000X-0.135000X0.185000X0*%
G04 APERTURE END LIST*
D10*
X107530000Y-100750000D03*
X106570000Y-100750000D03*
D11*
X112400000Y-97290000D03*
X112400000Y-98310000D03*
D12*
X105650000Y-98380000D03*
X105650000Y-97420000D03*
D13*
X115100000Y-99900000D03*
D12*
X103900000Y-95530000D03*
X103900000Y-94570000D03*
D14*
X109560000Y-100750000D03*
X108540000Y-100750000D03*
D10*
X111480000Y-100750000D03*
X110520000Y-100750000D03*
D12*
X114100000Y-95460000D03*
X114100000Y-94500000D03*
D15*
X112400000Y-100210000D03*
X112400000Y-99190000D03*
D16*
X112005000Y-94500000D03*
X110505000Y-94500000D03*
X109005000Y-94500000D03*
X107505000Y-94500000D03*
X106005000Y-94500000D03*
D17*
X106749999Y-99687500D03*
X107250001Y-99687500D03*
X107750000Y-99687500D03*
X108249999Y-99687500D03*
X108750000Y-99687500D03*
X109250000Y-99687500D03*
X109750001Y-99687500D03*
X110250000Y-99687500D03*
X110749999Y-99687500D03*
X111250001Y-99687500D03*
D18*
X111286000Y-98850001D03*
X111286000Y-98350000D03*
X111286000Y-97850000D03*
X111286000Y-97349999D03*
D17*
X111250001Y-96512500D03*
X110749999Y-96512500D03*
X110250000Y-96512500D03*
X109750001Y-96512500D03*
X109250000Y-96512500D03*
X108750000Y-96512500D03*
X108249999Y-96512500D03*
X107750000Y-96512500D03*
X107250001Y-96512500D03*
X106749999Y-96512500D03*
D18*
X106714000Y-97349999D03*
X106714000Y-97850000D03*
X106714000Y-98350000D03*
X106714000Y-98850001D03*
D14*
X105610000Y-96500000D03*
X104590000Y-96500000D03*
D19*
X112340000Y-96400000D03*
X113360000Y-96400000D03*
D13*
X102900000Y-99900000D03*
M02*
