G04 #@! TF.GenerationSoftware,KiCad,Pcbnew,8.0.4-8.0.4-0~ubuntu22.04.1*
G04 #@! TF.CreationDate,2024-08-29T21:18:49-07:00*
G04 #@! TF.ProjectId,uSlime_BNO085,75536c69-6d65-45f4-924e-4f3038352e6b,rev?*
G04 #@! TF.SameCoordinates,Original*
G04 #@! TF.FileFunction,Legend,Top*
G04 #@! TF.FilePolarity,Positive*
%FSLAX46Y46*%
G04 Gerber Fmt 4.6, Leading zero omitted, Abs format (unit mm)*
G04 Created by KiCad (PCBNEW 8.0.4-8.0.4-0~ubuntu22.04.1) date 2024-08-29 21:18:49*
%MOMM*%
%LPD*%
G01*
G04 APERTURE LIST*
G04 Aperture macros list*
%AMRoundRect*
0 Rectangle with rounded corners*
0 $1 Rounding radius*
0 $2 $3 $4 $5 $6 $7 $8 $9 X,Y pos of 4 corners*
0 Add a 4 corners polygon primitive as box body*
4,1,4,$2,$3,$4,$5,$6,$7,$8,$9,$2,$3,0*
0 Add four circle primitives for the rounded corners*
1,1,$1+$1,$2,$3*
1,1,$1+$1,$4,$5*
1,1,$1+$1,$6,$7*
1,1,$1+$1,$8,$9*
0 Add four rect primitives between the rounded corners*
20,1,$1+$1,$2,$3,$4,$5,0*
20,1,$1+$1,$4,$5,$6,$7,0*
20,1,$1+$1,$6,$7,$8,$9,0*
20,1,$1+$1,$8,$9,$2,$3,0*%
%AMFreePoly0*
4,1,19,0.550000,-0.750000,0.000000,-0.750000,0.000000,-0.744911,-0.071157,-0.744911,-0.207708,-0.704816,-0.327430,-0.627875,-0.420627,-0.520320,-0.479746,-0.390866,-0.500000,-0.250000,-0.500000,0.250000,-0.479746,0.390866,-0.420627,0.520320,-0.327430,0.627875,-0.207708,0.704816,-0.071157,0.744911,0.000000,0.744911,0.000000,0.750000,0.550000,0.750000,0.550000,-0.750000,0.550000,-0.750000,
$1*%
%AMFreePoly1*
4,1,19,0.000000,0.744911,0.071157,0.744911,0.207708,0.704816,0.327430,0.627875,0.420627,0.520320,0.479746,0.390866,0.500000,0.250000,0.500000,-0.250000,0.479746,-0.390866,0.420627,-0.520320,0.327430,-0.627875,0.207708,-0.704816,0.071157,-0.744911,0.000000,-0.744911,0.000000,-0.750000,-0.550000,-0.750000,-0.550000,0.750000,0.000000,0.750000,0.000000,0.744911,0.000000,0.744911,
$1*%
G04 Aperture macros list end*
%ADD10C,0.150000*%
%ADD11C,0.152400*%
%ADD12C,0.120000*%
%ADD13C,0.254000*%
%ADD14C,0.101600*%
%ADD15RoundRect,0.140000X0.170000X-0.140000X0.170000X0.140000X-0.170000X0.140000X-0.170000X-0.140000X0*%
%ADD16RoundRect,0.140000X-0.140000X-0.170000X0.140000X-0.170000X0.140000X0.170000X-0.140000X0.170000X0*%
%ADD17RoundRect,0.135000X-0.135000X-0.185000X0.135000X-0.185000X0.135000X0.185000X-0.135000X0.185000X0*%
%ADD18C,3.100000*%
%ADD19RoundRect,0.140000X0.140000X0.170000X-0.140000X0.170000X-0.140000X-0.170000X0.140000X-0.170000X0*%
%ADD20FreePoly0,90.000000*%
%ADD21R,1.500000X1.000000*%
%ADD22FreePoly1,90.000000*%
%ADD23RoundRect,0.135000X-0.185000X0.135000X-0.185000X-0.135000X0.185000X-0.135000X0.185000X0.135000X0*%
%ADD24RoundRect,0.135000X0.135000X0.185000X-0.135000X0.185000X-0.135000X-0.185000X0.135000X-0.185000X0*%
%ADD25C,1.200000*%
%ADD26R,0.250000X0.914400*%
%ADD27R,0.812800X0.250000*%
G04 APERTURE END LIST*
D10*
X104849366Y-96766666D02*
X104882700Y-96799999D01*
X104882700Y-96799999D02*
X104916033Y-96899999D01*
X104916033Y-96899999D02*
X104916033Y-96966666D01*
X104916033Y-96966666D02*
X104882700Y-97066666D01*
X104882700Y-97066666D02*
X104816033Y-97133333D01*
X104816033Y-97133333D02*
X104749366Y-97166666D01*
X104749366Y-97166666D02*
X104616033Y-97199999D01*
X104616033Y-97199999D02*
X104516033Y-97199999D01*
X104516033Y-97199999D02*
X104382700Y-97166666D01*
X104382700Y-97166666D02*
X104316033Y-97133333D01*
X104316033Y-97133333D02*
X104249366Y-97066666D01*
X104249366Y-97066666D02*
X104216033Y-96966666D01*
X104216033Y-96966666D02*
X104216033Y-96899999D01*
X104216033Y-96899999D02*
X104249366Y-96799999D01*
X104249366Y-96799999D02*
X104282700Y-96766666D01*
X104216033Y-96533333D02*
X104216033Y-96099999D01*
X104216033Y-96099999D02*
X104482700Y-96333333D01*
X104482700Y-96333333D02*
X104482700Y-96233333D01*
X104482700Y-96233333D02*
X104516033Y-96166666D01*
X104516033Y-96166666D02*
X104549366Y-96133333D01*
X104549366Y-96133333D02*
X104616033Y-96099999D01*
X104616033Y-96099999D02*
X104782700Y-96099999D01*
X104782700Y-96099999D02*
X104849366Y-96133333D01*
X104849366Y-96133333D02*
X104882700Y-96166666D01*
X104882700Y-96166666D02*
X104916033Y-96233333D01*
X104916033Y-96233333D02*
X104916033Y-96433333D01*
X104916033Y-96433333D02*
X104882700Y-96499999D01*
X104882700Y-96499999D02*
X104849366Y-96533333D01*
X101483333Y-95799366D02*
X101450000Y-95832700D01*
X101450000Y-95832700D02*
X101350000Y-95866033D01*
X101350000Y-95866033D02*
X101283333Y-95866033D01*
X101283333Y-95866033D02*
X101183333Y-95832700D01*
X101183333Y-95832700D02*
X101116667Y-95766033D01*
X101116667Y-95766033D02*
X101083333Y-95699366D01*
X101083333Y-95699366D02*
X101050000Y-95566033D01*
X101050000Y-95566033D02*
X101050000Y-95466033D01*
X101050000Y-95466033D02*
X101083333Y-95332700D01*
X101083333Y-95332700D02*
X101116667Y-95266033D01*
X101116667Y-95266033D02*
X101183333Y-95199366D01*
X101183333Y-95199366D02*
X101283333Y-95166033D01*
X101283333Y-95166033D02*
X101350000Y-95166033D01*
X101350000Y-95166033D02*
X101450000Y-95199366D01*
X101450000Y-95199366D02*
X101483333Y-95232700D01*
X101750000Y-95232700D02*
X101783333Y-95199366D01*
X101783333Y-95199366D02*
X101850000Y-95166033D01*
X101850000Y-95166033D02*
X102016667Y-95166033D01*
X102016667Y-95166033D02*
X102083333Y-95199366D01*
X102083333Y-95199366D02*
X102116667Y-95232700D01*
X102116667Y-95232700D02*
X102150000Y-95299366D01*
X102150000Y-95299366D02*
X102150000Y-95366033D01*
X102150000Y-95366033D02*
X102116667Y-95466033D01*
X102116667Y-95466033D02*
X101716667Y-95866033D01*
X101716667Y-95866033D02*
X102150000Y-95866033D01*
X111333333Y-101492893D02*
X111100000Y-101159560D01*
X110933333Y-101492893D02*
X110933333Y-100792893D01*
X110933333Y-100792893D02*
X111200000Y-100792893D01*
X111200000Y-100792893D02*
X111266667Y-100826226D01*
X111266667Y-100826226D02*
X111300000Y-100859560D01*
X111300000Y-100859560D02*
X111333333Y-100926226D01*
X111333333Y-100926226D02*
X111333333Y-101026226D01*
X111333333Y-101026226D02*
X111300000Y-101092893D01*
X111300000Y-101092893D02*
X111266667Y-101126226D01*
X111266667Y-101126226D02*
X111200000Y-101159560D01*
X111200000Y-101159560D02*
X110933333Y-101159560D01*
X111600000Y-100859560D02*
X111633333Y-100826226D01*
X111633333Y-100826226D02*
X111700000Y-100792893D01*
X111700000Y-100792893D02*
X111866667Y-100792893D01*
X111866667Y-100792893D02*
X111933333Y-100826226D01*
X111933333Y-100826226D02*
X111966667Y-100859560D01*
X111966667Y-100859560D02*
X112000000Y-100926226D01*
X112000000Y-100926226D02*
X112000000Y-100992893D01*
X112000000Y-100992893D02*
X111966667Y-101092893D01*
X111966667Y-101092893D02*
X111566667Y-101492893D01*
X111566667Y-101492893D02*
X112000000Y-101492893D01*
X106063333Y-101426226D02*
X106030000Y-101459560D01*
X106030000Y-101459560D02*
X105930000Y-101492893D01*
X105930000Y-101492893D02*
X105863333Y-101492893D01*
X105863333Y-101492893D02*
X105763333Y-101459560D01*
X105763333Y-101459560D02*
X105696667Y-101392893D01*
X105696667Y-101392893D02*
X105663333Y-101326226D01*
X105663333Y-101326226D02*
X105630000Y-101192893D01*
X105630000Y-101192893D02*
X105630000Y-101092893D01*
X105630000Y-101092893D02*
X105663333Y-100959560D01*
X105663333Y-100959560D02*
X105696667Y-100892893D01*
X105696667Y-100892893D02*
X105763333Y-100826226D01*
X105763333Y-100826226D02*
X105863333Y-100792893D01*
X105863333Y-100792893D02*
X105930000Y-100792893D01*
X105930000Y-100792893D02*
X106030000Y-100826226D01*
X106030000Y-100826226D02*
X106063333Y-100859560D01*
X106663333Y-101026226D02*
X106663333Y-101492893D01*
X106496667Y-100759560D02*
X106330000Y-101259560D01*
X106330000Y-101259560D02*
X106763333Y-101259560D01*
X116256033Y-96193666D02*
X115922700Y-96426999D01*
X116256033Y-96593666D02*
X115556033Y-96593666D01*
X115556033Y-96593666D02*
X115556033Y-96326999D01*
X115556033Y-96326999D02*
X115589366Y-96260333D01*
X115589366Y-96260333D02*
X115622700Y-96226999D01*
X115622700Y-96226999D02*
X115689366Y-96193666D01*
X115689366Y-96193666D02*
X115789366Y-96193666D01*
X115789366Y-96193666D02*
X115856033Y-96226999D01*
X115856033Y-96226999D02*
X115889366Y-96260333D01*
X115889366Y-96260333D02*
X115922700Y-96326999D01*
X115922700Y-96326999D02*
X115922700Y-96593666D01*
X115556033Y-95560333D02*
X115556033Y-95893666D01*
X115556033Y-95893666D02*
X115889366Y-95926999D01*
X115889366Y-95926999D02*
X115856033Y-95893666D01*
X115856033Y-95893666D02*
X115822700Y-95826999D01*
X115822700Y-95826999D02*
X115822700Y-95660333D01*
X115822700Y-95660333D02*
X115856033Y-95593666D01*
X115856033Y-95593666D02*
X115889366Y-95560333D01*
X115889366Y-95560333D02*
X115956033Y-95526999D01*
X115956033Y-95526999D02*
X116122700Y-95526999D01*
X116122700Y-95526999D02*
X116189366Y-95560333D01*
X116189366Y-95560333D02*
X116222700Y-95593666D01*
X116222700Y-95593666D02*
X116256033Y-95660333D01*
X116256033Y-95660333D02*
X116256033Y-95826999D01*
X116256033Y-95826999D02*
X116222700Y-95893666D01*
X116222700Y-95893666D02*
X116189366Y-95926999D01*
X101533333Y-94916033D02*
X101300000Y-94582700D01*
X101133333Y-94916033D02*
X101133333Y-94216033D01*
X101133333Y-94216033D02*
X101400000Y-94216033D01*
X101400000Y-94216033D02*
X101466667Y-94249366D01*
X101466667Y-94249366D02*
X101500000Y-94282700D01*
X101500000Y-94282700D02*
X101533333Y-94349366D01*
X101533333Y-94349366D02*
X101533333Y-94449366D01*
X101533333Y-94449366D02*
X101500000Y-94516033D01*
X101500000Y-94516033D02*
X101466667Y-94549366D01*
X101466667Y-94549366D02*
X101400000Y-94582700D01*
X101400000Y-94582700D02*
X101133333Y-94582700D01*
X101766667Y-94216033D02*
X102200000Y-94216033D01*
X102200000Y-94216033D02*
X101966667Y-94482700D01*
X101966667Y-94482700D02*
X102066667Y-94482700D01*
X102066667Y-94482700D02*
X102133333Y-94516033D01*
X102133333Y-94516033D02*
X102166667Y-94549366D01*
X102166667Y-94549366D02*
X102200000Y-94616033D01*
X102200000Y-94616033D02*
X102200000Y-94782700D01*
X102200000Y-94782700D02*
X102166667Y-94849366D01*
X102166667Y-94849366D02*
X102133333Y-94882700D01*
X102133333Y-94882700D02*
X102066667Y-94916033D01*
X102066667Y-94916033D02*
X101866667Y-94916033D01*
X101866667Y-94916033D02*
X101800000Y-94882700D01*
X101800000Y-94882700D02*
X101766667Y-94849366D01*
X108309523Y-92359580D02*
X108261904Y-92407200D01*
X108261904Y-92407200D02*
X108119047Y-92454819D01*
X108119047Y-92454819D02*
X108023809Y-92454819D01*
X108023809Y-92454819D02*
X107880952Y-92407200D01*
X107880952Y-92407200D02*
X107785714Y-92311961D01*
X107785714Y-92311961D02*
X107738095Y-92216723D01*
X107738095Y-92216723D02*
X107690476Y-92026247D01*
X107690476Y-92026247D02*
X107690476Y-91883390D01*
X107690476Y-91883390D02*
X107738095Y-91692914D01*
X107738095Y-91692914D02*
X107785714Y-91597676D01*
X107785714Y-91597676D02*
X107880952Y-91502438D01*
X107880952Y-91502438D02*
X108023809Y-91454819D01*
X108023809Y-91454819D02*
X108119047Y-91454819D01*
X108119047Y-91454819D02*
X108261904Y-91502438D01*
X108261904Y-91502438D02*
X108309523Y-91550057D01*
X108738095Y-92454819D02*
X108738095Y-91454819D01*
X108738095Y-91454819D02*
X109309523Y-92454819D01*
X109309523Y-92454819D02*
X109309523Y-91454819D01*
X110309523Y-92454819D02*
X109738095Y-92454819D01*
X110023809Y-92454819D02*
X110023809Y-91454819D01*
X110023809Y-91454819D02*
X109928571Y-91597676D01*
X109928571Y-91597676D02*
X109833333Y-91692914D01*
X109833333Y-91692914D02*
X109738095Y-91740533D01*
X101533333Y-96749366D02*
X101500000Y-96782700D01*
X101500000Y-96782700D02*
X101400000Y-96816033D01*
X101400000Y-96816033D02*
X101333333Y-96816033D01*
X101333333Y-96816033D02*
X101233333Y-96782700D01*
X101233333Y-96782700D02*
X101166667Y-96716033D01*
X101166667Y-96716033D02*
X101133333Y-96649366D01*
X101133333Y-96649366D02*
X101100000Y-96516033D01*
X101100000Y-96516033D02*
X101100000Y-96416033D01*
X101100000Y-96416033D02*
X101133333Y-96282700D01*
X101133333Y-96282700D02*
X101166667Y-96216033D01*
X101166667Y-96216033D02*
X101233333Y-96149366D01*
X101233333Y-96149366D02*
X101333333Y-96116033D01*
X101333333Y-96116033D02*
X101400000Y-96116033D01*
X101400000Y-96116033D02*
X101500000Y-96149366D01*
X101500000Y-96149366D02*
X101533333Y-96182700D01*
X102200000Y-96816033D02*
X101800000Y-96816033D01*
X102000000Y-96816033D02*
X102000000Y-96116033D01*
X102000000Y-96116033D02*
X101933333Y-96216033D01*
X101933333Y-96216033D02*
X101866667Y-96282700D01*
X101866667Y-96282700D02*
X101800000Y-96316033D01*
D11*
X108498295Y-97937727D02*
X108498295Y-98471510D01*
X108498295Y-98471510D02*
X108529694Y-98534308D01*
X108529694Y-98534308D02*
X108561093Y-98565708D01*
X108561093Y-98565708D02*
X108623891Y-98597107D01*
X108623891Y-98597107D02*
X108749487Y-98597107D01*
X108749487Y-98597107D02*
X108812285Y-98565708D01*
X108812285Y-98565708D02*
X108843684Y-98534308D01*
X108843684Y-98534308D02*
X108875083Y-98471510D01*
X108875083Y-98471510D02*
X108875083Y-97937727D01*
X109534463Y-98597107D02*
X109157675Y-98597107D01*
X109346069Y-98597107D02*
X109346069Y-97937727D01*
X109346069Y-97937727D02*
X109283271Y-98031924D01*
X109283271Y-98031924D02*
X109220473Y-98094722D01*
X109220473Y-98094722D02*
X109157675Y-98126121D01*
D10*
X112883333Y-97966033D02*
X112650000Y-97632700D01*
X112483333Y-97966033D02*
X112483333Y-97266033D01*
X112483333Y-97266033D02*
X112750000Y-97266033D01*
X112750000Y-97266033D02*
X112816667Y-97299366D01*
X112816667Y-97299366D02*
X112850000Y-97332700D01*
X112850000Y-97332700D02*
X112883333Y-97399366D01*
X112883333Y-97399366D02*
X112883333Y-97499366D01*
X112883333Y-97499366D02*
X112850000Y-97566033D01*
X112850000Y-97566033D02*
X112816667Y-97599366D01*
X112816667Y-97599366D02*
X112750000Y-97632700D01*
X112750000Y-97632700D02*
X112483333Y-97632700D01*
X113483333Y-97499366D02*
X113483333Y-97966033D01*
X113316667Y-97232700D02*
X113150000Y-97732700D01*
X113150000Y-97732700D02*
X113583333Y-97732700D01*
X104916033Y-98016666D02*
X104582700Y-98249999D01*
X104916033Y-98416666D02*
X104216033Y-98416666D01*
X104216033Y-98416666D02*
X104216033Y-98149999D01*
X104216033Y-98149999D02*
X104249366Y-98083333D01*
X104249366Y-98083333D02*
X104282700Y-98049999D01*
X104282700Y-98049999D02*
X104349366Y-98016666D01*
X104349366Y-98016666D02*
X104449366Y-98016666D01*
X104449366Y-98016666D02*
X104516033Y-98049999D01*
X104516033Y-98049999D02*
X104549366Y-98083333D01*
X104549366Y-98083333D02*
X104582700Y-98149999D01*
X104582700Y-98149999D02*
X104582700Y-98416666D01*
X104916033Y-97349999D02*
X104916033Y-97749999D01*
X104916033Y-97549999D02*
X104216033Y-97549999D01*
X104216033Y-97549999D02*
X104316033Y-97616666D01*
X104316033Y-97616666D02*
X104382700Y-97683333D01*
X104382700Y-97683333D02*
X104416033Y-97749999D01*
D12*
X105140000Y-97057836D02*
X105140000Y-96842164D01*
X105860000Y-97057836D02*
X105860000Y-96842164D01*
X103162164Y-95190000D02*
X103377836Y-95190000D01*
X103162164Y-95910000D02*
X103377836Y-95910000D01*
X109696359Y-100770000D02*
X110003641Y-100770000D01*
X109696359Y-101530000D02*
X110003641Y-101530000D01*
X108007836Y-100790000D02*
X107792164Y-100790000D01*
X108007836Y-101510000D02*
X107792164Y-101510000D01*
X114307500Y-93600000D02*
X114307500Y-90800000D01*
X115007500Y-90150000D02*
X115607500Y-90150000D01*
X115607500Y-94250000D02*
X115007500Y-94250000D01*
X116307500Y-90800000D02*
X116307500Y-93600000D01*
X116507500Y-93400000D02*
X116807500Y-93100000D01*
X116507500Y-93400000D02*
X116807500Y-93700000D01*
X116807500Y-93700000D02*
X116807500Y-93100000D01*
X114307500Y-90850000D02*
G75*
G02*
X115007500Y-90150000I700000J0D01*
G01*
X115007500Y-94250000D02*
G75*
G02*
X114307500Y-93550000I-1J699999D01*
G01*
X115607500Y-90150000D02*
G75*
G02*
X116307500Y-90850000I0J-700000D01*
G01*
X116307500Y-93550000D02*
G75*
G02*
X115607500Y-94250000I-699999J-1D01*
G01*
X114520000Y-95906359D02*
X114520000Y-96213641D01*
X115280000Y-95906359D02*
X115280000Y-96213641D01*
X103403641Y-94220000D02*
X103096359Y-94220000D01*
X103403641Y-94980000D02*
X103096359Y-94980000D01*
D13*
X104495000Y-95800000D02*
X105045000Y-95800000D01*
X104505000Y-95800000D02*
X104505000Y-89500000D01*
X105045000Y-95800000D02*
X105045000Y-95041000D01*
X105365000Y-95040000D02*
X104496000Y-95040000D01*
X106875000Y-95041000D02*
X106635000Y-95041000D01*
X108375000Y-95041000D02*
X108135000Y-95041000D01*
X109875000Y-95041000D02*
X109635000Y-95041000D01*
X111375000Y-95041000D02*
X111135000Y-95041000D01*
X112955000Y-95800000D02*
X112955000Y-95041000D01*
X113505000Y-89500000D02*
X104505000Y-89500000D01*
X113505000Y-89500000D02*
X113505000Y-95800000D01*
X113505000Y-95041000D02*
X112635000Y-95041000D01*
X113505000Y-95800000D02*
X112955000Y-95800000D01*
D12*
X112005000Y-93500000D02*
X111505000Y-92500000D01*
X112505000Y-92500000D01*
X112005000Y-93500000D01*
G36*
X112005000Y-93500000D02*
G01*
X111505000Y-92500000D01*
X112505000Y-92500000D01*
X112005000Y-93500000D01*
G37*
X103162164Y-96140000D02*
X103377836Y-96140000D01*
X103162164Y-96860000D02*
X103377836Y-96860000D01*
D14*
X106000680Y-96050000D02*
X106000680Y-97550000D01*
X106000680Y-99050000D02*
X106000680Y-100550000D01*
X106250690Y-96299990D02*
X106250690Y-100299980D01*
X107500680Y-96050000D02*
X106000680Y-96050000D01*
X107500680Y-100550000D02*
X106000680Y-100550000D01*
X111750680Y-96299990D02*
X106250690Y-96299990D01*
X111750680Y-96299990D02*
X111750680Y-100299980D01*
X111750680Y-100299980D02*
X106250690Y-100299980D01*
X112000670Y-96050000D02*
X110500670Y-96050000D01*
X112000670Y-96050000D02*
X112000670Y-97550000D01*
X112000670Y-99050000D02*
X112000670Y-100550000D01*
X112000670Y-100550000D02*
X110500670Y-100550000D01*
D13*
X105754200Y-96316930D02*
G75*
G02*
X105504260Y-96316930I-124970J0D01*
G01*
X105504260Y-96316930D02*
G75*
G02*
X105754200Y-96316930I124970J0D01*
G01*
D12*
X113203641Y-96170000D02*
X112896359Y-96170000D01*
X113203641Y-96930000D02*
X112896359Y-96930000D01*
X105120000Y-98646359D02*
X105120000Y-98953641D01*
X105880000Y-98646359D02*
X105880000Y-98953641D01*
%LPC*%
D15*
X105500000Y-97430000D03*
X105500000Y-96470000D03*
D16*
X102790000Y-95550000D03*
X103750000Y-95550000D03*
D17*
X109340000Y-101150000D03*
X110360000Y-101150000D03*
D18*
X115100000Y-99900000D03*
D19*
X108380000Y-101150000D03*
X107420000Y-101150000D03*
D20*
X115307500Y-93500000D03*
D21*
X115307500Y-92200000D03*
D22*
X115307500Y-90900000D03*
D23*
X114900000Y-95550000D03*
X114900000Y-96570000D03*
D24*
X103760000Y-94600000D03*
X102740000Y-94600000D03*
D25*
X112005000Y-94500000D03*
X110505000Y-94500000D03*
X109005000Y-94500000D03*
X107505000Y-94500000D03*
X106005000Y-94500000D03*
D16*
X102790000Y-96500000D03*
X103750000Y-96500000D03*
D26*
X106753280Y-96622660D03*
D27*
X106562280Y-97549990D03*
X106562280Y-98053060D03*
X106562280Y-98553060D03*
X106562280Y-99053050D03*
D26*
X106753280Y-99975460D03*
X107253280Y-99975460D03*
X107753280Y-99975460D03*
X108253280Y-99975460D03*
X108753280Y-99975460D03*
X109253280Y-99975460D03*
X109753280Y-99975460D03*
X110253280Y-99975460D03*
X110753280Y-99975460D03*
X111261280Y-99975460D03*
D27*
X111388280Y-99053060D03*
X111388280Y-98553060D03*
X111388280Y-98053060D03*
X111388280Y-97549990D03*
D26*
X111261280Y-96622660D03*
X110753280Y-96622660D03*
X110253280Y-96622660D03*
X109753280Y-96622660D03*
X109253280Y-96622660D03*
X108753280Y-96622660D03*
X108253280Y-96622660D03*
X107753280Y-96622660D03*
X107253280Y-96622660D03*
D24*
X113560000Y-96550000D03*
X112540000Y-96550000D03*
D23*
X105500000Y-98290000D03*
X105500000Y-99310000D03*
D18*
X102900000Y-99900000D03*
%LPD*%
M02*
