G04 #@! TF.GenerationSoftware,KiCad,Pcbnew,8.0.5-8.0.5-0~ubuntu22.04.1*
G04 #@! TF.CreationDate,2024-09-19T17:41:21-07:00*
G04 #@! TF.ProjectId,uSlime_BNO085,75536c69-6d65-45f4-924e-4f3038352e6b,rev?*
G04 #@! TF.SameCoordinates,Original*
G04 #@! TF.FileFunction,Legend,Bot*
G04 #@! TF.FilePolarity,Positive*
%FSLAX46Y46*%
G04 Gerber Fmt 4.6, Leading zero omitted, Abs format (unit mm)*
G04 Created by KiCad (PCBNEW 8.0.5-8.0.5-0~ubuntu22.04.1) date 2024-09-19 17:41:21*
%MOMM*%
%LPD*%
G01*
G04 APERTURE LIST*
%ADD10C,0.100000*%
%ADD11C,0.000000*%
%ADD12C,3.100000*%
%ADD13C,1.200000*%
G04 APERTURE END LIST*
D10*
X114350000Y-91331366D02*
X114416666Y-91331366D01*
X114416666Y-91331366D02*
X114483333Y-91298033D01*
X114483333Y-91298033D02*
X114516666Y-91264700D01*
X114516666Y-91264700D02*
X114550000Y-91198033D01*
X114550000Y-91198033D02*
X114583333Y-91064700D01*
X114583333Y-91064700D02*
X114583333Y-90898033D01*
X114583333Y-90898033D02*
X114550000Y-90764700D01*
X114550000Y-90764700D02*
X114516666Y-90698033D01*
X114516666Y-90698033D02*
X114483333Y-90664700D01*
X114483333Y-90664700D02*
X114416666Y-90631366D01*
X114416666Y-90631366D02*
X114350000Y-90631366D01*
X114350000Y-90631366D02*
X114283333Y-90664700D01*
X114283333Y-90664700D02*
X114250000Y-90698033D01*
X114250000Y-90698033D02*
X114216666Y-90764700D01*
X114216666Y-90764700D02*
X114183333Y-90898033D01*
X114183333Y-90898033D02*
X114183333Y-91064700D01*
X114183333Y-91064700D02*
X114216666Y-91198033D01*
X114216666Y-91198033D02*
X114250000Y-91264700D01*
X114250000Y-91264700D02*
X114283333Y-91298033D01*
X114283333Y-91298033D02*
X114350000Y-91331366D01*
X114816667Y-90631366D02*
X115183333Y-91098033D01*
X114816667Y-91098033D02*
X115183333Y-90631366D01*
X115750000Y-91098033D02*
X115750000Y-90631366D01*
X115583334Y-91364700D02*
X115416667Y-90864700D01*
X115416667Y-90864700D02*
X115850000Y-90864700D01*
X116083334Y-90831366D02*
X116416667Y-90831366D01*
X116016667Y-90631366D02*
X116250001Y-91331366D01*
X116250001Y-91331366D02*
X116483334Y-90631366D01*
X114300000Y-93831366D02*
X114366666Y-93831366D01*
X114366666Y-93831366D02*
X114433333Y-93798033D01*
X114433333Y-93798033D02*
X114466666Y-93764700D01*
X114466666Y-93764700D02*
X114500000Y-93698033D01*
X114500000Y-93698033D02*
X114533333Y-93564700D01*
X114533333Y-93564700D02*
X114533333Y-93398033D01*
X114533333Y-93398033D02*
X114500000Y-93264700D01*
X114500000Y-93264700D02*
X114466666Y-93198033D01*
X114466666Y-93198033D02*
X114433333Y-93164700D01*
X114433333Y-93164700D02*
X114366666Y-93131366D01*
X114366666Y-93131366D02*
X114300000Y-93131366D01*
X114300000Y-93131366D02*
X114233333Y-93164700D01*
X114233333Y-93164700D02*
X114200000Y-93198033D01*
X114200000Y-93198033D02*
X114166666Y-93264700D01*
X114166666Y-93264700D02*
X114133333Y-93398033D01*
X114133333Y-93398033D02*
X114133333Y-93564700D01*
X114133333Y-93564700D02*
X114166666Y-93698033D01*
X114166666Y-93698033D02*
X114200000Y-93764700D01*
X114200000Y-93764700D02*
X114233333Y-93798033D01*
X114233333Y-93798033D02*
X114300000Y-93831366D01*
X114766667Y-93131366D02*
X115133333Y-93598033D01*
X114766667Y-93598033D02*
X115133333Y-93131366D01*
X115700000Y-93598033D02*
X115700000Y-93131366D01*
X115533334Y-93864700D02*
X115366667Y-93364700D01*
X115366667Y-93364700D02*
X115800000Y-93364700D01*
X116300001Y-93498033D02*
X116400001Y-93464700D01*
X116400001Y-93464700D02*
X116433334Y-93431366D01*
X116433334Y-93431366D02*
X116466667Y-93364700D01*
X116466667Y-93364700D02*
X116466667Y-93264700D01*
X116466667Y-93264700D02*
X116433334Y-93198033D01*
X116433334Y-93198033D02*
X116400001Y-93164700D01*
X116400001Y-93164700D02*
X116333334Y-93131366D01*
X116333334Y-93131366D02*
X116066667Y-93131366D01*
X116066667Y-93131366D02*
X116066667Y-93831366D01*
X116066667Y-93831366D02*
X116300001Y-93831366D01*
X116300001Y-93831366D02*
X116366667Y-93798033D01*
X116366667Y-93798033D02*
X116400001Y-93764700D01*
X116400001Y-93764700D02*
X116433334Y-93698033D01*
X116433334Y-93698033D02*
X116433334Y-93631366D01*
X116433334Y-93631366D02*
X116400001Y-93564700D01*
X116400001Y-93564700D02*
X116366667Y-93531366D01*
X116366667Y-93531366D02*
X116300001Y-93498033D01*
X116300001Y-93498033D02*
X116066667Y-93498033D01*
X107190476Y-90650437D02*
X107090476Y-89850437D01*
X107185715Y-90612341D02*
X107266667Y-90650437D01*
X107266667Y-90650437D02*
X107419048Y-90650437D01*
X107419048Y-90650437D02*
X107490476Y-90612341D01*
X107490476Y-90612341D02*
X107523810Y-90574246D01*
X107523810Y-90574246D02*
X107552381Y-90498056D01*
X107552381Y-90498056D02*
X107523810Y-90269484D01*
X107523810Y-90269484D02*
X107476191Y-90193294D01*
X107476191Y-90193294D02*
X107433334Y-90155199D01*
X107433334Y-90155199D02*
X107352381Y-90117103D01*
X107352381Y-90117103D02*
X107200000Y-90117103D01*
X107200000Y-90117103D02*
X107128572Y-90155199D01*
X108157144Y-90155199D02*
X108076191Y-90117103D01*
X108076191Y-90117103D02*
X107923810Y-90117103D01*
X107923810Y-90117103D02*
X107852382Y-90155199D01*
X107852382Y-90155199D02*
X107823810Y-90231389D01*
X107823810Y-90231389D02*
X107861906Y-90536151D01*
X107861906Y-90536151D02*
X107909525Y-90612341D01*
X107909525Y-90612341D02*
X107990477Y-90650437D01*
X107990477Y-90650437D02*
X108142858Y-90650437D01*
X108142858Y-90650437D02*
X108214286Y-90612341D01*
X108214286Y-90612341D02*
X108242858Y-90536151D01*
X108242858Y-90536151D02*
X108233334Y-90459960D01*
X108233334Y-90459960D02*
X107842858Y-90383770D01*
X108533334Y-90117103D02*
X108600000Y-90650437D01*
X108633334Y-90917103D02*
X108590477Y-90879008D01*
X108590477Y-90879008D02*
X108623810Y-90840913D01*
X108623810Y-90840913D02*
X108666667Y-90879008D01*
X108666667Y-90879008D02*
X108633334Y-90917103D01*
X108633334Y-90917103D02*
X108623810Y-90840913D01*
X108952381Y-90421865D02*
X109561905Y-90421865D01*
X110019048Y-90117103D02*
X109947619Y-90155199D01*
X109947619Y-90155199D02*
X109919048Y-90231389D01*
X109919048Y-90231389D02*
X110004762Y-90917103D01*
X110733334Y-90650437D02*
X110666667Y-90117103D01*
X110390476Y-90650437D02*
X110338096Y-90231389D01*
X110338096Y-90231389D02*
X110366667Y-90155199D01*
X110366667Y-90155199D02*
X110438096Y-90117103D01*
X110438096Y-90117103D02*
X110552381Y-90117103D01*
X110552381Y-90117103D02*
X110633334Y-90155199D01*
X110633334Y-90155199D02*
X110676191Y-90193294D01*
X103298033Y-94816666D02*
X102831366Y-94649999D01*
X102831366Y-94649999D02*
X103298033Y-94483332D01*
X103531366Y-94083333D02*
X103531366Y-94016666D01*
X103531366Y-94016666D02*
X103498033Y-93949999D01*
X103498033Y-93949999D02*
X103464700Y-93916666D01*
X103464700Y-93916666D02*
X103398033Y-93883333D01*
X103398033Y-93883333D02*
X103264700Y-93849999D01*
X103264700Y-93849999D02*
X103098033Y-93849999D01*
X103098033Y-93849999D02*
X102964700Y-93883333D01*
X102964700Y-93883333D02*
X102898033Y-93916666D01*
X102898033Y-93916666D02*
X102864700Y-93949999D01*
X102864700Y-93949999D02*
X102831366Y-94016666D01*
X102831366Y-94016666D02*
X102831366Y-94083333D01*
X102831366Y-94083333D02*
X102864700Y-94149999D01*
X102864700Y-94149999D02*
X102898033Y-94183333D01*
X102898033Y-94183333D02*
X102964700Y-94216666D01*
X102964700Y-94216666D02*
X103098033Y-94249999D01*
X103098033Y-94249999D02*
X103264700Y-94249999D01*
X103264700Y-94249999D02*
X103398033Y-94216666D01*
X103398033Y-94216666D02*
X103464700Y-94183333D01*
X103464700Y-94183333D02*
X103498033Y-94149999D01*
X103498033Y-94149999D02*
X103531366Y-94083333D01*
X102898033Y-93549999D02*
X102864700Y-93516666D01*
X102864700Y-93516666D02*
X102831366Y-93549999D01*
X102831366Y-93549999D02*
X102864700Y-93583332D01*
X102864700Y-93583332D02*
X102898033Y-93549999D01*
X102898033Y-93549999D02*
X102831366Y-93549999D01*
X103531366Y-93083333D02*
X103531366Y-93016666D01*
X103531366Y-93016666D02*
X103498033Y-92949999D01*
X103498033Y-92949999D02*
X103464700Y-92916666D01*
X103464700Y-92916666D02*
X103398033Y-92883333D01*
X103398033Y-92883333D02*
X103264700Y-92849999D01*
X103264700Y-92849999D02*
X103098033Y-92849999D01*
X103098033Y-92849999D02*
X102964700Y-92883333D01*
X102964700Y-92883333D02*
X102898033Y-92916666D01*
X102898033Y-92916666D02*
X102864700Y-92949999D01*
X102864700Y-92949999D02*
X102831366Y-93016666D01*
X102831366Y-93016666D02*
X102831366Y-93083333D01*
X102831366Y-93083333D02*
X102864700Y-93149999D01*
X102864700Y-93149999D02*
X102898033Y-93183333D01*
X102898033Y-93183333D02*
X102964700Y-93216666D01*
X102964700Y-93216666D02*
X103098033Y-93249999D01*
X103098033Y-93249999D02*
X103264700Y-93249999D01*
X103264700Y-93249999D02*
X103398033Y-93216666D01*
X103398033Y-93216666D02*
X103464700Y-93183333D01*
X103464700Y-93183333D02*
X103498033Y-93149999D01*
X103498033Y-93149999D02*
X103531366Y-93083333D01*
X102898033Y-92549999D02*
X102864700Y-92516666D01*
X102864700Y-92516666D02*
X102831366Y-92549999D01*
X102831366Y-92549999D02*
X102864700Y-92583332D01*
X102864700Y-92583332D02*
X102898033Y-92549999D01*
X102898033Y-92549999D02*
X102831366Y-92549999D01*
X103298033Y-91916666D02*
X102831366Y-91916666D01*
X103564700Y-92083333D02*
X103064700Y-92249999D01*
X103064700Y-92249999D02*
X103064700Y-91816666D01*
X102831366Y-91249999D02*
X103198033Y-91249999D01*
X103198033Y-91249999D02*
X103264700Y-91283332D01*
X103264700Y-91283332D02*
X103298033Y-91349999D01*
X103298033Y-91349999D02*
X103298033Y-91483332D01*
X103298033Y-91483332D02*
X103264700Y-91549999D01*
X102864700Y-91249999D02*
X102831366Y-91316666D01*
X102831366Y-91316666D02*
X102831366Y-91483332D01*
X102831366Y-91483332D02*
X102864700Y-91549999D01*
X102864700Y-91549999D02*
X102931366Y-91583332D01*
X102931366Y-91583332D02*
X102998033Y-91583332D01*
X102998033Y-91583332D02*
X103064700Y-91549999D01*
X103064700Y-91549999D02*
X103098033Y-91483332D01*
X103098033Y-91483332D02*
X103098033Y-91316666D01*
X103098033Y-91316666D02*
X103131366Y-91249999D01*
X109775638Y-96975199D02*
X109918495Y-96927579D01*
X109918495Y-96927579D02*
X110156590Y-96927579D01*
X110156590Y-96927579D02*
X110251828Y-96975199D01*
X110251828Y-96975199D02*
X110299447Y-97022818D01*
X110299447Y-97022818D02*
X110347066Y-97118056D01*
X110347066Y-97118056D02*
X110347066Y-97213294D01*
X110347066Y-97213294D02*
X110299447Y-97308532D01*
X110299447Y-97308532D02*
X110251828Y-97356151D01*
X110251828Y-97356151D02*
X110156590Y-97403770D01*
X110156590Y-97403770D02*
X109966114Y-97451389D01*
X109966114Y-97451389D02*
X109870876Y-97499008D01*
X109870876Y-97499008D02*
X109823257Y-97546627D01*
X109823257Y-97546627D02*
X109775638Y-97641865D01*
X109775638Y-97641865D02*
X109775638Y-97737103D01*
X109775638Y-97737103D02*
X109823257Y-97832341D01*
X109823257Y-97832341D02*
X109870876Y-97879960D01*
X109870876Y-97879960D02*
X109966114Y-97927579D01*
X109966114Y-97927579D02*
X110204209Y-97927579D01*
X110204209Y-97927579D02*
X110347066Y-97879960D01*
X110918495Y-96927579D02*
X110823257Y-96975199D01*
X110823257Y-96975199D02*
X110775638Y-97070437D01*
X110775638Y-97070437D02*
X110775638Y-97927579D01*
X111299448Y-96927579D02*
X111299448Y-97594246D01*
X111299448Y-97927579D02*
X111251829Y-97879960D01*
X111251829Y-97879960D02*
X111299448Y-97832341D01*
X111299448Y-97832341D02*
X111347067Y-97879960D01*
X111347067Y-97879960D02*
X111299448Y-97927579D01*
X111299448Y-97927579D02*
X111299448Y-97832341D01*
X111775638Y-96927579D02*
X111775638Y-97594246D01*
X111775638Y-97499008D02*
X111823257Y-97546627D01*
X111823257Y-97546627D02*
X111918495Y-97594246D01*
X111918495Y-97594246D02*
X112061352Y-97594246D01*
X112061352Y-97594246D02*
X112156590Y-97546627D01*
X112156590Y-97546627D02*
X112204209Y-97451389D01*
X112204209Y-97451389D02*
X112204209Y-96927579D01*
X112204209Y-97451389D02*
X112251828Y-97546627D01*
X112251828Y-97546627D02*
X112347066Y-97594246D01*
X112347066Y-97594246D02*
X112489923Y-97594246D01*
X112489923Y-97594246D02*
X112585162Y-97546627D01*
X112585162Y-97546627D02*
X112632781Y-97451389D01*
X112632781Y-97451389D02*
X112632781Y-96927579D01*
X113489923Y-96975199D02*
X113394685Y-96927579D01*
X113394685Y-96927579D02*
X113204209Y-96927579D01*
X113204209Y-96927579D02*
X113108971Y-96975199D01*
X113108971Y-96975199D02*
X113061352Y-97070437D01*
X113061352Y-97070437D02*
X113061352Y-97451389D01*
X113061352Y-97451389D02*
X113108971Y-97546627D01*
X113108971Y-97546627D02*
X113204209Y-97594246D01*
X113204209Y-97594246D02*
X113394685Y-97594246D01*
X113394685Y-97594246D02*
X113489923Y-97546627D01*
X113489923Y-97546627D02*
X113537542Y-97451389D01*
X113537542Y-97451389D02*
X113537542Y-97356151D01*
X113537542Y-97356151D02*
X113061352Y-97260913D01*
X106571429Y-91317103D02*
X106352381Y-91698056D01*
X106114286Y-91317103D02*
X106214286Y-92117103D01*
X106214286Y-92117103D02*
X106519048Y-92117103D01*
X106519048Y-92117103D02*
X106590476Y-92079008D01*
X106590476Y-92079008D02*
X106623810Y-92040913D01*
X106623810Y-92040913D02*
X106652381Y-91964722D01*
X106652381Y-91964722D02*
X106638095Y-91850437D01*
X106638095Y-91850437D02*
X106590476Y-91774246D01*
X106590476Y-91774246D02*
X106547619Y-91736151D01*
X106547619Y-91736151D02*
X106466667Y-91698056D01*
X106466667Y-91698056D02*
X106161905Y-91698056D01*
X107223810Y-91355199D02*
X107142857Y-91317103D01*
X107142857Y-91317103D02*
X106990476Y-91317103D01*
X106990476Y-91317103D02*
X106919048Y-91355199D01*
X106919048Y-91355199D02*
X106890476Y-91431389D01*
X106890476Y-91431389D02*
X106928572Y-91736151D01*
X106928572Y-91736151D02*
X106976191Y-91812341D01*
X106976191Y-91812341D02*
X107057143Y-91850437D01*
X107057143Y-91850437D02*
X107209524Y-91850437D01*
X107209524Y-91850437D02*
X107280952Y-91812341D01*
X107280952Y-91812341D02*
X107309524Y-91736151D01*
X107309524Y-91736151D02*
X107300000Y-91659960D01*
X107300000Y-91659960D02*
X106909524Y-91583770D01*
X107566666Y-91355199D02*
X107676190Y-91317103D01*
X107676190Y-91317103D02*
X107866666Y-91317103D01*
X107866666Y-91317103D02*
X107947619Y-91355199D01*
X107947619Y-91355199D02*
X107990476Y-91393294D01*
X107990476Y-91393294D02*
X108038095Y-91469484D01*
X108038095Y-91469484D02*
X108047619Y-91545675D01*
X108047619Y-91545675D02*
X108019047Y-91621865D01*
X108019047Y-91621865D02*
X107985714Y-91659960D01*
X107985714Y-91659960D02*
X107914286Y-91698056D01*
X107914286Y-91698056D02*
X107766666Y-91736151D01*
X107766666Y-91736151D02*
X107695238Y-91774246D01*
X107695238Y-91774246D02*
X107661905Y-91812341D01*
X107661905Y-91812341D02*
X107633333Y-91888532D01*
X107633333Y-91888532D02*
X107642857Y-91964722D01*
X107642857Y-91964722D02*
X107690476Y-92040913D01*
X107690476Y-92040913D02*
X107733333Y-92079008D01*
X107733333Y-92079008D02*
X107814286Y-92117103D01*
X107814286Y-92117103D02*
X108004762Y-92117103D01*
X108004762Y-92117103D02*
X108114286Y-92079008D01*
X108771429Y-91850437D02*
X108704762Y-91317103D01*
X108428571Y-91850437D02*
X108376191Y-91431389D01*
X108376191Y-91431389D02*
X108404762Y-91355199D01*
X108404762Y-91355199D02*
X108476191Y-91317103D01*
X108476191Y-91317103D02*
X108590476Y-91317103D01*
X108590476Y-91317103D02*
X108671429Y-91355199D01*
X108671429Y-91355199D02*
X108714286Y-91393294D01*
X109085715Y-91317103D02*
X109152381Y-91850437D01*
X109142858Y-91774246D02*
X109185715Y-91812341D01*
X109185715Y-91812341D02*
X109266667Y-91850437D01*
X109266667Y-91850437D02*
X109380953Y-91850437D01*
X109380953Y-91850437D02*
X109452381Y-91812341D01*
X109452381Y-91812341D02*
X109480953Y-91736151D01*
X109480953Y-91736151D02*
X109428572Y-91317103D01*
X109480953Y-91736151D02*
X109528572Y-91812341D01*
X109528572Y-91812341D02*
X109609524Y-91850437D01*
X109609524Y-91850437D02*
X109723810Y-91850437D01*
X109723810Y-91850437D02*
X109795239Y-91812341D01*
X109795239Y-91812341D02*
X109823810Y-91736151D01*
X109823810Y-91736151D02*
X109771429Y-91317103D01*
X110152382Y-91317103D02*
X110219048Y-91850437D01*
X110209525Y-91774246D02*
X110252382Y-91812341D01*
X110252382Y-91812341D02*
X110333334Y-91850437D01*
X110333334Y-91850437D02*
X110447620Y-91850437D01*
X110447620Y-91850437D02*
X110519048Y-91812341D01*
X110519048Y-91812341D02*
X110547620Y-91736151D01*
X110547620Y-91736151D02*
X110495239Y-91317103D01*
X110547620Y-91736151D02*
X110595239Y-91812341D01*
X110595239Y-91812341D02*
X110676191Y-91850437D01*
X110676191Y-91850437D02*
X110790477Y-91850437D01*
X110790477Y-91850437D02*
X110861906Y-91812341D01*
X110861906Y-91812341D02*
X110890477Y-91736151D01*
X110890477Y-91736151D02*
X110838096Y-91317103D01*
X111219049Y-91317103D02*
X111285715Y-91850437D01*
X111319049Y-92117103D02*
X111276192Y-92079008D01*
X111276192Y-92079008D02*
X111309525Y-92040913D01*
X111309525Y-92040913D02*
X111352382Y-92079008D01*
X111352382Y-92079008D02*
X111319049Y-92117103D01*
X111319049Y-92117103D02*
X111309525Y-92040913D01*
X111552382Y-91850437D02*
X111857144Y-91850437D01*
X111700001Y-92117103D02*
X111614287Y-91431389D01*
X111614287Y-91431389D02*
X111642858Y-91355199D01*
X111642858Y-91355199D02*
X111714287Y-91317103D01*
X111714287Y-91317103D02*
X111790477Y-91317103D01*
X106200001Y-92629294D02*
X106161905Y-92591199D01*
X106161905Y-92591199D02*
X106047620Y-92553103D01*
X106047620Y-92553103D02*
X105971429Y-92553103D01*
X105971429Y-92553103D02*
X105857143Y-92591199D01*
X105857143Y-92591199D02*
X105780953Y-92667389D01*
X105780953Y-92667389D02*
X105742858Y-92743579D01*
X105742858Y-92743579D02*
X105704762Y-92895960D01*
X105704762Y-92895960D02*
X105704762Y-93010246D01*
X105704762Y-93010246D02*
X105742858Y-93162627D01*
X105742858Y-93162627D02*
X105780953Y-93238818D01*
X105780953Y-93238818D02*
X105857143Y-93315008D01*
X105857143Y-93315008D02*
X105971429Y-93353103D01*
X105971429Y-93353103D02*
X106047620Y-93353103D01*
X106047620Y-93353103D02*
X106161905Y-93315008D01*
X106161905Y-93315008D02*
X106200001Y-93276913D01*
X106542858Y-92553103D02*
X106542858Y-93086437D01*
X106542858Y-92934056D02*
X106580953Y-93010246D01*
X106580953Y-93010246D02*
X106619048Y-93048341D01*
X106619048Y-93048341D02*
X106695239Y-93086437D01*
X106695239Y-93086437D02*
X106771429Y-93086437D01*
X107342858Y-92591199D02*
X107266667Y-92553103D01*
X107266667Y-92553103D02*
X107114286Y-92553103D01*
X107114286Y-92553103D02*
X107038096Y-92591199D01*
X107038096Y-92591199D02*
X107000000Y-92667389D01*
X107000000Y-92667389D02*
X107000000Y-92972151D01*
X107000000Y-92972151D02*
X107038096Y-93048341D01*
X107038096Y-93048341D02*
X107114286Y-93086437D01*
X107114286Y-93086437D02*
X107266667Y-93086437D01*
X107266667Y-93086437D02*
X107342858Y-93048341D01*
X107342858Y-93048341D02*
X107380953Y-92972151D01*
X107380953Y-92972151D02*
X107380953Y-92895960D01*
X107380953Y-92895960D02*
X107000000Y-92819770D01*
X108066667Y-92553103D02*
X108066667Y-92972151D01*
X108066667Y-92972151D02*
X108028572Y-93048341D01*
X108028572Y-93048341D02*
X107952381Y-93086437D01*
X107952381Y-93086437D02*
X107800000Y-93086437D01*
X107800000Y-93086437D02*
X107723810Y-93048341D01*
X108066667Y-92591199D02*
X107990476Y-92553103D01*
X107990476Y-92553103D02*
X107800000Y-92553103D01*
X107800000Y-92553103D02*
X107723810Y-92591199D01*
X107723810Y-92591199D02*
X107685714Y-92667389D01*
X107685714Y-92667389D02*
X107685714Y-92743579D01*
X107685714Y-92743579D02*
X107723810Y-92819770D01*
X107723810Y-92819770D02*
X107800000Y-92857865D01*
X107800000Y-92857865D02*
X107990476Y-92857865D01*
X107990476Y-92857865D02*
X108066667Y-92895960D01*
X108333334Y-93086437D02*
X108638096Y-93086437D01*
X108447620Y-93353103D02*
X108447620Y-92667389D01*
X108447620Y-92667389D02*
X108485715Y-92591199D01*
X108485715Y-92591199D02*
X108561905Y-92553103D01*
X108561905Y-92553103D02*
X108638096Y-92553103D01*
X109209525Y-92591199D02*
X109133334Y-92553103D01*
X109133334Y-92553103D02*
X108980953Y-92553103D01*
X108980953Y-92553103D02*
X108904763Y-92591199D01*
X108904763Y-92591199D02*
X108866667Y-92667389D01*
X108866667Y-92667389D02*
X108866667Y-92972151D01*
X108866667Y-92972151D02*
X108904763Y-93048341D01*
X108904763Y-93048341D02*
X108980953Y-93086437D01*
X108980953Y-93086437D02*
X109133334Y-93086437D01*
X109133334Y-93086437D02*
X109209525Y-93048341D01*
X109209525Y-93048341D02*
X109247620Y-92972151D01*
X109247620Y-92972151D02*
X109247620Y-92895960D01*
X109247620Y-92895960D02*
X108866667Y-92819770D01*
X109933334Y-92553103D02*
X109933334Y-93353103D01*
X109933334Y-92591199D02*
X109857143Y-92553103D01*
X109857143Y-92553103D02*
X109704762Y-92553103D01*
X109704762Y-92553103D02*
X109628572Y-92591199D01*
X109628572Y-92591199D02*
X109590477Y-92629294D01*
X109590477Y-92629294D02*
X109552381Y-92705484D01*
X109552381Y-92705484D02*
X109552381Y-92934056D01*
X109552381Y-92934056D02*
X109590477Y-93010246D01*
X109590477Y-93010246D02*
X109628572Y-93048341D01*
X109628572Y-93048341D02*
X109704762Y-93086437D01*
X109704762Y-93086437D02*
X109857143Y-93086437D01*
X109857143Y-93086437D02*
X109933334Y-93048341D01*
X110923811Y-92553103D02*
X110923811Y-93353103D01*
X110923811Y-93048341D02*
X111000001Y-93086437D01*
X111000001Y-93086437D02*
X111152382Y-93086437D01*
X111152382Y-93086437D02*
X111228573Y-93048341D01*
X111228573Y-93048341D02*
X111266668Y-93010246D01*
X111266668Y-93010246D02*
X111304763Y-92934056D01*
X111304763Y-92934056D02*
X111304763Y-92705484D01*
X111304763Y-92705484D02*
X111266668Y-92629294D01*
X111266668Y-92629294D02*
X111228573Y-92591199D01*
X111228573Y-92591199D02*
X111152382Y-92553103D01*
X111152382Y-92553103D02*
X111000001Y-92553103D01*
X111000001Y-92553103D02*
X110923811Y-92591199D01*
X111571430Y-93086437D02*
X111761906Y-92553103D01*
X111952383Y-93086437D02*
X111761906Y-92553103D01*
X111761906Y-92553103D02*
X111685716Y-92362627D01*
X111685716Y-92362627D02*
X111647621Y-92324532D01*
X111647621Y-92324532D02*
X111571430Y-92286437D01*
X112257145Y-92629294D02*
X112295240Y-92591199D01*
X112295240Y-92591199D02*
X112257145Y-92553103D01*
X112257145Y-92553103D02*
X112219049Y-92591199D01*
X112219049Y-92591199D02*
X112257145Y-92629294D01*
X112257145Y-92629294D02*
X112257145Y-92553103D01*
X112257145Y-93048341D02*
X112295240Y-93010246D01*
X112295240Y-93010246D02*
X112257145Y-92972151D01*
X112257145Y-92972151D02*
X112219049Y-93010246D01*
X112219049Y-93010246D02*
X112257145Y-93048341D01*
X112257145Y-93048341D02*
X112257145Y-92972151D01*
D11*
G36*
X108782254Y-97248016D02*
G01*
X108789276Y-97269958D01*
X108788431Y-97272823D01*
X108771781Y-97290321D01*
X108738099Y-97315936D01*
X108693014Y-97346258D01*
X108642153Y-97377879D01*
X108591146Y-97407388D01*
X108545620Y-97431375D01*
X108511204Y-97446430D01*
X108493525Y-97449143D01*
X108482688Y-97436879D01*
X108487408Y-97419633D01*
X108510847Y-97396198D01*
X108554965Y-97364646D01*
X108621721Y-97323051D01*
X108676898Y-97290895D01*
X108724574Y-97264940D01*
X108759168Y-97248124D01*
X108775598Y-97243089D01*
X108782254Y-97248016D01*
G37*
G36*
X105693978Y-97275355D02*
G01*
X105730063Y-97309689D01*
X105731010Y-97310836D01*
X105799099Y-97386079D01*
X105865184Y-97445503D01*
X105924352Y-97484685D01*
X105932921Y-97489185D01*
X105968328Y-97513297D01*
X105977155Y-97532756D01*
X105959261Y-97547307D01*
X105954043Y-97548346D01*
X105924400Y-97542360D01*
X105883668Y-97524222D01*
X105839772Y-97497923D01*
X105800639Y-97467453D01*
X105768161Y-97435304D01*
X105731833Y-97395302D01*
X105697153Y-97353889D01*
X105668398Y-97316396D01*
X105649847Y-97288152D01*
X105645776Y-97274489D01*
X105663405Y-97265702D01*
X105693978Y-97275355D01*
G37*
G36*
X108534730Y-98137326D02*
G01*
X108569591Y-98167397D01*
X108577923Y-98175079D01*
X108615127Y-98201492D01*
X108666183Y-98231209D01*
X108722608Y-98259144D01*
X108760810Y-98276933D01*
X108805525Y-98300959D01*
X108829819Y-98320111D01*
X108837149Y-98336730D01*
X108834819Y-98347965D01*
X108820657Y-98355780D01*
X108791251Y-98351271D01*
X108743857Y-98333864D01*
X108675732Y-98302985D01*
X108655951Y-98293215D01*
X108591890Y-98256139D01*
X108540959Y-98218129D01*
X108507336Y-98182652D01*
X108495200Y-98153176D01*
X108496466Y-98141549D01*
X108509526Y-98128551D01*
X108534730Y-98137326D01*
G37*
G36*
X105677564Y-97818704D02*
G01*
X105749944Y-97822044D01*
X105823514Y-97827354D01*
X105892965Y-97834528D01*
X105921911Y-97840769D01*
X105947044Y-97854530D01*
X105952051Y-97870568D01*
X105933637Y-97884807D01*
X105933335Y-97884916D01*
X105911577Y-97886873D01*
X105869581Y-97886466D01*
X105813292Y-97884127D01*
X105748659Y-97880290D01*
X105681626Y-97875389D01*
X105618141Y-97869857D01*
X105564151Y-97864128D01*
X105525601Y-97858634D01*
X105508438Y-97853811D01*
X105504601Y-97848073D01*
X105506384Y-97826610D01*
X105520653Y-97821603D01*
X105557610Y-97818375D01*
X105611683Y-97817445D01*
X105677564Y-97818704D01*
G37*
G36*
X108658584Y-97801997D02*
G01*
X108728713Y-97804020D01*
X108779231Y-97806942D01*
X108810306Y-97811251D01*
X108825983Y-97817520D01*
X108830310Y-97826322D01*
X108830261Y-97827460D01*
X108824974Y-97835743D01*
X108808172Y-97841673D01*
X108775895Y-97845781D01*
X108724184Y-97848597D01*
X108649077Y-97850655D01*
X108578434Y-97851710D01*
X108524408Y-97851156D01*
X108490475Y-97848532D01*
X108472875Y-97843528D01*
X108467844Y-97835838D01*
X108468430Y-97828825D01*
X108477351Y-97807696D01*
X108477824Y-97807344D01*
X108496656Y-97804115D01*
X108536761Y-97802031D01*
X108592588Y-97801267D01*
X108658584Y-97801997D01*
G37*
G36*
X105969642Y-98129394D02*
G01*
X105978853Y-98140436D01*
X105965982Y-98161629D01*
X105932352Y-98191227D01*
X105879287Y-98227485D01*
X105876340Y-98229338D01*
X105816545Y-98269768D01*
X105754613Y-98315907D01*
X105703498Y-98358131D01*
X105693025Y-98367408D01*
X105652700Y-98400025D01*
X105626650Y-98414183D01*
X105611812Y-98411669D01*
X105605196Y-98401271D01*
X105609528Y-98372730D01*
X105624469Y-98354319D01*
X105658307Y-98322567D01*
X105704559Y-98283907D01*
X105757664Y-98242782D01*
X105812061Y-98203632D01*
X105862189Y-98170901D01*
X105892532Y-98153668D01*
X105930190Y-98135684D01*
X105954516Y-98128287D01*
X105969642Y-98129394D01*
G37*
G36*
X107757467Y-98596170D02*
G01*
X107803939Y-98599324D01*
X107850903Y-98607141D01*
X107891379Y-98622224D01*
X107937294Y-98648011D01*
X107999360Y-98694526D01*
X108045555Y-98753005D01*
X108056762Y-98772333D01*
X108075848Y-98800189D01*
X108087994Y-98811136D01*
X108089240Y-98811465D01*
X108095846Y-98826871D01*
X108098538Y-98858202D01*
X108098590Y-98862468D01*
X108102702Y-98895396D01*
X108111376Y-98913201D01*
X108117624Y-98924747D01*
X108116309Y-98951623D01*
X108110490Y-98981824D01*
X108105882Y-99023145D01*
X108093002Y-99074748D01*
X108062781Y-99133827D01*
X108019890Y-99191069D01*
X108017530Y-99193734D01*
X107997384Y-99219251D01*
X107989115Y-99234931D01*
X107980607Y-99246578D01*
X107951883Y-99264124D01*
X107909785Y-99282879D01*
X107861533Y-99300027D01*
X107814352Y-99312751D01*
X107775463Y-99318236D01*
X107675560Y-99313967D01*
X107588846Y-99292583D01*
X107516772Y-99252357D01*
X107455401Y-99191734D01*
X107450658Y-99185760D01*
X107405252Y-99115557D01*
X107380900Y-99043517D01*
X107373739Y-98958614D01*
X107374193Y-98947182D01*
X107442072Y-98947182D01*
X107449202Y-99016368D01*
X107472504Y-99085543D01*
X107509280Y-99137480D01*
X107538373Y-99164365D01*
X107583527Y-99201716D01*
X107617085Y-99223351D01*
X107635734Y-99226926D01*
X107639504Y-99225409D01*
X107647165Y-99234318D01*
X107648569Y-99236880D01*
X107669823Y-99242369D01*
X107714458Y-99244168D01*
X107779654Y-99242246D01*
X107862593Y-99236575D01*
X107870385Y-99233659D01*
X107879691Y-99214636D01*
X107881808Y-99205113D01*
X107898104Y-99194119D01*
X107911671Y-99188035D01*
X107939121Y-99166105D01*
X107971506Y-99133698D01*
X107993879Y-99108517D01*
X108012549Y-99082559D01*
X108022616Y-99055665D01*
X108027052Y-99019029D01*
X108028830Y-98963845D01*
X108028934Y-98958257D01*
X108028043Y-98902751D01*
X108023794Y-98863299D01*
X108016756Y-98845508D01*
X108011985Y-98841574D01*
X108008815Y-98826135D01*
X108006175Y-98811858D01*
X107985996Y-98786622D01*
X107953039Y-98756339D01*
X107913030Y-98725734D01*
X107871695Y-98699535D01*
X107834759Y-98682466D01*
X107812348Y-98675512D01*
X107772118Y-98665500D01*
X107745853Y-98662265D01*
X107739878Y-98662695D01*
X107729886Y-98664914D01*
X107746331Y-98670107D01*
X107759000Y-98675352D01*
X107770267Y-98689037D01*
X107772449Y-98694755D01*
X107790433Y-98701712D01*
X107797509Y-98702673D01*
X107821562Y-98722093D01*
X107840704Y-98763211D01*
X107853405Y-98821694D01*
X107858130Y-98893204D01*
X107858096Y-98903649D01*
X107851846Y-98981012D01*
X107833398Y-99037619D01*
X107800592Y-99077766D01*
X107751269Y-99105745D01*
X107740382Y-99110032D01*
X107707292Y-99119979D01*
X107680850Y-99117824D01*
X107646548Y-99103218D01*
X107601533Y-99070864D01*
X107563785Y-99015605D01*
X107551128Y-98971852D01*
X107622320Y-98971852D01*
X107631078Y-98999464D01*
X107655683Y-99013609D01*
X107679565Y-99009518D01*
X107695734Y-98987615D01*
X107693146Y-98954755D01*
X107680367Y-98941683D01*
X107651632Y-98934238D01*
X107637997Y-98934964D01*
X107622906Y-98944513D01*
X107622320Y-98971852D01*
X107551128Y-98971852D01*
X107543660Y-98946038D01*
X107542350Y-98866645D01*
X107561049Y-98781907D01*
X107587164Y-98704804D01*
X107548682Y-98733255D01*
X107543163Y-98737629D01*
X107507058Y-98779048D01*
X107474541Y-98835071D01*
X107451062Y-98894762D01*
X107442072Y-98947182D01*
X107374193Y-98947182D01*
X107374960Y-98927859D01*
X107395481Y-98830997D01*
X107439847Y-98745401D01*
X107506143Y-98674037D01*
X107592453Y-98619870D01*
X107609161Y-98612535D01*
X107649455Y-98600049D01*
X107695321Y-98595106D01*
X107757467Y-98596170D01*
G37*
G36*
X106540127Y-98596170D02*
G01*
X106586599Y-98599324D01*
X106633563Y-98607141D01*
X106674040Y-98622224D01*
X106719955Y-98648011D01*
X106782020Y-98694526D01*
X106828215Y-98753005D01*
X106839423Y-98772333D01*
X106858508Y-98800189D01*
X106870654Y-98811136D01*
X106871900Y-98811465D01*
X106878506Y-98826871D01*
X106881199Y-98858202D01*
X106881251Y-98862468D01*
X106885362Y-98895396D01*
X106894036Y-98913201D01*
X106900285Y-98924747D01*
X106898969Y-98951623D01*
X106893150Y-98981824D01*
X106888542Y-99023145D01*
X106875662Y-99074748D01*
X106845442Y-99133827D01*
X106802550Y-99191069D01*
X106800191Y-99193734D01*
X106780045Y-99219251D01*
X106771775Y-99234931D01*
X106763267Y-99246578D01*
X106734544Y-99264124D01*
X106692445Y-99282879D01*
X106644194Y-99300027D01*
X106597012Y-99312751D01*
X106558124Y-99318236D01*
X106458220Y-99313967D01*
X106371506Y-99292583D01*
X106299432Y-99252357D01*
X106238062Y-99191734D01*
X106233318Y-99185760D01*
X106187912Y-99115557D01*
X106163560Y-99043517D01*
X106156400Y-98958614D01*
X106157257Y-98937004D01*
X106228247Y-98937004D01*
X106230620Y-99012329D01*
X106251721Y-99081290D01*
X106291940Y-99137480D01*
X106321033Y-99164365D01*
X106366187Y-99201716D01*
X106399745Y-99223351D01*
X106418394Y-99226926D01*
X106422164Y-99225409D01*
X106429825Y-99234318D01*
X106431229Y-99236880D01*
X106452483Y-99242369D01*
X106497118Y-99244168D01*
X106562315Y-99242246D01*
X106645254Y-99236575D01*
X106653045Y-99233659D01*
X106662351Y-99214636D01*
X106664468Y-99205113D01*
X106680764Y-99194119D01*
X106694299Y-99188058D01*
X106721735Y-99166153D01*
X106754104Y-99133766D01*
X106773100Y-99112502D01*
X106793511Y-99085325D01*
X106804586Y-99058352D01*
X106809511Y-99022397D01*
X106811469Y-98968273D01*
X106810958Y-98914366D01*
X106806320Y-98868552D01*
X106798005Y-98843974D01*
X106790972Y-98833102D01*
X106793300Y-98824814D01*
X106794204Y-98821588D01*
X106782556Y-98804256D01*
X106758097Y-98776941D01*
X106758008Y-98776850D01*
X106724052Y-98744844D01*
X106702679Y-98730903D01*
X106695903Y-98735684D01*
X106705737Y-98759844D01*
X106706419Y-98761161D01*
X106714695Y-98791403D01*
X106720618Y-98838627D01*
X106722946Y-98893204D01*
X106722904Y-98903557D01*
X106716601Y-98980965D01*
X106698122Y-99037604D01*
X106665307Y-99077766D01*
X106615997Y-99105745D01*
X106604840Y-99110136D01*
X106571845Y-99119996D01*
X106545313Y-99117721D01*
X106510659Y-99102918D01*
X106474046Y-99078343D01*
X106433795Y-99025938D01*
X106415527Y-98971852D01*
X106487048Y-98971852D01*
X106495806Y-98999464D01*
X106520411Y-99013609D01*
X106544293Y-99009518D01*
X106560462Y-98987615D01*
X106557874Y-98954755D01*
X106545095Y-98941683D01*
X106516360Y-98934238D01*
X106502725Y-98934964D01*
X106487634Y-98944513D01*
X106487048Y-98971852D01*
X106415527Y-98971852D01*
X106410852Y-98958010D01*
X106406443Y-98878836D01*
X106421794Y-98792696D01*
X106432870Y-98758577D01*
X106445995Y-98727410D01*
X106455471Y-98715390D01*
X106470148Y-98708551D01*
X106676029Y-98708551D01*
X106682868Y-98715390D01*
X106689707Y-98708551D01*
X106682868Y-98701712D01*
X106676029Y-98708551D01*
X106470148Y-98708551D01*
X106472468Y-98707470D01*
X106498215Y-98688034D01*
X106515962Y-98671780D01*
X106519580Y-98662885D01*
X106503728Y-98661758D01*
X106488493Y-98663254D01*
X106429734Y-98679867D01*
X106368222Y-98710213D01*
X106315593Y-98748901D01*
X106278124Y-98792893D01*
X106244212Y-98861723D01*
X106228247Y-98937004D01*
X106157257Y-98937004D01*
X106157620Y-98927859D01*
X106178141Y-98830997D01*
X106222507Y-98745401D01*
X106288803Y-98674037D01*
X106375114Y-98619870D01*
X106391821Y-98612535D01*
X106432115Y-98600049D01*
X106477981Y-98595106D01*
X106540127Y-98596170D01*
G37*
G36*
X107190431Y-96009726D02*
G01*
X107287186Y-96012034D01*
X107379645Y-96015945D01*
X107460884Y-96021328D01*
X107523978Y-96028051D01*
X107637003Y-96046997D01*
X107870470Y-96105749D01*
X108093723Y-96189697D01*
X108307661Y-96299208D01*
X108513182Y-96434653D01*
X108536576Y-96452425D01*
X108618902Y-96521393D01*
X108709126Y-96604942D01*
X108801387Y-96697078D01*
X108889826Y-96791806D01*
X108968579Y-96883131D01*
X109031787Y-96965060D01*
X109094067Y-97059737D01*
X109163992Y-97181417D01*
X109229244Y-97310225D01*
X109285237Y-97437045D01*
X109327388Y-97552762D01*
X109331874Y-97567205D01*
X109388613Y-97796170D01*
X109421848Y-98033268D01*
X109431602Y-98274035D01*
X109417897Y-98514008D01*
X109380755Y-98748724D01*
X109320199Y-98973718D01*
X109306899Y-99012112D01*
X109244820Y-99161990D01*
X109166554Y-99316451D01*
X109076737Y-99467538D01*
X108980007Y-99607289D01*
X108880998Y-99727746D01*
X108799775Y-99816839D01*
X108783945Y-100008145D01*
X108782369Y-100027149D01*
X108764630Y-100233032D01*
X108747796Y-100412901D01*
X108731700Y-100567972D01*
X108716174Y-100699460D01*
X108701051Y-100808580D01*
X108686165Y-100896548D01*
X108671347Y-100964579D01*
X108656431Y-101013889D01*
X108641250Y-101045694D01*
X108631320Y-101058180D01*
X108589782Y-101083983D01*
X108536473Y-101090846D01*
X108478611Y-101077364D01*
X108441024Y-101056114D01*
X108382332Y-101007673D01*
X108315439Y-100937936D01*
X108242361Y-100848852D01*
X108241927Y-100848288D01*
X108197293Y-100791536D01*
X108145885Y-100727954D01*
X108098743Y-100671200D01*
X108097923Y-100670231D01*
X108051776Y-100612876D01*
X108003200Y-100548182D01*
X107962579Y-100489966D01*
X107954035Y-100477159D01*
X107925475Y-100436714D01*
X107903018Y-100408428D01*
X107890922Y-100397781D01*
X107889764Y-100397864D01*
X107868769Y-100402185D01*
X107829940Y-100411765D01*
X107780678Y-100424791D01*
X107753436Y-100431968D01*
X107546716Y-100473025D01*
X107329071Y-100494669D01*
X107106698Y-100497063D01*
X106885795Y-100480371D01*
X106672559Y-100444754D01*
X106473188Y-100390377D01*
X106439844Y-100379373D01*
X106384219Y-100362372D01*
X106347589Y-100354000D01*
X106325497Y-100353399D01*
X106313488Y-100359716D01*
X106300738Y-100374475D01*
X106267543Y-100414489D01*
X106224956Y-100467023D01*
X106177655Y-100526212D01*
X106130316Y-100586185D01*
X106087615Y-100641077D01*
X106054228Y-100685019D01*
X106025903Y-100721488D01*
X105973027Y-100784083D01*
X105914594Y-100848179D01*
X105855124Y-100909198D01*
X105799137Y-100962558D01*
X105751155Y-101003681D01*
X105715696Y-101027987D01*
X105691678Y-101039154D01*
X105623246Y-101054976D01*
X105560040Y-101044049D01*
X105501361Y-101006303D01*
X105483586Y-100988919D01*
X105452711Y-100952038D01*
X105434399Y-100920816D01*
X105430819Y-100909617D01*
X105420156Y-100865515D01*
X105407574Y-100802411D01*
X105394030Y-100726097D01*
X105380476Y-100642367D01*
X105367870Y-100557015D01*
X105357164Y-100475835D01*
X105349316Y-100404620D01*
X105346991Y-100380779D01*
X105338725Y-100302576D01*
X105329629Y-100223820D01*
X105321284Y-100158417D01*
X105311831Y-100083809D01*
X105296122Y-99924416D01*
X105285703Y-99764199D01*
X105281572Y-99616754D01*
X105281531Y-99613617D01*
X105338320Y-99613617D01*
X105341228Y-99666950D01*
X105347296Y-99742913D01*
X105356067Y-99843823D01*
X105366477Y-99960879D01*
X105386103Y-100169316D01*
X105404845Y-100351694D01*
X105422676Y-100507800D01*
X105439570Y-100637421D01*
X105455501Y-100740344D01*
X105470440Y-100816356D01*
X105484363Y-100865246D01*
X105486800Y-100871002D01*
X105506754Y-100905682D01*
X105533788Y-100942252D01*
X105564759Y-100970912D01*
X105603793Y-100985697D01*
X105648372Y-100980117D01*
X105700638Y-100953405D01*
X105762732Y-100904793D01*
X105836793Y-100833511D01*
X105868725Y-100799967D01*
X105927031Y-100735697D01*
X105983114Y-100670654D01*
X106028284Y-100614764D01*
X106036714Y-100603810D01*
X106086675Y-100539878D01*
X106140854Y-100471813D01*
X106188921Y-100412614D01*
X106208306Y-100388806D01*
X106238599Y-100350160D01*
X106258403Y-100322864D01*
X106264150Y-100311704D01*
X106248363Y-100303558D01*
X106216648Y-100288313D01*
X106177496Y-100269978D01*
X106138935Y-100252274D01*
X106108997Y-100238923D01*
X106095712Y-100233646D01*
X106091695Y-100237317D01*
X106076711Y-100258332D01*
X106055804Y-100291777D01*
X106028393Y-100331664D01*
X105982973Y-100386690D01*
X105931029Y-100441842D01*
X105879812Y-100489502D01*
X105836573Y-100522054D01*
X105821180Y-100530392D01*
X105764390Y-100545553D01*
X105710032Y-100538982D01*
X105664565Y-100512421D01*
X105634449Y-100467608D01*
X105616172Y-100408388D01*
X105596763Y-100302907D01*
X105586016Y-100177047D01*
X105584328Y-100034230D01*
X105588140Y-99841653D01*
X105515742Y-99760670D01*
X105514816Y-99759633D01*
X105472623Y-99711180D01*
X105431321Y-99661783D01*
X105399724Y-99621979D01*
X105387129Y-99605303D01*
X105367400Y-99580242D01*
X105353111Y-99566225D01*
X105343805Y-99565571D01*
X105339027Y-99580596D01*
X105338320Y-99613617D01*
X105281531Y-99613617D01*
X105280800Y-99557209D01*
X105278031Y-99506879D01*
X105271995Y-99469761D01*
X105261375Y-99438251D01*
X105244853Y-99404746D01*
X105242624Y-99400594D01*
X105161063Y-99241477D01*
X105095514Y-99096454D01*
X105043889Y-98959310D01*
X105004094Y-98823829D01*
X104974042Y-98683796D01*
X104951639Y-98532996D01*
X104945426Y-98464193D01*
X104941187Y-98356589D01*
X104941202Y-98250152D01*
X105009079Y-98250152D01*
X105020589Y-98482254D01*
X105056336Y-98711753D01*
X105116698Y-98935676D01*
X105135695Y-98990118D01*
X105166519Y-99069925D01*
X105200015Y-99148965D01*
X105233841Y-99222228D01*
X105265653Y-99284704D01*
X105293108Y-99331383D01*
X105313864Y-99357253D01*
X105326015Y-99370214D01*
X105335587Y-99391980D01*
X105339185Y-99406699D01*
X105359561Y-99443974D01*
X105395416Y-99494710D01*
X105443871Y-99555742D01*
X105502045Y-99623905D01*
X105567058Y-99696036D01*
X105636029Y-99768969D01*
X105706078Y-99839539D01*
X105774325Y-99904581D01*
X105837889Y-99960931D01*
X105893890Y-100005424D01*
X105929147Y-100030765D01*
X106133052Y-100159717D01*
X106342898Y-100262534D01*
X106560151Y-100339659D01*
X106786279Y-100391535D01*
X107022747Y-100418606D01*
X107271021Y-100421314D01*
X107283532Y-100420826D01*
X107529455Y-100398332D01*
X107611702Y-100381883D01*
X107961759Y-100381883D01*
X107969661Y-100399069D01*
X107993621Y-100434907D01*
X108031713Y-100486566D01*
X108081989Y-100551573D01*
X108142505Y-100627456D01*
X108211314Y-100711742D01*
X108286471Y-100801958D01*
X108366029Y-100895631D01*
X108388267Y-100920760D01*
X108449302Y-100979836D01*
X108501074Y-101013668D01*
X108543397Y-101022160D01*
X108576088Y-101005214D01*
X108595658Y-100974589D01*
X108613942Y-100925149D01*
X108631104Y-100855698D01*
X108647335Y-100765012D01*
X108662826Y-100651867D01*
X108677765Y-100515039D01*
X108692345Y-100353303D01*
X108706756Y-100165435D01*
X108707550Y-100154287D01*
X108713178Y-100073244D01*
X108717825Y-100002749D01*
X108721232Y-99946986D01*
X108723142Y-99910138D01*
X108723299Y-99896389D01*
X108719809Y-99897975D01*
X108701290Y-99912383D01*
X108672732Y-99937243D01*
X108649181Y-99958141D01*
X108603943Y-99997312D01*
X108558713Y-100035584D01*
X108492756Y-100090565D01*
X108529432Y-100203862D01*
X108534656Y-100220216D01*
X108550753Y-100277070D01*
X108559560Y-100326613D01*
X108562566Y-100380353D01*
X108561260Y-100449796D01*
X108558713Y-100498433D01*
X108549989Y-100570495D01*
X108534715Y-100622499D01*
X108511279Y-100658992D01*
X108478070Y-100684522D01*
X108471567Y-100688082D01*
X108447015Y-100697691D01*
X108423717Y-100694682D01*
X108389409Y-100678180D01*
X108388667Y-100677778D01*
X108348902Y-100647357D01*
X108302138Y-100597977D01*
X108252868Y-100535339D01*
X108205583Y-100465143D01*
X108164775Y-100393090D01*
X108146632Y-100358769D01*
X108128075Y-100330962D01*
X108111943Y-100319938D01*
X108093482Y-100320883D01*
X108084591Y-100323253D01*
X108042928Y-100337210D01*
X108003201Y-100354120D01*
X107973461Y-100370253D01*
X107961759Y-100381883D01*
X107611702Y-100381883D01*
X107762680Y-100351688D01*
X107983563Y-100280780D01*
X108192458Y-100185498D01*
X108389721Y-100065726D01*
X108434715Y-100033948D01*
X108627066Y-99879028D01*
X108799553Y-99707551D01*
X108951056Y-99521199D01*
X109080455Y-99321654D01*
X109186631Y-99110597D01*
X109268465Y-98889712D01*
X109324837Y-98660678D01*
X109335419Y-98586044D01*
X109343733Y-98486380D01*
X109348798Y-98373530D01*
X109350612Y-98254218D01*
X109349171Y-98135169D01*
X109344470Y-98023106D01*
X109336507Y-97924755D01*
X109325279Y-97846839D01*
X109276427Y-97642689D01*
X109202917Y-97428302D01*
X109108380Y-97227928D01*
X108991268Y-97038765D01*
X108850037Y-96858012D01*
X108683139Y-96682865D01*
X108636478Y-96639076D01*
X108450645Y-96485135D01*
X108256878Y-96356808D01*
X108053499Y-96253209D01*
X107838829Y-96173451D01*
X107611190Y-96116650D01*
X107603752Y-96115236D01*
X107505704Y-96100853D01*
X107390103Y-96090032D01*
X107265794Y-96083127D01*
X107141623Y-96080489D01*
X107026434Y-96082473D01*
X106929072Y-96089431D01*
X106795786Y-96108764D01*
X106566874Y-96162866D01*
X106345170Y-96241707D01*
X106133713Y-96343932D01*
X105935542Y-96468187D01*
X105753698Y-96613117D01*
X105672563Y-96685864D01*
X105726342Y-96725567D01*
X105886054Y-96851846D01*
X106057447Y-97008196D01*
X106210571Y-97171548D01*
X106340919Y-97337414D01*
X106342118Y-97339100D01*
X106370881Y-97376697D01*
X106394459Y-97402569D01*
X106407851Y-97411200D01*
X106415544Y-97404163D01*
X106432940Y-97378109D01*
X106453433Y-97340100D01*
X106466841Y-97313286D01*
X106486539Y-97275335D01*
X106499675Y-97251847D01*
X106506883Y-97239130D01*
X106524412Y-97205106D01*
X106544925Y-97162940D01*
X106561264Y-97130486D01*
X106627262Y-97028149D01*
X106705996Y-96942011D01*
X106793627Y-96875782D01*
X106886313Y-96833171D01*
X106948832Y-96818634D01*
X107029078Y-96808278D01*
X107116112Y-96803150D01*
X107201572Y-96803470D01*
X107277093Y-96809458D01*
X107334312Y-96821337D01*
X107365818Y-96832839D01*
X107470248Y-96889378D01*
X107562072Y-96969532D01*
X107639809Y-97072086D01*
X107676723Y-97131689D01*
X107698181Y-97099442D01*
X107741081Y-97043624D01*
X107814167Y-96979066D01*
X107895327Y-96939435D01*
X107982776Y-96925494D01*
X108074731Y-96938008D01*
X108087426Y-96942057D01*
X108131970Y-96969226D01*
X108162728Y-97015097D01*
X108182421Y-97083346D01*
X108187392Y-97158035D01*
X108172920Y-97221774D01*
X108141030Y-97268944D01*
X108094347Y-97297072D01*
X108035497Y-97303682D01*
X107967106Y-97286300D01*
X107942212Y-97273361D01*
X107922404Y-97252529D01*
X107924290Y-97234430D01*
X107944462Y-97222354D01*
X107979511Y-97219590D01*
X108026029Y-97229428D01*
X108052860Y-97231541D01*
X108083368Y-97213857D01*
X108104387Y-97176830D01*
X108112216Y-97124950D01*
X108107342Y-97071163D01*
X108088415Y-97032340D01*
X108051778Y-97011712D01*
X107993826Y-97005643D01*
X107993498Y-97005644D01*
X107907034Y-97016737D01*
X107836635Y-97049966D01*
X107782082Y-97105488D01*
X107743157Y-97183457D01*
X107737539Y-97201222D01*
X107734696Y-97223775D01*
X107739880Y-97248637D01*
X107754922Y-97282964D01*
X107781655Y-97333915D01*
X107802895Y-97377309D01*
X107832682Y-97447124D01*
X107862399Y-97524959D01*
X107887985Y-97600635D01*
X107889976Y-97607040D01*
X107911835Y-97680380D01*
X107926192Y-97738275D01*
X107934639Y-97790320D01*
X107938766Y-97846107D01*
X107940165Y-97915229D01*
X107940285Y-97935319D01*
X107939833Y-97997418D01*
X107936933Y-98041955D01*
X107930250Y-98076686D01*
X107918453Y-98109367D01*
X107900208Y-98147754D01*
X107879448Y-98187227D01*
X107859977Y-98215230D01*
X107840317Y-98228898D01*
X107814638Y-98234114D01*
X107783176Y-98232993D01*
X107732296Y-98210800D01*
X107685453Y-98162468D01*
X107642014Y-98087459D01*
X107599292Y-97997297D01*
X107599960Y-97716898D01*
X107668797Y-97716898D01*
X107669165Y-97778585D01*
X107670233Y-97854522D01*
X107672320Y-97910997D01*
X107675895Y-97952805D01*
X107681427Y-97984738D01*
X107689386Y-98011592D01*
X107700240Y-98038160D01*
X107722631Y-98082148D01*
X107751250Y-98125953D01*
X107778494Y-98156681D01*
X107799729Y-98168271D01*
X107802521Y-98167868D01*
X107820150Y-98151356D01*
X107838728Y-98115372D01*
X107855903Y-98066419D01*
X107869322Y-98011000D01*
X107876635Y-97955617D01*
X107876671Y-97955069D01*
X107878150Y-97909834D01*
X107875599Y-97866255D01*
X107867935Y-97817407D01*
X107854074Y-97756364D01*
X107832934Y-97676200D01*
X107830296Y-97666620D01*
X107808580Y-97592453D01*
X107785989Y-97522247D01*
X107765046Y-97463524D01*
X107748273Y-97423804D01*
X107733322Y-97394848D01*
X107714190Y-97360679D01*
X107701990Y-97342523D01*
X107701825Y-97342357D01*
X107691809Y-97345098D01*
X107683425Y-97373666D01*
X107676801Y-97426596D01*
X107672069Y-97502422D01*
X107669357Y-97599677D01*
X107668797Y-97716898D01*
X107599960Y-97716898D01*
X107600041Y-97682703D01*
X107600131Y-97653510D01*
X107600944Y-97551335D01*
X107602650Y-97471712D01*
X107605480Y-97410794D01*
X107609668Y-97364734D01*
X107615444Y-97329685D01*
X107623041Y-97301801D01*
X107626807Y-97290474D01*
X107635830Y-97258272D01*
X107637351Y-97231543D01*
X107629758Y-97203034D01*
X107611440Y-97165495D01*
X107580786Y-97111674D01*
X107577238Y-97105652D01*
X107509779Y-97015862D01*
X107427266Y-96944325D01*
X107334584Y-96895335D01*
X107302977Y-96884356D01*
X107266377Y-96875453D01*
X107225098Y-96870868D01*
X107171606Y-96869845D01*
X107098368Y-96871627D01*
X107078879Y-96872319D01*
X107013265Y-96875528D01*
X106965315Y-96880477D01*
X106927230Y-96888724D01*
X106891212Y-96901827D01*
X106849465Y-96921343D01*
X106812483Y-96941193D01*
X106734808Y-96997459D01*
X106669695Y-97069298D01*
X106614033Y-97160574D01*
X106564714Y-97275151D01*
X106550452Y-97311047D01*
X106529515Y-97356958D01*
X106511856Y-97388627D01*
X106510281Y-97390974D01*
X106489603Y-97429354D01*
X106472069Y-97472989D01*
X106468732Y-97483777D01*
X106464453Y-97505648D01*
X106466214Y-97528267D01*
X106475661Y-97557515D01*
X106494436Y-97599274D01*
X106524185Y-97659424D01*
X106569218Y-97753613D01*
X106613234Y-97860647D01*
X106639782Y-97948025D01*
X106648673Y-98015208D01*
X106647627Y-98042111D01*
X106635122Y-98113307D01*
X106610822Y-98177568D01*
X106577682Y-98229791D01*
X106538659Y-98264868D01*
X106496708Y-98277695D01*
X106457824Y-98266169D01*
X106418272Y-98236017D01*
X106386267Y-98194939D01*
X106369522Y-98150642D01*
X106362119Y-98089401D01*
X106355144Y-97966653D01*
X106355268Y-97942715D01*
X106425176Y-97942715D01*
X106426844Y-98012059D01*
X106430459Y-98074064D01*
X106436084Y-98123529D01*
X106443778Y-98155255D01*
X106459934Y-98183770D01*
X106485370Y-98201573D01*
X106512242Y-98197453D01*
X106537855Y-98174151D01*
X106559517Y-98134404D01*
X106574532Y-98080953D01*
X106580207Y-98016535D01*
X106577537Y-97985088D01*
X106561509Y-97917108D01*
X106532314Y-97834126D01*
X106491463Y-97740835D01*
X106472890Y-97703018D01*
X106457219Y-97673494D01*
X106449548Y-97662186D01*
X106443927Y-97667935D01*
X106436768Y-97695964D01*
X106431252Y-97742657D01*
X106427441Y-97802813D01*
X106425396Y-97871233D01*
X106425176Y-97942715D01*
X106355268Y-97942715D01*
X106355842Y-97831465D01*
X106364314Y-97692659D01*
X106370859Y-97618843D01*
X106373985Y-97561708D01*
X106371331Y-97517927D01*
X106360874Y-97480378D01*
X106340592Y-97441941D01*
X106308465Y-97395493D01*
X106262470Y-97333915D01*
X106189526Y-97242100D01*
X106093231Y-97132821D01*
X105989781Y-97025959D01*
X105884519Y-96926751D01*
X105782785Y-96840439D01*
X105689922Y-96772262D01*
X105630520Y-96732936D01*
X105598134Y-96763285D01*
X105592583Y-96768621D01*
X105553382Y-96810868D01*
X105504911Y-96868718D01*
X105452054Y-96935985D01*
X105399697Y-97006485D01*
X105352722Y-97074033D01*
X105301898Y-97154710D01*
X105197876Y-97355208D01*
X105116206Y-97567976D01*
X105057265Y-97790039D01*
X105021430Y-98018423D01*
X105009079Y-98250152D01*
X104941202Y-98250152D01*
X104941204Y-98237121D01*
X104945195Y-98113603D01*
X104952879Y-97993851D01*
X104963973Y-97885677D01*
X104978195Y-97796897D01*
X105015859Y-97641774D01*
X105094940Y-97410458D01*
X105198877Y-97189823D01*
X105326902Y-96981418D01*
X105478247Y-96786796D01*
X105493355Y-96769390D01*
X105528251Y-96728280D01*
X105548056Y-96701685D01*
X105555022Y-96685075D01*
X105551400Y-96673921D01*
X105539442Y-96663694D01*
X105533753Y-96659453D01*
X105501949Y-96634635D01*
X105466170Y-96605563D01*
X105454610Y-96596294D01*
X105425660Y-96576029D01*
X105407936Y-96567948D01*
X105398718Y-96565054D01*
X105370952Y-96550596D01*
X105334513Y-96528071D01*
X105272663Y-96493448D01*
X105167214Y-96452424D01*
X105048449Y-96422394D01*
X104923521Y-96404285D01*
X104799584Y-96399024D01*
X104683792Y-96407538D01*
X104583299Y-96430752D01*
X104558888Y-96439595D01*
X104453613Y-96488691D01*
X104355429Y-96551098D01*
X104274463Y-96620593D01*
X104223835Y-96690817D01*
X104189873Y-96781575D01*
X104174755Y-96889130D01*
X104178723Y-97011717D01*
X104202019Y-97147569D01*
X104214407Y-97199190D01*
X104231428Y-97258933D01*
X104250622Y-97305024D01*
X104276397Y-97345371D01*
X104313163Y-97387880D01*
X104365328Y-97440460D01*
X104435797Y-97505631D01*
X104503149Y-97556700D01*
X104566044Y-97589869D01*
X104629757Y-97607867D01*
X104699562Y-97613425D01*
X104740302Y-97612187D01*
X104814570Y-97599221D01*
X104868226Y-97571418D01*
X104903464Y-97527857D01*
X104913524Y-97502783D01*
X104928285Y-97450465D01*
X104942518Y-97385461D01*
X104954612Y-97316241D01*
X104962959Y-97251278D01*
X104965948Y-97199044D01*
X104965751Y-97186528D01*
X104956343Y-97099101D01*
X104934069Y-97026304D01*
X104900517Y-96973615D01*
X104844511Y-96927163D01*
X104780279Y-96895582D01*
X104716176Y-96882748D01*
X104659140Y-96891038D01*
X104645578Y-96898824D01*
X104619913Y-96932024D01*
X104605260Y-96979073D01*
X104605083Y-97031001D01*
X104607383Y-97072366D01*
X104597258Y-97094376D01*
X104595540Y-97095364D01*
X104575009Y-97094925D01*
X104558833Y-97074049D01*
X104548225Y-97039005D01*
X104544396Y-96996063D01*
X104548558Y-96951492D01*
X104561923Y-96911559D01*
X104566709Y-96903052D01*
X104606444Y-96858010D01*
X104658645Y-96826281D01*
X104713240Y-96814336D01*
X104720274Y-96814600D01*
X104772701Y-96826419D01*
X104833500Y-96852454D01*
X104893416Y-96888100D01*
X104943190Y-96928751D01*
X104964229Y-96951773D01*
X104989934Y-96990574D01*
X105006962Y-97036335D01*
X105016411Y-97094071D01*
X105019378Y-97168796D01*
X105016963Y-97265525D01*
X105013279Y-97329350D01*
X105001414Y-97431705D01*
X104981695Y-97512022D01*
X104952369Y-97573460D01*
X104911684Y-97619177D01*
X104857888Y-97652334D01*
X104789227Y-97676088D01*
X104710715Y-97686999D01*
X104613397Y-97675719D01*
X104513882Y-97638246D01*
X104413302Y-97575032D01*
X104312792Y-97486528D01*
X104285676Y-97458763D01*
X104236371Y-97403825D01*
X104200669Y-97353741D01*
X104174241Y-97300524D01*
X104152756Y-97236183D01*
X104131885Y-97152728D01*
X104118767Y-97084412D01*
X104107143Y-96950652D01*
X104113700Y-96821941D01*
X104138324Y-96706074D01*
X104139262Y-96703160D01*
X104176731Y-96628892D01*
X104237273Y-96557149D01*
X104316765Y-96490522D01*
X104411087Y-96431599D01*
X104516116Y-96382970D01*
X104627731Y-96347224D01*
X104741809Y-96326951D01*
X104824077Y-96324141D01*
X104927532Y-96331822D01*
X105036577Y-96349401D01*
X105144637Y-96375277D01*
X105245135Y-96407846D01*
X105331494Y-96445505D01*
X105397138Y-96486653D01*
X105426496Y-96509447D01*
X105484184Y-96552075D01*
X105537790Y-96589485D01*
X105610052Y-96637758D01*
X105736121Y-96531953D01*
X105812147Y-96470506D01*
X106012411Y-96330488D01*
X106220798Y-96215982D01*
X106439377Y-96126083D01*
X106670219Y-96059887D01*
X106915394Y-96016488D01*
X106943646Y-96013736D01*
X107011736Y-96010445D01*
X107096306Y-96009152D01*
X107190431Y-96009726D01*
G37*
%LPC*%
D12*
X115100000Y-99900000D03*
D13*
X112005000Y-94500000D03*
X110505000Y-94500000D03*
X109005000Y-94500000D03*
X107505000Y-94500000D03*
X106005000Y-94500000D03*
D12*
X102900000Y-99900000D03*
%LPD*%
M02*
