G04 #@! TF.GenerationSoftware,KiCad,Pcbnew,8.0.2*
G04 #@! TF.CreationDate,2024-07-25T04:30:10-07:00*
G04 #@! TF.ProjectId,uSlime_BNO085,75536c69-6d65-45f4-924e-4f3038352e6b,rev?*
G04 #@! TF.SameCoordinates,Original*
G04 #@! TF.FileFunction,Copper,L1,Top*
G04 #@! TF.FilePolarity,Positive*
%FSLAX46Y46*%
G04 Gerber Fmt 4.6, Leading zero omitted, Abs format (unit mm)*
G04 Created by KiCad (PCBNEW 8.0.2) date 2024-07-25 04:30:10*
%MOMM*%
%LPD*%
G01*
G04 APERTURE LIST*
G04 Aperture macros list*
%AMRoundRect*
0 Rectangle with rounded corners*
0 $1 Rounding radius*
0 $2 $3 $4 $5 $6 $7 $8 $9 X,Y pos of 4 corners*
0 Add a 4 corners polygon primitive as box body*
4,1,4,$2,$3,$4,$5,$6,$7,$8,$9,$2,$3,0*
0 Add four circle primitives for the rounded corners*
1,1,$1+$1,$2,$3*
1,1,$1+$1,$4,$5*
1,1,$1+$1,$6,$7*
1,1,$1+$1,$8,$9*
0 Add four rect primitives between the rounded corners*
20,1,$1+$1,$2,$3,$4,$5,0*
20,1,$1+$1,$4,$5,$6,$7,0*
20,1,$1+$1,$6,$7,$8,$9,0*
20,1,$1+$1,$8,$9,$2,$3,0*%
%AMFreePoly0*
4,1,19,0.550000,-0.750000,0.000000,-0.750000,0.000000,-0.744911,-0.071157,-0.744911,-0.207708,-0.704816,-0.327430,-0.627875,-0.420627,-0.520320,-0.479746,-0.390866,-0.500000,-0.250000,-0.500000,0.250000,-0.479746,0.390866,-0.420627,0.520320,-0.327430,0.627875,-0.207708,0.704816,-0.071157,0.744911,0.000000,0.744911,0.000000,0.750000,0.550000,0.750000,0.550000,-0.750000,0.550000,-0.750000,
$1*%
%AMFreePoly1*
4,1,19,0.000000,0.744911,0.071157,0.744911,0.207708,0.704816,0.327430,0.627875,0.420627,0.520320,0.479746,0.390866,0.500000,0.250000,0.500000,-0.250000,0.479746,-0.390866,0.420627,-0.520320,0.327430,-0.627875,0.207708,-0.704816,0.071157,-0.744911,0.000000,-0.744911,0.000000,-0.750000,-0.550000,-0.750000,-0.550000,0.750000,0.000000,0.750000,0.000000,0.744911,0.000000,0.744911,
$1*%
G04 Aperture macros list end*
G04 #@! TA.AperFunction,SMDPad,CuDef*
%ADD10R,0.250010X0.675010*%
G04 #@! TD*
G04 #@! TA.AperFunction,SMDPad,CuDef*
%ADD11R,0.575010X0.250010*%
G04 #@! TD*
G04 #@! TA.AperFunction,SMDPad,CuDef*
%ADD12RoundRect,0.135000X-0.185000X0.135000X-0.185000X-0.135000X0.185000X-0.135000X0.185000X0.135000X0*%
G04 #@! TD*
G04 #@! TA.AperFunction,SMDPad,CuDef*
%ADD13RoundRect,0.135000X-0.135000X-0.185000X0.135000X-0.185000X0.135000X0.185000X-0.135000X0.185000X0*%
G04 #@! TD*
G04 #@! TA.AperFunction,SMDPad,CuDef*
%ADD14RoundRect,0.135000X0.185000X-0.135000X0.185000X0.135000X-0.185000X0.135000X-0.185000X-0.135000X0*%
G04 #@! TD*
G04 #@! TA.AperFunction,SMDPad,CuDef*
%ADD15RoundRect,0.135000X0.135000X0.185000X-0.135000X0.185000X-0.135000X-0.185000X0.135000X-0.185000X0*%
G04 #@! TD*
G04 #@! TA.AperFunction,SMDPad,CuDef*
%ADD16RoundRect,0.140000X0.170000X-0.140000X0.170000X0.140000X-0.170000X0.140000X-0.170000X-0.140000X0*%
G04 #@! TD*
G04 #@! TA.AperFunction,SMDPad,CuDef*
%ADD17RoundRect,0.140000X0.140000X0.170000X-0.140000X0.170000X-0.140000X-0.170000X0.140000X-0.170000X0*%
G04 #@! TD*
G04 #@! TA.AperFunction,SMDPad,CuDef*
%ADD18RoundRect,0.140000X-0.140000X-0.170000X0.140000X-0.170000X0.140000X0.170000X-0.140000X0.170000X0*%
G04 #@! TD*
G04 #@! TA.AperFunction,SMDPad,CuDef*
%ADD19FreePoly0,90.000000*%
G04 #@! TD*
G04 #@! TA.AperFunction,SMDPad,CuDef*
%ADD20R,1.500000X1.000000*%
G04 #@! TD*
G04 #@! TA.AperFunction,SMDPad,CuDef*
%ADD21FreePoly1,90.000000*%
G04 #@! TD*
G04 #@! TA.AperFunction,ComponentPad*
%ADD22C,1.200000*%
G04 #@! TD*
G04 #@! TA.AperFunction,ViaPad*
%ADD23C,0.600000*%
G04 #@! TD*
G04 #@! TA.AperFunction,ViaPad*
%ADD24C,0.500000*%
G04 #@! TD*
G04 #@! TA.AperFunction,Conductor*
%ADD25C,0.254000*%
G04 #@! TD*
G04 APERTURE END LIST*
D10*
X107251020Y-96737560D03*
X107751400Y-96737560D03*
X108250510Y-96737560D03*
X108750890Y-96737560D03*
X109250000Y-96737560D03*
X109750380Y-96737560D03*
X110250760Y-96737560D03*
X110751140Y-96737560D03*
X111250250Y-96737560D03*
D11*
X111313750Y-97550360D03*
X111313750Y-98050740D03*
X111313750Y-98549850D03*
X111313750Y-99050230D03*
D10*
X111250250Y-99863030D03*
X110751140Y-99863030D03*
X110250760Y-99863030D03*
X109750380Y-99863030D03*
X109250000Y-99863030D03*
X108750890Y-99863030D03*
X108250510Y-99863030D03*
X107751400Y-99863030D03*
X107251020Y-99863030D03*
X106750640Y-99863030D03*
D11*
X106687140Y-99050230D03*
X106687140Y-98549850D03*
X106687140Y-98050740D03*
X106687140Y-97550360D03*
D10*
X106750640Y-96737560D03*
D12*
X114350000Y-96110000D03*
X114350000Y-95090000D03*
D13*
X112290000Y-96550000D03*
X113310000Y-96550000D03*
D14*
X115400000Y-96110000D03*
X115400000Y-95090000D03*
D15*
X109440000Y-101123140D03*
X110460000Y-101123140D03*
D12*
X105500000Y-98290000D03*
X105500000Y-99310000D03*
D16*
X103700000Y-95530000D03*
X103700000Y-94570000D03*
D17*
X108500000Y-101123140D03*
X107540000Y-101123140D03*
D16*
X105500000Y-96470000D03*
X105500000Y-97430000D03*
D18*
X102720000Y-92600000D03*
X103680000Y-92600000D03*
X102720000Y-93550000D03*
X103680000Y-93550000D03*
D19*
X115307500Y-93500000D03*
D20*
X115307500Y-92200000D03*
D21*
X115307500Y-90900000D03*
D22*
X106005000Y-94500000D03*
X107505000Y-94500000D03*
X109005000Y-94500000D03*
X110505000Y-94500000D03*
X112005000Y-94500000D03*
D23*
X103900000Y-96550000D03*
D24*
X112050000Y-97550000D03*
X112127797Y-98534409D03*
X113700000Y-92800000D03*
D23*
X110166711Y-100700536D03*
X102950000Y-96500000D03*
X113200000Y-90900000D03*
D24*
X111900000Y-100650000D03*
D25*
X113760000Y-94500000D02*
X114350000Y-95090000D01*
X112005000Y-94500000D02*
X113760000Y-94500000D01*
X102950000Y-96500000D02*
X102950000Y-95290000D01*
X102950000Y-95290000D02*
X103700000Y-94540000D01*
X102950000Y-96500000D02*
X103880000Y-97430000D01*
X103880000Y-97430000D02*
X105500000Y-97430000D01*
X108750890Y-98746520D02*
X109446670Y-98050740D01*
X108750890Y-99863030D02*
X108750890Y-98746520D01*
X103980000Y-96470000D02*
X103900000Y-96550000D01*
X105500000Y-96470000D02*
X103980000Y-96470000D01*
X112049640Y-97550360D02*
X112050000Y-97550000D01*
X111313750Y-97550360D02*
X112049640Y-97550360D01*
X111329191Y-98534409D02*
X111313750Y-98549850D01*
X112127797Y-98534409D02*
X111329191Y-98534409D01*
X106260150Y-98549850D02*
X105500000Y-99310000D01*
X106687140Y-98549850D02*
X106260150Y-98549850D01*
X105839260Y-98050740D02*
X106687140Y-98050740D01*
X105500000Y-98390000D02*
X105839260Y-98050740D01*
X107251020Y-96121430D02*
X107251020Y-96737560D01*
X107202645Y-96073055D02*
X107251020Y-96121430D01*
X106380000Y-95530000D02*
X106923055Y-96073055D01*
X103700000Y-95530000D02*
X106380000Y-95530000D01*
X106923055Y-96073055D02*
X107202645Y-96073055D01*
X107005000Y-95500000D02*
X106005000Y-94500000D01*
X110850000Y-95500000D02*
X107005000Y-95500000D01*
X110979400Y-95629400D02*
X110850000Y-95500000D01*
X111249570Y-95920170D02*
X110979400Y-95650000D01*
X111249570Y-96537570D02*
X111249570Y-95920170D01*
X111262000Y-96550000D02*
X111249570Y-96537570D01*
X112290000Y-96550000D02*
X111262000Y-96550000D01*
X110979400Y-95650000D02*
X110979400Y-95629400D01*
X114300000Y-92200000D02*
X113700000Y-92800000D01*
X115307500Y-92200000D02*
X114300000Y-92200000D01*
X110166711Y-100829851D02*
X110460000Y-101123140D01*
X110166711Y-100700536D02*
X110166711Y-100829851D01*
X115307500Y-90900000D02*
X113200000Y-90900000D01*
X110505000Y-93595000D02*
X113200000Y-90900000D01*
X110505000Y-94500000D02*
X110505000Y-93595000D01*
X109197965Y-97802035D02*
X108946290Y-97550360D01*
X109197965Y-97802035D02*
X108750890Y-97354960D01*
X109446670Y-98050740D02*
X109197965Y-97802035D01*
X108946290Y-97550360D02*
X106687140Y-97550360D01*
X106600360Y-97550360D02*
X106687140Y-97550360D01*
X105520000Y-96470000D02*
X106600360Y-97550360D01*
X105500000Y-96470000D02*
X105520000Y-96470000D01*
X106120740Y-98050740D02*
X106687140Y-98050740D01*
X105500000Y-97430000D02*
X106120740Y-98050740D01*
X108750890Y-97354960D02*
X108750890Y-96737560D01*
X111313750Y-98050740D02*
X109446670Y-98050740D01*
X112600000Y-98866002D02*
X113280000Y-98186002D01*
X113280000Y-98186002D02*
X113280000Y-96580000D01*
X112600000Y-100800000D02*
X112600000Y-98866002D01*
X112173000Y-101227000D02*
X112600000Y-100800000D01*
X110563860Y-101227000D02*
X112173000Y-101227000D01*
X110460000Y-101123140D02*
X110563860Y-101227000D01*
X108250510Y-100398312D02*
X107540000Y-101108822D01*
X107540000Y-101108822D02*
X107540000Y-101123140D01*
X108250510Y-99863030D02*
X108250510Y-100398312D01*
X108750890Y-100872250D02*
X108750890Y-99863030D01*
X108500000Y-101123140D02*
X108750890Y-100872250D01*
X109450000Y-100500000D02*
X109450000Y-101113140D01*
X109250000Y-100300000D02*
X109450000Y-100500000D01*
X109450000Y-101113140D02*
X109440000Y-101123140D01*
X109250000Y-99863030D02*
X109250000Y-100300000D01*
X113280000Y-96580000D02*
X113310000Y-96550000D01*
X113310000Y-96550000D02*
X113910000Y-96550000D01*
X113910000Y-96550000D02*
X114350000Y-96110000D01*
X115400000Y-95090000D02*
X115400000Y-93592500D01*
X115400000Y-93592500D02*
X115307500Y-93500000D01*
X114350000Y-96110000D02*
X115400000Y-96110000D01*
X102720000Y-92600000D02*
X102720000Y-93550000D01*
X103680000Y-92600000D02*
X103680000Y-93550000D01*
X103700000Y-93570000D02*
X103680000Y-93550000D01*
X103700000Y-94540000D02*
X103700000Y-93570000D01*
X106750000Y-93300000D02*
X107505000Y-94055000D01*
X107505000Y-94055000D02*
X107505000Y-94500000D01*
X104940000Y-93300000D02*
X106750000Y-93300000D01*
X103700000Y-94540000D02*
X104940000Y-93300000D01*
X111900000Y-100650000D02*
X111057324Y-100650000D01*
X110751140Y-100343816D02*
X110751140Y-99986180D01*
X111057324Y-100650000D02*
X110751140Y-100343816D01*
G04 #@! TA.AperFunction,Conductor*
G36*
X116280632Y-89857573D02*
G01*
X116281149Y-89857607D01*
X116284100Y-89857607D01*
X116284104Y-89857608D01*
X116347245Y-89857607D01*
X116352732Y-89857915D01*
X116392477Y-89862393D01*
X116455661Y-89869512D01*
X116466357Y-89871953D01*
X116561507Y-89905247D01*
X116571392Y-89910007D01*
X116650120Y-89959475D01*
X116656754Y-89963643D01*
X116665333Y-89970485D01*
X116736614Y-90041766D01*
X116743456Y-90050345D01*
X116797092Y-90135707D01*
X116801852Y-90145593D01*
X116835145Y-90240741D01*
X116837587Y-90251438D01*
X116849184Y-90354368D01*
X116849492Y-90359854D01*
X116849492Y-90425991D01*
X116849493Y-90426008D01*
X116849497Y-99172389D01*
X116835145Y-99207037D01*
X116800497Y-99221389D01*
X116765849Y-99207037D01*
X116755227Y-99191140D01*
X116755147Y-99190947D01*
X116718284Y-99101951D01*
X116600273Y-98897550D01*
X116600270Y-98897546D01*
X116600264Y-98897537D01*
X116456596Y-98710306D01*
X116456586Y-98710294D01*
X116289705Y-98543413D01*
X116289693Y-98543403D01*
X116102462Y-98399735D01*
X116102447Y-98399725D01*
X115898050Y-98281716D01*
X115679996Y-98191395D01*
X115679986Y-98191391D01*
X115452025Y-98130309D01*
X115452018Y-98130308D01*
X115452014Y-98130307D01*
X115218011Y-98099500D01*
X114981989Y-98099500D01*
X114747986Y-98130307D01*
X114747982Y-98130307D01*
X114747974Y-98130309D01*
X114520013Y-98191391D01*
X114520003Y-98191395D01*
X114301949Y-98281716D01*
X114097552Y-98399725D01*
X114097537Y-98399735D01*
X113909940Y-98543684D01*
X113873715Y-98553391D01*
X113841237Y-98534639D01*
X113831530Y-98498414D01*
X113835632Y-98485654D01*
X113835162Y-98485459D01*
X113847615Y-98455393D01*
X113883385Y-98369037D01*
X113907500Y-98247805D01*
X113907500Y-97272105D01*
X113911969Y-97251659D01*
X113923847Y-97225789D01*
X113930808Y-97210627D01*
X113954399Y-97186774D01*
X113970173Y-97179318D01*
X113981550Y-97175560D01*
X114093035Y-97153386D01*
X114176319Y-97118888D01*
X114207233Y-97106083D01*
X114310008Y-97037411D01*
X114310017Y-97037401D01*
X114311873Y-97035880D01*
X114311965Y-97035992D01*
X114321382Y-97028998D01*
X114589362Y-96885409D01*
X114608657Y-96879753D01*
X114635204Y-96877665D01*
X114739321Y-96847416D01*
X114742434Y-96846622D01*
X114771821Y-96840158D01*
X114857769Y-96807873D01*
X114892229Y-96807873D01*
X114978178Y-96840158D01*
X114978182Y-96840159D01*
X115061111Y-96862082D01*
X115062259Y-96862401D01*
X115114796Y-96877665D01*
X115150819Y-96880500D01*
X115649180Y-96880499D01*
X115649185Y-96880498D01*
X115649194Y-96880498D01*
X115669469Y-96878902D01*
X115685204Y-96877665D01*
X115839393Y-96832869D01*
X115977598Y-96751135D01*
X116091135Y-96637598D01*
X116172869Y-96499393D01*
X116217665Y-96345204D01*
X116220500Y-96309181D01*
X116220499Y-95910820D01*
X116217665Y-95874796D01*
X116172869Y-95720607D01*
X116116292Y-95624942D01*
X116111008Y-95587815D01*
X116116293Y-95575057D01*
X116172869Y-95479393D01*
X116217665Y-95325204D01*
X116220500Y-95289181D01*
X116220499Y-94890820D01*
X116219254Y-94875000D01*
X116217665Y-94854796D01*
X116216110Y-94849444D01*
X116172869Y-94700607D01*
X116139832Y-94644745D01*
X116096502Y-94571477D01*
X116094377Y-94567473D01*
X116062486Y-94499999D01*
X116033996Y-94439723D01*
X116032167Y-94402265D01*
X116051805Y-94377564D01*
X116161630Y-94306986D01*
X116270291Y-94212832D01*
X116270294Y-94212829D01*
X116364515Y-94104091D01*
X116442247Y-93983137D01*
X116502017Y-93852259D01*
X116542524Y-93714304D01*
X116563000Y-93571889D01*
X116563000Y-92950000D01*
X116563000Y-92949992D01*
X116557855Y-92878062D01*
X116557855Y-92878060D01*
X116548095Y-92844822D01*
X116549200Y-92813892D01*
X116549686Y-92812589D01*
X116551591Y-92807483D01*
X116558000Y-92747873D01*
X116557999Y-91652128D01*
X116557999Y-91652120D01*
X116551592Y-91592521D01*
X116542597Y-91568404D01*
X116501296Y-91457669D01*
X116415046Y-91342454D01*
X116345814Y-91290627D01*
X116299833Y-91256205D01*
X116299831Y-91256204D01*
X116254881Y-91239439D01*
X116164979Y-91205907D01*
X116105379Y-91199500D01*
X114509620Y-91199500D01*
X114450021Y-91205907D01*
X114315166Y-91256205D01*
X114199954Y-91342454D01*
X114113702Y-91457670D01*
X114079453Y-91549496D01*
X114066750Y-91568404D01*
X113940294Y-91684947D01*
X113934311Y-91689656D01*
X113899995Y-91712586D01*
X113779491Y-91833089D01*
X113778051Y-91834471D01*
X113705101Y-91901703D01*
X113696759Y-91909567D01*
X113696479Y-91909837D01*
X113666396Y-91942717D01*
X113655173Y-91951825D01*
X113355873Y-92128685D01*
X113340863Y-92137911D01*
X113340855Y-92137917D01*
X113337692Y-92140643D01*
X113331779Y-92145010D01*
X113229108Y-92209523D01*
X113229106Y-92209525D01*
X113109524Y-92329108D01*
X113109521Y-92329112D01*
X113019545Y-92472308D01*
X113019544Y-92472310D01*
X112963688Y-92631937D01*
X112963686Y-92631946D01*
X112944751Y-92800000D01*
X112953546Y-92878062D01*
X112963687Y-92968059D01*
X113019544Y-93127690D01*
X113109523Y-93270890D01*
X113229110Y-93390477D01*
X113372310Y-93480456D01*
X113531941Y-93536313D01*
X113700000Y-93555249D01*
X113868059Y-93536313D01*
X113986816Y-93494758D01*
X114024260Y-93496861D01*
X114049250Y-93524824D01*
X114052000Y-93541008D01*
X114052000Y-93571893D01*
X114072475Y-93714301D01*
X114072476Y-93714304D01*
X114112980Y-93852250D01*
X114112986Y-93852266D01*
X114126104Y-93880990D01*
X114127443Y-93918469D01*
X114101887Y-93945917D01*
X114064408Y-93947256D01*
X114058431Y-93944558D01*
X114057229Y-93943915D01*
X114017599Y-93927500D01*
X113943038Y-93896615D01*
X113943032Y-93896613D01*
X113894142Y-93886888D01*
X113821803Y-93872500D01*
X113821800Y-93872500D01*
X113333038Y-93872500D01*
X113313290Y-93868344D01*
X113276743Y-93852250D01*
X113056861Y-93755421D01*
X112449358Y-93487896D01*
X112443309Y-93485278D01*
X112443207Y-93485235D01*
X112443194Y-93485230D01*
X112443173Y-93485221D01*
X112429894Y-93480454D01*
X112388491Y-93465590D01*
X112382496Y-93464719D01*
X112371844Y-93461920D01*
X112307461Y-93436977D01*
X112307456Y-93436976D01*
X112106976Y-93399500D01*
X111903024Y-93399500D01*
X111702544Y-93436976D01*
X111702540Y-93436977D01*
X111702537Y-93436978D01*
X111512366Y-93510650D01*
X111338954Y-93618022D01*
X111287637Y-93664802D01*
X111252363Y-93677538D01*
X111221616Y-93664801D01*
X111170742Y-93618423D01*
X110997409Y-93511099D01*
X110807325Y-93437461D01*
X110606928Y-93400000D01*
X110403072Y-93400000D01*
X110202674Y-93437461D01*
X110012590Y-93511099D01*
X109839257Y-93618423D01*
X109788380Y-93664802D01*
X109753106Y-93677538D01*
X109722359Y-93664801D01*
X109671045Y-93618022D01*
X109671042Y-93618020D01*
X109671041Y-93618019D01*
X109497637Y-93510652D01*
X109497634Y-93510651D01*
X109497633Y-93510650D01*
X109307462Y-93436978D01*
X109307460Y-93436977D01*
X109307456Y-93436976D01*
X109106976Y-93399500D01*
X108903024Y-93399500D01*
X108702544Y-93436976D01*
X108702540Y-93436977D01*
X108702537Y-93436978D01*
X108512366Y-93510650D01*
X108338957Y-93618020D01*
X108288487Y-93664029D01*
X108253212Y-93676765D01*
X108223004Y-93663436D01*
X108222528Y-93663987D01*
X108221197Y-93662835D01*
X108217558Y-93660113D01*
X108213897Y-93657087D01*
X108171045Y-93618022D01*
X108171042Y-93618020D01*
X108171041Y-93618019D01*
X108116074Y-93583985D01*
X108112523Y-93581565D01*
X107977320Y-93480455D01*
X107352108Y-93012898D01*
X107352100Y-93012892D01*
X107352085Y-93012881D01*
X107348904Y-93010589D01*
X107342901Y-93005482D01*
X107150007Y-92812588D01*
X107131167Y-92800000D01*
X107047233Y-92743917D01*
X107047230Y-92743915D01*
X107047229Y-92743915D01*
X107006314Y-92726968D01*
X106933038Y-92696615D01*
X106933032Y-92696613D01*
X106884142Y-92686888D01*
X106811803Y-92672500D01*
X105001803Y-92672500D01*
X104878197Y-92672500D01*
X104787273Y-92690585D01*
X104756965Y-92696614D01*
X104756964Y-92696614D01*
X104690069Y-92724322D01*
X104690070Y-92724323D01*
X104642767Y-92743916D01*
X104558833Y-92800000D01*
X104537991Y-92813926D01*
X104537417Y-92813067D01*
X104504683Y-92822987D01*
X104471613Y-92805298D01*
X104460500Y-92774224D01*
X104460500Y-92365321D01*
X104460500Y-92365310D01*
X104457643Y-92329007D01*
X104412494Y-92173605D01*
X104394423Y-92143048D01*
X104330120Y-92034317D01*
X104330116Y-92034312D01*
X104215687Y-91919883D01*
X104215682Y-91919879D01*
X104076398Y-91837507D01*
X104076391Y-91837505D01*
X104052581Y-91830587D01*
X103920992Y-91792356D01*
X103884692Y-91789500D01*
X103884690Y-91789500D01*
X103475310Y-91789500D01*
X103475307Y-91789500D01*
X103439008Y-91792356D01*
X103439006Y-91792356D01*
X103283606Y-91837505D01*
X103224452Y-91872489D01*
X103187323Y-91877772D01*
X103174566Y-91872488D01*
X103116198Y-91837969D01*
X102970000Y-91795493D01*
X102970000Y-92122163D01*
X102963177Y-92147105D01*
X102947506Y-92173604D01*
X102902356Y-92329006D01*
X102902356Y-92329008D01*
X102899500Y-92365307D01*
X102899500Y-92834692D01*
X102902356Y-92870991D01*
X102902356Y-92870993D01*
X102936084Y-92987083D01*
X102936765Y-92989690D01*
X102942504Y-93014454D01*
X102959131Y-93057258D01*
X102959131Y-93092742D01*
X102942502Y-93135551D01*
X102929167Y-93186657D01*
X102928809Y-93187955D01*
X102902357Y-93279004D01*
X102902356Y-93279008D01*
X102899500Y-93315307D01*
X102899500Y-93784692D01*
X102902356Y-93820991D01*
X102902356Y-93820992D01*
X102947506Y-93976396D01*
X102947507Y-93976397D01*
X102947582Y-93976524D01*
X102951502Y-93984854D01*
X102952062Y-93986410D01*
X102965800Y-94017417D01*
X102970000Y-94037266D01*
X102970000Y-94105228D01*
X102965622Y-94125473D01*
X102965573Y-94125581D01*
X102963128Y-94130278D01*
X102937506Y-94173604D01*
X102892945Y-94326980D01*
X102888642Y-94337254D01*
X102730647Y-94619332D01*
X102722544Y-94630035D01*
X102549992Y-94802589D01*
X102462588Y-94889992D01*
X102393916Y-94992768D01*
X102387559Y-95008117D01*
X102346615Y-95106961D01*
X102346613Y-95106967D01*
X102327690Y-95202107D01*
X102327689Y-95202107D01*
X102322500Y-95228191D01*
X102322500Y-95799996D01*
X102320309Y-95814483D01*
X102193078Y-96225575D01*
X102185068Y-96254472D01*
X102185067Y-96254474D01*
X102184566Y-96259576D01*
X102182052Y-96270957D01*
X102164632Y-96320745D01*
X102164632Y-96320746D01*
X102164631Y-96320750D01*
X102144435Y-96500000D01*
X102164631Y-96679249D01*
X102164633Y-96679258D01*
X102224212Y-96849526D01*
X102320182Y-97002259D01*
X102320185Y-97002263D01*
X102447739Y-97129817D01*
X102485246Y-97153384D01*
X102600478Y-97225789D01*
X102602222Y-97226399D01*
X102608891Y-97229305D01*
X102989471Y-97429988D01*
X103001264Y-97438683D01*
X103392589Y-97830008D01*
X103479992Y-97917411D01*
X103582767Y-97986083D01*
X103604599Y-97995126D01*
X103696966Y-98033386D01*
X103818197Y-98057500D01*
X104630500Y-98057500D01*
X104665148Y-98071852D01*
X104679500Y-98106500D01*
X104679500Y-98489179D01*
X104679501Y-98489194D01*
X104682334Y-98525203D01*
X104727130Y-98679391D01*
X104727131Y-98679393D01*
X104752759Y-98722728D01*
X104783706Y-98775057D01*
X104788989Y-98812186D01*
X104783706Y-98824943D01*
X104727130Y-98920608D01*
X104682334Y-99074795D01*
X104682334Y-99074797D01*
X104679500Y-99110816D01*
X104679500Y-99244821D01*
X104665148Y-99279469D01*
X104630500Y-99293821D01*
X104595852Y-99279469D01*
X104585230Y-99263573D01*
X104547462Y-99172394D01*
X104518284Y-99101951D01*
X104502605Y-99074795D01*
X104448714Y-98981452D01*
X104400273Y-98897550D01*
X104400270Y-98897546D01*
X104400264Y-98897537D01*
X104256596Y-98710306D01*
X104256586Y-98710294D01*
X104089705Y-98543413D01*
X104089693Y-98543403D01*
X103902462Y-98399735D01*
X103902447Y-98399725D01*
X103698050Y-98281716D01*
X103479996Y-98191395D01*
X103479986Y-98191391D01*
X103252025Y-98130309D01*
X103252018Y-98130308D01*
X103252014Y-98130307D01*
X103018011Y-98099500D01*
X102781989Y-98099500D01*
X102547986Y-98130307D01*
X102547982Y-98130307D01*
X102547974Y-98130309D01*
X102320013Y-98191391D01*
X102320003Y-98191395D01*
X102101949Y-98281716D01*
X101897552Y-98399725D01*
X101897537Y-98399735D01*
X101710306Y-98543403D01*
X101710294Y-98543413D01*
X101543413Y-98710294D01*
X101543403Y-98710306D01*
X101399735Y-98897537D01*
X101399725Y-98897552D01*
X101281716Y-99101949D01*
X101244770Y-99191146D01*
X101218251Y-99217664D01*
X101180748Y-99217664D01*
X101154230Y-99191145D01*
X101150500Y-99172394D01*
X101150500Y-93800000D01*
X101941210Y-93800000D01*
X101942854Y-93820913D01*
X101987969Y-93976198D01*
X102070277Y-94115373D01*
X102070281Y-94115378D01*
X102184621Y-94229718D01*
X102184626Y-94229722D01*
X102323802Y-94312031D01*
X102469999Y-94354505D01*
X102470000Y-94354504D01*
X102470000Y-93800000D01*
X101941210Y-93800000D01*
X101150500Y-93800000D01*
X101150500Y-93299999D01*
X101941208Y-93299999D01*
X101941209Y-93300000D01*
X102470000Y-93300000D01*
X102470000Y-92850000D01*
X101941210Y-92850000D01*
X101942854Y-92870913D01*
X101987968Y-93026195D01*
X102002080Y-93050058D01*
X102007363Y-93087186D01*
X102002080Y-93099942D01*
X101987968Y-93123804D01*
X101942854Y-93279085D01*
X101942854Y-93279086D01*
X101941208Y-93299999D01*
X101150500Y-93299999D01*
X101150500Y-92349999D01*
X101941208Y-92349999D01*
X101941209Y-92350000D01*
X102470000Y-92350000D01*
X102470000Y-91795494D01*
X102469999Y-91795493D01*
X102323801Y-91837969D01*
X102184626Y-91920277D01*
X102184621Y-91920281D01*
X102070281Y-92034621D01*
X102070277Y-92034626D01*
X101987969Y-92173801D01*
X101942854Y-92329085D01*
X101942854Y-92329086D01*
X101941208Y-92349999D01*
X101150500Y-92349999D01*
X101150500Y-90352752D01*
X101150808Y-90347266D01*
X101162406Y-90244332D01*
X101164848Y-90233637D01*
X101198145Y-90138477D01*
X101202897Y-90128610D01*
X101256541Y-90043235D01*
X101263375Y-90034666D01*
X101334666Y-89963375D01*
X101343235Y-89956541D01*
X101428610Y-89902897D01*
X101438477Y-89898145D01*
X101533640Y-89864847D01*
X101544330Y-89862406D01*
X101647262Y-89850808D01*
X101652758Y-89850501D01*
X116280632Y-89857573D01*
G37*
G04 #@! TD.AperFunction*
G04 #@! TA.AperFunction,Conductor*
G36*
X108518512Y-97568663D02*
G01*
X108578051Y-97575065D01*
X108923730Y-97575065D01*
X108983269Y-97568663D01*
X108986251Y-97567959D01*
X108986476Y-97568911D01*
X109014426Y-97568911D01*
X109014535Y-97568452D01*
X109016476Y-97568911D01*
X109016855Y-97568911D01*
X109017512Y-97569156D01*
X109017513Y-97569156D01*
X109017517Y-97569157D01*
X109056343Y-97573330D01*
X109077122Y-97575565D01*
X109422877Y-97575564D01*
X109422883Y-97575564D01*
X109482483Y-97569157D01*
X109482484Y-97569156D01*
X109482488Y-97569156D01*
X109483053Y-97568944D01*
X109483381Y-97568944D01*
X109485472Y-97568451D01*
X109485588Y-97568944D01*
X109514799Y-97568942D01*
X109514915Y-97568452D01*
X109516987Y-97568942D01*
X109517318Y-97568942D01*
X109517892Y-97569156D01*
X109517896Y-97569156D01*
X109517898Y-97569157D01*
X109517897Y-97569157D01*
X109556723Y-97573330D01*
X109577502Y-97575565D01*
X109923257Y-97575564D01*
X109923263Y-97575564D01*
X109982863Y-97569157D01*
X109982864Y-97569156D01*
X109982868Y-97569156D01*
X109983433Y-97568944D01*
X109983761Y-97568944D01*
X109985852Y-97568451D01*
X109985968Y-97568944D01*
X110015179Y-97568942D01*
X110015295Y-97568452D01*
X110017367Y-97568942D01*
X110017698Y-97568942D01*
X110018272Y-97569156D01*
X110018276Y-97569156D01*
X110018278Y-97569157D01*
X110018277Y-97569157D01*
X110057103Y-97573330D01*
X110077882Y-97575565D01*
X110423637Y-97575564D01*
X110423643Y-97575564D01*
X110463916Y-97571234D01*
X110471507Y-97570418D01*
X110507491Y-97580983D01*
X110525464Y-97613899D01*
X110525745Y-97619137D01*
X110525745Y-97723244D01*
X110532152Y-97782842D01*
X110532153Y-97782845D01*
X110532639Y-97784148D01*
X110532639Y-97784899D01*
X110532858Y-97785826D01*
X110532639Y-97785877D01*
X110532641Y-97815213D01*
X110533351Y-97815381D01*
X110532645Y-97818364D01*
X110526245Y-97877900D01*
X110526245Y-98223579D01*
X110532646Y-98283121D01*
X110533351Y-98286103D01*
X110532400Y-98286327D01*
X110532402Y-98314275D01*
X110532858Y-98314383D01*
X110532402Y-98316308D01*
X110532403Y-98316692D01*
X110532154Y-98317358D01*
X110532152Y-98317366D01*
X110525745Y-98376965D01*
X110525745Y-98722734D01*
X110532153Y-98782336D01*
X110532370Y-98782918D01*
X110532370Y-98783254D01*
X110532858Y-98785319D01*
X110532370Y-98785434D01*
X110532370Y-98814645D01*
X110532858Y-98814761D01*
X110532370Y-98816825D01*
X110532370Y-98817162D01*
X110532153Y-98817743D01*
X110525745Y-98877345D01*
X110525745Y-98981452D01*
X110511393Y-99016100D01*
X110476745Y-99030452D01*
X110471507Y-99030171D01*
X110423644Y-99025025D01*
X110077875Y-99025025D01*
X110018273Y-99031433D01*
X110017692Y-99031650D01*
X110017356Y-99031650D01*
X110015291Y-99032138D01*
X110015176Y-99031650D01*
X109985964Y-99031650D01*
X109985849Y-99032138D01*
X109983784Y-99031650D01*
X109983448Y-99031650D01*
X109982866Y-99031433D01*
X109982867Y-99031433D01*
X109923264Y-99025025D01*
X109577495Y-99025025D01*
X109517893Y-99031433D01*
X109517312Y-99031650D01*
X109516976Y-99031650D01*
X109514911Y-99032138D01*
X109514796Y-99031650D01*
X109485584Y-99031650D01*
X109485469Y-99032138D01*
X109483404Y-99031650D01*
X109483068Y-99031650D01*
X109482486Y-99031433D01*
X109482487Y-99031433D01*
X109422884Y-99025025D01*
X109077115Y-99025025D01*
X109017513Y-99031433D01*
X109017510Y-99031433D01*
X109016842Y-99031683D01*
X109016456Y-99031682D01*
X109014531Y-99032138D01*
X109014423Y-99031682D01*
X108986477Y-99031680D01*
X108986253Y-99032631D01*
X108983271Y-99031926D01*
X108923730Y-99025525D01*
X108578051Y-99025525D01*
X108518514Y-99031925D01*
X108515531Y-99032631D01*
X108515363Y-99031921D01*
X108486027Y-99031919D01*
X108485976Y-99032138D01*
X108485049Y-99031919D01*
X108484298Y-99031919D01*
X108483665Y-99031683D01*
X108482998Y-99031434D01*
X108482997Y-99031433D01*
X108482995Y-99031433D01*
X108482992Y-99031432D01*
X108423394Y-99025025D01*
X108077625Y-99025025D01*
X108018027Y-99031432D01*
X108015044Y-99032138D01*
X108014873Y-99031415D01*
X107987040Y-99031414D01*
X107986869Y-99032138D01*
X107983887Y-99031433D01*
X107924284Y-99025025D01*
X107578514Y-99025025D01*
X107578513Y-99025026D01*
X107529380Y-99030307D01*
X107493397Y-99019741D01*
X107475425Y-98986824D01*
X107475144Y-98981588D01*
X107475144Y-98877345D01*
X107468737Y-98817746D01*
X107468736Y-98817742D01*
X107468523Y-98817170D01*
X107468523Y-98816840D01*
X107468031Y-98814758D01*
X107468523Y-98814641D01*
X107468523Y-98785431D01*
X107468032Y-98785315D01*
X107468523Y-98783234D01*
X107468523Y-98782906D01*
X107468736Y-98782338D01*
X107475145Y-98722728D01*
X107475144Y-98376973D01*
X107475144Y-98376972D01*
X107475144Y-98376965D01*
X107468737Y-98317366D01*
X107468031Y-98314378D01*
X107468762Y-98314205D01*
X107468762Y-98286382D01*
X107468032Y-98286210D01*
X107468736Y-98283228D01*
X107472544Y-98247808D01*
X107475145Y-98223618D01*
X107475144Y-97877863D01*
X107475144Y-97877855D01*
X107468736Y-97818254D01*
X107468736Y-97818252D01*
X107468254Y-97816959D01*
X107468254Y-97816210D01*
X107468032Y-97815271D01*
X107468254Y-97815218D01*
X107468258Y-97785893D01*
X107467539Y-97785723D01*
X107468243Y-97782741D01*
X107474645Y-97723199D01*
X107474645Y-97618947D01*
X107488997Y-97584299D01*
X107523645Y-97569947D01*
X107528881Y-97570227D01*
X107578522Y-97575565D01*
X107924277Y-97575564D01*
X107924283Y-97575564D01*
X107983883Y-97569157D01*
X107983886Y-97569156D01*
X107983888Y-97569156D01*
X107983889Y-97569155D01*
X107986872Y-97568451D01*
X107987045Y-97569182D01*
X108014867Y-97569182D01*
X108015040Y-97568452D01*
X108018021Y-97569156D01*
X108036077Y-97571097D01*
X108077632Y-97575565D01*
X108423387Y-97575564D01*
X108423393Y-97575564D01*
X108482993Y-97569157D01*
X108482994Y-97569156D01*
X108482998Y-97569156D01*
X108484282Y-97568677D01*
X108485026Y-97568677D01*
X108485982Y-97568451D01*
X108486035Y-97568677D01*
X108515355Y-97568677D01*
X108515525Y-97567958D01*
X108518512Y-97568663D01*
G37*
G04 #@! TD.AperFunction*
G04 #@! TA.AperFunction,Conductor*
G36*
X104683039Y-96171852D02*
G01*
X104697391Y-96206500D01*
X104695473Y-96219970D01*
X104695495Y-96220000D01*
X105701000Y-96220000D01*
X105735648Y-96234352D01*
X105750000Y-96269000D01*
X105750000Y-96600500D01*
X105735648Y-96635148D01*
X105701000Y-96649500D01*
X105265307Y-96649500D01*
X105229008Y-96652356D01*
X105229004Y-96652357D01*
X105112918Y-96686083D01*
X105110312Y-96686763D01*
X105085557Y-96692500D01*
X105085550Y-96692503D01*
X105085546Y-96692504D01*
X105085544Y-96692505D01*
X105023325Y-96716675D01*
X105005582Y-96720000D01*
X104695495Y-96720000D01*
X104701256Y-96739829D01*
X104697141Y-96777106D01*
X104667873Y-96800554D01*
X104654202Y-96802500D01*
X104160215Y-96802500D01*
X104125567Y-96788148D01*
X103888683Y-96551264D01*
X103879988Y-96539471D01*
X103797140Y-96382355D01*
X103793674Y-96345013D01*
X103817628Y-96316157D01*
X103840483Y-96310500D01*
X103934679Y-96310500D01*
X103934690Y-96310500D01*
X103970993Y-96307643D01*
X104087125Y-96273902D01*
X104089709Y-96273228D01*
X104114457Y-96267494D01*
X104134840Y-96259576D01*
X104389048Y-96160825D01*
X104406791Y-96157500D01*
X104648391Y-96157500D01*
X104683039Y-96171852D01*
G37*
G04 #@! TD.AperFunction*
G04 #@! TA.AperFunction,Conductor*
G36*
X114006131Y-94563151D02*
G01*
X114452833Y-94814925D01*
X114458357Y-94821973D01*
X114457911Y-94829561D01*
X114353114Y-95084843D01*
X114346803Y-95091195D01*
X114344482Y-95091893D01*
X114038618Y-95150194D01*
X114029849Y-95148377D01*
X114026009Y-95144025D01*
X113822662Y-94745974D01*
X113821951Y-94737048D01*
X113824807Y-94732381D01*
X113992117Y-94565071D01*
X114000389Y-94561645D01*
X114006131Y-94563151D01*
G37*
G04 #@! TD.AperFunction*
G04 #@! TA.AperFunction,Conductor*
G36*
X112245318Y-93950391D02*
G01*
X112245539Y-93950485D01*
X113198015Y-94369924D01*
X113204206Y-94376395D01*
X113205000Y-94380632D01*
X113205000Y-94619367D01*
X113201573Y-94627640D01*
X113198015Y-94630075D01*
X112245539Y-95049514D01*
X112236587Y-95049712D01*
X112230116Y-95043521D01*
X112230022Y-95043300D01*
X112056834Y-94627000D01*
X112005868Y-94504492D01*
X112005855Y-94495541D01*
X112230022Y-93956698D01*
X112236363Y-93950377D01*
X112245318Y-93950391D01*
G37*
G04 #@! TD.AperFunction*
G04 #@! TA.AperFunction,Conductor*
G36*
X103076647Y-95903427D02*
G01*
X103079551Y-95908241D01*
X103224020Y-96375038D01*
X103223192Y-96383954D01*
X103217354Y-96389293D01*
X102954511Y-96499115D01*
X102945556Y-96499142D01*
X102945489Y-96499115D01*
X102682645Y-96389293D01*
X102676333Y-96382941D01*
X102675979Y-96375039D01*
X102820449Y-95908240D01*
X102826169Y-95901351D01*
X102831626Y-95900000D01*
X103068374Y-95900000D01*
X103076647Y-95903427D01*
G37*
G04 #@! TD.AperFunction*
G04 #@! TA.AperFunction,Conductor*
G36*
X103398974Y-94479257D02*
G01*
X103695236Y-94567660D01*
X103702184Y-94573310D01*
X103702787Y-94574609D01*
X103806660Y-94840098D01*
X103806483Y-94849051D01*
X103801046Y-94854801D01*
X103330379Y-95092960D01*
X103321450Y-95093637D01*
X103316824Y-95090793D01*
X103149476Y-94923445D01*
X103146049Y-94915172D01*
X103147540Y-94909455D01*
X103385423Y-94484750D01*
X103392455Y-94479209D01*
X103398974Y-94479257D01*
G37*
G04 #@! TD.AperFunction*
G04 #@! TA.AperFunction,Conductor*
G36*
X103226284Y-96389260D02*
G01*
X103232122Y-96394599D01*
X103460042Y-96826830D01*
X103460870Y-96835746D01*
X103457966Y-96840560D01*
X103290560Y-97007966D01*
X103282287Y-97011393D01*
X103276830Y-97010042D01*
X102844599Y-96782122D01*
X102838879Y-96775232D01*
X102839233Y-96767329D01*
X102947436Y-96503815D01*
X102953746Y-96497464D01*
X103217329Y-96389233D01*
X103226284Y-96389260D01*
G37*
G04 #@! TD.AperFunction*
G04 #@! TA.AperFunction,Conductor*
G36*
X105277538Y-97163900D02*
G01*
X105281808Y-97167114D01*
X105494752Y-97422507D01*
X105497418Y-97431056D01*
X105494752Y-97437493D01*
X105281808Y-97692885D01*
X105273878Y-97697044D01*
X105268585Y-97696298D01*
X105259799Y-97692885D01*
X104917463Y-97559899D01*
X104910993Y-97553709D01*
X104910000Y-97548993D01*
X104910000Y-97311006D01*
X104913427Y-97302733D01*
X104917459Y-97300102D01*
X105268587Y-97163701D01*
X105277538Y-97163900D01*
G37*
G04 #@! TD.AperFunction*
G04 #@! TA.AperFunction,Conductor*
G36*
X104484087Y-96343000D02*
G01*
X104484087Y-96597000D01*
X104014805Y-96827164D01*
X103899000Y-96550000D01*
X103900000Y-96250000D01*
X104484087Y-96343000D01*
G37*
G04 #@! TD.AperFunction*
G04 #@! TA.AperFunction,Conductor*
G36*
X111953389Y-97322811D02*
G01*
X111958239Y-97328372D01*
X112049109Y-97545483D01*
X112049142Y-97554437D01*
X112049109Y-97554517D01*
X111958232Y-97771642D01*
X111951876Y-97777951D01*
X111944534Y-97778459D01*
X111558867Y-97679614D01*
X111551704Y-97674240D01*
X111550072Y-97668280D01*
X111550072Y-97432424D01*
X111553499Y-97424151D01*
X111558848Y-97421095D01*
X111944524Y-97321560D01*
X111953389Y-97322811D01*
G37*
G04 #@! TD.AperFunction*
G04 #@! TA.AperFunction,Conductor*
G36*
X112031191Y-98307217D02*
G01*
X112036032Y-98312773D01*
X112126906Y-98529892D01*
X112126939Y-98538846D01*
X112126906Y-98538926D01*
X112036032Y-98756044D01*
X112029676Y-98762353D01*
X112022325Y-98762858D01*
X111636583Y-98663668D01*
X111629424Y-98658289D01*
X111627797Y-98652337D01*
X111627797Y-98416480D01*
X111631224Y-98408207D01*
X111636580Y-98405150D01*
X112022325Y-98305959D01*
X112031191Y-98307217D01*
G37*
G04 #@! TD.AperFunction*
G04 #@! TA.AperFunction,Conductor*
G36*
X105857883Y-98785072D02*
G01*
X106025190Y-98952379D01*
X106028617Y-98960652D01*
X106027336Y-98965975D01*
X105823991Y-99364025D01*
X105817176Y-99369833D01*
X105811381Y-99370195D01*
X105505517Y-99311893D01*
X105498032Y-99306978D01*
X105496888Y-99304848D01*
X105392088Y-99049561D01*
X105392116Y-99040606D01*
X105397164Y-99034926D01*
X105843868Y-98783151D01*
X105852755Y-98782076D01*
X105857883Y-98785072D01*
G37*
G04 #@! TD.AperFunction*
G04 #@! TA.AperFunction,Conductor*
G36*
X106049612Y-97927966D02*
G01*
X106054284Y-97935605D01*
X106054427Y-97937426D01*
X106054427Y-98173305D01*
X106051488Y-98181060D01*
X105821441Y-98440930D01*
X105813391Y-98444853D01*
X105807463Y-98443648D01*
X105504092Y-98292536D01*
X105498215Y-98285780D01*
X105497850Y-98284426D01*
X105476533Y-98181060D01*
X105445796Y-98032011D01*
X105447481Y-98023216D01*
X105454892Y-98018189D01*
X105455404Y-98018096D01*
X106040907Y-97925869D01*
X106049612Y-97927966D01*
G37*
G04 #@! TD.AperFunction*
G04 #@! TA.AperFunction,Conductor*
G36*
X103931410Y-95263700D02*
G01*
X104282538Y-95400101D01*
X104289007Y-95406290D01*
X104290000Y-95411006D01*
X104290000Y-95648993D01*
X104286573Y-95657266D01*
X104282537Y-95659899D01*
X103931414Y-95796298D01*
X103922461Y-95796099D01*
X103918191Y-95792885D01*
X103705246Y-95537491D01*
X103702581Y-95528944D01*
X103705246Y-95522508D01*
X103918193Y-95267112D01*
X103926121Y-95262955D01*
X103931410Y-95263700D01*
G37*
G04 #@! TD.AperFunction*
G04 #@! TA.AperFunction,Conductor*
G36*
X106557241Y-94274957D02*
G01*
X106563563Y-94281298D01*
X106563653Y-94281522D01*
X106732667Y-94716528D01*
X106732804Y-94716901D01*
X106779209Y-94849518D01*
X106779210Y-94849520D01*
X106779211Y-94849522D01*
X106792057Y-94869966D01*
X106793056Y-94871954D01*
X106940566Y-95251611D01*
X106940368Y-95260563D01*
X106937933Y-95264121D01*
X106769121Y-95432933D01*
X106760848Y-95436360D01*
X106756612Y-95435566D01*
X106749751Y-95432900D01*
X106746000Y-95431443D01*
X106741965Y-95428810D01*
X106581091Y-95267936D01*
X106581090Y-95267935D01*
X106506410Y-95224819D01*
X106506409Y-95224818D01*
X106506406Y-95224817D01*
X106506408Y-95224817D01*
X106423118Y-95202500D01*
X106423116Y-95202500D01*
X106158944Y-95202500D01*
X106154708Y-95201706D01*
X105786522Y-95058653D01*
X105780051Y-95052462D01*
X105779853Y-95043510D01*
X105779910Y-95043366D01*
X106002437Y-94503791D01*
X106008759Y-94497451D01*
X106548288Y-94274943D01*
X106557241Y-94274957D01*
G37*
G04 #@! TD.AperFunction*
G04 #@! TA.AperFunction,Conductor*
G36*
X112058372Y-96286590D02*
G01*
X112284160Y-96542255D01*
X112287068Y-96550725D01*
X112284160Y-96557745D01*
X112058372Y-96813409D01*
X112050327Y-96817342D01*
X112044602Y-96816242D01*
X111756700Y-96680166D01*
X111750685Y-96673532D01*
X111750000Y-96669588D01*
X111750000Y-96430411D01*
X111753427Y-96422138D01*
X111756698Y-96419833D01*
X112044603Y-96283756D01*
X112053546Y-96283320D01*
X112058372Y-96286590D01*
G37*
G04 #@! TD.AperFunction*
G04 #@! TA.AperFunction,Conductor*
G36*
X113970166Y-92363059D02*
G01*
X114136940Y-92529833D01*
X114140367Y-92538106D01*
X114138740Y-92544058D01*
X113936117Y-92886959D01*
X113928958Y-92892338D01*
X113921607Y-92891833D01*
X113703824Y-92802564D01*
X113697468Y-92796255D01*
X113697435Y-92796175D01*
X113608166Y-92578392D01*
X113608199Y-92569438D01*
X113613038Y-92563883D01*
X113955941Y-92361258D01*
X113964807Y-92360001D01*
X113970166Y-92363059D01*
G37*
G04 #@! TD.AperFunction*
G04 #@! TA.AperFunction,Conductor*
G36*
X114564809Y-91807417D02*
G01*
X115290810Y-92190122D01*
X115296529Y-92197010D01*
X115295703Y-92205927D01*
X115291845Y-92210205D01*
X114564169Y-92695551D01*
X114555385Y-92697290D01*
X114550943Y-92695385D01*
X114219153Y-92461854D01*
X114217614Y-92460559D01*
X114047342Y-92290287D01*
X114043915Y-92282014D01*
X114047342Y-92273741D01*
X114047649Y-92273445D01*
X114551425Y-91809162D01*
X114559830Y-91806077D01*
X114564809Y-91807417D01*
G37*
G04 #@! TD.AperFunction*
G04 #@! TA.AperFunction,Conductor*
G36*
X110295705Y-100701287D02*
G01*
X110555639Y-100799181D01*
X110562173Y-100805304D01*
X110562623Y-100813803D01*
X110461886Y-101118435D01*
X110456035Y-101125214D01*
X110454267Y-101125930D01*
X110201337Y-101204945D01*
X110192418Y-101204141D01*
X110186680Y-101197266D01*
X110070069Y-100803140D01*
X110044155Y-100715555D01*
X110045094Y-100706650D01*
X110052055Y-100701017D01*
X110055374Y-100700536D01*
X110291581Y-100700536D01*
X110295705Y-100701287D01*
G37*
G04 #@! TD.AperFunction*
G04 #@! TA.AperFunction,Conductor*
G36*
X110441084Y-100590580D02*
G01*
X110447396Y-100596932D01*
X110447723Y-100597829D01*
X110601100Y-101080010D01*
X110600342Y-101088933D01*
X110598223Y-101091830D01*
X110430849Y-101259204D01*
X110422576Y-101262631D01*
X110415532Y-101260273D01*
X109965286Y-100920742D01*
X109960743Y-100913024D01*
X109962988Y-100904356D01*
X109964023Y-100903160D01*
X110164340Y-100701503D01*
X110168191Y-100698930D01*
X110432131Y-100590553D01*
X110441084Y-100590580D01*
G37*
G04 #@! TD.AperFunction*
G04 #@! TA.AperFunction,Conductor*
G36*
X113800000Y-90773000D02*
G01*
X113800000Y-91027000D01*
X113314805Y-91177164D01*
X113199000Y-90900000D01*
X113314805Y-90622836D01*
X113800000Y-90773000D01*
G37*
G04 #@! TD.AperFunction*
G04 #@! TA.AperFunction,Conductor*
G36*
X113200707Y-90899293D02*
G01*
X113314805Y-91177164D01*
X112865539Y-91414066D01*
X112685934Y-91234461D01*
X112922836Y-90785195D01*
X113200707Y-90899293D01*
G37*
G04 #@! TD.AperFunction*
G04 #@! TA.AperFunction,Conductor*
G36*
X105809725Y-97347649D02*
G01*
X105814342Y-97352469D01*
X106034903Y-97781609D01*
X106035637Y-97790533D01*
X106032770Y-97795230D01*
X105865384Y-97962616D01*
X105857111Y-97966043D01*
X105851515Y-97964618D01*
X105393231Y-97715016D01*
X105387604Y-97708049D01*
X105388003Y-97700298D01*
X105497109Y-97434609D01*
X105503422Y-97428258D01*
X105504820Y-97427775D01*
X105800839Y-97346534D01*
X105809725Y-97347649D01*
G37*
G04 #@! TD.AperFunction*
G04 #@! TA.AperFunction,Conductor*
G36*
X113317903Y-96556347D02*
G01*
X113560371Y-96781749D01*
X113561967Y-96783232D01*
X113565693Y-96791374D01*
X113564634Y-96796683D01*
X113410130Y-97133182D01*
X113403563Y-97139271D01*
X113399497Y-97140000D01*
X113161783Y-97140000D01*
X113153510Y-97136573D01*
X113150548Y-97131566D01*
X113053189Y-96796683D01*
X113052306Y-96793645D01*
X113053287Y-96784746D01*
X113055637Y-96781755D01*
X113302040Y-96556283D01*
X113310455Y-96553227D01*
X113317903Y-96556347D01*
G37*
G04 #@! TD.AperFunction*
G04 #@! TA.AperFunction,Conductor*
G36*
X110729613Y-100904128D02*
G01*
X110995164Y-101096497D01*
X110999853Y-101104125D01*
X111000000Y-101105971D01*
X111000000Y-101344623D01*
X110996573Y-101352896D01*
X110990849Y-101356042D01*
X110654863Y-101431033D01*
X110646042Y-101429491D01*
X110642307Y-101425677D01*
X110464156Y-101131649D01*
X110462800Y-101122797D01*
X110466569Y-101116684D01*
X110715159Y-100904700D01*
X110723677Y-100901941D01*
X110729613Y-100904128D01*
G37*
G04 #@! TD.AperFunction*
G04 #@! TA.AperFunction,Conductor*
G36*
X107899605Y-100581896D02*
G01*
X108066974Y-100749265D01*
X108070401Y-100757538D01*
X108069056Y-100762984D01*
X107824914Y-101227158D01*
X107818030Y-101232885D01*
X107810201Y-101232570D01*
X107544609Y-101125980D01*
X107538208Y-101119719D01*
X107537718Y-101118339D01*
X107453044Y-100822213D01*
X107454064Y-100813316D01*
X107458766Y-100808683D01*
X107885808Y-100579855D01*
X107894717Y-100578969D01*
X107899605Y-100581896D01*
G37*
G04 #@! TD.AperFunction*
G04 #@! TA.AperFunction,Conductor*
G36*
X109576951Y-100536567D02*
G01*
X109579730Y-100541001D01*
X109679004Y-100826824D01*
X109679533Y-100828997D01*
X109681545Y-100842991D01*
X109694156Y-100870607D01*
X109694565Y-100871627D01*
X109697197Y-100879203D01*
X109696675Y-100888143D01*
X109694043Y-100891675D01*
X109447898Y-101116912D01*
X109439482Y-101119969D01*
X109432102Y-101116912D01*
X109309993Y-101005176D01*
X109186266Y-100891959D01*
X109182476Y-100883848D01*
X109183316Y-100878951D01*
X109320044Y-100540457D01*
X109326320Y-100534070D01*
X109330892Y-100533140D01*
X109568678Y-100533140D01*
X109576951Y-100536567D01*
G37*
G04 #@! TD.AperFunction*
G04 #@! TA.AperFunction,Conductor*
G36*
X113555396Y-96283756D02*
G01*
X113843300Y-96419833D01*
X113849315Y-96426467D01*
X113850000Y-96430411D01*
X113850000Y-96669588D01*
X113846573Y-96677861D01*
X113843300Y-96680166D01*
X113555397Y-96816242D01*
X113546453Y-96816679D01*
X113541627Y-96813409D01*
X113315838Y-96557743D01*
X113312931Y-96549275D01*
X113315838Y-96542256D01*
X113541628Y-96286589D01*
X113549672Y-96282657D01*
X113555396Y-96283756D01*
G37*
G04 #@! TD.AperFunction*
G04 #@! TA.AperFunction,Conductor*
G36*
X114344799Y-96108807D02*
G01*
X114352275Y-96113735D01*
X114353406Y-96115838D01*
X114458271Y-96370222D01*
X114458256Y-96379177D01*
X114452980Y-96384994D01*
X113925237Y-96667769D01*
X113916326Y-96668656D01*
X113909398Y-96662982D01*
X113908011Y-96657456D01*
X113908011Y-96424855D01*
X113908586Y-96421233D01*
X113922010Y-96380000D01*
X114026804Y-96058098D01*
X114032623Y-96051293D01*
X114040137Y-96050231D01*
X114344799Y-96108807D01*
G37*
G04 #@! TD.AperFunction*
G04 #@! TA.AperFunction,Conductor*
G36*
X115527862Y-94553427D02*
G01*
X115530167Y-94556700D01*
X115666242Y-94844602D01*
X115666679Y-94853547D01*
X115663409Y-94858372D01*
X115407745Y-95084160D01*
X115399275Y-95087068D01*
X115392255Y-95084160D01*
X115136590Y-94858372D01*
X115132657Y-94850327D01*
X115133756Y-94844603D01*
X115269833Y-94556699D01*
X115276467Y-94550685D01*
X115280411Y-94550000D01*
X115519589Y-94550000D01*
X115527862Y-94553427D01*
G37*
G04 #@! TD.AperFunction*
G04 #@! TA.AperFunction,Conductor*
G36*
X115164882Y-95853356D02*
G01*
X115168678Y-95856112D01*
X115393772Y-96102102D01*
X115396829Y-96110518D01*
X115393772Y-96117898D01*
X115168678Y-96363887D01*
X115160564Y-96367678D01*
X115155932Y-96366942D01*
X114817586Y-96239849D01*
X114811046Y-96233732D01*
X114810000Y-96228896D01*
X114810000Y-95991103D01*
X114813427Y-95982830D01*
X114817584Y-95980151D01*
X115155934Y-95853057D01*
X115164882Y-95853356D01*
G37*
G04 #@! TD.AperFunction*
G04 #@! TA.AperFunction,Conductor*
G36*
X114594064Y-95853056D02*
G01*
X114932414Y-95980150D01*
X114938954Y-95986267D01*
X114940000Y-95991103D01*
X114940000Y-96228896D01*
X114936573Y-96237169D01*
X114932414Y-96239849D01*
X114594067Y-96366942D01*
X114585117Y-96366643D01*
X114581321Y-96363887D01*
X114356227Y-96117898D01*
X114353170Y-96109482D01*
X114356227Y-96102102D01*
X114457797Y-95991103D01*
X114581322Y-95856111D01*
X114589435Y-95852321D01*
X114594064Y-95853056D01*
G37*
G04 #@! TD.AperFunction*
G04 #@! TA.AperFunction,Conductor*
G36*
X103687491Y-92605246D02*
G01*
X103942885Y-92818191D01*
X103947044Y-92826121D01*
X103946298Y-92831414D01*
X103809899Y-93182537D01*
X103803709Y-93189007D01*
X103798993Y-93190000D01*
X103561007Y-93190000D01*
X103552734Y-93186573D01*
X103550101Y-93182537D01*
X103532607Y-93137504D01*
X103413701Y-92831412D01*
X103413900Y-92822461D01*
X103417111Y-92818194D01*
X103672508Y-92605246D01*
X103681056Y-92602581D01*
X103687491Y-92605246D01*
G37*
G04 #@! TD.AperFunction*
G04 #@! TA.AperFunction,Conductor*
G36*
X103807266Y-92963427D02*
G01*
X103809899Y-92967463D01*
X103946298Y-93318585D01*
X103946099Y-93327538D01*
X103942885Y-93331808D01*
X103687493Y-93544752D01*
X103678944Y-93547418D01*
X103672507Y-93544752D01*
X103417114Y-93331808D01*
X103412955Y-93323878D01*
X103413700Y-93318589D01*
X103550101Y-92967463D01*
X103556291Y-92960993D01*
X103561007Y-92960000D01*
X103798993Y-92960000D01*
X103807266Y-92963427D01*
G37*
G04 #@! TD.AperFunction*
G04 #@! TA.AperFunction,Conductor*
G36*
X103827731Y-94013427D02*
G01*
X103830114Y-94016869D01*
X103976240Y-94339181D01*
X103976535Y-94348131D01*
X103972883Y-94353156D01*
X103707299Y-94565173D01*
X103698696Y-94567656D01*
X103692701Y-94565173D01*
X103427116Y-94353156D01*
X103422788Y-94345316D01*
X103423758Y-94339185D01*
X103569886Y-94016869D01*
X103576423Y-94010749D01*
X103580542Y-94010000D01*
X103819458Y-94010000D01*
X103827731Y-94013427D01*
G37*
G04 #@! TD.AperFunction*
G04 #@! TA.AperFunction,Conductor*
G36*
X103687491Y-93555246D02*
G01*
X103855763Y-93695549D01*
X103943208Y-93768461D01*
X103947367Y-93776391D01*
X103946813Y-93781152D01*
X103829669Y-94132005D01*
X103823798Y-94138767D01*
X103818571Y-94140000D01*
X103580613Y-94140000D01*
X103572340Y-94136573D01*
X103569916Y-94133039D01*
X103414233Y-93781647D01*
X103414015Y-93772695D01*
X103417435Y-93767924D01*
X103672508Y-93555246D01*
X103681056Y-93552581D01*
X103687491Y-93555246D01*
G37*
G04 #@! TD.AperFunction*
G04 #@! TA.AperFunction,Conductor*
G36*
X107049369Y-93417718D02*
G01*
X107918463Y-94067659D01*
X107923036Y-94075358D01*
X107920826Y-94084036D01*
X107919743Y-94085288D01*
X107509142Y-94497260D01*
X107500875Y-94500701D01*
X107500841Y-94500701D01*
X106916142Y-94500013D01*
X106907873Y-94496576D01*
X106904469Y-94488870D01*
X106884376Y-94067659D01*
X106861896Y-93596422D01*
X106864925Y-93587997D01*
X106865288Y-93587616D01*
X107034090Y-93418814D01*
X107042362Y-93415388D01*
X107049369Y-93417718D01*
G37*
G04 #@! TD.AperFunction*
G04 #@! TA.AperFunction,Conductor*
G36*
X104047601Y-94025566D02*
G01*
X104215014Y-94192979D01*
X104218441Y-94201252D01*
X104217334Y-94206219D01*
X104014088Y-94639658D01*
X104007473Y-94645694D01*
X104000658Y-94646042D01*
X103704911Y-94572111D01*
X103697715Y-94566780D01*
X103697002Y-94565387D01*
X103582520Y-94299500D01*
X103582396Y-94290546D01*
X103587355Y-94284776D01*
X104033421Y-94023740D01*
X104042290Y-94022520D01*
X104047601Y-94025566D01*
G37*
G04 #@! TD.AperFunction*
G04 #@! TA.AperFunction,Conductor*
G36*
X111803394Y-100422808D02*
G01*
X111808235Y-100428364D01*
X111899109Y-100645483D01*
X111899142Y-100654437D01*
X111899109Y-100654517D01*
X111808235Y-100871635D01*
X111801879Y-100877944D01*
X111794528Y-100878449D01*
X111408786Y-100779259D01*
X111401627Y-100773880D01*
X111400000Y-100767928D01*
X111400000Y-100532071D01*
X111403427Y-100523798D01*
X111408783Y-100520741D01*
X111794528Y-100421550D01*
X111803394Y-100422808D01*
G37*
G04 #@! TD.AperFunction*
M02*
