G04 #@! TF.GenerationSoftware,KiCad,Pcbnew,8.0.5-8.0.5-0~ubuntu22.04.1*
G04 #@! TF.CreationDate,2024-09-19T17:41:21-07:00*
G04 #@! TF.ProjectId,uSlime_BNO085,75536c69-6d65-45f4-924e-4f3038352e6b,rev?*
G04 #@! TF.SameCoordinates,Original*
G04 #@! TF.FileFunction,Soldermask,Top*
G04 #@! TF.FilePolarity,Negative*
%FSLAX46Y46*%
G04 Gerber Fmt 4.6, Leading zero omitted, Abs format (unit mm)*
G04 Created by KiCad (PCBNEW 8.0.5-8.0.5-0~ubuntu22.04.1) date 2024-09-19 17:41:21*
%MOMM*%
%LPD*%
G01*
G04 APERTURE LIST*
G04 Aperture macros list*
%AMRoundRect*
0 Rectangle with rounded corners*
0 $1 Rounding radius*
0 $2 $3 $4 $5 $6 $7 $8 $9 X,Y pos of 4 corners*
0 Add a 4 corners polygon primitive as box body*
4,1,4,$2,$3,$4,$5,$6,$7,$8,$9,$2,$3,0*
0 Add four circle primitives for the rounded corners*
1,1,$1+$1,$2,$3*
1,1,$1+$1,$4,$5*
1,1,$1+$1,$6,$7*
1,1,$1+$1,$8,$9*
0 Add four rect primitives between the rounded corners*
20,1,$1+$1,$2,$3,$4,$5,0*
20,1,$1+$1,$4,$5,$6,$7,0*
20,1,$1+$1,$6,$7,$8,$9,0*
20,1,$1+$1,$8,$9,$2,$3,0*%
%AMFreePoly0*
4,1,19,0.550000,-0.750000,0.000000,-0.750000,0.000000,-0.744911,-0.071157,-0.744911,-0.207708,-0.704816,-0.327430,-0.627875,-0.420627,-0.520320,-0.479746,-0.390866,-0.500000,-0.250000,-0.500000,0.250000,-0.479746,0.390866,-0.420627,0.520320,-0.327430,0.627875,-0.207708,0.704816,-0.071157,0.744911,0.000000,0.744911,0.000000,0.750000,0.550000,0.750000,0.550000,-0.750000,0.550000,-0.750000,
$1*%
%AMFreePoly1*
4,1,19,0.000000,0.744911,0.071157,0.744911,0.207708,0.704816,0.327430,0.627875,0.420627,0.520320,0.479746,0.390866,0.500000,0.250000,0.500000,-0.250000,0.479746,-0.390866,0.420627,-0.520320,0.327430,-0.627875,0.207708,-0.704816,0.071157,-0.744911,0.000000,-0.744911,0.000000,-0.750000,-0.550000,-0.750000,-0.550000,0.750000,0.000000,0.750000,0.000000,0.744911,0.000000,0.744911,
$1*%
G04 Aperture macros list end*
%ADD10RoundRect,0.140000X0.170000X-0.140000X0.170000X0.140000X-0.170000X0.140000X-0.170000X-0.140000X0*%
%ADD11RoundRect,0.140000X-0.140000X-0.170000X0.140000X-0.170000X0.140000X0.170000X-0.140000X0.170000X0*%
%ADD12RoundRect,0.135000X-0.135000X-0.185000X0.135000X-0.185000X0.135000X0.185000X-0.135000X0.185000X0*%
%ADD13C,3.100000*%
%ADD14RoundRect,0.140000X0.140000X0.170000X-0.140000X0.170000X-0.140000X-0.170000X0.140000X-0.170000X0*%
%ADD15FreePoly0,90.000000*%
%ADD16R,1.500000X1.000000*%
%ADD17FreePoly1,90.000000*%
%ADD18RoundRect,0.135000X0.135000X0.185000X-0.135000X0.185000X-0.135000X-0.185000X0.135000X-0.185000X0*%
%ADD19C,1.200000*%
%ADD20R,0.250000X0.914400*%
%ADD21R,0.812800X0.250000*%
%ADD22RoundRect,0.135000X-0.185000X0.135000X-0.185000X-0.135000X0.185000X-0.135000X0.185000X0.135000X0*%
G04 APERTURE END LIST*
D10*
X105500000Y-97430000D03*
X105500000Y-96470000D03*
D11*
X102790000Y-95550000D03*
X103750000Y-95550000D03*
D12*
X109340000Y-101150000D03*
X110360000Y-101150000D03*
D13*
X115100000Y-99900000D03*
D14*
X108380000Y-101150000D03*
X107420000Y-101150000D03*
D15*
X115307500Y-93500000D03*
D16*
X115307500Y-92200000D03*
D17*
X115307500Y-90900000D03*
D18*
X103760000Y-94600000D03*
X102740000Y-94600000D03*
D19*
X112005000Y-94500000D03*
X110505000Y-94500000D03*
X109005000Y-94500000D03*
X107505000Y-94500000D03*
X106005000Y-94500000D03*
D11*
X102790000Y-96500000D03*
X103750000Y-96500000D03*
D20*
X106753280Y-96622660D03*
D21*
X106562280Y-97549990D03*
X106562280Y-98053060D03*
X106562280Y-98553060D03*
X106562280Y-99053050D03*
D20*
X106753280Y-99975460D03*
X107253280Y-99975460D03*
X107753280Y-99975460D03*
X108253280Y-99975460D03*
X108753280Y-99975460D03*
X109253280Y-99975460D03*
X109753280Y-99975460D03*
X110253280Y-99975460D03*
X110753280Y-99975460D03*
X111261280Y-99975460D03*
D21*
X111388280Y-99053060D03*
X111388280Y-98553060D03*
X111388280Y-98053060D03*
X111388280Y-97549990D03*
D20*
X111261280Y-96622660D03*
X110753280Y-96622660D03*
X110253280Y-96622660D03*
X109753280Y-96622660D03*
X109253280Y-96622660D03*
X108753280Y-96622660D03*
X108253280Y-96622660D03*
X107753280Y-96622660D03*
X107253280Y-96622660D03*
D18*
X113560000Y-96550000D03*
X112540000Y-96550000D03*
D22*
X105500000Y-98290000D03*
X105500000Y-99310000D03*
D13*
X102900000Y-99900000D03*
M02*
