G04 #@! TF.GenerationSoftware,KiCad,Pcbnew,8.0.2*
G04 #@! TF.CreationDate,2024-08-17T01:02:59-07:00*
G04 #@! TF.ProjectId,uSlime_BNO085,75536c69-6d65-45f4-924e-4f3038352e6b,rev?*
G04 #@! TF.SameCoordinates,Original*
G04 #@! TF.FileFunction,Copper,L2,Bot*
G04 #@! TF.FilePolarity,Positive*
%FSLAX46Y46*%
G04 Gerber Fmt 4.6, Leading zero omitted, Abs format (unit mm)*
G04 Created by KiCad (PCBNEW 8.0.2) date 2024-08-17 01:02:59*
%MOMM*%
%LPD*%
G01*
G04 APERTURE LIST*
G04 #@! TA.AperFunction,ComponentPad*
%ADD10C,1.200000*%
G04 #@! TD*
G04 #@! TA.AperFunction,ViaPad*
%ADD11C,0.600000*%
G04 #@! TD*
G04 #@! TA.AperFunction,ViaPad*
%ADD12C,0.500000*%
G04 #@! TD*
G04 #@! TA.AperFunction,Conductor*
%ADD13C,0.254000*%
G04 #@! TD*
G04 APERTURE END LIST*
D10*
X112005000Y-94500000D03*
X110505000Y-94500000D03*
X109005000Y-94500000D03*
X107505000Y-94500000D03*
X106005000Y-94500000D03*
D11*
X113200000Y-90900000D03*
X106000000Y-101100000D03*
X109300000Y-98425196D03*
D12*
X110150000Y-97550000D03*
D11*
X113000000Y-95650000D03*
D12*
X111650050Y-100869892D03*
X113700000Y-92800000D03*
X112127797Y-98534409D03*
D13*
X107505000Y-94500000D02*
X107505000Y-93155000D01*
X106005000Y-94500000D02*
X107255000Y-95750000D01*
X108350000Y-95750000D02*
X110150000Y-97550000D01*
X107255000Y-95750000D02*
X108350000Y-95750000D01*
X111655000Y-95650000D02*
X110505000Y-94500000D01*
X113000000Y-95650000D02*
X111655000Y-95650000D01*
X111150000Y-100369842D02*
X111150000Y-97550000D01*
X109005000Y-95405000D02*
X109005000Y-94500000D01*
X111650050Y-100869892D02*
X111150000Y-100369842D01*
X111150000Y-97550000D02*
X109005000Y-95405000D01*
X113700000Y-92800000D02*
X113700000Y-96962206D01*
X113700000Y-96962206D02*
X112127797Y-98534409D01*
G04 #@! TA.AperFunction,Conductor*
G36*
X116280632Y-89857573D02*
G01*
X116281149Y-89857607D01*
X116284100Y-89857607D01*
X116284104Y-89857608D01*
X116347245Y-89857607D01*
X116352732Y-89857915D01*
X116392477Y-89862393D01*
X116455661Y-89869512D01*
X116466357Y-89871953D01*
X116561507Y-89905247D01*
X116571392Y-89910007D01*
X116650120Y-89959475D01*
X116656754Y-89963643D01*
X116665333Y-89970485D01*
X116736614Y-90041766D01*
X116743456Y-90050345D01*
X116797092Y-90135707D01*
X116801852Y-90145593D01*
X116835145Y-90240741D01*
X116837587Y-90251438D01*
X116849184Y-90354368D01*
X116849492Y-90359854D01*
X116849492Y-90425991D01*
X116849493Y-90426008D01*
X116849497Y-99172389D01*
X116835145Y-99207037D01*
X116800497Y-99221389D01*
X116765849Y-99207037D01*
X116755227Y-99191140D01*
X116718284Y-99101951D01*
X116600273Y-98897550D01*
X116600270Y-98897546D01*
X116600264Y-98897537D01*
X116456596Y-98710306D01*
X116456586Y-98710294D01*
X116289705Y-98543413D01*
X116289693Y-98543403D01*
X116102462Y-98399735D01*
X116102447Y-98399725D01*
X115898050Y-98281716D01*
X115679996Y-98191395D01*
X115679986Y-98191391D01*
X115452025Y-98130309D01*
X115452018Y-98130308D01*
X115452014Y-98130307D01*
X115218011Y-98099500D01*
X114981989Y-98099500D01*
X114747986Y-98130307D01*
X114747982Y-98130307D01*
X114747974Y-98130309D01*
X114520013Y-98191391D01*
X114520003Y-98191395D01*
X114301949Y-98281716D01*
X114097552Y-98399725D01*
X114097537Y-98399735D01*
X113910306Y-98543403D01*
X113910294Y-98543413D01*
X113743413Y-98710294D01*
X113743403Y-98710306D01*
X113599735Y-98897537D01*
X113599725Y-98897552D01*
X113481716Y-99101949D01*
X113391395Y-99320003D01*
X113391391Y-99320013D01*
X113330309Y-99547974D01*
X113330307Y-99547982D01*
X113330307Y-99547986D01*
X113299500Y-99781989D01*
X113299500Y-100018011D01*
X113330307Y-100252014D01*
X113330308Y-100252018D01*
X113330309Y-100252025D01*
X113391391Y-100479986D01*
X113391395Y-100479996D01*
X113481716Y-100698050D01*
X113599725Y-100902447D01*
X113599735Y-100902462D01*
X113743403Y-101089693D01*
X113743413Y-101089705D01*
X113910294Y-101256586D01*
X113910306Y-101256596D01*
X114097537Y-101400264D01*
X114097552Y-101400274D01*
X114301949Y-101518283D01*
X114391146Y-101555230D01*
X114417664Y-101581749D01*
X114417664Y-101619252D01*
X114391145Y-101645770D01*
X114372394Y-101649500D01*
X111982772Y-101649500D01*
X111948124Y-101635148D01*
X111933772Y-101600500D01*
X111948124Y-101565852D01*
X111966587Y-101554250D01*
X111977740Y-101550348D01*
X112120940Y-101460369D01*
X112240527Y-101340782D01*
X112330506Y-101197582D01*
X112386363Y-101037951D01*
X112405299Y-100869892D01*
X112386363Y-100701833D01*
X112330506Y-100542202D01*
X112240527Y-100399002D01*
X112120940Y-100279415D01*
X112120937Y-100279413D01*
X112003365Y-100205537D01*
X111998758Y-100202257D01*
X111994178Y-100198579D01*
X111994165Y-100198571D01*
X111801572Y-100084766D01*
X111779044Y-100054784D01*
X111777500Y-100042581D01*
X111777500Y-99276013D01*
X111791852Y-99241365D01*
X111826500Y-99227013D01*
X111842682Y-99229762D01*
X111959738Y-99270722D01*
X112127797Y-99289658D01*
X112295856Y-99270722D01*
X112455487Y-99214865D01*
X112598687Y-99124886D01*
X112718274Y-99005299D01*
X112792165Y-98887700D01*
X112795436Y-98883107D01*
X112799113Y-98878530D01*
X112980877Y-98570926D01*
X112988406Y-98561217D01*
X114187411Y-97362214D01*
X114239615Y-97284085D01*
X114256083Y-97259439D01*
X114275676Y-97212136D01*
X114303386Y-97145240D01*
X114327500Y-97024009D01*
X114327500Y-96900403D01*
X114327500Y-93389593D01*
X114329044Y-93377392D01*
X114329045Y-93377390D01*
X114418023Y-93031360D01*
X114422093Y-93014310D01*
X114422142Y-93013640D01*
X114422356Y-93012611D01*
X114422394Y-93012373D01*
X114422406Y-93012374D01*
X114424756Y-93001082D01*
X114436313Y-92968059D01*
X114455249Y-92800000D01*
X114436313Y-92631941D01*
X114380456Y-92472310D01*
X114290477Y-92329110D01*
X114170890Y-92209523D01*
X114027690Y-92119544D01*
X113868059Y-92063687D01*
X113868055Y-92063686D01*
X113868053Y-92063686D01*
X113700000Y-92044751D01*
X113531946Y-92063686D01*
X113531937Y-92063688D01*
X113372310Y-92119544D01*
X113372308Y-92119545D01*
X113229112Y-92209521D01*
X113229108Y-92209524D01*
X113109524Y-92329108D01*
X113109521Y-92329112D01*
X113019545Y-92472308D01*
X113019544Y-92472310D01*
X112963688Y-92631937D01*
X112963686Y-92631946D01*
X112944751Y-92800000D01*
X112963686Y-92968053D01*
X112963687Y-92968061D01*
X112978373Y-93010033D01*
X112980831Y-93020887D01*
X112981976Y-93031354D01*
X112981978Y-93031369D01*
X113070956Y-93377390D01*
X113072500Y-93389593D01*
X113072500Y-93966555D01*
X113058148Y-94001203D01*
X113023500Y-94015555D01*
X112988852Y-94001203D01*
X112979637Y-93988396D01*
X112944674Y-93918181D01*
X112944673Y-93918180D01*
X112944673Y-93918179D01*
X112821764Y-93755421D01*
X112821763Y-93755420D01*
X112671045Y-93618022D01*
X112671042Y-93618020D01*
X112671041Y-93618019D01*
X112497637Y-93510652D01*
X112497634Y-93510651D01*
X112497633Y-93510650D01*
X112307462Y-93436978D01*
X112307460Y-93436977D01*
X112307456Y-93436976D01*
X112106976Y-93399500D01*
X111903024Y-93399500D01*
X111702544Y-93436976D01*
X111702540Y-93436977D01*
X111702537Y-93436978D01*
X111512366Y-93510650D01*
X111338957Y-93618020D01*
X111288011Y-93664463D01*
X111252736Y-93677199D01*
X111221989Y-93664463D01*
X111171042Y-93618020D01*
X111171041Y-93618019D01*
X110997637Y-93510652D01*
X110997634Y-93510651D01*
X110997633Y-93510650D01*
X110807462Y-93436978D01*
X110807460Y-93436977D01*
X110807456Y-93436976D01*
X110606976Y-93399500D01*
X110403024Y-93399500D01*
X110202544Y-93436976D01*
X110202540Y-93436977D01*
X110202537Y-93436978D01*
X110012366Y-93510650D01*
X109838957Y-93618020D01*
X109788011Y-93664463D01*
X109752736Y-93677199D01*
X109721989Y-93664463D01*
X109671042Y-93618020D01*
X109671041Y-93618019D01*
X109497637Y-93510652D01*
X109497634Y-93510651D01*
X109497633Y-93510650D01*
X109307462Y-93436978D01*
X109307460Y-93436977D01*
X109307456Y-93436976D01*
X109106976Y-93399500D01*
X108903024Y-93399500D01*
X108702544Y-93436976D01*
X108702540Y-93436977D01*
X108702537Y-93436978D01*
X108512366Y-93510650D01*
X108338954Y-93618022D01*
X108287637Y-93664802D01*
X108252363Y-93677538D01*
X108221616Y-93664801D01*
X108170742Y-93618423D01*
X107997409Y-93511099D01*
X107807325Y-93437461D01*
X107606928Y-93400000D01*
X107403072Y-93400000D01*
X107202674Y-93437461D01*
X107012590Y-93511099D01*
X106839257Y-93618423D01*
X106788380Y-93664802D01*
X106753106Y-93677538D01*
X106722359Y-93664801D01*
X106671045Y-93618022D01*
X106671042Y-93618020D01*
X106671041Y-93618019D01*
X106497637Y-93510652D01*
X106497634Y-93510651D01*
X106497633Y-93510650D01*
X106307462Y-93436978D01*
X106307460Y-93436977D01*
X106307456Y-93436976D01*
X106106976Y-93399500D01*
X105903024Y-93399500D01*
X105702544Y-93436976D01*
X105702540Y-93436977D01*
X105702537Y-93436978D01*
X105512366Y-93510650D01*
X105338954Y-93618022D01*
X105188236Y-93755420D01*
X105188233Y-93755423D01*
X105065328Y-93918177D01*
X105065325Y-93918181D01*
X104974420Y-94100744D01*
X104974417Y-94100751D01*
X104918603Y-94296914D01*
X104918602Y-94296920D01*
X104899785Y-94500000D01*
X104918602Y-94703079D01*
X104918603Y-94703085D01*
X104974417Y-94899248D01*
X104974420Y-94899255D01*
X105065325Y-95081818D01*
X105065328Y-95081822D01*
X105188233Y-95244576D01*
X105188236Y-95244579D01*
X105338954Y-95381977D01*
X105338955Y-95381978D01*
X105338959Y-95381981D01*
X105512363Y-95489348D01*
X105570680Y-95511939D01*
X105577017Y-95514934D01*
X105603450Y-95529838D01*
X106483455Y-95871750D01*
X106500357Y-95882776D01*
X106854992Y-96237411D01*
X106957762Y-96306080D01*
X106957763Y-96306080D01*
X106957767Y-96306083D01*
X106966715Y-96309789D01*
X106966716Y-96309790D01*
X106966717Y-96309790D01*
X107071965Y-96353386D01*
X107193197Y-96377500D01*
X108069785Y-96377500D01*
X108104433Y-96391852D01*
X109289383Y-97576802D01*
X109296920Y-97586522D01*
X109478682Y-97894122D01*
X109487880Y-97909086D01*
X109487882Y-97909089D01*
X109490608Y-97912252D01*
X109494979Y-97918170D01*
X109559523Y-98020890D01*
X109679110Y-98140477D01*
X109822310Y-98230456D01*
X109981941Y-98286313D01*
X110150000Y-98305249D01*
X110318059Y-98286313D01*
X110457318Y-98237584D01*
X110494760Y-98239686D01*
X110519750Y-98267650D01*
X110522500Y-98283834D01*
X110522500Y-100308039D01*
X110522500Y-100431645D01*
X110538502Y-100512094D01*
X110546613Y-100552874D01*
X110546615Y-100552880D01*
X110567781Y-100603977D01*
X110567781Y-100603978D01*
X110593915Y-100667072D01*
X110617142Y-100701833D01*
X110662588Y-100769849D01*
X110789433Y-100896694D01*
X110796970Y-100906414D01*
X110978732Y-101214014D01*
X110987930Y-101228978D01*
X110987932Y-101228981D01*
X110990658Y-101232144D01*
X110995029Y-101238062D01*
X111059571Y-101340779D01*
X111059573Y-101340782D01*
X111179160Y-101460369D01*
X111322360Y-101550348D01*
X111333512Y-101554250D01*
X111361475Y-101579240D01*
X111363578Y-101616684D01*
X111338588Y-101644647D01*
X111317328Y-101649500D01*
X103627606Y-101649500D01*
X103592958Y-101635148D01*
X103578606Y-101600500D01*
X103592958Y-101565852D01*
X103608854Y-101555230D01*
X103624028Y-101548944D01*
X103698049Y-101518284D01*
X103902450Y-101400273D01*
X104089699Y-101256592D01*
X104256592Y-101089699D01*
X104363472Y-100950409D01*
X104400264Y-100902462D01*
X104400265Y-100902459D01*
X104400273Y-100902450D01*
X104518284Y-100698049D01*
X104608606Y-100479993D01*
X104669693Y-100252014D01*
X104700500Y-100018011D01*
X104700500Y-99781989D01*
X104669693Y-99547986D01*
X104608606Y-99320007D01*
X104518284Y-99101951D01*
X104400273Y-98897550D01*
X104400270Y-98897546D01*
X104400264Y-98897537D01*
X104256596Y-98710306D01*
X104256586Y-98710294D01*
X104089705Y-98543413D01*
X104089693Y-98543403D01*
X103902462Y-98399735D01*
X103902447Y-98399725D01*
X103698050Y-98281716D01*
X103479996Y-98191395D01*
X103479986Y-98191391D01*
X103252025Y-98130309D01*
X103252018Y-98130308D01*
X103252014Y-98130307D01*
X103018011Y-98099500D01*
X102781989Y-98099500D01*
X102547986Y-98130307D01*
X102547982Y-98130307D01*
X102547974Y-98130309D01*
X102320013Y-98191391D01*
X102320003Y-98191395D01*
X102101949Y-98281716D01*
X101897552Y-98399725D01*
X101897537Y-98399735D01*
X101710306Y-98543403D01*
X101710294Y-98543413D01*
X101543413Y-98710294D01*
X101543403Y-98710306D01*
X101399735Y-98897537D01*
X101399725Y-98897552D01*
X101281716Y-99101949D01*
X101244770Y-99191146D01*
X101218251Y-99217664D01*
X101180748Y-99217664D01*
X101154230Y-99191145D01*
X101150500Y-99172394D01*
X101150500Y-90352752D01*
X101150808Y-90347266D01*
X101162406Y-90244332D01*
X101164848Y-90233637D01*
X101198145Y-90138477D01*
X101202897Y-90128610D01*
X101256541Y-90043235D01*
X101263375Y-90034666D01*
X101334666Y-89963375D01*
X101343235Y-89956541D01*
X101428610Y-89902897D01*
X101438477Y-89898145D01*
X101533640Y-89864847D01*
X101544330Y-89862406D01*
X101647262Y-89850808D01*
X101652758Y-89850501D01*
X116280632Y-89857573D01*
G37*
G04 #@! TD.AperFunction*
G04 #@! TA.AperFunction,Conductor*
G36*
X111057241Y-94274957D02*
G01*
X111063563Y-94281298D01*
X111063653Y-94281522D01*
X111232667Y-94716528D01*
X111232804Y-94716901D01*
X111279209Y-94849518D01*
X111279210Y-94849520D01*
X111279211Y-94849522D01*
X111292057Y-94869966D01*
X111293056Y-94871954D01*
X111440566Y-95251611D01*
X111440368Y-95260563D01*
X111437933Y-95264121D01*
X111269121Y-95432933D01*
X111260848Y-95436360D01*
X111256611Y-95435566D01*
X110286522Y-95058653D01*
X110280051Y-95052462D01*
X110279853Y-95043510D01*
X110279910Y-95043366D01*
X110502437Y-94503791D01*
X110508759Y-94497451D01*
X111048288Y-94274943D01*
X111057241Y-94274957D01*
G37*
G04 #@! TD.AperFunction*
G04 #@! TA.AperFunction,Conductor*
G36*
X113887717Y-92877568D02*
G01*
X113921635Y-92891764D01*
X113927944Y-92898120D01*
X113928449Y-92905471D01*
X113829259Y-93291214D01*
X113823880Y-93298373D01*
X113817928Y-93300000D01*
X113582072Y-93300000D01*
X113573799Y-93296573D01*
X113570741Y-93291214D01*
X113471550Y-92905471D01*
X113472808Y-92896605D01*
X113478363Y-92891764D01*
X113695484Y-92800889D01*
X113704437Y-92800857D01*
X113887717Y-92877568D01*
G37*
G04 #@! TD.AperFunction*
G04 #@! TA.AperFunction,Conductor*
G36*
X112883954Y-95376807D02*
G01*
X112889293Y-95382645D01*
X112999115Y-95645489D01*
X112999142Y-95654444D01*
X112999115Y-95654511D01*
X112889293Y-95917354D01*
X112882941Y-95923666D01*
X112875038Y-95924020D01*
X112408241Y-95779550D01*
X112401351Y-95773830D01*
X112400000Y-95768373D01*
X112400000Y-95531626D01*
X112403427Y-95523353D01*
X112408239Y-95520449D01*
X112875039Y-95375979D01*
X112883954Y-95376807D01*
G37*
G04 #@! TD.AperFunction*
G04 #@! TA.AperFunction,Conductor*
G36*
X106557241Y-94274957D02*
G01*
X106563563Y-94281298D01*
X106563653Y-94281522D01*
X106732667Y-94716528D01*
X106732804Y-94716901D01*
X106779209Y-94849518D01*
X106779210Y-94849520D01*
X106779211Y-94849522D01*
X106792057Y-94869966D01*
X106793056Y-94871954D01*
X106940566Y-95251611D01*
X106940368Y-95260563D01*
X106937933Y-95264121D01*
X106769121Y-95432933D01*
X106760848Y-95436360D01*
X106756611Y-95435566D01*
X105786522Y-95058653D01*
X105780051Y-95052462D01*
X105779853Y-95043510D01*
X105779910Y-95043366D01*
X106002437Y-94503791D01*
X106008759Y-94497451D01*
X106548288Y-94274943D01*
X106557241Y-94274957D01*
G37*
G04 #@! TD.AperFunction*
G04 #@! TA.AperFunction,Conductor*
G36*
X112397963Y-98097468D02*
G01*
X112564737Y-98264242D01*
X112568164Y-98272515D01*
X112566537Y-98278467D01*
X112363914Y-98621368D01*
X112356755Y-98626747D01*
X112349404Y-98626242D01*
X112131621Y-98536973D01*
X112125265Y-98530664D01*
X112125232Y-98530584D01*
X112035963Y-98312801D01*
X112035996Y-98303847D01*
X112040835Y-98298292D01*
X112383738Y-98095667D01*
X112392604Y-98094410D01*
X112397963Y-98097468D01*
G37*
G04 #@! TD.AperFunction*
G04 #@! TA.AperFunction,Conductor*
G36*
X109894058Y-97111259D02*
G01*
X110236959Y-97313882D01*
X110242338Y-97321041D01*
X110241833Y-97328392D01*
X110152564Y-97546175D01*
X110146255Y-97552531D01*
X110146175Y-97552564D01*
X109928392Y-97641833D01*
X109919438Y-97641800D01*
X109913882Y-97636959D01*
X109711259Y-97294058D01*
X109710001Y-97285192D01*
X109713057Y-97279835D01*
X109879834Y-97113058D01*
X109888106Y-97109632D01*
X109894058Y-97111259D01*
G37*
G04 #@! TD.AperFunction*
G04 #@! TA.AperFunction,Conductor*
G36*
X109011530Y-94502296D02*
G01*
X109549368Y-94725477D01*
X109555696Y-94731813D01*
X109556020Y-94739873D01*
X109304264Y-95521106D01*
X109301401Y-95525790D01*
X109133674Y-95693517D01*
X109125401Y-95696944D01*
X109117128Y-95693517D01*
X109115802Y-95691934D01*
X108586327Y-94932286D01*
X108584408Y-94923539D01*
X108587637Y-94917339D01*
X108998761Y-94504842D01*
X109007026Y-94501403D01*
X109011530Y-94502296D01*
G37*
G04 #@! TD.AperFunction*
G04 #@! TA.AperFunction,Conductor*
G36*
X111394108Y-100431151D02*
G01*
X111737009Y-100633774D01*
X111742388Y-100640933D01*
X111741883Y-100648284D01*
X111652614Y-100866067D01*
X111646305Y-100872423D01*
X111646225Y-100872456D01*
X111428442Y-100961725D01*
X111419488Y-100961692D01*
X111413932Y-100956851D01*
X111211309Y-100613950D01*
X111210051Y-100605084D01*
X111213107Y-100599727D01*
X111379884Y-100432950D01*
X111388156Y-100429524D01*
X111394108Y-100431151D01*
G37*
G04 #@! TD.AperFunction*
M02*
