G04 #@! TF.GenerationSoftware,KiCad,Pcbnew,8.0.4-8.0.4-0~ubuntu22.04.1*
G04 #@! TF.CreationDate,2024-08-29T21:18:49-07:00*
G04 #@! TF.ProjectId,uSlime_BNO085,75536c69-6d65-45f4-924e-4f3038352e6b,rev?*
G04 #@! TF.SameCoordinates,Original*
G04 #@! TF.FileFunction,Copper,L2,Bot*
G04 #@! TF.FilePolarity,Positive*
%FSLAX46Y46*%
G04 Gerber Fmt 4.6, Leading zero omitted, Abs format (unit mm)*
G04 Created by KiCad (PCBNEW 8.0.4-8.0.4-0~ubuntu22.04.1) date 2024-08-29 21:18:49*
%MOMM*%
%LPD*%
G01*
G04 APERTURE LIST*
G04 #@! TA.AperFunction,ComponentPad*
%ADD10C,1.200000*%
G04 #@! TD*
G04 #@! TA.AperFunction,ViaPad*
%ADD11C,0.600000*%
G04 #@! TD*
G04 #@! TA.AperFunction,ViaPad*
%ADD12C,0.500000*%
G04 #@! TD*
G04 #@! TA.AperFunction,Conductor*
%ADD13C,0.254000*%
G04 #@! TD*
G04 APERTURE END LIST*
D10*
X112005000Y-94500000D03*
X110505000Y-94500000D03*
X109005000Y-94500000D03*
X107505000Y-94500000D03*
X106005000Y-94500000D03*
D11*
X113200000Y-90900000D03*
X106000000Y-101100000D03*
X109300000Y-98425196D03*
D12*
X110150000Y-97550000D03*
X111250000Y-95550000D03*
X113050000Y-92300000D03*
D11*
X110750000Y-93150000D03*
X107550000Y-98050000D03*
D12*
X111650050Y-100869892D03*
X113700000Y-92800000D03*
X112127797Y-98534409D03*
D13*
X113050000Y-95200000D02*
X113050000Y-92300000D01*
X111250000Y-95550000D02*
X112700000Y-95550000D01*
X112700000Y-95550000D02*
X113050000Y-95200000D01*
X107505000Y-98005000D02*
X107550000Y-98050000D01*
X108855000Y-93150000D02*
X107505000Y-94500000D01*
X107505000Y-94500000D02*
X107505000Y-98005000D01*
X110750000Y-93150000D02*
X108855000Y-93150000D01*
X109669892Y-100869892D02*
X108673000Y-99873000D01*
X108673000Y-94832000D02*
X109005000Y-94500000D01*
X111650050Y-100869892D02*
X109669892Y-100869892D01*
X108673000Y-99873000D02*
X108673000Y-94832000D01*
X113700000Y-92800000D02*
X113700000Y-96962206D01*
X113700000Y-96962206D02*
X112127797Y-98534409D01*
G04 #@! TA.AperFunction,Conductor*
G36*
X116280632Y-89857573D02*
G01*
X116281149Y-89857607D01*
X116284100Y-89857607D01*
X116284104Y-89857608D01*
X116347245Y-89857607D01*
X116352732Y-89857915D01*
X116392477Y-89862393D01*
X116455661Y-89869512D01*
X116466357Y-89871953D01*
X116561507Y-89905247D01*
X116571392Y-89910007D01*
X116650120Y-89959475D01*
X116656754Y-89963643D01*
X116665333Y-89970485D01*
X116736614Y-90041766D01*
X116743456Y-90050345D01*
X116797092Y-90135707D01*
X116801852Y-90145593D01*
X116835145Y-90240741D01*
X116837587Y-90251438D01*
X116849184Y-90354368D01*
X116849492Y-90359854D01*
X116849492Y-90425991D01*
X116849493Y-90426008D01*
X116849497Y-99172389D01*
X116835145Y-99207037D01*
X116800497Y-99221389D01*
X116765849Y-99207037D01*
X116755227Y-99191140D01*
X116718284Y-99101951D01*
X116600273Y-98897550D01*
X116600270Y-98897546D01*
X116600264Y-98897537D01*
X116456596Y-98710306D01*
X116456586Y-98710294D01*
X116289705Y-98543413D01*
X116289693Y-98543403D01*
X116102462Y-98399735D01*
X116102447Y-98399725D01*
X115898050Y-98281716D01*
X115679996Y-98191395D01*
X115679986Y-98191391D01*
X115452025Y-98130309D01*
X115452018Y-98130308D01*
X115452014Y-98130307D01*
X115218011Y-98099500D01*
X114981989Y-98099500D01*
X114747986Y-98130307D01*
X114747982Y-98130307D01*
X114747974Y-98130309D01*
X114520013Y-98191391D01*
X114520003Y-98191395D01*
X114301949Y-98281716D01*
X114097552Y-98399725D01*
X114097537Y-98399735D01*
X113910306Y-98543403D01*
X113910294Y-98543413D01*
X113743413Y-98710294D01*
X113743403Y-98710306D01*
X113599735Y-98897537D01*
X113599725Y-98897552D01*
X113481716Y-99101949D01*
X113391395Y-99320003D01*
X113391391Y-99320013D01*
X113330309Y-99547974D01*
X113330307Y-99547982D01*
X113330307Y-99547986D01*
X113299500Y-99781989D01*
X113299500Y-100018011D01*
X113330307Y-100252014D01*
X113330308Y-100252018D01*
X113330309Y-100252025D01*
X113391391Y-100479986D01*
X113391395Y-100479996D01*
X113481716Y-100698050D01*
X113599725Y-100902447D01*
X113599735Y-100902462D01*
X113743403Y-101089693D01*
X113743413Y-101089705D01*
X113910294Y-101256586D01*
X113910306Y-101256596D01*
X114097537Y-101400264D01*
X114097552Y-101400274D01*
X114301949Y-101518283D01*
X114391146Y-101555230D01*
X114417664Y-101581749D01*
X114417664Y-101619252D01*
X114391145Y-101645770D01*
X114372394Y-101649500D01*
X111982772Y-101649500D01*
X111948124Y-101635148D01*
X111933772Y-101600500D01*
X111948124Y-101565852D01*
X111966587Y-101554250D01*
X111977740Y-101550348D01*
X112120940Y-101460369D01*
X112240527Y-101340782D01*
X112330506Y-101197582D01*
X112386363Y-101037951D01*
X112405299Y-100869892D01*
X112386363Y-100701833D01*
X112330506Y-100542202D01*
X112240527Y-100399002D01*
X112120940Y-100279415D01*
X111977740Y-100189436D01*
X111818109Y-100133579D01*
X111818105Y-100133578D01*
X111818103Y-100133578D01*
X111650050Y-100114643D01*
X111481996Y-100133578D01*
X111481992Y-100133578D01*
X111481991Y-100133579D01*
X111481988Y-100133579D01*
X111481988Y-100133580D01*
X111440019Y-100148264D01*
X111429168Y-100150722D01*
X111418691Y-100151868D01*
X111418679Y-100151870D01*
X111072656Y-100240848D01*
X111060453Y-100242392D01*
X109950107Y-100242392D01*
X109915459Y-100228040D01*
X109314852Y-99627433D01*
X109300500Y-99592785D01*
X109300500Y-97586025D01*
X109314852Y-97551377D01*
X109317777Y-97550165D01*
X109381222Y-97550165D01*
X109384148Y-97551377D01*
X109398192Y-97580539D01*
X109411705Y-97700473D01*
X109413687Y-97718059D01*
X109469544Y-97877690D01*
X109559523Y-98020890D01*
X109679110Y-98140477D01*
X109822310Y-98230456D01*
X109981941Y-98286313D01*
X110150000Y-98305249D01*
X110318059Y-98286313D01*
X110477690Y-98230456D01*
X110620890Y-98140477D01*
X110740477Y-98020890D01*
X110830456Y-97877690D01*
X110886313Y-97718059D01*
X110905249Y-97550000D01*
X110886313Y-97381941D01*
X110830456Y-97222310D01*
X110740477Y-97079110D01*
X110620890Y-96959523D01*
X110477690Y-96869544D01*
X110318059Y-96813687D01*
X110318055Y-96813686D01*
X110318053Y-96813686D01*
X110150000Y-96794751D01*
X109981946Y-96813686D01*
X109981937Y-96813688D01*
X109822310Y-96869544D01*
X109822308Y-96869545D01*
X109679112Y-96959521D01*
X109679108Y-96959524D01*
X109559524Y-97079108D01*
X109559521Y-97079112D01*
X109469545Y-97222308D01*
X109469544Y-97222310D01*
X109413688Y-97381937D01*
X109413686Y-97381946D01*
X109398192Y-97519460D01*
X109381222Y-97550165D01*
X109317777Y-97550165D01*
X109319845Y-97549308D01*
X109311190Y-97544525D01*
X109300500Y-97513974D01*
X109300500Y-95812745D01*
X109313993Y-95778977D01*
X109727293Y-95344407D01*
X109761567Y-95329192D01*
X109795807Y-95341966D01*
X109839257Y-95381576D01*
X110012590Y-95488900D01*
X110202674Y-95562538D01*
X110403072Y-95600000D01*
X110456596Y-95600000D01*
X110491244Y-95614352D01*
X110505287Y-95643513D01*
X110513687Y-95718059D01*
X110569544Y-95877690D01*
X110659523Y-96020890D01*
X110779110Y-96140477D01*
X110922310Y-96230456D01*
X111081941Y-96286313D01*
X111250000Y-96305249D01*
X111418059Y-96286313D01*
X111577690Y-96230456D01*
X111577692Y-96230454D01*
X111577694Y-96230454D01*
X111650016Y-96185011D01*
X111676086Y-96177500D01*
X112761800Y-96177500D01*
X112761803Y-96177500D01*
X112883035Y-96153386D01*
X112963782Y-96119938D01*
X112963783Y-96119938D01*
X112978372Y-96113894D01*
X112997233Y-96106083D01*
X112997236Y-96106081D01*
X112999360Y-96104947D01*
X112999921Y-96105998D01*
X113033057Y-96099405D01*
X113064240Y-96120239D01*
X113072500Y-96147464D01*
X113072500Y-96681990D01*
X113058148Y-96716638D01*
X112100996Y-97673789D01*
X112091276Y-97681326D01*
X111783670Y-97863094D01*
X111768660Y-97872320D01*
X111768652Y-97872326D01*
X111765489Y-97875052D01*
X111759576Y-97879419D01*
X111656905Y-97943932D01*
X111656903Y-97943934D01*
X111537321Y-98063517D01*
X111537318Y-98063521D01*
X111447342Y-98206717D01*
X111447341Y-98206719D01*
X111391485Y-98366346D01*
X111391483Y-98366355D01*
X111372548Y-98534409D01*
X111388931Y-98679816D01*
X111391484Y-98702468D01*
X111447341Y-98862099D01*
X111537320Y-99005299D01*
X111656907Y-99124886D01*
X111800107Y-99214865D01*
X111959738Y-99270722D01*
X112127797Y-99289658D01*
X112295856Y-99270722D01*
X112455487Y-99214865D01*
X112598687Y-99124886D01*
X112718274Y-99005299D01*
X112792165Y-98887700D01*
X112795436Y-98883107D01*
X112799113Y-98878530D01*
X112980877Y-98570926D01*
X112988406Y-98561217D01*
X114187411Y-97362214D01*
X114252613Y-97264632D01*
X114252614Y-97264632D01*
X114252615Y-97264628D01*
X114256083Y-97259439D01*
X114275676Y-97212136D01*
X114303386Y-97145240D01*
X114327500Y-97024009D01*
X114327500Y-96900403D01*
X114327500Y-93389595D01*
X114329044Y-93377392D01*
X114341422Y-93329255D01*
X114418023Y-93031360D01*
X114422093Y-93014310D01*
X114422142Y-93013640D01*
X114422356Y-93012611D01*
X114422394Y-93012373D01*
X114422406Y-93012374D01*
X114424756Y-93001082D01*
X114436313Y-92968059D01*
X114455249Y-92800000D01*
X114436313Y-92631941D01*
X114380456Y-92472310D01*
X114290477Y-92329110D01*
X114170890Y-92209523D01*
X114027690Y-92119544D01*
X113868059Y-92063687D01*
X113868055Y-92063686D01*
X113868053Y-92063686D01*
X113788688Y-92054743D01*
X113755865Y-92036602D01*
X113747925Y-92022234D01*
X113745699Y-92015874D01*
X113730456Y-91972310D01*
X113730454Y-91972307D01*
X113730454Y-91972306D01*
X113640478Y-91829112D01*
X113640477Y-91829110D01*
X113520890Y-91709523D01*
X113377690Y-91619544D01*
X113218059Y-91563687D01*
X113218055Y-91563686D01*
X113218053Y-91563686D01*
X113050000Y-91544751D01*
X112881946Y-91563686D01*
X112881937Y-91563688D01*
X112722310Y-91619544D01*
X112722308Y-91619545D01*
X112579112Y-91709521D01*
X112579108Y-91709524D01*
X112459524Y-91829108D01*
X112459521Y-91829112D01*
X112369545Y-91972308D01*
X112369544Y-91972310D01*
X112313688Y-92131937D01*
X112313686Y-92131946D01*
X112294751Y-92300000D01*
X112308746Y-92424212D01*
X112313687Y-92468059D01*
X112357726Y-92593917D01*
X112369544Y-92627689D01*
X112369544Y-92627691D01*
X112414989Y-92700014D01*
X112422500Y-92726084D01*
X112422500Y-93410012D01*
X112408148Y-93444660D01*
X112373500Y-93459012D01*
X112355800Y-93455703D01*
X112307463Y-93436978D01*
X112307465Y-93436978D01*
X112307457Y-93436976D01*
X112307456Y-93436976D01*
X112106976Y-93399500D01*
X111903024Y-93399500D01*
X111702544Y-93436976D01*
X111702540Y-93436977D01*
X111702537Y-93436978D01*
X111564573Y-93490425D01*
X111527080Y-93489559D01*
X111501181Y-93462435D01*
X111500622Y-93428553D01*
X111535368Y-93329255D01*
X111555565Y-93150000D01*
X111535368Y-92970745D01*
X111475789Y-92800478D01*
X111475788Y-92800477D01*
X111475787Y-92800473D01*
X111397432Y-92675775D01*
X111379816Y-92647738D01*
X111252262Y-92520184D01*
X111252259Y-92520182D01*
X111099526Y-92424212D01*
X110929258Y-92364633D01*
X110929257Y-92364632D01*
X110929255Y-92364632D01*
X110929251Y-92364631D01*
X110929249Y-92364631D01*
X110750000Y-92344435D01*
X110570750Y-92364631D01*
X110570746Y-92364631D01*
X110570745Y-92364632D01*
X110570742Y-92364632D01*
X110570738Y-92364634D01*
X110505112Y-92387597D01*
X110496617Y-92389739D01*
X110475586Y-92393077D01*
X110475583Y-92393077D01*
X110475576Y-92393079D01*
X110064484Y-92520309D01*
X110049997Y-92522500D01*
X108793193Y-92522500D01*
X108671972Y-92546613D01*
X108671963Y-92546615D01*
X108557770Y-92593915D01*
X108454992Y-92662588D01*
X108000356Y-93117223D01*
X107983454Y-93128249D01*
X107466104Y-93329258D01*
X107103387Y-93470186D01*
X107101663Y-93470870D01*
X107096162Y-93473056D01*
X107096041Y-93473105D01*
X107061282Y-93489559D01*
X107044704Y-93497406D01*
X107044702Y-93497406D01*
X107042907Y-93498257D01*
X107037420Y-93500944D01*
X107012367Y-93510649D01*
X106838957Y-93618020D01*
X106788011Y-93664463D01*
X106752736Y-93677199D01*
X106721989Y-93664463D01*
X106671042Y-93618020D01*
X106671041Y-93618019D01*
X106497637Y-93510652D01*
X106497634Y-93510651D01*
X106497633Y-93510650D01*
X106307462Y-93436978D01*
X106307460Y-93436977D01*
X106307456Y-93436976D01*
X106106976Y-93399500D01*
X105903024Y-93399500D01*
X105702544Y-93436976D01*
X105702540Y-93436977D01*
X105702537Y-93436978D01*
X105512366Y-93510650D01*
X105338954Y-93618022D01*
X105188236Y-93755420D01*
X105188233Y-93755423D01*
X105065328Y-93918177D01*
X105065325Y-93918181D01*
X104974420Y-94100744D01*
X104974417Y-94100751D01*
X104918603Y-94296914D01*
X104918602Y-94296920D01*
X104899785Y-94500000D01*
X104918602Y-94703079D01*
X104918603Y-94703085D01*
X104974417Y-94899248D01*
X104974420Y-94899255D01*
X105065325Y-95081818D01*
X105065328Y-95081822D01*
X105188233Y-95244576D01*
X105188236Y-95244579D01*
X105338954Y-95381977D01*
X105338955Y-95381978D01*
X105338959Y-95381981D01*
X105512363Y-95489348D01*
X105702544Y-95563024D01*
X105903024Y-95600500D01*
X105903026Y-95600500D01*
X106106974Y-95600500D01*
X106106976Y-95600500D01*
X106307456Y-95563024D01*
X106497637Y-95489348D01*
X106634568Y-95404563D01*
X106671579Y-95398526D01*
X106702022Y-95420430D01*
X106705205Y-95426477D01*
X106873344Y-95808290D01*
X106877500Y-95828038D01*
X106877500Y-97601552D01*
X106869989Y-97627622D01*
X106824212Y-97700473D01*
X106764633Y-97870741D01*
X106764631Y-97870750D01*
X106744435Y-98050000D01*
X106764631Y-98229249D01*
X106764633Y-98229258D01*
X106824212Y-98399526D01*
X106914624Y-98543413D01*
X106920184Y-98552262D01*
X107047738Y-98679816D01*
X107047740Y-98679817D01*
X107200473Y-98775787D01*
X107200477Y-98775788D01*
X107200478Y-98775789D01*
X107370745Y-98835368D01*
X107550000Y-98855565D01*
X107729255Y-98835368D01*
X107899522Y-98775789D01*
X107970430Y-98731233D01*
X108007403Y-98724951D01*
X108037989Y-98746653D01*
X108045500Y-98772723D01*
X108045500Y-99811197D01*
X108045500Y-99934803D01*
X108061502Y-100015252D01*
X108069613Y-100056032D01*
X108069615Y-100056038D01*
X108102834Y-100136233D01*
X108102834Y-100136234D01*
X108109311Y-100151870D01*
X108116917Y-100170233D01*
X108181245Y-100266507D01*
X108185589Y-100273008D01*
X109182481Y-101269900D01*
X109269884Y-101357303D01*
X109372659Y-101425975D01*
X109486857Y-101473277D01*
X109608089Y-101497392D01*
X111060457Y-101497392D01*
X111072660Y-101498936D01*
X111283082Y-101553044D01*
X111313064Y-101575572D01*
X111318335Y-101612703D01*
X111295807Y-101642685D01*
X111270879Y-101649500D01*
X103627606Y-101649500D01*
X103592958Y-101635148D01*
X103578606Y-101600500D01*
X103592958Y-101565852D01*
X103608854Y-101555230D01*
X103624028Y-101548944D01*
X103698049Y-101518284D01*
X103902450Y-101400273D01*
X104089699Y-101256592D01*
X104256592Y-101089699D01*
X104400273Y-100902450D01*
X104518284Y-100698049D01*
X104608606Y-100479993D01*
X104669693Y-100252014D01*
X104700500Y-100018011D01*
X104700500Y-99781989D01*
X104669693Y-99547986D01*
X104608606Y-99320007D01*
X104518284Y-99101951D01*
X104400273Y-98897550D01*
X104400270Y-98897546D01*
X104400264Y-98897537D01*
X104256596Y-98710306D01*
X104256586Y-98710294D01*
X104089705Y-98543413D01*
X104089693Y-98543403D01*
X103902462Y-98399735D01*
X103902447Y-98399725D01*
X103698050Y-98281716D01*
X103479996Y-98191395D01*
X103479986Y-98191391D01*
X103252025Y-98130309D01*
X103252018Y-98130308D01*
X103252014Y-98130307D01*
X103018011Y-98099500D01*
X102781989Y-98099500D01*
X102547986Y-98130307D01*
X102547982Y-98130307D01*
X102547974Y-98130309D01*
X102320013Y-98191391D01*
X102320003Y-98191395D01*
X102101949Y-98281716D01*
X101897552Y-98399725D01*
X101897537Y-98399735D01*
X101710306Y-98543403D01*
X101710294Y-98543413D01*
X101543413Y-98710294D01*
X101543403Y-98710306D01*
X101399735Y-98897537D01*
X101399725Y-98897552D01*
X101281716Y-99101949D01*
X101244770Y-99191146D01*
X101218251Y-99217664D01*
X101180748Y-99217664D01*
X101154230Y-99191145D01*
X101150500Y-99172394D01*
X101150500Y-90352752D01*
X101150808Y-90347266D01*
X101162406Y-90244332D01*
X101164848Y-90233637D01*
X101198145Y-90138477D01*
X101202897Y-90128610D01*
X101256541Y-90043235D01*
X101263375Y-90034666D01*
X101334666Y-89963375D01*
X101343235Y-89956541D01*
X101428610Y-89902897D01*
X101438477Y-89898145D01*
X101533640Y-89864847D01*
X101544330Y-89862406D01*
X101647262Y-89850808D01*
X101652758Y-89850501D01*
X116280632Y-89857573D01*
G37*
G04 #@! TD.AperFunction*
G04 #@! TA.AperFunction,Conductor*
G36*
X112397963Y-98097468D02*
G01*
X112564737Y-98264242D01*
X112568164Y-98272515D01*
X112566537Y-98278467D01*
X112363914Y-98621368D01*
X112356755Y-98626747D01*
X112349404Y-98626242D01*
X112131621Y-98536973D01*
X112125265Y-98530664D01*
X112125232Y-98530584D01*
X112035963Y-98312801D01*
X112035996Y-98303847D01*
X112040835Y-98298292D01*
X112383738Y-98095667D01*
X112392604Y-98094410D01*
X112397963Y-98097468D01*
G37*
G04 #@! TD.AperFunction*
G04 #@! TA.AperFunction,Conductor*
G36*
X108265563Y-93564631D02*
G01*
X108269121Y-93567066D01*
X108437933Y-93735878D01*
X108441360Y-93744151D01*
X108440566Y-93748388D01*
X108293055Y-94128046D01*
X108292056Y-94130033D01*
X108279212Y-94150476D01*
X108279209Y-94150481D01*
X108232804Y-94283097D01*
X108232667Y-94283470D01*
X108063653Y-94718477D01*
X108057462Y-94724948D01*
X108048510Y-94725146D01*
X108048286Y-94725056D01*
X107508792Y-94502562D01*
X107502451Y-94496240D01*
X107502437Y-94496207D01*
X107414548Y-94283097D01*
X107279943Y-93956711D01*
X107279957Y-93947758D01*
X107286298Y-93941436D01*
X107286458Y-93941371D01*
X108256613Y-93564433D01*
X108265563Y-93564631D01*
G37*
G04 #@! TD.AperFunction*
G04 #@! TA.AperFunction,Conductor*
G36*
X113887717Y-92877568D02*
G01*
X113921635Y-92891764D01*
X113927944Y-92898120D01*
X113928449Y-92905471D01*
X113829259Y-93291214D01*
X113823880Y-93298373D01*
X113817928Y-93300000D01*
X113582072Y-93300000D01*
X113573799Y-93296573D01*
X113570741Y-93291214D01*
X113471550Y-92905471D01*
X113472808Y-92896605D01*
X113478363Y-92891764D01*
X113695484Y-92800889D01*
X113704437Y-92800857D01*
X113887717Y-92877568D01*
G37*
G04 #@! TD.AperFunction*
G04 #@! TA.AperFunction,Conductor*
G36*
X108048300Y-94725022D02*
G01*
X108054622Y-94731363D01*
X108054608Y-94740318D01*
X108054514Y-94740539D01*
X107635076Y-95693015D01*
X107628605Y-95699206D01*
X107624368Y-95700000D01*
X107385632Y-95700000D01*
X107377359Y-95696573D01*
X107374924Y-95693015D01*
X106955485Y-94740539D01*
X106955287Y-94731587D01*
X106961478Y-94725116D01*
X106961636Y-94725048D01*
X107500507Y-94500868D01*
X107509458Y-94500855D01*
X108048300Y-94725022D01*
G37*
G04 #@! TD.AperFunction*
G04 #@! TA.AperFunction,Conductor*
G36*
X111553444Y-100642700D02*
G01*
X111558285Y-100648256D01*
X111649159Y-100865375D01*
X111649192Y-100874329D01*
X111649159Y-100874409D01*
X111558285Y-101091527D01*
X111551929Y-101097836D01*
X111544578Y-101098341D01*
X111158836Y-100999151D01*
X111151677Y-100993772D01*
X111150050Y-100987820D01*
X111150050Y-100751963D01*
X111153477Y-100743690D01*
X111158833Y-100740633D01*
X111544578Y-100641442D01*
X111553444Y-100642700D01*
G37*
G04 #@! TD.AperFunction*
G04 #@! TA.AperFunction,Conductor*
G36*
X110633954Y-92876807D02*
G01*
X110639293Y-92882645D01*
X110749115Y-93145489D01*
X110749142Y-93154444D01*
X110749115Y-93154511D01*
X110639293Y-93417354D01*
X110632941Y-93423666D01*
X110625038Y-93424020D01*
X110158241Y-93279550D01*
X110151351Y-93273830D01*
X110150000Y-93268373D01*
X110150000Y-93031626D01*
X110153427Y-93023353D01*
X110158239Y-93020449D01*
X110625039Y-92875979D01*
X110633954Y-92876807D01*
G37*
G04 #@! TD.AperFunction*
G04 #@! TA.AperFunction,Conductor*
G36*
X109008413Y-94502421D02*
G01*
X109008437Y-94502445D01*
X109421215Y-94916196D01*
X109424632Y-94924473D01*
X109421410Y-94932522D01*
X108803459Y-95582276D01*
X108795274Y-95585909D01*
X108794981Y-95585913D01*
X108556279Y-95585913D01*
X108548006Y-95582486D01*
X108544676Y-95575720D01*
X108406711Y-94513181D01*
X108409044Y-94504538D01*
X108416807Y-94500074D01*
X108418281Y-94499977D01*
X109000135Y-94499008D01*
X109008413Y-94502421D01*
G37*
G04 #@! TD.AperFunction*
M02*
