G04 #@! TF.GenerationSoftware,KiCad,Pcbnew,8.0.2*
G04 #@! TF.CreationDate,2024-05-27T23:46:40-07:00*
G04 #@! TF.ProjectId,uSlime,75536c69-6d65-42e6-9b69-6361645f7063,rev?*
G04 #@! TF.SameCoordinates,Original*
G04 #@! TF.FileFunction,Soldermask,Top*
G04 #@! TF.FilePolarity,Negative*
%FSLAX46Y46*%
G04 Gerber Fmt 4.6, Leading zero omitted, Abs format (unit mm)*
G04 Created by KiCad (PCBNEW 8.0.2) date 2024-05-27 23:46:40*
%MOMM*%
%LPD*%
G01*
G04 APERTURE LIST*
G04 Aperture macros list*
%AMRoundRect*
0 Rectangle with rounded corners*
0 $1 Rounding radius*
0 $2 $3 $4 $5 $6 $7 $8 $9 X,Y pos of 4 corners*
0 Add a 4 corners polygon primitive as box body*
4,1,4,$2,$3,$4,$5,$6,$7,$8,$9,$2,$3,0*
0 Add four circle primitives for the rounded corners*
1,1,$1+$1,$2,$3*
1,1,$1+$1,$4,$5*
1,1,$1+$1,$6,$7*
1,1,$1+$1,$8,$9*
0 Add four rect primitives between the rounded corners*
20,1,$1+$1,$2,$3,$4,$5,0*
20,1,$1+$1,$4,$5,$6,$7,0*
20,1,$1+$1,$6,$7,$8,$9,0*
20,1,$1+$1,$8,$9,$2,$3,0*%
%AMFreePoly0*
4,1,6,0.725000,-0.725000,-0.725000,-0.725000,-0.725000,0.125000,-0.125000,0.725000,0.725000,0.725000,0.725000,-0.725000,0.725000,-0.725000,$1*%
G04 Aperture macros list end*
%ADD10RoundRect,0.147500X0.172500X-0.147500X0.172500X0.147500X-0.172500X0.147500X-0.172500X-0.147500X0*%
%ADD11R,1.050000X1.700000*%
%ADD12RoundRect,0.140000X0.170000X-0.140000X0.170000X0.140000X-0.170000X0.140000X-0.170000X-0.140000X0*%
%ADD13C,1.200000*%
%ADD14RoundRect,0.135000X0.185000X-0.135000X0.185000X0.135000X-0.185000X0.135000X-0.185000X-0.135000X0*%
%ADD15RoundRect,0.140000X-0.170000X0.140000X-0.170000X-0.140000X0.170000X-0.140000X0.170000X0.140000X0*%
%ADD16RoundRect,0.135000X-0.185000X0.135000X-0.185000X-0.135000X0.185000X-0.135000X0.185000X0.135000X0*%
%ADD17C,0.650000*%
%ADD18RoundRect,0.150000X-0.150000X-0.425000X0.150000X-0.425000X0.150000X0.425000X-0.150000X0.425000X0*%
%ADD19RoundRect,0.075000X-0.075000X-0.500000X0.075000X-0.500000X0.075000X0.500000X-0.075000X0.500000X0*%
%ADD20O,1.000000X2.100000*%
%ADD21O,1.000000X1.800000*%
%ADD22RoundRect,0.135000X-0.135000X-0.185000X0.135000X-0.185000X0.135000X0.185000X-0.135000X0.185000X0*%
%ADD23RoundRect,0.135000X0.135000X0.185000X-0.135000X0.185000X-0.135000X-0.185000X0.135000X-0.185000X0*%
%ADD24R,0.431800X0.304800*%
%ADD25R,0.304800X0.431800*%
%ADD26RoundRect,0.147500X0.147500X0.172500X-0.147500X0.172500X-0.147500X-0.172500X0.147500X-0.172500X0*%
%ADD27RoundRect,0.140000X0.140000X0.170000X-0.140000X0.170000X-0.140000X-0.170000X0.140000X-0.170000X0*%
%ADD28C,3.100000*%
%ADD29R,1.320800X0.508000*%
%ADD30R,0.800000X0.400000*%
%ADD31R,0.400000X0.800000*%
%ADD32FreePoly0,0.000000*%
%ADD33R,1.450000X1.450000*%
%ADD34R,0.700000X0.700000*%
%ADD35C,0.900000*%
%ADD36R,0.700000X1.500000*%
%ADD37R,1.000000X0.800000*%
%ADD38C,0.800000*%
%ADD39R,0.900000X1.700000*%
%ADD40C,1.000000*%
%ADD41RoundRect,0.060300X-0.716700X0.341700X-0.716700X-0.341700X0.716700X-0.341700X0.716700X0.341700X0*%
%ADD42RoundRect,0.147500X-0.172500X0.147500X-0.172500X-0.147500X0.172500X-0.147500X0.172500X0.147500X0*%
G04 APERTURE END LIST*
D10*
X106850000Y-99235000D03*
X106850000Y-98265000D03*
D11*
X112525000Y-102300000D03*
X115075000Y-102300000D03*
D12*
X119000000Y-102380000D03*
X119000000Y-101420000D03*
D13*
X117795000Y-106800000D03*
X119295000Y-106800000D03*
X120795000Y-106800000D03*
X122295000Y-106800000D03*
X123795000Y-106800000D03*
D14*
X111300000Y-94260000D03*
X111300000Y-93240000D03*
D15*
X105800000Y-95220000D03*
X105800000Y-96180000D03*
D12*
X111150000Y-92330000D03*
X111150000Y-91370000D03*
X111162500Y-102860000D03*
X111162500Y-101900000D03*
D16*
X119000000Y-103290000D03*
X119000000Y-104310000D03*
D15*
X106850000Y-100120000D03*
X106850000Y-101080000D03*
D17*
X103260000Y-105645000D03*
X109040000Y-105645000D03*
D18*
X102950000Y-104570000D03*
X103750000Y-104570000D03*
D19*
X104900000Y-104570000D03*
X105900000Y-104570000D03*
X106400000Y-104570000D03*
X107400000Y-104570000D03*
D18*
X108550000Y-104570000D03*
X109350000Y-104570000D03*
X109350000Y-104570000D03*
X108550000Y-104570000D03*
D19*
X107900000Y-104570000D03*
X106900000Y-104570000D03*
X105400000Y-104570000D03*
X104400000Y-104570000D03*
D18*
X103750000Y-104570000D03*
X102950000Y-104570000D03*
D20*
X101830000Y-105145000D03*
D21*
X101830000Y-109325000D03*
D20*
X110470000Y-105145000D03*
D21*
X110470000Y-109325000D03*
D16*
X108000000Y-101990000D03*
X108000000Y-103010000D03*
D10*
X105800000Y-98035000D03*
X105800000Y-97065000D03*
D12*
X111300000Y-97980000D03*
X111300000Y-97020000D03*
D22*
X109090000Y-102950000D03*
X110110000Y-102950000D03*
D23*
X110360000Y-93900000D03*
X109340000Y-93900000D03*
D24*
X112212500Y-104099999D03*
X112212500Y-104600001D03*
X112212500Y-105100000D03*
X112212500Y-105599999D03*
X112212500Y-106100000D03*
X112212500Y-106600000D03*
X112212500Y-107100001D03*
X112212500Y-107600000D03*
X112212500Y-108099999D03*
X112212500Y-108600001D03*
D25*
X113049999Y-108636000D03*
X113550000Y-108636000D03*
X114050000Y-108636000D03*
X114550001Y-108636000D03*
D24*
X115387500Y-108600001D03*
X115387500Y-108099999D03*
X115387500Y-107600000D03*
X115387500Y-107100001D03*
X115387500Y-106600000D03*
X115387500Y-106100000D03*
X115387500Y-105599999D03*
X115387500Y-105100000D03*
X115387500Y-104600001D03*
X115387500Y-104099999D03*
D25*
X114550001Y-104064000D03*
X114050000Y-104064000D03*
X113550000Y-104064000D03*
X113049999Y-104064000D03*
D26*
X122967500Y-101500000D03*
X121997500Y-101500000D03*
D27*
X115630000Y-109800000D03*
X114670000Y-109800000D03*
D23*
X124892500Y-101500000D03*
X123872500Y-101500000D03*
D16*
X124800000Y-103840000D03*
X124800000Y-104860000D03*
D27*
X121097500Y-101500000D03*
X120137500Y-101500000D03*
D16*
X107000000Y-101990000D03*
X107000000Y-103010000D03*
D28*
X102900000Y-96300000D03*
D29*
X107304600Y-95299999D03*
X107304600Y-96250000D03*
X107304600Y-97200001D03*
X109895400Y-97200001D03*
X109895400Y-95299999D03*
D30*
X112700000Y-91150000D03*
X112700000Y-91950000D03*
X112700000Y-92750000D03*
X112700000Y-93550000D03*
X112700000Y-94350000D03*
X112700000Y-95150000D03*
X112700000Y-95950000D03*
X112700000Y-96750000D03*
X112700000Y-97550000D03*
X112700000Y-98350000D03*
X112700000Y-99150000D03*
D31*
X113800000Y-100050000D03*
X114600000Y-100050000D03*
X115400000Y-100050000D03*
X116200000Y-100050000D03*
X117000000Y-100050000D03*
X117800000Y-100050000D03*
X118600000Y-100050000D03*
X119400000Y-100050000D03*
X120200000Y-100050000D03*
X121000000Y-100050000D03*
X121800000Y-100050000D03*
X122600000Y-100050000D03*
X123400000Y-100050000D03*
D30*
X124500000Y-99150000D03*
X124500000Y-98350000D03*
X124500000Y-97550000D03*
X124500000Y-96750000D03*
X124500000Y-95950000D03*
X124500000Y-95150000D03*
X124500000Y-94350000D03*
X124500000Y-93550000D03*
X124500000Y-92750000D03*
X124500000Y-91950000D03*
X124500000Y-91150000D03*
D31*
X123400000Y-90250000D03*
X122600000Y-90250000D03*
X121800000Y-90250000D03*
X121000000Y-90250000D03*
X120200000Y-90250000D03*
X119400000Y-90250000D03*
X118600000Y-90250000D03*
X117800000Y-90250000D03*
X117000000Y-90250000D03*
X116200000Y-90250000D03*
X115400000Y-90250000D03*
X114600000Y-90250000D03*
X113800000Y-90250000D03*
D32*
X116625000Y-93175000D03*
D33*
X116625000Y-95150000D03*
X116625000Y-97125000D03*
X118600000Y-93175000D03*
X118600000Y-95150000D03*
X118600000Y-97125000D03*
X120575000Y-93175000D03*
X120575000Y-95150000D03*
X120575000Y-97125000D03*
D34*
X124550000Y-90200000D03*
X124550000Y-100100000D03*
X112650000Y-100100000D03*
X112650000Y-90200000D03*
D35*
X107475000Y-91225000D03*
X104475000Y-91225000D03*
D36*
X105225000Y-92975000D03*
D37*
X109625000Y-92190000D03*
X109625000Y-90260000D03*
X102325000Y-92190000D03*
X102325000Y-90260000D03*
D36*
X103725000Y-92975000D03*
X108225000Y-92975000D03*
D38*
X121900000Y-103650000D03*
D39*
X123600000Y-103650000D03*
X120200000Y-103650000D03*
D40*
X105619000Y-100375000D03*
X105619000Y-101625000D03*
D41*
X108415000Y-99000000D03*
X108415000Y-99950000D03*
X108415000Y-100900000D03*
X110785000Y-100900000D03*
X110785000Y-99000000D03*
D42*
X111300000Y-95165000D03*
X111300000Y-96135000D03*
D12*
X116425000Y-102880000D03*
X116425000Y-101920000D03*
M02*
