M48
; DRILL file {KiCad 8.0.2} date 2024-05-27T23:47:03-0700
; FORMAT={-:-/ absolute / metric / decimal}
; #@! TF.CreationDate,2024-05-27T23:47:03-07:00
; #@! TF.GenerationSoftware,Kicad,Pcbnew,8.0.2
; #@! TF.FileFunction,Plated,1,2,PTH
FMAT,2
METRIC
; #@! TA.AperFunction,Plated,PTH,ViaDrill
T1C0.300
; #@! TA.AperFunction,Plated,PTH,ViaDrill
T2C0.400
; #@! TA.AperFunction,Plated,PTH,ComponentDrill
T3C0.600
; #@! TA.AperFunction,Plated,PTH,ComponentDrill
T4C0.750
%
G90
G05
T1
X106.777Y-93.16
X106.8Y-94.5
X109.0Y-106.75
X109.0Y-107.45
X109.9Y-94.6
X110.402Y-101.866
X110.403Y-93.127
X111.6Y-108.1
X113.75Y-94.4
X113.767Y-98.417
X113.8Y-96.75
X113.85Y-109.8
X114.55Y-106.1
X114.55Y-107.85
X115.404Y-99.054
X116.2Y-99.114
X117.767Y-99.183
X118.17Y-102.38
X118.6Y-99.2
X120.795Y-105.605
X121.455Y-100.876
X122.6Y-99.177
X123.325Y-98.925
X124.825Y-103.052
T2
X103.75Y-103.4
X105.25Y-94.225
X107.9Y-105.8
X108.5Y-97.25
X108.65Y-96.25
X108.85Y-101.95
X109.718Y-96.149
X109.8Y-99.95
X110.2Y-98.1
X114.0Y-92.75
X114.672Y-105.1
X114.85Y-95.5
X115.4Y-92.25
X118.177Y-103.75
X122.3Y-105.677
X123.465Y-102.261
T3
X105.619Y-100.375
X105.619Y-101.625
T4
X117.795Y-106.8
X119.295Y-106.8
X120.795Y-106.8
X122.295Y-106.8
X123.795Y-106.8
T3
X101.83Y-104.595G85X101.83Y-105.695
G05
X101.83Y-108.925G85X101.83Y-109.725
G05
X110.47Y-104.595G85X110.47Y-105.695
G05
X110.47Y-108.925G85X110.47Y-109.725
G05
M30
