G04 #@! TF.GenerationSoftware,KiCad,Pcbnew,8.0.2*
G04 #@! TF.CreationDate,2024-05-27T23:46:40-07:00*
G04 #@! TF.ProjectId,uSlime,75536c69-6d65-42e6-9b69-6361645f7063,rev?*
G04 #@! TF.SameCoordinates,Original*
G04 #@! TF.FileFunction,Legend,Top*
G04 #@! TF.FilePolarity,Positive*
%FSLAX46Y46*%
G04 Gerber Fmt 4.6, Leading zero omitted, Abs format (unit mm)*
G04 Created by KiCad (PCBNEW 8.0.2) date 2024-05-27 23:46:40*
%MOMM*%
%LPD*%
G01*
G04 APERTURE LIST*
G04 Aperture macros list*
%AMRoundRect*
0 Rectangle with rounded corners*
0 $1 Rounding radius*
0 $2 $3 $4 $5 $6 $7 $8 $9 X,Y pos of 4 corners*
0 Add a 4 corners polygon primitive as box body*
4,1,4,$2,$3,$4,$5,$6,$7,$8,$9,$2,$3,0*
0 Add four circle primitives for the rounded corners*
1,1,$1+$1,$2,$3*
1,1,$1+$1,$4,$5*
1,1,$1+$1,$6,$7*
1,1,$1+$1,$8,$9*
0 Add four rect primitives between the rounded corners*
20,1,$1+$1,$2,$3,$4,$5,0*
20,1,$1+$1,$4,$5,$6,$7,0*
20,1,$1+$1,$6,$7,$8,$9,0*
20,1,$1+$1,$8,$9,$2,$3,0*%
%AMFreePoly0*
4,1,6,0.725000,-0.725000,-0.725000,-0.725000,-0.725000,0.125000,-0.125000,0.725000,0.725000,0.725000,0.725000,-0.725000,0.725000,-0.725000,$1*%
G04 Aperture macros list end*
%ADD10C,0.150000*%
%ADD11C,0.100000*%
%ADD12C,0.152000*%
%ADD13C,0.120000*%
%ADD14C,0.254000*%
%ADD15C,0.152400*%
%ADD16C,0.000000*%
%ADD17C,0.127000*%
%ADD18C,0.250000*%
%ADD19C,0.200000*%
%ADD20RoundRect,0.147500X0.172500X-0.147500X0.172500X0.147500X-0.172500X0.147500X-0.172500X-0.147500X0*%
%ADD21R,1.050000X1.700000*%
%ADD22RoundRect,0.140000X0.170000X-0.140000X0.170000X0.140000X-0.170000X0.140000X-0.170000X-0.140000X0*%
%ADD23C,1.200000*%
%ADD24RoundRect,0.135000X0.185000X-0.135000X0.185000X0.135000X-0.185000X0.135000X-0.185000X-0.135000X0*%
%ADD25RoundRect,0.140000X-0.170000X0.140000X-0.170000X-0.140000X0.170000X-0.140000X0.170000X0.140000X0*%
%ADD26RoundRect,0.135000X-0.185000X0.135000X-0.185000X-0.135000X0.185000X-0.135000X0.185000X0.135000X0*%
%ADD27C,0.650000*%
%ADD28RoundRect,0.150000X-0.150000X-0.425000X0.150000X-0.425000X0.150000X0.425000X-0.150000X0.425000X0*%
%ADD29RoundRect,0.075000X-0.075000X-0.500000X0.075000X-0.500000X0.075000X0.500000X-0.075000X0.500000X0*%
%ADD30O,1.000000X2.100000*%
%ADD31O,1.000000X1.800000*%
%ADD32RoundRect,0.135000X-0.135000X-0.185000X0.135000X-0.185000X0.135000X0.185000X-0.135000X0.185000X0*%
%ADD33RoundRect,0.135000X0.135000X0.185000X-0.135000X0.185000X-0.135000X-0.185000X0.135000X-0.185000X0*%
%ADD34R,0.431800X0.304800*%
%ADD35R,0.304800X0.431800*%
%ADD36RoundRect,0.147500X0.147500X0.172500X-0.147500X0.172500X-0.147500X-0.172500X0.147500X-0.172500X0*%
%ADD37RoundRect,0.140000X0.140000X0.170000X-0.140000X0.170000X-0.140000X-0.170000X0.140000X-0.170000X0*%
%ADD38C,3.100000*%
%ADD39R,1.320800X0.508000*%
%ADD40R,0.800000X0.400000*%
%ADD41R,0.400000X0.800000*%
%ADD42FreePoly0,0.000000*%
%ADD43R,1.450000X1.450000*%
%ADD44R,0.700000X0.700000*%
%ADD45C,0.900000*%
%ADD46R,0.700000X1.500000*%
%ADD47R,1.000000X0.800000*%
%ADD48C,0.800000*%
%ADD49R,0.900000X1.700000*%
%ADD50C,1.000000*%
%ADD51RoundRect,0.060300X-0.716700X0.341700X-0.716700X-0.341700X0.716700X-0.341700X0.716700X0.341700X0*%
%ADD52RoundRect,0.147500X-0.172500X0.147500X-0.172500X-0.147500X0.172500X-0.147500X0.172500X0.147500X0*%
G04 APERTURE END LIST*
D10*
X113536184Y-102282700D02*
X113536184Y-102616033D01*
X113302850Y-101916033D02*
X113536184Y-102282700D01*
X113536184Y-102282700D02*
X113769517Y-101916033D01*
X114369517Y-102616033D02*
X113969517Y-102616033D01*
X114169517Y-102616033D02*
X114169517Y-101916033D01*
X114169517Y-101916033D02*
X114102850Y-102016033D01*
X114102850Y-102016033D02*
X114036184Y-102082700D01*
X114036184Y-102082700D02*
X113969517Y-102116033D01*
X117783333Y-102149366D02*
X117750000Y-102182700D01*
X117750000Y-102182700D02*
X117650000Y-102216033D01*
X117650000Y-102216033D02*
X117583333Y-102216033D01*
X117583333Y-102216033D02*
X117483333Y-102182700D01*
X117483333Y-102182700D02*
X117416667Y-102116033D01*
X117416667Y-102116033D02*
X117383333Y-102049366D01*
X117383333Y-102049366D02*
X117350000Y-101916033D01*
X117350000Y-101916033D02*
X117350000Y-101816033D01*
X117350000Y-101816033D02*
X117383333Y-101682700D01*
X117383333Y-101682700D02*
X117416667Y-101616033D01*
X117416667Y-101616033D02*
X117483333Y-101549366D01*
X117483333Y-101549366D02*
X117583333Y-101516033D01*
X117583333Y-101516033D02*
X117650000Y-101516033D01*
X117650000Y-101516033D02*
X117750000Y-101549366D01*
X117750000Y-101549366D02*
X117783333Y-101582700D01*
X118450000Y-102216033D02*
X118050000Y-102216033D01*
X118250000Y-102216033D02*
X118250000Y-101516033D01*
X118250000Y-101516033D02*
X118183333Y-101616033D01*
X118183333Y-101616033D02*
X118116667Y-101682700D01*
X118116667Y-101682700D02*
X118050000Y-101716033D01*
X120108207Y-109409580D02*
X120060588Y-109457200D01*
X120060588Y-109457200D02*
X119917731Y-109504819D01*
X119917731Y-109504819D02*
X119822493Y-109504819D01*
X119822493Y-109504819D02*
X119679636Y-109457200D01*
X119679636Y-109457200D02*
X119584398Y-109361961D01*
X119584398Y-109361961D02*
X119536779Y-109266723D01*
X119536779Y-109266723D02*
X119489160Y-109076247D01*
X119489160Y-109076247D02*
X119489160Y-108933390D01*
X119489160Y-108933390D02*
X119536779Y-108742914D01*
X119536779Y-108742914D02*
X119584398Y-108647676D01*
X119584398Y-108647676D02*
X119679636Y-108552438D01*
X119679636Y-108552438D02*
X119822493Y-108504819D01*
X119822493Y-108504819D02*
X119917731Y-108504819D01*
X119917731Y-108504819D02*
X120060588Y-108552438D01*
X120060588Y-108552438D02*
X120108207Y-108600057D01*
X120536779Y-109504819D02*
X120536779Y-108504819D01*
X120536779Y-108504819D02*
X121108207Y-109504819D01*
X121108207Y-109504819D02*
X121108207Y-108504819D01*
X122108207Y-109504819D02*
X121536779Y-109504819D01*
X121822493Y-109504819D02*
X121822493Y-108504819D01*
X121822493Y-108504819D02*
X121727255Y-108647676D01*
X121727255Y-108647676D02*
X121632017Y-108742914D01*
X121632017Y-108742914D02*
X121536779Y-108790533D01*
X117733333Y-104116033D02*
X117500000Y-103782700D01*
X117333333Y-104116033D02*
X117333333Y-103416033D01*
X117333333Y-103416033D02*
X117600000Y-103416033D01*
X117600000Y-103416033D02*
X117666667Y-103449366D01*
X117666667Y-103449366D02*
X117700000Y-103482700D01*
X117700000Y-103482700D02*
X117733333Y-103549366D01*
X117733333Y-103549366D02*
X117733333Y-103649366D01*
X117733333Y-103649366D02*
X117700000Y-103716033D01*
X117700000Y-103716033D02*
X117666667Y-103749366D01*
X117666667Y-103749366D02*
X117600000Y-103782700D01*
X117600000Y-103782700D02*
X117333333Y-103782700D01*
X118000000Y-103482700D02*
X118033333Y-103449366D01*
X118033333Y-103449366D02*
X118100000Y-103416033D01*
X118100000Y-103416033D02*
X118266667Y-103416033D01*
X118266667Y-103416033D02*
X118333333Y-103449366D01*
X118333333Y-103449366D02*
X118366667Y-103482700D01*
X118366667Y-103482700D02*
X118400000Y-103549366D01*
X118400000Y-103549366D02*
X118400000Y-103616033D01*
X118400000Y-103616033D02*
X118366667Y-103716033D01*
X118366667Y-103716033D02*
X117966667Y-104116033D01*
X117966667Y-104116033D02*
X118400000Y-104116033D01*
X105816666Y-107414819D02*
X105816666Y-108129104D01*
X105816666Y-108129104D02*
X105769047Y-108271961D01*
X105769047Y-108271961D02*
X105673809Y-108367200D01*
X105673809Y-108367200D02*
X105530952Y-108414819D01*
X105530952Y-108414819D02*
X105435714Y-108414819D01*
X106816666Y-108414819D02*
X106245238Y-108414819D01*
X106530952Y-108414819D02*
X106530952Y-107414819D01*
X106530952Y-107414819D02*
X106435714Y-107557676D01*
X106435714Y-107557676D02*
X106340476Y-107652914D01*
X106340476Y-107652914D02*
X106245238Y-107700533D01*
X113038095Y-105804819D02*
X113038095Y-106614342D01*
X113038095Y-106614342D02*
X113085714Y-106709580D01*
X113085714Y-106709580D02*
X113133333Y-106757200D01*
X113133333Y-106757200D02*
X113228571Y-106804819D01*
X113228571Y-106804819D02*
X113419047Y-106804819D01*
X113419047Y-106804819D02*
X113514285Y-106757200D01*
X113514285Y-106757200D02*
X113561904Y-106709580D01*
X113561904Y-106709580D02*
X113609523Y-106614342D01*
X113609523Y-106614342D02*
X113609523Y-105804819D01*
X114561904Y-105804819D02*
X114085714Y-105804819D01*
X114085714Y-105804819D02*
X114038095Y-106281009D01*
X114038095Y-106281009D02*
X114085714Y-106233390D01*
X114085714Y-106233390D02*
X114180952Y-106185771D01*
X114180952Y-106185771D02*
X114419047Y-106185771D01*
X114419047Y-106185771D02*
X114514285Y-106233390D01*
X114514285Y-106233390D02*
X114561904Y-106281009D01*
X114561904Y-106281009D02*
X114609523Y-106376247D01*
X114609523Y-106376247D02*
X114609523Y-106614342D01*
X114609523Y-106614342D02*
X114561904Y-106709580D01*
X114561904Y-106709580D02*
X114514285Y-106757200D01*
X114514285Y-106757200D02*
X114419047Y-106804819D01*
X114419047Y-106804819D02*
X114180952Y-106804819D01*
X114180952Y-106804819D02*
X114085714Y-106757200D01*
X114085714Y-106757200D02*
X114038095Y-106709580D01*
X111361600Y-103304819D02*
X111361600Y-103542914D01*
X111123505Y-103447676D02*
X111361600Y-103542914D01*
X111361600Y-103542914D02*
X111599695Y-103447676D01*
X111218743Y-103733390D02*
X111361600Y-103542914D01*
X111361600Y-103542914D02*
X111504457Y-103733390D01*
X111361600Y-103304819D02*
X111361600Y-103542914D01*
X111123505Y-103447676D02*
X111361600Y-103542914D01*
X111361600Y-103542914D02*
X111599695Y-103447676D01*
X111218743Y-103733390D02*
X111361600Y-103542914D01*
X111361600Y-103542914D02*
X111504457Y-103733390D01*
X113333333Y-110049366D02*
X113300000Y-110082700D01*
X113300000Y-110082700D02*
X113200000Y-110116033D01*
X113200000Y-110116033D02*
X113133333Y-110116033D01*
X113133333Y-110116033D02*
X113033333Y-110082700D01*
X113033333Y-110082700D02*
X112966667Y-110016033D01*
X112966667Y-110016033D02*
X112933333Y-109949366D01*
X112933333Y-109949366D02*
X112900000Y-109816033D01*
X112900000Y-109816033D02*
X112900000Y-109716033D01*
X112900000Y-109716033D02*
X112933333Y-109582700D01*
X112933333Y-109582700D02*
X112966667Y-109516033D01*
X112966667Y-109516033D02*
X113033333Y-109449366D01*
X113033333Y-109449366D02*
X113133333Y-109416033D01*
X113133333Y-109416033D02*
X113200000Y-109416033D01*
X113200000Y-109416033D02*
X113300000Y-109449366D01*
X113300000Y-109449366D02*
X113333333Y-109482700D01*
X113933333Y-109416033D02*
X113800000Y-109416033D01*
X113800000Y-109416033D02*
X113733333Y-109449366D01*
X113733333Y-109449366D02*
X113700000Y-109482700D01*
X113700000Y-109482700D02*
X113633333Y-109582700D01*
X113633333Y-109582700D02*
X113600000Y-109716033D01*
X113600000Y-109716033D02*
X113600000Y-109982700D01*
X113600000Y-109982700D02*
X113633333Y-110049366D01*
X113633333Y-110049366D02*
X113666667Y-110082700D01*
X113666667Y-110082700D02*
X113733333Y-110116033D01*
X113733333Y-110116033D02*
X113866667Y-110116033D01*
X113866667Y-110116033D02*
X113933333Y-110082700D01*
X113933333Y-110082700D02*
X113966667Y-110049366D01*
X113966667Y-110049366D02*
X114000000Y-109982700D01*
X114000000Y-109982700D02*
X114000000Y-109816033D01*
X114000000Y-109816033D02*
X113966667Y-109749366D01*
X113966667Y-109749366D02*
X113933333Y-109716033D01*
X113933333Y-109716033D02*
X113866667Y-109682700D01*
X113866667Y-109682700D02*
X113733333Y-109682700D01*
X113733333Y-109682700D02*
X113666667Y-109716033D01*
X113666667Y-109716033D02*
X113633333Y-109749366D01*
X113633333Y-109749366D02*
X113600000Y-109816033D01*
X125166033Y-102766666D02*
X124832700Y-102999999D01*
X125166033Y-103166666D02*
X124466033Y-103166666D01*
X124466033Y-103166666D02*
X124466033Y-102899999D01*
X124466033Y-102899999D02*
X124499366Y-102833333D01*
X124499366Y-102833333D02*
X124532700Y-102799999D01*
X124532700Y-102799999D02*
X124599366Y-102766666D01*
X124599366Y-102766666D02*
X124699366Y-102766666D01*
X124699366Y-102766666D02*
X124766033Y-102799999D01*
X124766033Y-102799999D02*
X124799366Y-102833333D01*
X124799366Y-102833333D02*
X124832700Y-102899999D01*
X124832700Y-102899999D02*
X124832700Y-103166666D01*
X125166033Y-102099999D02*
X125166033Y-102499999D01*
X125166033Y-102299999D02*
X124466033Y-102299999D01*
X124466033Y-102299999D02*
X124566033Y-102366666D01*
X124566033Y-102366666D02*
X124632700Y-102433333D01*
X124632700Y-102433333D02*
X124666033Y-102499999D01*
X107838095Y-95704819D02*
X107838095Y-96514342D01*
X107838095Y-96514342D02*
X107885714Y-96609580D01*
X107885714Y-96609580D02*
X107933333Y-96657200D01*
X107933333Y-96657200D02*
X108028571Y-96704819D01*
X108028571Y-96704819D02*
X108219047Y-96704819D01*
X108219047Y-96704819D02*
X108314285Y-96657200D01*
X108314285Y-96657200D02*
X108361904Y-96609580D01*
X108361904Y-96609580D02*
X108409523Y-96514342D01*
X108409523Y-96514342D02*
X108409523Y-95704819D01*
X109314285Y-96038152D02*
X109314285Y-96704819D01*
X109076190Y-95657200D02*
X108838095Y-96371485D01*
X108838095Y-96371485D02*
X109457142Y-96371485D01*
X107050600Y-93103819D02*
X107050600Y-93341914D01*
X106812505Y-93246676D02*
X107050600Y-93341914D01*
X107050600Y-93341914D02*
X107288695Y-93246676D01*
X106907743Y-93532390D02*
X107050600Y-93341914D01*
X107050600Y-93341914D02*
X107193457Y-93532390D01*
X107050600Y-93103819D02*
X107050600Y-93341914D01*
X106812505Y-93246676D02*
X107050600Y-93341914D01*
X107050600Y-93341914D02*
X107288695Y-93246676D01*
X106907743Y-93532390D02*
X107050600Y-93341914D01*
X107050600Y-93341914D02*
X107193457Y-93532390D01*
X117838095Y-82404819D02*
X117838095Y-83214342D01*
X117838095Y-83214342D02*
X117885714Y-83309580D01*
X117885714Y-83309580D02*
X117933333Y-83357200D01*
X117933333Y-83357200D02*
X118028571Y-83404819D01*
X118028571Y-83404819D02*
X118219047Y-83404819D01*
X118219047Y-83404819D02*
X118314285Y-83357200D01*
X118314285Y-83357200D02*
X118361904Y-83309580D01*
X118361904Y-83309580D02*
X118409523Y-83214342D01*
X118409523Y-83214342D02*
X118409523Y-82404819D01*
X119409523Y-83404819D02*
X118838095Y-83404819D01*
X119123809Y-83404819D02*
X119123809Y-82404819D01*
X119123809Y-82404819D02*
X119028571Y-82547676D01*
X119028571Y-82547676D02*
X118933333Y-82642914D01*
X118933333Y-82642914D02*
X118838095Y-82690533D01*
X113838094Y-86769104D02*
X114314284Y-86769104D01*
X113742856Y-87054819D02*
X114076189Y-86054819D01*
X114076189Y-86054819D02*
X114409522Y-87054819D01*
X114742856Y-86388152D02*
X114742856Y-87054819D01*
X114742856Y-86483390D02*
X114790475Y-86435771D01*
X114790475Y-86435771D02*
X114885713Y-86388152D01*
X114885713Y-86388152D02*
X115028570Y-86388152D01*
X115028570Y-86388152D02*
X115123808Y-86435771D01*
X115123808Y-86435771D02*
X115171427Y-86531009D01*
X115171427Y-86531009D02*
X115171427Y-87054819D01*
X115504761Y-86388152D02*
X115885713Y-86388152D01*
X115647618Y-86054819D02*
X115647618Y-86911961D01*
X115647618Y-86911961D02*
X115695237Y-87007200D01*
X115695237Y-87007200D02*
X115790475Y-87054819D01*
X115790475Y-87054819D02*
X115885713Y-87054819D01*
X116599999Y-87007200D02*
X116504761Y-87054819D01*
X116504761Y-87054819D02*
X116314285Y-87054819D01*
X116314285Y-87054819D02*
X116219047Y-87007200D01*
X116219047Y-87007200D02*
X116171428Y-86911961D01*
X116171428Y-86911961D02*
X116171428Y-86531009D01*
X116171428Y-86531009D02*
X116219047Y-86435771D01*
X116219047Y-86435771D02*
X116314285Y-86388152D01*
X116314285Y-86388152D02*
X116504761Y-86388152D01*
X116504761Y-86388152D02*
X116599999Y-86435771D01*
X116599999Y-86435771D02*
X116647618Y-86531009D01*
X116647618Y-86531009D02*
X116647618Y-86626247D01*
X116647618Y-86626247D02*
X116171428Y-86721485D01*
X117076190Y-86388152D02*
X117076190Y-87054819D01*
X117076190Y-86483390D02*
X117123809Y-86435771D01*
X117123809Y-86435771D02*
X117219047Y-86388152D01*
X117219047Y-86388152D02*
X117361904Y-86388152D01*
X117361904Y-86388152D02*
X117457142Y-86435771D01*
X117457142Y-86435771D02*
X117504761Y-86531009D01*
X117504761Y-86531009D02*
X117504761Y-87054819D01*
X117980952Y-86388152D02*
X117980952Y-87054819D01*
X117980952Y-86483390D02*
X118028571Y-86435771D01*
X118028571Y-86435771D02*
X118123809Y-86388152D01*
X118123809Y-86388152D02*
X118266666Y-86388152D01*
X118266666Y-86388152D02*
X118361904Y-86435771D01*
X118361904Y-86435771D02*
X118409523Y-86531009D01*
X118409523Y-86531009D02*
X118409523Y-87054819D01*
X119314285Y-87054819D02*
X119314285Y-86531009D01*
X119314285Y-86531009D02*
X119266666Y-86435771D01*
X119266666Y-86435771D02*
X119171428Y-86388152D01*
X119171428Y-86388152D02*
X118980952Y-86388152D01*
X118980952Y-86388152D02*
X118885714Y-86435771D01*
X119314285Y-87007200D02*
X119219047Y-87054819D01*
X119219047Y-87054819D02*
X118980952Y-87054819D01*
X118980952Y-87054819D02*
X118885714Y-87007200D01*
X118885714Y-87007200D02*
X118838095Y-86911961D01*
X118838095Y-86911961D02*
X118838095Y-86816723D01*
X118838095Y-86816723D02*
X118885714Y-86721485D01*
X118885714Y-86721485D02*
X118980952Y-86673866D01*
X118980952Y-86673866D02*
X119219047Y-86673866D01*
X119219047Y-86673866D02*
X119314285Y-86626247D01*
X120504762Y-86769104D02*
X120980952Y-86769104D01*
X120409524Y-87054819D02*
X120742857Y-86054819D01*
X120742857Y-86054819D02*
X121076190Y-87054819D01*
X121409524Y-87054819D02*
X121409524Y-86388152D01*
X121409524Y-86578628D02*
X121457143Y-86483390D01*
X121457143Y-86483390D02*
X121504762Y-86435771D01*
X121504762Y-86435771D02*
X121600000Y-86388152D01*
X121600000Y-86388152D02*
X121695238Y-86388152D01*
X122409524Y-87007200D02*
X122314286Y-87054819D01*
X122314286Y-87054819D02*
X122123810Y-87054819D01*
X122123810Y-87054819D02*
X122028572Y-87007200D01*
X122028572Y-87007200D02*
X121980953Y-86911961D01*
X121980953Y-86911961D02*
X121980953Y-86531009D01*
X121980953Y-86531009D02*
X122028572Y-86435771D01*
X122028572Y-86435771D02*
X122123810Y-86388152D01*
X122123810Y-86388152D02*
X122314286Y-86388152D01*
X122314286Y-86388152D02*
X122409524Y-86435771D01*
X122409524Y-86435771D02*
X122457143Y-86531009D01*
X122457143Y-86531009D02*
X122457143Y-86626247D01*
X122457143Y-86626247D02*
X121980953Y-86721485D01*
X123314286Y-87054819D02*
X123314286Y-86531009D01*
X123314286Y-86531009D02*
X123266667Y-86435771D01*
X123266667Y-86435771D02*
X123171429Y-86388152D01*
X123171429Y-86388152D02*
X122980953Y-86388152D01*
X122980953Y-86388152D02*
X122885715Y-86435771D01*
X123314286Y-87007200D02*
X123219048Y-87054819D01*
X123219048Y-87054819D02*
X122980953Y-87054819D01*
X122980953Y-87054819D02*
X122885715Y-87007200D01*
X122885715Y-87007200D02*
X122838096Y-86911961D01*
X122838096Y-86911961D02*
X122838096Y-86816723D01*
X122838096Y-86816723D02*
X122885715Y-86721485D01*
X122885715Y-86721485D02*
X122980953Y-86673866D01*
X122980953Y-86673866D02*
X123219048Y-86673866D01*
X123219048Y-86673866D02*
X123314286Y-86626247D01*
X103809580Y-101789160D02*
X103857200Y-101836779D01*
X103857200Y-101836779D02*
X103904819Y-101979636D01*
X103904819Y-101979636D02*
X103904819Y-102074874D01*
X103904819Y-102074874D02*
X103857200Y-102217731D01*
X103857200Y-102217731D02*
X103761961Y-102312969D01*
X103761961Y-102312969D02*
X103666723Y-102360588D01*
X103666723Y-102360588D02*
X103476247Y-102408207D01*
X103476247Y-102408207D02*
X103333390Y-102408207D01*
X103333390Y-102408207D02*
X103142914Y-102360588D01*
X103142914Y-102360588D02*
X103047676Y-102312969D01*
X103047676Y-102312969D02*
X102952438Y-102217731D01*
X102952438Y-102217731D02*
X102904819Y-102074874D01*
X102904819Y-102074874D02*
X102904819Y-101979636D01*
X102904819Y-101979636D02*
X102952438Y-101836779D01*
X102952438Y-101836779D02*
X103000057Y-101789160D01*
X103904819Y-101360588D02*
X102904819Y-101360588D01*
X102904819Y-101360588D02*
X103904819Y-100789160D01*
X103904819Y-100789160D02*
X102904819Y-100789160D01*
X103000057Y-100360588D02*
X102952438Y-100312969D01*
X102952438Y-100312969D02*
X102904819Y-100217731D01*
X102904819Y-100217731D02*
X102904819Y-99979636D01*
X102904819Y-99979636D02*
X102952438Y-99884398D01*
X102952438Y-99884398D02*
X103000057Y-99836779D01*
X103000057Y-99836779D02*
X103095295Y-99789160D01*
X103095295Y-99789160D02*
X103190533Y-99789160D01*
X103190533Y-99789160D02*
X103333390Y-99836779D01*
X103333390Y-99836779D02*
X103904819Y-100408207D01*
X103904819Y-100408207D02*
X103904819Y-99789160D01*
X109316666Y-99566033D02*
X109316666Y-100132700D01*
X109316666Y-100132700D02*
X109350000Y-100199366D01*
X109350000Y-100199366D02*
X109383333Y-100232700D01*
X109383333Y-100232700D02*
X109450000Y-100266033D01*
X109450000Y-100266033D02*
X109583333Y-100266033D01*
X109583333Y-100266033D02*
X109650000Y-100232700D01*
X109650000Y-100232700D02*
X109683333Y-100199366D01*
X109683333Y-100199366D02*
X109716666Y-100132700D01*
X109716666Y-100132700D02*
X109716666Y-99566033D01*
X109983333Y-99566033D02*
X110416666Y-99566033D01*
X110416666Y-99566033D02*
X110183333Y-99832700D01*
X110183333Y-99832700D02*
X110283333Y-99832700D01*
X110283333Y-99832700D02*
X110349999Y-99866033D01*
X110349999Y-99866033D02*
X110383333Y-99899366D01*
X110383333Y-99899366D02*
X110416666Y-99966033D01*
X110416666Y-99966033D02*
X110416666Y-100132700D01*
X110416666Y-100132700D02*
X110383333Y-100199366D01*
X110383333Y-100199366D02*
X110349999Y-100232700D01*
X110349999Y-100232700D02*
X110283333Y-100266033D01*
X110283333Y-100266033D02*
X110083333Y-100266033D01*
X110083333Y-100266033D02*
X110016666Y-100232700D01*
X110016666Y-100232700D02*
X109983333Y-100199366D01*
X116383333Y-104099366D02*
X116350000Y-104132700D01*
X116350000Y-104132700D02*
X116250000Y-104166033D01*
X116250000Y-104166033D02*
X116183333Y-104166033D01*
X116183333Y-104166033D02*
X116083333Y-104132700D01*
X116083333Y-104132700D02*
X116016667Y-104066033D01*
X116016667Y-104066033D02*
X115983333Y-103999366D01*
X115983333Y-103999366D02*
X115950000Y-103866033D01*
X115950000Y-103866033D02*
X115950000Y-103766033D01*
X115950000Y-103766033D02*
X115983333Y-103632700D01*
X115983333Y-103632700D02*
X116016667Y-103566033D01*
X116016667Y-103566033D02*
X116083333Y-103499366D01*
X116083333Y-103499366D02*
X116183333Y-103466033D01*
X116183333Y-103466033D02*
X116250000Y-103466033D01*
X116250000Y-103466033D02*
X116350000Y-103499366D01*
X116350000Y-103499366D02*
X116383333Y-103532700D01*
X116616667Y-103466033D02*
X117083333Y-103466033D01*
X117083333Y-103466033D02*
X116783333Y-104166033D01*
D11*
X106900000Y-99840000D02*
G75*
G02*
X106800000Y-99840000I-50000J0D01*
G01*
X106800000Y-99840000D02*
G75*
G02*
X106900000Y-99840000I50000J0D01*
G01*
D12*
X111771000Y-101221000D02*
X115829000Y-101221000D01*
X111771000Y-103379000D02*
X111771000Y-101221000D01*
X115829000Y-101221000D02*
X115829000Y-103379000D01*
X115829000Y-103379000D02*
X111771000Y-103379000D01*
D13*
X118640000Y-102007836D02*
X118640000Y-101792164D01*
X119360000Y-102007836D02*
X119360000Y-101792164D01*
D14*
X116295000Y-105500000D02*
X116845000Y-105500000D01*
X116295000Y-106259000D02*
X117165000Y-106259000D01*
X116295000Y-111800000D02*
X116295000Y-105500000D01*
X116295000Y-111800000D02*
X125295000Y-111800000D01*
X116845000Y-105500000D02*
X116845000Y-106259000D01*
X118425000Y-106259000D02*
X118665000Y-106259000D01*
X119925000Y-106259000D02*
X120165000Y-106259000D01*
X121425000Y-106259000D02*
X121665000Y-106259000D01*
X122925000Y-106259000D02*
X123165000Y-106259000D01*
X124435000Y-106260000D02*
X125304000Y-106260000D01*
X124755000Y-105500000D02*
X124755000Y-106259000D01*
X125295000Y-105500000D02*
X125295000Y-111800000D01*
X125305000Y-105500000D02*
X124755000Y-105500000D01*
D13*
X118295000Y-108800000D02*
X117295000Y-108800000D01*
X117795000Y-107800000D01*
X118295000Y-108800000D01*
G36*
X118295000Y-108800000D02*
G01*
X117295000Y-108800000D01*
X117795000Y-107800000D01*
X118295000Y-108800000D01*
G37*
X110920000Y-93903641D02*
X110920000Y-93596359D01*
X111680000Y-93903641D02*
X111680000Y-93596359D01*
X105440000Y-95592164D02*
X105440000Y-95807836D01*
X106160000Y-95592164D02*
X106160000Y-95807836D01*
X110790000Y-91957836D02*
X110790000Y-91742164D01*
X111510000Y-91957836D02*
X111510000Y-91742164D01*
X110802500Y-102487836D02*
X110802500Y-102272164D01*
X111522500Y-102487836D02*
X111522500Y-102272164D01*
X118620000Y-103646359D02*
X118620000Y-103953641D01*
X119380000Y-103646359D02*
X119380000Y-103953641D01*
X106490000Y-100492164D02*
X106490000Y-100707836D01*
X107210000Y-100492164D02*
X107210000Y-100707836D01*
X101480000Y-108150000D02*
X101480000Y-106450000D01*
X110820000Y-108150000D02*
X110820000Y-106450000D01*
X107620000Y-102346359D02*
X107620000Y-102653641D01*
X108380000Y-102346359D02*
X108380000Y-102653641D01*
D11*
X105850000Y-98640000D02*
G75*
G02*
X105750000Y-98640000I-50000J0D01*
G01*
X105750000Y-98640000D02*
G75*
G02*
X105850000Y-98640000I50000J0D01*
G01*
D13*
X110940000Y-97607836D02*
X110940000Y-97392164D01*
X111660000Y-97607836D02*
X111660000Y-97392164D01*
X109446359Y-102570000D02*
X109753641Y-102570000D01*
X109446359Y-103330000D02*
X109753641Y-103330000D01*
X110003641Y-93520000D02*
X109696359Y-93520000D01*
X110003641Y-94280000D02*
X109696359Y-94280000D01*
D15*
X111768000Y-109080500D02*
X111941222Y-109080500D01*
X111941222Y-103619500D02*
X111768000Y-103619500D01*
X112483778Y-109080500D02*
X112655818Y-109080500D01*
X112655818Y-103619500D02*
X112483778Y-103619500D01*
X114944182Y-109080500D02*
X115116222Y-109080500D01*
X115116222Y-103619500D02*
X114944182Y-103619500D01*
X115658778Y-109080500D02*
X115832000Y-109080500D01*
X115832000Y-103619500D02*
X115658778Y-103619500D01*
D16*
G36*
X111742600Y-108790501D02*
G01*
X111488600Y-108790501D01*
X111488600Y-108409501D01*
X111742600Y-108409501D01*
X111742600Y-108790501D01*
G37*
G36*
X116111400Y-106290501D02*
G01*
X115857400Y-106290501D01*
X115857400Y-105909500D01*
X116111400Y-105909500D01*
X116111400Y-106290501D01*
G37*
D11*
X123622500Y-101500000D02*
G75*
G02*
X123522500Y-101500000I-50000J0D01*
G01*
X123522500Y-101500000D02*
G75*
G02*
X123622500Y-101500000I50000J0D01*
G01*
D13*
X115257836Y-109440000D02*
X115042164Y-109440000D01*
X115257836Y-110160000D02*
X115042164Y-110160000D01*
X124536141Y-101120000D02*
X124228859Y-101120000D01*
X124536141Y-101880000D02*
X124228859Y-101880000D01*
X124420000Y-104196359D02*
X124420000Y-104503641D01*
X125180000Y-104196359D02*
X125180000Y-104503641D01*
X120725336Y-101140000D02*
X120509664Y-101140000D01*
X120725336Y-101860000D02*
X120509664Y-101860000D01*
X106620000Y-102346359D02*
X106620000Y-102653641D01*
X107380000Y-102346359D02*
X107380000Y-102653641D01*
D15*
X107571300Y-97926400D02*
X109628700Y-97926400D01*
X109628700Y-94573600D02*
X107571300Y-94573600D01*
X109628700Y-96613261D02*
X109628700Y-95886739D01*
D13*
X111800000Y-100150000D02*
X111800000Y-100950000D01*
X111800000Y-100950000D02*
X112600000Y-100950000D01*
X112000000Y-84150000D02*
X125200000Y-84150000D01*
X112000000Y-89550000D02*
X125200000Y-89550000D01*
X112000000Y-100750000D02*
X112000000Y-84150000D01*
X112675000Y-83950000D02*
X111825000Y-83950000D01*
X124650000Y-83950000D02*
X125400000Y-83950000D01*
X125200000Y-84150000D02*
X125200000Y-100750000D01*
X125200000Y-100750000D02*
X112000000Y-100750000D01*
X125400000Y-83950000D02*
X125400000Y-84550000D01*
X125400000Y-100150000D02*
X125400000Y-100950000D01*
X125400000Y-100950000D02*
X124600000Y-100950000D01*
D17*
X102625000Y-91525000D02*
X102625000Y-90925000D01*
X107575000Y-92525000D02*
X105875000Y-92525000D01*
X108875000Y-89925000D02*
X103075000Y-89925000D01*
X109325000Y-90925000D02*
X109325000Y-91525000D01*
D18*
X109275000Y-93725000D02*
G75*
G02*
X109075000Y-93725000I-100000J0D01*
G01*
X109075000Y-93725000D02*
G75*
G02*
X109275000Y-93725000I100000J0D01*
G01*
D13*
X120250000Y-102250000D02*
X120250000Y-102550000D01*
X120250000Y-105050000D02*
X120250000Y-104750000D01*
X123550000Y-102250000D02*
X120250000Y-102250000D01*
X123550000Y-102550000D02*
X123550000Y-102250000D01*
X123550000Y-104750000D02*
X123550000Y-105050000D01*
X123550000Y-105050000D02*
X120250000Y-105050000D01*
D14*
X101100000Y-98750000D02*
X101100000Y-103250000D01*
X101100000Y-103250000D02*
X106000000Y-103250000D01*
X106000000Y-98750000D02*
X101100000Y-98750000D01*
X106000000Y-98750000D02*
X106000000Y-99751000D01*
X106000000Y-100999000D02*
X106000000Y-101001000D01*
X106000000Y-102249000D02*
X106000000Y-103250000D01*
D17*
X108750000Y-98400000D02*
X108750000Y-98500000D01*
X108750000Y-101500000D02*
X108750000Y-101400000D01*
X110450000Y-98400000D02*
X108750000Y-98400000D01*
X110450000Y-98400000D02*
X110450000Y-98500000D01*
X110450000Y-101500000D02*
X108750000Y-101500000D01*
X110450000Y-101500000D02*
X110450000Y-101400000D01*
D19*
X107231000Y-99000000D02*
G75*
G02*
X107031000Y-99000000I-100000J0D01*
G01*
X107031000Y-99000000D02*
G75*
G02*
X107231000Y-99000000I100000J0D01*
G01*
D11*
X111350000Y-94560000D02*
G75*
G02*
X111250000Y-94560000I-50000J0D01*
G01*
X111250000Y-94560000D02*
G75*
G02*
X111350000Y-94560000I50000J0D01*
G01*
D13*
X116065000Y-102507836D02*
X116065000Y-102292164D01*
X116785000Y-102507836D02*
X116785000Y-102292164D01*
%LPC*%
D20*
X106850000Y-99235000D03*
X106850000Y-98265000D03*
D21*
X112525000Y-102300000D03*
X115075000Y-102300000D03*
D22*
X119000000Y-102380000D03*
X119000000Y-101420000D03*
D23*
X117795000Y-106800000D03*
X119295000Y-106800000D03*
X120795000Y-106800000D03*
X122295000Y-106800000D03*
X123795000Y-106800000D03*
D24*
X111300000Y-94260000D03*
X111300000Y-93240000D03*
D25*
X105800000Y-95220000D03*
X105800000Y-96180000D03*
D22*
X111150000Y-92330000D03*
X111150000Y-91370000D03*
X111162500Y-102860000D03*
X111162500Y-101900000D03*
D26*
X119000000Y-103290000D03*
X119000000Y-104310000D03*
D25*
X106850000Y-100120000D03*
X106850000Y-101080000D03*
D27*
X103260000Y-105645000D03*
X109040000Y-105645000D03*
D28*
X102950000Y-104570000D03*
X103750000Y-104570000D03*
D29*
X104900000Y-104570000D03*
X105900000Y-104570000D03*
X106400000Y-104570000D03*
X107400000Y-104570000D03*
D28*
X108550000Y-104570000D03*
X109350000Y-104570000D03*
X109350000Y-104570000D03*
X108550000Y-104570000D03*
D29*
X107900000Y-104570000D03*
X106900000Y-104570000D03*
X105400000Y-104570000D03*
X104400000Y-104570000D03*
D28*
X103750000Y-104570000D03*
X102950000Y-104570000D03*
D30*
X101830000Y-105145000D03*
D31*
X101830000Y-109325000D03*
D30*
X110470000Y-105145000D03*
D31*
X110470000Y-109325000D03*
D26*
X108000000Y-101990000D03*
X108000000Y-103010000D03*
D20*
X105800000Y-98035000D03*
X105800000Y-97065000D03*
D22*
X111300000Y-97980000D03*
X111300000Y-97020000D03*
D32*
X109090000Y-102950000D03*
X110110000Y-102950000D03*
D33*
X110360000Y-93900000D03*
X109340000Y-93900000D03*
D34*
X112212500Y-104099999D03*
X112212500Y-104600001D03*
X112212500Y-105100000D03*
X112212500Y-105599999D03*
X112212500Y-106100000D03*
X112212500Y-106600000D03*
X112212500Y-107100001D03*
X112212500Y-107600000D03*
X112212500Y-108099999D03*
X112212500Y-108600001D03*
D35*
X113049999Y-108636000D03*
X113550000Y-108636000D03*
X114050000Y-108636000D03*
X114550001Y-108636000D03*
D34*
X115387500Y-108600001D03*
X115387500Y-108099999D03*
X115387500Y-107600000D03*
X115387500Y-107100001D03*
X115387500Y-106600000D03*
X115387500Y-106100000D03*
X115387500Y-105599999D03*
X115387500Y-105100000D03*
X115387500Y-104600001D03*
X115387500Y-104099999D03*
D35*
X114550001Y-104064000D03*
X114050000Y-104064000D03*
X113550000Y-104064000D03*
X113049999Y-104064000D03*
D36*
X122967500Y-101500000D03*
X121997500Y-101500000D03*
D37*
X115630000Y-109800000D03*
X114670000Y-109800000D03*
D33*
X124892500Y-101500000D03*
X123872500Y-101500000D03*
D26*
X124800000Y-103840000D03*
X124800000Y-104860000D03*
D37*
X121097500Y-101500000D03*
X120137500Y-101500000D03*
D26*
X107000000Y-101990000D03*
X107000000Y-103010000D03*
D38*
X102900000Y-96300000D03*
D39*
X107304600Y-95299999D03*
X107304600Y-96250000D03*
X107304600Y-97200001D03*
X109895400Y-97200001D03*
X109895400Y-95299999D03*
D40*
X112700000Y-91150000D03*
X112700000Y-91950000D03*
X112700000Y-92750000D03*
X112700000Y-93550000D03*
X112700000Y-94350000D03*
X112700000Y-95150000D03*
X112700000Y-95950000D03*
X112700000Y-96750000D03*
X112700000Y-97550000D03*
X112700000Y-98350000D03*
X112700000Y-99150000D03*
D41*
X113800000Y-100050000D03*
X114600000Y-100050000D03*
X115400000Y-100050000D03*
X116200000Y-100050000D03*
X117000000Y-100050000D03*
X117800000Y-100050000D03*
X118600000Y-100050000D03*
X119400000Y-100050000D03*
X120200000Y-100050000D03*
X121000000Y-100050000D03*
X121800000Y-100050000D03*
X122600000Y-100050000D03*
X123400000Y-100050000D03*
D40*
X124500000Y-99150000D03*
X124500000Y-98350000D03*
X124500000Y-97550000D03*
X124500000Y-96750000D03*
X124500000Y-95950000D03*
X124500000Y-95150000D03*
X124500000Y-94350000D03*
X124500000Y-93550000D03*
X124500000Y-92750000D03*
X124500000Y-91950000D03*
X124500000Y-91150000D03*
D41*
X123400000Y-90250000D03*
X122600000Y-90250000D03*
X121800000Y-90250000D03*
X121000000Y-90250000D03*
X120200000Y-90250000D03*
X119400000Y-90250000D03*
X118600000Y-90250000D03*
X117800000Y-90250000D03*
X117000000Y-90250000D03*
X116200000Y-90250000D03*
X115400000Y-90250000D03*
X114600000Y-90250000D03*
X113800000Y-90250000D03*
D42*
X116625000Y-93175000D03*
D43*
X116625000Y-95150000D03*
X116625000Y-97125000D03*
X118600000Y-93175000D03*
X118600000Y-95150000D03*
X118600000Y-97125000D03*
X120575000Y-93175000D03*
X120575000Y-95150000D03*
X120575000Y-97125000D03*
D44*
X124550000Y-90200000D03*
X124550000Y-100100000D03*
X112650000Y-100100000D03*
X112650000Y-90200000D03*
D45*
X107475000Y-91225000D03*
X104475000Y-91225000D03*
D46*
X105225000Y-92975000D03*
D47*
X109625000Y-92190000D03*
X109625000Y-90260000D03*
X102325000Y-92190000D03*
X102325000Y-90260000D03*
D46*
X103725000Y-92975000D03*
X108225000Y-92975000D03*
D48*
X121900000Y-103650000D03*
D49*
X123600000Y-103650000D03*
X120200000Y-103650000D03*
D50*
X105619000Y-100375000D03*
X105619000Y-101625000D03*
D51*
X108415000Y-99000000D03*
X108415000Y-99950000D03*
X108415000Y-100900000D03*
X110785000Y-100900000D03*
X110785000Y-99000000D03*
D52*
X111300000Y-95165000D03*
X111300000Y-96135000D03*
D22*
X116425000Y-102880000D03*
X116425000Y-101920000D03*
%LPD*%
M02*
