G04 #@! TF.GenerationSoftware,KiCad,Pcbnew,8.0.2*
G04 #@! TF.CreationDate,2024-05-27T23:46:40-07:00*
G04 #@! TF.ProjectId,uSlime,75536c69-6d65-42e6-9b69-6361645f7063,rev?*
G04 #@! TF.SameCoordinates,Original*
G04 #@! TF.FileFunction,Copper,L1,Top*
G04 #@! TF.FilePolarity,Positive*
%FSLAX46Y46*%
G04 Gerber Fmt 4.6, Leading zero omitted, Abs format (unit mm)*
G04 Created by KiCad (PCBNEW 8.0.2) date 2024-05-27 23:46:40*
%MOMM*%
%LPD*%
G01*
G04 APERTURE LIST*
G04 Aperture macros list*
%AMRoundRect*
0 Rectangle with rounded corners*
0 $1 Rounding radius*
0 $2 $3 $4 $5 $6 $7 $8 $9 X,Y pos of 4 corners*
0 Add a 4 corners polygon primitive as box body*
4,1,4,$2,$3,$4,$5,$6,$7,$8,$9,$2,$3,0*
0 Add four circle primitives for the rounded corners*
1,1,$1+$1,$2,$3*
1,1,$1+$1,$4,$5*
1,1,$1+$1,$6,$7*
1,1,$1+$1,$8,$9*
0 Add four rect primitives between the rounded corners*
20,1,$1+$1,$2,$3,$4,$5,0*
20,1,$1+$1,$4,$5,$6,$7,0*
20,1,$1+$1,$6,$7,$8,$9,0*
20,1,$1+$1,$8,$9,$2,$3,0*%
%AMFreePoly0*
4,1,6,0.725000,-0.725000,-0.725000,-0.725000,-0.725000,0.125000,-0.125000,0.725000,0.725000,0.725000,0.725000,-0.725000,0.725000,-0.725000,$1*%
G04 Aperture macros list end*
G04 #@! TA.AperFunction,SMDPad,CuDef*
%ADD10RoundRect,0.147500X0.172500X-0.147500X0.172500X0.147500X-0.172500X0.147500X-0.172500X-0.147500X0*%
G04 #@! TD*
G04 #@! TA.AperFunction,SMDPad,CuDef*
%ADD11R,1.050000X1.700000*%
G04 #@! TD*
G04 #@! TA.AperFunction,SMDPad,CuDef*
%ADD12RoundRect,0.140000X0.170000X-0.140000X0.170000X0.140000X-0.170000X0.140000X-0.170000X-0.140000X0*%
G04 #@! TD*
G04 #@! TA.AperFunction,ComponentPad*
%ADD13C,1.200000*%
G04 #@! TD*
G04 #@! TA.AperFunction,SMDPad,CuDef*
%ADD14RoundRect,0.135000X0.185000X-0.135000X0.185000X0.135000X-0.185000X0.135000X-0.185000X-0.135000X0*%
G04 #@! TD*
G04 #@! TA.AperFunction,SMDPad,CuDef*
%ADD15RoundRect,0.140000X-0.170000X0.140000X-0.170000X-0.140000X0.170000X-0.140000X0.170000X0.140000X0*%
G04 #@! TD*
G04 #@! TA.AperFunction,SMDPad,CuDef*
%ADD16RoundRect,0.135000X-0.185000X0.135000X-0.185000X-0.135000X0.185000X-0.135000X0.185000X0.135000X0*%
G04 #@! TD*
G04 #@! TA.AperFunction,SMDPad,CuDef*
%ADD17RoundRect,0.150000X-0.150000X-0.425000X0.150000X-0.425000X0.150000X0.425000X-0.150000X0.425000X0*%
G04 #@! TD*
G04 #@! TA.AperFunction,SMDPad,CuDef*
%ADD18RoundRect,0.075000X-0.075000X-0.500000X0.075000X-0.500000X0.075000X0.500000X-0.075000X0.500000X0*%
G04 #@! TD*
G04 #@! TA.AperFunction,ComponentPad*
%ADD19O,1.000000X2.100000*%
G04 #@! TD*
G04 #@! TA.AperFunction,ComponentPad*
%ADD20O,1.000000X1.800000*%
G04 #@! TD*
G04 #@! TA.AperFunction,SMDPad,CuDef*
%ADD21RoundRect,0.135000X-0.135000X-0.185000X0.135000X-0.185000X0.135000X0.185000X-0.135000X0.185000X0*%
G04 #@! TD*
G04 #@! TA.AperFunction,SMDPad,CuDef*
%ADD22RoundRect,0.135000X0.135000X0.185000X-0.135000X0.185000X-0.135000X-0.185000X0.135000X-0.185000X0*%
G04 #@! TD*
G04 #@! TA.AperFunction,SMDPad,CuDef*
%ADD23R,0.431800X0.304800*%
G04 #@! TD*
G04 #@! TA.AperFunction,SMDPad,CuDef*
%ADD24R,0.304800X0.431800*%
G04 #@! TD*
G04 #@! TA.AperFunction,SMDPad,CuDef*
%ADD25RoundRect,0.147500X0.147500X0.172500X-0.147500X0.172500X-0.147500X-0.172500X0.147500X-0.172500X0*%
G04 #@! TD*
G04 #@! TA.AperFunction,SMDPad,CuDef*
%ADD26RoundRect,0.140000X0.140000X0.170000X-0.140000X0.170000X-0.140000X-0.170000X0.140000X-0.170000X0*%
G04 #@! TD*
G04 #@! TA.AperFunction,SMDPad,CuDef*
%ADD27R,1.320800X0.508000*%
G04 #@! TD*
G04 #@! TA.AperFunction,SMDPad,CuDef*
%ADD28R,0.800000X0.400000*%
G04 #@! TD*
G04 #@! TA.AperFunction,SMDPad,CuDef*
%ADD29R,0.400000X0.800000*%
G04 #@! TD*
G04 #@! TA.AperFunction,SMDPad,CuDef*
%ADD30FreePoly0,0.000000*%
G04 #@! TD*
G04 #@! TA.AperFunction,SMDPad,CuDef*
%ADD31R,1.450000X1.450000*%
G04 #@! TD*
G04 #@! TA.AperFunction,SMDPad,CuDef*
%ADD32R,0.700000X0.700000*%
G04 #@! TD*
G04 #@! TA.AperFunction,SMDPad,CuDef*
%ADD33R,0.700000X1.500000*%
G04 #@! TD*
G04 #@! TA.AperFunction,SMDPad,CuDef*
%ADD34R,1.000000X0.800000*%
G04 #@! TD*
G04 #@! TA.AperFunction,SMDPad,CuDef*
%ADD35R,0.900000X1.700000*%
G04 #@! TD*
G04 #@! TA.AperFunction,ComponentPad*
%ADD36C,1.000000*%
G04 #@! TD*
G04 #@! TA.AperFunction,SMDPad,CuDef*
%ADD37RoundRect,0.045000X-0.630000X0.255000X-0.630000X-0.255000X0.630000X-0.255000X0.630000X0.255000X0*%
G04 #@! TD*
G04 #@! TA.AperFunction,SMDPad,CuDef*
%ADD38RoundRect,0.147500X-0.172500X0.147500X-0.172500X-0.147500X0.172500X-0.147500X0.172500X0.147500X0*%
G04 #@! TD*
G04 #@! TA.AperFunction,ViaPad*
%ADD39C,0.500000*%
G04 #@! TD*
G04 #@! TA.AperFunction,ViaPad*
%ADD40C,0.600000*%
G04 #@! TD*
G04 #@! TA.AperFunction,Conductor*
%ADD41C,0.254000*%
G04 #@! TD*
G04 APERTURE END LIST*
D10*
X106850000Y-99235000D03*
X106850000Y-98265000D03*
D11*
X112525000Y-102300000D03*
X115075000Y-102300000D03*
D12*
X119000000Y-102380000D03*
X119000000Y-101420000D03*
D13*
X117795000Y-106800000D03*
X119295000Y-106800000D03*
X120795000Y-106800000D03*
X122295000Y-106800000D03*
X123795000Y-106800000D03*
D14*
X111300000Y-94260000D03*
X111300000Y-93240000D03*
D15*
X105800000Y-95220000D03*
X105800000Y-96180000D03*
D12*
X111150000Y-92330000D03*
X111150000Y-91370000D03*
X111162500Y-102860000D03*
X111162500Y-101900000D03*
D16*
X119000000Y-103290000D03*
X119000000Y-104310000D03*
D15*
X106850000Y-100120000D03*
X106850000Y-101080000D03*
D17*
X102950000Y-104570000D03*
X103750000Y-104570000D03*
D18*
X104900000Y-104570000D03*
X105900000Y-104570000D03*
X106400000Y-104570000D03*
X107400000Y-104570000D03*
D17*
X108550000Y-104570000D03*
X109350000Y-104570000D03*
X109350000Y-104570000D03*
X108550000Y-104570000D03*
D18*
X107900000Y-104570000D03*
X106900000Y-104570000D03*
X105400000Y-104570000D03*
X104400000Y-104570000D03*
D17*
X103750000Y-104570000D03*
X102950000Y-104570000D03*
D19*
X101830000Y-105145000D03*
D20*
X101830000Y-109325000D03*
D19*
X110470000Y-105145000D03*
D20*
X110470000Y-109325000D03*
D16*
X108000000Y-101990000D03*
X108000000Y-103010000D03*
D10*
X105800000Y-98035000D03*
X105800000Y-97065000D03*
D12*
X111300000Y-97980000D03*
X111300000Y-97020000D03*
D21*
X109090000Y-102950000D03*
X110110000Y-102950000D03*
D22*
X110360000Y-93900000D03*
X109340000Y-93900000D03*
D23*
X112212500Y-104099999D03*
X112212500Y-104600001D03*
X112212500Y-105100000D03*
X112212500Y-105599999D03*
X112212500Y-106100000D03*
X112212500Y-106600000D03*
X112212500Y-107100001D03*
X112212500Y-107600000D03*
X112212500Y-108099999D03*
X112212500Y-108600001D03*
D24*
X113049999Y-108636000D03*
X113550000Y-108636000D03*
X114050000Y-108636000D03*
X114550001Y-108636000D03*
D23*
X115387500Y-108600001D03*
X115387500Y-108099999D03*
X115387500Y-107600000D03*
X115387500Y-107100001D03*
X115387500Y-106600000D03*
X115387500Y-106100000D03*
X115387500Y-105599999D03*
X115387500Y-105100000D03*
X115387500Y-104600001D03*
X115387500Y-104099999D03*
D24*
X114550001Y-104064000D03*
X114050000Y-104064000D03*
X113550000Y-104064000D03*
X113049999Y-104064000D03*
D25*
X122967500Y-101500000D03*
X121997500Y-101500000D03*
D26*
X115630000Y-109800000D03*
X114670000Y-109800000D03*
D22*
X124892500Y-101500000D03*
X123872500Y-101500000D03*
D16*
X124800000Y-103840000D03*
X124800000Y-104860000D03*
D26*
X121097500Y-101500000D03*
X120137500Y-101500000D03*
D16*
X107000000Y-101990000D03*
X107000000Y-103010000D03*
D27*
X107304600Y-95299999D03*
X107304600Y-96250000D03*
X107304600Y-97200001D03*
X109895400Y-97200001D03*
X109895400Y-95299999D03*
D28*
X112700000Y-91150000D03*
X112700000Y-91950000D03*
X112700000Y-92750000D03*
X112700000Y-93550000D03*
X112700000Y-94350000D03*
X112700000Y-95150000D03*
X112700000Y-95950000D03*
X112700000Y-96750000D03*
X112700000Y-97550000D03*
X112700000Y-98350000D03*
X112700000Y-99150000D03*
D29*
X113800000Y-100050000D03*
X114600000Y-100050000D03*
X115400000Y-100050000D03*
X116200000Y-100050000D03*
X117000000Y-100050000D03*
X117800000Y-100050000D03*
X118600000Y-100050000D03*
X119400000Y-100050000D03*
X120200000Y-100050000D03*
X121000000Y-100050000D03*
X121800000Y-100050000D03*
X122600000Y-100050000D03*
X123400000Y-100050000D03*
D28*
X124500000Y-99150000D03*
X124500000Y-98350000D03*
X124500000Y-97550000D03*
X124500000Y-96750000D03*
X124500000Y-95950000D03*
X124500000Y-95150000D03*
X124500000Y-94350000D03*
X124500000Y-93550000D03*
X124500000Y-92750000D03*
X124500000Y-91950000D03*
X124500000Y-91150000D03*
D29*
X123400000Y-90250000D03*
X122600000Y-90250000D03*
X121800000Y-90250000D03*
X121000000Y-90250000D03*
X120200000Y-90250000D03*
X119400000Y-90250000D03*
X118600000Y-90250000D03*
X117800000Y-90250000D03*
X117000000Y-90250000D03*
X116200000Y-90250000D03*
X115400000Y-90250000D03*
X114600000Y-90250000D03*
X113800000Y-90250000D03*
D30*
X116625000Y-93175000D03*
D31*
X116625000Y-95150000D03*
X116625000Y-97125000D03*
X118600000Y-93175000D03*
X118600000Y-95150000D03*
X118600000Y-97125000D03*
X120575000Y-93175000D03*
X120575000Y-95150000D03*
X120575000Y-97125000D03*
D32*
X124550000Y-90200000D03*
X124550000Y-100100000D03*
X112650000Y-100100000D03*
X112650000Y-90200000D03*
D33*
X105225000Y-92975000D03*
D34*
X109625000Y-92190000D03*
X109625000Y-90260000D03*
X102325000Y-92190000D03*
X102325000Y-90260000D03*
D33*
X103725000Y-92975000D03*
X108225000Y-92975000D03*
D35*
X123600000Y-103650000D03*
X120200000Y-103650000D03*
D36*
X105619000Y-100375000D03*
X105619000Y-101625000D03*
D37*
X108415000Y-99000000D03*
X108415000Y-99950000D03*
X108415000Y-100900000D03*
X110785000Y-100900000D03*
X110785000Y-99000000D03*
D38*
X111300000Y-95165000D03*
X111300000Y-96135000D03*
D12*
X116425000Y-102880000D03*
X116425000Y-101920000D03*
D39*
X121454947Y-100875981D03*
X113850000Y-109800000D03*
X118170000Y-102380000D03*
X109900000Y-94600000D03*
X110402500Y-101865625D03*
X109000000Y-107450003D03*
X109000000Y-106750000D03*
X111600000Y-108100000D03*
X114550000Y-107850000D03*
X114550000Y-106100000D03*
X120795000Y-105605000D03*
X124824631Y-103052239D03*
X123325001Y-98925001D03*
X122600000Y-99177000D03*
X118600000Y-99200000D03*
X117766999Y-99183001D03*
X116200000Y-99114218D03*
X115404027Y-99054027D03*
X113800000Y-96750000D03*
X113766999Y-98416999D03*
X113750000Y-94400000D03*
X110403001Y-93126999D03*
X106777000Y-93160356D03*
X106800000Y-94500000D03*
D40*
X122300000Y-105677000D03*
X108650000Y-96250000D03*
X109800000Y-99950000D03*
X123464941Y-102261223D03*
X115400000Y-92250000D03*
X108850000Y-101950000D03*
X108500000Y-97250000D03*
X103750000Y-103400000D03*
X105250000Y-94225002D03*
X109718325Y-96148604D03*
X107900000Y-105800000D03*
X118177000Y-103750000D03*
X114000000Y-92750000D03*
X114671598Y-105100000D03*
X110200000Y-98100000D03*
X114850000Y-95500000D03*
D41*
X111300000Y-93290000D02*
X111136999Y-93126999D01*
X111136999Y-93126999D02*
X110403001Y-93126999D01*
X112015000Y-92750000D02*
X112700000Y-92750000D01*
X111595000Y-92330000D02*
X112015000Y-92750000D01*
X111250000Y-92330000D02*
X111595000Y-92330000D01*
X111150000Y-92430000D02*
X111250000Y-92330000D01*
X110445000Y-91370000D02*
X109625000Y-92190000D01*
X111480000Y-91370000D02*
X110445000Y-91370000D01*
X112650000Y-90200000D02*
X111480000Y-91370000D01*
X121460627Y-100870301D02*
X121454947Y-100875981D01*
X121548771Y-100870301D02*
X121460627Y-100870301D01*
X118150000Y-102400000D02*
X118170000Y-102380000D01*
X110406538Y-101869663D02*
X110402500Y-101865625D01*
X110452500Y-101869663D02*
X110406538Y-101869663D01*
X107634408Y-107450000D02*
X106592204Y-106407796D01*
X108999997Y-107450000D02*
X107634408Y-107450000D01*
X109000000Y-107450003D02*
X108999997Y-107450000D01*
X120800000Y-105600000D02*
X120795000Y-105605000D01*
X124822392Y-103050000D02*
X124824631Y-103052239D01*
X124800000Y-103050000D02*
X124822392Y-103050000D01*
X122600000Y-99177000D02*
X122600000Y-100050000D01*
X122200000Y-98600000D02*
X121800000Y-99000000D01*
X123000000Y-98600000D02*
X122200000Y-98600000D01*
X121800000Y-99000000D02*
X121800000Y-100050000D01*
X123325001Y-98925001D02*
X123000000Y-98600000D01*
X114600000Y-99596000D02*
X114600000Y-100050000D01*
X115404027Y-99054027D02*
X115400000Y-99058054D01*
X115404027Y-99054027D02*
X115141973Y-99054027D01*
X115141973Y-99054027D02*
X114600000Y-99596000D01*
X116200000Y-99114218D02*
X116200000Y-100050000D01*
X118600000Y-100050000D02*
X118600000Y-99200000D01*
X117800000Y-99150000D02*
X117766999Y-99183001D01*
X113800000Y-100050000D02*
X113800000Y-98450000D01*
X113800000Y-98450000D02*
X113766999Y-98416999D01*
X106750000Y-93133356D02*
X106777000Y-93160356D01*
X106750000Y-93100000D02*
X106750000Y-93133356D01*
X107304600Y-95299999D02*
X106800000Y-94795399D01*
X106800000Y-94795399D02*
X106800000Y-94500000D01*
X111162500Y-104452500D02*
X110470000Y-105145000D01*
X116425000Y-102880000D02*
X116734999Y-102880000D01*
X105619000Y-101625000D02*
X106305000Y-101625000D01*
X106844318Y-96250000D02*
X107304600Y-96250000D01*
X112212500Y-104600001D02*
X111014999Y-104600001D01*
X107000000Y-101990000D02*
X108000000Y-101990000D01*
X112212500Y-108600001D02*
X111487501Y-109325000D01*
X116734999Y-102880000D02*
X117078974Y-102536025D01*
X115400000Y-92250000D02*
X115700000Y-92250000D01*
X108415000Y-99950000D02*
X109800000Y-99950000D01*
X117078974Y-102536025D02*
X117078974Y-101328974D01*
X112700000Y-91950000D02*
X112700000Y-90250000D01*
X111950000Y-99054000D02*
X112046000Y-99150000D01*
X112650000Y-100100000D02*
X112650000Y-99200000D01*
X115137001Y-103477000D02*
X114550001Y-104064000D01*
X124550000Y-100100000D02*
X124550000Y-101157500D01*
X109800000Y-99950000D02*
X109950000Y-100100000D01*
X111487501Y-109325000D02*
X110470000Y-109325000D01*
X105800000Y-95220000D02*
X105814318Y-95220000D01*
X109895000Y-104570000D02*
X110470000Y-105145000D01*
X116425000Y-102880000D02*
X115828000Y-103477000D01*
X115828000Y-103477000D02*
X115137001Y-103477000D01*
X106635000Y-101625000D02*
X107000000Y-101990000D01*
X109350000Y-104570000D02*
X109895000Y-104570000D01*
X123600000Y-103650000D02*
X124250000Y-103000000D01*
X122295000Y-105682000D02*
X122300000Y-105677000D01*
X109625000Y-93165000D02*
X110360000Y-93900000D01*
X122350000Y-102400000D02*
X123600000Y-103650000D01*
X115400000Y-100504000D02*
X114904000Y-101000000D01*
X111014999Y-104600001D02*
X110470000Y-105145000D01*
X109950000Y-100100000D02*
X112650000Y-100100000D01*
X115400000Y-100504000D02*
X115400000Y-100050000D01*
X114904000Y-101000000D02*
X113550000Y-101000000D01*
X101830000Y-109325000D02*
X101830000Y-105145000D01*
X111314318Y-97020000D02*
X111950000Y-97655682D01*
X116800000Y-101050000D02*
X115946000Y-101050000D01*
X124250000Y-102550000D02*
X124892500Y-101907500D01*
X102325000Y-90260000D02*
X102325000Y-92190000D01*
X112046000Y-99150000D02*
X112700000Y-99150000D01*
X112700000Y-90250000D02*
X112650000Y-90200000D01*
X109625000Y-92190000D02*
X109625000Y-93165000D01*
X110470000Y-105145000D02*
X110470000Y-109325000D01*
X119000000Y-101420000D02*
X120057500Y-101420000D01*
X113550000Y-101000000D02*
X112650000Y-100100000D01*
X115946000Y-101050000D02*
X115400000Y-100504000D01*
X107304600Y-96250000D02*
X108650000Y-96250000D01*
X109625000Y-90260000D02*
X109625000Y-92190000D01*
X120137500Y-101809999D02*
X120727501Y-102400000D01*
X105619000Y-101625000D02*
X106635000Y-101625000D01*
X115100000Y-91950000D02*
X115400000Y-92250000D01*
X123600000Y-103650000D02*
X123600000Y-102396282D01*
X111300000Y-97020000D02*
X111314318Y-97020000D01*
X106305000Y-101625000D02*
X106850000Y-101080000D01*
X124250000Y-103000000D02*
X124250000Y-102550000D01*
X124892500Y-101907500D02*
X124892500Y-101500000D01*
X111950000Y-97655682D02*
X111950000Y-99054000D01*
X120727501Y-102400000D02*
X122350000Y-102400000D01*
X105814318Y-95220000D02*
X106844318Y-96250000D01*
X120137500Y-101500000D02*
X120137500Y-101809999D01*
X117078974Y-101328974D02*
X116800000Y-101050000D01*
X112650000Y-99200000D02*
X112700000Y-99150000D01*
X112700000Y-91950000D02*
X115100000Y-91950000D01*
X112650000Y-90200000D02*
X124550000Y-90200000D01*
X120057500Y-101420000D02*
X120137500Y-101500000D01*
X115700000Y-92250000D02*
X116625000Y-93175000D01*
X123600000Y-102396282D02*
X123464941Y-102261223D01*
X122295000Y-106800000D02*
X122295000Y-105682000D01*
X111162500Y-102860000D02*
X111162500Y-104452500D01*
X124550000Y-101157500D02*
X124892500Y-101500000D01*
X108850000Y-101950000D02*
X109090000Y-102190000D01*
X109090000Y-102190000D02*
X109090000Y-102950000D01*
X107304600Y-97200001D02*
X105935001Y-97200001D01*
X108450001Y-97200001D02*
X108500000Y-97250000D01*
X107304600Y-97200001D02*
X108450001Y-97200001D01*
X105800000Y-97065000D02*
X105800000Y-96180000D01*
X105935001Y-97200001D02*
X105800000Y-97065000D01*
X119840000Y-103290000D02*
X120200000Y-103650000D01*
X119000000Y-102380000D02*
X119000000Y-102450000D01*
X119000000Y-102450000D02*
X120200000Y-103650000D01*
X118170000Y-102380000D02*
X119000000Y-102380000D01*
X119000000Y-103290000D02*
X119840000Y-103290000D01*
X113800000Y-96750000D02*
X112700000Y-96750000D01*
X119000000Y-102380000D02*
X119000000Y-103290000D01*
X121097500Y-101321572D02*
X121548771Y-100870301D01*
X121097500Y-101500000D02*
X121097500Y-101321572D01*
X107900000Y-105715592D02*
X107900000Y-105800000D01*
X106850000Y-98265000D02*
X108830401Y-98265000D01*
X108550000Y-105065592D02*
X107900000Y-105715592D01*
X104575002Y-94225002D02*
X105250000Y-94225002D01*
X108550000Y-104570000D02*
X108550000Y-105065592D01*
X105153000Y-94322002D02*
X105250000Y-94225002D01*
X109718325Y-97022926D02*
X109895400Y-97200001D01*
X105153000Y-98547000D02*
X105153000Y-94322002D01*
X103750000Y-104570000D02*
X103750000Y-103400000D01*
X109718325Y-96148604D02*
X109718325Y-97022926D01*
X108830401Y-98265000D02*
X109895400Y-97200001D01*
X103725000Y-92975000D02*
X103725000Y-93375000D01*
X103725000Y-93375000D02*
X104575002Y-94225002D01*
X111300000Y-96135000D02*
X110960401Y-96135000D01*
X103750000Y-99950000D02*
X105153000Y-98547000D01*
X110960401Y-96135000D02*
X109895400Y-97200001D01*
X103750000Y-103400000D02*
X103750000Y-99950000D01*
X111300000Y-94310000D02*
X111300000Y-95165000D01*
X124800000Y-103840000D02*
X124800000Y-103050000D01*
X106850000Y-100120000D02*
X107172666Y-100120000D01*
X105800000Y-98329999D02*
X106705001Y-99235000D01*
X106950000Y-99235000D02*
X108180000Y-99235000D01*
X107952666Y-100900000D02*
X108415000Y-100900000D01*
X106705001Y-99235000D02*
X106850000Y-99235000D01*
X105800000Y-98035000D02*
X105800000Y-98329999D01*
X107172666Y-100120000D02*
X107952666Y-100900000D01*
X106850000Y-100120000D02*
X106850000Y-99235000D01*
X108180000Y-99235000D02*
X108415000Y-99000000D01*
X106900000Y-103924408D02*
X106643592Y-103668000D01*
X105900000Y-103924408D02*
X105900000Y-104570000D01*
X107750000Y-106750000D02*
X106900000Y-105900000D01*
X109000000Y-106750000D02*
X107750000Y-106750000D01*
X106900000Y-105900000D02*
X106900000Y-104570000D01*
X106156408Y-103668000D02*
X105900000Y-103924408D01*
X106900000Y-104570000D02*
X106900000Y-103924408D01*
X106643592Y-103668000D02*
X106156408Y-103668000D01*
X111600000Y-108100000D02*
X112212499Y-108100000D01*
X112212499Y-108100000D02*
X112212500Y-108099999D01*
X113850000Y-109800000D02*
X114670000Y-109800000D01*
X106592204Y-106407796D02*
X105400000Y-105215592D01*
X105400000Y-105215592D02*
X105400000Y-104570000D01*
X106400000Y-104570000D02*
X106400000Y-106215592D01*
X117800000Y-100050000D02*
X117800000Y-99150000D01*
X106400000Y-106215592D02*
X106592204Y-106407796D01*
X114550000Y-107850000D02*
X114550000Y-108635999D01*
X114550000Y-108635999D02*
X114550001Y-108636000D01*
X114050000Y-103325000D02*
X114050000Y-104064000D01*
X115455000Y-101920000D02*
X115075000Y-102300000D01*
X116425000Y-101920000D02*
X115455000Y-101920000D01*
X115075000Y-102300000D02*
X114050000Y-103325000D01*
X112525000Y-102300000D02*
X113550000Y-103325000D01*
X112125000Y-101900000D02*
X112525000Y-102300000D01*
X113550000Y-103325000D02*
X113550000Y-104064000D01*
X111162500Y-101900000D02*
X112125000Y-101900000D01*
X115909800Y-106600000D02*
X117550000Y-104959800D01*
X115387500Y-106600000D02*
X115909800Y-106600000D01*
X117000000Y-100550000D02*
X117000000Y-100050000D01*
X117900000Y-105000000D02*
X117550000Y-104650000D01*
X123100000Y-105000000D02*
X117900000Y-105000000D01*
X123795000Y-105695000D02*
X123100000Y-105000000D01*
X117550000Y-101100000D02*
X117000000Y-100550000D01*
X117550000Y-104959800D02*
X117550000Y-101100000D01*
X123795000Y-106800000D02*
X123795000Y-105695000D01*
X114550000Y-106100000D02*
X115387500Y-106100000D01*
X108415000Y-92975000D02*
X109340000Y-93900000D01*
X108225000Y-92975000D02*
X108415000Y-92975000D01*
X114850000Y-93650000D02*
X114850000Y-95500000D01*
X124800000Y-107105976D02*
X124178976Y-107727000D01*
X120222000Y-107727000D02*
X119295000Y-106800000D01*
X118177000Y-103750000D02*
X118737000Y-104310000D01*
X112700000Y-92750000D02*
X114000000Y-92750000D01*
X114000000Y-92800000D02*
X114850000Y-93650000D01*
X113563700Y-105100000D02*
X113049999Y-104586299D01*
X110200000Y-98100000D02*
X110200000Y-98415000D01*
X124800000Y-104860000D02*
X124800000Y-107105976D01*
X124178976Y-107727000D02*
X120222000Y-107727000D01*
X110200000Y-98415000D02*
X110785000Y-99000000D01*
X114000000Y-92750000D02*
X114000000Y-92800000D01*
X114671598Y-105100000D02*
X113563700Y-105100000D01*
X113049999Y-104586299D02*
X113049999Y-104064000D01*
X110785000Y-98495000D02*
X111300000Y-97980000D01*
X114671598Y-105100000D02*
X112212500Y-105100000D01*
X118737000Y-104310000D02*
X119000000Y-104310000D01*
X110785000Y-99000000D02*
X110785000Y-98495000D01*
X113750000Y-94400000D02*
X112750000Y-94400000D01*
X112750000Y-94400000D02*
X112700000Y-94350000D01*
X120795000Y-106800000D02*
X120795000Y-105605000D01*
X110110000Y-102212163D02*
X110110000Y-102950000D01*
X110452500Y-101869663D02*
X110110000Y-102212163D01*
X108000000Y-103010000D02*
X107900000Y-103110000D01*
X107900000Y-103110000D02*
X107900000Y-104570000D01*
X107000000Y-103010000D02*
X105814408Y-103010000D01*
X105814408Y-103010000D02*
X104900000Y-103924408D01*
X104900000Y-103924408D02*
X104900000Y-104570000D01*
X109900000Y-95295399D02*
X109895400Y-95299999D01*
X109900000Y-94600000D02*
X109900000Y-95295399D01*
X105350000Y-93100000D02*
X105225000Y-92975000D01*
X106750000Y-93100000D02*
X105350000Y-93100000D01*
X123251000Y-100853000D02*
X123400000Y-100704000D01*
X121997500Y-101474868D02*
X122619368Y-100853000D01*
X123400000Y-100704000D02*
X123400000Y-100050000D01*
X121997500Y-101500000D02*
X121997500Y-101474868D01*
X122619368Y-100853000D02*
X123251000Y-100853000D01*
X123872500Y-101500000D02*
X122967500Y-101500000D01*
G04 #@! TA.AperFunction,Conductor*
G36*
X104136574Y-105614867D02*
G01*
X104174764Y-105630687D01*
X104287280Y-105645500D01*
X104287284Y-105645500D01*
X104512716Y-105645500D01*
X104512720Y-105645500D01*
X104625236Y-105630687D01*
X104631247Y-105628196D01*
X104668748Y-105628195D01*
X104674764Y-105630687D01*
X104787280Y-105645500D01*
X104922193Y-105645500D01*
X104956841Y-105659852D01*
X105912589Y-106615600D01*
X106104793Y-106807804D01*
X107146997Y-107850008D01*
X107234400Y-107937411D01*
X107337175Y-108006083D01*
X107366088Y-108018059D01*
X107451373Y-108053386D01*
X107572605Y-108077500D01*
X108573911Y-108077500D01*
X108599980Y-108085010D01*
X108672310Y-108130459D01*
X108831941Y-108186316D01*
X109000000Y-108205252D01*
X109168059Y-108186316D01*
X109327690Y-108130459D01*
X109470890Y-108040480D01*
X109590477Y-107920893D01*
X109680456Y-107777693D01*
X109736313Y-107618062D01*
X109755249Y-107450003D01*
X109736313Y-107281944D01*
X109680456Y-107122313D01*
X109680451Y-107122306D01*
X109679947Y-107121257D01*
X109679920Y-107120783D01*
X109679547Y-107119716D01*
X109679854Y-107119608D01*
X109677848Y-107083813D01*
X109679950Y-107078740D01*
X109680449Y-107077700D01*
X109680456Y-107077690D01*
X109736313Y-106918059D01*
X109755249Y-106750000D01*
X109736313Y-106581941D01*
X109696113Y-106467055D01*
X109698215Y-106429613D01*
X109726179Y-106404623D01*
X109763623Y-106406725D01*
X109777011Y-106416225D01*
X109832539Y-106471753D01*
X109996325Y-106581190D01*
X110178310Y-106656570D01*
X110220000Y-106664862D01*
X110220000Y-105861988D01*
X110229940Y-105879205D01*
X110285795Y-105935060D01*
X110354204Y-105974556D01*
X110430504Y-105995000D01*
X110509496Y-105995000D01*
X110585796Y-105974556D01*
X110654205Y-105935060D01*
X110710060Y-105879205D01*
X110720000Y-105861988D01*
X110720000Y-106664862D01*
X110761689Y-106656570D01*
X110761690Y-106656570D01*
X110943674Y-106581190D01*
X111107460Y-106471753D01*
X111246753Y-106332460D01*
X111356190Y-106168674D01*
X111401830Y-106058489D01*
X111428348Y-106031970D01*
X111465851Y-106031970D01*
X111492370Y-106058488D01*
X111496100Y-106077240D01*
X111496100Y-106300278D01*
X111496101Y-106300280D01*
X111500882Y-106344762D01*
X111500882Y-106355235D01*
X111496100Y-106399719D01*
X111496100Y-106800278D01*
X111496101Y-106800280D01*
X111500882Y-106844762D01*
X111500882Y-106855235D01*
X111496100Y-106899720D01*
X111496100Y-107300279D01*
X111496101Y-107300281D01*
X111496857Y-107307315D01*
X111486290Y-107343298D01*
X111453626Y-107361243D01*
X111431945Y-107363686D01*
X111431937Y-107363688D01*
X111272310Y-107419544D01*
X111272308Y-107419545D01*
X111129112Y-107509521D01*
X111129108Y-107509524D01*
X111009524Y-107629108D01*
X111009521Y-107629112D01*
X110919545Y-107772308D01*
X110919544Y-107772310D01*
X110863688Y-107931937D01*
X110863686Y-107931946D01*
X110863039Y-107937690D01*
X110844897Y-107970513D01*
X110808860Y-107980895D01*
X110795597Y-107977474D01*
X110761683Y-107963427D01*
X110761681Y-107963426D01*
X110720000Y-107955135D01*
X110720000Y-108758011D01*
X110710060Y-108740795D01*
X110654205Y-108684940D01*
X110585796Y-108645444D01*
X110509496Y-108625000D01*
X110430504Y-108625000D01*
X110354204Y-108645444D01*
X110285795Y-108684940D01*
X110229940Y-108740795D01*
X110220000Y-108758011D01*
X110220000Y-107955135D01*
X110219999Y-107955135D01*
X110178317Y-107963426D01*
X110178308Y-107963429D01*
X109996325Y-108038809D01*
X109832539Y-108148246D01*
X109693246Y-108287539D01*
X109583809Y-108451325D01*
X109508429Y-108633309D01*
X109508429Y-108633310D01*
X109470000Y-108826512D01*
X109470000Y-109075000D01*
X110170000Y-109075000D01*
X110170000Y-109575000D01*
X109470000Y-109575000D01*
X109470000Y-109823487D01*
X109508429Y-110016689D01*
X109508429Y-110016690D01*
X109583809Y-110198674D01*
X109693246Y-110362460D01*
X109832539Y-110501753D01*
X109996325Y-110611190D01*
X110178310Y-110686570D01*
X110220000Y-110694862D01*
X110220000Y-109891988D01*
X110229940Y-109909205D01*
X110285795Y-109965060D01*
X110354204Y-110004556D01*
X110430504Y-110025000D01*
X110509496Y-110025000D01*
X110585796Y-110004556D01*
X110654205Y-109965060D01*
X110710060Y-109909205D01*
X110720000Y-109891988D01*
X110720000Y-110694862D01*
X110761689Y-110686570D01*
X110761690Y-110686570D01*
X110943674Y-110611190D01*
X111107460Y-110501753D01*
X111246753Y-110362460D01*
X111356190Y-110198674D01*
X111431570Y-110016690D01*
X111431570Y-110016689D01*
X111470000Y-109823487D01*
X111470000Y-109575000D01*
X110770000Y-109575000D01*
X110770000Y-109075000D01*
X111470000Y-109075000D01*
X111470000Y-109030506D01*
X111484352Y-108995858D01*
X111519000Y-108981506D01*
X111553648Y-108995858D01*
X111558226Y-109001141D01*
X111639411Y-109109589D01*
X111754508Y-109195752D01*
X111889226Y-109245999D01*
X111948766Y-109252401D01*
X112060100Y-109252401D01*
X112060100Y-108801898D01*
X112074452Y-108767250D01*
X112109100Y-108752898D01*
X112315900Y-108752898D01*
X112350548Y-108767250D01*
X112364900Y-108801898D01*
X112364900Y-109252401D01*
X112476235Y-109252401D01*
X112535772Y-109246000D01*
X112546150Y-109242129D01*
X112583629Y-109243466D01*
X112592638Y-109248811D01*
X112655268Y-109295696D01*
X112790116Y-109345991D01*
X112790119Y-109345992D01*
X112833776Y-109350685D01*
X112849726Y-109352400D01*
X113156229Y-109352399D01*
X113190877Y-109366751D01*
X113205229Y-109401399D01*
X113197719Y-109427468D01*
X113169545Y-109472306D01*
X113113688Y-109631937D01*
X113113686Y-109631946D01*
X113094751Y-109800000D01*
X113107055Y-109909205D01*
X113113687Y-109968059D01*
X113169544Y-110127690D01*
X113259523Y-110270890D01*
X113379110Y-110390477D01*
X113522310Y-110480456D01*
X113681941Y-110536313D01*
X113850000Y-110555249D01*
X114018059Y-110536313D01*
X114129286Y-110497392D01*
X114166730Y-110499494D01*
X114170413Y-110501466D01*
X114273601Y-110562493D01*
X114418203Y-110604504D01*
X114429007Y-110607643D01*
X114465310Y-110610500D01*
X114465321Y-110610500D01*
X114874679Y-110610500D01*
X114874690Y-110610500D01*
X114910993Y-110607643D01*
X115066395Y-110562494D01*
X115125550Y-110527509D01*
X115162675Y-110522225D01*
X115175434Y-110527510D01*
X115233804Y-110562032D01*
X115379999Y-110604505D01*
X115880000Y-110604505D01*
X116026197Y-110562031D01*
X116165373Y-110479722D01*
X116165378Y-110479718D01*
X116279718Y-110365378D01*
X116279722Y-110365373D01*
X116362030Y-110226198D01*
X116407145Y-110070914D01*
X116407145Y-110070913D01*
X116408791Y-110050000D01*
X115880000Y-110050000D01*
X115880000Y-110604505D01*
X115379999Y-110604505D01*
X115380000Y-110604504D01*
X115380000Y-110277834D01*
X115386823Y-110252892D01*
X115402494Y-110226395D01*
X115447643Y-110070993D01*
X115450500Y-110034690D01*
X115450500Y-109599000D01*
X115464852Y-109564352D01*
X115499500Y-109550000D01*
X116408790Y-109550000D01*
X116408790Y-109549999D01*
X116407145Y-109529086D01*
X116362030Y-109373801D01*
X116279722Y-109234626D01*
X116279718Y-109234621D01*
X116165378Y-109120281D01*
X116165373Y-109120277D01*
X116064978Y-109060904D01*
X116042460Y-109030914D01*
X116046548Y-108998231D01*
X116045971Y-108998016D01*
X116046880Y-108995578D01*
X116046924Y-108995228D01*
X116047189Y-108994740D01*
X116047196Y-108994732D01*
X116097491Y-108859884D01*
X116097491Y-108859882D01*
X116097492Y-108859880D01*
X116103899Y-108800280D01*
X116103900Y-108800274D01*
X116103899Y-108399729D01*
X116103899Y-108399722D01*
X116099116Y-108355238D01*
X116099116Y-108344761D01*
X116103900Y-108300272D01*
X116103899Y-107899727D01*
X116103899Y-107899721D01*
X116099116Y-107855239D01*
X116099116Y-107844761D01*
X116103900Y-107800273D01*
X116103899Y-107399728D01*
X116103899Y-107399722D01*
X116100024Y-107363686D01*
X116099116Y-107355237D01*
X116099116Y-107344762D01*
X116103900Y-107300274D01*
X116103899Y-107231542D01*
X116118250Y-107196894D01*
X116134145Y-107186273D01*
X116178796Y-107167779D01*
X116207033Y-107156083D01*
X116309808Y-107087411D01*
X116397211Y-107000008D01*
X116608128Y-106789090D01*
X116642774Y-106774739D01*
X116677422Y-106789091D01*
X116691565Y-106819218D01*
X116708602Y-107003079D01*
X116708603Y-107003085D01*
X116764417Y-107199248D01*
X116764420Y-107199255D01*
X116855325Y-107381818D01*
X116855328Y-107381822D01*
X116978233Y-107544576D01*
X116978236Y-107544579D01*
X117128954Y-107681977D01*
X117128955Y-107681978D01*
X117128959Y-107681981D01*
X117302363Y-107789348D01*
X117492544Y-107863024D01*
X117693024Y-107900500D01*
X117693026Y-107900500D01*
X117896974Y-107900500D01*
X117896976Y-107900500D01*
X118097456Y-107863024D01*
X118287637Y-107789348D01*
X118461041Y-107681981D01*
X118511990Y-107635534D01*
X118547262Y-107622798D01*
X118578008Y-107635533D01*
X118628959Y-107681981D01*
X118802363Y-107789348D01*
X118992544Y-107863024D01*
X119193024Y-107900500D01*
X119193026Y-107900500D01*
X119396974Y-107900500D01*
X119396976Y-107900500D01*
X119465194Y-107887747D01*
X119501889Y-107895488D01*
X119508846Y-107901265D01*
X119821992Y-108214411D01*
X119924763Y-108283081D01*
X119924765Y-108283082D01*
X119924767Y-108283083D01*
X119958215Y-108296937D01*
X120038965Y-108330386D01*
X120160197Y-108354500D01*
X120160200Y-108354500D01*
X124240776Y-108354500D01*
X124240779Y-108354500D01*
X124362011Y-108330386D01*
X124442758Y-108296938D01*
X124442759Y-108296938D01*
X124455115Y-108291819D01*
X124476209Y-108283083D01*
X124578984Y-108214411D01*
X124666387Y-108127008D01*
X125064753Y-107728641D01*
X125099399Y-107714290D01*
X125134047Y-107728642D01*
X125148399Y-107763273D01*
X125149499Y-110947237D01*
X125149191Y-110952741D01*
X125137593Y-111055666D01*
X125135151Y-111066362D01*
X125101858Y-111161512D01*
X125097097Y-111171399D01*
X125043461Y-111256759D01*
X125036620Y-111265337D01*
X124965337Y-111336620D01*
X124956759Y-111343461D01*
X124871399Y-111397097D01*
X124861512Y-111401858D01*
X124766362Y-111435151D01*
X124755666Y-111437593D01*
X124659877Y-111448386D01*
X124652732Y-111449192D01*
X124647247Y-111449500D01*
X101652753Y-111449500D01*
X101647267Y-111449192D01*
X101639061Y-111448267D01*
X101544333Y-111437593D01*
X101533637Y-111435151D01*
X101469221Y-111412612D01*
X101438484Y-111401856D01*
X101428603Y-111397098D01*
X101343240Y-111343461D01*
X101334662Y-111336620D01*
X101263379Y-111265337D01*
X101256538Y-111256759D01*
X101202899Y-111171393D01*
X101198144Y-111161519D01*
X101164847Y-111066361D01*
X101162406Y-111055665D01*
X101150808Y-110952733D01*
X101150500Y-110947247D01*
X101150500Y-110565335D01*
X101164852Y-110530687D01*
X101199500Y-110516335D01*
X101226723Y-110524593D01*
X101356325Y-110611190D01*
X101538310Y-110686570D01*
X101580000Y-110694862D01*
X101580000Y-109891988D01*
X101589940Y-109909205D01*
X101645795Y-109965060D01*
X101714204Y-110004556D01*
X101790504Y-110025000D01*
X101869496Y-110025000D01*
X101945796Y-110004556D01*
X102014205Y-109965060D01*
X102070060Y-109909205D01*
X102080000Y-109891988D01*
X102080000Y-110694862D01*
X102121689Y-110686570D01*
X102121690Y-110686570D01*
X102303674Y-110611190D01*
X102467460Y-110501753D01*
X102606753Y-110362460D01*
X102716190Y-110198674D01*
X102791570Y-110016690D01*
X102791570Y-110016689D01*
X102830000Y-109823487D01*
X102830000Y-109575000D01*
X102130000Y-109575000D01*
X102130000Y-109075000D01*
X102830000Y-109075000D01*
X102830000Y-108826512D01*
X102791570Y-108633310D01*
X102791570Y-108633309D01*
X102716190Y-108451325D01*
X102606753Y-108287539D01*
X102467460Y-108148246D01*
X102303674Y-108038809D01*
X102121691Y-107963429D01*
X102121682Y-107963426D01*
X102080000Y-107955135D01*
X102080000Y-108758011D01*
X102070060Y-108740795D01*
X102014205Y-108684940D01*
X101945796Y-108645444D01*
X101869496Y-108625000D01*
X101790504Y-108625000D01*
X101714204Y-108645444D01*
X101645795Y-108684940D01*
X101589940Y-108740795D01*
X101580000Y-108758011D01*
X101580000Y-107955135D01*
X101579999Y-107955135D01*
X101538317Y-107963426D01*
X101538308Y-107963429D01*
X101356325Y-108038809D01*
X101226723Y-108125406D01*
X101189940Y-108132722D01*
X101158758Y-108111887D01*
X101150500Y-108084664D01*
X101150500Y-106535335D01*
X101164852Y-106500687D01*
X101199500Y-106486335D01*
X101226723Y-106494593D01*
X101356325Y-106581190D01*
X101538310Y-106656570D01*
X101580000Y-106664862D01*
X101580000Y-105861988D01*
X101589940Y-105879205D01*
X101645795Y-105935060D01*
X101714204Y-105974556D01*
X101790504Y-105995000D01*
X101869496Y-105995000D01*
X101945796Y-105974556D01*
X102014205Y-105935060D01*
X102070060Y-105879205D01*
X102080000Y-105861988D01*
X102080000Y-106664862D01*
X102121689Y-106656570D01*
X102121690Y-106656570D01*
X102303674Y-106581190D01*
X102467460Y-106471753D01*
X102606753Y-106332460D01*
X102716190Y-106168674D01*
X102762405Y-106057101D01*
X102788923Y-106030582D01*
X102826426Y-106030582D01*
X102842323Y-106041204D01*
X102878360Y-106077240D01*
X102906635Y-106105515D01*
X102911026Y-106108050D01*
X103037862Y-106181280D01*
X103037864Y-106181280D01*
X103037865Y-106181281D01*
X103153303Y-106212212D01*
X103184230Y-106220499D01*
X103184231Y-106220500D01*
X103184234Y-106220500D01*
X103335769Y-106220500D01*
X103335769Y-106220499D01*
X103482135Y-106181281D01*
X103613365Y-106105515D01*
X103720515Y-105998365D01*
X103796281Y-105867135D01*
X103835499Y-105720769D01*
X103835500Y-105720769D01*
X103835500Y-105694500D01*
X103849852Y-105659852D01*
X103884500Y-105645500D01*
X103965683Y-105645500D01*
X103965694Y-105645500D01*
X104002569Y-105642598D01*
X104104153Y-105613084D01*
X104136574Y-105614867D01*
G37*
G04 #@! TD.AperFunction*
G04 #@! TA.AperFunction,Conductor*
G36*
X122854433Y-105641852D02*
G01*
X123093530Y-105880949D01*
X123107882Y-105915597D01*
X123093530Y-105950245D01*
X123091891Y-105951810D01*
X123077636Y-105964804D01*
X123042362Y-105977539D01*
X123011615Y-105964802D01*
X122960739Y-105918421D01*
X122787409Y-105811099D01*
X122597325Y-105737461D01*
X122528878Y-105724666D01*
X122497457Y-105704192D01*
X122489716Y-105667496D01*
X122510190Y-105636075D01*
X122537882Y-105627500D01*
X122819785Y-105627500D01*
X122854433Y-105641852D01*
G37*
G04 #@! TD.AperFunction*
G04 #@! TA.AperFunction,Conductor*
G36*
X122086766Y-105641852D02*
G01*
X122101118Y-105676500D01*
X122086766Y-105711148D01*
X122061122Y-105724666D01*
X121992674Y-105737461D01*
X121802590Y-105811099D01*
X121629257Y-105918423D01*
X121578380Y-105964802D01*
X121543106Y-105977538D01*
X121512359Y-105964801D01*
X121499798Y-105953350D01*
X121483861Y-105919402D01*
X121486559Y-105900956D01*
X121531313Y-105773059D01*
X121542811Y-105671013D01*
X121560952Y-105638190D01*
X121591503Y-105627500D01*
X122052118Y-105627500D01*
X122086766Y-105641852D01*
G37*
G04 #@! TD.AperFunction*
G04 #@! TA.AperFunction,Conductor*
G36*
X116660648Y-102714852D02*
G01*
X116675000Y-102749500D01*
X116675000Y-103658790D01*
X116695913Y-103657145D01*
X116851200Y-103612030D01*
X116854031Y-103610806D01*
X116854881Y-103612771D01*
X116885384Y-103608232D01*
X116915517Y-103630559D01*
X116922500Y-103655769D01*
X116922500Y-104679584D01*
X116908148Y-104714232D01*
X116187547Y-105434833D01*
X116152899Y-105449185D01*
X116118251Y-105434833D01*
X116104242Y-105401014D01*
X116104184Y-105401017D01*
X116104040Y-105401033D01*
X116104039Y-105401025D01*
X116103969Y-105401029D01*
X116103927Y-105400254D01*
X116103899Y-105400185D01*
X116103899Y-105399721D01*
X116099116Y-105355239D01*
X116099116Y-105344761D01*
X116103900Y-105300273D01*
X116103899Y-104899728D01*
X116103899Y-104899727D01*
X116103899Y-104899722D01*
X116099116Y-104855240D01*
X116099116Y-104844762D01*
X116103900Y-104800274D01*
X116103899Y-104399729D01*
X116103899Y-104399722D01*
X116099116Y-104355238D01*
X116099116Y-104344761D01*
X116103900Y-104300272D01*
X116103899Y-103899727D01*
X116103899Y-103899726D01*
X116103899Y-103899719D01*
X116097491Y-103840119D01*
X116097491Y-103840116D01*
X116048162Y-103707857D01*
X116049501Y-103670379D01*
X116076950Y-103644824D01*
X116107744Y-103643681D01*
X116154086Y-103657145D01*
X116174999Y-103658790D01*
X116175000Y-103658790D01*
X116175000Y-102749500D01*
X116189352Y-102714852D01*
X116224000Y-102700500D01*
X116626000Y-102700500D01*
X116660648Y-102714852D01*
G37*
G04 #@! TD.AperFunction*
G04 #@! TA.AperFunction,Conductor*
G36*
X101234148Y-96992957D02*
G01*
X101244770Y-97008854D01*
X101281715Y-97098047D01*
X101399725Y-97302447D01*
X101399735Y-97302462D01*
X101543403Y-97489693D01*
X101543413Y-97489705D01*
X101710294Y-97656586D01*
X101710306Y-97656596D01*
X101897537Y-97800264D01*
X101897546Y-97800270D01*
X101897550Y-97800273D01*
X102101951Y-97918284D01*
X102320007Y-98008606D01*
X102320010Y-98008606D01*
X102320013Y-98008608D01*
X102547974Y-98069690D01*
X102547975Y-98069690D01*
X102547986Y-98069693D01*
X102781989Y-98100500D01*
X102781993Y-98100500D01*
X103018007Y-98100500D01*
X103018011Y-98100500D01*
X103252014Y-98069693D01*
X103348211Y-98043917D01*
X103479986Y-98008608D01*
X103479986Y-98008607D01*
X103479993Y-98008606D01*
X103698049Y-97918284D01*
X103902450Y-97800273D01*
X104089699Y-97656592D01*
X104256592Y-97489699D01*
X104400273Y-97302450D01*
X104434065Y-97243919D01*
X104463818Y-97221090D01*
X104501000Y-97225985D01*
X104523830Y-97255738D01*
X104525500Y-97268420D01*
X104525500Y-98266785D01*
X104511148Y-98301433D01*
X103262588Y-99549992D01*
X103193915Y-99652769D01*
X103186608Y-99670411D01*
X103186608Y-99670412D01*
X103146615Y-99766961D01*
X103146611Y-99766976D01*
X103127420Y-99863455D01*
X103127421Y-99863456D01*
X103122500Y-99888198D01*
X103122500Y-102879935D01*
X103114989Y-102906005D01*
X103024212Y-103050473D01*
X102964633Y-103220741D01*
X102964631Y-103220750D01*
X102944435Y-103400000D01*
X102964631Y-103579249D01*
X102964633Y-103579258D01*
X103024212Y-103749526D01*
X103036097Y-103768440D01*
X103042379Y-103805414D01*
X103036785Y-103819453D01*
X102998255Y-103884603D01*
X102952401Y-104042430D01*
X102952401Y-104042432D01*
X102949500Y-104079303D01*
X102949500Y-104771000D01*
X102935148Y-104805648D01*
X102900500Y-104820000D01*
X102156000Y-104820000D01*
X102130000Y-104809230D01*
X102130000Y-104555504D01*
X102109556Y-104479204D01*
X102107000Y-104474776D01*
X102107000Y-104369000D01*
X102121352Y-104334352D01*
X102156000Y-104320000D01*
X102700000Y-104320000D01*
X102700000Y-103497703D01*
X102697510Y-103497899D01*
X102697499Y-103497901D01*
X102539798Y-103543719D01*
X102398446Y-103627315D01*
X102398445Y-103627316D01*
X102336213Y-103689547D01*
X102301564Y-103703898D01*
X102282814Y-103700168D01*
X102121691Y-103633429D01*
X102121682Y-103633426D01*
X102080000Y-103625135D01*
X102080000Y-104428011D01*
X102070060Y-104410795D01*
X102014205Y-104354940D01*
X101945796Y-104315444D01*
X101869496Y-104295000D01*
X101790504Y-104295000D01*
X101714204Y-104315444D01*
X101645795Y-104354940D01*
X101589940Y-104410795D01*
X101580000Y-104428011D01*
X101580000Y-103625135D01*
X101579999Y-103625135D01*
X101538317Y-103633426D01*
X101538308Y-103633429D01*
X101356325Y-103708809D01*
X101226723Y-103795406D01*
X101189940Y-103802722D01*
X101158758Y-103781887D01*
X101150500Y-103754664D01*
X101150500Y-97027605D01*
X101164852Y-96992957D01*
X101199500Y-96978605D01*
X101234148Y-96992957D01*
G37*
G04 #@! TD.AperFunction*
G04 #@! TA.AperFunction,Conductor*
G36*
X109593176Y-103712504D02*
G01*
X109600000Y-103737448D01*
X109600000Y-104771000D01*
X109585648Y-104805648D01*
X109551000Y-104820000D01*
X109399500Y-104820000D01*
X109364852Y-104805648D01*
X109350500Y-104771000D01*
X109350500Y-104079317D01*
X109350500Y-104079306D01*
X109347598Y-104042431D01*
X109346653Y-104039180D01*
X109322934Y-103957539D01*
X109301744Y-103884602D01*
X109276700Y-103842256D01*
X109271416Y-103805129D01*
X109293934Y-103775138D01*
X109315036Y-103768465D01*
X109320337Y-103768047D01*
X109325204Y-103767665D01*
X109479393Y-103722869D01*
X109526057Y-103695271D01*
X109563185Y-103689987D01*
X109593176Y-103712504D01*
G37*
G04 #@! TD.AperFunction*
G04 #@! TA.AperFunction,Conductor*
G36*
X122507439Y-102240490D02*
G01*
X122560603Y-102271931D01*
X122717825Y-102317609D01*
X122754560Y-102320500D01*
X122754571Y-102320500D01*
X122808977Y-102320500D01*
X122843625Y-102334852D01*
X122857977Y-102369500D01*
X122843625Y-102404148D01*
X122838342Y-102408726D01*
X122792811Y-102442811D01*
X122706648Y-102557908D01*
X122656401Y-102692626D01*
X122656401Y-102692627D01*
X122650000Y-102752165D01*
X122650000Y-103400000D01*
X123801000Y-103400000D01*
X123835648Y-103414352D01*
X123850000Y-103449000D01*
X123850000Y-103851000D01*
X123835648Y-103885648D01*
X123801000Y-103900000D01*
X122650000Y-103900000D01*
X122650000Y-104323500D01*
X122635648Y-104358148D01*
X122601000Y-104372500D01*
X122099604Y-104372500D01*
X122064956Y-104358148D01*
X122050604Y-104323500D01*
X122064956Y-104288852D01*
X122087602Y-104276746D01*
X122087437Y-104276201D01*
X122089738Y-104275502D01*
X122089744Y-104275501D01*
X122208127Y-104226465D01*
X122314669Y-104155276D01*
X122405276Y-104064669D01*
X122476465Y-103958127D01*
X122525501Y-103839744D01*
X122550500Y-103714069D01*
X122550500Y-103585931D01*
X122525501Y-103460256D01*
X122476465Y-103341873D01*
X122405276Y-103235331D01*
X122314669Y-103144724D01*
X122208127Y-103073535D01*
X122089744Y-103024499D01*
X122089742Y-103024498D01*
X122089737Y-103024497D01*
X121964072Y-102999500D01*
X121964069Y-102999500D01*
X121835931Y-102999500D01*
X121835927Y-102999500D01*
X121710262Y-103024497D01*
X121710257Y-103024498D01*
X121591874Y-103073534D01*
X121485331Y-103144723D01*
X121394723Y-103235331D01*
X121323534Y-103341874D01*
X121274498Y-103460257D01*
X121274497Y-103460262D01*
X121249500Y-103585927D01*
X121249500Y-103714072D01*
X121274497Y-103839737D01*
X121274498Y-103839742D01*
X121299342Y-103899719D01*
X121323535Y-103958127D01*
X121394724Y-104064669D01*
X121485331Y-104155276D01*
X121591873Y-104226465D01*
X121710256Y-104275501D01*
X121710258Y-104275501D01*
X121712563Y-104276201D01*
X121712315Y-104277018D01*
X121741139Y-104296278D01*
X121748454Y-104333060D01*
X121727618Y-104364243D01*
X121700396Y-104372500D01*
X121199500Y-104372500D01*
X121164852Y-104358148D01*
X121150500Y-104323500D01*
X121150499Y-102752120D01*
X121144092Y-102692521D01*
X121144091Y-102692517D01*
X121093796Y-102557669D01*
X121007546Y-102442454D01*
X120949133Y-102398726D01*
X120929997Y-102366473D01*
X120939272Y-102330135D01*
X120971525Y-102310999D01*
X120978498Y-102310500D01*
X121302179Y-102310500D01*
X121302190Y-102310500D01*
X121338493Y-102307643D01*
X121493895Y-102262494D01*
X121509326Y-102253367D01*
X121546453Y-102248082D01*
X121559212Y-102253366D01*
X121590603Y-102271931D01*
X121747825Y-102317609D01*
X121784560Y-102320500D01*
X121784571Y-102320500D01*
X122210429Y-102320500D01*
X122210440Y-102320500D01*
X122247175Y-102317609D01*
X122404397Y-102271931D01*
X122457557Y-102240491D01*
X122494685Y-102235207D01*
X122507439Y-102240490D01*
G37*
G04 #@! TD.AperFunction*
G04 #@! TA.AperFunction,Conductor*
G36*
X111398148Y-102694852D02*
G01*
X111412500Y-102729500D01*
X111412500Y-103638790D01*
X111433413Y-103637145D01*
X111510450Y-103614764D01*
X111547727Y-103618879D01*
X111571175Y-103648147D01*
X111567060Y-103685424D01*
X111563348Y-103691182D01*
X111552805Y-103705265D01*
X111502507Y-103840119D01*
X111496100Y-103899719D01*
X111496100Y-104212760D01*
X111481748Y-104247408D01*
X111447100Y-104261760D01*
X111412452Y-104247408D01*
X111401830Y-104231511D01*
X111356190Y-104121325D01*
X111246753Y-103957539D01*
X111107460Y-103818246D01*
X110943676Y-103708810D01*
X110940556Y-103707518D01*
X110914038Y-103680999D01*
X110914038Y-103660222D01*
X110912500Y-103660222D01*
X110912500Y-102729500D01*
X110926852Y-102694852D01*
X110961500Y-102680500D01*
X111363500Y-102680500D01*
X111398148Y-102694852D01*
G37*
G04 #@! TD.AperFunction*
G04 #@! TA.AperFunction,Conductor*
G36*
X104661671Y-99995042D02*
G01*
X104676023Y-100029690D01*
X104673913Y-100043914D01*
X104632976Y-100178866D01*
X104632976Y-100178867D01*
X104613659Y-100374999D01*
X104613659Y-100375000D01*
X104632976Y-100571132D01*
X104632976Y-100571133D01*
X104690185Y-100759726D01*
X104690186Y-100759727D01*
X104783089Y-100933537D01*
X104783092Y-100933541D01*
X104783094Y-100933544D01*
X104812445Y-100969307D01*
X104823332Y-101005195D01*
X104812446Y-101031478D01*
X104783507Y-101066741D01*
X104690654Y-101240456D01*
X104690649Y-101240468D01*
X104633470Y-101428961D01*
X104633468Y-101428969D01*
X104614161Y-101624999D01*
X104614161Y-101625000D01*
X104633468Y-101821030D01*
X104633470Y-101821038D01*
X104690649Y-102009531D01*
X104690654Y-102009543D01*
X104756922Y-102133522D01*
X104756923Y-102133523D01*
X105324145Y-101566299D01*
X105319000Y-101585504D01*
X105319000Y-101664496D01*
X105339444Y-101740796D01*
X105378940Y-101809205D01*
X105434795Y-101865060D01*
X105503204Y-101904556D01*
X105579504Y-101925000D01*
X105658496Y-101925000D01*
X105677698Y-101919854D01*
X105619000Y-101978553D01*
X105110475Y-102487075D01*
X105234464Y-102553349D01*
X105234462Y-102553349D01*
X105270687Y-102564337D01*
X105299678Y-102588128D01*
X105303354Y-102625450D01*
X105291112Y-102645875D01*
X104625631Y-103311356D01*
X104590983Y-103325708D01*
X104556335Y-103311356D01*
X104542291Y-103282194D01*
X104535368Y-103220750D01*
X104535368Y-103220745D01*
X104475789Y-103050478D01*
X104475788Y-103050477D01*
X104475787Y-103050473D01*
X104385011Y-102906005D01*
X104377500Y-102879935D01*
X104377500Y-100230214D01*
X104391851Y-100195567D01*
X104592377Y-99995040D01*
X104627023Y-99980690D01*
X104661671Y-99995042D01*
G37*
G04 #@! TD.AperFunction*
G04 #@! TA.AperFunction,Conductor*
G36*
X113328942Y-100872291D02*
G01*
X113357669Y-100893796D01*
X113473929Y-100937158D01*
X113492520Y-100944092D01*
X113536177Y-100948785D01*
X113552127Y-100950500D01*
X114047872Y-100950499D01*
X114047878Y-100950499D01*
X114107478Y-100944092D01*
X114107480Y-100944091D01*
X114107483Y-100944091D01*
X114182876Y-100915971D01*
X114217121Y-100915970D01*
X114273932Y-100937159D01*
X114301379Y-100962714D01*
X114302718Y-101000193D01*
X114286172Y-101022295D01*
X114192454Y-101092454D01*
X114106205Y-101207666D01*
X114055907Y-101342520D01*
X114049500Y-101402120D01*
X114049500Y-102417784D01*
X114035148Y-102452432D01*
X113834647Y-102652932D01*
X113799999Y-102667284D01*
X113765351Y-102652932D01*
X113564851Y-102452432D01*
X113550499Y-102417784D01*
X113550499Y-101402120D01*
X113544092Y-101342521D01*
X113539422Y-101330000D01*
X113493796Y-101207669D01*
X113407546Y-101092454D01*
X113326093Y-101031478D01*
X113292332Y-101006204D01*
X113292328Y-101006202D01*
X113239017Y-100986318D01*
X113211569Y-100960763D01*
X113210231Y-100923284D01*
X113235786Y-100895836D01*
X113239025Y-100894494D01*
X113242092Y-100893350D01*
X113270217Y-100872295D01*
X113306554Y-100863018D01*
X113328942Y-100872291D01*
G37*
G04 #@! TD.AperFunction*
G04 #@! TA.AperFunction,Conductor*
G36*
X124407935Y-102216002D02*
G01*
X124503304Y-102272404D01*
X124507935Y-102273750D01*
X124537205Y-102297197D01*
X124541322Y-102334473D01*
X124517875Y-102363743D01*
X124510453Y-102367054D01*
X124496939Y-102371783D01*
X124425055Y-102416951D01*
X124388082Y-102423232D01*
X124369621Y-102414687D01*
X124292090Y-102356647D01*
X124282832Y-102353194D01*
X124255385Y-102327638D01*
X124254048Y-102290158D01*
X124275013Y-102265109D01*
X124358050Y-102216001D01*
X124395177Y-102210717D01*
X124407935Y-102216002D01*
G37*
G04 #@! TD.AperFunction*
G04 #@! TA.AperFunction,Conductor*
G36*
X106579007Y-100897643D02*
G01*
X106615310Y-100900500D01*
X107045451Y-100900500D01*
X107080099Y-100914852D01*
X107085648Y-100920401D01*
X107100000Y-100955049D01*
X107100000Y-101177000D01*
X107193546Y-101177000D01*
X107228194Y-101191352D01*
X107242195Y-101220157D01*
X107244635Y-101240468D01*
X107249650Y-101282229D01*
X107250000Y-101288071D01*
X107250000Y-101740000D01*
X108013265Y-101740000D01*
X108047913Y-101754352D01*
X108062265Y-101789000D01*
X108061957Y-101794486D01*
X108044435Y-101950000D01*
X108064631Y-102129249D01*
X108064634Y-102129261D01*
X108080399Y-102174317D01*
X108078296Y-102211761D01*
X108050332Y-102236750D01*
X108034149Y-102239500D01*
X107750820Y-102239500D01*
X107750815Y-102239501D01*
X107747892Y-102239731D01*
X107746393Y-102239849D01*
X107742552Y-102240000D01*
X107257459Y-102240000D01*
X107253618Y-102239849D01*
X107249188Y-102239500D01*
X106799000Y-102239500D01*
X106764352Y-102225148D01*
X106750000Y-102190500D01*
X106750000Y-101903000D01*
X106649000Y-101903000D01*
X106614352Y-101888648D01*
X106600000Y-101854000D01*
X106600000Y-101330000D01*
X106267553Y-101330000D01*
X105913854Y-101683698D01*
X105919000Y-101664496D01*
X105919000Y-101585504D01*
X105898556Y-101509204D01*
X105859060Y-101440795D01*
X105803205Y-101384940D01*
X105769556Y-101365512D01*
X105815132Y-101361024D01*
X106003727Y-101303814D01*
X106177538Y-101210910D01*
X106329883Y-101085883D01*
X106454910Y-100933538D01*
X106469468Y-100906300D01*
X106498458Y-100882509D01*
X106526352Y-100882345D01*
X106579007Y-100897643D01*
G37*
G04 #@! TD.AperFunction*
G04 #@! TA.AperFunction,Conductor*
G36*
X119838648Y-101184352D02*
G01*
X119853000Y-101219000D01*
X119853000Y-101250000D01*
X120268000Y-101250000D01*
X120302648Y-101264352D01*
X120317000Y-101299000D01*
X120317000Y-101701000D01*
X120302648Y-101735648D01*
X120268000Y-101750000D01*
X119606100Y-101750000D01*
X119571452Y-101735648D01*
X119565687Y-101729883D01*
X119565682Y-101729879D01*
X119426398Y-101647507D01*
X119270992Y-101602356D01*
X119234692Y-101599500D01*
X119234690Y-101599500D01*
X118799000Y-101599500D01*
X118764352Y-101585148D01*
X118750000Y-101550500D01*
X118750000Y-101219000D01*
X118764352Y-101184352D01*
X118799000Y-101170000D01*
X119804000Y-101170000D01*
X119838648Y-101184352D01*
G37*
G04 #@! TD.AperFunction*
G04 #@! TA.AperFunction,Conductor*
G36*
X115952127Y-100950500D02*
G01*
X116447872Y-100950499D01*
X116447877Y-100950499D01*
X116463887Y-100948777D01*
X116483440Y-100946675D01*
X116519423Y-100957240D01*
X116523326Y-100960746D01*
X116618433Y-101055852D01*
X116632785Y-101090500D01*
X116618433Y-101125148D01*
X116583785Y-101139500D01*
X116190307Y-101139500D01*
X116154008Y-101142356D01*
X116154004Y-101142357D01*
X116055895Y-101170860D01*
X116018619Y-101166745D01*
X116002999Y-101153171D01*
X115997645Y-101146019D01*
X115957546Y-101092454D01*
X115908652Y-101055852D01*
X115880013Y-101034412D01*
X115860877Y-101002159D01*
X115870152Y-100965821D01*
X115902405Y-100946685D01*
X115914616Y-100946467D01*
X115952127Y-100950500D01*
G37*
G04 #@! TD.AperFunction*
G04 #@! TA.AperFunction,Conductor*
G36*
X112885648Y-99064851D02*
G01*
X112900000Y-99099499D01*
X112900000Y-100301000D01*
X112885648Y-100335648D01*
X112851000Y-100350000D01*
X111900241Y-100350000D01*
X111865593Y-100335648D01*
X111861202Y-100330613D01*
X111804353Y-100255647D01*
X111717843Y-100190043D01*
X111684871Y-100165039D01*
X111684869Y-100165038D01*
X111545369Y-100110027D01*
X111545367Y-100110026D01*
X111545363Y-100110025D01*
X111545364Y-100110025D01*
X111457713Y-100099500D01*
X111457710Y-100099500D01*
X110112290Y-100099500D01*
X110112287Y-100099500D01*
X110024635Y-100110025D01*
X109885128Y-100165039D01*
X109765647Y-100255647D01*
X109675039Y-100375128D01*
X109645584Y-100449823D01*
X109619522Y-100476790D01*
X109582024Y-100477431D01*
X109555057Y-100451369D01*
X109554427Y-100449852D01*
X109551446Y-100442293D01*
X109551446Y-100406341D01*
X109579483Y-100335244D01*
X109590000Y-100247670D01*
X109590000Y-100200000D01*
X109377451Y-100200000D01*
X109347843Y-100190043D01*
X109314871Y-100165039D01*
X109314869Y-100165038D01*
X109175369Y-100110027D01*
X109175367Y-100110026D01*
X109175363Y-100110025D01*
X109175364Y-100110025D01*
X109087713Y-100099500D01*
X109087710Y-100099500D01*
X108214000Y-100099500D01*
X108179352Y-100085148D01*
X108165000Y-100050500D01*
X108165000Y-99911500D01*
X108179352Y-99876852D01*
X108214000Y-99862500D01*
X108241800Y-99862500D01*
X108241803Y-99862500D01*
X108363035Y-99838386D01*
X108445493Y-99804229D01*
X108464245Y-99800500D01*
X109087713Y-99800500D01*
X109175364Y-99789974D01*
X109175365Y-99789973D01*
X109175369Y-99789973D01*
X109314869Y-99734962D01*
X109347843Y-99709957D01*
X109377451Y-99700000D01*
X109589999Y-99700000D01*
X109589999Y-99652338D01*
X109579481Y-99564750D01*
X109551446Y-99493658D01*
X109551445Y-99457711D01*
X109554417Y-99450174D01*
X109580475Y-99423210D01*
X109617973Y-99422567D01*
X109644941Y-99448628D01*
X109645583Y-99450176D01*
X109675039Y-99524871D01*
X109705281Y-99564750D01*
X109765647Y-99644353D01*
X109885131Y-99734962D01*
X110024631Y-99789973D01*
X110024634Y-99789973D01*
X110024636Y-99789974D01*
X110024635Y-99789974D01*
X110112287Y-99800500D01*
X110112290Y-99800500D01*
X111457713Y-99800500D01*
X111545364Y-99789974D01*
X111545365Y-99789973D01*
X111545369Y-99789973D01*
X111684869Y-99734962D01*
X111721392Y-99707264D01*
X111757671Y-99697764D01*
X111790043Y-99716700D01*
X111800000Y-99746308D01*
X111800000Y-99850000D01*
X112400000Y-99850000D01*
X112400000Y-99256000D01*
X112414352Y-99221352D01*
X112449000Y-99207000D01*
X112500000Y-99207000D01*
X112500000Y-99099499D01*
X112514352Y-99064851D01*
X112548998Y-99050499D01*
X112851000Y-99050499D01*
X112885648Y-99064851D01*
G37*
G04 #@! TD.AperFunction*
G04 #@! TA.AperFunction,Conductor*
G36*
X108576018Y-89852640D02*
G01*
X108610659Y-89867001D01*
X108625000Y-89901639D01*
X108625000Y-90010000D01*
X110625000Y-90010000D01*
X110625000Y-89902288D01*
X110639352Y-89867640D01*
X110673997Y-89853289D01*
X111751017Y-89853621D01*
X111785659Y-89867983D01*
X111800000Y-89902621D01*
X111800000Y-89950000D01*
X113494000Y-89950000D01*
X113528648Y-89964352D01*
X113543000Y-89999000D01*
X113543000Y-90050000D01*
X123657000Y-90050000D01*
X123657000Y-89999000D01*
X123671352Y-89964352D01*
X123706000Y-89950000D01*
X124751000Y-89950000D01*
X124785648Y-89964352D01*
X124800000Y-89999000D01*
X124800000Y-90400500D01*
X124785648Y-90435148D01*
X124751000Y-90449500D01*
X124052129Y-90449500D01*
X124050758Y-90449648D01*
X124050096Y-90449719D01*
X124044860Y-90450000D01*
X123600000Y-90450000D01*
X123600000Y-90894848D01*
X123599719Y-90900090D01*
X123599500Y-90902125D01*
X123599500Y-91397879D01*
X123605908Y-91457479D01*
X123634028Y-91532877D01*
X123634028Y-91567123D01*
X123605908Y-91642519D01*
X123605907Y-91642521D01*
X123599500Y-91702120D01*
X123599500Y-92197879D01*
X123605908Y-92257479D01*
X123634028Y-92332877D01*
X123634028Y-92367123D01*
X123605908Y-92442519D01*
X123605907Y-92442521D01*
X123599500Y-92502120D01*
X123599500Y-92997879D01*
X123605908Y-93057479D01*
X123634028Y-93132877D01*
X123634028Y-93167123D01*
X123605908Y-93242519D01*
X123605907Y-93242521D01*
X123599500Y-93302120D01*
X123599500Y-93797879D01*
X123605908Y-93857479D01*
X123605908Y-93857481D01*
X123605909Y-93857483D01*
X123613894Y-93878892D01*
X123634028Y-93932877D01*
X123634028Y-93967123D01*
X123605908Y-94042519D01*
X123605907Y-94042521D01*
X123599500Y-94102120D01*
X123599500Y-94597879D01*
X123605908Y-94657479D01*
X123634028Y-94732877D01*
X123634028Y-94767123D01*
X123605908Y-94842519D01*
X123605907Y-94842521D01*
X123599500Y-94902120D01*
X123599500Y-95397879D01*
X123605908Y-95457479D01*
X123634028Y-95532877D01*
X123634028Y-95567123D01*
X123605908Y-95642519D01*
X123605907Y-95642521D01*
X123599500Y-95702120D01*
X123599500Y-96197879D01*
X123605908Y-96257479D01*
X123605908Y-96257481D01*
X123605909Y-96257483D01*
X123613975Y-96279110D01*
X123634028Y-96332877D01*
X123634028Y-96367123D01*
X123605908Y-96442519D01*
X123605907Y-96442521D01*
X123599500Y-96502120D01*
X123599500Y-96997879D01*
X123605908Y-97057479D01*
X123605908Y-97057481D01*
X123605909Y-97057483D01*
X123618054Y-97090048D01*
X123634028Y-97132877D01*
X123634028Y-97167123D01*
X123605908Y-97242519D01*
X123605907Y-97242521D01*
X123599500Y-97302120D01*
X123599500Y-97797879D01*
X123605908Y-97857479D01*
X123634028Y-97932877D01*
X123634028Y-97967123D01*
X123605908Y-98042519D01*
X123605907Y-98042521D01*
X123599500Y-98102120D01*
X123599500Y-98156873D01*
X123585148Y-98191521D01*
X123550500Y-98205873D01*
X123534317Y-98203124D01*
X123530375Y-98201744D01*
X123493060Y-98188688D01*
X123493056Y-98188687D01*
X123493048Y-98188685D01*
X123490984Y-98188453D01*
X123461829Y-98174410D01*
X123400008Y-98112589D01*
X123384350Y-98102127D01*
X123297233Y-98043917D01*
X123297230Y-98043915D01*
X123297229Y-98043915D01*
X123263784Y-98030062D01*
X123183038Y-97996615D01*
X123183032Y-97996613D01*
X123134142Y-97986888D01*
X123061803Y-97972500D01*
X122261803Y-97972500D01*
X122138196Y-97972500D01*
X122138192Y-97972500D01*
X122016972Y-97996612D01*
X122016965Y-97996614D01*
X121902770Y-98043915D01*
X121799992Y-98112588D01*
X121312588Y-98599992D01*
X121243916Y-98702768D01*
X121232713Y-98729816D01*
X121196615Y-98816961D01*
X121196613Y-98816967D01*
X121178991Y-98905565D01*
X121172500Y-98938199D01*
X121172500Y-99100500D01*
X121158148Y-99135148D01*
X121123500Y-99149500D01*
X120752120Y-99149500D01*
X120692520Y-99155908D01*
X120617123Y-99184028D01*
X120582877Y-99184028D01*
X120507480Y-99155908D01*
X120507478Y-99155907D01*
X120447879Y-99149500D01*
X119952120Y-99149500D01*
X119892520Y-99155908D01*
X119817123Y-99184028D01*
X119782877Y-99184028D01*
X119707480Y-99155908D01*
X119707478Y-99155907D01*
X119647879Y-99149500D01*
X119647873Y-99149500D01*
X119393347Y-99149500D01*
X119358699Y-99135148D01*
X119344655Y-99105986D01*
X119343924Y-99099499D01*
X119336313Y-99031941D01*
X119280456Y-98872310D01*
X119190477Y-98729110D01*
X119070890Y-98609523D01*
X118927690Y-98519544D01*
X118768059Y-98463687D01*
X118768055Y-98463686D01*
X118768053Y-98463686D01*
X118600000Y-98444751D01*
X118431946Y-98463686D01*
X118431937Y-98463688D01*
X118272306Y-98519545D01*
X118223094Y-98550467D01*
X118186121Y-98556748D01*
X118170957Y-98550468D01*
X118094689Y-98502545D01*
X118014873Y-98474616D01*
X117935061Y-98446689D01*
X117935060Y-98446688D01*
X117935058Y-98446688D01*
X117935054Y-98446687D01*
X117935052Y-98446687D01*
X117766999Y-98427752D01*
X117598945Y-98446687D01*
X117598936Y-98446689D01*
X117439309Y-98502545D01*
X117439307Y-98502546D01*
X117296111Y-98592522D01*
X117296107Y-98592525D01*
X117176523Y-98712109D01*
X117176520Y-98712113D01*
X117086544Y-98855309D01*
X117086543Y-98855311D01*
X117036067Y-98999563D01*
X117011077Y-99027527D01*
X116973633Y-99029629D01*
X116945669Y-99004639D01*
X116941125Y-98988865D01*
X116940317Y-98981699D01*
X116936313Y-98946159D01*
X116880456Y-98786528D01*
X116790477Y-98643328D01*
X116670890Y-98523741D01*
X116527690Y-98433762D01*
X116368059Y-98377905D01*
X116368055Y-98377904D01*
X116368053Y-98377904D01*
X116200000Y-98358969D01*
X116031946Y-98377904D01*
X116031942Y-98377904D01*
X116031941Y-98377905D01*
X116031938Y-98377905D01*
X116031934Y-98377907D01*
X115872317Y-98433758D01*
X115871347Y-98434226D01*
X115870912Y-98434250D01*
X115869713Y-98434670D01*
X115869592Y-98434324D01*
X115833903Y-98436328D01*
X115824017Y-98431567D01*
X115731721Y-98373572D01*
X115572089Y-98317715D01*
X115572088Y-98317714D01*
X115572086Y-98317714D01*
X115572082Y-98317713D01*
X115572080Y-98317713D01*
X115404027Y-98298778D01*
X115235973Y-98317713D01*
X115235964Y-98317715D01*
X115076339Y-98373570D01*
X115076333Y-98373573D01*
X114947010Y-98454831D01*
X114939694Y-98458610D01*
X114899816Y-98475130D01*
X114899815Y-98475131D01*
X114844741Y-98497943D01*
X114802003Y-98526500D01*
X114741965Y-98566615D01*
X114536584Y-98771996D01*
X114501936Y-98786348D01*
X114467288Y-98771996D01*
X114452936Y-98737348D01*
X114455685Y-98721167D01*
X114503312Y-98585058D01*
X114522248Y-98416999D01*
X114503312Y-98248940D01*
X114447455Y-98089309D01*
X114357476Y-97946109D01*
X114237889Y-97826522D01*
X114094689Y-97736543D01*
X113935058Y-97680686D01*
X113935054Y-97680685D01*
X113935052Y-97680685D01*
X113766999Y-97661750D01*
X113654985Y-97674370D01*
X113618948Y-97663987D01*
X113600807Y-97631164D01*
X113600499Y-97625678D01*
X113600499Y-97537601D01*
X113614851Y-97502953D01*
X113649499Y-97488601D01*
X113654976Y-97488908D01*
X113800000Y-97505249D01*
X113968059Y-97486313D01*
X114127690Y-97430456D01*
X114270890Y-97340477D01*
X114390477Y-97220890D01*
X114480456Y-97077690D01*
X114536313Y-96918059D01*
X114555249Y-96750000D01*
X114536313Y-96581941D01*
X114480456Y-96422310D01*
X114390477Y-96279110D01*
X114368548Y-96257181D01*
X114354196Y-96222533D01*
X114368548Y-96187885D01*
X114403196Y-96173533D01*
X114429266Y-96181044D01*
X114500473Y-96225787D01*
X114500477Y-96225788D01*
X114500478Y-96225789D01*
X114670745Y-96285368D01*
X114850000Y-96305565D01*
X115029255Y-96285368D01*
X115199522Y-96225789D01*
X115199524Y-96225787D01*
X115199526Y-96225787D01*
X115270733Y-96181044D01*
X115352262Y-96129816D01*
X115479816Y-96002262D01*
X115561273Y-95872624D01*
X115575787Y-95849526D01*
X115575787Y-95849524D01*
X115575789Y-95849522D01*
X115635368Y-95679255D01*
X115655565Y-95500000D01*
X115635368Y-95320745D01*
X115575789Y-95150478D01*
X115575788Y-95150477D01*
X115575787Y-95150473D01*
X115485011Y-95006005D01*
X115477500Y-94979935D01*
X115477500Y-93588197D01*
X115477499Y-93588193D01*
X115467342Y-93537132D01*
X115467342Y-93537131D01*
X115465398Y-93527359D01*
X115453386Y-93466966D01*
X115417287Y-93379816D01*
X115406083Y-93352767D01*
X115337411Y-93249992D01*
X115250008Y-93162589D01*
X114813644Y-92726225D01*
X114799600Y-92697063D01*
X114791728Y-92627193D01*
X114785368Y-92570745D01*
X114725789Y-92400478D01*
X114725788Y-92400477D01*
X114725787Y-92400473D01*
X114629817Y-92247740D01*
X114629816Y-92247738D01*
X114502262Y-92120184D01*
X114498019Y-92117518D01*
X114349526Y-92024212D01*
X114179258Y-91964633D01*
X114179257Y-91964632D01*
X114179255Y-91964632D01*
X114179251Y-91964631D01*
X114179249Y-91964631D01*
X114000000Y-91944435D01*
X113820750Y-91964631D01*
X113820741Y-91964633D01*
X113650473Y-92024212D01*
X113506006Y-92114989D01*
X113479936Y-92122500D01*
X113380409Y-92122500D01*
X113351045Y-92112727D01*
X113342331Y-92106204D01*
X113285244Y-92084912D01*
X113207479Y-92055907D01*
X113147879Y-92049500D01*
X112549000Y-92049500D01*
X112514352Y-92035148D01*
X112500000Y-92000500D01*
X112500000Y-91750000D01*
X112900000Y-91750000D01*
X113600000Y-91750000D01*
X113600000Y-91702165D01*
X113593598Y-91642623D01*
X113565438Y-91567124D01*
X113565438Y-91532876D01*
X113593598Y-91457376D01*
X113600000Y-91397834D01*
X113600000Y-91350000D01*
X112900000Y-91350000D01*
X112900000Y-91750000D01*
X112500000Y-91750000D01*
X112500000Y-91150000D01*
X114000000Y-91150000D01*
X114047835Y-91150000D01*
X114107376Y-91143598D01*
X114182876Y-91115438D01*
X114217124Y-91115438D01*
X114292623Y-91143598D01*
X114352165Y-91150000D01*
X114400000Y-91150000D01*
X114800000Y-91150000D01*
X114847835Y-91150000D01*
X114907376Y-91143598D01*
X114982876Y-91115438D01*
X115017124Y-91115438D01*
X115092623Y-91143598D01*
X115152165Y-91150000D01*
X115200000Y-91150000D01*
X115600000Y-91150000D01*
X115647835Y-91150000D01*
X115707376Y-91143598D01*
X115782876Y-91115438D01*
X115817124Y-91115438D01*
X115892623Y-91143598D01*
X115952165Y-91150000D01*
X116000000Y-91150000D01*
X116400000Y-91150000D01*
X116447835Y-91150000D01*
X116507376Y-91143598D01*
X116582876Y-91115438D01*
X116617124Y-91115438D01*
X116692623Y-91143598D01*
X116752165Y-91150000D01*
X116800000Y-91150000D01*
X117200000Y-91150000D01*
X117247835Y-91150000D01*
X117307376Y-91143598D01*
X117382876Y-91115438D01*
X117417124Y-91115438D01*
X117492623Y-91143598D01*
X117552165Y-91150000D01*
X117600000Y-91150000D01*
X118000000Y-91150000D01*
X118047835Y-91150000D01*
X118107376Y-91143598D01*
X118182876Y-91115438D01*
X118217124Y-91115438D01*
X118292623Y-91143598D01*
X118352165Y-91150000D01*
X118400000Y-91150000D01*
X118800000Y-91150000D01*
X118847835Y-91150000D01*
X118907376Y-91143598D01*
X118982876Y-91115438D01*
X119017124Y-91115438D01*
X119092623Y-91143598D01*
X119152165Y-91150000D01*
X119200000Y-91150000D01*
X119600000Y-91150000D01*
X119647835Y-91150000D01*
X119707376Y-91143598D01*
X119782876Y-91115438D01*
X119817124Y-91115438D01*
X119892623Y-91143598D01*
X119952165Y-91150000D01*
X120000000Y-91150000D01*
X120400000Y-91150000D01*
X120447835Y-91150000D01*
X120507376Y-91143598D01*
X120582876Y-91115438D01*
X120617124Y-91115438D01*
X120692623Y-91143598D01*
X120752165Y-91150000D01*
X120800000Y-91150000D01*
X121200000Y-91150000D01*
X121247835Y-91150000D01*
X121307376Y-91143598D01*
X121382876Y-91115438D01*
X121417124Y-91115438D01*
X121492623Y-91143598D01*
X121552165Y-91150000D01*
X121600000Y-91150000D01*
X122000000Y-91150000D01*
X122047835Y-91150000D01*
X122107376Y-91143598D01*
X122182876Y-91115438D01*
X122217124Y-91115438D01*
X122292623Y-91143598D01*
X122352165Y-91150000D01*
X122400000Y-91150000D01*
X122800000Y-91150000D01*
X122847835Y-91150000D01*
X122907376Y-91143598D01*
X122982876Y-91115438D01*
X123017124Y-91115438D01*
X123092623Y-91143598D01*
X123152165Y-91150000D01*
X123200000Y-91150000D01*
X123200000Y-90450000D01*
X122800000Y-90450000D01*
X122800000Y-91150000D01*
X122400000Y-91150000D01*
X122400000Y-90450000D01*
X122000000Y-90450000D01*
X122000000Y-91150000D01*
X121600000Y-91150000D01*
X121600000Y-90450000D01*
X121200000Y-90450000D01*
X121200000Y-91150000D01*
X120800000Y-91150000D01*
X120800000Y-90450000D01*
X120400000Y-90450000D01*
X120400000Y-91150000D01*
X120000000Y-91150000D01*
X120000000Y-90450000D01*
X119600000Y-90450000D01*
X119600000Y-91150000D01*
X119200000Y-91150000D01*
X119200000Y-90450000D01*
X118800000Y-90450000D01*
X118800000Y-91150000D01*
X118400000Y-91150000D01*
X118400000Y-90450000D01*
X118000000Y-90450000D01*
X118000000Y-91150000D01*
X117600000Y-91150000D01*
X117600000Y-90450000D01*
X117200000Y-90450000D01*
X117200000Y-91150000D01*
X116800000Y-91150000D01*
X116800000Y-90450000D01*
X116400000Y-90450000D01*
X116400000Y-91150000D01*
X116000000Y-91150000D01*
X116000000Y-90450000D01*
X115600000Y-90450000D01*
X115600000Y-91150000D01*
X115200000Y-91150000D01*
X115200000Y-90450000D01*
X114800000Y-90450000D01*
X114800000Y-91150000D01*
X114400000Y-91150000D01*
X114400000Y-90450000D01*
X114000000Y-90450000D01*
X114000000Y-91150000D01*
X112500000Y-91150000D01*
X112500000Y-91093000D01*
X112449000Y-91093000D01*
X112414352Y-91078648D01*
X112400000Y-91044000D01*
X112400000Y-90950000D01*
X112900000Y-90950000D01*
X113600000Y-90950000D01*
X113600000Y-90450000D01*
X112900000Y-90450000D01*
X112900000Y-90950000D01*
X112400000Y-90950000D01*
X112400000Y-90450000D01*
X111800000Y-90450000D01*
X111800000Y-90597834D01*
X111806401Y-90657373D01*
X111819249Y-90691822D01*
X111817910Y-90729301D01*
X111790461Y-90754856D01*
X111752982Y-90753517D01*
X111738690Y-90743593D01*
X111715378Y-90720281D01*
X111715373Y-90720277D01*
X111576198Y-90637969D01*
X111420913Y-90592854D01*
X111400000Y-90591208D01*
X111400000Y-91500500D01*
X111385648Y-91535148D01*
X111351000Y-91549500D01*
X110949000Y-91549500D01*
X110914352Y-91535148D01*
X110900000Y-91500500D01*
X110900000Y-90591209D01*
X110899999Y-90591208D01*
X110879086Y-90592854D01*
X110879085Y-90592854D01*
X110723803Y-90637968D01*
X110698943Y-90652671D01*
X110661814Y-90657956D01*
X110631824Y-90635438D01*
X110625000Y-90610495D01*
X110625000Y-90510000D01*
X109875000Y-90510000D01*
X109875000Y-91160000D01*
X110172835Y-91160000D01*
X110232374Y-91153598D01*
X110273875Y-91138119D01*
X110311354Y-91139457D01*
X110336910Y-91166904D01*
X110340000Y-91184029D01*
X110340000Y-91265969D01*
X110325648Y-91300617D01*
X110291000Y-91314969D01*
X110273877Y-91311880D01*
X110232376Y-91296402D01*
X110232372Y-91296401D01*
X110172834Y-91290000D01*
X109875000Y-91290000D01*
X109875000Y-92391000D01*
X109860648Y-92425648D01*
X109826000Y-92440000D01*
X109424000Y-92440000D01*
X109389352Y-92425648D01*
X109375000Y-92391000D01*
X109375000Y-91290000D01*
X109077166Y-91290000D01*
X109017627Y-91296401D01*
X109017626Y-91296401D01*
X108882908Y-91346648D01*
X108767811Y-91432811D01*
X108681648Y-91547908D01*
X108631401Y-91682624D01*
X108630699Y-91685601D01*
X108629150Y-91685235D01*
X108613630Y-91713655D01*
X108582886Y-91724500D01*
X108075402Y-91724500D01*
X108040754Y-91710148D01*
X108026402Y-91675500D01*
X108034660Y-91648277D01*
X108068583Y-91597506D01*
X108095775Y-91556811D01*
X108148580Y-91429328D01*
X108175500Y-91293993D01*
X108175500Y-91156007D01*
X108148580Y-91020672D01*
X108095775Y-90893189D01*
X108049613Y-90824102D01*
X108019116Y-90778460D01*
X107948490Y-90707834D01*
X108625000Y-90707834D01*
X108631401Y-90767372D01*
X108631401Y-90767373D01*
X108681648Y-90902091D01*
X108767811Y-91017188D01*
X108882908Y-91103351D01*
X109017626Y-91153598D01*
X109077166Y-91160000D01*
X109375000Y-91160000D01*
X109375000Y-90510000D01*
X108625000Y-90510000D01*
X108625000Y-90707834D01*
X107948490Y-90707834D01*
X107921539Y-90680883D01*
X107853074Y-90635137D01*
X107806811Y-90604225D01*
X107806808Y-90604223D01*
X107806807Y-90604223D01*
X107679329Y-90551420D01*
X107679318Y-90551417D01*
X107543998Y-90524500D01*
X107543993Y-90524500D01*
X107406007Y-90524500D01*
X107406001Y-90524500D01*
X107270681Y-90551417D01*
X107270670Y-90551420D01*
X107143192Y-90604223D01*
X107028460Y-90680883D01*
X106930883Y-90778460D01*
X106854223Y-90893192D01*
X106801420Y-91020670D01*
X106801417Y-91020681D01*
X106774500Y-91156001D01*
X106774500Y-91293998D01*
X106801417Y-91429318D01*
X106801420Y-91429329D01*
X106852380Y-91552357D01*
X106854225Y-91556811D01*
X106861116Y-91567124D01*
X106930883Y-91671539D01*
X107028460Y-91769116D01*
X107046553Y-91781205D01*
X107143189Y-91845775D01*
X107270672Y-91898580D01*
X107392841Y-91922881D01*
X107424023Y-91943716D01*
X107431340Y-91980498D01*
X107429192Y-91988062D01*
X107380908Y-92117518D01*
X107374500Y-92177120D01*
X107374500Y-92578193D01*
X107360148Y-92612841D01*
X107325500Y-92627193D01*
X107290852Y-92612841D01*
X107247891Y-92569880D01*
X107247887Y-92569877D01*
X107194803Y-92536522D01*
X107104690Y-92479900D01*
X106945059Y-92424043D01*
X106945055Y-92424042D01*
X106945053Y-92424042D01*
X106777000Y-92405107D01*
X106608946Y-92424042D01*
X106608937Y-92424044D01*
X106478317Y-92469750D01*
X106462133Y-92472500D01*
X106124499Y-92472500D01*
X106089851Y-92458148D01*
X106075499Y-92423500D01*
X106075499Y-92177120D01*
X106069092Y-92117521D01*
X106067304Y-92112727D01*
X106018796Y-91982669D01*
X106005293Y-91964632D01*
X105986854Y-91940000D01*
X105932546Y-91867454D01*
X105863314Y-91815627D01*
X105817333Y-91781205D01*
X105817331Y-91781204D01*
X105733669Y-91750000D01*
X105682479Y-91730907D01*
X105622879Y-91724500D01*
X105622873Y-91724500D01*
X105075402Y-91724500D01*
X105040754Y-91710148D01*
X105026402Y-91675500D01*
X105034660Y-91648277D01*
X105068583Y-91597506D01*
X105095775Y-91556811D01*
X105148580Y-91429328D01*
X105175500Y-91293993D01*
X105175500Y-91156007D01*
X105148580Y-91020672D01*
X105095775Y-90893189D01*
X105049613Y-90824102D01*
X105019116Y-90778460D01*
X104921539Y-90680883D01*
X104853074Y-90635137D01*
X104806811Y-90604225D01*
X104806808Y-90604223D01*
X104806807Y-90604223D01*
X104679329Y-90551420D01*
X104679318Y-90551417D01*
X104543998Y-90524500D01*
X104543993Y-90524500D01*
X104406007Y-90524500D01*
X104406001Y-90524500D01*
X104270681Y-90551417D01*
X104270670Y-90551420D01*
X104143192Y-90604223D01*
X104028460Y-90680883D01*
X103930883Y-90778460D01*
X103854223Y-90893192D01*
X103801420Y-91020670D01*
X103801417Y-91020681D01*
X103774500Y-91156001D01*
X103774500Y-91293998D01*
X103801417Y-91429318D01*
X103801420Y-91429329D01*
X103852380Y-91552357D01*
X103854225Y-91556811D01*
X103861116Y-91567124D01*
X103915340Y-91648277D01*
X103922656Y-91685060D01*
X103901821Y-91716242D01*
X103874598Y-91724500D01*
X103367114Y-91724500D01*
X103332466Y-91710148D01*
X103320589Y-91685303D01*
X103319303Y-91685607D01*
X103318598Y-91682626D01*
X103268351Y-91547908D01*
X103182188Y-91432811D01*
X103067091Y-91346648D01*
X102932373Y-91296401D01*
X102872834Y-91290000D01*
X102575000Y-91290000D01*
X102575000Y-93090000D01*
X102825500Y-93090000D01*
X102860148Y-93104352D01*
X102874500Y-93139000D01*
X102874500Y-93772879D01*
X102880907Y-93832478D01*
X102892829Y-93864442D01*
X102931126Y-93967123D01*
X102931205Y-93967333D01*
X102942784Y-93982800D01*
X103017454Y-94082546D01*
X103132669Y-94168796D01*
X103267517Y-94219091D01*
X103267520Y-94219092D01*
X103311177Y-94223785D01*
X103327127Y-94225500D01*
X103667784Y-94225499D01*
X103702432Y-94239851D01*
X104174994Y-94712413D01*
X104277769Y-94781085D01*
X104390284Y-94827690D01*
X104391967Y-94828387D01*
X104391976Y-94828389D01*
X104486059Y-94847104D01*
X104517242Y-94867939D01*
X104525500Y-94895162D01*
X104525500Y-95331579D01*
X104511148Y-95366227D01*
X104476500Y-95380579D01*
X104441852Y-95366227D01*
X104434065Y-95356079D01*
X104419920Y-95331579D01*
X104400273Y-95297550D01*
X104400268Y-95297543D01*
X104400264Y-95297537D01*
X104256596Y-95110306D01*
X104256586Y-95110294D01*
X104089705Y-94943413D01*
X104089693Y-94943403D01*
X103902462Y-94799735D01*
X103902447Y-94799725D01*
X103698050Y-94681716D01*
X103479996Y-94591395D01*
X103479986Y-94591391D01*
X103252025Y-94530309D01*
X103252018Y-94530308D01*
X103252014Y-94530307D01*
X103018011Y-94499500D01*
X102781989Y-94499500D01*
X102547986Y-94530307D01*
X102547982Y-94530307D01*
X102547974Y-94530309D01*
X102320013Y-94591391D01*
X102320003Y-94591395D01*
X102101949Y-94681716D01*
X101897552Y-94799725D01*
X101897537Y-94799735D01*
X101710306Y-94943403D01*
X101710294Y-94943413D01*
X101543413Y-95110294D01*
X101543403Y-95110306D01*
X101399735Y-95297537D01*
X101399725Y-95297552D01*
X101281716Y-95501949D01*
X101244770Y-95591146D01*
X101218251Y-95617664D01*
X101180748Y-95617664D01*
X101154230Y-95591145D01*
X101150500Y-95572394D01*
X101150500Y-92637834D01*
X101325000Y-92637834D01*
X101331401Y-92697372D01*
X101331401Y-92697373D01*
X101381648Y-92832091D01*
X101467811Y-92947188D01*
X101582908Y-93033351D01*
X101717626Y-93083598D01*
X101777166Y-93090000D01*
X102075000Y-93090000D01*
X102075000Y-92440000D01*
X101325000Y-92440000D01*
X101325000Y-92637834D01*
X101150500Y-92637834D01*
X101150500Y-91742165D01*
X101325000Y-91742165D01*
X101325000Y-91940000D01*
X102075000Y-91940000D01*
X102075000Y-91290000D01*
X101777166Y-91290000D01*
X101717627Y-91296401D01*
X101717626Y-91296401D01*
X101582908Y-91346648D01*
X101467811Y-91432811D01*
X101381648Y-91547908D01*
X101331401Y-91682626D01*
X101331401Y-91682627D01*
X101325000Y-91742165D01*
X101150500Y-91742165D01*
X101150500Y-90707834D01*
X101325000Y-90707834D01*
X101331401Y-90767372D01*
X101331401Y-90767373D01*
X101381648Y-90902091D01*
X101467811Y-91017188D01*
X101582908Y-91103351D01*
X101717626Y-91153598D01*
X101777166Y-91160000D01*
X102075000Y-91160000D01*
X102575000Y-91160000D01*
X102872834Y-91160000D01*
X102932372Y-91153598D01*
X102932373Y-91153598D01*
X103067091Y-91103351D01*
X103182188Y-91017188D01*
X103268351Y-90902091D01*
X103318598Y-90767373D01*
X103318598Y-90767372D01*
X103325000Y-90707834D01*
X103325000Y-90510000D01*
X102575000Y-90510000D01*
X102575000Y-91160000D01*
X102075000Y-91160000D01*
X102075000Y-90510000D01*
X101325000Y-90510000D01*
X101325000Y-90707834D01*
X101150500Y-90707834D01*
X101150500Y-90352752D01*
X101150808Y-90347266D01*
X101162406Y-90244332D01*
X101164848Y-90233637D01*
X101198145Y-90138477D01*
X101202897Y-90128610D01*
X101256541Y-90043235D01*
X101263372Y-90034669D01*
X101273692Y-90024349D01*
X101308338Y-90010000D01*
X103325000Y-90010000D01*
X103325000Y-89900032D01*
X103339352Y-89865384D01*
X103373997Y-89851032D01*
X108576018Y-89852640D01*
G37*
G04 #@! TD.AperFunction*
G04 #@! TA.AperFunction,Conductor*
G36*
X107552349Y-94108669D02*
G01*
X107590243Y-94137036D01*
X107632669Y-94168796D01*
X107767517Y-94219091D01*
X107767520Y-94219092D01*
X107811177Y-94223785D01*
X107827127Y-94225500D01*
X108547251Y-94225499D01*
X108581899Y-94239851D01*
X108594305Y-94260828D01*
X108617132Y-94339396D01*
X108698861Y-94477593D01*
X108698865Y-94477598D01*
X108812402Y-94591135D01*
X108812404Y-94591136D01*
X108860967Y-94619856D01*
X108883485Y-94649846D01*
X108878200Y-94686975D01*
X108875250Y-94691397D01*
X108791205Y-94803665D01*
X108740907Y-94938519D01*
X108734500Y-94998119D01*
X108734500Y-95601878D01*
X108740907Y-95661477D01*
X108791205Y-95796332D01*
X108877453Y-95911544D01*
X108877454Y-95911545D01*
X108912175Y-95937537D01*
X108931312Y-95969789D01*
X108931503Y-95982249D01*
X108912760Y-96148603D01*
X108932956Y-96327853D01*
X108932959Y-96327865D01*
X108981834Y-96467545D01*
X108979731Y-96504989D01*
X108964949Y-96522954D01*
X108938304Y-96542901D01*
X108901967Y-96552176D01*
X108882869Y-96545164D01*
X108849526Y-96524212D01*
X108679258Y-96464633D01*
X108679257Y-96464632D01*
X108679255Y-96464632D01*
X108679251Y-96464631D01*
X108679249Y-96464631D01*
X108500000Y-96444435D01*
X108320750Y-96464631D01*
X108320746Y-96464631D01*
X108320745Y-96464632D01*
X108320742Y-96464632D01*
X108320738Y-96464634D01*
X108227526Y-96497250D01*
X108211343Y-96500000D01*
X108210261Y-96500000D01*
X108193138Y-96496911D01*
X108072481Y-96451909D01*
X108012879Y-96445501D01*
X108012873Y-96445501D01*
X107103600Y-96445501D01*
X107068952Y-96431149D01*
X107054600Y-96396501D01*
X107054600Y-96103498D01*
X107068952Y-96068850D01*
X107103600Y-96054498D01*
X108012878Y-96054498D01*
X108048638Y-96050653D01*
X108072483Y-96048090D01*
X108171685Y-96011090D01*
X108193138Y-96003089D01*
X108210261Y-96000000D01*
X108465000Y-96000000D01*
X108465000Y-95948165D01*
X108458598Y-95888627D01*
X108458598Y-95888626D01*
X108422871Y-95792837D01*
X108422872Y-95758589D01*
X108437263Y-95720007D01*
X108459091Y-95661482D01*
X108465500Y-95601872D01*
X108465499Y-94998127D01*
X108465499Y-94998126D01*
X108465499Y-94998119D01*
X108459092Y-94938520D01*
X108459091Y-94938516D01*
X108408796Y-94803668D01*
X108322546Y-94688453D01*
X108253314Y-94636626D01*
X108207333Y-94602204D01*
X108207331Y-94602203D01*
X108133120Y-94574524D01*
X108072479Y-94551906D01*
X108012879Y-94545499D01*
X108012873Y-94545499D01*
X107604165Y-94545499D01*
X107569517Y-94531147D01*
X107555473Y-94501985D01*
X107544461Y-94404257D01*
X107536313Y-94331941D01*
X107480456Y-94172310D01*
X107480451Y-94172303D01*
X107479261Y-94169829D01*
X107480688Y-94169141D01*
X107475202Y-94137036D01*
X107496876Y-94106430D01*
X107533843Y-94100113D01*
X107552349Y-94108669D01*
G37*
G04 #@! TD.AperFunction*
M02*
