%TF.GenerationSoftware,KiCad,Pcbnew,8.0.6-8.0.6-0~ubuntu24.04.1*%
%TF.CreationDate,2024-11-07T20:05:32-08:00*%
%TF.ProjectId,uSlime_BNO085_Module,75536c69-6d65-45f4-924e-4f3038355f4d,rev?*%
%TF.SameCoordinates,Original*%
%TF.FileFunction,Paste,Top*%
%TF.FilePolarity,Positive*%
%FSLAX46Y46*%
G04 Gerber Fmt 4.6, Leading zero omitted, Abs format (unit mm)*
G04 Created by KiCad (PCBNEW 8.0.6-8.0.6-0~ubuntu24.04.1) date 2024-11-07 20:05:32*
%MOMM*%
%LPD*%
G01*
G04 APERTURE LIST*
G04 Aperture macros list*
%AMRoundRect*
0 Rectangle with rounded corners*
0 $1 Rounding radius*
0 $2 $3 $4 $5 $6 $7 $8 $9 X,Y pos of 4 corners*
0 Add a 4 corners polygon primitive as box body*
4,1,4,$2,$3,$4,$5,$6,$7,$8,$9,$2,$3,0*
0 Add four circle primitives for the rounded corners*
1,1,$1+$1,$2,$3*
1,1,$1+$1,$4,$5*
1,1,$1+$1,$6,$7*
1,1,$1+$1,$8,$9*
0 Add four rect primitives between the rounded corners*
20,1,$1+$1,$2,$3,$4,$5,0*
20,1,$1+$1,$4,$5,$6,$7,0*
20,1,$1+$1,$6,$7,$8,$9,0*
20,1,$1+$1,$8,$9,$2,$3,0*%
G04 Aperture macros list end*
%ADD10RoundRect,0.135000X-0.135000X-0.185000X0.135000X-0.185000X0.135000X0.185000X-0.135000X0.185000X0*%
%ADD11RoundRect,0.140000X-0.170000X0.140000X-0.170000X-0.140000X0.170000X-0.140000X0.170000X0.140000X0*%
%ADD12RoundRect,0.140000X0.170000X-0.140000X0.170000X0.140000X-0.170000X0.140000X-0.170000X-0.140000X0*%
%ADD13RoundRect,0.135000X0.135000X0.185000X-0.135000X0.185000X-0.135000X-0.185000X0.135000X-0.185000X0*%
%ADD14RoundRect,0.140000X0.140000X0.170000X-0.140000X0.170000X-0.140000X-0.170000X0.140000X-0.170000X0*%
%ADD15RoundRect,0.135000X-0.185000X0.135000X-0.185000X-0.135000X0.185000X-0.135000X0.185000X0.135000X0*%
%ADD16R,0.250000X0.914400*%
%ADD17R,0.812800X0.250000*%
G04 APERTURE END LIST*
D10*
%TO.C,R6*%
X10940000Y-11400000D03*
X11960000Y-11400000D03*
%TD*%
D11*
%TO.C,C3*%
X2200000Y-4570000D03*
X2200000Y-5530000D03*
%TD*%
D12*
%TO.C,C2*%
X12950000Y-8080000D03*
X12950000Y-7120000D03*
%TD*%
D13*
%TO.C,R2*%
X8160000Y-11400000D03*
X7140000Y-11400000D03*
%TD*%
D14*
%TO.C,C4*%
X6230000Y-11400000D03*
X5270000Y-11400000D03*
%TD*%
D15*
%TO.C,R3*%
X3200000Y-4540000D03*
X3200000Y-5560000D03*
%TD*%
%TO.C,R7*%
X11900000Y-9040000D03*
X11900000Y-10060000D03*
%TD*%
D14*
%TO.C,C1*%
X4830000Y-7250000D03*
X3870000Y-7250000D03*
%TD*%
D16*
%TO.C,U1*%
X6102600Y-6872670D03*
D17*
X5911600Y-7800000D03*
X5911600Y-8303070D03*
X5911600Y-8803070D03*
X5911600Y-9303060D03*
D16*
X6102600Y-10225470D03*
X6602600Y-10225470D03*
X7102600Y-10225470D03*
X7602600Y-10225470D03*
X8102600Y-10225470D03*
X8602600Y-10225470D03*
X9102600Y-10225470D03*
X9602600Y-10225470D03*
X10102600Y-10225470D03*
X10610600Y-10225470D03*
D17*
X10737600Y-9303070D03*
X10737600Y-8803070D03*
X10737600Y-8303070D03*
X10737600Y-7800000D03*
D16*
X10610600Y-6872670D03*
X10102600Y-6872670D03*
X9602600Y-6872670D03*
X9102600Y-6872670D03*
X8602600Y-6872670D03*
X8102600Y-6872670D03*
X7602600Y-6872670D03*
X7102600Y-6872670D03*
X6602600Y-6872670D03*
%TD*%
D15*
%TO.C,R4*%
X11900000Y-7080000D03*
X11900000Y-8100000D03*
%TD*%
%TO.C,R1*%
X4799000Y-8250000D03*
X4799000Y-9270000D03*
%TD*%
D10*
%TO.C,R5*%
X9040000Y-11400000D03*
X10060000Y-11400000D03*
%TD*%
M02*
