%TF.GenerationSoftware,KiCad,Pcbnew,8.0.6-8.0.6-0~ubuntu24.04.1*%
%TF.CreationDate,2024-11-07T20:05:32-08:00*%
%TF.ProjectId,uSlime_BNO085_Module,75536c69-6d65-45f4-924e-4f3038355f4d,rev?*%
%TF.SameCoordinates,Original*%
%TF.FileFunction,Legend,Bot*%
%TF.FilePolarity,Positive*%
%FSLAX46Y46*%
G04 Gerber Fmt 4.6, Leading zero omitted, Abs format (unit mm)*
G04 Created by KiCad (PCBNEW 8.0.6-8.0.6-0~ubuntu24.04.1) date 2024-11-07 20:05:32*
%MOMM*%
%LPD*%
G01*
G04 APERTURE LIST*
%ADD10C,0.100000*%
%ADD11C,0.000000*%
%ADD12R,1.700000X1.700000*%
%ADD13O,1.700000X1.700000*%
%ADD14C,3.100000*%
%ADD15C,1.200000*%
G04 APERTURE END LIST*
D10*
X14583333Y-7798033D02*
X14583333Y-7331366D01*
X14416667Y-8064700D02*
X14250000Y-7564700D01*
X14250000Y-7564700D02*
X14683333Y-7564700D01*
X14916667Y-7531366D02*
X15250000Y-7531366D01*
X14850000Y-7331366D02*
X15083334Y-8031366D01*
X15083334Y-8031366D02*
X15316667Y-7331366D01*
X876628Y-7653570D02*
X1476628Y-7578570D01*
X905200Y-7649999D02*
X876628Y-7710713D01*
X876628Y-7710713D02*
X876628Y-7824999D01*
X876628Y-7824999D02*
X905200Y-7878570D01*
X905200Y-7878570D02*
X933771Y-7903570D01*
X933771Y-7903570D02*
X990914Y-7924999D01*
X990914Y-7924999D02*
X1162342Y-7903570D01*
X1162342Y-7903570D02*
X1219485Y-7867856D01*
X1219485Y-7867856D02*
X1248057Y-7835713D01*
X1248057Y-7835713D02*
X1276628Y-7774999D01*
X1276628Y-7774999D02*
X1276628Y-7660713D01*
X1276628Y-7660713D02*
X1248057Y-7607141D01*
X876628Y-7367856D02*
X1276628Y-7317856D01*
X1476628Y-7292856D02*
X1448057Y-7324999D01*
X1448057Y-7324999D02*
X1419485Y-7299999D01*
X1419485Y-7299999D02*
X1448057Y-7267856D01*
X1448057Y-7267856D02*
X1476628Y-7292856D01*
X1476628Y-7292856D02*
X1419485Y-7299999D01*
X1276628Y-7032142D02*
X876628Y-7082142D01*
X1219485Y-7039285D02*
X1248057Y-7007142D01*
X1248057Y-7007142D02*
X1276628Y-6946428D01*
X1276628Y-6946428D02*
X1276628Y-6860713D01*
X1276628Y-6860713D02*
X1248057Y-6807142D01*
X1248057Y-6807142D02*
X1190914Y-6785713D01*
X1190914Y-6785713D02*
X876628Y-6824999D01*
X1276628Y-6232142D02*
X790914Y-6292856D01*
X790914Y-6292856D02*
X733771Y-6328571D01*
X733771Y-6328571D02*
X705200Y-6360713D01*
X705200Y-6360713D02*
X676628Y-6421428D01*
X676628Y-6421428D02*
X676628Y-6507142D01*
X676628Y-6507142D02*
X705200Y-6560713D01*
X905200Y-6278571D02*
X876628Y-6339285D01*
X876628Y-6339285D02*
X876628Y-6453571D01*
X876628Y-6453571D02*
X905200Y-6507142D01*
X905200Y-6507142D02*
X933771Y-6532142D01*
X933771Y-6532142D02*
X990914Y-6553571D01*
X990914Y-6553571D02*
X1162342Y-6532142D01*
X1162342Y-6532142D02*
X1219485Y-6496428D01*
X1219485Y-6496428D02*
X1248057Y-6464285D01*
X1248057Y-6464285D02*
X1276628Y-6403571D01*
X1276628Y-6403571D02*
X1276628Y-6289285D01*
X1276628Y-6289285D02*
X1248057Y-6235713D01*
X1276628Y-6003571D02*
X876628Y-5910714D01*
X1276628Y-5717856D02*
X876628Y-5910714D01*
X876628Y-5910714D02*
X733771Y-5985714D01*
X733771Y-5985714D02*
X705200Y-6017856D01*
X705200Y-6017856D02*
X676628Y-6078571D01*
X876628Y-5539285D02*
X1276628Y-5489285D01*
X1476628Y-5464285D02*
X1448057Y-5496428D01*
X1448057Y-5496428D02*
X1419485Y-5471428D01*
X1419485Y-5471428D02*
X1448057Y-5439285D01*
X1448057Y-5439285D02*
X1476628Y-5464285D01*
X1476628Y-5464285D02*
X1419485Y-5471428D01*
X1276628Y-5289285D02*
X1276628Y-5060714D01*
X876628Y-5253571D02*
X1390914Y-5189285D01*
X1390914Y-5189285D02*
X1448057Y-5153571D01*
X1448057Y-5153571D02*
X1476628Y-5092857D01*
X1476628Y-5092857D02*
X1476628Y-5035714D01*
X905200Y-4678571D02*
X876628Y-4739285D01*
X876628Y-4739285D02*
X876628Y-4853571D01*
X876628Y-4853571D02*
X905200Y-4907142D01*
X905200Y-4907142D02*
X962342Y-4928571D01*
X962342Y-4928571D02*
X1190914Y-4900000D01*
X1190914Y-4900000D02*
X1248057Y-4864285D01*
X1248057Y-4864285D02*
X1276628Y-4803571D01*
X1276628Y-4803571D02*
X1276628Y-4689285D01*
X1276628Y-4689285D02*
X1248057Y-4635714D01*
X1248057Y-4635714D02*
X1190914Y-4614285D01*
X1190914Y-4614285D02*
X1133771Y-4621428D01*
X1133771Y-4621428D02*
X1076628Y-4914285D01*
X876628Y-4396428D02*
X1276628Y-4346428D01*
X1476628Y-4321428D02*
X1448057Y-4353571D01*
X1448057Y-4353571D02*
X1419485Y-4328571D01*
X1419485Y-4328571D02*
X1448057Y-4296428D01*
X1448057Y-4296428D02*
X1476628Y-4321428D01*
X1476628Y-4321428D02*
X1419485Y-4328571D01*
X14533333Y-5298033D02*
X14533333Y-4831366D01*
X14366667Y-5564700D02*
X14200000Y-5064700D01*
X14200000Y-5064700D02*
X14633333Y-5064700D01*
X15133334Y-5198033D02*
X15233334Y-5164700D01*
X15233334Y-5164700D02*
X15266667Y-5131366D01*
X15266667Y-5131366D02*
X15300000Y-5064700D01*
X15300000Y-5064700D02*
X15300000Y-4964700D01*
X15300000Y-4964700D02*
X15266667Y-4898033D01*
X15266667Y-4898033D02*
X15233334Y-4864700D01*
X15233334Y-4864700D02*
X15166667Y-4831366D01*
X15166667Y-4831366D02*
X14900000Y-4831366D01*
X14900000Y-4831366D02*
X14900000Y-5531366D01*
X14900000Y-5531366D02*
X15133334Y-5531366D01*
X15133334Y-5531366D02*
X15200000Y-5498033D01*
X15200000Y-5498033D02*
X15233334Y-5464700D01*
X15233334Y-5464700D02*
X15266667Y-5398033D01*
X15266667Y-5398033D02*
X15266667Y-5331366D01*
X15266667Y-5331366D02*
X15233334Y-5264700D01*
X15233334Y-5264700D02*
X15200000Y-5231366D01*
X15200000Y-5231366D02*
X15133334Y-5198033D01*
X15133334Y-5198033D02*
X14900000Y-5198033D01*
X2276628Y-7532142D02*
X1676628Y-7607142D01*
X2248057Y-7535713D02*
X2276628Y-7474999D01*
X2276628Y-7474999D02*
X2276628Y-7360713D01*
X2276628Y-7360713D02*
X2248057Y-7307142D01*
X2248057Y-7307142D02*
X2219485Y-7282142D01*
X2219485Y-7282142D02*
X2162342Y-7260713D01*
X2162342Y-7260713D02*
X1990914Y-7282142D01*
X1990914Y-7282142D02*
X1933771Y-7317856D01*
X1933771Y-7317856D02*
X1905200Y-7349999D01*
X1905200Y-7349999D02*
X1876628Y-7410713D01*
X1876628Y-7410713D02*
X1876628Y-7524999D01*
X1876628Y-7524999D02*
X1905200Y-7578570D01*
X1905200Y-6807142D02*
X1876628Y-6867856D01*
X1876628Y-6867856D02*
X1876628Y-6982142D01*
X1876628Y-6982142D02*
X1905200Y-7035713D01*
X1905200Y-7035713D02*
X1962342Y-7057142D01*
X1962342Y-7057142D02*
X2190914Y-7028571D01*
X2190914Y-7028571D02*
X2248057Y-6992856D01*
X2248057Y-6992856D02*
X2276628Y-6932142D01*
X2276628Y-6932142D02*
X2276628Y-6817856D01*
X2276628Y-6817856D02*
X2248057Y-6764285D01*
X2248057Y-6764285D02*
X2190914Y-6742856D01*
X2190914Y-6742856D02*
X2133771Y-6749999D01*
X2133771Y-6749999D02*
X2076628Y-7042856D01*
X1876628Y-6524999D02*
X2276628Y-6474999D01*
X2476628Y-6449999D02*
X2448057Y-6482142D01*
X2448057Y-6482142D02*
X2419485Y-6457142D01*
X2419485Y-6457142D02*
X2448057Y-6424999D01*
X2448057Y-6424999D02*
X2476628Y-6449999D01*
X2476628Y-6449999D02*
X2419485Y-6457142D01*
X2105200Y-6210713D02*
X2105200Y-5753571D01*
X1876628Y-5410714D02*
X1905200Y-5464285D01*
X1905200Y-5464285D02*
X1962342Y-5485714D01*
X1962342Y-5485714D02*
X2476628Y-5421428D01*
X2276628Y-4874999D02*
X1876628Y-4924999D01*
X2276628Y-5132142D02*
X1962342Y-5171428D01*
X1962342Y-5171428D02*
X1905200Y-5149999D01*
X1905200Y-5149999D02*
X1876628Y-5096428D01*
X1876628Y-5096428D02*
X1876628Y-5010713D01*
X1876628Y-5010713D02*
X1905200Y-4949999D01*
X1905200Y-4949999D02*
X1933771Y-4917856D01*
X6850000Y-6948033D02*
X7016666Y-6481366D01*
X7016666Y-6481366D02*
X7183333Y-6948033D01*
X7816666Y-6481366D02*
X7416666Y-6481366D01*
X7616666Y-6481366D02*
X7616666Y-7181366D01*
X7616666Y-7181366D02*
X7549999Y-7081366D01*
X7549999Y-7081366D02*
X7483333Y-7014700D01*
X7483333Y-7014700D02*
X7416666Y-6981366D01*
X8116666Y-6548033D02*
X8150000Y-6514700D01*
X8150000Y-6514700D02*
X8116666Y-6481366D01*
X8116666Y-6481366D02*
X8083333Y-6514700D01*
X8083333Y-6514700D02*
X8116666Y-6548033D01*
X8116666Y-6548033D02*
X8116666Y-6481366D01*
X8583333Y-7181366D02*
X8649999Y-7181366D01*
X8649999Y-7181366D02*
X8716666Y-7148033D01*
X8716666Y-7148033D02*
X8749999Y-7114700D01*
X8749999Y-7114700D02*
X8783333Y-7048033D01*
X8783333Y-7048033D02*
X8816666Y-6914700D01*
X8816666Y-6914700D02*
X8816666Y-6748033D01*
X8816666Y-6748033D02*
X8783333Y-6614700D01*
X8783333Y-6614700D02*
X8749999Y-6548033D01*
X8749999Y-6548033D02*
X8716666Y-6514700D01*
X8716666Y-6514700D02*
X8649999Y-6481366D01*
X8649999Y-6481366D02*
X8583333Y-6481366D01*
X8583333Y-6481366D02*
X8516666Y-6514700D01*
X8516666Y-6514700D02*
X8483333Y-6548033D01*
X8483333Y-6548033D02*
X8449999Y-6614700D01*
X8449999Y-6614700D02*
X8416666Y-6748033D01*
X8416666Y-6748033D02*
X8416666Y-6914700D01*
X8416666Y-6914700D02*
X8449999Y-7048033D01*
X8449999Y-7048033D02*
X8483333Y-7114700D01*
X8483333Y-7114700D02*
X8516666Y-7148033D01*
X8516666Y-7148033D02*
X8583333Y-7181366D01*
X9116666Y-6548033D02*
X9150000Y-6514700D01*
X9150000Y-6514700D02*
X9116666Y-6481366D01*
X9116666Y-6481366D02*
X9083333Y-6514700D01*
X9083333Y-6514700D02*
X9116666Y-6548033D01*
X9116666Y-6548033D02*
X9116666Y-6481366D01*
X9583333Y-7181366D02*
X9649999Y-7181366D01*
X9649999Y-7181366D02*
X9716666Y-7148033D01*
X9716666Y-7148033D02*
X9749999Y-7114700D01*
X9749999Y-7114700D02*
X9783333Y-7048033D01*
X9783333Y-7048033D02*
X9816666Y-6914700D01*
X9816666Y-6914700D02*
X9816666Y-6748033D01*
X9816666Y-6748033D02*
X9783333Y-6614700D01*
X9783333Y-6614700D02*
X9749999Y-6548033D01*
X9749999Y-6548033D02*
X9716666Y-6514700D01*
X9716666Y-6514700D02*
X9649999Y-6481366D01*
X9649999Y-6481366D02*
X9583333Y-6481366D01*
X9583333Y-6481366D02*
X9516666Y-6514700D01*
X9516666Y-6514700D02*
X9483333Y-6548033D01*
X9483333Y-6548033D02*
X9449999Y-6614700D01*
X9449999Y-6614700D02*
X9416666Y-6748033D01*
X9416666Y-6748033D02*
X9416666Y-6914700D01*
X9416666Y-6914700D02*
X9449999Y-7048033D01*
X9449999Y-7048033D02*
X9483333Y-7114700D01*
X9483333Y-7114700D02*
X9516666Y-7148033D01*
X9516666Y-7148033D02*
X9583333Y-7181366D01*
X2626628Y-7996428D02*
X2912342Y-8160713D01*
X2626628Y-8339285D02*
X3226628Y-8264285D01*
X3226628Y-8264285D02*
X3226628Y-8035713D01*
X3226628Y-8035713D02*
X3198057Y-7982142D01*
X3198057Y-7982142D02*
X3169485Y-7957142D01*
X3169485Y-7957142D02*
X3112342Y-7935713D01*
X3112342Y-7935713D02*
X3026628Y-7946428D01*
X3026628Y-7946428D02*
X2969485Y-7982142D01*
X2969485Y-7982142D02*
X2940914Y-8014285D01*
X2940914Y-8014285D02*
X2912342Y-8074999D01*
X2912342Y-8074999D02*
X2912342Y-8303571D01*
X2655200Y-7507142D02*
X2626628Y-7567856D01*
X2626628Y-7567856D02*
X2626628Y-7682142D01*
X2626628Y-7682142D02*
X2655200Y-7735713D01*
X2655200Y-7735713D02*
X2712342Y-7757142D01*
X2712342Y-7757142D02*
X2940914Y-7728571D01*
X2940914Y-7728571D02*
X2998057Y-7692856D01*
X2998057Y-7692856D02*
X3026628Y-7632142D01*
X3026628Y-7632142D02*
X3026628Y-7517856D01*
X3026628Y-7517856D02*
X2998057Y-7464285D01*
X2998057Y-7464285D02*
X2940914Y-7442856D01*
X2940914Y-7442856D02*
X2883771Y-7449999D01*
X2883771Y-7449999D02*
X2826628Y-7742856D01*
X2655200Y-7249999D02*
X2626628Y-7167856D01*
X2626628Y-7167856D02*
X2626628Y-7024999D01*
X2626628Y-7024999D02*
X2655200Y-6964285D01*
X2655200Y-6964285D02*
X2683771Y-6932142D01*
X2683771Y-6932142D02*
X2740914Y-6896427D01*
X2740914Y-6896427D02*
X2798057Y-6889285D01*
X2798057Y-6889285D02*
X2855200Y-6910713D01*
X2855200Y-6910713D02*
X2883771Y-6935713D01*
X2883771Y-6935713D02*
X2912342Y-6989285D01*
X2912342Y-6989285D02*
X2940914Y-7099999D01*
X2940914Y-7099999D02*
X2969485Y-7153570D01*
X2969485Y-7153570D02*
X2998057Y-7178570D01*
X2998057Y-7178570D02*
X3055200Y-7199999D01*
X3055200Y-7199999D02*
X3112342Y-7192856D01*
X3112342Y-7192856D02*
X3169485Y-7157142D01*
X3169485Y-7157142D02*
X3198057Y-7124999D01*
X3198057Y-7124999D02*
X3226628Y-7064285D01*
X3226628Y-7064285D02*
X3226628Y-6921427D01*
X3226628Y-6921427D02*
X3198057Y-6839285D01*
X3026628Y-6346427D02*
X2626628Y-6396427D01*
X3026628Y-6603570D02*
X2712342Y-6642856D01*
X2712342Y-6642856D02*
X2655200Y-6621427D01*
X2655200Y-6621427D02*
X2626628Y-6567856D01*
X2626628Y-6567856D02*
X2626628Y-6482141D01*
X2626628Y-6482141D02*
X2655200Y-6421427D01*
X2655200Y-6421427D02*
X2683771Y-6389284D01*
X2626628Y-6110713D02*
X3026628Y-6060713D01*
X2969485Y-6067856D02*
X2998057Y-6035713D01*
X2998057Y-6035713D02*
X3026628Y-5974999D01*
X3026628Y-5974999D02*
X3026628Y-5889284D01*
X3026628Y-5889284D02*
X2998057Y-5835713D01*
X2998057Y-5835713D02*
X2940914Y-5814284D01*
X2940914Y-5814284D02*
X2626628Y-5853570D01*
X2940914Y-5814284D02*
X2998057Y-5778570D01*
X2998057Y-5778570D02*
X3026628Y-5717856D01*
X3026628Y-5717856D02*
X3026628Y-5632141D01*
X3026628Y-5632141D02*
X2998057Y-5578570D01*
X2998057Y-5578570D02*
X2940914Y-5557141D01*
X2940914Y-5557141D02*
X2626628Y-5596427D01*
X2626628Y-5310713D02*
X3026628Y-5260713D01*
X2969485Y-5267856D02*
X2998057Y-5235713D01*
X2998057Y-5235713D02*
X3026628Y-5174999D01*
X3026628Y-5174999D02*
X3026628Y-5089284D01*
X3026628Y-5089284D02*
X2998057Y-5035713D01*
X2998057Y-5035713D02*
X2940914Y-5014284D01*
X2940914Y-5014284D02*
X2626628Y-5053570D01*
X2940914Y-5014284D02*
X2998057Y-4978570D01*
X2998057Y-4978570D02*
X3026628Y-4917856D01*
X3026628Y-4917856D02*
X3026628Y-4832141D01*
X3026628Y-4832141D02*
X2998057Y-4778570D01*
X2998057Y-4778570D02*
X2940914Y-4757141D01*
X2940914Y-4757141D02*
X2626628Y-4796427D01*
X2626628Y-4510713D02*
X3026628Y-4460713D01*
X3226628Y-4435713D02*
X3198057Y-4467856D01*
X3198057Y-4467856D02*
X3169485Y-4442856D01*
X3169485Y-4442856D02*
X3198057Y-4410713D01*
X3198057Y-4410713D02*
X3226628Y-4435713D01*
X3226628Y-4435713D02*
X3169485Y-4442856D01*
X3026628Y-4260713D02*
X3026628Y-4032142D01*
X3226628Y-4149999D02*
X2712342Y-4214285D01*
X2712342Y-4214285D02*
X2655200Y-4192856D01*
X2655200Y-4192856D02*
X2626628Y-4139285D01*
X2626628Y-4139285D02*
X2626628Y-4082142D01*
X27170880Y-7475200D02*
X27313737Y-7427580D01*
X27313737Y-7427580D02*
X27551832Y-7427580D01*
X27551832Y-7427580D02*
X27647070Y-7475200D01*
X27647070Y-7475200D02*
X27694689Y-7522819D01*
X27694689Y-7522819D02*
X27742308Y-7618057D01*
X27742308Y-7618057D02*
X27742308Y-7713295D01*
X27742308Y-7713295D02*
X27694689Y-7808533D01*
X27694689Y-7808533D02*
X27647070Y-7856152D01*
X27647070Y-7856152D02*
X27551832Y-7903771D01*
X27551832Y-7903771D02*
X27361356Y-7951390D01*
X27361356Y-7951390D02*
X27266118Y-7999009D01*
X27266118Y-7999009D02*
X27218499Y-8046628D01*
X27218499Y-8046628D02*
X27170880Y-8141866D01*
X27170880Y-8141866D02*
X27170880Y-8237104D01*
X27170880Y-8237104D02*
X27218499Y-8332342D01*
X27218499Y-8332342D02*
X27266118Y-8379961D01*
X27266118Y-8379961D02*
X27361356Y-8427580D01*
X27361356Y-8427580D02*
X27599451Y-8427580D01*
X27599451Y-8427580D02*
X27742308Y-8379961D01*
X28313737Y-7427580D02*
X28218499Y-7475200D01*
X28218499Y-7475200D02*
X28170880Y-7570438D01*
X28170880Y-7570438D02*
X28170880Y-8427580D01*
X28694690Y-7427580D02*
X28694690Y-8094247D01*
X28694690Y-8427580D02*
X28647071Y-8379961D01*
X28647071Y-8379961D02*
X28694690Y-8332342D01*
X28694690Y-8332342D02*
X28742309Y-8379961D01*
X28742309Y-8379961D02*
X28694690Y-8427580D01*
X28694690Y-8427580D02*
X28694690Y-8332342D01*
X29170880Y-7427580D02*
X29170880Y-8094247D01*
X29170880Y-7999009D02*
X29218499Y-8046628D01*
X29218499Y-8046628D02*
X29313737Y-8094247D01*
X29313737Y-8094247D02*
X29456594Y-8094247D01*
X29456594Y-8094247D02*
X29551832Y-8046628D01*
X29551832Y-8046628D02*
X29599451Y-7951390D01*
X29599451Y-7951390D02*
X29599451Y-7427580D01*
X29599451Y-7951390D02*
X29647070Y-8046628D01*
X29647070Y-8046628D02*
X29742308Y-8094247D01*
X29742308Y-8094247D02*
X29885165Y-8094247D01*
X29885165Y-8094247D02*
X29980404Y-8046628D01*
X29980404Y-8046628D02*
X30028023Y-7951390D01*
X30028023Y-7951390D02*
X30028023Y-7427580D01*
X30885165Y-7475200D02*
X30789927Y-7427580D01*
X30789927Y-7427580D02*
X30599451Y-7427580D01*
X30599451Y-7427580D02*
X30504213Y-7475200D01*
X30504213Y-7475200D02*
X30456594Y-7570438D01*
X30456594Y-7570438D02*
X30456594Y-7951390D01*
X30456594Y-7951390D02*
X30504213Y-8046628D01*
X30504213Y-8046628D02*
X30599451Y-8094247D01*
X30599451Y-8094247D02*
X30789927Y-8094247D01*
X30789927Y-8094247D02*
X30885165Y-8046628D01*
X30885165Y-8046628D02*
X30932784Y-7951390D01*
X30932784Y-7951390D02*
X30932784Y-7856152D01*
X30932784Y-7856152D02*
X30456594Y-7760914D01*
X3635771Y-8249999D02*
X3607200Y-8278571D01*
X3607200Y-8278571D02*
X3578628Y-8364285D01*
X3578628Y-8364285D02*
X3578628Y-8421428D01*
X3578628Y-8421428D02*
X3607200Y-8507142D01*
X3607200Y-8507142D02*
X3664342Y-8564285D01*
X3664342Y-8564285D02*
X3721485Y-8592856D01*
X3721485Y-8592856D02*
X3835771Y-8621428D01*
X3835771Y-8621428D02*
X3921485Y-8621428D01*
X3921485Y-8621428D02*
X4035771Y-8592856D01*
X4035771Y-8592856D02*
X4092914Y-8564285D01*
X4092914Y-8564285D02*
X4150057Y-8507142D01*
X4150057Y-8507142D02*
X4178628Y-8421428D01*
X4178628Y-8421428D02*
X4178628Y-8364285D01*
X4178628Y-8364285D02*
X4150057Y-8278571D01*
X4150057Y-8278571D02*
X4121485Y-8249999D01*
X3578628Y-7992856D02*
X3978628Y-7992856D01*
X3864342Y-7992856D02*
X3921485Y-7964285D01*
X3921485Y-7964285D02*
X3950057Y-7935714D01*
X3950057Y-7935714D02*
X3978628Y-7878571D01*
X3978628Y-7878571D02*
X3978628Y-7821428D01*
X3607200Y-7392856D02*
X3578628Y-7449999D01*
X3578628Y-7449999D02*
X3578628Y-7564285D01*
X3578628Y-7564285D02*
X3607200Y-7621427D01*
X3607200Y-7621427D02*
X3664342Y-7649999D01*
X3664342Y-7649999D02*
X3892914Y-7649999D01*
X3892914Y-7649999D02*
X3950057Y-7621427D01*
X3950057Y-7621427D02*
X3978628Y-7564285D01*
X3978628Y-7564285D02*
X3978628Y-7449999D01*
X3978628Y-7449999D02*
X3950057Y-7392856D01*
X3950057Y-7392856D02*
X3892914Y-7364285D01*
X3892914Y-7364285D02*
X3835771Y-7364285D01*
X3835771Y-7364285D02*
X3778628Y-7649999D01*
X3578628Y-6849999D02*
X3892914Y-6849999D01*
X3892914Y-6849999D02*
X3950057Y-6878570D01*
X3950057Y-6878570D02*
X3978628Y-6935713D01*
X3978628Y-6935713D02*
X3978628Y-7049999D01*
X3978628Y-7049999D02*
X3950057Y-7107141D01*
X3607200Y-6849999D02*
X3578628Y-6907141D01*
X3578628Y-6907141D02*
X3578628Y-7049999D01*
X3578628Y-7049999D02*
X3607200Y-7107141D01*
X3607200Y-7107141D02*
X3664342Y-7135713D01*
X3664342Y-7135713D02*
X3721485Y-7135713D01*
X3721485Y-7135713D02*
X3778628Y-7107141D01*
X3778628Y-7107141D02*
X3807200Y-7049999D01*
X3807200Y-7049999D02*
X3807200Y-6907141D01*
X3807200Y-6907141D02*
X3835771Y-6849999D01*
X3978628Y-6649999D02*
X3978628Y-6421427D01*
X4178628Y-6564284D02*
X3664342Y-6564284D01*
X3664342Y-6564284D02*
X3607200Y-6535713D01*
X3607200Y-6535713D02*
X3578628Y-6478570D01*
X3578628Y-6478570D02*
X3578628Y-6421427D01*
X3607200Y-5992856D02*
X3578628Y-6049999D01*
X3578628Y-6049999D02*
X3578628Y-6164285D01*
X3578628Y-6164285D02*
X3607200Y-6221427D01*
X3607200Y-6221427D02*
X3664342Y-6249999D01*
X3664342Y-6249999D02*
X3892914Y-6249999D01*
X3892914Y-6249999D02*
X3950057Y-6221427D01*
X3950057Y-6221427D02*
X3978628Y-6164285D01*
X3978628Y-6164285D02*
X3978628Y-6049999D01*
X3978628Y-6049999D02*
X3950057Y-5992856D01*
X3950057Y-5992856D02*
X3892914Y-5964285D01*
X3892914Y-5964285D02*
X3835771Y-5964285D01*
X3835771Y-5964285D02*
X3778628Y-6249999D01*
X3578628Y-5449999D02*
X4178628Y-5449999D01*
X3607200Y-5449999D02*
X3578628Y-5507141D01*
X3578628Y-5507141D02*
X3578628Y-5621427D01*
X3578628Y-5621427D02*
X3607200Y-5678570D01*
X3607200Y-5678570D02*
X3635771Y-5707141D01*
X3635771Y-5707141D02*
X3692914Y-5735713D01*
X3692914Y-5735713D02*
X3864342Y-5735713D01*
X3864342Y-5735713D02*
X3921485Y-5707141D01*
X3921485Y-5707141D02*
X3950057Y-5678570D01*
X3950057Y-5678570D02*
X3978628Y-5621427D01*
X3978628Y-5621427D02*
X3978628Y-5507141D01*
X3978628Y-5507141D02*
X3950057Y-5449999D01*
X3578628Y-4707141D02*
X4178628Y-4707141D01*
X3950057Y-4707141D02*
X3978628Y-4649999D01*
X3978628Y-4649999D02*
X3978628Y-4535713D01*
X3978628Y-4535713D02*
X3950057Y-4478570D01*
X3950057Y-4478570D02*
X3921485Y-4449999D01*
X3921485Y-4449999D02*
X3864342Y-4421427D01*
X3864342Y-4421427D02*
X3692914Y-4421427D01*
X3692914Y-4421427D02*
X3635771Y-4449999D01*
X3635771Y-4449999D02*
X3607200Y-4478570D01*
X3607200Y-4478570D02*
X3578628Y-4535713D01*
X3578628Y-4535713D02*
X3578628Y-4649999D01*
X3578628Y-4649999D02*
X3607200Y-4707141D01*
X3978628Y-4221427D02*
X3578628Y-4078570D01*
X3978628Y-3935713D02*
X3578628Y-4078570D01*
X3578628Y-4078570D02*
X3435771Y-4135713D01*
X3435771Y-4135713D02*
X3407200Y-4164284D01*
X3407200Y-4164284D02*
X3378628Y-4221427D01*
X3635771Y-3707141D02*
X3607200Y-3678570D01*
X3607200Y-3678570D02*
X3578628Y-3707141D01*
X3578628Y-3707141D02*
X3607200Y-3735713D01*
X3607200Y-3735713D02*
X3635771Y-3707141D01*
X3635771Y-3707141D02*
X3578628Y-3707141D01*
X3950057Y-3707141D02*
X3921485Y-3678570D01*
X3921485Y-3678570D02*
X3892914Y-3707141D01*
X3892914Y-3707141D02*
X3921485Y-3735713D01*
X3921485Y-3735713D02*
X3950057Y-3707141D01*
X3950057Y-3707141D02*
X3892914Y-3707141D01*
D11*
%TO.C,G\u002A\u002A\u002A*%
G36*
X10227496Y-8533541D02*
G01*
X10234518Y-8555483D01*
X10233673Y-8558348D01*
X10217023Y-8575846D01*
X10183341Y-8601461D01*
X10138256Y-8631783D01*
X10087395Y-8663404D01*
X10036388Y-8692913D01*
X9990862Y-8716900D01*
X9956446Y-8731955D01*
X9938767Y-8734668D01*
X9927930Y-8722404D01*
X9932650Y-8705158D01*
X9956089Y-8681723D01*
X10000207Y-8650171D01*
X10066963Y-8608576D01*
X10122140Y-8576420D01*
X10169816Y-8550465D01*
X10204410Y-8533649D01*
X10220840Y-8528614D01*
X10227496Y-8533541D01*
G37*
G36*
X7139220Y-8560880D02*
G01*
X7175305Y-8595214D01*
X7176252Y-8596361D01*
X7244341Y-8671604D01*
X7310426Y-8731028D01*
X7369594Y-8770210D01*
X7378163Y-8774710D01*
X7413570Y-8798822D01*
X7422397Y-8818281D01*
X7404503Y-8832832D01*
X7399285Y-8833871D01*
X7369642Y-8827885D01*
X7328910Y-8809747D01*
X7285014Y-8783448D01*
X7245881Y-8752978D01*
X7213403Y-8720829D01*
X7177075Y-8680827D01*
X7142395Y-8639414D01*
X7113640Y-8601921D01*
X7095089Y-8573677D01*
X7091018Y-8560014D01*
X7108647Y-8551227D01*
X7139220Y-8560880D01*
G37*
G36*
X9979972Y-9422851D02*
G01*
X10014833Y-9452922D01*
X10023165Y-9460604D01*
X10060369Y-9487017D01*
X10111425Y-9516734D01*
X10167850Y-9544669D01*
X10206052Y-9562458D01*
X10250767Y-9586484D01*
X10275061Y-9605636D01*
X10282391Y-9622255D01*
X10280061Y-9633490D01*
X10265899Y-9641305D01*
X10236493Y-9636796D01*
X10189099Y-9619389D01*
X10120974Y-9588510D01*
X10101193Y-9578740D01*
X10037132Y-9541664D01*
X9986201Y-9503654D01*
X9952578Y-9468177D01*
X9940442Y-9438701D01*
X9941708Y-9427074D01*
X9954768Y-9414076D01*
X9979972Y-9422851D01*
G37*
G36*
X7122806Y-9104229D02*
G01*
X7195186Y-9107569D01*
X7268756Y-9112879D01*
X7338207Y-9120053D01*
X7367153Y-9126294D01*
X7392286Y-9140055D01*
X7397293Y-9156093D01*
X7378879Y-9170332D01*
X7378577Y-9170441D01*
X7356819Y-9172398D01*
X7314823Y-9171991D01*
X7258534Y-9169652D01*
X7193901Y-9165815D01*
X7126868Y-9160914D01*
X7063383Y-9155382D01*
X7009393Y-9149653D01*
X6970843Y-9144159D01*
X6953680Y-9139336D01*
X6949843Y-9133598D01*
X6951626Y-9112135D01*
X6965895Y-9107128D01*
X7002852Y-9103900D01*
X7056925Y-9102970D01*
X7122806Y-9104229D01*
G37*
G36*
X10103826Y-9087522D02*
G01*
X10173955Y-9089545D01*
X10224473Y-9092467D01*
X10255548Y-9096776D01*
X10271225Y-9103045D01*
X10275552Y-9111847D01*
X10275503Y-9112985D01*
X10270216Y-9121268D01*
X10253414Y-9127198D01*
X10221137Y-9131306D01*
X10169426Y-9134122D01*
X10094319Y-9136180D01*
X10023676Y-9137235D01*
X9969650Y-9136681D01*
X9935717Y-9134057D01*
X9918117Y-9129053D01*
X9913086Y-9121363D01*
X9913672Y-9114350D01*
X9922593Y-9093221D01*
X9923066Y-9092869D01*
X9941898Y-9089640D01*
X9982003Y-9087556D01*
X10037830Y-9086792D01*
X10103826Y-9087522D01*
G37*
G36*
X7414884Y-9414919D02*
G01*
X7424095Y-9425961D01*
X7411224Y-9447154D01*
X7377594Y-9476752D01*
X7324529Y-9513010D01*
X7321582Y-9514863D01*
X7261787Y-9555293D01*
X7199855Y-9601432D01*
X7148740Y-9643656D01*
X7138267Y-9652933D01*
X7097942Y-9685550D01*
X7071892Y-9699708D01*
X7057054Y-9697194D01*
X7050438Y-9686796D01*
X7054770Y-9658255D01*
X7069711Y-9639844D01*
X7103549Y-9608092D01*
X7149801Y-9569432D01*
X7202906Y-9528307D01*
X7257303Y-9489157D01*
X7307431Y-9456426D01*
X7337774Y-9439193D01*
X7375432Y-9421209D01*
X7399758Y-9413812D01*
X7414884Y-9414919D01*
G37*
G36*
X9202709Y-9881695D02*
G01*
X9249181Y-9884849D01*
X9296145Y-9892666D01*
X9336621Y-9907749D01*
X9382536Y-9933536D01*
X9444602Y-9980051D01*
X9490797Y-10038530D01*
X9502004Y-10057858D01*
X9521090Y-10085714D01*
X9533236Y-10096661D01*
X9534482Y-10096990D01*
X9541088Y-10112396D01*
X9543780Y-10143727D01*
X9543832Y-10147993D01*
X9547944Y-10180921D01*
X9556618Y-10198726D01*
X9562866Y-10210272D01*
X9561551Y-10237148D01*
X9555732Y-10267349D01*
X9551124Y-10308670D01*
X9538244Y-10360273D01*
X9508023Y-10419352D01*
X9465132Y-10476594D01*
X9462772Y-10479259D01*
X9442626Y-10504776D01*
X9434357Y-10520456D01*
X9425849Y-10532103D01*
X9397125Y-10549649D01*
X9355027Y-10568404D01*
X9306775Y-10585552D01*
X9259594Y-10598276D01*
X9220705Y-10603761D01*
X9120802Y-10599492D01*
X9034088Y-10578108D01*
X8962014Y-10537882D01*
X8900643Y-10477259D01*
X8895900Y-10471285D01*
X8850494Y-10401082D01*
X8826142Y-10329042D01*
X8818981Y-10244139D01*
X8819435Y-10232707D01*
X8887314Y-10232707D01*
X8894444Y-10301893D01*
X8917746Y-10371068D01*
X8954522Y-10423005D01*
X8983615Y-10449890D01*
X9028769Y-10487241D01*
X9062327Y-10508876D01*
X9080976Y-10512451D01*
X9084746Y-10510934D01*
X9092407Y-10519843D01*
X9093811Y-10522405D01*
X9115065Y-10527894D01*
X9159700Y-10529693D01*
X9224896Y-10527771D01*
X9307835Y-10522100D01*
X9315627Y-10519184D01*
X9324933Y-10500161D01*
X9327050Y-10490638D01*
X9343346Y-10479644D01*
X9356913Y-10473560D01*
X9384363Y-10451630D01*
X9416748Y-10419223D01*
X9439121Y-10394042D01*
X9457791Y-10368084D01*
X9467858Y-10341190D01*
X9472294Y-10304554D01*
X9474072Y-10249370D01*
X9474176Y-10243782D01*
X9473285Y-10188276D01*
X9469036Y-10148824D01*
X9461998Y-10131033D01*
X9457227Y-10127099D01*
X9454057Y-10111660D01*
X9451417Y-10097383D01*
X9431238Y-10072147D01*
X9398281Y-10041864D01*
X9358272Y-10011259D01*
X9316937Y-9985060D01*
X9280001Y-9967991D01*
X9257590Y-9961037D01*
X9217360Y-9951025D01*
X9191095Y-9947790D01*
X9185120Y-9948220D01*
X9175128Y-9950439D01*
X9191573Y-9955632D01*
X9204242Y-9960877D01*
X9215509Y-9974562D01*
X9217691Y-9980280D01*
X9235675Y-9987237D01*
X9242751Y-9988198D01*
X9266804Y-10007618D01*
X9285946Y-10048736D01*
X9298647Y-10107219D01*
X9303372Y-10178729D01*
X9303338Y-10189174D01*
X9297088Y-10266537D01*
X9278640Y-10323144D01*
X9245834Y-10363291D01*
X9196511Y-10391270D01*
X9185624Y-10395557D01*
X9152534Y-10405504D01*
X9126092Y-10403349D01*
X9091790Y-10388743D01*
X9046775Y-10356389D01*
X9009027Y-10301130D01*
X8996370Y-10257377D01*
X9067562Y-10257377D01*
X9076320Y-10284989D01*
X9100925Y-10299134D01*
X9124807Y-10295043D01*
X9140976Y-10273140D01*
X9138388Y-10240280D01*
X9125609Y-10227208D01*
X9096874Y-10219763D01*
X9083239Y-10220489D01*
X9068148Y-10230038D01*
X9067562Y-10257377D01*
X8996370Y-10257377D01*
X8988902Y-10231563D01*
X8987592Y-10152170D01*
X9006291Y-10067432D01*
X9032406Y-9990329D01*
X8993924Y-10018780D01*
X8988405Y-10023154D01*
X8952300Y-10064573D01*
X8919783Y-10120596D01*
X8896304Y-10180287D01*
X8887314Y-10232707D01*
X8819435Y-10232707D01*
X8820202Y-10213384D01*
X8840723Y-10116522D01*
X8885089Y-10030926D01*
X8951385Y-9959562D01*
X9037695Y-9905395D01*
X9054403Y-9898060D01*
X9094697Y-9885574D01*
X9140563Y-9880631D01*
X9202709Y-9881695D01*
G37*
G36*
X7985369Y-9881695D02*
G01*
X8031841Y-9884849D01*
X8078805Y-9892666D01*
X8119282Y-9907749D01*
X8165197Y-9933536D01*
X8227262Y-9980051D01*
X8273457Y-10038530D01*
X8284665Y-10057858D01*
X8303750Y-10085714D01*
X8315896Y-10096661D01*
X8317142Y-10096990D01*
X8323748Y-10112396D01*
X8326441Y-10143727D01*
X8326493Y-10147993D01*
X8330604Y-10180921D01*
X8339278Y-10198726D01*
X8345527Y-10210272D01*
X8344211Y-10237148D01*
X8338392Y-10267349D01*
X8333784Y-10308670D01*
X8320904Y-10360273D01*
X8290684Y-10419352D01*
X8247792Y-10476594D01*
X8245433Y-10479259D01*
X8225287Y-10504776D01*
X8217017Y-10520456D01*
X8208509Y-10532103D01*
X8179786Y-10549649D01*
X8137687Y-10568404D01*
X8089436Y-10585552D01*
X8042254Y-10598276D01*
X8003366Y-10603761D01*
X7903462Y-10599492D01*
X7816748Y-10578108D01*
X7744674Y-10537882D01*
X7683304Y-10477259D01*
X7678560Y-10471285D01*
X7633154Y-10401082D01*
X7608802Y-10329042D01*
X7601642Y-10244139D01*
X7602499Y-10222529D01*
X7673489Y-10222529D01*
X7675862Y-10297854D01*
X7696963Y-10366815D01*
X7737182Y-10423005D01*
X7766275Y-10449890D01*
X7811429Y-10487241D01*
X7844987Y-10508876D01*
X7863636Y-10512451D01*
X7867406Y-10510934D01*
X7875067Y-10519843D01*
X7876471Y-10522405D01*
X7897725Y-10527894D01*
X7942360Y-10529693D01*
X8007557Y-10527771D01*
X8090496Y-10522100D01*
X8098287Y-10519184D01*
X8107593Y-10500161D01*
X8109710Y-10490638D01*
X8126006Y-10479644D01*
X8139541Y-10473583D01*
X8166977Y-10451678D01*
X8199346Y-10419291D01*
X8218342Y-10398027D01*
X8238753Y-10370850D01*
X8249828Y-10343877D01*
X8254753Y-10307922D01*
X8256711Y-10253798D01*
X8256200Y-10199891D01*
X8251562Y-10154077D01*
X8243247Y-10129499D01*
X8236214Y-10118627D01*
X8238542Y-10110339D01*
X8239446Y-10107113D01*
X8227798Y-10089781D01*
X8203339Y-10062466D01*
X8203250Y-10062375D01*
X8169294Y-10030369D01*
X8147921Y-10016428D01*
X8141145Y-10021209D01*
X8150979Y-10045369D01*
X8151661Y-10046686D01*
X8159937Y-10076928D01*
X8165860Y-10124152D01*
X8168188Y-10178729D01*
X8168146Y-10189082D01*
X8161843Y-10266490D01*
X8143364Y-10323129D01*
X8110549Y-10363291D01*
X8061239Y-10391270D01*
X8050082Y-10395661D01*
X8017087Y-10405521D01*
X7990555Y-10403246D01*
X7955901Y-10388443D01*
X7919288Y-10363868D01*
X7879037Y-10311463D01*
X7860769Y-10257377D01*
X7932290Y-10257377D01*
X7941048Y-10284989D01*
X7965653Y-10299134D01*
X7989535Y-10295043D01*
X8005704Y-10273140D01*
X8003116Y-10240280D01*
X7990337Y-10227208D01*
X7961602Y-10219763D01*
X7947967Y-10220489D01*
X7932876Y-10230038D01*
X7932290Y-10257377D01*
X7860769Y-10257377D01*
X7856094Y-10243535D01*
X7851685Y-10164361D01*
X7867036Y-10078221D01*
X7878112Y-10044102D01*
X7891237Y-10012935D01*
X7900713Y-10000915D01*
X7915390Y-9994076D01*
X8121271Y-9994076D01*
X8128110Y-10000915D01*
X8134949Y-9994076D01*
X8128110Y-9987237D01*
X8121271Y-9994076D01*
X7915390Y-9994076D01*
X7917710Y-9992995D01*
X7943457Y-9973559D01*
X7961204Y-9957305D01*
X7964822Y-9948410D01*
X7948970Y-9947283D01*
X7933735Y-9948779D01*
X7874976Y-9965392D01*
X7813464Y-9995738D01*
X7760835Y-10034426D01*
X7723366Y-10078418D01*
X7689454Y-10147248D01*
X7673489Y-10222529D01*
X7602499Y-10222529D01*
X7602862Y-10213384D01*
X7623383Y-10116522D01*
X7667749Y-10030926D01*
X7734045Y-9959562D01*
X7820356Y-9905395D01*
X7837063Y-9898060D01*
X7877357Y-9885574D01*
X7923223Y-9880631D01*
X7985369Y-9881695D01*
G37*
G36*
X8635673Y-7295251D02*
G01*
X8732428Y-7297559D01*
X8824887Y-7301470D01*
X8906126Y-7306853D01*
X8969220Y-7313576D01*
X9082245Y-7332522D01*
X9315712Y-7391274D01*
X9538965Y-7475222D01*
X9752903Y-7584733D01*
X9958424Y-7720178D01*
X9981818Y-7737950D01*
X10064144Y-7806918D01*
X10154368Y-7890467D01*
X10246629Y-7982603D01*
X10335068Y-8077331D01*
X10413821Y-8168656D01*
X10477029Y-8250585D01*
X10539309Y-8345262D01*
X10609234Y-8466942D01*
X10674486Y-8595750D01*
X10730479Y-8722570D01*
X10772630Y-8838287D01*
X10777116Y-8852730D01*
X10833855Y-9081695D01*
X10867090Y-9318793D01*
X10876844Y-9559560D01*
X10863139Y-9799533D01*
X10825997Y-10034249D01*
X10765441Y-10259243D01*
X10752141Y-10297637D01*
X10690062Y-10447515D01*
X10611796Y-10601976D01*
X10521979Y-10753063D01*
X10425249Y-10892814D01*
X10326240Y-11013271D01*
X10245017Y-11102364D01*
X10229187Y-11293670D01*
X10227611Y-11312674D01*
X10209872Y-11518557D01*
X10193038Y-11698426D01*
X10176942Y-11853497D01*
X10161416Y-11984985D01*
X10146293Y-12094105D01*
X10131407Y-12182073D01*
X10116589Y-12250104D01*
X10101673Y-12299414D01*
X10086492Y-12331219D01*
X10076562Y-12343705D01*
X10035024Y-12369508D01*
X9981715Y-12376371D01*
X9923853Y-12362889D01*
X9886266Y-12341639D01*
X9827574Y-12293198D01*
X9760681Y-12223461D01*
X9687603Y-12134377D01*
X9687169Y-12133813D01*
X9642535Y-12077061D01*
X9591127Y-12013479D01*
X9543985Y-11956725D01*
X9543165Y-11955756D01*
X9497018Y-11898401D01*
X9448442Y-11833707D01*
X9407821Y-11775491D01*
X9399277Y-11762684D01*
X9370717Y-11722239D01*
X9348260Y-11693953D01*
X9336164Y-11683306D01*
X9335006Y-11683389D01*
X9314011Y-11687710D01*
X9275182Y-11697290D01*
X9225920Y-11710316D01*
X9198678Y-11717493D01*
X8991958Y-11758550D01*
X8774313Y-11780194D01*
X8551940Y-11782588D01*
X8331037Y-11765896D01*
X8117801Y-11730279D01*
X7918430Y-11675902D01*
X7885086Y-11664898D01*
X7829461Y-11647897D01*
X7792831Y-11639525D01*
X7770739Y-11638924D01*
X7758730Y-11645241D01*
X7745980Y-11660000D01*
X7712785Y-11700014D01*
X7670198Y-11752548D01*
X7622897Y-11811737D01*
X7575558Y-11871710D01*
X7532857Y-11926602D01*
X7499470Y-11970544D01*
X7471145Y-12007013D01*
X7418269Y-12069608D01*
X7359836Y-12133704D01*
X7300366Y-12194723D01*
X7244379Y-12248083D01*
X7196397Y-12289206D01*
X7160938Y-12313512D01*
X7136920Y-12324679D01*
X7068488Y-12340501D01*
X7005282Y-12329574D01*
X6946603Y-12291828D01*
X6928828Y-12274444D01*
X6897953Y-12237563D01*
X6879641Y-12206341D01*
X6876061Y-12195142D01*
X6865398Y-12151040D01*
X6852816Y-12087936D01*
X6839272Y-12011622D01*
X6825718Y-11927892D01*
X6813112Y-11842540D01*
X6802406Y-11761360D01*
X6794558Y-11690145D01*
X6792233Y-11666304D01*
X6783967Y-11588101D01*
X6774871Y-11509345D01*
X6766526Y-11443942D01*
X6757073Y-11369334D01*
X6741364Y-11209941D01*
X6730945Y-11049724D01*
X6726814Y-10902279D01*
X6726773Y-10899142D01*
X6783562Y-10899142D01*
X6786470Y-10952475D01*
X6792538Y-11028438D01*
X6801309Y-11129348D01*
X6811719Y-11246404D01*
X6831345Y-11454841D01*
X6850087Y-11637219D01*
X6867918Y-11793325D01*
X6884812Y-11922946D01*
X6900743Y-12025869D01*
X6915682Y-12101881D01*
X6929605Y-12150771D01*
X6932042Y-12156527D01*
X6951996Y-12191207D01*
X6979030Y-12227777D01*
X7010001Y-12256437D01*
X7049035Y-12271222D01*
X7093614Y-12265642D01*
X7145880Y-12238930D01*
X7207974Y-12190318D01*
X7282035Y-12119036D01*
X7313967Y-12085492D01*
X7372273Y-12021222D01*
X7428356Y-11956179D01*
X7473526Y-11900289D01*
X7481956Y-11889335D01*
X7531917Y-11825403D01*
X7586096Y-11757338D01*
X7634163Y-11698139D01*
X7653548Y-11674331D01*
X7683841Y-11635685D01*
X7703645Y-11608389D01*
X7709392Y-11597229D01*
X7693605Y-11589083D01*
X7661890Y-11573838D01*
X7622738Y-11555503D01*
X7584177Y-11537799D01*
X7554239Y-11524448D01*
X7540954Y-11519171D01*
X7536937Y-11522842D01*
X7521953Y-11543857D01*
X7501046Y-11577302D01*
X7473635Y-11617189D01*
X7428215Y-11672215D01*
X7376271Y-11727367D01*
X7325054Y-11775027D01*
X7281815Y-11807579D01*
X7266422Y-11815917D01*
X7209632Y-11831078D01*
X7155274Y-11824507D01*
X7109807Y-11797946D01*
X7079691Y-11753133D01*
X7061414Y-11693913D01*
X7042005Y-11588432D01*
X7031258Y-11462572D01*
X7029570Y-11319755D01*
X7033382Y-11127178D01*
X6960984Y-11046195D01*
X6960058Y-11045158D01*
X6917865Y-10996705D01*
X6876563Y-10947308D01*
X6844966Y-10907504D01*
X6832371Y-10890828D01*
X6812642Y-10865767D01*
X6798353Y-10851750D01*
X6789047Y-10851096D01*
X6784269Y-10866121D01*
X6783562Y-10899142D01*
X6726773Y-10899142D01*
X6726042Y-10842734D01*
X6723273Y-10792404D01*
X6717237Y-10755286D01*
X6706617Y-10723776D01*
X6690095Y-10690271D01*
X6687866Y-10686119D01*
X6606305Y-10527002D01*
X6540756Y-10381979D01*
X6489131Y-10244835D01*
X6449336Y-10109354D01*
X6419284Y-9969321D01*
X6396881Y-9818521D01*
X6390668Y-9749718D01*
X6386429Y-9642114D01*
X6386444Y-9535677D01*
X6454321Y-9535677D01*
X6465831Y-9767779D01*
X6501578Y-9997278D01*
X6561940Y-10221201D01*
X6580937Y-10275643D01*
X6611761Y-10355450D01*
X6645257Y-10434490D01*
X6679083Y-10507753D01*
X6710895Y-10570229D01*
X6738350Y-10616908D01*
X6759106Y-10642778D01*
X6771257Y-10655739D01*
X6780829Y-10677505D01*
X6784427Y-10692224D01*
X6804803Y-10729499D01*
X6840658Y-10780235D01*
X6889113Y-10841267D01*
X6947287Y-10909430D01*
X7012300Y-10981561D01*
X7081271Y-11054494D01*
X7151320Y-11125064D01*
X7219567Y-11190106D01*
X7283131Y-11246456D01*
X7339132Y-11290949D01*
X7374389Y-11316290D01*
X7578294Y-11445242D01*
X7788140Y-11548059D01*
X8005393Y-11625184D01*
X8231521Y-11677060D01*
X8467989Y-11704131D01*
X8716263Y-11706839D01*
X8728774Y-11706351D01*
X8974697Y-11683857D01*
X9056944Y-11667408D01*
X9407001Y-11667408D01*
X9414903Y-11684594D01*
X9438863Y-11720432D01*
X9476955Y-11772091D01*
X9527231Y-11837098D01*
X9587747Y-11912981D01*
X9656556Y-11997267D01*
X9731713Y-12087483D01*
X9811271Y-12181156D01*
X9833509Y-12206285D01*
X9894544Y-12265361D01*
X9946316Y-12299193D01*
X9988639Y-12307685D01*
X10021330Y-12290739D01*
X10040900Y-12260114D01*
X10059184Y-12210674D01*
X10076346Y-12141223D01*
X10092577Y-12050537D01*
X10108068Y-11937392D01*
X10123007Y-11800564D01*
X10137587Y-11638828D01*
X10151998Y-11450960D01*
X10152792Y-11439812D01*
X10158420Y-11358769D01*
X10163067Y-11288274D01*
X10166474Y-11232511D01*
X10168384Y-11195663D01*
X10168541Y-11181914D01*
X10165051Y-11183500D01*
X10146532Y-11197908D01*
X10117974Y-11222768D01*
X10094423Y-11243666D01*
X10049185Y-11282837D01*
X10003955Y-11321109D01*
X9937998Y-11376090D01*
X9974674Y-11489387D01*
X9979898Y-11505741D01*
X9995995Y-11562595D01*
X10004802Y-11612138D01*
X10007808Y-11665878D01*
X10006502Y-11735321D01*
X10003955Y-11783958D01*
X9995231Y-11856020D01*
X9979957Y-11908024D01*
X9956521Y-11944517D01*
X9923312Y-11970047D01*
X9916809Y-11973607D01*
X9892257Y-11983216D01*
X9868959Y-11980207D01*
X9834651Y-11963705D01*
X9833909Y-11963303D01*
X9794144Y-11932882D01*
X9747380Y-11883502D01*
X9698110Y-11820864D01*
X9650825Y-11750668D01*
X9610017Y-11678615D01*
X9591874Y-11644294D01*
X9573317Y-11616487D01*
X9557185Y-11605463D01*
X9538724Y-11606408D01*
X9529833Y-11608778D01*
X9488170Y-11622735D01*
X9448443Y-11639645D01*
X9418703Y-11655778D01*
X9407001Y-11667408D01*
X9056944Y-11667408D01*
X9207922Y-11637213D01*
X9428805Y-11566305D01*
X9637700Y-11471023D01*
X9834963Y-11351251D01*
X9879957Y-11319473D01*
X10072308Y-11164553D01*
X10244795Y-10993076D01*
X10396298Y-10806724D01*
X10525697Y-10607179D01*
X10631873Y-10396122D01*
X10713707Y-10175237D01*
X10770079Y-9946203D01*
X10780661Y-9871569D01*
X10788975Y-9771905D01*
X10794040Y-9659055D01*
X10795854Y-9539743D01*
X10794413Y-9420694D01*
X10789712Y-9308631D01*
X10781749Y-9210280D01*
X10770521Y-9132364D01*
X10721669Y-8928214D01*
X10648159Y-8713827D01*
X10553622Y-8513453D01*
X10436510Y-8324290D01*
X10295279Y-8143537D01*
X10128381Y-7968390D01*
X10081720Y-7924601D01*
X9895887Y-7770660D01*
X9702120Y-7642333D01*
X9498741Y-7538734D01*
X9284071Y-7458976D01*
X9056432Y-7402175D01*
X9048994Y-7400761D01*
X8950946Y-7386378D01*
X8835345Y-7375557D01*
X8711036Y-7368652D01*
X8586865Y-7366014D01*
X8471676Y-7367998D01*
X8374314Y-7374956D01*
X8241028Y-7394289D01*
X8012116Y-7448391D01*
X7790412Y-7527232D01*
X7578955Y-7629457D01*
X7380784Y-7753712D01*
X7198940Y-7898642D01*
X7117805Y-7971389D01*
X7171584Y-8011092D01*
X7331296Y-8137371D01*
X7502689Y-8293721D01*
X7655813Y-8457073D01*
X7786161Y-8622939D01*
X7787360Y-8624625D01*
X7816123Y-8662222D01*
X7839701Y-8688094D01*
X7853093Y-8696725D01*
X7860786Y-8689688D01*
X7878182Y-8663634D01*
X7898675Y-8625625D01*
X7912083Y-8598811D01*
X7931781Y-8560860D01*
X7944917Y-8537372D01*
X7952125Y-8524655D01*
X7969654Y-8490631D01*
X7990167Y-8448465D01*
X8006506Y-8416011D01*
X8072504Y-8313674D01*
X8151238Y-8227536D01*
X8238869Y-8161307D01*
X8331555Y-8118696D01*
X8394074Y-8104159D01*
X8474320Y-8093803D01*
X8561354Y-8088675D01*
X8646814Y-8088995D01*
X8722335Y-8094983D01*
X8779554Y-8106862D01*
X8811060Y-8118364D01*
X8915490Y-8174903D01*
X9007314Y-8255057D01*
X9085051Y-8357611D01*
X9121965Y-8417214D01*
X9143423Y-8384967D01*
X9186323Y-8329149D01*
X9259409Y-8264591D01*
X9340569Y-8224960D01*
X9428018Y-8211019D01*
X9519973Y-8223533D01*
X9532668Y-8227582D01*
X9577212Y-8254751D01*
X9607970Y-8300622D01*
X9627663Y-8368871D01*
X9632634Y-8443560D01*
X9618162Y-8507299D01*
X9586272Y-8554469D01*
X9539589Y-8582597D01*
X9480739Y-8589207D01*
X9412348Y-8571825D01*
X9387454Y-8558886D01*
X9367646Y-8538054D01*
X9369532Y-8519955D01*
X9389704Y-8507879D01*
X9424753Y-8505115D01*
X9471271Y-8514953D01*
X9498102Y-8517066D01*
X9528610Y-8499382D01*
X9549629Y-8462355D01*
X9557458Y-8410475D01*
X9552584Y-8356688D01*
X9533657Y-8317865D01*
X9497020Y-8297237D01*
X9439068Y-8291168D01*
X9438740Y-8291169D01*
X9352276Y-8302262D01*
X9281877Y-8335491D01*
X9227324Y-8391013D01*
X9188399Y-8468982D01*
X9182781Y-8486747D01*
X9179938Y-8509300D01*
X9185122Y-8534162D01*
X9200164Y-8568489D01*
X9226897Y-8619440D01*
X9248137Y-8662834D01*
X9277924Y-8732649D01*
X9307641Y-8810484D01*
X9333227Y-8886160D01*
X9335218Y-8892565D01*
X9357077Y-8965905D01*
X9371434Y-9023800D01*
X9379881Y-9075845D01*
X9384008Y-9131632D01*
X9385407Y-9200754D01*
X9385527Y-9220844D01*
X9385075Y-9282943D01*
X9382175Y-9327480D01*
X9375492Y-9362211D01*
X9363695Y-9394892D01*
X9345450Y-9433279D01*
X9324690Y-9472752D01*
X9305219Y-9500755D01*
X9285559Y-9514423D01*
X9259880Y-9519639D01*
X9228418Y-9518518D01*
X9177538Y-9496325D01*
X9130695Y-9447993D01*
X9087256Y-9372984D01*
X9044534Y-9282822D01*
X9045202Y-9002423D01*
X9114039Y-9002423D01*
X9114407Y-9064110D01*
X9115475Y-9140047D01*
X9117562Y-9196522D01*
X9121137Y-9238330D01*
X9126669Y-9270263D01*
X9134628Y-9297117D01*
X9145482Y-9323685D01*
X9167873Y-9367673D01*
X9196492Y-9411478D01*
X9223736Y-9442206D01*
X9244971Y-9453796D01*
X9247763Y-9453393D01*
X9265392Y-9436881D01*
X9283970Y-9400897D01*
X9301145Y-9351944D01*
X9314564Y-9296525D01*
X9321877Y-9241142D01*
X9321913Y-9240594D01*
X9323392Y-9195359D01*
X9320841Y-9151780D01*
X9313177Y-9102932D01*
X9299316Y-9041889D01*
X9278176Y-8961725D01*
X9275538Y-8952145D01*
X9253822Y-8877978D01*
X9231231Y-8807772D01*
X9210288Y-8749049D01*
X9193515Y-8709329D01*
X9178564Y-8680373D01*
X9159432Y-8646204D01*
X9147232Y-8628048D01*
X9147067Y-8627882D01*
X9137051Y-8630623D01*
X9128667Y-8659191D01*
X9122043Y-8712121D01*
X9117311Y-8787947D01*
X9114599Y-8885202D01*
X9114039Y-9002423D01*
X9045202Y-9002423D01*
X9045283Y-8968228D01*
X9045373Y-8939035D01*
X9046186Y-8836860D01*
X9047892Y-8757237D01*
X9050722Y-8696319D01*
X9054910Y-8650259D01*
X9060686Y-8615210D01*
X9068283Y-8587326D01*
X9072049Y-8575999D01*
X9081072Y-8543797D01*
X9082593Y-8517068D01*
X9075000Y-8488559D01*
X9056682Y-8451020D01*
X9026028Y-8397199D01*
X9022480Y-8391177D01*
X8955021Y-8301387D01*
X8872508Y-8229850D01*
X8779826Y-8180860D01*
X8748219Y-8169881D01*
X8711619Y-8160978D01*
X8670340Y-8156393D01*
X8616848Y-8155370D01*
X8543610Y-8157152D01*
X8524121Y-8157844D01*
X8458507Y-8161053D01*
X8410557Y-8166002D01*
X8372472Y-8174249D01*
X8336454Y-8187352D01*
X8294707Y-8206868D01*
X8257725Y-8226718D01*
X8180050Y-8282984D01*
X8114937Y-8354823D01*
X8059275Y-8446099D01*
X8009956Y-8560676D01*
X7995694Y-8596572D01*
X7974757Y-8642483D01*
X7957098Y-8674152D01*
X7955523Y-8676499D01*
X7934845Y-8714879D01*
X7917311Y-8758514D01*
X7913974Y-8769302D01*
X7909695Y-8791173D01*
X7911456Y-8813792D01*
X7920903Y-8843040D01*
X7939678Y-8884799D01*
X7969427Y-8944949D01*
X8014460Y-9039138D01*
X8058476Y-9146172D01*
X8085024Y-9233550D01*
X8093915Y-9300733D01*
X8092869Y-9327636D01*
X8080364Y-9398832D01*
X8056064Y-9463093D01*
X8022924Y-9515316D01*
X7983901Y-9550393D01*
X7941950Y-9563220D01*
X7903066Y-9551694D01*
X7863514Y-9521542D01*
X7831509Y-9480464D01*
X7814764Y-9436167D01*
X7807361Y-9374926D01*
X7800386Y-9252178D01*
X7800510Y-9228240D01*
X7870418Y-9228240D01*
X7872086Y-9297584D01*
X7875701Y-9359589D01*
X7881326Y-9409054D01*
X7889020Y-9440780D01*
X7905176Y-9469295D01*
X7930612Y-9487098D01*
X7957484Y-9482978D01*
X7983097Y-9459676D01*
X8004759Y-9419929D01*
X8019774Y-9366478D01*
X8025449Y-9302060D01*
X8022779Y-9270613D01*
X8006751Y-9202633D01*
X7977556Y-9119651D01*
X7936705Y-9026360D01*
X7918132Y-8988543D01*
X7902461Y-8959019D01*
X7894790Y-8947711D01*
X7889169Y-8953460D01*
X7882010Y-8981489D01*
X7876494Y-9028182D01*
X7872683Y-9088338D01*
X7870638Y-9156758D01*
X7870418Y-9228240D01*
X7800510Y-9228240D01*
X7801084Y-9116990D01*
X7809556Y-8978184D01*
X7816101Y-8904368D01*
X7819227Y-8847233D01*
X7816573Y-8803452D01*
X7806116Y-8765903D01*
X7785834Y-8727466D01*
X7753707Y-8681018D01*
X7707712Y-8619440D01*
X7634768Y-8527625D01*
X7538473Y-8418346D01*
X7435023Y-8311484D01*
X7329761Y-8212276D01*
X7228027Y-8125964D01*
X7135164Y-8057787D01*
X7075762Y-8018461D01*
X7043376Y-8048810D01*
X7037825Y-8054146D01*
X6998624Y-8096393D01*
X6950153Y-8154243D01*
X6897296Y-8221510D01*
X6844939Y-8292010D01*
X6797964Y-8359558D01*
X6747140Y-8440235D01*
X6643118Y-8640733D01*
X6561448Y-8853501D01*
X6502507Y-9075564D01*
X6466672Y-9303948D01*
X6454321Y-9535677D01*
X6386444Y-9535677D01*
X6386446Y-9522646D01*
X6390437Y-9399128D01*
X6398121Y-9279376D01*
X6409215Y-9171202D01*
X6423437Y-9082422D01*
X6461101Y-8927299D01*
X6540182Y-8695983D01*
X6644119Y-8475348D01*
X6772144Y-8266943D01*
X6923489Y-8072321D01*
X6938597Y-8054915D01*
X6973493Y-8013805D01*
X6993298Y-7987210D01*
X7000264Y-7970600D01*
X6996642Y-7959446D01*
X6984684Y-7949219D01*
X6978995Y-7944978D01*
X6947191Y-7920160D01*
X6911412Y-7891088D01*
X6899852Y-7881819D01*
X6870902Y-7861554D01*
X6853178Y-7853473D01*
X6843960Y-7850579D01*
X6816194Y-7836121D01*
X6779755Y-7813596D01*
X6717905Y-7778973D01*
X6612456Y-7737949D01*
X6493691Y-7707919D01*
X6368763Y-7689810D01*
X6244826Y-7684549D01*
X6129034Y-7693063D01*
X6028541Y-7716277D01*
X6004130Y-7725120D01*
X5898855Y-7774216D01*
X5800671Y-7836623D01*
X5719705Y-7906118D01*
X5669077Y-7976342D01*
X5635115Y-8067100D01*
X5619997Y-8174655D01*
X5623965Y-8297242D01*
X5647261Y-8433094D01*
X5659649Y-8484715D01*
X5676670Y-8544458D01*
X5695864Y-8590549D01*
X5721639Y-8630896D01*
X5758405Y-8673405D01*
X5810570Y-8725985D01*
X5881039Y-8791156D01*
X5948391Y-8842225D01*
X6011286Y-8875394D01*
X6074999Y-8893392D01*
X6144804Y-8898950D01*
X6185544Y-8897712D01*
X6259812Y-8884746D01*
X6313468Y-8856943D01*
X6348706Y-8813382D01*
X6358766Y-8788308D01*
X6373527Y-8735990D01*
X6387760Y-8670986D01*
X6399854Y-8601766D01*
X6408201Y-8536803D01*
X6411190Y-8484569D01*
X6410993Y-8472053D01*
X6401585Y-8384626D01*
X6379311Y-8311829D01*
X6345759Y-8259140D01*
X6289753Y-8212688D01*
X6225521Y-8181107D01*
X6161418Y-8168273D01*
X6104382Y-8176563D01*
X6090820Y-8184349D01*
X6065155Y-8217549D01*
X6050502Y-8264598D01*
X6050325Y-8316526D01*
X6052625Y-8357891D01*
X6042500Y-8379901D01*
X6040782Y-8380889D01*
X6020251Y-8380450D01*
X6004075Y-8359574D01*
X5993467Y-8324530D01*
X5989638Y-8281588D01*
X5993800Y-8237017D01*
X6007165Y-8197084D01*
X6011951Y-8188577D01*
X6051686Y-8143535D01*
X6103887Y-8111806D01*
X6158482Y-8099861D01*
X6165516Y-8100125D01*
X6217943Y-8111944D01*
X6278742Y-8137979D01*
X6338658Y-8173625D01*
X6388432Y-8214276D01*
X6409471Y-8237298D01*
X6435176Y-8276099D01*
X6452204Y-8321860D01*
X6461653Y-8379596D01*
X6464620Y-8454321D01*
X6462205Y-8551050D01*
X6458521Y-8614875D01*
X6446656Y-8717230D01*
X6426937Y-8797547D01*
X6397611Y-8858985D01*
X6356926Y-8904702D01*
X6303130Y-8937859D01*
X6234469Y-8961613D01*
X6155957Y-8972524D01*
X6058639Y-8961244D01*
X5959124Y-8923771D01*
X5858544Y-8860557D01*
X5758034Y-8772053D01*
X5730918Y-8744288D01*
X5681613Y-8689350D01*
X5645911Y-8639266D01*
X5619483Y-8586049D01*
X5597998Y-8521708D01*
X5577127Y-8438253D01*
X5564009Y-8369937D01*
X5552385Y-8236177D01*
X5558942Y-8107466D01*
X5583566Y-7991599D01*
X5584504Y-7988685D01*
X5621973Y-7914417D01*
X5682515Y-7842674D01*
X5762007Y-7776047D01*
X5856329Y-7717124D01*
X5961358Y-7668495D01*
X6072973Y-7632749D01*
X6187051Y-7612476D01*
X6269319Y-7609666D01*
X6372774Y-7617347D01*
X6481819Y-7634926D01*
X6589879Y-7660802D01*
X6690377Y-7693371D01*
X6776736Y-7731030D01*
X6842380Y-7772178D01*
X6871738Y-7794972D01*
X6929426Y-7837600D01*
X6983032Y-7875010D01*
X7055294Y-7923283D01*
X7181363Y-7817478D01*
X7257389Y-7756031D01*
X7457653Y-7616013D01*
X7666040Y-7501507D01*
X7884619Y-7411608D01*
X8115461Y-7345412D01*
X8360636Y-7302013D01*
X8388888Y-7299261D01*
X8456978Y-7295970D01*
X8541548Y-7294677D01*
X8635673Y-7295251D01*
G37*
G36*
X26177496Y-7748017D02*
G01*
X26184518Y-7769959D01*
X26183673Y-7772824D01*
X26167023Y-7790322D01*
X26133341Y-7815937D01*
X26088256Y-7846259D01*
X26037395Y-7877880D01*
X25986388Y-7907389D01*
X25940862Y-7931376D01*
X25906446Y-7946431D01*
X25888767Y-7949144D01*
X25877930Y-7936880D01*
X25882650Y-7919634D01*
X25906089Y-7896199D01*
X25950207Y-7864647D01*
X26016963Y-7823052D01*
X26072140Y-7790896D01*
X26119816Y-7764941D01*
X26154410Y-7748125D01*
X26170840Y-7743090D01*
X26177496Y-7748017D01*
G37*
G36*
X23089220Y-7775356D02*
G01*
X23125305Y-7809690D01*
X23126252Y-7810837D01*
X23194341Y-7886080D01*
X23260426Y-7945504D01*
X23319594Y-7984686D01*
X23328163Y-7989186D01*
X23363570Y-8013298D01*
X23372397Y-8032757D01*
X23354503Y-8047308D01*
X23349285Y-8048347D01*
X23319642Y-8042361D01*
X23278910Y-8024223D01*
X23235014Y-7997924D01*
X23195881Y-7967454D01*
X23163403Y-7935305D01*
X23127075Y-7895303D01*
X23092395Y-7853890D01*
X23063640Y-7816397D01*
X23045089Y-7788153D01*
X23041018Y-7774490D01*
X23058647Y-7765703D01*
X23089220Y-7775356D01*
G37*
G36*
X25929972Y-8637327D02*
G01*
X25964833Y-8667398D01*
X25973165Y-8675080D01*
X26010369Y-8701493D01*
X26061425Y-8731210D01*
X26117850Y-8759145D01*
X26156052Y-8776934D01*
X26200767Y-8800960D01*
X26225061Y-8820112D01*
X26232391Y-8836731D01*
X26230061Y-8847966D01*
X26215899Y-8855781D01*
X26186493Y-8851272D01*
X26139099Y-8833865D01*
X26070974Y-8802986D01*
X26051193Y-8793216D01*
X25987132Y-8756140D01*
X25936201Y-8718130D01*
X25902578Y-8682653D01*
X25890442Y-8653177D01*
X25891708Y-8641550D01*
X25904768Y-8628552D01*
X25929972Y-8637327D01*
G37*
G36*
X23072806Y-8318705D02*
G01*
X23145186Y-8322045D01*
X23218756Y-8327355D01*
X23288207Y-8334529D01*
X23317153Y-8340770D01*
X23342286Y-8354531D01*
X23347293Y-8370569D01*
X23328879Y-8384808D01*
X23328577Y-8384917D01*
X23306819Y-8386874D01*
X23264823Y-8386467D01*
X23208534Y-8384128D01*
X23143901Y-8380291D01*
X23076868Y-8375390D01*
X23013383Y-8369858D01*
X22959393Y-8364129D01*
X22920843Y-8358635D01*
X22903680Y-8353812D01*
X22899843Y-8348074D01*
X22901626Y-8326611D01*
X22915895Y-8321604D01*
X22952852Y-8318376D01*
X23006925Y-8317446D01*
X23072806Y-8318705D01*
G37*
G36*
X26053826Y-8301998D02*
G01*
X26123955Y-8304021D01*
X26174473Y-8306943D01*
X26205548Y-8311252D01*
X26221225Y-8317521D01*
X26225552Y-8326323D01*
X26225503Y-8327461D01*
X26220216Y-8335744D01*
X26203414Y-8341674D01*
X26171137Y-8345782D01*
X26119426Y-8348598D01*
X26044319Y-8350656D01*
X25973676Y-8351711D01*
X25919650Y-8351157D01*
X25885717Y-8348533D01*
X25868117Y-8343529D01*
X25863086Y-8335839D01*
X25863672Y-8328826D01*
X25872593Y-8307697D01*
X25873066Y-8307345D01*
X25891898Y-8304116D01*
X25932003Y-8302032D01*
X25987830Y-8301268D01*
X26053826Y-8301998D01*
G37*
G36*
X23364884Y-8629395D02*
G01*
X23374095Y-8640437D01*
X23361224Y-8661630D01*
X23327594Y-8691228D01*
X23274529Y-8727486D01*
X23271582Y-8729339D01*
X23211787Y-8769769D01*
X23149855Y-8815908D01*
X23098740Y-8858132D01*
X23088267Y-8867409D01*
X23047942Y-8900026D01*
X23021892Y-8914184D01*
X23007054Y-8911670D01*
X23000438Y-8901272D01*
X23004770Y-8872731D01*
X23019711Y-8854320D01*
X23053549Y-8822568D01*
X23099801Y-8783908D01*
X23152906Y-8742783D01*
X23207303Y-8703633D01*
X23257431Y-8670902D01*
X23287774Y-8653669D01*
X23325432Y-8635685D01*
X23349758Y-8628288D01*
X23364884Y-8629395D01*
G37*
G36*
X25152709Y-9096171D02*
G01*
X25199181Y-9099325D01*
X25246145Y-9107142D01*
X25286621Y-9122225D01*
X25332536Y-9148012D01*
X25394602Y-9194527D01*
X25440797Y-9253006D01*
X25452004Y-9272334D01*
X25471090Y-9300190D01*
X25483236Y-9311137D01*
X25484482Y-9311466D01*
X25491088Y-9326872D01*
X25493780Y-9358203D01*
X25493832Y-9362469D01*
X25497944Y-9395397D01*
X25506618Y-9413202D01*
X25512866Y-9424748D01*
X25511551Y-9451624D01*
X25505732Y-9481825D01*
X25501124Y-9523146D01*
X25488244Y-9574749D01*
X25458023Y-9633828D01*
X25415132Y-9691070D01*
X25412772Y-9693735D01*
X25392626Y-9719252D01*
X25384357Y-9734932D01*
X25375849Y-9746579D01*
X25347125Y-9764125D01*
X25305027Y-9782880D01*
X25256775Y-9800028D01*
X25209594Y-9812752D01*
X25170705Y-9818237D01*
X25070802Y-9813968D01*
X24984088Y-9792584D01*
X24912014Y-9752358D01*
X24850643Y-9691735D01*
X24845900Y-9685761D01*
X24800494Y-9615558D01*
X24776142Y-9543518D01*
X24768981Y-9458615D01*
X24769435Y-9447183D01*
X24837314Y-9447183D01*
X24844444Y-9516369D01*
X24867746Y-9585544D01*
X24904522Y-9637481D01*
X24933615Y-9664366D01*
X24978769Y-9701717D01*
X25012327Y-9723352D01*
X25030976Y-9726927D01*
X25034746Y-9725410D01*
X25042407Y-9734319D01*
X25043811Y-9736881D01*
X25065065Y-9742370D01*
X25109700Y-9744169D01*
X25174896Y-9742247D01*
X25257835Y-9736576D01*
X25265627Y-9733660D01*
X25274933Y-9714637D01*
X25277050Y-9705114D01*
X25293346Y-9694120D01*
X25306913Y-9688036D01*
X25334363Y-9666106D01*
X25366748Y-9633699D01*
X25389121Y-9608518D01*
X25407791Y-9582560D01*
X25417858Y-9555666D01*
X25422294Y-9519030D01*
X25424072Y-9463846D01*
X25424176Y-9458258D01*
X25423285Y-9402752D01*
X25419036Y-9363300D01*
X25411998Y-9345509D01*
X25407227Y-9341575D01*
X25404057Y-9326136D01*
X25401417Y-9311859D01*
X25381238Y-9286623D01*
X25348281Y-9256340D01*
X25308272Y-9225735D01*
X25266937Y-9199536D01*
X25230001Y-9182467D01*
X25207590Y-9175513D01*
X25167360Y-9165501D01*
X25141095Y-9162266D01*
X25135120Y-9162696D01*
X25125128Y-9164915D01*
X25141573Y-9170108D01*
X25154242Y-9175353D01*
X25165509Y-9189038D01*
X25167691Y-9194756D01*
X25185675Y-9201713D01*
X25192751Y-9202674D01*
X25216804Y-9222094D01*
X25235946Y-9263212D01*
X25248647Y-9321695D01*
X25253372Y-9393205D01*
X25253338Y-9403650D01*
X25247088Y-9481013D01*
X25228640Y-9537620D01*
X25195834Y-9577767D01*
X25146511Y-9605746D01*
X25135624Y-9610033D01*
X25102534Y-9619980D01*
X25076092Y-9617825D01*
X25041790Y-9603219D01*
X24996775Y-9570865D01*
X24959027Y-9515606D01*
X24946370Y-9471853D01*
X25017562Y-9471853D01*
X25026320Y-9499465D01*
X25050925Y-9513610D01*
X25074807Y-9509519D01*
X25090976Y-9487616D01*
X25088388Y-9454756D01*
X25075609Y-9441684D01*
X25046874Y-9434239D01*
X25033239Y-9434965D01*
X25018148Y-9444514D01*
X25017562Y-9471853D01*
X24946370Y-9471853D01*
X24938902Y-9446039D01*
X24937592Y-9366646D01*
X24956291Y-9281908D01*
X24982406Y-9204805D01*
X24943924Y-9233256D01*
X24938405Y-9237630D01*
X24902300Y-9279049D01*
X24869783Y-9335072D01*
X24846304Y-9394763D01*
X24837314Y-9447183D01*
X24769435Y-9447183D01*
X24770202Y-9427860D01*
X24790723Y-9330998D01*
X24835089Y-9245402D01*
X24901385Y-9174038D01*
X24987695Y-9119871D01*
X25004403Y-9112536D01*
X25044697Y-9100050D01*
X25090563Y-9095107D01*
X25152709Y-9096171D01*
G37*
G36*
X23935369Y-9096171D02*
G01*
X23981841Y-9099325D01*
X24028805Y-9107142D01*
X24069282Y-9122225D01*
X24115197Y-9148012D01*
X24177262Y-9194527D01*
X24223457Y-9253006D01*
X24234665Y-9272334D01*
X24253750Y-9300190D01*
X24265896Y-9311137D01*
X24267142Y-9311466D01*
X24273748Y-9326872D01*
X24276441Y-9358203D01*
X24276493Y-9362469D01*
X24280604Y-9395397D01*
X24289278Y-9413202D01*
X24295527Y-9424748D01*
X24294211Y-9451624D01*
X24288392Y-9481825D01*
X24283784Y-9523146D01*
X24270904Y-9574749D01*
X24240684Y-9633828D01*
X24197792Y-9691070D01*
X24195433Y-9693735D01*
X24175287Y-9719252D01*
X24167017Y-9734932D01*
X24158509Y-9746579D01*
X24129786Y-9764125D01*
X24087687Y-9782880D01*
X24039436Y-9800028D01*
X23992254Y-9812752D01*
X23953366Y-9818237D01*
X23853462Y-9813968D01*
X23766748Y-9792584D01*
X23694674Y-9752358D01*
X23633304Y-9691735D01*
X23628560Y-9685761D01*
X23583154Y-9615558D01*
X23558802Y-9543518D01*
X23551642Y-9458615D01*
X23552499Y-9437005D01*
X23623489Y-9437005D01*
X23625862Y-9512330D01*
X23646963Y-9581291D01*
X23687182Y-9637481D01*
X23716275Y-9664366D01*
X23761429Y-9701717D01*
X23794987Y-9723352D01*
X23813636Y-9726927D01*
X23817406Y-9725410D01*
X23825067Y-9734319D01*
X23826471Y-9736881D01*
X23847725Y-9742370D01*
X23892360Y-9744169D01*
X23957557Y-9742247D01*
X24040496Y-9736576D01*
X24048287Y-9733660D01*
X24057593Y-9714637D01*
X24059710Y-9705114D01*
X24076006Y-9694120D01*
X24089541Y-9688059D01*
X24116977Y-9666154D01*
X24149346Y-9633767D01*
X24168342Y-9612503D01*
X24188753Y-9585326D01*
X24199828Y-9558353D01*
X24204753Y-9522398D01*
X24206711Y-9468274D01*
X24206200Y-9414367D01*
X24201562Y-9368553D01*
X24193247Y-9343975D01*
X24186214Y-9333103D01*
X24188542Y-9324815D01*
X24189446Y-9321589D01*
X24177798Y-9304257D01*
X24153339Y-9276942D01*
X24153250Y-9276851D01*
X24119294Y-9244845D01*
X24097921Y-9230904D01*
X24091145Y-9235685D01*
X24100979Y-9259845D01*
X24101661Y-9261162D01*
X24109937Y-9291404D01*
X24115860Y-9338628D01*
X24118188Y-9393205D01*
X24118146Y-9403558D01*
X24111843Y-9480966D01*
X24093364Y-9537605D01*
X24060549Y-9577767D01*
X24011239Y-9605746D01*
X24000082Y-9610137D01*
X23967087Y-9619997D01*
X23940555Y-9617722D01*
X23905901Y-9602919D01*
X23869288Y-9578344D01*
X23829037Y-9525939D01*
X23810769Y-9471853D01*
X23882290Y-9471853D01*
X23891048Y-9499465D01*
X23915653Y-9513610D01*
X23939535Y-9509519D01*
X23955704Y-9487616D01*
X23953116Y-9454756D01*
X23940337Y-9441684D01*
X23911602Y-9434239D01*
X23897967Y-9434965D01*
X23882876Y-9444514D01*
X23882290Y-9471853D01*
X23810769Y-9471853D01*
X23806094Y-9458011D01*
X23801685Y-9378837D01*
X23817036Y-9292697D01*
X23828112Y-9258578D01*
X23841237Y-9227411D01*
X23850713Y-9215391D01*
X23865390Y-9208552D01*
X24071271Y-9208552D01*
X24078110Y-9215391D01*
X24084949Y-9208552D01*
X24078110Y-9201713D01*
X24071271Y-9208552D01*
X23865390Y-9208552D01*
X23867710Y-9207471D01*
X23893457Y-9188035D01*
X23911204Y-9171781D01*
X23914822Y-9162886D01*
X23898970Y-9161759D01*
X23883735Y-9163255D01*
X23824976Y-9179868D01*
X23763464Y-9210214D01*
X23710835Y-9248902D01*
X23673366Y-9292894D01*
X23639454Y-9361724D01*
X23623489Y-9437005D01*
X23552499Y-9437005D01*
X23552862Y-9427860D01*
X23573383Y-9330998D01*
X23617749Y-9245402D01*
X23684045Y-9174038D01*
X23770356Y-9119871D01*
X23787063Y-9112536D01*
X23827357Y-9100050D01*
X23873223Y-9095107D01*
X23935369Y-9096171D01*
G37*
G36*
X24585673Y-6509727D02*
G01*
X24682428Y-6512035D01*
X24774887Y-6515946D01*
X24856126Y-6521329D01*
X24919220Y-6528052D01*
X25032245Y-6546998D01*
X25265712Y-6605750D01*
X25488965Y-6689698D01*
X25702903Y-6799209D01*
X25908424Y-6934654D01*
X25931818Y-6952426D01*
X26014144Y-7021394D01*
X26104368Y-7104943D01*
X26196629Y-7197079D01*
X26285068Y-7291807D01*
X26363821Y-7383132D01*
X26427029Y-7465061D01*
X26489309Y-7559738D01*
X26559234Y-7681418D01*
X26624486Y-7810226D01*
X26680479Y-7937046D01*
X26722630Y-8052763D01*
X26727116Y-8067206D01*
X26783855Y-8296171D01*
X26817090Y-8533269D01*
X26826844Y-8774036D01*
X26813139Y-9014009D01*
X26775997Y-9248725D01*
X26715441Y-9473719D01*
X26702141Y-9512113D01*
X26640062Y-9661991D01*
X26561796Y-9816452D01*
X26471979Y-9967539D01*
X26375249Y-10107290D01*
X26276240Y-10227747D01*
X26195017Y-10316840D01*
X26179187Y-10508146D01*
X26177611Y-10527150D01*
X26159872Y-10733033D01*
X26143038Y-10912902D01*
X26126942Y-11067973D01*
X26111416Y-11199461D01*
X26096293Y-11308581D01*
X26081407Y-11396549D01*
X26066589Y-11464580D01*
X26051673Y-11513890D01*
X26036492Y-11545695D01*
X26026562Y-11558181D01*
X25985024Y-11583984D01*
X25931715Y-11590847D01*
X25873853Y-11577365D01*
X25836266Y-11556115D01*
X25777574Y-11507674D01*
X25710681Y-11437937D01*
X25637603Y-11348853D01*
X25637169Y-11348289D01*
X25592535Y-11291537D01*
X25541127Y-11227955D01*
X25493985Y-11171201D01*
X25493165Y-11170232D01*
X25447018Y-11112877D01*
X25398442Y-11048183D01*
X25357821Y-10989967D01*
X25349277Y-10977160D01*
X25320717Y-10936715D01*
X25298260Y-10908429D01*
X25286164Y-10897782D01*
X25285006Y-10897865D01*
X25264011Y-10902186D01*
X25225182Y-10911766D01*
X25175920Y-10924792D01*
X25148678Y-10931969D01*
X24941958Y-10973026D01*
X24724313Y-10994670D01*
X24501940Y-10997064D01*
X24281037Y-10980372D01*
X24067801Y-10944755D01*
X23868430Y-10890378D01*
X23835086Y-10879374D01*
X23779461Y-10862373D01*
X23742831Y-10854001D01*
X23720739Y-10853400D01*
X23708730Y-10859717D01*
X23695980Y-10874476D01*
X23662785Y-10914490D01*
X23620198Y-10967024D01*
X23572897Y-11026213D01*
X23525558Y-11086186D01*
X23482857Y-11141078D01*
X23449470Y-11185020D01*
X23421145Y-11221489D01*
X23368269Y-11284084D01*
X23309836Y-11348180D01*
X23250366Y-11409199D01*
X23194379Y-11462559D01*
X23146397Y-11503682D01*
X23110938Y-11527988D01*
X23086920Y-11539155D01*
X23018488Y-11554977D01*
X22955282Y-11544050D01*
X22896603Y-11506304D01*
X22878828Y-11488920D01*
X22847953Y-11452039D01*
X22829641Y-11420817D01*
X22826061Y-11409618D01*
X22815398Y-11365516D01*
X22802816Y-11302412D01*
X22789272Y-11226098D01*
X22775718Y-11142368D01*
X22763112Y-11057016D01*
X22752406Y-10975836D01*
X22744558Y-10904621D01*
X22742233Y-10880780D01*
X22733967Y-10802577D01*
X22724871Y-10723821D01*
X22716526Y-10658418D01*
X22707073Y-10583810D01*
X22691364Y-10424417D01*
X22680945Y-10264200D01*
X22676814Y-10116755D01*
X22676773Y-10113618D01*
X22733562Y-10113618D01*
X22736470Y-10166951D01*
X22742538Y-10242914D01*
X22751309Y-10343824D01*
X22761719Y-10460880D01*
X22781345Y-10669317D01*
X22800087Y-10851695D01*
X22817918Y-11007801D01*
X22834812Y-11137422D01*
X22850743Y-11240345D01*
X22865682Y-11316357D01*
X22879605Y-11365247D01*
X22882042Y-11371003D01*
X22901996Y-11405683D01*
X22929030Y-11442253D01*
X22960001Y-11470913D01*
X22999035Y-11485698D01*
X23043614Y-11480118D01*
X23095880Y-11453406D01*
X23157974Y-11404794D01*
X23232035Y-11333512D01*
X23263967Y-11299968D01*
X23322273Y-11235698D01*
X23378356Y-11170655D01*
X23423526Y-11114765D01*
X23431956Y-11103811D01*
X23481917Y-11039879D01*
X23536096Y-10971814D01*
X23584163Y-10912615D01*
X23603548Y-10888807D01*
X23633841Y-10850161D01*
X23653645Y-10822865D01*
X23659392Y-10811705D01*
X23643605Y-10803559D01*
X23611890Y-10788314D01*
X23572738Y-10769979D01*
X23534177Y-10752275D01*
X23504239Y-10738924D01*
X23490954Y-10733647D01*
X23486937Y-10737318D01*
X23471953Y-10758333D01*
X23451046Y-10791778D01*
X23423635Y-10831665D01*
X23378215Y-10886691D01*
X23326271Y-10941843D01*
X23275054Y-10989503D01*
X23231815Y-11022055D01*
X23216422Y-11030393D01*
X23159632Y-11045554D01*
X23105274Y-11038983D01*
X23059807Y-11012422D01*
X23029691Y-10967609D01*
X23011414Y-10908389D01*
X22992005Y-10802908D01*
X22981258Y-10677048D01*
X22979570Y-10534231D01*
X22983382Y-10341654D01*
X22910984Y-10260671D01*
X22910058Y-10259634D01*
X22867865Y-10211181D01*
X22826563Y-10161784D01*
X22794966Y-10121980D01*
X22782371Y-10105304D01*
X22762642Y-10080243D01*
X22748353Y-10066226D01*
X22739047Y-10065572D01*
X22734269Y-10080597D01*
X22733562Y-10113618D01*
X22676773Y-10113618D01*
X22676042Y-10057210D01*
X22673273Y-10006880D01*
X22667237Y-9969762D01*
X22656617Y-9938252D01*
X22640095Y-9904747D01*
X22637866Y-9900595D01*
X22556305Y-9741478D01*
X22490756Y-9596455D01*
X22439131Y-9459311D01*
X22399336Y-9323830D01*
X22369284Y-9183797D01*
X22346881Y-9032997D01*
X22340668Y-8964194D01*
X22336429Y-8856590D01*
X22336444Y-8750153D01*
X22404321Y-8750153D01*
X22415831Y-8982255D01*
X22451578Y-9211754D01*
X22511940Y-9435677D01*
X22530937Y-9490119D01*
X22561761Y-9569926D01*
X22595257Y-9648966D01*
X22629083Y-9722229D01*
X22660895Y-9784705D01*
X22688350Y-9831384D01*
X22709106Y-9857254D01*
X22721257Y-9870215D01*
X22730829Y-9891981D01*
X22734427Y-9906700D01*
X22754803Y-9943975D01*
X22790658Y-9994711D01*
X22839113Y-10055743D01*
X22897287Y-10123906D01*
X22962300Y-10196037D01*
X23031271Y-10268970D01*
X23101320Y-10339540D01*
X23169567Y-10404582D01*
X23233131Y-10460932D01*
X23289132Y-10505425D01*
X23324389Y-10530766D01*
X23528294Y-10659718D01*
X23738140Y-10762535D01*
X23955393Y-10839660D01*
X24181521Y-10891536D01*
X24417989Y-10918607D01*
X24666263Y-10921315D01*
X24678774Y-10920827D01*
X24924697Y-10898333D01*
X25006944Y-10881884D01*
X25357001Y-10881884D01*
X25364903Y-10899070D01*
X25388863Y-10934908D01*
X25426955Y-10986567D01*
X25477231Y-11051574D01*
X25537747Y-11127457D01*
X25606556Y-11211743D01*
X25681713Y-11301959D01*
X25761271Y-11395632D01*
X25783509Y-11420761D01*
X25844544Y-11479837D01*
X25896316Y-11513669D01*
X25938639Y-11522161D01*
X25971330Y-11505215D01*
X25990900Y-11474590D01*
X26009184Y-11425150D01*
X26026346Y-11355699D01*
X26042577Y-11265013D01*
X26058068Y-11151868D01*
X26073007Y-11015040D01*
X26087587Y-10853304D01*
X26101998Y-10665436D01*
X26102792Y-10654288D01*
X26108420Y-10573245D01*
X26113067Y-10502750D01*
X26116474Y-10446987D01*
X26118384Y-10410139D01*
X26118541Y-10396390D01*
X26115051Y-10397976D01*
X26096532Y-10412384D01*
X26067974Y-10437244D01*
X26044423Y-10458142D01*
X25999185Y-10497313D01*
X25953955Y-10535585D01*
X25887998Y-10590566D01*
X25924674Y-10703863D01*
X25929898Y-10720217D01*
X25945995Y-10777071D01*
X25954802Y-10826614D01*
X25957808Y-10880354D01*
X25956502Y-10949797D01*
X25953955Y-10998434D01*
X25945231Y-11070496D01*
X25929957Y-11122500D01*
X25906521Y-11158993D01*
X25873312Y-11184523D01*
X25866809Y-11188083D01*
X25842257Y-11197692D01*
X25818959Y-11194683D01*
X25784651Y-11178181D01*
X25783909Y-11177779D01*
X25744144Y-11147358D01*
X25697380Y-11097978D01*
X25648110Y-11035340D01*
X25600825Y-10965144D01*
X25560017Y-10893091D01*
X25541874Y-10858770D01*
X25523317Y-10830963D01*
X25507185Y-10819939D01*
X25488724Y-10820884D01*
X25479833Y-10823254D01*
X25438170Y-10837211D01*
X25398443Y-10854121D01*
X25368703Y-10870254D01*
X25357001Y-10881884D01*
X25006944Y-10881884D01*
X25157922Y-10851689D01*
X25378805Y-10780781D01*
X25587700Y-10685499D01*
X25784963Y-10565727D01*
X25829957Y-10533949D01*
X26022308Y-10379029D01*
X26194795Y-10207552D01*
X26346298Y-10021200D01*
X26475697Y-9821655D01*
X26581873Y-9610598D01*
X26663707Y-9389713D01*
X26720079Y-9160679D01*
X26730661Y-9086045D01*
X26738975Y-8986381D01*
X26744040Y-8873531D01*
X26745854Y-8754219D01*
X26744413Y-8635170D01*
X26739712Y-8523107D01*
X26731749Y-8424756D01*
X26720521Y-8346840D01*
X26671669Y-8142690D01*
X26598159Y-7928303D01*
X26503622Y-7727929D01*
X26386510Y-7538766D01*
X26245279Y-7358013D01*
X26078381Y-7182866D01*
X26031720Y-7139077D01*
X25845887Y-6985136D01*
X25652120Y-6856809D01*
X25448741Y-6753210D01*
X25234071Y-6673452D01*
X25006432Y-6616651D01*
X24998994Y-6615237D01*
X24900946Y-6600854D01*
X24785345Y-6590033D01*
X24661036Y-6583128D01*
X24536865Y-6580490D01*
X24421676Y-6582474D01*
X24324314Y-6589432D01*
X24191028Y-6608765D01*
X23962116Y-6662867D01*
X23740412Y-6741708D01*
X23528955Y-6843933D01*
X23330784Y-6968188D01*
X23148940Y-7113118D01*
X23067805Y-7185865D01*
X23121584Y-7225568D01*
X23281296Y-7351847D01*
X23452689Y-7508197D01*
X23605813Y-7671549D01*
X23736161Y-7837415D01*
X23737360Y-7839101D01*
X23766123Y-7876698D01*
X23789701Y-7902570D01*
X23803093Y-7911201D01*
X23810786Y-7904164D01*
X23828182Y-7878110D01*
X23848675Y-7840101D01*
X23862083Y-7813287D01*
X23881781Y-7775336D01*
X23894917Y-7751848D01*
X23902125Y-7739131D01*
X23919654Y-7705107D01*
X23940167Y-7662941D01*
X23956506Y-7630487D01*
X24022504Y-7528150D01*
X24101238Y-7442012D01*
X24188869Y-7375783D01*
X24281555Y-7333172D01*
X24344074Y-7318635D01*
X24424320Y-7308279D01*
X24511354Y-7303151D01*
X24596814Y-7303471D01*
X24672335Y-7309459D01*
X24729554Y-7321338D01*
X24761060Y-7332840D01*
X24865490Y-7389379D01*
X24957314Y-7469533D01*
X25035051Y-7572087D01*
X25071965Y-7631690D01*
X25093423Y-7599443D01*
X25136323Y-7543625D01*
X25209409Y-7479067D01*
X25290569Y-7439436D01*
X25378018Y-7425495D01*
X25469973Y-7438009D01*
X25482668Y-7442058D01*
X25527212Y-7469227D01*
X25557970Y-7515098D01*
X25577663Y-7583347D01*
X25582634Y-7658036D01*
X25568162Y-7721775D01*
X25536272Y-7768945D01*
X25489589Y-7797073D01*
X25430739Y-7803683D01*
X25362348Y-7786301D01*
X25337454Y-7773362D01*
X25317646Y-7752530D01*
X25319532Y-7734431D01*
X25339704Y-7722355D01*
X25374753Y-7719591D01*
X25421271Y-7729429D01*
X25448102Y-7731542D01*
X25478610Y-7713858D01*
X25499629Y-7676831D01*
X25507458Y-7624951D01*
X25502584Y-7571164D01*
X25483657Y-7532341D01*
X25447020Y-7511713D01*
X25389068Y-7505644D01*
X25388740Y-7505645D01*
X25302276Y-7516738D01*
X25231877Y-7549967D01*
X25177324Y-7605489D01*
X25138399Y-7683458D01*
X25132781Y-7701223D01*
X25129938Y-7723776D01*
X25135122Y-7748638D01*
X25150164Y-7782965D01*
X25176897Y-7833916D01*
X25198137Y-7877310D01*
X25227924Y-7947125D01*
X25257641Y-8024960D01*
X25283227Y-8100636D01*
X25285218Y-8107041D01*
X25307077Y-8180381D01*
X25321434Y-8238276D01*
X25329881Y-8290321D01*
X25334008Y-8346108D01*
X25335407Y-8415230D01*
X25335527Y-8435320D01*
X25335075Y-8497419D01*
X25332175Y-8541956D01*
X25325492Y-8576687D01*
X25313695Y-8609368D01*
X25295450Y-8647755D01*
X25274690Y-8687228D01*
X25255219Y-8715231D01*
X25235559Y-8728899D01*
X25209880Y-8734115D01*
X25178418Y-8732994D01*
X25127538Y-8710801D01*
X25080695Y-8662469D01*
X25037256Y-8587460D01*
X24994534Y-8497298D01*
X24995202Y-8216899D01*
X25064039Y-8216899D01*
X25064407Y-8278586D01*
X25065475Y-8354523D01*
X25067562Y-8410998D01*
X25071137Y-8452806D01*
X25076669Y-8484739D01*
X25084628Y-8511593D01*
X25095482Y-8538161D01*
X25117873Y-8582149D01*
X25146492Y-8625954D01*
X25173736Y-8656682D01*
X25194971Y-8668272D01*
X25197763Y-8667869D01*
X25215392Y-8651357D01*
X25233970Y-8615373D01*
X25251145Y-8566420D01*
X25264564Y-8511001D01*
X25271877Y-8455618D01*
X25271913Y-8455070D01*
X25273392Y-8409835D01*
X25270841Y-8366256D01*
X25263177Y-8317408D01*
X25249316Y-8256365D01*
X25228176Y-8176201D01*
X25225538Y-8166621D01*
X25203822Y-8092454D01*
X25181231Y-8022248D01*
X25160288Y-7963525D01*
X25143515Y-7923805D01*
X25128564Y-7894849D01*
X25109432Y-7860680D01*
X25097232Y-7842524D01*
X25097067Y-7842358D01*
X25087051Y-7845099D01*
X25078667Y-7873667D01*
X25072043Y-7926597D01*
X25067311Y-8002423D01*
X25064599Y-8099678D01*
X25064039Y-8216899D01*
X24995202Y-8216899D01*
X24995283Y-8182704D01*
X24995373Y-8153511D01*
X24996186Y-8051336D01*
X24997892Y-7971713D01*
X25000722Y-7910795D01*
X25004910Y-7864735D01*
X25010686Y-7829686D01*
X25018283Y-7801802D01*
X25022049Y-7790475D01*
X25031072Y-7758273D01*
X25032593Y-7731544D01*
X25025000Y-7703035D01*
X25006682Y-7665496D01*
X24976028Y-7611675D01*
X24972480Y-7605653D01*
X24905021Y-7515863D01*
X24822508Y-7444326D01*
X24729826Y-7395336D01*
X24698219Y-7384357D01*
X24661619Y-7375454D01*
X24620340Y-7370869D01*
X24566848Y-7369846D01*
X24493610Y-7371628D01*
X24474121Y-7372320D01*
X24408507Y-7375529D01*
X24360557Y-7380478D01*
X24322472Y-7388725D01*
X24286454Y-7401828D01*
X24244707Y-7421344D01*
X24207725Y-7441194D01*
X24130050Y-7497460D01*
X24064937Y-7569299D01*
X24009275Y-7660575D01*
X23959956Y-7775152D01*
X23945694Y-7811048D01*
X23924757Y-7856959D01*
X23907098Y-7888628D01*
X23905523Y-7890975D01*
X23884845Y-7929355D01*
X23867311Y-7972990D01*
X23863974Y-7983778D01*
X23859695Y-8005649D01*
X23861456Y-8028268D01*
X23870903Y-8057516D01*
X23889678Y-8099275D01*
X23919427Y-8159425D01*
X23964460Y-8253614D01*
X24008476Y-8360648D01*
X24035024Y-8448026D01*
X24043915Y-8515209D01*
X24042869Y-8542112D01*
X24030364Y-8613308D01*
X24006064Y-8677569D01*
X23972924Y-8729792D01*
X23933901Y-8764869D01*
X23891950Y-8777696D01*
X23853066Y-8766170D01*
X23813514Y-8736018D01*
X23781509Y-8694940D01*
X23764764Y-8650643D01*
X23757361Y-8589402D01*
X23750386Y-8466654D01*
X23750510Y-8442716D01*
X23820418Y-8442716D01*
X23822086Y-8512060D01*
X23825701Y-8574065D01*
X23831326Y-8623530D01*
X23839020Y-8655256D01*
X23855176Y-8683771D01*
X23880612Y-8701574D01*
X23907484Y-8697454D01*
X23933097Y-8674152D01*
X23954759Y-8634405D01*
X23969774Y-8580954D01*
X23975449Y-8516536D01*
X23972779Y-8485089D01*
X23956751Y-8417109D01*
X23927556Y-8334127D01*
X23886705Y-8240836D01*
X23868132Y-8203019D01*
X23852461Y-8173495D01*
X23844790Y-8162187D01*
X23839169Y-8167936D01*
X23832010Y-8195965D01*
X23826494Y-8242658D01*
X23822683Y-8302814D01*
X23820638Y-8371234D01*
X23820418Y-8442716D01*
X23750510Y-8442716D01*
X23751084Y-8331466D01*
X23759556Y-8192660D01*
X23766101Y-8118844D01*
X23769227Y-8061709D01*
X23766573Y-8017928D01*
X23756116Y-7980379D01*
X23735834Y-7941942D01*
X23703707Y-7895494D01*
X23657712Y-7833916D01*
X23584768Y-7742101D01*
X23488473Y-7632822D01*
X23385023Y-7525960D01*
X23279761Y-7426752D01*
X23178027Y-7340440D01*
X23085164Y-7272263D01*
X23025762Y-7232937D01*
X22993376Y-7263286D01*
X22987825Y-7268622D01*
X22948624Y-7310869D01*
X22900153Y-7368719D01*
X22847296Y-7435986D01*
X22794939Y-7506486D01*
X22747964Y-7574034D01*
X22697140Y-7654711D01*
X22593118Y-7855209D01*
X22511448Y-8067977D01*
X22452507Y-8290040D01*
X22416672Y-8518424D01*
X22404321Y-8750153D01*
X22336444Y-8750153D01*
X22336446Y-8737122D01*
X22340437Y-8613604D01*
X22348121Y-8493852D01*
X22359215Y-8385678D01*
X22373437Y-8296898D01*
X22411101Y-8141775D01*
X22490182Y-7910459D01*
X22594119Y-7689824D01*
X22722144Y-7481419D01*
X22873489Y-7286797D01*
X22888597Y-7269391D01*
X22923493Y-7228281D01*
X22943298Y-7201686D01*
X22950264Y-7185076D01*
X22946642Y-7173922D01*
X22934684Y-7163695D01*
X22928995Y-7159454D01*
X22897191Y-7134636D01*
X22861412Y-7105564D01*
X22849852Y-7096295D01*
X22820902Y-7076030D01*
X22803178Y-7067949D01*
X22793960Y-7065055D01*
X22766194Y-7050597D01*
X22729755Y-7028072D01*
X22667905Y-6993449D01*
X22562456Y-6952425D01*
X22443691Y-6922395D01*
X22318763Y-6904286D01*
X22194826Y-6899025D01*
X22079034Y-6907539D01*
X21978541Y-6930753D01*
X21954130Y-6939596D01*
X21848855Y-6988692D01*
X21750671Y-7051099D01*
X21669705Y-7120594D01*
X21619077Y-7190818D01*
X21585115Y-7281576D01*
X21569997Y-7389131D01*
X21573965Y-7511718D01*
X21597261Y-7647570D01*
X21609649Y-7699191D01*
X21626670Y-7758934D01*
X21645864Y-7805025D01*
X21671639Y-7845372D01*
X21708405Y-7887881D01*
X21760570Y-7940461D01*
X21831039Y-8005632D01*
X21898391Y-8056701D01*
X21961286Y-8089870D01*
X22024999Y-8107868D01*
X22094804Y-8113426D01*
X22135544Y-8112188D01*
X22209812Y-8099222D01*
X22263468Y-8071419D01*
X22298706Y-8027858D01*
X22308766Y-8002784D01*
X22323527Y-7950466D01*
X22337760Y-7885462D01*
X22349854Y-7816242D01*
X22358201Y-7751279D01*
X22361190Y-7699045D01*
X22360993Y-7686529D01*
X22351585Y-7599102D01*
X22329311Y-7526305D01*
X22295759Y-7473616D01*
X22239753Y-7427164D01*
X22175521Y-7395583D01*
X22111418Y-7382749D01*
X22054382Y-7391039D01*
X22040820Y-7398825D01*
X22015155Y-7432025D01*
X22000502Y-7479074D01*
X22000325Y-7531002D01*
X22002625Y-7572367D01*
X21992500Y-7594377D01*
X21990782Y-7595365D01*
X21970251Y-7594926D01*
X21954075Y-7574050D01*
X21943467Y-7539006D01*
X21939638Y-7496064D01*
X21943800Y-7451493D01*
X21957165Y-7411560D01*
X21961951Y-7403053D01*
X22001686Y-7358011D01*
X22053887Y-7326282D01*
X22108482Y-7314337D01*
X22115516Y-7314601D01*
X22167943Y-7326420D01*
X22228742Y-7352455D01*
X22288658Y-7388101D01*
X22338432Y-7428752D01*
X22359471Y-7451774D01*
X22385176Y-7490575D01*
X22402204Y-7536336D01*
X22411653Y-7594072D01*
X22414620Y-7668797D01*
X22412205Y-7765526D01*
X22408521Y-7829351D01*
X22396656Y-7931706D01*
X22376937Y-8012023D01*
X22347611Y-8073461D01*
X22306926Y-8119178D01*
X22253130Y-8152335D01*
X22184469Y-8176089D01*
X22105957Y-8187000D01*
X22008639Y-8175720D01*
X21909124Y-8138247D01*
X21808544Y-8075033D01*
X21708034Y-7986529D01*
X21680918Y-7958764D01*
X21631613Y-7903826D01*
X21595911Y-7853742D01*
X21569483Y-7800525D01*
X21547998Y-7736184D01*
X21527127Y-7652729D01*
X21514009Y-7584413D01*
X21502385Y-7450653D01*
X21508942Y-7321942D01*
X21533566Y-7206075D01*
X21534504Y-7203161D01*
X21571973Y-7128893D01*
X21632515Y-7057150D01*
X21712007Y-6990523D01*
X21806329Y-6931600D01*
X21911358Y-6882971D01*
X22022973Y-6847225D01*
X22137051Y-6826952D01*
X22219319Y-6824142D01*
X22322774Y-6831823D01*
X22431819Y-6849402D01*
X22539879Y-6875278D01*
X22640377Y-6907847D01*
X22726736Y-6945506D01*
X22792380Y-6986654D01*
X22821738Y-7009448D01*
X22879426Y-7052076D01*
X22933032Y-7089486D01*
X23005294Y-7137759D01*
X23131363Y-7031954D01*
X23207389Y-6970507D01*
X23407653Y-6830489D01*
X23616040Y-6715983D01*
X23834619Y-6626084D01*
X24065461Y-6559888D01*
X24310636Y-6516489D01*
X24338888Y-6513737D01*
X24406978Y-6510446D01*
X24491548Y-6509153D01*
X24585673Y-6509727D01*
G37*
%TD*%
%LPC*%
D12*
%TO.C,J1*%
X13425000Y-2300000D03*
D13*
X10885000Y-2300000D03*
X8345000Y-2300000D03*
X5805000Y-2300000D03*
X3265000Y-2300000D03*
%TD*%
D14*
%TO.C,REF\u002A\u002A*%
X14450000Y-10550000D03*
%TD*%
D15*
%TO.C,CN1*%
X11355000Y-5150000D03*
X9855000Y-5150000D03*
X8355000Y-5150000D03*
X6855000Y-5150000D03*
X5355000Y-5150000D03*
%TD*%
D14*
%TO.C,REF\u002A\u002A*%
X2250000Y-10550000D03*
%TD*%
%LPD*%
M02*
