%TF.GenerationSoftware,KiCad,Pcbnew,8.0.6-8.0.6-0~ubuntu24.04.1*%
%TF.CreationDate,2024-11-07T20:05:32-08:00*%
%TF.ProjectId,uSlime_BNO085_Module,75536c69-6d65-45f4-924e-4f3038355f4d,rev?*%
%TF.SameCoordinates,Original*%
%TF.FileFunction,Copper,L1,Top*%
%TF.FilePolarity,Positive*%
%FSLAX46Y46*%
G04 Gerber Fmt 4.6, Leading zero omitted, Abs format (unit mm)*
G04 Created by KiCad (PCBNEW 8.0.6-8.0.6-0~ubuntu24.04.1) date 2024-11-07 20:05:32*
%MOMM*%
%LPD*%
G01*
G04 APERTURE LIST*
G04 Aperture macros list*
%AMRoundRect*
0 Rectangle with rounded corners*
0 $1 Rounding radius*
0 $2 $3 $4 $5 $6 $7 $8 $9 X,Y pos of 4 corners*
0 Add a 4 corners polygon primitive as box body*
4,1,4,$2,$3,$4,$5,$6,$7,$8,$9,$2,$3,0*
0 Add four circle primitives for the rounded corners*
1,1,$1+$1,$2,$3*
1,1,$1+$1,$4,$5*
1,1,$1+$1,$6,$7*
1,1,$1+$1,$8,$9*
0 Add four rect primitives between the rounded corners*
20,1,$1+$1,$2,$3,$4,$5,0*
20,1,$1+$1,$4,$5,$6,$7,0*
20,1,$1+$1,$6,$7,$8,$9,0*
20,1,$1+$1,$8,$9,$2,$3,0*%
%AMFreePoly0*
4,1,19,0.550000,-0.750000,0.000000,-0.750000,0.000000,-0.744911,-0.071157,-0.744911,-0.207708,-0.704816,-0.327430,-0.627875,-0.420627,-0.520320,-0.479746,-0.390866,-0.500000,-0.250000,-0.500000,0.250000,-0.479746,0.390866,-0.420627,0.520320,-0.327430,0.627875,-0.207708,0.704816,-0.071157,0.744911,0.000000,0.744911,0.000000,0.750000,0.550000,0.750000,0.550000,-0.750000,0.550000,-0.750000,
$1*%
%AMFreePoly1*
4,1,19,0.000000,0.744911,0.071157,0.744911,0.207708,0.704816,0.327430,0.627875,0.420627,0.520320,0.479746,0.390866,0.500000,0.250000,0.500000,-0.250000,0.479746,-0.390866,0.420627,-0.520320,0.327430,-0.627875,0.207708,-0.704816,0.071157,-0.744911,0.000000,-0.744911,0.000000,-0.750000,-0.550000,-0.750000,-0.550000,0.750000,0.000000,0.750000,0.000000,0.744911,0.000000,0.744911,
$1*%
G04 Aperture macros list end*
%TA.AperFunction,SMDPad,CuDef*%
%ADD10RoundRect,0.135000X-0.135000X-0.185000X0.135000X-0.185000X0.135000X0.185000X-0.135000X0.185000X0*%
%TD*%
%TA.AperFunction,SMDPad,CuDef*%
%ADD11RoundRect,0.140000X-0.170000X0.140000X-0.170000X-0.140000X0.170000X-0.140000X0.170000X0.140000X0*%
%TD*%
%TA.AperFunction,SMDPad,CuDef*%
%ADD12RoundRect,0.140000X0.170000X-0.140000X0.170000X0.140000X-0.170000X0.140000X-0.170000X-0.140000X0*%
%TD*%
%TA.AperFunction,ComponentPad*%
%ADD13R,1.700000X1.700000*%
%TD*%
%TA.AperFunction,ComponentPad*%
%ADD14O,1.700000X1.700000*%
%TD*%
%TA.AperFunction,SMDPad,CuDef*%
%ADD15RoundRect,0.135000X0.135000X0.185000X-0.135000X0.185000X-0.135000X-0.185000X0.135000X-0.185000X0*%
%TD*%
%TA.AperFunction,SMDPad,CuDef*%
%ADD16RoundRect,0.140000X0.140000X0.170000X-0.140000X0.170000X-0.140000X-0.170000X0.140000X-0.170000X0*%
%TD*%
%TA.AperFunction,SMDPad,CuDef*%
%ADD17FreePoly0,270.000000*%
%TD*%
%TA.AperFunction,SMDPad,CuDef*%
%ADD18R,1.500000X1.000000*%
%TD*%
%TA.AperFunction,SMDPad,CuDef*%
%ADD19FreePoly1,270.000000*%
%TD*%
%TA.AperFunction,SMDPad,CuDef*%
%ADD20RoundRect,0.135000X-0.185000X0.135000X-0.185000X-0.135000X0.185000X-0.135000X0.185000X0.135000X0*%
%TD*%
%TA.AperFunction,ComponentPad*%
%ADD21C,1.200000*%
%TD*%
%TA.AperFunction,SMDPad,CuDef*%
%ADD22R,0.250000X0.914400*%
%TD*%
%TA.AperFunction,SMDPad,CuDef*%
%ADD23R,0.812800X0.250000*%
%TD*%
%TA.AperFunction,ViaPad*%
%ADD24C,0.600000*%
%TD*%
%TA.AperFunction,ViaPad*%
%ADD25C,0.500000*%
%TD*%
%TA.AperFunction,Conductor*%
%ADD26C,0.254000*%
%TD*%
G04 APERTURE END LIST*
D10*
%TO.P,R6,1*%
%TO.N,Net-(U1-ENV_SCL)*%
X10940000Y-11400000D03*
%TO.P,R6,2*%
%TO.N,+3.3V*%
X11960000Y-11400000D03*
%TD*%
D11*
%TO.P,C3,1*%
%TO.N,+3.3V*%
X2200000Y-4570000D03*
%TO.P,C3,2*%
%TO.N,GND*%
X2200000Y-5530000D03*
%TD*%
D12*
%TO.P,C2,1*%
%TO.N,GND*%
X12950000Y-8080000D03*
%TO.P,C2,2*%
%TO.N,+3.3V*%
X12950000Y-7120000D03*
%TD*%
D13*
%TO.P,J1,1,Pin_1*%
%TO.N,BNO_SCL*%
X13425000Y-2300000D03*
D14*
%TO.P,J1,2,Pin_2*%
%TO.N,GND*%
X10885000Y-2300000D03*
%TO.P,J1,3,Pin_3*%
%TO.N,BNO_INT2*%
X8345000Y-2300000D03*
%TO.P,J1,4,Pin_4*%
%TO.N,+3.3V*%
X5805000Y-2300000D03*
%TO.P,J1,5,Pin_5*%
%TO.N,BNO_SDA*%
X3265000Y-2300000D03*
%TD*%
D15*
%TO.P,R2,1*%
%TO.N,Net-(U1-NRST)*%
X8160000Y-11400000D03*
%TO.P,R2,2*%
%TO.N,+3.3V*%
X7140000Y-11400000D03*
%TD*%
D16*
%TO.P,C4,1*%
%TO.N,GND*%
X6230000Y-11400000D03*
%TO.P,C4,2*%
%TO.N,Net-(U1-CAP)*%
X5270000Y-11400000D03*
%TD*%
D17*
%TO.P,JP1,1,A*%
%TO.N,+3.3V*%
X14792500Y-5150000D03*
D18*
%TO.P,JP1,2,C*%
%TO.N,Net-(JP1-C)*%
X14792500Y-6450000D03*
D19*
%TO.P,JP1,3,B*%
%TO.N,GND*%
X14792500Y-7750000D03*
%TD*%
D20*
%TO.P,R3,1*%
%TO.N,+3.3V*%
X3200000Y-4540000D03*
%TO.P,R3,2*%
%TO.N,BNO_SDA*%
X3200000Y-5560000D03*
%TD*%
%TO.P,R7,1*%
%TO.N,Net-(U1-ENV_SDA)*%
X11900000Y-9040000D03*
%TO.P,R7,2*%
%TO.N,+3.3V*%
X11900000Y-10060000D03*
%TD*%
D21*
%TO.P,CN1,1,1*%
%TO.N,BNO_SCL*%
X11355000Y-5150000D03*
%TO.P,CN1,2,2*%
%TO.N,GND*%
X9855000Y-5150000D03*
%TO.P,CN1,3,3*%
%TO.N,BNO_INT2*%
X8355000Y-5150000D03*
%TO.P,CN1,4,4*%
%TO.N,+3.3V*%
X6855000Y-5150000D03*
%TO.P,CN1,5,5*%
%TO.N,BNO_SDA*%
X5355000Y-5150000D03*
%TD*%
D16*
%TO.P,C1,1*%
%TO.N,GND*%
X4830000Y-7250000D03*
%TO.P,C1,2*%
%TO.N,+3.3V*%
X3870000Y-7250000D03*
%TD*%
D22*
%TO.P,U1,1,RESV_NC*%
%TO.N,unconnected-(U1-RESV_NC-Pad1)*%
X6102600Y-6872670D03*
D23*
%TO.P,U1,2,GND*%
%TO.N,GND*%
X5911600Y-7800000D03*
%TO.P,U1,3,VDD*%
%TO.N,+3.3V*%
X5911600Y-8303070D03*
%TO.P,U1,4,BOOTN*%
%TO.N,Net-(U1-BOOTN)*%
X5911600Y-8803070D03*
%TO.P,U1,5,PS1*%
%TO.N,GND*%
X5911600Y-9303060D03*
D22*
%TO.P,U1,6,PS0/WAKE*%
X6102600Y-10225470D03*
%TO.P,U1,7,RESV_NC*%
%TO.N,unconnected-(U1-RESV_NC-Pad7)*%
X6602600Y-10225470D03*
%TO.P,U1,8,RESV_NC*%
%TO.N,unconnected-(U1-RESV_NC-Pad8)*%
X7102600Y-10225470D03*
%TO.P,U1,9,CAP*%
%TO.N,Net-(U1-CAP)*%
X7602600Y-10225470D03*
%TO.P,U1,10,CLKSEL0*%
%TO.N,+3.3V*%
X8102600Y-10225470D03*
%TO.P,U1,11,NRST*%
%TO.N,Net-(U1-NRST)*%
X8602600Y-10225470D03*
%TO.P,U1,12,RESV_NC*%
%TO.N,unconnected-(U1-RESV_NC-Pad12)*%
X9102600Y-10225470D03*
%TO.P,U1,13,RESV_NC*%
%TO.N,unconnected-(U1-RESV_NC-Pad13)*%
X9602600Y-10225470D03*
%TO.P,U1,14,H_INTN*%
%TO.N,BNO_INT2*%
X10102600Y-10225470D03*
%TO.P,U1,15,ENV_SCL*%
%TO.N,Net-(U1-ENV_SCL)*%
X10610600Y-10225470D03*
D23*
%TO.P,U1,16,ENV_SDA*%
%TO.N,Net-(U1-ENV_SDA)*%
X10737600Y-9303070D03*
%TO.P,U1,17,SA0/H_MOSI*%
%TO.N,Net-(JP1-C)*%
X10737600Y-8803070D03*
%TO.P,U1,18,H_CSN*%
%TO.N,GND*%
X10737600Y-8303070D03*
%TO.P,U1,19,H_SCL/SCK/RX*%
%TO.N,BNO_SCL*%
X10737600Y-7800000D03*
D22*
%TO.P,U1,20,H_SDA/H_MISO/TX*%
%TO.N,BNO_SDA*%
X10610600Y-6872670D03*
%TO.P,U1,21,RESV_NC*%
%TO.N,unconnected-(U1-RESV_NC-Pad21)*%
X10102600Y-6872670D03*
%TO.P,U1,22,RESV_NC*%
%TO.N,unconnected-(U1-RESV_NC-Pad22)*%
X9602600Y-6872670D03*
%TO.P,U1,23,RESV_NC*%
%TO.N,unconnected-(U1-RESV_NC-Pad23)*%
X9102600Y-6872670D03*
%TO.P,U1,24,RESV_NC*%
%TO.N,unconnected-(U1-RESV_NC-Pad24)*%
X8602600Y-6872670D03*
%TO.P,U1,25,GND*%
%TO.N,GND*%
X8102600Y-6872670D03*
%TO.P,U1,26,XOUT32/CLKSEL1*%
X7602600Y-6872670D03*
%TO.P,U1,27,XIN32*%
%TO.N,unconnected-(U1-XIN32-Pad27)*%
X7102600Y-6872670D03*
%TO.P,U1,28,VDDIO*%
%TO.N,+3.3V*%
X6602600Y-6872670D03*
%TD*%
D20*
%TO.P,R4,1*%
%TO.N,+3.3V*%
X11900000Y-7080000D03*
%TO.P,R4,2*%
%TO.N,BNO_SCL*%
X11900000Y-8100000D03*
%TD*%
%TO.P,R1,1*%
%TO.N,+3.3V*%
X4799000Y-8250000D03*
%TO.P,R1,2*%
%TO.N,Net-(U1-BOOTN)*%
X4799000Y-9270000D03*
%TD*%
D10*
%TO.P,R5,1*%
%TO.N,+3.3V*%
X9040000Y-11400000D03*
%TO.P,R5,2*%
%TO.N,BNO_INT2*%
X10060000Y-11400000D03*
%TD*%
D24*
%TO.N,GND*%
X8102600Y-8050000D03*
X5400000Y-6450000D03*
%TO.N,+3.3V*%
X12718845Y-8857751D03*
X6646972Y-8301535D03*
X8222180Y-9338431D03*
D25*
%TO.N,BNO_INT2*%
X9049182Y-9318268D03*
%TO.N,Net-(JP1-C)*%
X14800000Y-6450000D03*
X9523070Y-8803070D03*
%TO.N,Net-(U1-CAP)*%
X7420429Y-9361676D03*
X5050000Y-10400000D03*
%TD*%
D26*
%TO.N,GND*%
X8102600Y-8050000D02*
X7785219Y-8050000D01*
X7785219Y-8050000D02*
X6532159Y-9303060D01*
X7602600Y-6872670D02*
X7602600Y-7550000D01*
X6230000Y-11400000D02*
X6102600Y-11272600D01*
X6102600Y-11272600D02*
X6102600Y-10225470D01*
X6102600Y-10225470D02*
X6102600Y-9494060D01*
X9802200Y-8050000D02*
X10055270Y-8303070D01*
X2790001Y-6400000D02*
X4350000Y-6400000D01*
X6102600Y-9494060D02*
X5911600Y-9303060D01*
X4830000Y-7020000D02*
X5400000Y-6450000D01*
X4830000Y-7250000D02*
X4830000Y-7020000D01*
X8102600Y-8050000D02*
X9802200Y-8050000D01*
X7602600Y-7550000D02*
X8102600Y-8050000D01*
X10055270Y-8303070D02*
X10737600Y-8303070D01*
X8102600Y-8050000D02*
X8102600Y-6872670D01*
X6532159Y-9303060D02*
X5911600Y-9303060D01*
X5911600Y-7800000D02*
X5380000Y-7800000D01*
X2200000Y-5809999D02*
X2790001Y-6400000D01*
X12950000Y-8080000D02*
X14462500Y-8080000D01*
X2200000Y-5530000D02*
X2200000Y-5809999D01*
X14462500Y-8080000D02*
X14792500Y-7750000D01*
X4350000Y-6400000D02*
X4830000Y-6880000D01*
X5380000Y-7800000D02*
X4830000Y-7250000D01*
X4830000Y-6880000D02*
X4830000Y-7250000D01*
%TO.N,BNO_SCL*%
X11250000Y-7287600D02*
X11250000Y-5255000D01*
X10737600Y-7800000D02*
X11250000Y-7287600D01*
X11600000Y-7800000D02*
X10737600Y-7800000D01*
X11250000Y-7450000D02*
X11900000Y-8100000D01*
X11250000Y-7287600D02*
X11250000Y-7450000D01*
X11250000Y-5255000D02*
X11355000Y-5150000D01*
X11900000Y-8100000D02*
X11600000Y-7800000D01*
%TO.N,BNO_SDA*%
X3200000Y-5560000D02*
X4945000Y-5560000D01*
X6293470Y-6088470D02*
X10554600Y-6088470D01*
X10610600Y-6144470D02*
X10610600Y-6872670D01*
X4945000Y-5560000D02*
X5355000Y-5150000D01*
X10554600Y-6088470D02*
X10610600Y-6144470D01*
X5355000Y-5150000D02*
X6293470Y-6088470D01*
%TO.N,+3.3V*%
X8960000Y-11560000D02*
X9447000Y-12047000D01*
X2945682Y-7250000D02*
X1563000Y-5867318D01*
X11910000Y-11687000D02*
X11910000Y-11400000D01*
X6645000Y-6915070D02*
X6645000Y-8156070D01*
X3870000Y-7321000D02*
X4799000Y-8250000D01*
X12950000Y-7120000D02*
X12950000Y-6237500D01*
X9447000Y-12047000D02*
X11550000Y-12047000D01*
X1890001Y-4570000D02*
X2200000Y-4570000D01*
X1563000Y-4897001D02*
X1890001Y-4570000D01*
X11900000Y-10060000D02*
X11900000Y-11390000D01*
X7090000Y-11400000D02*
X7090000Y-11590000D01*
X8472999Y-12047000D02*
X8960000Y-11560000D01*
X12910000Y-7080000D02*
X12950000Y-7120000D01*
X11900000Y-11390000D02*
X11910000Y-11400000D01*
X12718845Y-9241155D02*
X11900000Y-10060000D01*
X3870000Y-7250000D02*
X3870000Y-7321000D01*
X7090000Y-11590000D02*
X7547000Y-12047000D01*
X6645000Y-8156070D02*
X6498000Y-8303070D01*
X2200000Y-4570000D02*
X3170000Y-4570000D01*
X7547000Y-12047000D02*
X8472999Y-12047000D01*
X1563000Y-5867318D02*
X1563000Y-4897001D01*
X7782000Y-4223000D02*
X13865500Y-4223000D01*
X8102600Y-10225470D02*
X8102600Y-9458011D01*
X3170000Y-4570000D02*
X3200000Y-4540000D01*
X6646972Y-8301535D02*
X6645437Y-8303070D01*
X3200000Y-4540000D02*
X3565000Y-4540000D01*
X3565000Y-4540000D02*
X5805000Y-2300000D01*
X8102600Y-9458011D02*
X8222180Y-9338431D01*
X4799000Y-8250000D02*
X4852070Y-8303070D01*
X13865500Y-4223000D02*
X14792500Y-5150000D01*
X3870000Y-7250000D02*
X2945682Y-7250000D01*
X12718845Y-8857751D02*
X12718845Y-9241155D01*
X4852070Y-8303070D02*
X5911600Y-8303070D01*
X14037500Y-5150000D02*
X14792500Y-5150000D01*
X6498000Y-8303070D02*
X5911600Y-8303070D01*
X12950000Y-6237500D02*
X14037500Y-5150000D01*
X6645437Y-8303070D02*
X5911600Y-8303070D01*
X11550000Y-12047000D02*
X11910000Y-11687000D01*
X6602600Y-6872670D02*
X6645000Y-6915070D01*
X6855000Y-5150000D02*
X7782000Y-4223000D01*
X11900000Y-7080000D02*
X12910000Y-7080000D01*
%TO.N,BNO_INT2*%
X10102600Y-11307400D02*
X10102600Y-10225470D01*
X10102600Y-9667332D02*
X9815338Y-9380070D01*
X9815338Y-9380070D02*
X9110984Y-9380070D01*
X10102600Y-10225470D02*
X10102600Y-9667332D01*
X9110984Y-9380070D02*
X9049182Y-9318268D01*
X10010000Y-11400000D02*
X10102600Y-11307400D01*
%TO.N,Net-(JP1-C)*%
X9523070Y-8803070D02*
X10737600Y-8803070D01*
X14792500Y-6450000D02*
X14800000Y-6450000D01*
%TO.N,Net-(U1-CAP)*%
X7475006Y-9361676D02*
X7602600Y-9489270D01*
X5270000Y-10620000D02*
X5050000Y-10400000D01*
X7420429Y-9361676D02*
X7475006Y-9361676D01*
X7602600Y-9489270D02*
X7602600Y-10225470D01*
X5270000Y-11400000D02*
X5270000Y-10620000D01*
%TO.N,Net-(U1-BOOTN)*%
X5265930Y-8803070D02*
X4799000Y-9270000D01*
X5911600Y-8803070D02*
X5265930Y-8803070D01*
%TO.N,Net-(U1-NRST)*%
X8602600Y-10810292D02*
X8110000Y-11302892D01*
X8602600Y-10225470D02*
X8602600Y-10810292D01*
X8110000Y-11302892D02*
X8110000Y-11400000D01*
%TO.N,Net-(U1-ENV_SCL)*%
X10610600Y-11120600D02*
X10890000Y-11400000D01*
X10610600Y-10225470D02*
X10610600Y-11120600D01*
%TO.N,Net-(U1-ENV_SDA)*%
X11900000Y-9040000D02*
X11636930Y-9303070D01*
X11636930Y-9303070D02*
X10737600Y-9303070D01*
%TD*%
%TA.AperFunction,Conductor*%
%TO.N,BNO_INT2*%
G36*
X9155627Y-9091853D02*
G01*
X9170470Y-9098130D01*
X9187178Y-9105195D01*
X9191463Y-9108309D01*
X9206900Y-9126124D01*
X9225021Y-9147037D01*
X9334001Y-9217074D01*
X9430084Y-9245286D01*
X9458297Y-9253570D01*
X9525189Y-9253570D01*
X9533462Y-9256997D01*
X9536889Y-9265270D01*
X9536889Y-9496746D01*
X9533462Y-9505019D01*
X9526646Y-9508355D01*
X9062286Y-9566623D01*
X9053650Y-9564253D01*
X9049220Y-9556471D01*
X9049129Y-9555061D01*
X9048191Y-9320642D01*
X9049097Y-9316080D01*
X9140319Y-9098129D01*
X9146675Y-9091821D01*
X9155627Y-9091853D01*
G37*
%TD.AperFunction*%
%TD*%
%TA.AperFunction,Conductor*%
%TO.N,GND*%
G36*
X15630632Y-507573D02*
G01*
X15631149Y-507607D01*
X15634100Y-507607D01*
X15634104Y-507608D01*
X15697245Y-507607D01*
X15702732Y-507915D01*
X15742477Y-512393D01*
X15805661Y-519512D01*
X15816357Y-521953D01*
X15911507Y-555247D01*
X15921392Y-560007D01*
X16000120Y-609475D01*
X16006754Y-613643D01*
X16015333Y-620485D01*
X16086614Y-691766D01*
X16093456Y-700345D01*
X16147092Y-785707D01*
X16151852Y-795593D01*
X16185145Y-890741D01*
X16187587Y-901438D01*
X16199184Y-1004368D01*
X16199492Y-1009854D01*
X16199492Y-1075991D01*
X16199493Y-1076008D01*
X16199497Y-9822389D01*
X16185145Y-9857037D01*
X16150497Y-9871389D01*
X16115849Y-9857037D01*
X16105227Y-9841140D01*
X16068284Y-9751951D01*
X15950273Y-9547550D01*
X15950270Y-9547546D01*
X15950264Y-9547537D01*
X15806596Y-9360306D01*
X15806586Y-9360294D01*
X15639705Y-9193413D01*
X15639693Y-9193403D01*
X15452462Y-9049735D01*
X15452447Y-9049725D01*
X15248050Y-8931716D01*
X15029996Y-8841395D01*
X15029986Y-8841391D01*
X14802025Y-8780309D01*
X14802018Y-8780308D01*
X14802014Y-8780307D01*
X14568011Y-8749500D01*
X14331989Y-8749500D01*
X14097986Y-8780307D01*
X14097982Y-8780307D01*
X14097974Y-8780309D01*
X13870013Y-8841391D01*
X13870003Y-8841395D01*
X13651949Y-8931717D01*
X13590680Y-8967090D01*
X13553498Y-8971984D01*
X13523745Y-8949153D01*
X13517489Y-8919169D01*
X13524410Y-8857751D01*
X13513172Y-8758012D01*
X13523554Y-8721977D01*
X13527216Y-8717880D01*
X13629718Y-8615378D01*
X13629722Y-8615373D01*
X13712031Y-8476197D01*
X13754505Y-8330000D01*
X13343468Y-8330000D01*
X13308820Y-8315648D01*
X13221108Y-8227936D01*
X13221104Y-8227933D01*
X13068371Y-8131963D01*
X12898103Y-8072384D01*
X12898102Y-8072383D01*
X12898100Y-8072383D01*
X12898096Y-8072382D01*
X12898094Y-8072382D01*
X12764012Y-8057274D01*
X12731189Y-8039133D01*
X12720499Y-8008582D01*
X12720499Y-7949500D01*
X12734851Y-7914852D01*
X12769499Y-7900500D01*
X13184679Y-7900500D01*
X13184690Y-7900500D01*
X13220993Y-7897643D01*
X13376395Y-7852494D01*
X13402892Y-7836823D01*
X13427835Y-7830000D01*
X13754505Y-7830000D01*
X13754505Y-7829999D01*
X13712032Y-7683804D01*
X13677510Y-7625434D01*
X13672225Y-7588305D01*
X13677504Y-7575558D01*
X13712494Y-7516395D01*
X13738477Y-7426961D01*
X13761924Y-7397694D01*
X13799200Y-7393579D01*
X13802633Y-7394715D01*
X13935017Y-7444091D01*
X13935020Y-7444092D01*
X13978677Y-7448785D01*
X13994627Y-7450500D01*
X15590372Y-7450499D01*
X15590378Y-7450499D01*
X15649978Y-7444092D01*
X15649979Y-7444091D01*
X15649983Y-7444091D01*
X15784831Y-7393796D01*
X15900046Y-7307546D01*
X15986296Y-7192331D01*
X16036591Y-7057483D01*
X16036591Y-7057481D01*
X16036592Y-7057479D01*
X16041125Y-7015310D01*
X16043000Y-6997873D01*
X16042999Y-5902128D01*
X16042999Y-5902120D01*
X16036592Y-5842521D01*
X16036591Y-5842517D01*
X16034405Y-5836657D01*
X16031815Y-5812565D01*
X16048000Y-5700000D01*
X16048000Y-5078111D01*
X16027524Y-4935696D01*
X15987017Y-4797741D01*
X15927247Y-4666863D01*
X15850936Y-4548121D01*
X15850615Y-4547556D01*
X15849514Y-4545908D01*
X15849513Y-4545905D01*
X15849509Y-4545900D01*
X15755291Y-4437167D01*
X15646631Y-4343015D01*
X15646625Y-4343010D01*
X15525602Y-4265234D01*
X15525601Y-4265233D01*
X15397198Y-4206593D01*
X15395497Y-4205703D01*
X15256754Y-4164964D01*
X15114445Y-4144503D01*
X15114441Y-4144503D01*
X15027035Y-4144503D01*
X15027028Y-4144500D01*
X15006736Y-4144500D01*
X14694715Y-4144500D01*
X14660067Y-4130148D01*
X14264066Y-3734147D01*
X14249714Y-3699499D01*
X14264066Y-3664851D01*
X14298714Y-3650499D01*
X14322878Y-3650499D01*
X14382478Y-3644092D01*
X14382479Y-3644091D01*
X14382483Y-3644091D01*
X14517331Y-3593796D01*
X14632546Y-3507546D01*
X14718796Y-3392331D01*
X14769091Y-3257483D01*
X14769091Y-3257481D01*
X14769092Y-3257479D01*
X14775499Y-3197879D01*
X14775500Y-3197873D01*
X14775499Y-1402128D01*
X14775499Y-1402127D01*
X14775499Y-1402120D01*
X14769092Y-1342521D01*
X14739017Y-1261885D01*
X14718796Y-1207669D01*
X14632546Y-1092454D01*
X14544534Y-1026568D01*
X14517333Y-1006205D01*
X14517331Y-1006204D01*
X14472381Y-989439D01*
X14382479Y-955907D01*
X14322879Y-949500D01*
X12527120Y-949500D01*
X12467521Y-955907D01*
X12332666Y-1006205D01*
X12217454Y-1092454D01*
X12131205Y-1207666D01*
X12080907Y-1342520D01*
X12074500Y-1402120D01*
X12074500Y-1489721D01*
X12060148Y-1524369D01*
X12025500Y-1538721D01*
X11990852Y-1524369D01*
X11985362Y-1517826D01*
X11923114Y-1428927D01*
X11923108Y-1428920D01*
X11756079Y-1261891D01*
X11756072Y-1261885D01*
X11562589Y-1126405D01*
X11562577Y-1126398D01*
X11348488Y-1026568D01*
X11348483Y-1026566D01*
X11135000Y-969363D01*
X11135000Y-1866988D01*
X11077993Y-1834075D01*
X10950826Y-1800000D01*
X10819174Y-1800000D01*
X10692007Y-1834075D01*
X10635000Y-1866988D01*
X10635000Y-969363D01*
X10634999Y-969363D01*
X10421516Y-1026566D01*
X10421511Y-1026567D01*
X10207423Y-1126398D01*
X10207411Y-1126405D01*
X10013927Y-1261885D01*
X10013920Y-1261891D01*
X9846891Y-1428920D01*
X9846885Y-1428927D01*
X9711405Y-1622411D01*
X9711398Y-1622423D01*
X9659685Y-1733324D01*
X9632035Y-1758661D01*
X9594568Y-1757025D01*
X9570867Y-1733324D01*
X9519036Y-1622172D01*
X9519028Y-1622160D01*
X9383499Y-1428604D01*
X9383493Y-1428597D01*
X9216402Y-1261506D01*
X9216395Y-1261500D01*
X9022840Y-1125970D01*
X9022828Y-1125963D01*
X8808660Y-1026095D01*
X8808655Y-1026094D01*
X8580416Y-964938D01*
X8580410Y-964937D01*
X8345000Y-944341D01*
X8109589Y-964937D01*
X8109583Y-964938D01*
X7881344Y-1026094D01*
X7881339Y-1026095D01*
X7667172Y-1125963D01*
X7667160Y-1125971D01*
X7473604Y-1261500D01*
X7473597Y-1261506D01*
X7306506Y-1428597D01*
X7306500Y-1428604D01*
X7170971Y-1622160D01*
X7170963Y-1622172D01*
X7119409Y-1732732D01*
X7091759Y-1758069D01*
X7054292Y-1756433D01*
X7030591Y-1732732D01*
X6979036Y-1622172D01*
X6979028Y-1622160D01*
X6843499Y-1428604D01*
X6843493Y-1428597D01*
X6676402Y-1261506D01*
X6676395Y-1261500D01*
X6482840Y-1125970D01*
X6482828Y-1125963D01*
X6268660Y-1026095D01*
X6268655Y-1026094D01*
X6040416Y-964938D01*
X6040410Y-964937D01*
X5805000Y-944341D01*
X5569589Y-964937D01*
X5569583Y-964938D01*
X5341344Y-1026094D01*
X5341339Y-1026095D01*
X5127172Y-1125963D01*
X5127160Y-1125971D01*
X4933604Y-1261500D01*
X4933597Y-1261506D01*
X4766506Y-1428597D01*
X4766500Y-1428604D01*
X4630971Y-1622160D01*
X4630963Y-1622172D01*
X4579409Y-1732732D01*
X4551759Y-1758069D01*
X4514292Y-1756433D01*
X4490591Y-1732732D01*
X4439036Y-1622172D01*
X4439028Y-1622160D01*
X4303499Y-1428604D01*
X4303493Y-1428597D01*
X4136402Y-1261506D01*
X4136395Y-1261500D01*
X3942840Y-1125970D01*
X3942828Y-1125963D01*
X3728660Y-1026095D01*
X3728655Y-1026094D01*
X3500416Y-964938D01*
X3500410Y-964937D01*
X3265000Y-944341D01*
X3029589Y-964937D01*
X3029583Y-964938D01*
X2801344Y-1026094D01*
X2801339Y-1026095D01*
X2587172Y-1125963D01*
X2587160Y-1125971D01*
X2393604Y-1261500D01*
X2393597Y-1261506D01*
X2226506Y-1428597D01*
X2226500Y-1428604D01*
X2090971Y-1622160D01*
X2090963Y-1622172D01*
X1991095Y-1836339D01*
X1991094Y-1836344D01*
X1929938Y-2064583D01*
X1929937Y-2064589D01*
X1909341Y-2300000D01*
X1929937Y-2535410D01*
X1929938Y-2535416D01*
X1991094Y-2763655D01*
X1991095Y-2763660D01*
X2090963Y-2977828D01*
X2090970Y-2977840D01*
X2226500Y-3171395D01*
X2226506Y-3171402D01*
X2393597Y-3338493D01*
X2393604Y-3338499D01*
X2587159Y-3474029D01*
X2587171Y-3474036D01*
X2801339Y-3573904D01*
X2801344Y-3573905D01*
X3029583Y-3635061D01*
X3029587Y-3635061D01*
X3029592Y-3635063D01*
X3265000Y-3655659D01*
X3456278Y-3638923D01*
X3492042Y-3650201D01*
X3509360Y-3683466D01*
X3498082Y-3719233D01*
X3495194Y-3722385D01*
X3462431Y-3755148D01*
X3427783Y-3769500D01*
X2950820Y-3769500D01*
X2950805Y-3769501D01*
X2914796Y-3772334D01*
X2760606Y-3817131D01*
X2701215Y-3852253D01*
X2664086Y-3857536D01*
X2651330Y-3852252D01*
X2626395Y-3837506D01*
X2626397Y-3837506D01*
X2470992Y-3792356D01*
X2434692Y-3789500D01*
X2434690Y-3789500D01*
X1965310Y-3789500D01*
X1965307Y-3789500D01*
X1929008Y-3792356D01*
X1929006Y-3792356D01*
X1773601Y-3837507D01*
X1634317Y-3919879D01*
X1634312Y-3919883D01*
X1519881Y-4034314D01*
X1496420Y-4073984D01*
X1488892Y-4083688D01*
X1162992Y-4409590D01*
X1075588Y-4496993D01*
X1006644Y-4600176D01*
X1005995Y-4601991D01*
X959616Y-4713958D01*
X959613Y-4713968D01*
X947474Y-4775000D01*
X940315Y-4810993D01*
X935500Y-4835198D01*
X935500Y-5805515D01*
X935500Y-5929121D01*
X951502Y-6009570D01*
X959613Y-6050350D01*
X959615Y-6050356D01*
X975042Y-6087598D01*
X975042Y-6087599D01*
X1006915Y-6164548D01*
X1034795Y-6206273D01*
X1039304Y-6213022D01*
X1075589Y-6267326D01*
X2458271Y-7650008D01*
X2545674Y-7737411D01*
X2648449Y-7806083D01*
X2683313Y-7820524D01*
X2762648Y-7853386D01*
X2883879Y-7877500D01*
X3261400Y-7877500D01*
X3296048Y-7891852D01*
X3334312Y-7930116D01*
X3334317Y-7930120D01*
X3473601Y-8012492D01*
X3473602Y-8012492D01*
X3473605Y-8012494D01*
X3629007Y-8057643D01*
X3665310Y-8060500D01*
X3701785Y-8060500D01*
X3736433Y-8074852D01*
X3964148Y-8302567D01*
X3978500Y-8337215D01*
X3978500Y-8449166D01*
X3978501Y-8449184D01*
X3981334Y-8485203D01*
X4026130Y-8639391D01*
X4082706Y-8735057D01*
X4087989Y-8772186D01*
X4082706Y-8784943D01*
X4026130Y-8880608D01*
X3981334Y-9034795D01*
X3981334Y-9034797D01*
X3978500Y-9070816D01*
X3978500Y-9469179D01*
X3978501Y-9469194D01*
X3981334Y-9505203D01*
X4026131Y-9659394D01*
X4107861Y-9797593D01*
X4107865Y-9797598D01*
X4221401Y-9911134D01*
X4221406Y-9911138D01*
X4359916Y-9993052D01*
X4382434Y-10023042D01*
X4377149Y-10060171D01*
X4376464Y-10061295D01*
X4369547Y-10072303D01*
X4369543Y-10072312D01*
X4313688Y-10231937D01*
X4313686Y-10231946D01*
X4294751Y-10400000D01*
X4312575Y-10558197D01*
X4313687Y-10568059D01*
X4369544Y-10727690D01*
X4369545Y-10727691D01*
X4459521Y-10870887D01*
X4459524Y-10870891D01*
X4522582Y-10933949D01*
X4536934Y-10968597D01*
X4534988Y-10982267D01*
X4492357Y-11129004D01*
X4492356Y-11129008D01*
X4489500Y-11165307D01*
X4489500Y-11634692D01*
X4492356Y-11670991D01*
X4492356Y-11670993D01*
X4537507Y-11826398D01*
X4619879Y-11965682D01*
X4619883Y-11965687D01*
X4734312Y-12080116D01*
X4734317Y-12080120D01*
X4873601Y-12162492D01*
X4873602Y-12162492D01*
X4873605Y-12162494D01*
X4970087Y-12190525D01*
X5014560Y-12203446D01*
X5043828Y-12226894D01*
X5047943Y-12264171D01*
X5024495Y-12293439D01*
X5000889Y-12299500D01*
X2977606Y-12299500D01*
X2942958Y-12285148D01*
X2928606Y-12250500D01*
X2942958Y-12215852D01*
X2958854Y-12205230D01*
X2981057Y-12196033D01*
X3048049Y-12168284D01*
X3252450Y-12050273D01*
X3439699Y-11906592D01*
X3606592Y-11739699D01*
X3750273Y-11552450D01*
X3868284Y-11348049D01*
X3958606Y-11129993D01*
X4019693Y-10902014D01*
X4050500Y-10668011D01*
X4050500Y-10431989D01*
X4019693Y-10197986D01*
X3986018Y-10072310D01*
X3958608Y-9970013D01*
X3958604Y-9970003D01*
X3934221Y-9911138D01*
X3868284Y-9751951D01*
X3750273Y-9547550D01*
X3750270Y-9547546D01*
X3750264Y-9547537D01*
X3606596Y-9360306D01*
X3606586Y-9360294D01*
X3439705Y-9193413D01*
X3439693Y-9193403D01*
X3252462Y-9049735D01*
X3252447Y-9049725D01*
X3048050Y-8931716D01*
X2829996Y-8841395D01*
X2829986Y-8841391D01*
X2602025Y-8780309D01*
X2602018Y-8780308D01*
X2602014Y-8780307D01*
X2368011Y-8749500D01*
X2131989Y-8749500D01*
X1897986Y-8780307D01*
X1897982Y-8780307D01*
X1897974Y-8780309D01*
X1670013Y-8841391D01*
X1670003Y-8841395D01*
X1451949Y-8931716D01*
X1247552Y-9049725D01*
X1247537Y-9049735D01*
X1060306Y-9193403D01*
X1060294Y-9193413D01*
X893413Y-9360294D01*
X893403Y-9360306D01*
X749735Y-9547537D01*
X749725Y-9547552D01*
X631716Y-9751949D01*
X594770Y-9841146D01*
X568251Y-9867664D01*
X530748Y-9867664D01*
X504230Y-9841145D01*
X500500Y-9822394D01*
X500500Y-1002752D01*
X500808Y-997266D01*
X506190Y-949500D01*
X512406Y-894332D01*
X514848Y-883637D01*
X548145Y-788477D01*
X552897Y-778610D01*
X606541Y-693235D01*
X613375Y-684666D01*
X684666Y-613375D01*
X693235Y-606541D01*
X778610Y-552897D01*
X788477Y-548145D01*
X883640Y-514847D01*
X894330Y-512406D01*
X997262Y-500808D01*
X1002758Y-500501D01*
X15630632Y-507573D01*
G37*
%TD.AperFunction*%
%TA.AperFunction,Conductor*%
G36*
X8338144Y-7823552D02*
G01*
X8367069Y-7823548D01*
X8367138Y-7823257D01*
X8368369Y-7823548D01*
X8369010Y-7823548D01*
X8370117Y-7823961D01*
X8370118Y-7823961D01*
X8370121Y-7823962D01*
X8411680Y-7828429D01*
X8429727Y-7830370D01*
X8775472Y-7830369D01*
X8775478Y-7830369D01*
X8835077Y-7823962D01*
X8835078Y-7823961D01*
X8835083Y-7823961D01*
X8835463Y-7823818D01*
X8835684Y-7823818D01*
X8838067Y-7823256D01*
X8838199Y-7823818D01*
X8867007Y-7823816D01*
X8867140Y-7823257D01*
X8869504Y-7823816D01*
X8869728Y-7823816D01*
X8870117Y-7823961D01*
X8870121Y-7823961D01*
X8870123Y-7823962D01*
X8870122Y-7823962D01*
X8908948Y-7828135D01*
X8929727Y-7830370D01*
X9275472Y-7830369D01*
X9275478Y-7830369D01*
X9335077Y-7823962D01*
X9335078Y-7823961D01*
X9335083Y-7823961D01*
X9335463Y-7823818D01*
X9335684Y-7823818D01*
X9338067Y-7823256D01*
X9338199Y-7823818D01*
X9367007Y-7823816D01*
X9367140Y-7823257D01*
X9369504Y-7823816D01*
X9369728Y-7823816D01*
X9370117Y-7823961D01*
X9370121Y-7823961D01*
X9370123Y-7823962D01*
X9370122Y-7823962D01*
X9408948Y-7828135D01*
X9429727Y-7830370D01*
X9775472Y-7830369D01*
X9776457Y-7830263D01*
X9776612Y-7830308D01*
X9776791Y-7830299D01*
X9776794Y-7830362D01*
X9812442Y-7840825D01*
X9830419Y-7873739D01*
X9830700Y-7878981D01*
X9830700Y-7972879D01*
X9837108Y-8032481D01*
X9837108Y-8032485D01*
X9837220Y-8032783D01*
X9837214Y-8032932D01*
X9837813Y-8035464D01*
X9837117Y-8035628D01*
X9835874Y-8070261D01*
X9808420Y-8095811D01*
X9775123Y-8096147D01*
X9691135Y-8066759D01*
X9691134Y-8066758D01*
X9691129Y-8066757D01*
X9691125Y-8066756D01*
X9691123Y-8066756D01*
X9523070Y-8047821D01*
X9355016Y-8066756D01*
X9355007Y-8066758D01*
X9195380Y-8122614D01*
X9195378Y-8122615D01*
X9052182Y-8212591D01*
X9052178Y-8212594D01*
X8932594Y-8332178D01*
X8932591Y-8332182D01*
X8842615Y-8475378D01*
X8842614Y-8475380D01*
X8802539Y-8589906D01*
X8777549Y-8617870D01*
X8772474Y-8619972D01*
X8721492Y-8637812D01*
X8721488Y-8637814D01*
X8692695Y-8655906D01*
X8655722Y-8662187D01*
X8640557Y-8655906D01*
X8591951Y-8625365D01*
X8571702Y-8612642D01*
X8401435Y-8553063D01*
X8401431Y-8553062D01*
X8401429Y-8553062D01*
X8222180Y-8532866D01*
X8042930Y-8553062D01*
X8042921Y-8553064D01*
X7872660Y-8612641D01*
X7872654Y-8612644D01*
X7777987Y-8672126D01*
X7741014Y-8678407D01*
X7735735Y-8676886D01*
X7588494Y-8625365D01*
X7588493Y-8625364D01*
X7588488Y-8625363D01*
X7588482Y-8625362D01*
X7588481Y-8625362D01*
X7450651Y-8609832D01*
X7417827Y-8591691D01*
X7407445Y-8555654D01*
X7409887Y-8544956D01*
X7432340Y-8480790D01*
X7452537Y-8301535D01*
X7432340Y-8122280D01*
X7372761Y-7952013D01*
X7340393Y-7900500D01*
X7340106Y-7900043D01*
X7333824Y-7863070D01*
X7355525Y-7832484D01*
X7386833Y-7825254D01*
X7429766Y-7829870D01*
X7775435Y-7829870D01*
X7834970Y-7823469D01*
X7834973Y-7823468D01*
X7835468Y-7823284D01*
X7835754Y-7823284D01*
X7837953Y-7822764D01*
X7838076Y-7823284D01*
X7867124Y-7823284D01*
X7867247Y-7822764D01*
X7869446Y-7823284D01*
X7869732Y-7823284D01*
X7870226Y-7823468D01*
X7870229Y-7823469D01*
X7929765Y-7829870D01*
X8275435Y-7829870D01*
X8334976Y-7823468D01*
X8337958Y-7822764D01*
X8338144Y-7823552D01*
G37*
%TD.AperFunction*%
%TA.AperFunction,Conductor*%
G36*
X4995200Y-6190809D02*
G01*
X5052538Y-6213022D01*
X5052539Y-6213022D01*
X5052544Y-6213024D01*
X5253024Y-6250500D01*
X5253026Y-6250500D01*
X5435165Y-6250500D01*
X5469813Y-6264852D01*
X5484165Y-6299500D01*
X5483528Y-6304905D01*
X5483836Y-6304939D01*
X5477100Y-6367590D01*
X5477100Y-6563707D01*
X5462748Y-6598355D01*
X5428100Y-6612707D01*
X5393452Y-6598355D01*
X5365378Y-6570281D01*
X5365373Y-6570277D01*
X5226198Y-6487969D01*
X5080000Y-6445493D01*
X5080000Y-7430500D01*
X5065648Y-7465148D01*
X5031000Y-7479500D01*
X4936215Y-7479500D01*
X4901567Y-7465148D01*
X4664852Y-7228433D01*
X4650500Y-7193785D01*
X4650500Y-7015321D01*
X4650500Y-7015310D01*
X4647643Y-6979007D01*
X4602494Y-6823605D01*
X4598088Y-6816155D01*
X4586823Y-6797105D01*
X4580000Y-6772163D01*
X4580000Y-6445494D01*
X4579999Y-6445493D01*
X4433806Y-6487967D01*
X4375433Y-6522489D01*
X4338304Y-6527772D01*
X4325547Y-6522488D01*
X4266398Y-6487507D01*
X4110992Y-6442356D01*
X4074692Y-6439500D01*
X4074690Y-6439500D01*
X3665310Y-6439500D01*
X3665307Y-6439500D01*
X3629008Y-6442356D01*
X3629006Y-6442356D01*
X3473601Y-6487507D01*
X3334317Y-6569879D01*
X3334312Y-6569883D01*
X3296048Y-6608148D01*
X3261400Y-6622500D01*
X3225897Y-6622500D01*
X3191249Y-6608148D01*
X2997248Y-6414147D01*
X2982896Y-6379499D01*
X2997248Y-6344851D01*
X3031893Y-6330499D01*
X3449180Y-6330499D01*
X3449185Y-6330498D01*
X3449194Y-6330498D01*
X3469469Y-6328902D01*
X3485204Y-6327665D01*
X3639393Y-6282869D01*
X3777598Y-6201135D01*
X3777601Y-6201131D01*
X3780030Y-6199248D01*
X3780793Y-6200231D01*
X3811529Y-6187500D01*
X4883197Y-6187500D01*
X4977499Y-6187500D01*
X4995200Y-6190809D01*
G37*
%TD.AperFunction*%
%TD*%
M02*
