G04 #@! TF.GenerationSoftware,KiCad,Pcbnew,8.0.5-8.0.5-0~ubuntu22.04.1*
G04 #@! TF.CreationDate,2024-10-23T17:13:05-07:00*
G04 #@! TF.ProjectId,uSlime_BNO085_Module,75536c69-6d65-45f4-924e-4f3038355f4d,rev?*
G04 #@! TF.SameCoordinates,Original*
G04 #@! TF.FileFunction,Copper,L2,Bot*
G04 #@! TF.FilePolarity,Positive*
%FSLAX46Y46*%
G04 Gerber Fmt 4.6, Leading zero omitted, Abs format (unit mm)*
G04 Created by KiCad (PCBNEW 8.0.5-8.0.5-0~ubuntu22.04.1) date 2024-10-23 17:13:05*
%MOMM*%
%LPD*%
G01*
G04 APERTURE LIST*
G04 #@! TA.AperFunction,ComponentPad*
%ADD10R,1.700000X1.700000*%
G04 #@! TD*
G04 #@! TA.AperFunction,ComponentPad*
%ADD11O,1.700000X1.700000*%
G04 #@! TD*
G04 #@! TA.AperFunction,ComponentPad*
%ADD12C,1.200000*%
G04 #@! TD*
G04 #@! TA.AperFunction,ViaPad*
%ADD13C,0.600000*%
G04 #@! TD*
G04 #@! TA.AperFunction,ViaPad*
%ADD14C,0.500000*%
G04 #@! TD*
G04 #@! TA.AperFunction,Conductor*
%ADD15C,0.254000*%
G04 #@! TD*
G04 APERTURE END LIST*
D10*
X114075000Y-91650000D03*
D11*
X111535000Y-91650000D03*
X108995000Y-91650000D03*
X106455000Y-91650000D03*
X103915000Y-91650000D03*
D12*
X112005000Y-94500000D03*
X110505000Y-94500000D03*
X109005000Y-94500000D03*
X107505000Y-94500000D03*
X106005000Y-94500000D03*
D13*
X108872180Y-98688431D03*
D14*
X108070429Y-98711676D03*
X105700000Y-99750000D03*
D13*
X113368845Y-98207751D03*
X107296972Y-97651535D03*
X108752600Y-97400000D03*
X106050000Y-95800000D03*
D14*
X109699182Y-98668268D03*
X115450000Y-95800000D03*
X110173070Y-98153070D03*
D15*
X107866447Y-97651535D02*
X109460180Y-99245268D01*
X109460180Y-99245268D02*
X112331328Y-99245268D01*
X107296972Y-97651535D02*
X107866447Y-97651535D01*
X112331328Y-99245268D02*
X113368845Y-98207751D01*
X108070429Y-98711676D02*
X107032105Y-99750000D01*
X107032105Y-99750000D02*
X105700000Y-99750000D01*
X109400000Y-98350000D02*
X109400000Y-94895000D01*
X109699182Y-98668268D02*
X109699182Y-98649182D01*
X109699182Y-98649182D02*
X109400000Y-98350000D01*
X109400000Y-94895000D02*
X109005000Y-94500000D01*
X110505000Y-94500000D02*
X110505000Y-92680000D01*
X110505000Y-92680000D02*
X111535000Y-91650000D01*
X114075000Y-92430000D02*
X114075000Y-91650000D01*
X112005000Y-94500000D02*
X114075000Y-92430000D01*
X106005000Y-94500000D02*
X103915000Y-92410000D01*
X103915000Y-92410000D02*
X103915000Y-91650000D01*
X107505000Y-92700000D02*
X106455000Y-91650000D01*
X107505000Y-94500000D02*
X107505000Y-92700000D01*
X109005000Y-94500000D02*
X109005000Y-91660000D01*
X109005000Y-91660000D02*
X108995000Y-91650000D01*
X112526140Y-95800000D02*
X115450000Y-95800000D01*
X110173070Y-98153070D02*
X112526140Y-95800000D01*
G04 #@! TA.AperFunction,Conductor*
G36*
X116280632Y-89857573D02*
G01*
X116281149Y-89857607D01*
X116284100Y-89857607D01*
X116284104Y-89857608D01*
X116347245Y-89857607D01*
X116352732Y-89857915D01*
X116392477Y-89862393D01*
X116455661Y-89869512D01*
X116466357Y-89871953D01*
X116561507Y-89905247D01*
X116571392Y-89910007D01*
X116650120Y-89959475D01*
X116656754Y-89963643D01*
X116665333Y-89970485D01*
X116736614Y-90041766D01*
X116743456Y-90050345D01*
X116797092Y-90135707D01*
X116801852Y-90145593D01*
X116835145Y-90240741D01*
X116837587Y-90251438D01*
X116849184Y-90354368D01*
X116849492Y-90359854D01*
X116849492Y-90425991D01*
X116849493Y-90426008D01*
X116849497Y-99172389D01*
X116835145Y-99207037D01*
X116800497Y-99221389D01*
X116765849Y-99207037D01*
X116755227Y-99191140D01*
X116718284Y-99101951D01*
X116600273Y-98897550D01*
X116600270Y-98897546D01*
X116600264Y-98897537D01*
X116456596Y-98710306D01*
X116456586Y-98710294D01*
X116289705Y-98543413D01*
X116289693Y-98543403D01*
X116102462Y-98399735D01*
X116102447Y-98399725D01*
X115898050Y-98281716D01*
X115679996Y-98191395D01*
X115679986Y-98191391D01*
X115452025Y-98130309D01*
X115452018Y-98130308D01*
X115452014Y-98130307D01*
X115218011Y-98099500D01*
X114981989Y-98099500D01*
X114747986Y-98130307D01*
X114747982Y-98130307D01*
X114747974Y-98130309D01*
X114520013Y-98191391D01*
X114520003Y-98191395D01*
X114347108Y-98263011D01*
X114302833Y-98281351D01*
X114301949Y-98281717D01*
X114240680Y-98317090D01*
X114203498Y-98321984D01*
X114173745Y-98299153D01*
X114167489Y-98269169D01*
X114174410Y-98207751D01*
X114154213Y-98028496D01*
X114094634Y-97858229D01*
X114094633Y-97858228D01*
X114094632Y-97858224D01*
X113998662Y-97705491D01*
X113998661Y-97705489D01*
X113871107Y-97577935D01*
X113829630Y-97551873D01*
X113718371Y-97481963D01*
X113548103Y-97422384D01*
X113548102Y-97422383D01*
X113548100Y-97422383D01*
X113548096Y-97422382D01*
X113548094Y-97422382D01*
X113368845Y-97402186D01*
X113189595Y-97422382D01*
X113189586Y-97422384D01*
X113019318Y-97481963D01*
X112866585Y-97577933D01*
X112866581Y-97577936D01*
X112739030Y-97705487D01*
X112739027Y-97705491D01*
X112643057Y-97858224D01*
X112583478Y-98028492D01*
X112583476Y-98028501D01*
X112575592Y-98098466D01*
X112561548Y-98127627D01*
X112085761Y-98603416D01*
X112051113Y-98617768D01*
X110856097Y-98617768D01*
X110821449Y-98603416D01*
X110807097Y-98568768D01*
X110814608Y-98542698D01*
X110853524Y-98480764D01*
X110853524Y-98480762D01*
X110853526Y-98480760D01*
X110909383Y-98321129D01*
X110909615Y-98319067D01*
X110923658Y-98289899D01*
X112771707Y-96441852D01*
X112806355Y-96427500D01*
X115023914Y-96427500D01*
X115049984Y-96435011D01*
X115122305Y-96480454D01*
X115122309Y-96480455D01*
X115122310Y-96480456D01*
X115281941Y-96536313D01*
X115450000Y-96555249D01*
X115618059Y-96536313D01*
X115777690Y-96480456D01*
X115920890Y-96390477D01*
X116040477Y-96270890D01*
X116130456Y-96127690D01*
X116186313Y-95968059D01*
X116205249Y-95800000D01*
X116186313Y-95631941D01*
X116130456Y-95472310D01*
X116040477Y-95329110D01*
X115920890Y-95209523D01*
X115777690Y-95119544D01*
X115618059Y-95063687D01*
X115618055Y-95063686D01*
X115618053Y-95063686D01*
X115450000Y-95044751D01*
X115281946Y-95063686D01*
X115281937Y-95063688D01*
X115122305Y-95119545D01*
X115049984Y-95164989D01*
X115023914Y-95172500D01*
X112974600Y-95172500D01*
X112939952Y-95158148D01*
X112925600Y-95123500D01*
X112935498Y-95093970D01*
X112944673Y-95081821D01*
X113030860Y-94908731D01*
X113032004Y-94906574D01*
X113034838Y-94901549D01*
X113376750Y-94021541D01*
X113387773Y-94004644D01*
X114377567Y-93014851D01*
X114412215Y-93000499D01*
X114972878Y-93000499D01*
X115032478Y-92994092D01*
X115032479Y-92994091D01*
X115032483Y-92994091D01*
X115167331Y-92943796D01*
X115282546Y-92857546D01*
X115368796Y-92742331D01*
X115419091Y-92607483D01*
X115419091Y-92607481D01*
X115419092Y-92607479D01*
X115425499Y-92547879D01*
X115425500Y-92547873D01*
X115425499Y-90752128D01*
X115425499Y-90752127D01*
X115425499Y-90752120D01*
X115419092Y-90692521D01*
X115389017Y-90611885D01*
X115368796Y-90557669D01*
X115282546Y-90442454D01*
X115194534Y-90376568D01*
X115167333Y-90356205D01*
X115167331Y-90356204D01*
X115122381Y-90339439D01*
X115032479Y-90305907D01*
X114972879Y-90299500D01*
X113177120Y-90299500D01*
X113117521Y-90305907D01*
X112982666Y-90356205D01*
X112867454Y-90442454D01*
X112781205Y-90557666D01*
X112730907Y-90692520D01*
X112724500Y-90752120D01*
X112724500Y-90839721D01*
X112710148Y-90874369D01*
X112675500Y-90888721D01*
X112640852Y-90874369D01*
X112635362Y-90867826D01*
X112573114Y-90778927D01*
X112573108Y-90778920D01*
X112406079Y-90611891D01*
X112406072Y-90611885D01*
X112212589Y-90476405D01*
X112212577Y-90476398D01*
X111998488Y-90376568D01*
X111998483Y-90376566D01*
X111785000Y-90319363D01*
X111785000Y-91216988D01*
X111727993Y-91184075D01*
X111600826Y-91150000D01*
X111469174Y-91150000D01*
X111342007Y-91184075D01*
X111285000Y-91216988D01*
X111285000Y-90319363D01*
X111284999Y-90319363D01*
X111071516Y-90376566D01*
X111071511Y-90376567D01*
X110857423Y-90476398D01*
X110857411Y-90476405D01*
X110663927Y-90611885D01*
X110663920Y-90611891D01*
X110496891Y-90778920D01*
X110496885Y-90778927D01*
X110361405Y-90972411D01*
X110361398Y-90972423D01*
X110309685Y-91083324D01*
X110282035Y-91108661D01*
X110244568Y-91107025D01*
X110220867Y-91083324D01*
X110169036Y-90972172D01*
X110169028Y-90972160D01*
X110033499Y-90778604D01*
X110033493Y-90778597D01*
X109866402Y-90611506D01*
X109866395Y-90611500D01*
X109672840Y-90475970D01*
X109672828Y-90475963D01*
X109458660Y-90376095D01*
X109458655Y-90376094D01*
X109230416Y-90314938D01*
X109230410Y-90314937D01*
X108995000Y-90294341D01*
X108759589Y-90314937D01*
X108759583Y-90314938D01*
X108531344Y-90376094D01*
X108531339Y-90376095D01*
X108317172Y-90475963D01*
X108317160Y-90475971D01*
X108123604Y-90611500D01*
X108123597Y-90611506D01*
X107956506Y-90778597D01*
X107956500Y-90778604D01*
X107820971Y-90972160D01*
X107820963Y-90972172D01*
X107769409Y-91082732D01*
X107741759Y-91108069D01*
X107704292Y-91106433D01*
X107680591Y-91082732D01*
X107629036Y-90972172D01*
X107629028Y-90972160D01*
X107493499Y-90778604D01*
X107493493Y-90778597D01*
X107326402Y-90611506D01*
X107326395Y-90611500D01*
X107132840Y-90475970D01*
X107132828Y-90475963D01*
X106918660Y-90376095D01*
X106918655Y-90376094D01*
X106690416Y-90314938D01*
X106690410Y-90314937D01*
X106455000Y-90294341D01*
X106219589Y-90314937D01*
X106219583Y-90314938D01*
X105991344Y-90376094D01*
X105991339Y-90376095D01*
X105777172Y-90475963D01*
X105777160Y-90475971D01*
X105583604Y-90611500D01*
X105583597Y-90611506D01*
X105416506Y-90778597D01*
X105416500Y-90778604D01*
X105280971Y-90972160D01*
X105280963Y-90972172D01*
X105229409Y-91082732D01*
X105201759Y-91108069D01*
X105164292Y-91106433D01*
X105140591Y-91082732D01*
X105089036Y-90972172D01*
X105089028Y-90972160D01*
X104953499Y-90778604D01*
X104953493Y-90778597D01*
X104786402Y-90611506D01*
X104786395Y-90611500D01*
X104592840Y-90475970D01*
X104592828Y-90475963D01*
X104378660Y-90376095D01*
X104378655Y-90376094D01*
X104150416Y-90314938D01*
X104150410Y-90314937D01*
X103915000Y-90294341D01*
X103679589Y-90314937D01*
X103679583Y-90314938D01*
X103451344Y-90376094D01*
X103451339Y-90376095D01*
X103237172Y-90475963D01*
X103237160Y-90475971D01*
X103043604Y-90611500D01*
X103043597Y-90611506D01*
X102876506Y-90778597D01*
X102876500Y-90778604D01*
X102740971Y-90972160D01*
X102740963Y-90972172D01*
X102641095Y-91186339D01*
X102641094Y-91186344D01*
X102579938Y-91414583D01*
X102579937Y-91414589D01*
X102559341Y-91650000D01*
X102579937Y-91885410D01*
X102579938Y-91885416D01*
X102641094Y-92113655D01*
X102641095Y-92113660D01*
X102740963Y-92327828D01*
X102740970Y-92327840D01*
X102876500Y-92521395D01*
X102876506Y-92521402D01*
X103043597Y-92688493D01*
X103043604Y-92688499D01*
X103237159Y-92824029D01*
X103237171Y-92824036D01*
X103277499Y-92842841D01*
X103451337Y-92923903D01*
X103451339Y-92923903D01*
X103451342Y-92923905D01*
X103561797Y-92953500D01*
X103583763Y-92966182D01*
X104622223Y-94004642D01*
X104633249Y-94021544D01*
X104831293Y-94531264D01*
X104891271Y-94685633D01*
X104975161Y-94901548D01*
X104975180Y-94901596D01*
X104977298Y-94906958D01*
X104977380Y-94907162D01*
X104977390Y-94907183D01*
X105002404Y-94960292D01*
X105002410Y-94960301D01*
X105007010Y-94966464D01*
X105011605Y-94973932D01*
X105065325Y-95081818D01*
X105065326Y-95081820D01*
X105065327Y-95081821D01*
X105093814Y-95119544D01*
X105188233Y-95244576D01*
X105188236Y-95244579D01*
X105338954Y-95381977D01*
X105338955Y-95381978D01*
X105338959Y-95381981D01*
X105512363Y-95489348D01*
X105702544Y-95563024D01*
X105903024Y-95600500D01*
X105903026Y-95600500D01*
X106106974Y-95600500D01*
X106106976Y-95600500D01*
X106307456Y-95563024D01*
X106497637Y-95489348D01*
X106671041Y-95381981D01*
X106721990Y-95335534D01*
X106757262Y-95322798D01*
X106788008Y-95335533D01*
X106838959Y-95381981D01*
X107012363Y-95489348D01*
X107202544Y-95563024D01*
X107403024Y-95600500D01*
X107403026Y-95600500D01*
X107606974Y-95600500D01*
X107606976Y-95600500D01*
X107807456Y-95563024D01*
X107997637Y-95489348D01*
X108171041Y-95381981D01*
X108219149Y-95338123D01*
X108254420Y-95325388D01*
X108284834Y-95337822D01*
X108756178Y-95759659D01*
X108772425Y-95793460D01*
X108772500Y-95796172D01*
X108772500Y-97551873D01*
X108758148Y-97586521D01*
X108723500Y-97600873D01*
X108688852Y-97586521D01*
X108266454Y-97164123D01*
X108255342Y-97156698D01*
X108244229Y-97149273D01*
X108163680Y-97095452D01*
X108163677Y-97095450D01*
X108163676Y-97095450D01*
X108130231Y-97081597D01*
X108049485Y-97048150D01*
X108049479Y-97048148D01*
X108000589Y-97038423D01*
X107928250Y-97024035D01*
X107928247Y-97024035D01*
X107817036Y-97024035D01*
X107790966Y-97016524D01*
X107646498Y-96925747D01*
X107476230Y-96866168D01*
X107476229Y-96866167D01*
X107476227Y-96866167D01*
X107476223Y-96866166D01*
X107476221Y-96866166D01*
X107296972Y-96845970D01*
X107117722Y-96866166D01*
X107117713Y-96866168D01*
X106947445Y-96925747D01*
X106794712Y-97021717D01*
X106794708Y-97021720D01*
X106667157Y-97149271D01*
X106667154Y-97149275D01*
X106571184Y-97302008D01*
X106511605Y-97472276D01*
X106511603Y-97472285D01*
X106491407Y-97651535D01*
X106511603Y-97830784D01*
X106511605Y-97830793D01*
X106571184Y-98001061D01*
X106643094Y-98115503D01*
X106667156Y-98153797D01*
X106794710Y-98281351D01*
X106822747Y-98298967D01*
X106947445Y-98377322D01*
X106947449Y-98377323D01*
X106947450Y-98377324D01*
X107117717Y-98436903D01*
X107296972Y-98457100D01*
X107299706Y-98457408D01*
X107299544Y-98458845D01*
X107329979Y-98471452D01*
X107344331Y-98506100D01*
X107341581Y-98522284D01*
X107334117Y-98543613D01*
X107334114Y-98543626D01*
X107333881Y-98545694D01*
X107319838Y-98574846D01*
X106786538Y-99108148D01*
X106751890Y-99122500D01*
X106126086Y-99122500D01*
X106100016Y-99114989D01*
X106027694Y-99069545D01*
X105868062Y-99013688D01*
X105868061Y-99013687D01*
X105868059Y-99013687D01*
X105868055Y-99013686D01*
X105868053Y-99013686D01*
X105700000Y-98994751D01*
X105531946Y-99013686D01*
X105531937Y-99013688D01*
X105372310Y-99069544D01*
X105372308Y-99069545D01*
X105229112Y-99159521D01*
X105229108Y-99159524D01*
X105109524Y-99279108D01*
X105109521Y-99279112D01*
X105019545Y-99422308D01*
X105019544Y-99422310D01*
X104963688Y-99581937D01*
X104963686Y-99581946D01*
X104944751Y-99750000D01*
X104955866Y-99848652D01*
X104963687Y-99918059D01*
X105019544Y-100077690D01*
X105109523Y-100220890D01*
X105229110Y-100340477D01*
X105372310Y-100430456D01*
X105531941Y-100486313D01*
X105700000Y-100505249D01*
X105868059Y-100486313D01*
X106027690Y-100430456D01*
X106027692Y-100430454D01*
X106027694Y-100430454D01*
X106100016Y-100385011D01*
X106126086Y-100377500D01*
X107093905Y-100377500D01*
X107093908Y-100377500D01*
X107215140Y-100353386D01*
X107295887Y-100319938D01*
X107295888Y-100319938D01*
X107308244Y-100314819D01*
X107329338Y-100306083D01*
X107432113Y-100237411D01*
X107519516Y-100150008D01*
X108207258Y-99462264D01*
X108236426Y-99448221D01*
X108238488Y-99447989D01*
X108398119Y-99392132D01*
X108416742Y-99380429D01*
X108453713Y-99374147D01*
X108468881Y-99380430D01*
X108522653Y-99414218D01*
X108522657Y-99414219D01*
X108522658Y-99414220D01*
X108692925Y-99473799D01*
X108798014Y-99485639D01*
X108827176Y-99499683D01*
X108972769Y-99645276D01*
X109060172Y-99732679D01*
X109162947Y-99801351D01*
X109188181Y-99811803D01*
X109277146Y-99848654D01*
X109398377Y-99872768D01*
X109398380Y-99872768D01*
X112393128Y-99872768D01*
X112393131Y-99872768D01*
X112514363Y-99848654D01*
X112603327Y-99811803D01*
X112628561Y-99801351D01*
X112731336Y-99732679D01*
X112818739Y-99645276D01*
X113392136Y-99071877D01*
X113426784Y-99057526D01*
X113461432Y-99071878D01*
X113475784Y-99106526D01*
X113472054Y-99125276D01*
X113444773Y-99191140D01*
X113391395Y-99320003D01*
X113391391Y-99320013D01*
X113330309Y-99547974D01*
X113330307Y-99547982D01*
X113330307Y-99547986D01*
X113299500Y-99781989D01*
X113299500Y-100018011D01*
X113330307Y-100252014D01*
X113330308Y-100252018D01*
X113330309Y-100252025D01*
X113391391Y-100479986D01*
X113391395Y-100479996D01*
X113481716Y-100698050D01*
X113599725Y-100902447D01*
X113599735Y-100902462D01*
X113743403Y-101089693D01*
X113743413Y-101089705D01*
X113910294Y-101256586D01*
X113910306Y-101256596D01*
X114097537Y-101400264D01*
X114097552Y-101400274D01*
X114301949Y-101518283D01*
X114391146Y-101555230D01*
X114417664Y-101581749D01*
X114417664Y-101619252D01*
X114391145Y-101645770D01*
X114372394Y-101649500D01*
X103627606Y-101649500D01*
X103592958Y-101635148D01*
X103578606Y-101600500D01*
X103592958Y-101565852D01*
X103608854Y-101555230D01*
X103624028Y-101548944D01*
X103698049Y-101518284D01*
X103902450Y-101400273D01*
X104089699Y-101256592D01*
X104256592Y-101089699D01*
X104400273Y-100902450D01*
X104518284Y-100698049D01*
X104608606Y-100479993D01*
X104621880Y-100430456D01*
X104669690Y-100252025D01*
X104669689Y-100252025D01*
X104669693Y-100252014D01*
X104700500Y-100018011D01*
X104700500Y-99781989D01*
X104669693Y-99547986D01*
X104646724Y-99462265D01*
X104608608Y-99320013D01*
X104608604Y-99320003D01*
X104591666Y-99279112D01*
X104518284Y-99101951D01*
X104400273Y-98897550D01*
X104400270Y-98897546D01*
X104400264Y-98897537D01*
X104256596Y-98710306D01*
X104256586Y-98710294D01*
X104089705Y-98543413D01*
X104089693Y-98543403D01*
X103902462Y-98399735D01*
X103902447Y-98399725D01*
X103698050Y-98281716D01*
X103479996Y-98191395D01*
X103479986Y-98191391D01*
X103252025Y-98130309D01*
X103252018Y-98130308D01*
X103252014Y-98130307D01*
X103018011Y-98099500D01*
X102781989Y-98099500D01*
X102547986Y-98130307D01*
X102547982Y-98130307D01*
X102547974Y-98130309D01*
X102320013Y-98191391D01*
X102320003Y-98191395D01*
X102101949Y-98281716D01*
X101897552Y-98399725D01*
X101897537Y-98399735D01*
X101710306Y-98543403D01*
X101710294Y-98543413D01*
X101543413Y-98710294D01*
X101543403Y-98710306D01*
X101399735Y-98897537D01*
X101399725Y-98897552D01*
X101281716Y-99101949D01*
X101244770Y-99191146D01*
X101218251Y-99217664D01*
X101180748Y-99217664D01*
X101154230Y-99191145D01*
X101150500Y-99172394D01*
X101150500Y-90352752D01*
X101150808Y-90347266D01*
X101156190Y-90299500D01*
X101162406Y-90244332D01*
X101164848Y-90233637D01*
X101198145Y-90138477D01*
X101202897Y-90128610D01*
X101256541Y-90043235D01*
X101263375Y-90034666D01*
X101334666Y-89963375D01*
X101343235Y-89956541D01*
X101428610Y-89902897D01*
X101438477Y-89898145D01*
X101533640Y-89864847D01*
X101544330Y-89862406D01*
X101647262Y-89850808D01*
X101652758Y-89850501D01*
X116280632Y-89857573D01*
G37*
G04 #@! TD.AperFunction*
G04 #@! TA.AperFunction,Conductor*
G36*
X111785000Y-92980634D02*
G01*
X111998483Y-92923433D01*
X111998488Y-92923431D01*
X112212577Y-92823601D01*
X112212589Y-92823594D01*
X112406072Y-92688114D01*
X112406079Y-92688108D01*
X112573108Y-92521079D01*
X112635361Y-92432173D01*
X112666991Y-92412022D01*
X112703605Y-92420139D01*
X112723756Y-92451769D01*
X112724500Y-92460277D01*
X112724500Y-92547879D01*
X112730907Y-92607478D01*
X112730909Y-92607483D01*
X112761124Y-92688495D01*
X112781205Y-92742333D01*
X112796021Y-92762125D01*
X112805295Y-92798463D01*
X112791442Y-92826137D01*
X112500356Y-93117223D01*
X112483454Y-93128249D01*
X111890546Y-93358615D01*
X111603387Y-93470186D01*
X111601663Y-93470870D01*
X111596162Y-93473056D01*
X111596041Y-93473105D01*
X111564440Y-93488064D01*
X111544704Y-93497406D01*
X111544702Y-93497406D01*
X111542907Y-93498257D01*
X111537420Y-93500944D01*
X111512367Y-93510649D01*
X111338954Y-93618022D01*
X111287637Y-93664802D01*
X111252363Y-93677538D01*
X111221616Y-93664801D01*
X111170742Y-93618423D01*
X110997409Y-93511099D01*
X110807325Y-93437461D01*
X110606928Y-93400000D01*
X110403072Y-93400000D01*
X110202674Y-93437461D01*
X110012590Y-93511099D01*
X109875635Y-93595898D01*
X109838621Y-93601935D01*
X109808179Y-93580032D01*
X109805002Y-93573997D01*
X109636656Y-93191709D01*
X109632500Y-93171961D01*
X109632500Y-92874057D01*
X109646852Y-92839409D01*
X109660789Y-92829649D01*
X109672830Y-92824035D01*
X109672836Y-92824030D01*
X109672840Y-92824029D01*
X109866395Y-92688499D01*
X109866401Y-92688495D01*
X110033495Y-92521401D01*
X110082252Y-92451769D01*
X110169029Y-92327840D01*
X110169031Y-92327834D01*
X110169035Y-92327830D01*
X110220868Y-92216674D01*
X110248517Y-92191338D01*
X110285984Y-92192974D01*
X110309685Y-92216675D01*
X110361399Y-92327577D01*
X110361405Y-92327589D01*
X110496885Y-92521072D01*
X110496891Y-92521079D01*
X110663920Y-92688108D01*
X110663927Y-92688114D01*
X110857410Y-92823594D01*
X110857422Y-92823601D01*
X111071511Y-92923431D01*
X111071516Y-92923433D01*
X111285000Y-92980634D01*
X111285000Y-92083012D01*
X111342007Y-92115925D01*
X111469174Y-92150000D01*
X111600826Y-92150000D01*
X111727993Y-92115925D01*
X111785000Y-92083012D01*
X111785000Y-92980634D01*
G37*
G04 #@! TD.AperFunction*
G04 #@! TA.AperFunction,Conductor*
G36*
X109592415Y-94499979D02*
G01*
X109600682Y-94503420D01*
X109604095Y-94511699D01*
X109604062Y-94512551D01*
X109527809Y-95532990D01*
X109523776Y-95540985D01*
X109516142Y-95543818D01*
X109277471Y-95543818D01*
X109269668Y-95540836D01*
X108589939Y-94932500D01*
X108586060Y-94924429D01*
X108589024Y-94915979D01*
X108589432Y-94915546D01*
X109001563Y-94502444D01*
X109009830Y-94499008D01*
X109592415Y-94499979D01*
G37*
G04 #@! TD.AperFunction*
G04 #@! TA.AperFunction,Conductor*
G36*
X109529640Y-98290745D02*
G01*
X109556226Y-98305436D01*
X109785715Y-98432248D01*
X109791298Y-98439249D01*
X109790872Y-98446950D01*
X109701043Y-98664754D01*
X109694721Y-98671096D01*
X109694664Y-98671119D01*
X109479024Y-98759506D01*
X109470070Y-98759473D01*
X109463766Y-98753130D01*
X109279642Y-98305435D01*
X109279665Y-98296481D01*
X109286013Y-98290165D01*
X109290463Y-98289286D01*
X109523981Y-98289286D01*
X109529640Y-98290745D01*
G37*
G04 #@! TD.AperFunction*
G04 #@! TA.AperFunction,Conductor*
G36*
X112765563Y-93564631D02*
G01*
X112769121Y-93567066D01*
X112937933Y-93735878D01*
X112941360Y-93744151D01*
X112940566Y-93748388D01*
X112563653Y-94718477D01*
X112557462Y-94724948D01*
X112548510Y-94725146D01*
X112548286Y-94725056D01*
X112008792Y-94502562D01*
X112002451Y-94496240D01*
X112002437Y-94496207D01*
X111779943Y-93956713D01*
X111779957Y-93947758D01*
X111786298Y-93941436D01*
X111786458Y-93941371D01*
X112756613Y-93564433D01*
X112765563Y-93564631D01*
G37*
G04 #@! TD.AperFunction*
G04 #@! TA.AperFunction,Conductor*
G36*
X105253384Y-93564432D02*
G01*
X106223477Y-93941346D01*
X106229948Y-93947537D01*
X106230146Y-93956489D01*
X106230056Y-93956713D01*
X106007562Y-94496207D01*
X106001240Y-94502548D01*
X106001207Y-94502562D01*
X105461713Y-94725056D01*
X105452758Y-94725042D01*
X105446436Y-94718701D01*
X105446346Y-94718477D01*
X105362456Y-94502562D01*
X105069433Y-93748386D01*
X105069631Y-93739436D01*
X105072063Y-93735881D01*
X105240879Y-93567065D01*
X105249151Y-93563639D01*
X105253384Y-93564432D01*
G37*
G04 #@! TD.AperFunction*
G04 #@! TA.AperFunction,Conductor*
G36*
X107632641Y-93303427D02*
G01*
X107635076Y-93306985D01*
X108054514Y-94259460D01*
X108054712Y-94268412D01*
X108048521Y-94274883D01*
X108048300Y-94274977D01*
X107509494Y-94499130D01*
X107500539Y-94499144D01*
X107500506Y-94499130D01*
X106961699Y-94274977D01*
X106955377Y-94268636D01*
X106955391Y-94259681D01*
X106955485Y-94259460D01*
X107374924Y-93306985D01*
X107381395Y-93300794D01*
X107385632Y-93300000D01*
X107624368Y-93300000D01*
X107632641Y-93303427D01*
G37*
G04 #@! TD.AperFunction*
G04 #@! TA.AperFunction,Conductor*
G36*
X109132641Y-93303427D02*
G01*
X109135076Y-93306985D01*
X109554514Y-94259460D01*
X109554712Y-94268412D01*
X109548521Y-94274883D01*
X109548300Y-94274977D01*
X109009494Y-94499130D01*
X109000539Y-94499144D01*
X109000506Y-94499130D01*
X108461699Y-94274977D01*
X108455377Y-94268636D01*
X108455391Y-94259681D01*
X108455485Y-94259460D01*
X108874924Y-93306985D01*
X108881395Y-93300794D01*
X108885632Y-93300000D01*
X109124368Y-93300000D01*
X109132641Y-93303427D01*
G37*
G04 #@! TD.AperFunction*
M02*
