%TF.GenerationSoftware,KiCad,Pcbnew,8.0.2*%
%TF.CreationDate,2024-11-03T01:22:41-07:00*%
%TF.ProjectId,uSlime_BNO085_Module,75536c69-6d65-45f4-924e-4f3038355f4d,rev?*%
%TF.SameCoordinates,Original*%
%TF.FileFunction,Drillmap*%
%TF.FilePolarity,Positive*%
%FSLAX45Y45*%
G04 Gerber Fmt 4.5, Leading zero omitted, Abs format (unit mm)*
G04 Created by KiCad (PCBNEW 8.0.2) date 2024-11-03 01:22:41*
%MOMM*%
%LPD*%
G01*
G04 APERTURE LIST*
%ADD10C,0.050000*%
%ADD11C,0.200000*%
%ADD12C,0.100000*%
G04 APERTURE END LIST*
D10*
X11634999Y-8935711D02*
X10165000Y-8935000D01*
X10165000Y-10215000D02*
X11635000Y-10215000D01*
X11735000Y-10115000D02*
X11734999Y-9035711D01*
X10065000Y-9035000D02*
G75*
G02*
X10165000Y-8935000I100000J0D01*
G01*
X10065000Y-9035000D02*
X10065000Y-10115000D01*
X10165000Y-10215000D02*
G75*
G02*
X10065000Y-10115000I0J100000D01*
G01*
X11634999Y-8935711D02*
G75*
G02*
X11734999Y-9035711I1J-99999D01*
G01*
X11735000Y-10115000D02*
G75*
G02*
X11635000Y-10215000I-100000J0D01*
G01*
D11*
D12*
X10555000Y-9960000D02*
X10585000Y-9990000D01*
X10585000Y-9960000D02*
X10555000Y-9990000D01*
X10792043Y-9856168D02*
X10822043Y-9886168D01*
X10822043Y-9856168D02*
X10792043Y-9886168D01*
X10954918Y-9851827D02*
X10984918Y-9881827D01*
X10984918Y-9851827D02*
X10954918Y-9881827D01*
X11002307Y-9800307D02*
X11032307Y-9830307D01*
X11032307Y-9800307D02*
X11002307Y-9830307D01*
X11530000Y-9565000D02*
X11560000Y-9595000D01*
X11560000Y-9565000D02*
X11530000Y-9595000D01*
X10625000Y-9580000D02*
G75*
G02*
X10585000Y-9580000I-20000J0D01*
G01*
X10585000Y-9580000D02*
G75*
G02*
X10625000Y-9580000I20000J0D01*
G01*
X10749697Y-9765154D02*
G75*
G02*
X10709697Y-9765154I-20000J0D01*
G01*
X10709697Y-9765154D02*
G75*
G02*
X10749697Y-9765154I20000J0D01*
G01*
X10895260Y-9740000D02*
G75*
G02*
X10855260Y-9740000I-20000J0D01*
G01*
X10855260Y-9740000D02*
G75*
G02*
X10895260Y-9740000I20000J0D01*
G01*
X10907218Y-9868843D02*
G75*
G02*
X10867218Y-9868843I-20000J0D01*
G01*
X10867218Y-9868843D02*
G75*
G02*
X10907218Y-9868843I20000J0D01*
G01*
X11356884Y-9820775D02*
G75*
G02*
X11316884Y-9820775I-20000J0D01*
G01*
X11316884Y-9820775D02*
G75*
G02*
X11356884Y-9820775I20000J0D01*
G01*
X10600500Y-9412500D02*
X10600500Y-9487500D01*
X10563000Y-9450000D02*
X10638000Y-9450000D01*
X10750500Y-9412500D02*
X10750500Y-9487500D01*
X10713000Y-9450000D02*
X10788000Y-9450000D01*
X10900500Y-9412500D02*
X10900500Y-9487500D01*
X10863000Y-9450000D02*
X10938000Y-9450000D01*
X11050500Y-9412500D02*
X11050500Y-9487500D01*
X11013000Y-9450000D02*
X11088000Y-9450000D01*
X11200500Y-9412500D02*
X11200500Y-9487500D01*
X11163000Y-9450000D02*
X11238000Y-9450000D01*
X10426856Y-9200356D02*
X10426856Y-9129644D01*
X10356144Y-9129644D01*
X10356144Y-9200356D01*
X10426856Y-9200356D01*
X10680856Y-9200356D02*
X10680856Y-9129644D01*
X10610144Y-9129644D01*
X10610144Y-9200356D01*
X10680856Y-9200356D01*
X10934856Y-9200356D02*
X10934856Y-9129644D01*
X10864144Y-9129644D01*
X10864144Y-9200356D01*
X10934856Y-9200356D01*
X11188856Y-9200356D02*
X11188856Y-9129644D01*
X11118144Y-9129644D01*
X11118144Y-9200356D01*
X11188856Y-9200356D01*
X11442856Y-9200356D02*
X11442856Y-9129644D01*
X11372144Y-9129644D01*
X11372144Y-9200356D01*
X11442856Y-9200356D01*
D11*
X10323277Y-10528984D02*
X10323277Y-10328984D01*
X10323277Y-10328984D02*
X10370896Y-10328984D01*
X10370896Y-10328984D02*
X10399467Y-10338508D01*
X10399467Y-10338508D02*
X10418515Y-10357555D01*
X10418515Y-10357555D02*
X10428039Y-10376603D01*
X10428039Y-10376603D02*
X10437563Y-10414698D01*
X10437563Y-10414698D02*
X10437563Y-10443270D01*
X10437563Y-10443270D02*
X10428039Y-10481365D01*
X10428039Y-10481365D02*
X10418515Y-10500412D01*
X10418515Y-10500412D02*
X10399467Y-10519460D01*
X10399467Y-10519460D02*
X10370896Y-10528984D01*
X10370896Y-10528984D02*
X10323277Y-10528984D01*
X10523277Y-10528984D02*
X10523277Y-10395650D01*
X10523277Y-10433746D02*
X10532801Y-10414698D01*
X10532801Y-10414698D02*
X10542324Y-10405174D01*
X10542324Y-10405174D02*
X10561372Y-10395650D01*
X10561372Y-10395650D02*
X10580420Y-10395650D01*
X10647086Y-10528984D02*
X10647086Y-10395650D01*
X10647086Y-10328984D02*
X10637563Y-10338508D01*
X10637563Y-10338508D02*
X10647086Y-10348031D01*
X10647086Y-10348031D02*
X10656610Y-10338508D01*
X10656610Y-10338508D02*
X10647086Y-10328984D01*
X10647086Y-10328984D02*
X10647086Y-10348031D01*
X10770896Y-10528984D02*
X10751848Y-10519460D01*
X10751848Y-10519460D02*
X10742324Y-10500412D01*
X10742324Y-10500412D02*
X10742324Y-10328984D01*
X10875658Y-10528984D02*
X10856610Y-10519460D01*
X10856610Y-10519460D02*
X10847086Y-10500412D01*
X10847086Y-10500412D02*
X10847086Y-10328984D01*
X11104229Y-10528984D02*
X11104229Y-10328984D01*
X11104229Y-10328984D02*
X11170896Y-10471841D01*
X11170896Y-10471841D02*
X11237562Y-10328984D01*
X11237562Y-10328984D02*
X11237562Y-10528984D01*
X11418515Y-10528984D02*
X11418515Y-10424222D01*
X11418515Y-10424222D02*
X11408991Y-10405174D01*
X11408991Y-10405174D02*
X11389943Y-10395650D01*
X11389943Y-10395650D02*
X11351848Y-10395650D01*
X11351848Y-10395650D02*
X11332801Y-10405174D01*
X11418515Y-10519460D02*
X11399467Y-10528984D01*
X11399467Y-10528984D02*
X11351848Y-10528984D01*
X11351848Y-10528984D02*
X11332801Y-10519460D01*
X11332801Y-10519460D02*
X11323277Y-10500412D01*
X11323277Y-10500412D02*
X11323277Y-10481365D01*
X11323277Y-10481365D02*
X11332801Y-10462317D01*
X11332801Y-10462317D02*
X11351848Y-10452793D01*
X11351848Y-10452793D02*
X11399467Y-10452793D01*
X11399467Y-10452793D02*
X11418515Y-10443270D01*
X11513753Y-10395650D02*
X11513753Y-10595650D01*
X11513753Y-10405174D02*
X11532801Y-10395650D01*
X11532801Y-10395650D02*
X11570896Y-10395650D01*
X11570896Y-10395650D02*
X11589943Y-10405174D01*
X11589943Y-10405174D02*
X11599467Y-10414698D01*
X11599467Y-10414698D02*
X11608991Y-10433746D01*
X11608991Y-10433746D02*
X11608991Y-10490889D01*
X11608991Y-10490889D02*
X11599467Y-10509936D01*
X11599467Y-10509936D02*
X11589943Y-10519460D01*
X11589943Y-10519460D02*
X11570896Y-10528984D01*
X11570896Y-10528984D02*
X11532801Y-10528984D01*
X11532801Y-10528984D02*
X11513753Y-10519460D01*
X11694705Y-10509936D02*
X11704229Y-10519460D01*
X11704229Y-10519460D02*
X11694705Y-10528984D01*
X11694705Y-10528984D02*
X11685182Y-10519460D01*
X11685182Y-10519460D02*
X11694705Y-10509936D01*
X11694705Y-10509936D02*
X11694705Y-10528984D01*
X11694705Y-10405174D02*
X11704229Y-10414698D01*
X11704229Y-10414698D02*
X11694705Y-10424222D01*
X11694705Y-10424222D02*
X11685182Y-10414698D01*
X11685182Y-10414698D02*
X11694705Y-10405174D01*
X11694705Y-10405174D02*
X11694705Y-10424222D01*
D12*
X10032500Y-10842500D02*
X10062500Y-10872500D01*
X10062500Y-10842500D02*
X10032500Y-10872500D01*
D11*
X10361372Y-10748984D02*
X10380420Y-10748984D01*
X10380420Y-10748984D02*
X10399467Y-10758508D01*
X10399467Y-10758508D02*
X10408991Y-10768031D01*
X10408991Y-10768031D02*
X10418515Y-10787079D01*
X10418515Y-10787079D02*
X10428039Y-10825174D01*
X10428039Y-10825174D02*
X10428039Y-10872793D01*
X10428039Y-10872793D02*
X10418515Y-10910889D01*
X10418515Y-10910889D02*
X10408991Y-10929936D01*
X10408991Y-10929936D02*
X10399467Y-10939460D01*
X10399467Y-10939460D02*
X10380420Y-10948984D01*
X10380420Y-10948984D02*
X10361372Y-10948984D01*
X10361372Y-10948984D02*
X10342324Y-10939460D01*
X10342324Y-10939460D02*
X10332801Y-10929936D01*
X10332801Y-10929936D02*
X10323277Y-10910889D01*
X10323277Y-10910889D02*
X10313753Y-10872793D01*
X10313753Y-10872793D02*
X10313753Y-10825174D01*
X10313753Y-10825174D02*
X10323277Y-10787079D01*
X10323277Y-10787079D02*
X10332801Y-10768031D01*
X10332801Y-10768031D02*
X10342324Y-10758508D01*
X10342324Y-10758508D02*
X10361372Y-10748984D01*
X10513753Y-10929936D02*
X10523277Y-10939460D01*
X10523277Y-10939460D02*
X10513753Y-10948984D01*
X10513753Y-10948984D02*
X10504229Y-10939460D01*
X10504229Y-10939460D02*
X10513753Y-10929936D01*
X10513753Y-10929936D02*
X10513753Y-10948984D01*
X10589944Y-10748984D02*
X10713753Y-10748984D01*
X10713753Y-10748984D02*
X10647086Y-10825174D01*
X10647086Y-10825174D02*
X10675658Y-10825174D01*
X10675658Y-10825174D02*
X10694705Y-10834698D01*
X10694705Y-10834698D02*
X10704229Y-10844222D01*
X10704229Y-10844222D02*
X10713753Y-10863270D01*
X10713753Y-10863270D02*
X10713753Y-10910889D01*
X10713753Y-10910889D02*
X10704229Y-10929936D01*
X10704229Y-10929936D02*
X10694705Y-10939460D01*
X10694705Y-10939460D02*
X10675658Y-10948984D01*
X10675658Y-10948984D02*
X10618515Y-10948984D01*
X10618515Y-10948984D02*
X10599467Y-10939460D01*
X10599467Y-10939460D02*
X10589944Y-10929936D01*
X10837563Y-10748984D02*
X10856610Y-10748984D01*
X10856610Y-10748984D02*
X10875658Y-10758508D01*
X10875658Y-10758508D02*
X10885182Y-10768031D01*
X10885182Y-10768031D02*
X10894705Y-10787079D01*
X10894705Y-10787079D02*
X10904229Y-10825174D01*
X10904229Y-10825174D02*
X10904229Y-10872793D01*
X10904229Y-10872793D02*
X10894705Y-10910889D01*
X10894705Y-10910889D02*
X10885182Y-10929936D01*
X10885182Y-10929936D02*
X10875658Y-10939460D01*
X10875658Y-10939460D02*
X10856610Y-10948984D01*
X10856610Y-10948984D02*
X10837563Y-10948984D01*
X10837563Y-10948984D02*
X10818515Y-10939460D01*
X10818515Y-10939460D02*
X10808991Y-10929936D01*
X10808991Y-10929936D02*
X10799467Y-10910889D01*
X10799467Y-10910889D02*
X10789944Y-10872793D01*
X10789944Y-10872793D02*
X10789944Y-10825174D01*
X10789944Y-10825174D02*
X10799467Y-10787079D01*
X10799467Y-10787079D02*
X10808991Y-10768031D01*
X10808991Y-10768031D02*
X10818515Y-10758508D01*
X10818515Y-10758508D02*
X10837563Y-10748984D01*
X11028039Y-10748984D02*
X11047086Y-10748984D01*
X11047086Y-10748984D02*
X11066134Y-10758508D01*
X11066134Y-10758508D02*
X11075658Y-10768031D01*
X11075658Y-10768031D02*
X11085182Y-10787079D01*
X11085182Y-10787079D02*
X11094705Y-10825174D01*
X11094705Y-10825174D02*
X11094705Y-10872793D01*
X11094705Y-10872793D02*
X11085182Y-10910889D01*
X11085182Y-10910889D02*
X11075658Y-10929936D01*
X11075658Y-10929936D02*
X11066134Y-10939460D01*
X11066134Y-10939460D02*
X11047086Y-10948984D01*
X11047086Y-10948984D02*
X11028039Y-10948984D01*
X11028039Y-10948984D02*
X11008991Y-10939460D01*
X11008991Y-10939460D02*
X10999467Y-10929936D01*
X10999467Y-10929936D02*
X10989944Y-10910889D01*
X10989944Y-10910889D02*
X10980420Y-10872793D01*
X10980420Y-10872793D02*
X10980420Y-10825174D01*
X10980420Y-10825174D02*
X10989944Y-10787079D01*
X10989944Y-10787079D02*
X10999467Y-10768031D01*
X10999467Y-10768031D02*
X11008991Y-10758508D01*
X11008991Y-10758508D02*
X11028039Y-10748984D01*
X11180420Y-10948984D02*
X11180420Y-10815650D01*
X11180420Y-10834698D02*
X11189943Y-10825174D01*
X11189943Y-10825174D02*
X11208991Y-10815650D01*
X11208991Y-10815650D02*
X11237563Y-10815650D01*
X11237563Y-10815650D02*
X11256610Y-10825174D01*
X11256610Y-10825174D02*
X11266134Y-10844222D01*
X11266134Y-10844222D02*
X11266134Y-10948984D01*
X11266134Y-10844222D02*
X11275658Y-10825174D01*
X11275658Y-10825174D02*
X11294705Y-10815650D01*
X11294705Y-10815650D02*
X11323277Y-10815650D01*
X11323277Y-10815650D02*
X11342324Y-10825174D01*
X11342324Y-10825174D02*
X11351848Y-10844222D01*
X11351848Y-10844222D02*
X11351848Y-10948984D01*
X11447086Y-10948984D02*
X11447086Y-10815650D01*
X11447086Y-10834698D02*
X11456610Y-10825174D01*
X11456610Y-10825174D02*
X11475658Y-10815650D01*
X11475658Y-10815650D02*
X11504229Y-10815650D01*
X11504229Y-10815650D02*
X11523277Y-10825174D01*
X11523277Y-10825174D02*
X11532801Y-10844222D01*
X11532801Y-10844222D02*
X11532801Y-10948984D01*
X11532801Y-10844222D02*
X11542324Y-10825174D01*
X11542324Y-10825174D02*
X11561372Y-10815650D01*
X11561372Y-10815650D02*
X11589943Y-10815650D01*
X11589943Y-10815650D02*
X11608991Y-10825174D01*
X11608991Y-10825174D02*
X11618515Y-10844222D01*
X11618515Y-10844222D02*
X11618515Y-10948984D01*
X12008991Y-10739460D02*
X11837563Y-10996603D01*
X12266134Y-10748984D02*
X12285182Y-10748984D01*
X12285182Y-10748984D02*
X12304229Y-10758508D01*
X12304229Y-10758508D02*
X12313753Y-10768031D01*
X12313753Y-10768031D02*
X12323277Y-10787079D01*
X12323277Y-10787079D02*
X12332801Y-10825174D01*
X12332801Y-10825174D02*
X12332801Y-10872793D01*
X12332801Y-10872793D02*
X12323277Y-10910889D01*
X12323277Y-10910889D02*
X12313753Y-10929936D01*
X12313753Y-10929936D02*
X12304229Y-10939460D01*
X12304229Y-10939460D02*
X12285182Y-10948984D01*
X12285182Y-10948984D02*
X12266134Y-10948984D01*
X12266134Y-10948984D02*
X12247086Y-10939460D01*
X12247086Y-10939460D02*
X12237563Y-10929936D01*
X12237563Y-10929936D02*
X12228039Y-10910889D01*
X12228039Y-10910889D02*
X12218515Y-10872793D01*
X12218515Y-10872793D02*
X12218515Y-10825174D01*
X12218515Y-10825174D02*
X12228039Y-10787079D01*
X12228039Y-10787079D02*
X12237563Y-10768031D01*
X12237563Y-10768031D02*
X12247086Y-10758508D01*
X12247086Y-10758508D02*
X12266134Y-10748984D01*
X12418515Y-10929936D02*
X12428039Y-10939460D01*
X12428039Y-10939460D02*
X12418515Y-10948984D01*
X12418515Y-10948984D02*
X12408991Y-10939460D01*
X12408991Y-10939460D02*
X12418515Y-10929936D01*
X12418515Y-10929936D02*
X12418515Y-10948984D01*
X12551848Y-10748984D02*
X12570896Y-10748984D01*
X12570896Y-10748984D02*
X12589944Y-10758508D01*
X12589944Y-10758508D02*
X12599467Y-10768031D01*
X12599467Y-10768031D02*
X12608991Y-10787079D01*
X12608991Y-10787079D02*
X12618515Y-10825174D01*
X12618515Y-10825174D02*
X12618515Y-10872793D01*
X12618515Y-10872793D02*
X12608991Y-10910889D01*
X12608991Y-10910889D02*
X12599467Y-10929936D01*
X12599467Y-10929936D02*
X12589944Y-10939460D01*
X12589944Y-10939460D02*
X12570896Y-10948984D01*
X12570896Y-10948984D02*
X12551848Y-10948984D01*
X12551848Y-10948984D02*
X12532801Y-10939460D01*
X12532801Y-10939460D02*
X12523277Y-10929936D01*
X12523277Y-10929936D02*
X12513753Y-10910889D01*
X12513753Y-10910889D02*
X12504229Y-10872793D01*
X12504229Y-10872793D02*
X12504229Y-10825174D01*
X12504229Y-10825174D02*
X12513753Y-10787079D01*
X12513753Y-10787079D02*
X12523277Y-10768031D01*
X12523277Y-10768031D02*
X12532801Y-10758508D01*
X12532801Y-10758508D02*
X12551848Y-10748984D01*
X12808991Y-10948984D02*
X12694706Y-10948984D01*
X12751848Y-10948984D02*
X12751848Y-10748984D01*
X12751848Y-10748984D02*
X12732801Y-10777555D01*
X12732801Y-10777555D02*
X12713753Y-10796603D01*
X12713753Y-10796603D02*
X12694706Y-10806127D01*
X12999467Y-10948984D02*
X12885182Y-10948984D01*
X12942325Y-10948984D02*
X12942325Y-10748984D01*
X12942325Y-10748984D02*
X12923277Y-10777555D01*
X12923277Y-10777555D02*
X12904229Y-10796603D01*
X12904229Y-10796603D02*
X12885182Y-10806127D01*
X13113753Y-10834698D02*
X13094706Y-10825174D01*
X13094706Y-10825174D02*
X13085182Y-10815650D01*
X13085182Y-10815650D02*
X13075658Y-10796603D01*
X13075658Y-10796603D02*
X13075658Y-10787079D01*
X13075658Y-10787079D02*
X13085182Y-10768031D01*
X13085182Y-10768031D02*
X13094706Y-10758508D01*
X13094706Y-10758508D02*
X13113753Y-10748984D01*
X13113753Y-10748984D02*
X13151848Y-10748984D01*
X13151848Y-10748984D02*
X13170896Y-10758508D01*
X13170896Y-10758508D02*
X13180420Y-10768031D01*
X13180420Y-10768031D02*
X13189944Y-10787079D01*
X13189944Y-10787079D02*
X13189944Y-10796603D01*
X13189944Y-10796603D02*
X13180420Y-10815650D01*
X13180420Y-10815650D02*
X13170896Y-10825174D01*
X13170896Y-10825174D02*
X13151848Y-10834698D01*
X13151848Y-10834698D02*
X13113753Y-10834698D01*
X13113753Y-10834698D02*
X13094706Y-10844222D01*
X13094706Y-10844222D02*
X13085182Y-10853746D01*
X13085182Y-10853746D02*
X13075658Y-10872793D01*
X13075658Y-10872793D02*
X13075658Y-10910889D01*
X13075658Y-10910889D02*
X13085182Y-10929936D01*
X13085182Y-10929936D02*
X13094706Y-10939460D01*
X13094706Y-10939460D02*
X13113753Y-10948984D01*
X13113753Y-10948984D02*
X13151848Y-10948984D01*
X13151848Y-10948984D02*
X13170896Y-10939460D01*
X13170896Y-10939460D02*
X13180420Y-10929936D01*
X13180420Y-10929936D02*
X13189944Y-10910889D01*
X13189944Y-10910889D02*
X13189944Y-10872793D01*
X13189944Y-10872793D02*
X13180420Y-10853746D01*
X13180420Y-10853746D02*
X13170896Y-10844222D01*
X13170896Y-10844222D02*
X13151848Y-10834698D01*
X13266134Y-10748984D02*
X13266134Y-10787079D01*
X13342325Y-10748984D02*
X13342325Y-10787079D01*
X13637563Y-11025174D02*
X13628039Y-11015650D01*
X13628039Y-11015650D02*
X13608991Y-10987079D01*
X13608991Y-10987079D02*
X13599468Y-10968031D01*
X13599468Y-10968031D02*
X13589944Y-10939460D01*
X13589944Y-10939460D02*
X13580420Y-10891841D01*
X13580420Y-10891841D02*
X13580420Y-10853746D01*
X13580420Y-10853746D02*
X13589944Y-10806127D01*
X13589944Y-10806127D02*
X13599468Y-10777555D01*
X13599468Y-10777555D02*
X13608991Y-10758508D01*
X13608991Y-10758508D02*
X13628039Y-10729936D01*
X13628039Y-10729936D02*
X13637563Y-10720412D01*
X13808991Y-10748984D02*
X13713753Y-10748984D01*
X13713753Y-10748984D02*
X13704229Y-10844222D01*
X13704229Y-10844222D02*
X13713753Y-10834698D01*
X13713753Y-10834698D02*
X13732801Y-10825174D01*
X13732801Y-10825174D02*
X13780420Y-10825174D01*
X13780420Y-10825174D02*
X13799468Y-10834698D01*
X13799468Y-10834698D02*
X13808991Y-10844222D01*
X13808991Y-10844222D02*
X13818515Y-10863270D01*
X13818515Y-10863270D02*
X13818515Y-10910889D01*
X13818515Y-10910889D02*
X13808991Y-10929936D01*
X13808991Y-10929936D02*
X13799468Y-10939460D01*
X13799468Y-10939460D02*
X13780420Y-10948984D01*
X13780420Y-10948984D02*
X13732801Y-10948984D01*
X13732801Y-10948984D02*
X13713753Y-10939460D01*
X13713753Y-10939460D02*
X13704229Y-10929936D01*
X14056610Y-10948984D02*
X14056610Y-10748984D01*
X14142325Y-10948984D02*
X14142325Y-10844222D01*
X14142325Y-10844222D02*
X14132801Y-10825174D01*
X14132801Y-10825174D02*
X14113753Y-10815650D01*
X14113753Y-10815650D02*
X14085182Y-10815650D01*
X14085182Y-10815650D02*
X14066134Y-10825174D01*
X14066134Y-10825174D02*
X14056610Y-10834698D01*
X14266134Y-10948984D02*
X14247087Y-10939460D01*
X14247087Y-10939460D02*
X14237563Y-10929936D01*
X14237563Y-10929936D02*
X14228039Y-10910889D01*
X14228039Y-10910889D02*
X14228039Y-10853746D01*
X14228039Y-10853746D02*
X14237563Y-10834698D01*
X14237563Y-10834698D02*
X14247087Y-10825174D01*
X14247087Y-10825174D02*
X14266134Y-10815650D01*
X14266134Y-10815650D02*
X14294706Y-10815650D01*
X14294706Y-10815650D02*
X14313753Y-10825174D01*
X14313753Y-10825174D02*
X14323277Y-10834698D01*
X14323277Y-10834698D02*
X14332801Y-10853746D01*
X14332801Y-10853746D02*
X14332801Y-10910889D01*
X14332801Y-10910889D02*
X14323277Y-10929936D01*
X14323277Y-10929936D02*
X14313753Y-10939460D01*
X14313753Y-10939460D02*
X14294706Y-10948984D01*
X14294706Y-10948984D02*
X14266134Y-10948984D01*
X14447087Y-10948984D02*
X14428039Y-10939460D01*
X14428039Y-10939460D02*
X14418515Y-10920412D01*
X14418515Y-10920412D02*
X14418515Y-10748984D01*
X14599468Y-10939460D02*
X14580420Y-10948984D01*
X14580420Y-10948984D02*
X14542325Y-10948984D01*
X14542325Y-10948984D02*
X14523277Y-10939460D01*
X14523277Y-10939460D02*
X14513753Y-10920412D01*
X14513753Y-10920412D02*
X14513753Y-10844222D01*
X14513753Y-10844222D02*
X14523277Y-10825174D01*
X14523277Y-10825174D02*
X14542325Y-10815650D01*
X14542325Y-10815650D02*
X14580420Y-10815650D01*
X14580420Y-10815650D02*
X14599468Y-10825174D01*
X14599468Y-10825174D02*
X14608991Y-10844222D01*
X14608991Y-10844222D02*
X14608991Y-10863270D01*
X14608991Y-10863270D02*
X14513753Y-10882317D01*
X14685182Y-10939460D02*
X14704230Y-10948984D01*
X14704230Y-10948984D02*
X14742325Y-10948984D01*
X14742325Y-10948984D02*
X14761372Y-10939460D01*
X14761372Y-10939460D02*
X14770896Y-10920412D01*
X14770896Y-10920412D02*
X14770896Y-10910889D01*
X14770896Y-10910889D02*
X14761372Y-10891841D01*
X14761372Y-10891841D02*
X14742325Y-10882317D01*
X14742325Y-10882317D02*
X14713753Y-10882317D01*
X14713753Y-10882317D02*
X14694706Y-10872793D01*
X14694706Y-10872793D02*
X14685182Y-10853746D01*
X14685182Y-10853746D02*
X14685182Y-10844222D01*
X14685182Y-10844222D02*
X14694706Y-10825174D01*
X14694706Y-10825174D02*
X14713753Y-10815650D01*
X14713753Y-10815650D02*
X14742325Y-10815650D01*
X14742325Y-10815650D02*
X14761372Y-10825174D01*
X14837563Y-11025174D02*
X14847087Y-11015650D01*
X14847087Y-11015650D02*
X14866134Y-10987079D01*
X14866134Y-10987079D02*
X14875658Y-10968031D01*
X14875658Y-10968031D02*
X14885182Y-10939460D01*
X14885182Y-10939460D02*
X14894706Y-10891841D01*
X14894706Y-10891841D02*
X14894706Y-10853746D01*
X14894706Y-10853746D02*
X14885182Y-10806127D01*
X14885182Y-10806127D02*
X14875658Y-10777555D01*
X14875658Y-10777555D02*
X14866134Y-10758508D01*
X14866134Y-10758508D02*
X14847087Y-10729936D01*
X14847087Y-10729936D02*
X14837563Y-10720412D01*
D12*
X10062500Y-11121500D02*
G75*
G02*
X10022500Y-11121500I-20000J0D01*
G01*
X10022500Y-11121500D02*
G75*
G02*
X10062500Y-11121500I20000J0D01*
G01*
D11*
X10361372Y-11012984D02*
X10380420Y-11012984D01*
X10380420Y-11012984D02*
X10399467Y-11022508D01*
X10399467Y-11022508D02*
X10408991Y-11032031D01*
X10408991Y-11032031D02*
X10418515Y-11051079D01*
X10418515Y-11051079D02*
X10428039Y-11089174D01*
X10428039Y-11089174D02*
X10428039Y-11136793D01*
X10428039Y-11136793D02*
X10418515Y-11174889D01*
X10418515Y-11174889D02*
X10408991Y-11193936D01*
X10408991Y-11193936D02*
X10399467Y-11203460D01*
X10399467Y-11203460D02*
X10380420Y-11212984D01*
X10380420Y-11212984D02*
X10361372Y-11212984D01*
X10361372Y-11212984D02*
X10342324Y-11203460D01*
X10342324Y-11203460D02*
X10332801Y-11193936D01*
X10332801Y-11193936D02*
X10323277Y-11174889D01*
X10323277Y-11174889D02*
X10313753Y-11136793D01*
X10313753Y-11136793D02*
X10313753Y-11089174D01*
X10313753Y-11089174D02*
X10323277Y-11051079D01*
X10323277Y-11051079D02*
X10332801Y-11032031D01*
X10332801Y-11032031D02*
X10342324Y-11022508D01*
X10342324Y-11022508D02*
X10361372Y-11012984D01*
X10513753Y-11193936D02*
X10523277Y-11203460D01*
X10523277Y-11203460D02*
X10513753Y-11212984D01*
X10513753Y-11212984D02*
X10504229Y-11203460D01*
X10504229Y-11203460D02*
X10513753Y-11193936D01*
X10513753Y-11193936D02*
X10513753Y-11212984D01*
X10694705Y-11079650D02*
X10694705Y-11212984D01*
X10647086Y-11003460D02*
X10599467Y-11146317D01*
X10599467Y-11146317D02*
X10723277Y-11146317D01*
X10837563Y-11012984D02*
X10856610Y-11012984D01*
X10856610Y-11012984D02*
X10875658Y-11022508D01*
X10875658Y-11022508D02*
X10885182Y-11032031D01*
X10885182Y-11032031D02*
X10894705Y-11051079D01*
X10894705Y-11051079D02*
X10904229Y-11089174D01*
X10904229Y-11089174D02*
X10904229Y-11136793D01*
X10904229Y-11136793D02*
X10894705Y-11174889D01*
X10894705Y-11174889D02*
X10885182Y-11193936D01*
X10885182Y-11193936D02*
X10875658Y-11203460D01*
X10875658Y-11203460D02*
X10856610Y-11212984D01*
X10856610Y-11212984D02*
X10837563Y-11212984D01*
X10837563Y-11212984D02*
X10818515Y-11203460D01*
X10818515Y-11203460D02*
X10808991Y-11193936D01*
X10808991Y-11193936D02*
X10799467Y-11174889D01*
X10799467Y-11174889D02*
X10789944Y-11136793D01*
X10789944Y-11136793D02*
X10789944Y-11089174D01*
X10789944Y-11089174D02*
X10799467Y-11051079D01*
X10799467Y-11051079D02*
X10808991Y-11032031D01*
X10808991Y-11032031D02*
X10818515Y-11022508D01*
X10818515Y-11022508D02*
X10837563Y-11012984D01*
X11028039Y-11012984D02*
X11047086Y-11012984D01*
X11047086Y-11012984D02*
X11066134Y-11022508D01*
X11066134Y-11022508D02*
X11075658Y-11032031D01*
X11075658Y-11032031D02*
X11085182Y-11051079D01*
X11085182Y-11051079D02*
X11094705Y-11089174D01*
X11094705Y-11089174D02*
X11094705Y-11136793D01*
X11094705Y-11136793D02*
X11085182Y-11174889D01*
X11085182Y-11174889D02*
X11075658Y-11193936D01*
X11075658Y-11193936D02*
X11066134Y-11203460D01*
X11066134Y-11203460D02*
X11047086Y-11212984D01*
X11047086Y-11212984D02*
X11028039Y-11212984D01*
X11028039Y-11212984D02*
X11008991Y-11203460D01*
X11008991Y-11203460D02*
X10999467Y-11193936D01*
X10999467Y-11193936D02*
X10989944Y-11174889D01*
X10989944Y-11174889D02*
X10980420Y-11136793D01*
X10980420Y-11136793D02*
X10980420Y-11089174D01*
X10980420Y-11089174D02*
X10989944Y-11051079D01*
X10989944Y-11051079D02*
X10999467Y-11032031D01*
X10999467Y-11032031D02*
X11008991Y-11022508D01*
X11008991Y-11022508D02*
X11028039Y-11012984D01*
X11180420Y-11212984D02*
X11180420Y-11079650D01*
X11180420Y-11098698D02*
X11189943Y-11089174D01*
X11189943Y-11089174D02*
X11208991Y-11079650D01*
X11208991Y-11079650D02*
X11237563Y-11079650D01*
X11237563Y-11079650D02*
X11256610Y-11089174D01*
X11256610Y-11089174D02*
X11266134Y-11108222D01*
X11266134Y-11108222D02*
X11266134Y-11212984D01*
X11266134Y-11108222D02*
X11275658Y-11089174D01*
X11275658Y-11089174D02*
X11294705Y-11079650D01*
X11294705Y-11079650D02*
X11323277Y-11079650D01*
X11323277Y-11079650D02*
X11342324Y-11089174D01*
X11342324Y-11089174D02*
X11351848Y-11108222D01*
X11351848Y-11108222D02*
X11351848Y-11212984D01*
X11447086Y-11212984D02*
X11447086Y-11079650D01*
X11447086Y-11098698D02*
X11456610Y-11089174D01*
X11456610Y-11089174D02*
X11475658Y-11079650D01*
X11475658Y-11079650D02*
X11504229Y-11079650D01*
X11504229Y-11079650D02*
X11523277Y-11089174D01*
X11523277Y-11089174D02*
X11532801Y-11108222D01*
X11532801Y-11108222D02*
X11532801Y-11212984D01*
X11532801Y-11108222D02*
X11542324Y-11089174D01*
X11542324Y-11089174D02*
X11561372Y-11079650D01*
X11561372Y-11079650D02*
X11589943Y-11079650D01*
X11589943Y-11079650D02*
X11608991Y-11089174D01*
X11608991Y-11089174D02*
X11618515Y-11108222D01*
X11618515Y-11108222D02*
X11618515Y-11212984D01*
X12008991Y-11003460D02*
X11837563Y-11260603D01*
X12266134Y-11012984D02*
X12285182Y-11012984D01*
X12285182Y-11012984D02*
X12304229Y-11022508D01*
X12304229Y-11022508D02*
X12313753Y-11032031D01*
X12313753Y-11032031D02*
X12323277Y-11051079D01*
X12323277Y-11051079D02*
X12332801Y-11089174D01*
X12332801Y-11089174D02*
X12332801Y-11136793D01*
X12332801Y-11136793D02*
X12323277Y-11174889D01*
X12323277Y-11174889D02*
X12313753Y-11193936D01*
X12313753Y-11193936D02*
X12304229Y-11203460D01*
X12304229Y-11203460D02*
X12285182Y-11212984D01*
X12285182Y-11212984D02*
X12266134Y-11212984D01*
X12266134Y-11212984D02*
X12247086Y-11203460D01*
X12247086Y-11203460D02*
X12237563Y-11193936D01*
X12237563Y-11193936D02*
X12228039Y-11174889D01*
X12228039Y-11174889D02*
X12218515Y-11136793D01*
X12218515Y-11136793D02*
X12218515Y-11089174D01*
X12218515Y-11089174D02*
X12228039Y-11051079D01*
X12228039Y-11051079D02*
X12237563Y-11032031D01*
X12237563Y-11032031D02*
X12247086Y-11022508D01*
X12247086Y-11022508D02*
X12266134Y-11012984D01*
X12418515Y-11193936D02*
X12428039Y-11203460D01*
X12428039Y-11203460D02*
X12418515Y-11212984D01*
X12418515Y-11212984D02*
X12408991Y-11203460D01*
X12408991Y-11203460D02*
X12418515Y-11193936D01*
X12418515Y-11193936D02*
X12418515Y-11212984D01*
X12551848Y-11012984D02*
X12570896Y-11012984D01*
X12570896Y-11012984D02*
X12589944Y-11022508D01*
X12589944Y-11022508D02*
X12599467Y-11032031D01*
X12599467Y-11032031D02*
X12608991Y-11051079D01*
X12608991Y-11051079D02*
X12618515Y-11089174D01*
X12618515Y-11089174D02*
X12618515Y-11136793D01*
X12618515Y-11136793D02*
X12608991Y-11174889D01*
X12608991Y-11174889D02*
X12599467Y-11193936D01*
X12599467Y-11193936D02*
X12589944Y-11203460D01*
X12589944Y-11203460D02*
X12570896Y-11212984D01*
X12570896Y-11212984D02*
X12551848Y-11212984D01*
X12551848Y-11212984D02*
X12532801Y-11203460D01*
X12532801Y-11203460D02*
X12523277Y-11193936D01*
X12523277Y-11193936D02*
X12513753Y-11174889D01*
X12513753Y-11174889D02*
X12504229Y-11136793D01*
X12504229Y-11136793D02*
X12504229Y-11089174D01*
X12504229Y-11089174D02*
X12513753Y-11051079D01*
X12513753Y-11051079D02*
X12523277Y-11032031D01*
X12523277Y-11032031D02*
X12532801Y-11022508D01*
X12532801Y-11022508D02*
X12551848Y-11012984D01*
X12808991Y-11212984D02*
X12694706Y-11212984D01*
X12751848Y-11212984D02*
X12751848Y-11012984D01*
X12751848Y-11012984D02*
X12732801Y-11041555D01*
X12732801Y-11041555D02*
X12713753Y-11060603D01*
X12713753Y-11060603D02*
X12694706Y-11070127D01*
X12989944Y-11012984D02*
X12894706Y-11012984D01*
X12894706Y-11012984D02*
X12885182Y-11108222D01*
X12885182Y-11108222D02*
X12894706Y-11098698D01*
X12894706Y-11098698D02*
X12913753Y-11089174D01*
X12913753Y-11089174D02*
X12961372Y-11089174D01*
X12961372Y-11089174D02*
X12980420Y-11098698D01*
X12980420Y-11098698D02*
X12989944Y-11108222D01*
X12989944Y-11108222D02*
X12999467Y-11127270D01*
X12999467Y-11127270D02*
X12999467Y-11174889D01*
X12999467Y-11174889D02*
X12989944Y-11193936D01*
X12989944Y-11193936D02*
X12980420Y-11203460D01*
X12980420Y-11203460D02*
X12961372Y-11212984D01*
X12961372Y-11212984D02*
X12913753Y-11212984D01*
X12913753Y-11212984D02*
X12894706Y-11203460D01*
X12894706Y-11203460D02*
X12885182Y-11193936D01*
X13066134Y-11012984D02*
X13199467Y-11012984D01*
X13199467Y-11012984D02*
X13113753Y-11212984D01*
X13266134Y-11012984D02*
X13266134Y-11051079D01*
X13342325Y-11012984D02*
X13342325Y-11051079D01*
X13637563Y-11289174D02*
X13628039Y-11279650D01*
X13628039Y-11279650D02*
X13608991Y-11251079D01*
X13608991Y-11251079D02*
X13599468Y-11232031D01*
X13599468Y-11232031D02*
X13589944Y-11203460D01*
X13589944Y-11203460D02*
X13580420Y-11155841D01*
X13580420Y-11155841D02*
X13580420Y-11117746D01*
X13580420Y-11117746D02*
X13589944Y-11070127D01*
X13589944Y-11070127D02*
X13599468Y-11041555D01*
X13599468Y-11041555D02*
X13608991Y-11022508D01*
X13608991Y-11022508D02*
X13628039Y-10993936D01*
X13628039Y-10993936D02*
X13637563Y-10984412D01*
X13808991Y-11012984D02*
X13713753Y-11012984D01*
X13713753Y-11012984D02*
X13704229Y-11108222D01*
X13704229Y-11108222D02*
X13713753Y-11098698D01*
X13713753Y-11098698D02*
X13732801Y-11089174D01*
X13732801Y-11089174D02*
X13780420Y-11089174D01*
X13780420Y-11089174D02*
X13799468Y-11098698D01*
X13799468Y-11098698D02*
X13808991Y-11108222D01*
X13808991Y-11108222D02*
X13818515Y-11127270D01*
X13818515Y-11127270D02*
X13818515Y-11174889D01*
X13818515Y-11174889D02*
X13808991Y-11193936D01*
X13808991Y-11193936D02*
X13799468Y-11203460D01*
X13799468Y-11203460D02*
X13780420Y-11212984D01*
X13780420Y-11212984D02*
X13732801Y-11212984D01*
X13732801Y-11212984D02*
X13713753Y-11203460D01*
X13713753Y-11203460D02*
X13704229Y-11193936D01*
X14056610Y-11212984D02*
X14056610Y-11012984D01*
X14142325Y-11212984D02*
X14142325Y-11108222D01*
X14142325Y-11108222D02*
X14132801Y-11089174D01*
X14132801Y-11089174D02*
X14113753Y-11079650D01*
X14113753Y-11079650D02*
X14085182Y-11079650D01*
X14085182Y-11079650D02*
X14066134Y-11089174D01*
X14066134Y-11089174D02*
X14056610Y-11098698D01*
X14266134Y-11212984D02*
X14247087Y-11203460D01*
X14247087Y-11203460D02*
X14237563Y-11193936D01*
X14237563Y-11193936D02*
X14228039Y-11174889D01*
X14228039Y-11174889D02*
X14228039Y-11117746D01*
X14228039Y-11117746D02*
X14237563Y-11098698D01*
X14237563Y-11098698D02*
X14247087Y-11089174D01*
X14247087Y-11089174D02*
X14266134Y-11079650D01*
X14266134Y-11079650D02*
X14294706Y-11079650D01*
X14294706Y-11079650D02*
X14313753Y-11089174D01*
X14313753Y-11089174D02*
X14323277Y-11098698D01*
X14323277Y-11098698D02*
X14332801Y-11117746D01*
X14332801Y-11117746D02*
X14332801Y-11174889D01*
X14332801Y-11174889D02*
X14323277Y-11193936D01*
X14323277Y-11193936D02*
X14313753Y-11203460D01*
X14313753Y-11203460D02*
X14294706Y-11212984D01*
X14294706Y-11212984D02*
X14266134Y-11212984D01*
X14447087Y-11212984D02*
X14428039Y-11203460D01*
X14428039Y-11203460D02*
X14418515Y-11184412D01*
X14418515Y-11184412D02*
X14418515Y-11012984D01*
X14599468Y-11203460D02*
X14580420Y-11212984D01*
X14580420Y-11212984D02*
X14542325Y-11212984D01*
X14542325Y-11212984D02*
X14523277Y-11203460D01*
X14523277Y-11203460D02*
X14513753Y-11184412D01*
X14513753Y-11184412D02*
X14513753Y-11108222D01*
X14513753Y-11108222D02*
X14523277Y-11089174D01*
X14523277Y-11089174D02*
X14542325Y-11079650D01*
X14542325Y-11079650D02*
X14580420Y-11079650D01*
X14580420Y-11079650D02*
X14599468Y-11089174D01*
X14599468Y-11089174D02*
X14608991Y-11108222D01*
X14608991Y-11108222D02*
X14608991Y-11127270D01*
X14608991Y-11127270D02*
X14513753Y-11146317D01*
X14685182Y-11203460D02*
X14704230Y-11212984D01*
X14704230Y-11212984D02*
X14742325Y-11212984D01*
X14742325Y-11212984D02*
X14761372Y-11203460D01*
X14761372Y-11203460D02*
X14770896Y-11184412D01*
X14770896Y-11184412D02*
X14770896Y-11174889D01*
X14770896Y-11174889D02*
X14761372Y-11155841D01*
X14761372Y-11155841D02*
X14742325Y-11146317D01*
X14742325Y-11146317D02*
X14713753Y-11146317D01*
X14713753Y-11146317D02*
X14694706Y-11136793D01*
X14694706Y-11136793D02*
X14685182Y-11117746D01*
X14685182Y-11117746D02*
X14685182Y-11108222D01*
X14685182Y-11108222D02*
X14694706Y-11089174D01*
X14694706Y-11089174D02*
X14713753Y-11079650D01*
X14713753Y-11079650D02*
X14742325Y-11079650D01*
X14742325Y-11079650D02*
X14761372Y-11089174D01*
X14837563Y-11289174D02*
X14847087Y-11279650D01*
X14847087Y-11279650D02*
X14866134Y-11251079D01*
X14866134Y-11251079D02*
X14875658Y-11232031D01*
X14875658Y-11232031D02*
X14885182Y-11203460D01*
X14885182Y-11203460D02*
X14894706Y-11155841D01*
X14894706Y-11155841D02*
X14894706Y-11117746D01*
X14894706Y-11117746D02*
X14885182Y-11070127D01*
X14885182Y-11070127D02*
X14875658Y-11041555D01*
X14875658Y-11041555D02*
X14866134Y-11022508D01*
X14866134Y-11022508D02*
X14847087Y-10993936D01*
X14847087Y-10993936D02*
X14837563Y-10984412D01*
D12*
X10025000Y-11348000D02*
X10025000Y-11423000D01*
X9987500Y-11385500D02*
X10062500Y-11385500D01*
D11*
X10361372Y-11276984D02*
X10380420Y-11276984D01*
X10380420Y-11276984D02*
X10399467Y-11286508D01*
X10399467Y-11286508D02*
X10408991Y-11296031D01*
X10408991Y-11296031D02*
X10418515Y-11315079D01*
X10418515Y-11315079D02*
X10428039Y-11353174D01*
X10428039Y-11353174D02*
X10428039Y-11400793D01*
X10428039Y-11400793D02*
X10418515Y-11438888D01*
X10418515Y-11438888D02*
X10408991Y-11457936D01*
X10408991Y-11457936D02*
X10399467Y-11467460D01*
X10399467Y-11467460D02*
X10380420Y-11476984D01*
X10380420Y-11476984D02*
X10361372Y-11476984D01*
X10361372Y-11476984D02*
X10342324Y-11467460D01*
X10342324Y-11467460D02*
X10332801Y-11457936D01*
X10332801Y-11457936D02*
X10323277Y-11438888D01*
X10323277Y-11438888D02*
X10313753Y-11400793D01*
X10313753Y-11400793D02*
X10313753Y-11353174D01*
X10313753Y-11353174D02*
X10323277Y-11315079D01*
X10323277Y-11315079D02*
X10332801Y-11296031D01*
X10332801Y-11296031D02*
X10342324Y-11286508D01*
X10342324Y-11286508D02*
X10361372Y-11276984D01*
X10513753Y-11457936D02*
X10523277Y-11467460D01*
X10523277Y-11467460D02*
X10513753Y-11476984D01*
X10513753Y-11476984D02*
X10504229Y-11467460D01*
X10504229Y-11467460D02*
X10513753Y-11457936D01*
X10513753Y-11457936D02*
X10513753Y-11476984D01*
X10589944Y-11276984D02*
X10723277Y-11276984D01*
X10723277Y-11276984D02*
X10637563Y-11476984D01*
X10894705Y-11276984D02*
X10799467Y-11276984D01*
X10799467Y-11276984D02*
X10789944Y-11372222D01*
X10789944Y-11372222D02*
X10799467Y-11362698D01*
X10799467Y-11362698D02*
X10818515Y-11353174D01*
X10818515Y-11353174D02*
X10866134Y-11353174D01*
X10866134Y-11353174D02*
X10885182Y-11362698D01*
X10885182Y-11362698D02*
X10894705Y-11372222D01*
X10894705Y-11372222D02*
X10904229Y-11391269D01*
X10904229Y-11391269D02*
X10904229Y-11438888D01*
X10904229Y-11438888D02*
X10894705Y-11457936D01*
X10894705Y-11457936D02*
X10885182Y-11467460D01*
X10885182Y-11467460D02*
X10866134Y-11476984D01*
X10866134Y-11476984D02*
X10818515Y-11476984D01*
X10818515Y-11476984D02*
X10799467Y-11467460D01*
X10799467Y-11467460D02*
X10789944Y-11457936D01*
X11028039Y-11276984D02*
X11047086Y-11276984D01*
X11047086Y-11276984D02*
X11066134Y-11286508D01*
X11066134Y-11286508D02*
X11075658Y-11296031D01*
X11075658Y-11296031D02*
X11085182Y-11315079D01*
X11085182Y-11315079D02*
X11094705Y-11353174D01*
X11094705Y-11353174D02*
X11094705Y-11400793D01*
X11094705Y-11400793D02*
X11085182Y-11438888D01*
X11085182Y-11438888D02*
X11075658Y-11457936D01*
X11075658Y-11457936D02*
X11066134Y-11467460D01*
X11066134Y-11467460D02*
X11047086Y-11476984D01*
X11047086Y-11476984D02*
X11028039Y-11476984D01*
X11028039Y-11476984D02*
X11008991Y-11467460D01*
X11008991Y-11467460D02*
X10999467Y-11457936D01*
X10999467Y-11457936D02*
X10989944Y-11438888D01*
X10989944Y-11438888D02*
X10980420Y-11400793D01*
X10980420Y-11400793D02*
X10980420Y-11353174D01*
X10980420Y-11353174D02*
X10989944Y-11315079D01*
X10989944Y-11315079D02*
X10999467Y-11296031D01*
X10999467Y-11296031D02*
X11008991Y-11286508D01*
X11008991Y-11286508D02*
X11028039Y-11276984D01*
X11180420Y-11476984D02*
X11180420Y-11343650D01*
X11180420Y-11362698D02*
X11189943Y-11353174D01*
X11189943Y-11353174D02*
X11208991Y-11343650D01*
X11208991Y-11343650D02*
X11237563Y-11343650D01*
X11237563Y-11343650D02*
X11256610Y-11353174D01*
X11256610Y-11353174D02*
X11266134Y-11372222D01*
X11266134Y-11372222D02*
X11266134Y-11476984D01*
X11266134Y-11372222D02*
X11275658Y-11353174D01*
X11275658Y-11353174D02*
X11294705Y-11343650D01*
X11294705Y-11343650D02*
X11323277Y-11343650D01*
X11323277Y-11343650D02*
X11342324Y-11353174D01*
X11342324Y-11353174D02*
X11351848Y-11372222D01*
X11351848Y-11372222D02*
X11351848Y-11476984D01*
X11447086Y-11476984D02*
X11447086Y-11343650D01*
X11447086Y-11362698D02*
X11456610Y-11353174D01*
X11456610Y-11353174D02*
X11475658Y-11343650D01*
X11475658Y-11343650D02*
X11504229Y-11343650D01*
X11504229Y-11343650D02*
X11523277Y-11353174D01*
X11523277Y-11353174D02*
X11532801Y-11372222D01*
X11532801Y-11372222D02*
X11532801Y-11476984D01*
X11532801Y-11372222D02*
X11542324Y-11353174D01*
X11542324Y-11353174D02*
X11561372Y-11343650D01*
X11561372Y-11343650D02*
X11589943Y-11343650D01*
X11589943Y-11343650D02*
X11608991Y-11353174D01*
X11608991Y-11353174D02*
X11618515Y-11372222D01*
X11618515Y-11372222D02*
X11618515Y-11476984D01*
X12008991Y-11267460D02*
X11837563Y-11524603D01*
X12266134Y-11276984D02*
X12285182Y-11276984D01*
X12285182Y-11276984D02*
X12304229Y-11286508D01*
X12304229Y-11286508D02*
X12313753Y-11296031D01*
X12313753Y-11296031D02*
X12323277Y-11315079D01*
X12323277Y-11315079D02*
X12332801Y-11353174D01*
X12332801Y-11353174D02*
X12332801Y-11400793D01*
X12332801Y-11400793D02*
X12323277Y-11438888D01*
X12323277Y-11438888D02*
X12313753Y-11457936D01*
X12313753Y-11457936D02*
X12304229Y-11467460D01*
X12304229Y-11467460D02*
X12285182Y-11476984D01*
X12285182Y-11476984D02*
X12266134Y-11476984D01*
X12266134Y-11476984D02*
X12247086Y-11467460D01*
X12247086Y-11467460D02*
X12237563Y-11457936D01*
X12237563Y-11457936D02*
X12228039Y-11438888D01*
X12228039Y-11438888D02*
X12218515Y-11400793D01*
X12218515Y-11400793D02*
X12218515Y-11353174D01*
X12218515Y-11353174D02*
X12228039Y-11315079D01*
X12228039Y-11315079D02*
X12237563Y-11296031D01*
X12237563Y-11296031D02*
X12247086Y-11286508D01*
X12247086Y-11286508D02*
X12266134Y-11276984D01*
X12418515Y-11457936D02*
X12428039Y-11467460D01*
X12428039Y-11467460D02*
X12418515Y-11476984D01*
X12418515Y-11476984D02*
X12408991Y-11467460D01*
X12408991Y-11467460D02*
X12418515Y-11457936D01*
X12418515Y-11457936D02*
X12418515Y-11476984D01*
X12551848Y-11276984D02*
X12570896Y-11276984D01*
X12570896Y-11276984D02*
X12589944Y-11286508D01*
X12589944Y-11286508D02*
X12599467Y-11296031D01*
X12599467Y-11296031D02*
X12608991Y-11315079D01*
X12608991Y-11315079D02*
X12618515Y-11353174D01*
X12618515Y-11353174D02*
X12618515Y-11400793D01*
X12618515Y-11400793D02*
X12608991Y-11438888D01*
X12608991Y-11438888D02*
X12599467Y-11457936D01*
X12599467Y-11457936D02*
X12589944Y-11467460D01*
X12589944Y-11467460D02*
X12570896Y-11476984D01*
X12570896Y-11476984D02*
X12551848Y-11476984D01*
X12551848Y-11476984D02*
X12532801Y-11467460D01*
X12532801Y-11467460D02*
X12523277Y-11457936D01*
X12523277Y-11457936D02*
X12513753Y-11438888D01*
X12513753Y-11438888D02*
X12504229Y-11400793D01*
X12504229Y-11400793D02*
X12504229Y-11353174D01*
X12504229Y-11353174D02*
X12513753Y-11315079D01*
X12513753Y-11315079D02*
X12523277Y-11296031D01*
X12523277Y-11296031D02*
X12532801Y-11286508D01*
X12532801Y-11286508D02*
X12551848Y-11276984D01*
X12694706Y-11296031D02*
X12704229Y-11286508D01*
X12704229Y-11286508D02*
X12723277Y-11276984D01*
X12723277Y-11276984D02*
X12770896Y-11276984D01*
X12770896Y-11276984D02*
X12789944Y-11286508D01*
X12789944Y-11286508D02*
X12799467Y-11296031D01*
X12799467Y-11296031D02*
X12808991Y-11315079D01*
X12808991Y-11315079D02*
X12808991Y-11334127D01*
X12808991Y-11334127D02*
X12799467Y-11362698D01*
X12799467Y-11362698D02*
X12685182Y-11476984D01*
X12685182Y-11476984D02*
X12808991Y-11476984D01*
X12904229Y-11476984D02*
X12942325Y-11476984D01*
X12942325Y-11476984D02*
X12961372Y-11467460D01*
X12961372Y-11467460D02*
X12970896Y-11457936D01*
X12970896Y-11457936D02*
X12989944Y-11429365D01*
X12989944Y-11429365D02*
X12999467Y-11391269D01*
X12999467Y-11391269D02*
X12999467Y-11315079D01*
X12999467Y-11315079D02*
X12989944Y-11296031D01*
X12989944Y-11296031D02*
X12980420Y-11286508D01*
X12980420Y-11286508D02*
X12961372Y-11276984D01*
X12961372Y-11276984D02*
X12923277Y-11276984D01*
X12923277Y-11276984D02*
X12904229Y-11286508D01*
X12904229Y-11286508D02*
X12894706Y-11296031D01*
X12894706Y-11296031D02*
X12885182Y-11315079D01*
X12885182Y-11315079D02*
X12885182Y-11362698D01*
X12885182Y-11362698D02*
X12894706Y-11381746D01*
X12894706Y-11381746D02*
X12904229Y-11391269D01*
X12904229Y-11391269D02*
X12923277Y-11400793D01*
X12923277Y-11400793D02*
X12961372Y-11400793D01*
X12961372Y-11400793D02*
X12980420Y-11391269D01*
X12980420Y-11391269D02*
X12989944Y-11381746D01*
X12989944Y-11381746D02*
X12999467Y-11362698D01*
X13180420Y-11276984D02*
X13085182Y-11276984D01*
X13085182Y-11276984D02*
X13075658Y-11372222D01*
X13075658Y-11372222D02*
X13085182Y-11362698D01*
X13085182Y-11362698D02*
X13104229Y-11353174D01*
X13104229Y-11353174D02*
X13151848Y-11353174D01*
X13151848Y-11353174D02*
X13170896Y-11362698D01*
X13170896Y-11362698D02*
X13180420Y-11372222D01*
X13180420Y-11372222D02*
X13189944Y-11391269D01*
X13189944Y-11391269D02*
X13189944Y-11438888D01*
X13189944Y-11438888D02*
X13180420Y-11457936D01*
X13180420Y-11457936D02*
X13170896Y-11467460D01*
X13170896Y-11467460D02*
X13151848Y-11476984D01*
X13151848Y-11476984D02*
X13104229Y-11476984D01*
X13104229Y-11476984D02*
X13085182Y-11467460D01*
X13085182Y-11467460D02*
X13075658Y-11457936D01*
X13266134Y-11276984D02*
X13266134Y-11315079D01*
X13342325Y-11276984D02*
X13342325Y-11315079D01*
X13637563Y-11553174D02*
X13628039Y-11543650D01*
X13628039Y-11543650D02*
X13608991Y-11515079D01*
X13608991Y-11515079D02*
X13599468Y-11496031D01*
X13599468Y-11496031D02*
X13589944Y-11467460D01*
X13589944Y-11467460D02*
X13580420Y-11419841D01*
X13580420Y-11419841D02*
X13580420Y-11381746D01*
X13580420Y-11381746D02*
X13589944Y-11334127D01*
X13589944Y-11334127D02*
X13599468Y-11305555D01*
X13599468Y-11305555D02*
X13608991Y-11286508D01*
X13608991Y-11286508D02*
X13628039Y-11257936D01*
X13628039Y-11257936D02*
X13637563Y-11248412D01*
X13808991Y-11276984D02*
X13713753Y-11276984D01*
X13713753Y-11276984D02*
X13704229Y-11372222D01*
X13704229Y-11372222D02*
X13713753Y-11362698D01*
X13713753Y-11362698D02*
X13732801Y-11353174D01*
X13732801Y-11353174D02*
X13780420Y-11353174D01*
X13780420Y-11353174D02*
X13799468Y-11362698D01*
X13799468Y-11362698D02*
X13808991Y-11372222D01*
X13808991Y-11372222D02*
X13818515Y-11391269D01*
X13818515Y-11391269D02*
X13818515Y-11438888D01*
X13818515Y-11438888D02*
X13808991Y-11457936D01*
X13808991Y-11457936D02*
X13799468Y-11467460D01*
X13799468Y-11467460D02*
X13780420Y-11476984D01*
X13780420Y-11476984D02*
X13732801Y-11476984D01*
X13732801Y-11476984D02*
X13713753Y-11467460D01*
X13713753Y-11467460D02*
X13704229Y-11457936D01*
X14056610Y-11476984D02*
X14056610Y-11276984D01*
X14142325Y-11476984D02*
X14142325Y-11372222D01*
X14142325Y-11372222D02*
X14132801Y-11353174D01*
X14132801Y-11353174D02*
X14113753Y-11343650D01*
X14113753Y-11343650D02*
X14085182Y-11343650D01*
X14085182Y-11343650D02*
X14066134Y-11353174D01*
X14066134Y-11353174D02*
X14056610Y-11362698D01*
X14266134Y-11476984D02*
X14247087Y-11467460D01*
X14247087Y-11467460D02*
X14237563Y-11457936D01*
X14237563Y-11457936D02*
X14228039Y-11438888D01*
X14228039Y-11438888D02*
X14228039Y-11381746D01*
X14228039Y-11381746D02*
X14237563Y-11362698D01*
X14237563Y-11362698D02*
X14247087Y-11353174D01*
X14247087Y-11353174D02*
X14266134Y-11343650D01*
X14266134Y-11343650D02*
X14294706Y-11343650D01*
X14294706Y-11343650D02*
X14313753Y-11353174D01*
X14313753Y-11353174D02*
X14323277Y-11362698D01*
X14323277Y-11362698D02*
X14332801Y-11381746D01*
X14332801Y-11381746D02*
X14332801Y-11438888D01*
X14332801Y-11438888D02*
X14323277Y-11457936D01*
X14323277Y-11457936D02*
X14313753Y-11467460D01*
X14313753Y-11467460D02*
X14294706Y-11476984D01*
X14294706Y-11476984D02*
X14266134Y-11476984D01*
X14447087Y-11476984D02*
X14428039Y-11467460D01*
X14428039Y-11467460D02*
X14418515Y-11448412D01*
X14418515Y-11448412D02*
X14418515Y-11276984D01*
X14599468Y-11467460D02*
X14580420Y-11476984D01*
X14580420Y-11476984D02*
X14542325Y-11476984D01*
X14542325Y-11476984D02*
X14523277Y-11467460D01*
X14523277Y-11467460D02*
X14513753Y-11448412D01*
X14513753Y-11448412D02*
X14513753Y-11372222D01*
X14513753Y-11372222D02*
X14523277Y-11353174D01*
X14523277Y-11353174D02*
X14542325Y-11343650D01*
X14542325Y-11343650D02*
X14580420Y-11343650D01*
X14580420Y-11343650D02*
X14599468Y-11353174D01*
X14599468Y-11353174D02*
X14608991Y-11372222D01*
X14608991Y-11372222D02*
X14608991Y-11391269D01*
X14608991Y-11391269D02*
X14513753Y-11410317D01*
X14685182Y-11467460D02*
X14704230Y-11476984D01*
X14704230Y-11476984D02*
X14742325Y-11476984D01*
X14742325Y-11476984D02*
X14761372Y-11467460D01*
X14761372Y-11467460D02*
X14770896Y-11448412D01*
X14770896Y-11448412D02*
X14770896Y-11438888D01*
X14770896Y-11438888D02*
X14761372Y-11419841D01*
X14761372Y-11419841D02*
X14742325Y-11410317D01*
X14742325Y-11410317D02*
X14713753Y-11410317D01*
X14713753Y-11410317D02*
X14694706Y-11400793D01*
X14694706Y-11400793D02*
X14685182Y-11381746D01*
X14685182Y-11381746D02*
X14685182Y-11372222D01*
X14685182Y-11372222D02*
X14694706Y-11353174D01*
X14694706Y-11353174D02*
X14713753Y-11343650D01*
X14713753Y-11343650D02*
X14742325Y-11343650D01*
X14742325Y-11343650D02*
X14761372Y-11353174D01*
X14837563Y-11553174D02*
X14847087Y-11543650D01*
X14847087Y-11543650D02*
X14866134Y-11515079D01*
X14866134Y-11515079D02*
X14875658Y-11496031D01*
X14875658Y-11496031D02*
X14885182Y-11467460D01*
X14885182Y-11467460D02*
X14894706Y-11419841D01*
X14894706Y-11419841D02*
X14894706Y-11381746D01*
X14894706Y-11381746D02*
X14885182Y-11334127D01*
X14885182Y-11334127D02*
X14875658Y-11305555D01*
X14875658Y-11305555D02*
X14866134Y-11286508D01*
X14866134Y-11286508D02*
X14847087Y-11257936D01*
X14847087Y-11257936D02*
X14837563Y-11248412D01*
D12*
X10047856Y-11684856D02*
X10047856Y-11614144D01*
X9977144Y-11614144D01*
X9977144Y-11684856D01*
X10047856Y-11684856D01*
D11*
X10428039Y-11740984D02*
X10313753Y-11740984D01*
X10370896Y-11740984D02*
X10370896Y-11540984D01*
X10370896Y-11540984D02*
X10351848Y-11569555D01*
X10351848Y-11569555D02*
X10332801Y-11588603D01*
X10332801Y-11588603D02*
X10313753Y-11598127D01*
X10513753Y-11721936D02*
X10523277Y-11731460D01*
X10523277Y-11731460D02*
X10513753Y-11740984D01*
X10513753Y-11740984D02*
X10504229Y-11731460D01*
X10504229Y-11731460D02*
X10513753Y-11721936D01*
X10513753Y-11721936D02*
X10513753Y-11740984D01*
X10647086Y-11540984D02*
X10666134Y-11540984D01*
X10666134Y-11540984D02*
X10685182Y-11550508D01*
X10685182Y-11550508D02*
X10694705Y-11560031D01*
X10694705Y-11560031D02*
X10704229Y-11579079D01*
X10704229Y-11579079D02*
X10713753Y-11617174D01*
X10713753Y-11617174D02*
X10713753Y-11664793D01*
X10713753Y-11664793D02*
X10704229Y-11702888D01*
X10704229Y-11702888D02*
X10694705Y-11721936D01*
X10694705Y-11721936D02*
X10685182Y-11731460D01*
X10685182Y-11731460D02*
X10666134Y-11740984D01*
X10666134Y-11740984D02*
X10647086Y-11740984D01*
X10647086Y-11740984D02*
X10628039Y-11731460D01*
X10628039Y-11731460D02*
X10618515Y-11721936D01*
X10618515Y-11721936D02*
X10608991Y-11702888D01*
X10608991Y-11702888D02*
X10599467Y-11664793D01*
X10599467Y-11664793D02*
X10599467Y-11617174D01*
X10599467Y-11617174D02*
X10608991Y-11579079D01*
X10608991Y-11579079D02*
X10618515Y-11560031D01*
X10618515Y-11560031D02*
X10628039Y-11550508D01*
X10628039Y-11550508D02*
X10647086Y-11540984D01*
X10837563Y-11540984D02*
X10856610Y-11540984D01*
X10856610Y-11540984D02*
X10875658Y-11550508D01*
X10875658Y-11550508D02*
X10885182Y-11560031D01*
X10885182Y-11560031D02*
X10894705Y-11579079D01*
X10894705Y-11579079D02*
X10904229Y-11617174D01*
X10904229Y-11617174D02*
X10904229Y-11664793D01*
X10904229Y-11664793D02*
X10894705Y-11702888D01*
X10894705Y-11702888D02*
X10885182Y-11721936D01*
X10885182Y-11721936D02*
X10875658Y-11731460D01*
X10875658Y-11731460D02*
X10856610Y-11740984D01*
X10856610Y-11740984D02*
X10837563Y-11740984D01*
X10837563Y-11740984D02*
X10818515Y-11731460D01*
X10818515Y-11731460D02*
X10808991Y-11721936D01*
X10808991Y-11721936D02*
X10799467Y-11702888D01*
X10799467Y-11702888D02*
X10789944Y-11664793D01*
X10789944Y-11664793D02*
X10789944Y-11617174D01*
X10789944Y-11617174D02*
X10799467Y-11579079D01*
X10799467Y-11579079D02*
X10808991Y-11560031D01*
X10808991Y-11560031D02*
X10818515Y-11550508D01*
X10818515Y-11550508D02*
X10837563Y-11540984D01*
X11028039Y-11540984D02*
X11047086Y-11540984D01*
X11047086Y-11540984D02*
X11066134Y-11550508D01*
X11066134Y-11550508D02*
X11075658Y-11560031D01*
X11075658Y-11560031D02*
X11085182Y-11579079D01*
X11085182Y-11579079D02*
X11094705Y-11617174D01*
X11094705Y-11617174D02*
X11094705Y-11664793D01*
X11094705Y-11664793D02*
X11085182Y-11702888D01*
X11085182Y-11702888D02*
X11075658Y-11721936D01*
X11075658Y-11721936D02*
X11066134Y-11731460D01*
X11066134Y-11731460D02*
X11047086Y-11740984D01*
X11047086Y-11740984D02*
X11028039Y-11740984D01*
X11028039Y-11740984D02*
X11008991Y-11731460D01*
X11008991Y-11731460D02*
X10999467Y-11721936D01*
X10999467Y-11721936D02*
X10989944Y-11702888D01*
X10989944Y-11702888D02*
X10980420Y-11664793D01*
X10980420Y-11664793D02*
X10980420Y-11617174D01*
X10980420Y-11617174D02*
X10989944Y-11579079D01*
X10989944Y-11579079D02*
X10999467Y-11560031D01*
X10999467Y-11560031D02*
X11008991Y-11550508D01*
X11008991Y-11550508D02*
X11028039Y-11540984D01*
X11180420Y-11740984D02*
X11180420Y-11607650D01*
X11180420Y-11626698D02*
X11189943Y-11617174D01*
X11189943Y-11617174D02*
X11208991Y-11607650D01*
X11208991Y-11607650D02*
X11237563Y-11607650D01*
X11237563Y-11607650D02*
X11256610Y-11617174D01*
X11256610Y-11617174D02*
X11266134Y-11636222D01*
X11266134Y-11636222D02*
X11266134Y-11740984D01*
X11266134Y-11636222D02*
X11275658Y-11617174D01*
X11275658Y-11617174D02*
X11294705Y-11607650D01*
X11294705Y-11607650D02*
X11323277Y-11607650D01*
X11323277Y-11607650D02*
X11342324Y-11617174D01*
X11342324Y-11617174D02*
X11351848Y-11636222D01*
X11351848Y-11636222D02*
X11351848Y-11740984D01*
X11447086Y-11740984D02*
X11447086Y-11607650D01*
X11447086Y-11626698D02*
X11456610Y-11617174D01*
X11456610Y-11617174D02*
X11475658Y-11607650D01*
X11475658Y-11607650D02*
X11504229Y-11607650D01*
X11504229Y-11607650D02*
X11523277Y-11617174D01*
X11523277Y-11617174D02*
X11532801Y-11636222D01*
X11532801Y-11636222D02*
X11532801Y-11740984D01*
X11532801Y-11636222D02*
X11542324Y-11617174D01*
X11542324Y-11617174D02*
X11561372Y-11607650D01*
X11561372Y-11607650D02*
X11589943Y-11607650D01*
X11589943Y-11607650D02*
X11608991Y-11617174D01*
X11608991Y-11617174D02*
X11618515Y-11636222D01*
X11618515Y-11636222D02*
X11618515Y-11740984D01*
X12008991Y-11531460D02*
X11837563Y-11788603D01*
X12266134Y-11540984D02*
X12285182Y-11540984D01*
X12285182Y-11540984D02*
X12304229Y-11550508D01*
X12304229Y-11550508D02*
X12313753Y-11560031D01*
X12313753Y-11560031D02*
X12323277Y-11579079D01*
X12323277Y-11579079D02*
X12332801Y-11617174D01*
X12332801Y-11617174D02*
X12332801Y-11664793D01*
X12332801Y-11664793D02*
X12323277Y-11702888D01*
X12323277Y-11702888D02*
X12313753Y-11721936D01*
X12313753Y-11721936D02*
X12304229Y-11731460D01*
X12304229Y-11731460D02*
X12285182Y-11740984D01*
X12285182Y-11740984D02*
X12266134Y-11740984D01*
X12266134Y-11740984D02*
X12247086Y-11731460D01*
X12247086Y-11731460D02*
X12237563Y-11721936D01*
X12237563Y-11721936D02*
X12228039Y-11702888D01*
X12228039Y-11702888D02*
X12218515Y-11664793D01*
X12218515Y-11664793D02*
X12218515Y-11617174D01*
X12218515Y-11617174D02*
X12228039Y-11579079D01*
X12228039Y-11579079D02*
X12237563Y-11560031D01*
X12237563Y-11560031D02*
X12247086Y-11550508D01*
X12247086Y-11550508D02*
X12266134Y-11540984D01*
X12418515Y-11721936D02*
X12428039Y-11731460D01*
X12428039Y-11731460D02*
X12418515Y-11740984D01*
X12418515Y-11740984D02*
X12408991Y-11731460D01*
X12408991Y-11731460D02*
X12418515Y-11721936D01*
X12418515Y-11721936D02*
X12418515Y-11740984D01*
X12551848Y-11540984D02*
X12570896Y-11540984D01*
X12570896Y-11540984D02*
X12589944Y-11550508D01*
X12589944Y-11550508D02*
X12599467Y-11560031D01*
X12599467Y-11560031D02*
X12608991Y-11579079D01*
X12608991Y-11579079D02*
X12618515Y-11617174D01*
X12618515Y-11617174D02*
X12618515Y-11664793D01*
X12618515Y-11664793D02*
X12608991Y-11702888D01*
X12608991Y-11702888D02*
X12599467Y-11721936D01*
X12599467Y-11721936D02*
X12589944Y-11731460D01*
X12589944Y-11731460D02*
X12570896Y-11740984D01*
X12570896Y-11740984D02*
X12551848Y-11740984D01*
X12551848Y-11740984D02*
X12532801Y-11731460D01*
X12532801Y-11731460D02*
X12523277Y-11721936D01*
X12523277Y-11721936D02*
X12513753Y-11702888D01*
X12513753Y-11702888D02*
X12504229Y-11664793D01*
X12504229Y-11664793D02*
X12504229Y-11617174D01*
X12504229Y-11617174D02*
X12513753Y-11579079D01*
X12513753Y-11579079D02*
X12523277Y-11560031D01*
X12523277Y-11560031D02*
X12532801Y-11550508D01*
X12532801Y-11550508D02*
X12551848Y-11540984D01*
X12685182Y-11540984D02*
X12808991Y-11540984D01*
X12808991Y-11540984D02*
X12742325Y-11617174D01*
X12742325Y-11617174D02*
X12770896Y-11617174D01*
X12770896Y-11617174D02*
X12789944Y-11626698D01*
X12789944Y-11626698D02*
X12799467Y-11636222D01*
X12799467Y-11636222D02*
X12808991Y-11655269D01*
X12808991Y-11655269D02*
X12808991Y-11702888D01*
X12808991Y-11702888D02*
X12799467Y-11721936D01*
X12799467Y-11721936D02*
X12789944Y-11731460D01*
X12789944Y-11731460D02*
X12770896Y-11740984D01*
X12770896Y-11740984D02*
X12713753Y-11740984D01*
X12713753Y-11740984D02*
X12694706Y-11731460D01*
X12694706Y-11731460D02*
X12685182Y-11721936D01*
X12904229Y-11740984D02*
X12942325Y-11740984D01*
X12942325Y-11740984D02*
X12961372Y-11731460D01*
X12961372Y-11731460D02*
X12970896Y-11721936D01*
X12970896Y-11721936D02*
X12989944Y-11693365D01*
X12989944Y-11693365D02*
X12999467Y-11655269D01*
X12999467Y-11655269D02*
X12999467Y-11579079D01*
X12999467Y-11579079D02*
X12989944Y-11560031D01*
X12989944Y-11560031D02*
X12980420Y-11550508D01*
X12980420Y-11550508D02*
X12961372Y-11540984D01*
X12961372Y-11540984D02*
X12923277Y-11540984D01*
X12923277Y-11540984D02*
X12904229Y-11550508D01*
X12904229Y-11550508D02*
X12894706Y-11560031D01*
X12894706Y-11560031D02*
X12885182Y-11579079D01*
X12885182Y-11579079D02*
X12885182Y-11626698D01*
X12885182Y-11626698D02*
X12894706Y-11645746D01*
X12894706Y-11645746D02*
X12904229Y-11655269D01*
X12904229Y-11655269D02*
X12923277Y-11664793D01*
X12923277Y-11664793D02*
X12961372Y-11664793D01*
X12961372Y-11664793D02*
X12980420Y-11655269D01*
X12980420Y-11655269D02*
X12989944Y-11645746D01*
X12989944Y-11645746D02*
X12999467Y-11626698D01*
X13170896Y-11607650D02*
X13170896Y-11740984D01*
X13123277Y-11531460D02*
X13075658Y-11674317D01*
X13075658Y-11674317D02*
X13199467Y-11674317D01*
X13266134Y-11540984D02*
X13266134Y-11579079D01*
X13342325Y-11540984D02*
X13342325Y-11579079D01*
X13637563Y-11817174D02*
X13628039Y-11807650D01*
X13628039Y-11807650D02*
X13608991Y-11779079D01*
X13608991Y-11779079D02*
X13599468Y-11760031D01*
X13599468Y-11760031D02*
X13589944Y-11731460D01*
X13589944Y-11731460D02*
X13580420Y-11683841D01*
X13580420Y-11683841D02*
X13580420Y-11645746D01*
X13580420Y-11645746D02*
X13589944Y-11598127D01*
X13589944Y-11598127D02*
X13599468Y-11569555D01*
X13599468Y-11569555D02*
X13608991Y-11550508D01*
X13608991Y-11550508D02*
X13628039Y-11521936D01*
X13628039Y-11521936D02*
X13637563Y-11512412D01*
X13808991Y-11540984D02*
X13713753Y-11540984D01*
X13713753Y-11540984D02*
X13704229Y-11636222D01*
X13704229Y-11636222D02*
X13713753Y-11626698D01*
X13713753Y-11626698D02*
X13732801Y-11617174D01*
X13732801Y-11617174D02*
X13780420Y-11617174D01*
X13780420Y-11617174D02*
X13799468Y-11626698D01*
X13799468Y-11626698D02*
X13808991Y-11636222D01*
X13808991Y-11636222D02*
X13818515Y-11655269D01*
X13818515Y-11655269D02*
X13818515Y-11702888D01*
X13818515Y-11702888D02*
X13808991Y-11721936D01*
X13808991Y-11721936D02*
X13799468Y-11731460D01*
X13799468Y-11731460D02*
X13780420Y-11740984D01*
X13780420Y-11740984D02*
X13732801Y-11740984D01*
X13732801Y-11740984D02*
X13713753Y-11731460D01*
X13713753Y-11731460D02*
X13704229Y-11721936D01*
X14056610Y-11740984D02*
X14056610Y-11540984D01*
X14142325Y-11740984D02*
X14142325Y-11636222D01*
X14142325Y-11636222D02*
X14132801Y-11617174D01*
X14132801Y-11617174D02*
X14113753Y-11607650D01*
X14113753Y-11607650D02*
X14085182Y-11607650D01*
X14085182Y-11607650D02*
X14066134Y-11617174D01*
X14066134Y-11617174D02*
X14056610Y-11626698D01*
X14266134Y-11740984D02*
X14247087Y-11731460D01*
X14247087Y-11731460D02*
X14237563Y-11721936D01*
X14237563Y-11721936D02*
X14228039Y-11702888D01*
X14228039Y-11702888D02*
X14228039Y-11645746D01*
X14228039Y-11645746D02*
X14237563Y-11626698D01*
X14237563Y-11626698D02*
X14247087Y-11617174D01*
X14247087Y-11617174D02*
X14266134Y-11607650D01*
X14266134Y-11607650D02*
X14294706Y-11607650D01*
X14294706Y-11607650D02*
X14313753Y-11617174D01*
X14313753Y-11617174D02*
X14323277Y-11626698D01*
X14323277Y-11626698D02*
X14332801Y-11645746D01*
X14332801Y-11645746D02*
X14332801Y-11702888D01*
X14332801Y-11702888D02*
X14323277Y-11721936D01*
X14323277Y-11721936D02*
X14313753Y-11731460D01*
X14313753Y-11731460D02*
X14294706Y-11740984D01*
X14294706Y-11740984D02*
X14266134Y-11740984D01*
X14447087Y-11740984D02*
X14428039Y-11731460D01*
X14428039Y-11731460D02*
X14418515Y-11712412D01*
X14418515Y-11712412D02*
X14418515Y-11540984D01*
X14599468Y-11731460D02*
X14580420Y-11740984D01*
X14580420Y-11740984D02*
X14542325Y-11740984D01*
X14542325Y-11740984D02*
X14523277Y-11731460D01*
X14523277Y-11731460D02*
X14513753Y-11712412D01*
X14513753Y-11712412D02*
X14513753Y-11636222D01*
X14513753Y-11636222D02*
X14523277Y-11617174D01*
X14523277Y-11617174D02*
X14542325Y-11607650D01*
X14542325Y-11607650D02*
X14580420Y-11607650D01*
X14580420Y-11607650D02*
X14599468Y-11617174D01*
X14599468Y-11617174D02*
X14608991Y-11636222D01*
X14608991Y-11636222D02*
X14608991Y-11655269D01*
X14608991Y-11655269D02*
X14513753Y-11674317D01*
X14685182Y-11731460D02*
X14704230Y-11740984D01*
X14704230Y-11740984D02*
X14742325Y-11740984D01*
X14742325Y-11740984D02*
X14761372Y-11731460D01*
X14761372Y-11731460D02*
X14770896Y-11712412D01*
X14770896Y-11712412D02*
X14770896Y-11702888D01*
X14770896Y-11702888D02*
X14761372Y-11683841D01*
X14761372Y-11683841D02*
X14742325Y-11674317D01*
X14742325Y-11674317D02*
X14713753Y-11674317D01*
X14713753Y-11674317D02*
X14694706Y-11664793D01*
X14694706Y-11664793D02*
X14685182Y-11645746D01*
X14685182Y-11645746D02*
X14685182Y-11636222D01*
X14685182Y-11636222D02*
X14694706Y-11617174D01*
X14694706Y-11617174D02*
X14713753Y-11607650D01*
X14713753Y-11607650D02*
X14742325Y-11607650D01*
X14742325Y-11607650D02*
X14761372Y-11617174D01*
X14837563Y-11817174D02*
X14847087Y-11807650D01*
X14847087Y-11807650D02*
X14866134Y-11779079D01*
X14866134Y-11779079D02*
X14875658Y-11760031D01*
X14875658Y-11760031D02*
X14885182Y-11731460D01*
X14885182Y-11731460D02*
X14894706Y-11683841D01*
X14894706Y-11683841D02*
X14894706Y-11645746D01*
X14894706Y-11645746D02*
X14885182Y-11598127D01*
X14885182Y-11598127D02*
X14875658Y-11569555D01*
X14875658Y-11569555D02*
X14866134Y-11550508D01*
X14866134Y-11550508D02*
X14847087Y-11521936D01*
X14847087Y-11521936D02*
X14837563Y-11512412D01*
M02*
