M48
; DRILL file {KiCad 8.0.2} date 2024-11-03T01:22:41-0700
; FORMAT={-:-/ absolute / metric / decimal}
; #@! TF.CreationDate,2024-11-03T01:22:41-07:00
; #@! TF.GenerationSoftware,Kicad,Pcbnew,8.0.2
; #@! TF.FileFunction,Plated,1,2,PTH
FMAT,2
METRIC
; #@! TA.AperFunction,Plated,PTH,ViaDrill
T1C0.300
; #@! TA.AperFunction,Plated,PTH,ViaDrill
T2C0.400
; #@! TA.AperFunction,Plated,PTH,ComponentDrill
T3C0.750
; #@! TA.AperFunction,Plated,PTH,ComponentDrill
T4C1.000
%
G90
G05
T1
X105.7Y-99.75
X108.07Y-98.712
X109.699Y-98.668
X110.173Y-98.153
X115.45Y-95.8
T2
X106.05Y-95.8
X107.297Y-97.652
X108.753Y-97.4
X108.872Y-98.688
X113.369Y-98.208
T3
X106.005Y-94.5
X107.505Y-94.5
X109.005Y-94.5
X110.505Y-94.5
X112.005Y-94.5
T4
X103.915Y-91.65
X106.455Y-91.65
X108.995Y-91.65
X111.535Y-91.65
X114.075Y-91.65
M30
