G04 #@! TF.GenerationSoftware,KiCad,Pcbnew,8.0.5-8.0.5-0~ubuntu22.04.1*
G04 #@! TF.CreationDate,2024-10-21T19:56:52-07:00*
G04 #@! TF.ProjectId,uSlime_BNO085_Module,75536c69-6d65-45f4-924e-4f3038355f4d,rev?*
G04 #@! TF.SameCoordinates,Original*
G04 #@! TF.FileFunction,Soldermask,Top*
G04 #@! TF.FilePolarity,Negative*
%FSLAX46Y46*%
G04 Gerber Fmt 4.6, Leading zero omitted, Abs format (unit mm)*
G04 Created by KiCad (PCBNEW 8.0.5-8.0.5-0~ubuntu22.04.1) date 2024-10-21 19:56:52*
%MOMM*%
%LPD*%
G01*
G04 APERTURE LIST*
G04 Aperture macros list*
%AMRoundRect*
0 Rectangle with rounded corners*
0 $1 Rounding radius*
0 $2 $3 $4 $5 $6 $7 $8 $9 X,Y pos of 4 corners*
0 Add a 4 corners polygon primitive as box body*
4,1,4,$2,$3,$4,$5,$6,$7,$8,$9,$2,$3,0*
0 Add four circle primitives for the rounded corners*
1,1,$1+$1,$2,$3*
1,1,$1+$1,$4,$5*
1,1,$1+$1,$6,$7*
1,1,$1+$1,$8,$9*
0 Add four rect primitives between the rounded corners*
20,1,$1+$1,$2,$3,$4,$5,0*
20,1,$1+$1,$4,$5,$6,$7,0*
20,1,$1+$1,$6,$7,$8,$9,0*
20,1,$1+$1,$8,$9,$2,$3,0*%
%AMFreePoly0*
4,1,19,0.550000,-0.750000,0.000000,-0.750000,0.000000,-0.744911,-0.071157,-0.744911,-0.207708,-0.704816,-0.327430,-0.627875,-0.420627,-0.520320,-0.479746,-0.390866,-0.500000,-0.250000,-0.500000,0.250000,-0.479746,0.390866,-0.420627,0.520320,-0.327430,0.627875,-0.207708,0.704816,-0.071157,0.744911,0.000000,0.744911,0.000000,0.750000,0.550000,0.750000,0.550000,-0.750000,0.550000,-0.750000,
$1*%
%AMFreePoly1*
4,1,19,0.000000,0.744911,0.071157,0.744911,0.207708,0.704816,0.327430,0.627875,0.420627,0.520320,0.479746,0.390866,0.500000,0.250000,0.500000,-0.250000,0.479746,-0.390866,0.420627,-0.520320,0.327430,-0.627875,0.207708,-0.704816,0.071157,-0.744911,0.000000,-0.744911,0.000000,-0.750000,-0.550000,-0.750000,-0.550000,0.750000,0.000000,0.750000,0.000000,0.744911,0.000000,0.744911,
$1*%
G04 Aperture macros list end*
%ADD10RoundRect,0.140000X-0.170000X0.140000X-0.170000X-0.140000X0.170000X-0.140000X0.170000X0.140000X0*%
%ADD11RoundRect,0.140000X0.170000X-0.140000X0.170000X0.140000X-0.170000X0.140000X-0.170000X-0.140000X0*%
%ADD12R,1.700000X1.700000*%
%ADD13O,1.700000X1.700000*%
%ADD14RoundRect,0.135000X0.135000X0.185000X-0.135000X0.185000X-0.135000X-0.185000X0.135000X-0.185000X0*%
%ADD15C,3.100000*%
%ADD16RoundRect,0.140000X-0.140000X-0.170000X0.140000X-0.170000X0.140000X0.170000X-0.140000X0.170000X0*%
%ADD17FreePoly0,270.000000*%
%ADD18R,1.500000X1.000000*%
%ADD19FreePoly1,270.000000*%
%ADD20RoundRect,0.135000X-0.185000X0.135000X-0.185000X-0.135000X0.185000X-0.135000X0.185000X0.135000X0*%
%ADD21C,1.200000*%
%ADD22RoundRect,0.140000X0.140000X0.170000X-0.140000X0.170000X-0.140000X-0.170000X0.140000X-0.170000X0*%
%ADD23R,0.250000X0.914400*%
%ADD24R,0.812800X0.250000*%
G04 APERTURE END LIST*
D10*
X102850000Y-93920000D03*
X102850000Y-94880000D03*
D11*
X113600000Y-97430000D03*
X113600000Y-96470000D03*
D12*
X114075000Y-91650000D03*
D13*
X111535000Y-91650000D03*
X108995000Y-91650000D03*
X106455000Y-91650000D03*
X103915000Y-91650000D03*
D14*
X109910000Y-100750000D03*
X108890000Y-100750000D03*
D15*
X115100000Y-99900000D03*
D16*
X107020000Y-100750000D03*
X107980000Y-100750000D03*
D17*
X115442500Y-94500000D03*
D18*
X115442500Y-95800000D03*
D19*
X115442500Y-97100000D03*
D20*
X103850000Y-93890000D03*
X103850000Y-94910000D03*
D21*
X112005000Y-94500000D03*
X110505000Y-94500000D03*
X109005000Y-94500000D03*
X107505000Y-94500000D03*
X106005000Y-94500000D03*
D22*
X105480000Y-96600000D03*
X104520000Y-96600000D03*
D23*
X106752600Y-96222670D03*
D24*
X106561600Y-97150000D03*
X106561600Y-97653070D03*
X106561600Y-98153070D03*
X106561600Y-98653060D03*
D23*
X106752600Y-99575470D03*
X107252600Y-99575470D03*
X107752600Y-99575470D03*
X108252600Y-99575470D03*
X108752600Y-99575470D03*
X109252600Y-99575470D03*
X109752600Y-99575470D03*
X110252600Y-99575470D03*
X110752600Y-99575470D03*
X111260600Y-99575470D03*
D24*
X111387600Y-98653070D03*
X111387600Y-98153070D03*
X111387600Y-97653070D03*
X111387600Y-97150000D03*
D23*
X111260600Y-96222670D03*
X110752600Y-96222670D03*
X110252600Y-96222670D03*
X109752600Y-96222670D03*
X109252600Y-96222670D03*
X108752600Y-96222670D03*
X108252600Y-96222670D03*
X107752600Y-96222670D03*
X107252600Y-96222670D03*
D20*
X112550000Y-96430000D03*
X112550000Y-97450000D03*
X105449000Y-97600000D03*
X105449000Y-98620000D03*
D15*
X102900000Y-99900000D03*
M02*
