G04 #@! TF.GenerationSoftware,KiCad,Pcbnew,8.0.2*
G04 #@! TF.CreationDate,2024-11-03T01:22:39-07:00*
G04 #@! TF.ProjectId,uSlime_BNO085_Module,75536c69-6d65-45f4-924e-4f3038355f4d,rev?*
G04 #@! TF.SameCoordinates,Original*
G04 #@! TF.FileFunction,Copper,L1,Top*
G04 #@! TF.FilePolarity,Positive*
%FSLAX46Y46*%
G04 Gerber Fmt 4.6, Leading zero omitted, Abs format (unit mm)*
G04 Created by KiCad (PCBNEW 8.0.2) date 2024-11-03 01:22:39*
%MOMM*%
%LPD*%
G01*
G04 APERTURE LIST*
G04 Aperture macros list*
%AMRoundRect*
0 Rectangle with rounded corners*
0 $1 Rounding radius*
0 $2 $3 $4 $5 $6 $7 $8 $9 X,Y pos of 4 corners*
0 Add a 4 corners polygon primitive as box body*
4,1,4,$2,$3,$4,$5,$6,$7,$8,$9,$2,$3,0*
0 Add four circle primitives for the rounded corners*
1,1,$1+$1,$2,$3*
1,1,$1+$1,$4,$5*
1,1,$1+$1,$6,$7*
1,1,$1+$1,$8,$9*
0 Add four rect primitives between the rounded corners*
20,1,$1+$1,$2,$3,$4,$5,0*
20,1,$1+$1,$4,$5,$6,$7,0*
20,1,$1+$1,$6,$7,$8,$9,0*
20,1,$1+$1,$8,$9,$2,$3,0*%
%AMFreePoly0*
4,1,19,0.550000,-0.750000,0.000000,-0.750000,0.000000,-0.744911,-0.071157,-0.744911,-0.207708,-0.704816,-0.327430,-0.627875,-0.420627,-0.520320,-0.479746,-0.390866,-0.500000,-0.250000,-0.500000,0.250000,-0.479746,0.390866,-0.420627,0.520320,-0.327430,0.627875,-0.207708,0.704816,-0.071157,0.744911,0.000000,0.744911,0.000000,0.750000,0.550000,0.750000,0.550000,-0.750000,0.550000,-0.750000,
$1*%
%AMFreePoly1*
4,1,19,0.000000,0.744911,0.071157,0.744911,0.207708,0.704816,0.327430,0.627875,0.420627,0.520320,0.479746,0.390866,0.500000,0.250000,0.500000,-0.250000,0.479746,-0.390866,0.420627,-0.520320,0.327430,-0.627875,0.207708,-0.704816,0.071157,-0.744911,0.000000,-0.744911,0.000000,-0.750000,-0.550000,-0.750000,-0.550000,0.750000,0.000000,0.750000,0.000000,0.744911,0.000000,0.744911,
$1*%
G04 Aperture macros list end*
G04 #@! TA.AperFunction,SMDPad,CuDef*
%ADD10RoundRect,0.135000X-0.135000X-0.185000X0.135000X-0.185000X0.135000X0.185000X-0.135000X0.185000X0*%
G04 #@! TD*
G04 #@! TA.AperFunction,SMDPad,CuDef*
%ADD11RoundRect,0.140000X-0.170000X0.140000X-0.170000X-0.140000X0.170000X-0.140000X0.170000X0.140000X0*%
G04 #@! TD*
G04 #@! TA.AperFunction,SMDPad,CuDef*
%ADD12RoundRect,0.140000X0.170000X-0.140000X0.170000X0.140000X-0.170000X0.140000X-0.170000X-0.140000X0*%
G04 #@! TD*
G04 #@! TA.AperFunction,ComponentPad*
%ADD13R,1.700000X1.700000*%
G04 #@! TD*
G04 #@! TA.AperFunction,ComponentPad*
%ADD14O,1.700000X1.700000*%
G04 #@! TD*
G04 #@! TA.AperFunction,SMDPad,CuDef*
%ADD15RoundRect,0.135000X0.135000X0.185000X-0.135000X0.185000X-0.135000X-0.185000X0.135000X-0.185000X0*%
G04 #@! TD*
G04 #@! TA.AperFunction,SMDPad,CuDef*
%ADD16RoundRect,0.140000X0.140000X0.170000X-0.140000X0.170000X-0.140000X-0.170000X0.140000X-0.170000X0*%
G04 #@! TD*
G04 #@! TA.AperFunction,SMDPad,CuDef*
%ADD17FreePoly0,270.000000*%
G04 #@! TD*
G04 #@! TA.AperFunction,SMDPad,CuDef*
%ADD18R,1.500000X1.000000*%
G04 #@! TD*
G04 #@! TA.AperFunction,SMDPad,CuDef*
%ADD19FreePoly1,270.000000*%
G04 #@! TD*
G04 #@! TA.AperFunction,SMDPad,CuDef*
%ADD20RoundRect,0.135000X-0.185000X0.135000X-0.185000X-0.135000X0.185000X-0.135000X0.185000X0.135000X0*%
G04 #@! TD*
G04 #@! TA.AperFunction,ComponentPad*
%ADD21C,1.200000*%
G04 #@! TD*
G04 #@! TA.AperFunction,SMDPad,CuDef*
%ADD22R,0.250000X0.914400*%
G04 #@! TD*
G04 #@! TA.AperFunction,SMDPad,CuDef*
%ADD23R,0.812800X0.250000*%
G04 #@! TD*
G04 #@! TA.AperFunction,ViaPad*
%ADD24C,0.600000*%
G04 #@! TD*
G04 #@! TA.AperFunction,ViaPad*
%ADD25C,0.500000*%
G04 #@! TD*
G04 #@! TA.AperFunction,Conductor*
%ADD26C,0.254000*%
G04 #@! TD*
G04 APERTURE END LIST*
D10*
X111590000Y-100750000D03*
X112610000Y-100750000D03*
D11*
X102850000Y-93920000D03*
X102850000Y-94880000D03*
D12*
X113600000Y-97430000D03*
X113600000Y-96470000D03*
D13*
X114075000Y-91650000D03*
D14*
X111535000Y-91650000D03*
X108995000Y-91650000D03*
X106455000Y-91650000D03*
X103915000Y-91650000D03*
D15*
X108810000Y-100750000D03*
X107790000Y-100750000D03*
D16*
X106880000Y-100750000D03*
X105920000Y-100750000D03*
D17*
X115442500Y-94500000D03*
D18*
X115442500Y-95800000D03*
D19*
X115442500Y-97100000D03*
D20*
X103850000Y-93890000D03*
X103850000Y-94910000D03*
X112550000Y-98390000D03*
X112550000Y-99410000D03*
D21*
X112005000Y-94500000D03*
X110505000Y-94500000D03*
X109005000Y-94500000D03*
X107505000Y-94500000D03*
X106005000Y-94500000D03*
D16*
X105480000Y-96600000D03*
X104520000Y-96600000D03*
D22*
X106752600Y-96222670D03*
D23*
X106561600Y-97150000D03*
X106561600Y-97653070D03*
X106561600Y-98153070D03*
X106561600Y-98653060D03*
D22*
X106752600Y-99575470D03*
X107252600Y-99575470D03*
X107752600Y-99575470D03*
X108252600Y-99575470D03*
X108752600Y-99575470D03*
X109252600Y-99575470D03*
X109752600Y-99575470D03*
X110252600Y-99575470D03*
X110752600Y-99575470D03*
X111260600Y-99575470D03*
D23*
X111387600Y-98653070D03*
X111387600Y-98153070D03*
X111387600Y-97653070D03*
X111387600Y-97150000D03*
D22*
X111260600Y-96222670D03*
X110752600Y-96222670D03*
X110252600Y-96222670D03*
X109752600Y-96222670D03*
X109252600Y-96222670D03*
X108752600Y-96222670D03*
X108252600Y-96222670D03*
X107752600Y-96222670D03*
X107252600Y-96222670D03*
D20*
X112550000Y-96430000D03*
X112550000Y-97450000D03*
X105449000Y-97600000D03*
X105449000Y-98620000D03*
D10*
X109690000Y-100750000D03*
X110710000Y-100750000D03*
D24*
X108752600Y-97400000D03*
X106050000Y-95800000D03*
X113368845Y-98207751D03*
X107296972Y-97651535D03*
X108872180Y-98688431D03*
D25*
X109699182Y-98668268D03*
X115450000Y-95800000D03*
X110173070Y-98153070D03*
X108070429Y-98711676D03*
X105700000Y-99750000D03*
D26*
X108752600Y-97400000D02*
X108435219Y-97400000D01*
X108435219Y-97400000D02*
X107182159Y-98653060D01*
X108252600Y-96222670D02*
X108252600Y-96900000D01*
X106880000Y-100750000D02*
X106752600Y-100622600D01*
X106752600Y-100622600D02*
X106752600Y-99575470D01*
X106752600Y-99575470D02*
X106752600Y-98844060D01*
X110452200Y-97400000D02*
X110705270Y-97653070D01*
X103440001Y-95750000D02*
X105000000Y-95750000D01*
X106752600Y-98844060D02*
X106561600Y-98653060D01*
X105480000Y-96370000D02*
X106050000Y-95800000D01*
X105480000Y-96600000D02*
X105480000Y-96370000D01*
X108752600Y-97400000D02*
X110452200Y-97400000D01*
X108252600Y-96900000D02*
X108752600Y-97400000D01*
X110705270Y-97653070D02*
X111387600Y-97653070D01*
X108752600Y-97400000D02*
X108752600Y-96222670D01*
X107182159Y-98653060D02*
X106561600Y-98653060D01*
X106561600Y-97150000D02*
X106030000Y-97150000D01*
X102850000Y-95159999D02*
X103440001Y-95750000D01*
X113600000Y-97430000D02*
X115112500Y-97430000D01*
X102850000Y-94880000D02*
X102850000Y-95159999D01*
X115112500Y-97430000D02*
X115442500Y-97100000D01*
X105000000Y-95750000D02*
X105480000Y-96230000D01*
X106030000Y-97150000D02*
X105480000Y-96600000D01*
X105480000Y-96230000D02*
X105480000Y-96600000D01*
X111900000Y-96637600D02*
X111900000Y-94605000D01*
X111387600Y-97150000D02*
X111900000Y-96637600D01*
X112250000Y-97150000D02*
X111387600Y-97150000D01*
X111900000Y-96800000D02*
X112550000Y-97450000D01*
X111900000Y-96637600D02*
X111900000Y-96800000D01*
X111900000Y-94605000D02*
X112005000Y-94500000D01*
X112550000Y-97450000D02*
X112250000Y-97150000D01*
X103850000Y-94910000D02*
X105595000Y-94910000D01*
X106943470Y-95438470D02*
X111204600Y-95438470D01*
X111260600Y-95494470D02*
X111260600Y-96222670D01*
X105595000Y-94910000D02*
X106005000Y-94500000D01*
X111204600Y-95438470D02*
X111260600Y-95494470D01*
X106005000Y-94500000D02*
X106943470Y-95438470D01*
X109610000Y-100910000D02*
X110097000Y-101397000D01*
X103595682Y-96600000D02*
X102213000Y-95217318D01*
X112560000Y-101037000D02*
X112560000Y-100750000D01*
X107295000Y-96265070D02*
X107295000Y-97506070D01*
X104520000Y-96671000D02*
X105449000Y-97600000D01*
X113600000Y-96470000D02*
X113600000Y-95587500D01*
X110097000Y-101397000D02*
X112200000Y-101397000D01*
X102540001Y-93920000D02*
X102850000Y-93920000D01*
X102213000Y-94247001D02*
X102540001Y-93920000D01*
X112550000Y-99410000D02*
X112550000Y-100740000D01*
X107740000Y-100750000D02*
X107740000Y-100940000D01*
X109122999Y-101397000D02*
X109610000Y-100910000D01*
X113560000Y-96430000D02*
X113600000Y-96470000D01*
X112550000Y-100740000D02*
X112560000Y-100750000D01*
X113368845Y-98591155D02*
X112550000Y-99410000D01*
X104520000Y-96600000D02*
X104520000Y-96671000D01*
X107740000Y-100940000D02*
X108197000Y-101397000D01*
X107295000Y-97506070D02*
X107148000Y-97653070D01*
X102850000Y-93920000D02*
X103820000Y-93920000D01*
X108197000Y-101397000D02*
X109122999Y-101397000D01*
X102213000Y-95217318D02*
X102213000Y-94247001D01*
X108432000Y-93573000D02*
X114515500Y-93573000D01*
X108752600Y-99575470D02*
X108752600Y-98808011D01*
X103820000Y-93920000D02*
X103850000Y-93890000D01*
X107296972Y-97651535D02*
X107295437Y-97653070D01*
X103850000Y-93890000D02*
X104215000Y-93890000D01*
X104215000Y-93890000D02*
X106455000Y-91650000D01*
X108752600Y-98808011D02*
X108872180Y-98688431D01*
X105449000Y-97600000D02*
X105502070Y-97653070D01*
X114515500Y-93573000D02*
X115442500Y-94500000D01*
X104520000Y-96600000D02*
X103595682Y-96600000D01*
X113368845Y-98207751D02*
X113368845Y-98591155D01*
X105502070Y-97653070D02*
X106561600Y-97653070D01*
X114687500Y-94500000D02*
X115442500Y-94500000D01*
X107148000Y-97653070D02*
X106561600Y-97653070D01*
X113600000Y-95587500D02*
X114687500Y-94500000D01*
X107295437Y-97653070D02*
X106561600Y-97653070D01*
X112200000Y-101397000D02*
X112560000Y-101037000D01*
X107252600Y-96222670D02*
X107295000Y-96265070D01*
X107505000Y-94500000D02*
X108432000Y-93573000D01*
X112550000Y-96430000D02*
X113560000Y-96430000D01*
X110752600Y-100657400D02*
X110752600Y-99575470D01*
X110752600Y-99017332D02*
X110465338Y-98730070D01*
X110465338Y-98730070D02*
X109760984Y-98730070D01*
X110752600Y-99575470D02*
X110752600Y-99017332D01*
X109760984Y-98730070D02*
X109699182Y-98668268D01*
X110660000Y-100750000D02*
X110752600Y-100657400D01*
X110173070Y-98153070D02*
X111387600Y-98153070D01*
X115442500Y-95800000D02*
X115450000Y-95800000D01*
X108125006Y-98711676D02*
X108252600Y-98839270D01*
X105920000Y-99970000D02*
X105700000Y-99750000D01*
X108070429Y-98711676D02*
X108125006Y-98711676D01*
X108252600Y-98839270D02*
X108252600Y-99575470D01*
X105920000Y-100750000D02*
X105920000Y-99970000D01*
X105915930Y-98153070D02*
X105449000Y-98620000D01*
X106561600Y-98153070D02*
X105915930Y-98153070D01*
X109252600Y-100160292D02*
X108760000Y-100652892D01*
X109252600Y-99575470D02*
X109252600Y-100160292D01*
X108760000Y-100652892D02*
X108760000Y-100750000D01*
X111260600Y-100470600D02*
X111540000Y-100750000D01*
X111260600Y-99575470D02*
X111260600Y-100470600D01*
X112550000Y-98390000D02*
X112286930Y-98653070D01*
X112286930Y-98653070D02*
X111387600Y-98653070D01*
G04 #@! TA.AperFunction,Conductor*
G36*
X109805627Y-98441853D02*
G01*
X109820470Y-98448130D01*
X109837178Y-98455195D01*
X109841463Y-98458309D01*
X109856900Y-98476124D01*
X109875021Y-98497037D01*
X109984001Y-98567074D01*
X110080084Y-98595286D01*
X110108297Y-98603570D01*
X110175189Y-98603570D01*
X110183462Y-98606997D01*
X110186889Y-98615270D01*
X110186889Y-98846746D01*
X110183462Y-98855019D01*
X110176646Y-98858355D01*
X109712286Y-98916623D01*
X109703650Y-98914253D01*
X109699220Y-98906471D01*
X109699129Y-98905061D01*
X109698191Y-98670642D01*
X109699097Y-98666080D01*
X109790319Y-98448129D01*
X109796675Y-98441821D01*
X109805627Y-98441853D01*
G37*
G04 #@! TD.AperFunction*
G04 #@! TA.AperFunction,Conductor*
G36*
X116280632Y-89857573D02*
G01*
X116281149Y-89857607D01*
X116284100Y-89857607D01*
X116284104Y-89857608D01*
X116347245Y-89857607D01*
X116352732Y-89857915D01*
X116392477Y-89862393D01*
X116455661Y-89869512D01*
X116466357Y-89871953D01*
X116561507Y-89905247D01*
X116571392Y-89910007D01*
X116650120Y-89959475D01*
X116656754Y-89963643D01*
X116665333Y-89970485D01*
X116736614Y-90041766D01*
X116743456Y-90050345D01*
X116797092Y-90135707D01*
X116801852Y-90145593D01*
X116835145Y-90240741D01*
X116837587Y-90251438D01*
X116849184Y-90354368D01*
X116849492Y-90359854D01*
X116849492Y-90425991D01*
X116849493Y-90426008D01*
X116849497Y-99172389D01*
X116835145Y-99207037D01*
X116800497Y-99221389D01*
X116765849Y-99207037D01*
X116755227Y-99191140D01*
X116718284Y-99101951D01*
X116600273Y-98897550D01*
X116600270Y-98897546D01*
X116600264Y-98897537D01*
X116456596Y-98710306D01*
X116456586Y-98710294D01*
X116289705Y-98543413D01*
X116289693Y-98543403D01*
X116102462Y-98399735D01*
X116102447Y-98399725D01*
X115898050Y-98281716D01*
X115679996Y-98191395D01*
X115679986Y-98191391D01*
X115452025Y-98130309D01*
X115452018Y-98130308D01*
X115452014Y-98130307D01*
X115218011Y-98099500D01*
X114981989Y-98099500D01*
X114747986Y-98130307D01*
X114747982Y-98130307D01*
X114747974Y-98130309D01*
X114520013Y-98191391D01*
X114520003Y-98191395D01*
X114301949Y-98281717D01*
X114240680Y-98317090D01*
X114203498Y-98321984D01*
X114173745Y-98299153D01*
X114167489Y-98269169D01*
X114174410Y-98207751D01*
X114163172Y-98108012D01*
X114173554Y-98071977D01*
X114177216Y-98067880D01*
X114279718Y-97965378D01*
X114279722Y-97965373D01*
X114362031Y-97826197D01*
X114404505Y-97680000D01*
X113993468Y-97680000D01*
X113958820Y-97665648D01*
X113871108Y-97577936D01*
X113871104Y-97577933D01*
X113718371Y-97481963D01*
X113548103Y-97422384D01*
X113548102Y-97422383D01*
X113548100Y-97422383D01*
X113548096Y-97422382D01*
X113548094Y-97422382D01*
X113414012Y-97407274D01*
X113381189Y-97389133D01*
X113370499Y-97358582D01*
X113370499Y-97299500D01*
X113384851Y-97264852D01*
X113419499Y-97250500D01*
X113834679Y-97250500D01*
X113834690Y-97250500D01*
X113870993Y-97247643D01*
X114026395Y-97202494D01*
X114052892Y-97186823D01*
X114077835Y-97180000D01*
X114404505Y-97180000D01*
X114404505Y-97179999D01*
X114362032Y-97033804D01*
X114327510Y-96975434D01*
X114322225Y-96938305D01*
X114327504Y-96925558D01*
X114362494Y-96866395D01*
X114388477Y-96776961D01*
X114411924Y-96747694D01*
X114449200Y-96743579D01*
X114452633Y-96744715D01*
X114585017Y-96794091D01*
X114585020Y-96794092D01*
X114628677Y-96798785D01*
X114644627Y-96800500D01*
X116240372Y-96800499D01*
X116240378Y-96800499D01*
X116299978Y-96794092D01*
X116299979Y-96794091D01*
X116299983Y-96794091D01*
X116434831Y-96743796D01*
X116550046Y-96657546D01*
X116636296Y-96542331D01*
X116686591Y-96407483D01*
X116686591Y-96407481D01*
X116686592Y-96407479D01*
X116691125Y-96365310D01*
X116693000Y-96347873D01*
X116692999Y-95252128D01*
X116692999Y-95252120D01*
X116686592Y-95192521D01*
X116686591Y-95192517D01*
X116684405Y-95186657D01*
X116681815Y-95162565D01*
X116698000Y-95050000D01*
X116698000Y-94428111D01*
X116677524Y-94285696D01*
X116637017Y-94147741D01*
X116577247Y-94016863D01*
X116500936Y-93898121D01*
X116500615Y-93897556D01*
X116499514Y-93895908D01*
X116499513Y-93895905D01*
X116499509Y-93895900D01*
X116405291Y-93787167D01*
X116296631Y-93693015D01*
X116296625Y-93693010D01*
X116175602Y-93615234D01*
X116175601Y-93615233D01*
X116047198Y-93556593D01*
X116045497Y-93555703D01*
X115906754Y-93514964D01*
X115764445Y-93494503D01*
X115764441Y-93494503D01*
X115677035Y-93494503D01*
X115677028Y-93494500D01*
X115656736Y-93494500D01*
X115344715Y-93494500D01*
X115310067Y-93480148D01*
X114914066Y-93084147D01*
X114899714Y-93049499D01*
X114914066Y-93014851D01*
X114948714Y-93000499D01*
X114972878Y-93000499D01*
X115032478Y-92994092D01*
X115032479Y-92994091D01*
X115032483Y-92994091D01*
X115167331Y-92943796D01*
X115282546Y-92857546D01*
X115368796Y-92742331D01*
X115419091Y-92607483D01*
X115419091Y-92607481D01*
X115419092Y-92607479D01*
X115425499Y-92547879D01*
X115425500Y-92547873D01*
X115425499Y-90752128D01*
X115425499Y-90752127D01*
X115425499Y-90752120D01*
X115419092Y-90692521D01*
X115389017Y-90611885D01*
X115368796Y-90557669D01*
X115282546Y-90442454D01*
X115194534Y-90376568D01*
X115167333Y-90356205D01*
X115167331Y-90356204D01*
X115122381Y-90339439D01*
X115032479Y-90305907D01*
X114972879Y-90299500D01*
X113177120Y-90299500D01*
X113117521Y-90305907D01*
X112982666Y-90356205D01*
X112867454Y-90442454D01*
X112781205Y-90557666D01*
X112730907Y-90692520D01*
X112724500Y-90752120D01*
X112724500Y-90839721D01*
X112710148Y-90874369D01*
X112675500Y-90888721D01*
X112640852Y-90874369D01*
X112635362Y-90867826D01*
X112573114Y-90778927D01*
X112573108Y-90778920D01*
X112406079Y-90611891D01*
X112406072Y-90611885D01*
X112212589Y-90476405D01*
X112212577Y-90476398D01*
X111998488Y-90376568D01*
X111998483Y-90376566D01*
X111785000Y-90319363D01*
X111785000Y-91216988D01*
X111727993Y-91184075D01*
X111600826Y-91150000D01*
X111469174Y-91150000D01*
X111342007Y-91184075D01*
X111285000Y-91216988D01*
X111285000Y-90319363D01*
X111284999Y-90319363D01*
X111071516Y-90376566D01*
X111071511Y-90376567D01*
X110857423Y-90476398D01*
X110857411Y-90476405D01*
X110663927Y-90611885D01*
X110663920Y-90611891D01*
X110496891Y-90778920D01*
X110496885Y-90778927D01*
X110361405Y-90972411D01*
X110361398Y-90972423D01*
X110309685Y-91083324D01*
X110282035Y-91108661D01*
X110244568Y-91107025D01*
X110220867Y-91083324D01*
X110169036Y-90972172D01*
X110169028Y-90972160D01*
X110033499Y-90778604D01*
X110033493Y-90778597D01*
X109866402Y-90611506D01*
X109866395Y-90611500D01*
X109672840Y-90475970D01*
X109672828Y-90475963D01*
X109458660Y-90376095D01*
X109458655Y-90376094D01*
X109230416Y-90314938D01*
X109230410Y-90314937D01*
X108995000Y-90294341D01*
X108759589Y-90314937D01*
X108759583Y-90314938D01*
X108531344Y-90376094D01*
X108531339Y-90376095D01*
X108317172Y-90475963D01*
X108317160Y-90475971D01*
X108123604Y-90611500D01*
X108123597Y-90611506D01*
X107956506Y-90778597D01*
X107956500Y-90778604D01*
X107820971Y-90972160D01*
X107820963Y-90972172D01*
X107769409Y-91082732D01*
X107741759Y-91108069D01*
X107704292Y-91106433D01*
X107680591Y-91082732D01*
X107629036Y-90972172D01*
X107629028Y-90972160D01*
X107493499Y-90778604D01*
X107493493Y-90778597D01*
X107326402Y-90611506D01*
X107326395Y-90611500D01*
X107132840Y-90475970D01*
X107132828Y-90475963D01*
X106918660Y-90376095D01*
X106918655Y-90376094D01*
X106690416Y-90314938D01*
X106690410Y-90314937D01*
X106455000Y-90294341D01*
X106219589Y-90314937D01*
X106219583Y-90314938D01*
X105991344Y-90376094D01*
X105991339Y-90376095D01*
X105777172Y-90475963D01*
X105777160Y-90475971D01*
X105583604Y-90611500D01*
X105583597Y-90611506D01*
X105416506Y-90778597D01*
X105416500Y-90778604D01*
X105280971Y-90972160D01*
X105280963Y-90972172D01*
X105229409Y-91082732D01*
X105201759Y-91108069D01*
X105164292Y-91106433D01*
X105140591Y-91082732D01*
X105089036Y-90972172D01*
X105089028Y-90972160D01*
X104953499Y-90778604D01*
X104953493Y-90778597D01*
X104786402Y-90611506D01*
X104786395Y-90611500D01*
X104592840Y-90475970D01*
X104592828Y-90475963D01*
X104378660Y-90376095D01*
X104378655Y-90376094D01*
X104150416Y-90314938D01*
X104150410Y-90314937D01*
X103915000Y-90294341D01*
X103679589Y-90314937D01*
X103679583Y-90314938D01*
X103451344Y-90376094D01*
X103451339Y-90376095D01*
X103237172Y-90475963D01*
X103237160Y-90475971D01*
X103043604Y-90611500D01*
X103043597Y-90611506D01*
X102876506Y-90778597D01*
X102876500Y-90778604D01*
X102740971Y-90972160D01*
X102740963Y-90972172D01*
X102641095Y-91186339D01*
X102641094Y-91186344D01*
X102579938Y-91414583D01*
X102579937Y-91414589D01*
X102559341Y-91650000D01*
X102579937Y-91885410D01*
X102579938Y-91885416D01*
X102641094Y-92113655D01*
X102641095Y-92113660D01*
X102740963Y-92327828D01*
X102740970Y-92327840D01*
X102876500Y-92521395D01*
X102876506Y-92521402D01*
X103043597Y-92688493D01*
X103043604Y-92688499D01*
X103237159Y-92824029D01*
X103237171Y-92824036D01*
X103451339Y-92923904D01*
X103451344Y-92923905D01*
X103679583Y-92985061D01*
X103679587Y-92985061D01*
X103679592Y-92985063D01*
X103915000Y-93005659D01*
X104106278Y-92988923D01*
X104142042Y-93000201D01*
X104159360Y-93033466D01*
X104148082Y-93069233D01*
X104145194Y-93072385D01*
X104112431Y-93105148D01*
X104077783Y-93119500D01*
X103600820Y-93119500D01*
X103600805Y-93119501D01*
X103564796Y-93122334D01*
X103410606Y-93167131D01*
X103351215Y-93202253D01*
X103314086Y-93207536D01*
X103301330Y-93202252D01*
X103276395Y-93187506D01*
X103276397Y-93187506D01*
X103120992Y-93142356D01*
X103084692Y-93139500D01*
X103084690Y-93139500D01*
X102615310Y-93139500D01*
X102615307Y-93139500D01*
X102579008Y-93142356D01*
X102579006Y-93142356D01*
X102423601Y-93187507D01*
X102284317Y-93269879D01*
X102284312Y-93269883D01*
X102169881Y-93384314D01*
X102146420Y-93423984D01*
X102138892Y-93433688D01*
X101812992Y-93759590D01*
X101725588Y-93846993D01*
X101656644Y-93950176D01*
X101655995Y-93951991D01*
X101609616Y-94063958D01*
X101609613Y-94063968D01*
X101597474Y-94125000D01*
X101590315Y-94160993D01*
X101585500Y-94185198D01*
X101585500Y-95155515D01*
X101585500Y-95279121D01*
X101601502Y-95359570D01*
X101609613Y-95400350D01*
X101609615Y-95400356D01*
X101625042Y-95437598D01*
X101625042Y-95437599D01*
X101656915Y-95514548D01*
X101684795Y-95556273D01*
X101689304Y-95563022D01*
X101725589Y-95617326D01*
X103108271Y-97000008D01*
X103195674Y-97087411D01*
X103298449Y-97156083D01*
X103333313Y-97170524D01*
X103412648Y-97203386D01*
X103533879Y-97227500D01*
X103911400Y-97227500D01*
X103946048Y-97241852D01*
X103984312Y-97280116D01*
X103984317Y-97280120D01*
X104123601Y-97362492D01*
X104123602Y-97362492D01*
X104123605Y-97362494D01*
X104279007Y-97407643D01*
X104315310Y-97410500D01*
X104351785Y-97410500D01*
X104386433Y-97424852D01*
X104614148Y-97652567D01*
X104628500Y-97687215D01*
X104628500Y-97799166D01*
X104628501Y-97799184D01*
X104631334Y-97835203D01*
X104676130Y-97989391D01*
X104732706Y-98085057D01*
X104737989Y-98122186D01*
X104732706Y-98134943D01*
X104676130Y-98230608D01*
X104631334Y-98384795D01*
X104631334Y-98384797D01*
X104628500Y-98420816D01*
X104628500Y-98819179D01*
X104628501Y-98819194D01*
X104631334Y-98855203D01*
X104676131Y-99009394D01*
X104757861Y-99147593D01*
X104757865Y-99147598D01*
X104871401Y-99261134D01*
X104871406Y-99261138D01*
X105009916Y-99343052D01*
X105032434Y-99373042D01*
X105027149Y-99410171D01*
X105026464Y-99411295D01*
X105019547Y-99422303D01*
X105019543Y-99422312D01*
X104963688Y-99581937D01*
X104963686Y-99581946D01*
X104944751Y-99750000D01*
X104962575Y-99908197D01*
X104963687Y-99918059D01*
X105019544Y-100077690D01*
X105019545Y-100077691D01*
X105109521Y-100220887D01*
X105109524Y-100220891D01*
X105172582Y-100283949D01*
X105186934Y-100318597D01*
X105184988Y-100332267D01*
X105142357Y-100479004D01*
X105142356Y-100479008D01*
X105139500Y-100515307D01*
X105139500Y-100984692D01*
X105142356Y-101020991D01*
X105142356Y-101020993D01*
X105187507Y-101176398D01*
X105269879Y-101315682D01*
X105269883Y-101315687D01*
X105384312Y-101430116D01*
X105384317Y-101430120D01*
X105523601Y-101512492D01*
X105523602Y-101512492D01*
X105523605Y-101512494D01*
X105620087Y-101540525D01*
X105664560Y-101553446D01*
X105693828Y-101576894D01*
X105697943Y-101614171D01*
X105674495Y-101643439D01*
X105650889Y-101649500D01*
X103627606Y-101649500D01*
X103592958Y-101635148D01*
X103578606Y-101600500D01*
X103592958Y-101565852D01*
X103608854Y-101555230D01*
X103631057Y-101546033D01*
X103698049Y-101518284D01*
X103902450Y-101400273D01*
X104089699Y-101256592D01*
X104256592Y-101089699D01*
X104400273Y-100902450D01*
X104518284Y-100698049D01*
X104608606Y-100479993D01*
X104669693Y-100252014D01*
X104700500Y-100018011D01*
X104700500Y-99781989D01*
X104669693Y-99547986D01*
X104636018Y-99422310D01*
X104608608Y-99320013D01*
X104608604Y-99320003D01*
X104584221Y-99261138D01*
X104518284Y-99101951D01*
X104400273Y-98897550D01*
X104400270Y-98897546D01*
X104400264Y-98897537D01*
X104256596Y-98710306D01*
X104256586Y-98710294D01*
X104089705Y-98543413D01*
X104089693Y-98543403D01*
X103902462Y-98399735D01*
X103902447Y-98399725D01*
X103698050Y-98281716D01*
X103479996Y-98191395D01*
X103479986Y-98191391D01*
X103252025Y-98130309D01*
X103252018Y-98130308D01*
X103252014Y-98130307D01*
X103018011Y-98099500D01*
X102781989Y-98099500D01*
X102547986Y-98130307D01*
X102547982Y-98130307D01*
X102547974Y-98130309D01*
X102320013Y-98191391D01*
X102320003Y-98191395D01*
X102101949Y-98281716D01*
X101897552Y-98399725D01*
X101897537Y-98399735D01*
X101710306Y-98543403D01*
X101710294Y-98543413D01*
X101543413Y-98710294D01*
X101543403Y-98710306D01*
X101399735Y-98897537D01*
X101399725Y-98897552D01*
X101281716Y-99101949D01*
X101244770Y-99191146D01*
X101218251Y-99217664D01*
X101180748Y-99217664D01*
X101154230Y-99191145D01*
X101150500Y-99172394D01*
X101150500Y-90352752D01*
X101150808Y-90347266D01*
X101156190Y-90299500D01*
X101162406Y-90244332D01*
X101164848Y-90233637D01*
X101198145Y-90138477D01*
X101202897Y-90128610D01*
X101256541Y-90043235D01*
X101263375Y-90034666D01*
X101334666Y-89963375D01*
X101343235Y-89956541D01*
X101428610Y-89902897D01*
X101438477Y-89898145D01*
X101533640Y-89864847D01*
X101544330Y-89862406D01*
X101647262Y-89850808D01*
X101652758Y-89850501D01*
X116280632Y-89857573D01*
G37*
G04 #@! TD.AperFunction*
G04 #@! TA.AperFunction,Conductor*
G36*
X108988144Y-97173552D02*
G01*
X109017069Y-97173548D01*
X109017138Y-97173257D01*
X109018369Y-97173548D01*
X109019010Y-97173548D01*
X109020117Y-97173961D01*
X109020118Y-97173961D01*
X109020121Y-97173962D01*
X109061680Y-97178429D01*
X109079727Y-97180370D01*
X109425472Y-97180369D01*
X109425478Y-97180369D01*
X109485077Y-97173962D01*
X109485078Y-97173961D01*
X109485083Y-97173961D01*
X109485463Y-97173818D01*
X109485684Y-97173818D01*
X109488067Y-97173256D01*
X109488199Y-97173818D01*
X109517007Y-97173816D01*
X109517140Y-97173257D01*
X109519504Y-97173816D01*
X109519728Y-97173816D01*
X109520117Y-97173961D01*
X109520121Y-97173961D01*
X109520123Y-97173962D01*
X109520122Y-97173962D01*
X109558948Y-97178135D01*
X109579727Y-97180370D01*
X109925472Y-97180369D01*
X109925478Y-97180369D01*
X109985077Y-97173962D01*
X109985078Y-97173961D01*
X109985083Y-97173961D01*
X109985463Y-97173818D01*
X109985684Y-97173818D01*
X109988067Y-97173256D01*
X109988199Y-97173818D01*
X110017007Y-97173816D01*
X110017140Y-97173257D01*
X110019504Y-97173816D01*
X110019728Y-97173816D01*
X110020117Y-97173961D01*
X110020121Y-97173961D01*
X110020123Y-97173962D01*
X110020122Y-97173962D01*
X110058948Y-97178135D01*
X110079727Y-97180370D01*
X110425472Y-97180369D01*
X110426457Y-97180263D01*
X110426612Y-97180308D01*
X110426791Y-97180299D01*
X110426794Y-97180362D01*
X110462442Y-97190825D01*
X110480419Y-97223739D01*
X110480700Y-97228981D01*
X110480700Y-97322879D01*
X110487108Y-97382481D01*
X110487108Y-97382485D01*
X110487220Y-97382783D01*
X110487214Y-97382932D01*
X110487813Y-97385464D01*
X110487117Y-97385628D01*
X110485874Y-97420261D01*
X110458420Y-97445811D01*
X110425123Y-97446147D01*
X110341135Y-97416759D01*
X110341134Y-97416758D01*
X110341129Y-97416757D01*
X110341125Y-97416756D01*
X110341123Y-97416756D01*
X110173070Y-97397821D01*
X110005016Y-97416756D01*
X110005007Y-97416758D01*
X109845380Y-97472614D01*
X109845378Y-97472615D01*
X109702182Y-97562591D01*
X109702178Y-97562594D01*
X109582594Y-97682178D01*
X109582591Y-97682182D01*
X109492615Y-97825378D01*
X109492614Y-97825380D01*
X109452539Y-97939906D01*
X109427549Y-97967870D01*
X109422474Y-97969972D01*
X109371492Y-97987812D01*
X109371488Y-97987814D01*
X109342695Y-98005906D01*
X109305722Y-98012187D01*
X109290557Y-98005906D01*
X109241951Y-97975365D01*
X109221702Y-97962642D01*
X109051435Y-97903063D01*
X109051431Y-97903062D01*
X109051429Y-97903062D01*
X108872180Y-97882866D01*
X108692930Y-97903062D01*
X108692921Y-97903064D01*
X108522660Y-97962641D01*
X108522654Y-97962644D01*
X108427987Y-98022126D01*
X108391014Y-98028407D01*
X108385735Y-98026886D01*
X108238494Y-97975365D01*
X108238493Y-97975364D01*
X108238488Y-97975363D01*
X108238482Y-97975362D01*
X108238481Y-97975362D01*
X108100651Y-97959832D01*
X108067827Y-97941691D01*
X108057445Y-97905654D01*
X108059887Y-97894956D01*
X108082340Y-97830790D01*
X108102537Y-97651535D01*
X108082340Y-97472280D01*
X108022761Y-97302013D01*
X107990393Y-97250500D01*
X107990106Y-97250043D01*
X107983824Y-97213070D01*
X108005525Y-97182484D01*
X108036833Y-97175254D01*
X108079766Y-97179870D01*
X108425435Y-97179870D01*
X108484970Y-97173469D01*
X108484973Y-97173468D01*
X108485468Y-97173284D01*
X108485754Y-97173284D01*
X108487953Y-97172764D01*
X108488076Y-97173284D01*
X108517124Y-97173284D01*
X108517247Y-97172764D01*
X108519446Y-97173284D01*
X108519732Y-97173284D01*
X108520226Y-97173468D01*
X108520229Y-97173469D01*
X108579765Y-97179870D01*
X108925435Y-97179870D01*
X108984976Y-97173468D01*
X108987958Y-97172764D01*
X108988144Y-97173552D01*
G37*
G04 #@! TD.AperFunction*
G04 #@! TA.AperFunction,Conductor*
G36*
X105645200Y-95540809D02*
G01*
X105702538Y-95563022D01*
X105702539Y-95563022D01*
X105702544Y-95563024D01*
X105903024Y-95600500D01*
X105903026Y-95600500D01*
X106085165Y-95600500D01*
X106119813Y-95614852D01*
X106134165Y-95649500D01*
X106133528Y-95654905D01*
X106133836Y-95654939D01*
X106127100Y-95717590D01*
X106127100Y-95913707D01*
X106112748Y-95948355D01*
X106078100Y-95962707D01*
X106043452Y-95948355D01*
X106015378Y-95920281D01*
X106015373Y-95920277D01*
X105876198Y-95837969D01*
X105730000Y-95795493D01*
X105730000Y-96780500D01*
X105715648Y-96815148D01*
X105681000Y-96829500D01*
X105586215Y-96829500D01*
X105551567Y-96815148D01*
X105314852Y-96578433D01*
X105300500Y-96543785D01*
X105300500Y-96365321D01*
X105300500Y-96365310D01*
X105297643Y-96329007D01*
X105252494Y-96173605D01*
X105248088Y-96166155D01*
X105236823Y-96147105D01*
X105230000Y-96122163D01*
X105230000Y-95795494D01*
X105229999Y-95795493D01*
X105083806Y-95837967D01*
X105025433Y-95872489D01*
X104988304Y-95877772D01*
X104975547Y-95872488D01*
X104916398Y-95837507D01*
X104760992Y-95792356D01*
X104724692Y-95789500D01*
X104724690Y-95789500D01*
X104315310Y-95789500D01*
X104315307Y-95789500D01*
X104279008Y-95792356D01*
X104279006Y-95792356D01*
X104123601Y-95837507D01*
X103984317Y-95919879D01*
X103984312Y-95919883D01*
X103946048Y-95958148D01*
X103911400Y-95972500D01*
X103875897Y-95972500D01*
X103841249Y-95958148D01*
X103647248Y-95764147D01*
X103632896Y-95729499D01*
X103647248Y-95694851D01*
X103681893Y-95680499D01*
X104099180Y-95680499D01*
X104099185Y-95680498D01*
X104099194Y-95680498D01*
X104119469Y-95678902D01*
X104135204Y-95677665D01*
X104289393Y-95632869D01*
X104427598Y-95551135D01*
X104427601Y-95551131D01*
X104430030Y-95549248D01*
X104430793Y-95550231D01*
X104461529Y-95537500D01*
X105533197Y-95537500D01*
X105627499Y-95537500D01*
X105645200Y-95540809D01*
G37*
G04 #@! TD.AperFunction*
M02*
