G04 #@! TF.GenerationSoftware,KiCad,Pcbnew,8.0.5-8.0.5-0~ubuntu22.04.1*
G04 #@! TF.CreationDate,2024-10-20T20:35:37-07:00*
G04 #@! TF.ProjectId,uSlime_BNO085_Module,75536c69-6d65-45f4-924e-4f3038355f4d,rev?*
G04 #@! TF.SameCoordinates,Original*
G04 #@! TF.FileFunction,Legend,Bot*
G04 #@! TF.FilePolarity,Positive*
%FSLAX46Y46*%
G04 Gerber Fmt 4.6, Leading zero omitted, Abs format (unit mm)*
G04 Created by KiCad (PCBNEW 8.0.5-8.0.5-0~ubuntu22.04.1) date 2024-10-20 20:35:37*
%MOMM*%
%LPD*%
G01*
G04 APERTURE LIST*
%ADD10C,0.100000*%
%ADD11C,0.000000*%
%ADD12R,1.700000X1.700000*%
%ADD13O,1.700000X1.700000*%
%ADD14C,3.100000*%
%ADD15C,1.200000*%
G04 APERTURE END LIST*
D10*
X127820880Y-96825200D02*
X127963737Y-96777580D01*
X127963737Y-96777580D02*
X128201832Y-96777580D01*
X128201832Y-96777580D02*
X128297070Y-96825200D01*
X128297070Y-96825200D02*
X128344689Y-96872819D01*
X128344689Y-96872819D02*
X128392308Y-96968057D01*
X128392308Y-96968057D02*
X128392308Y-97063295D01*
X128392308Y-97063295D02*
X128344689Y-97158533D01*
X128344689Y-97158533D02*
X128297070Y-97206152D01*
X128297070Y-97206152D02*
X128201832Y-97253771D01*
X128201832Y-97253771D02*
X128011356Y-97301390D01*
X128011356Y-97301390D02*
X127916118Y-97349009D01*
X127916118Y-97349009D02*
X127868499Y-97396628D01*
X127868499Y-97396628D02*
X127820880Y-97491866D01*
X127820880Y-97491866D02*
X127820880Y-97587104D01*
X127820880Y-97587104D02*
X127868499Y-97682342D01*
X127868499Y-97682342D02*
X127916118Y-97729961D01*
X127916118Y-97729961D02*
X128011356Y-97777580D01*
X128011356Y-97777580D02*
X128249451Y-97777580D01*
X128249451Y-97777580D02*
X128392308Y-97729961D01*
X128963737Y-96777580D02*
X128868499Y-96825200D01*
X128868499Y-96825200D02*
X128820880Y-96920438D01*
X128820880Y-96920438D02*
X128820880Y-97777580D01*
X129344690Y-96777580D02*
X129344690Y-97444247D01*
X129344690Y-97777580D02*
X129297071Y-97729961D01*
X129297071Y-97729961D02*
X129344690Y-97682342D01*
X129344690Y-97682342D02*
X129392309Y-97729961D01*
X129392309Y-97729961D02*
X129344690Y-97777580D01*
X129344690Y-97777580D02*
X129344690Y-97682342D01*
X129820880Y-96777580D02*
X129820880Y-97444247D01*
X129820880Y-97349009D02*
X129868499Y-97396628D01*
X129868499Y-97396628D02*
X129963737Y-97444247D01*
X129963737Y-97444247D02*
X130106594Y-97444247D01*
X130106594Y-97444247D02*
X130201832Y-97396628D01*
X130201832Y-97396628D02*
X130249451Y-97301390D01*
X130249451Y-97301390D02*
X130249451Y-96777580D01*
X130249451Y-97301390D02*
X130297070Y-97396628D01*
X130297070Y-97396628D02*
X130392308Y-97444247D01*
X130392308Y-97444247D02*
X130535165Y-97444247D01*
X130535165Y-97444247D02*
X130630404Y-97396628D01*
X130630404Y-97396628D02*
X130678023Y-97301390D01*
X130678023Y-97301390D02*
X130678023Y-96777580D01*
X131535165Y-96825200D02*
X131439927Y-96777580D01*
X131439927Y-96777580D02*
X131249451Y-96777580D01*
X131249451Y-96777580D02*
X131154213Y-96825200D01*
X131154213Y-96825200D02*
X131106594Y-96920438D01*
X131106594Y-96920438D02*
X131106594Y-97301390D01*
X131106594Y-97301390D02*
X131154213Y-97396628D01*
X131154213Y-97396628D02*
X131249451Y-97444247D01*
X131249451Y-97444247D02*
X131439927Y-97444247D01*
X131439927Y-97444247D02*
X131535165Y-97396628D01*
X131535165Y-97396628D02*
X131582784Y-97301390D01*
X131582784Y-97301390D02*
X131582784Y-97206152D01*
X131582784Y-97206152D02*
X131106594Y-97110914D01*
X115233333Y-94648033D02*
X115233333Y-94181366D01*
X115066667Y-94914700D02*
X114900000Y-94414700D01*
X114900000Y-94414700D02*
X115333333Y-94414700D01*
X115566667Y-94381366D02*
X115900000Y-94381366D01*
X115500000Y-94181366D02*
X115733334Y-94881366D01*
X115733334Y-94881366D02*
X115966667Y-94181366D01*
X115183333Y-97148033D02*
X115183333Y-96681366D01*
X115016667Y-97414700D02*
X114850000Y-96914700D01*
X114850000Y-96914700D02*
X115283333Y-96914700D01*
X115783334Y-97048033D02*
X115883334Y-97014700D01*
X115883334Y-97014700D02*
X115916667Y-96981366D01*
X115916667Y-96981366D02*
X115950000Y-96914700D01*
X115950000Y-96914700D02*
X115950000Y-96814700D01*
X115950000Y-96814700D02*
X115916667Y-96748033D01*
X115916667Y-96748033D02*
X115883334Y-96714700D01*
X115883334Y-96714700D02*
X115816667Y-96681366D01*
X115816667Y-96681366D02*
X115550000Y-96681366D01*
X115550000Y-96681366D02*
X115550000Y-97381366D01*
X115550000Y-97381366D02*
X115783334Y-97381366D01*
X115783334Y-97381366D02*
X115850000Y-97348033D01*
X115850000Y-97348033D02*
X115883334Y-97314700D01*
X115883334Y-97314700D02*
X115916667Y-97248033D01*
X115916667Y-97248033D02*
X115916667Y-97181366D01*
X115916667Y-97181366D02*
X115883334Y-97114700D01*
X115883334Y-97114700D02*
X115850000Y-97081366D01*
X115850000Y-97081366D02*
X115783334Y-97048033D01*
X115783334Y-97048033D02*
X115550000Y-97048033D01*
X101776628Y-96782142D02*
X101176628Y-96857142D01*
X101748057Y-96785713D02*
X101776628Y-96724999D01*
X101776628Y-96724999D02*
X101776628Y-96610713D01*
X101776628Y-96610713D02*
X101748057Y-96557142D01*
X101748057Y-96557142D02*
X101719485Y-96532142D01*
X101719485Y-96532142D02*
X101662342Y-96510713D01*
X101662342Y-96510713D02*
X101490914Y-96532142D01*
X101490914Y-96532142D02*
X101433771Y-96567856D01*
X101433771Y-96567856D02*
X101405200Y-96599999D01*
X101405200Y-96599999D02*
X101376628Y-96660713D01*
X101376628Y-96660713D02*
X101376628Y-96774999D01*
X101376628Y-96774999D02*
X101405200Y-96828570D01*
X101405200Y-96057142D02*
X101376628Y-96117856D01*
X101376628Y-96117856D02*
X101376628Y-96232142D01*
X101376628Y-96232142D02*
X101405200Y-96285713D01*
X101405200Y-96285713D02*
X101462342Y-96307142D01*
X101462342Y-96307142D02*
X101690914Y-96278571D01*
X101690914Y-96278571D02*
X101748057Y-96242856D01*
X101748057Y-96242856D02*
X101776628Y-96182142D01*
X101776628Y-96182142D02*
X101776628Y-96067856D01*
X101776628Y-96067856D02*
X101748057Y-96014285D01*
X101748057Y-96014285D02*
X101690914Y-95992856D01*
X101690914Y-95992856D02*
X101633771Y-95999999D01*
X101633771Y-95999999D02*
X101576628Y-96292856D01*
X101376628Y-95774999D02*
X101776628Y-95724999D01*
X101976628Y-95699999D02*
X101948057Y-95732142D01*
X101948057Y-95732142D02*
X101919485Y-95707142D01*
X101919485Y-95707142D02*
X101948057Y-95674999D01*
X101948057Y-95674999D02*
X101976628Y-95699999D01*
X101976628Y-95699999D02*
X101919485Y-95707142D01*
X101605200Y-95460713D02*
X101605200Y-95003571D01*
X101376628Y-94660714D02*
X101405200Y-94714285D01*
X101405200Y-94714285D02*
X101462342Y-94735714D01*
X101462342Y-94735714D02*
X101976628Y-94671428D01*
X101776628Y-94124999D02*
X101376628Y-94174999D01*
X101776628Y-94382142D02*
X101462342Y-94421428D01*
X101462342Y-94421428D02*
X101405200Y-94399999D01*
X101405200Y-94399999D02*
X101376628Y-94346428D01*
X101376628Y-94346428D02*
X101376628Y-94260713D01*
X101376628Y-94260713D02*
X101405200Y-94199999D01*
X101405200Y-94199999D02*
X101433771Y-94167856D01*
X107183334Y-96298033D02*
X107350000Y-95831366D01*
X107350000Y-95831366D02*
X107516667Y-96298033D01*
X107916667Y-96531366D02*
X107983333Y-96531366D01*
X107983333Y-96531366D02*
X108050000Y-96498033D01*
X108050000Y-96498033D02*
X108083333Y-96464700D01*
X108083333Y-96464700D02*
X108116667Y-96398033D01*
X108116667Y-96398033D02*
X108150000Y-96264700D01*
X108150000Y-96264700D02*
X108150000Y-96098033D01*
X108150000Y-96098033D02*
X108116667Y-95964700D01*
X108116667Y-95964700D02*
X108083333Y-95898033D01*
X108083333Y-95898033D02*
X108050000Y-95864700D01*
X108050000Y-95864700D02*
X107983333Y-95831366D01*
X107983333Y-95831366D02*
X107916667Y-95831366D01*
X107916667Y-95831366D02*
X107850000Y-95864700D01*
X107850000Y-95864700D02*
X107816667Y-95898033D01*
X107816667Y-95898033D02*
X107783333Y-95964700D01*
X107783333Y-95964700D02*
X107750000Y-96098033D01*
X107750000Y-96098033D02*
X107750000Y-96264700D01*
X107750000Y-96264700D02*
X107783333Y-96398033D01*
X107783333Y-96398033D02*
X107816667Y-96464700D01*
X107816667Y-96464700D02*
X107850000Y-96498033D01*
X107850000Y-96498033D02*
X107916667Y-96531366D01*
X108450000Y-95898033D02*
X108483334Y-95864700D01*
X108483334Y-95864700D02*
X108450000Y-95831366D01*
X108450000Y-95831366D02*
X108416667Y-95864700D01*
X108416667Y-95864700D02*
X108450000Y-95898033D01*
X108450000Y-95898033D02*
X108450000Y-95831366D01*
X108916667Y-96531366D02*
X108983333Y-96531366D01*
X108983333Y-96531366D02*
X109050000Y-96498033D01*
X109050000Y-96498033D02*
X109083333Y-96464700D01*
X109083333Y-96464700D02*
X109116667Y-96398033D01*
X109116667Y-96398033D02*
X109150000Y-96264700D01*
X109150000Y-96264700D02*
X109150000Y-96098033D01*
X109150000Y-96098033D02*
X109116667Y-95964700D01*
X109116667Y-95964700D02*
X109083333Y-95898033D01*
X109083333Y-95898033D02*
X109050000Y-95864700D01*
X109050000Y-95864700D02*
X108983333Y-95831366D01*
X108983333Y-95831366D02*
X108916667Y-95831366D01*
X108916667Y-95831366D02*
X108850000Y-95864700D01*
X108850000Y-95864700D02*
X108816667Y-95898033D01*
X108816667Y-95898033D02*
X108783333Y-95964700D01*
X108783333Y-95964700D02*
X108750000Y-96098033D01*
X108750000Y-96098033D02*
X108750000Y-96264700D01*
X108750000Y-96264700D02*
X108783333Y-96398033D01*
X108783333Y-96398033D02*
X108816667Y-96464700D01*
X108816667Y-96464700D02*
X108850000Y-96498033D01*
X108850000Y-96498033D02*
X108916667Y-96531366D01*
X109450000Y-95898033D02*
X109483334Y-95864700D01*
X109483334Y-95864700D02*
X109450000Y-95831366D01*
X109450000Y-95831366D02*
X109416667Y-95864700D01*
X109416667Y-95864700D02*
X109450000Y-95898033D01*
X109450000Y-95898033D02*
X109450000Y-95831366D01*
X110116667Y-96531366D02*
X109783333Y-96531366D01*
X109783333Y-96531366D02*
X109750000Y-96198033D01*
X109750000Y-96198033D02*
X109783333Y-96231366D01*
X109783333Y-96231366D02*
X109850000Y-96264700D01*
X109850000Y-96264700D02*
X110016667Y-96264700D01*
X110016667Y-96264700D02*
X110083333Y-96231366D01*
X110083333Y-96231366D02*
X110116667Y-96198033D01*
X110116667Y-96198033D02*
X110150000Y-96131366D01*
X110150000Y-96131366D02*
X110150000Y-95964700D01*
X110150000Y-95964700D02*
X110116667Y-95898033D01*
X110116667Y-95898033D02*
X110083333Y-95864700D01*
X110083333Y-95864700D02*
X110016667Y-95831366D01*
X110016667Y-95831366D02*
X109850000Y-95831366D01*
X109850000Y-95831366D02*
X109783333Y-95864700D01*
X109783333Y-95864700D02*
X109750000Y-95898033D01*
X110750000Y-95831366D02*
X110750000Y-96198033D01*
X110750000Y-96198033D02*
X110716667Y-96264700D01*
X110716667Y-96264700D02*
X110650000Y-96298033D01*
X110650000Y-96298033D02*
X110516667Y-96298033D01*
X110516667Y-96298033D02*
X110450000Y-96264700D01*
X110750000Y-95864700D02*
X110683334Y-95831366D01*
X110683334Y-95831366D02*
X110516667Y-95831366D01*
X110516667Y-95831366D02*
X110450000Y-95864700D01*
X110450000Y-95864700D02*
X110416667Y-95931366D01*
X110416667Y-95931366D02*
X110416667Y-95998033D01*
X110416667Y-95998033D02*
X110450000Y-96064700D01*
X110450000Y-96064700D02*
X110516667Y-96098033D01*
X110516667Y-96098033D02*
X110683334Y-96098033D01*
X110683334Y-96098033D02*
X110750000Y-96131366D01*
X102226628Y-97246428D02*
X102512342Y-97410713D01*
X102226628Y-97589285D02*
X102826628Y-97514285D01*
X102826628Y-97514285D02*
X102826628Y-97285713D01*
X102826628Y-97285713D02*
X102798057Y-97232142D01*
X102798057Y-97232142D02*
X102769485Y-97207142D01*
X102769485Y-97207142D02*
X102712342Y-97185713D01*
X102712342Y-97185713D02*
X102626628Y-97196428D01*
X102626628Y-97196428D02*
X102569485Y-97232142D01*
X102569485Y-97232142D02*
X102540914Y-97264285D01*
X102540914Y-97264285D02*
X102512342Y-97324999D01*
X102512342Y-97324999D02*
X102512342Y-97553571D01*
X102255200Y-96757142D02*
X102226628Y-96817856D01*
X102226628Y-96817856D02*
X102226628Y-96932142D01*
X102226628Y-96932142D02*
X102255200Y-96985713D01*
X102255200Y-96985713D02*
X102312342Y-97007142D01*
X102312342Y-97007142D02*
X102540914Y-96978571D01*
X102540914Y-96978571D02*
X102598057Y-96942856D01*
X102598057Y-96942856D02*
X102626628Y-96882142D01*
X102626628Y-96882142D02*
X102626628Y-96767856D01*
X102626628Y-96767856D02*
X102598057Y-96714285D01*
X102598057Y-96714285D02*
X102540914Y-96692856D01*
X102540914Y-96692856D02*
X102483771Y-96699999D01*
X102483771Y-96699999D02*
X102426628Y-96992856D01*
X102255200Y-96499999D02*
X102226628Y-96417856D01*
X102226628Y-96417856D02*
X102226628Y-96274999D01*
X102226628Y-96274999D02*
X102255200Y-96214285D01*
X102255200Y-96214285D02*
X102283771Y-96182142D01*
X102283771Y-96182142D02*
X102340914Y-96146427D01*
X102340914Y-96146427D02*
X102398057Y-96139285D01*
X102398057Y-96139285D02*
X102455200Y-96160713D01*
X102455200Y-96160713D02*
X102483771Y-96185713D01*
X102483771Y-96185713D02*
X102512342Y-96239285D01*
X102512342Y-96239285D02*
X102540914Y-96349999D01*
X102540914Y-96349999D02*
X102569485Y-96403570D01*
X102569485Y-96403570D02*
X102598057Y-96428570D01*
X102598057Y-96428570D02*
X102655200Y-96449999D01*
X102655200Y-96449999D02*
X102712342Y-96442856D01*
X102712342Y-96442856D02*
X102769485Y-96407142D01*
X102769485Y-96407142D02*
X102798057Y-96374999D01*
X102798057Y-96374999D02*
X102826628Y-96314285D01*
X102826628Y-96314285D02*
X102826628Y-96171427D01*
X102826628Y-96171427D02*
X102798057Y-96089285D01*
X102626628Y-95596427D02*
X102226628Y-95646427D01*
X102626628Y-95853570D02*
X102312342Y-95892856D01*
X102312342Y-95892856D02*
X102255200Y-95871427D01*
X102255200Y-95871427D02*
X102226628Y-95817856D01*
X102226628Y-95817856D02*
X102226628Y-95732141D01*
X102226628Y-95732141D02*
X102255200Y-95671427D01*
X102255200Y-95671427D02*
X102283771Y-95639284D01*
X102226628Y-95360713D02*
X102626628Y-95310713D01*
X102569485Y-95317856D02*
X102598057Y-95285713D01*
X102598057Y-95285713D02*
X102626628Y-95224999D01*
X102626628Y-95224999D02*
X102626628Y-95139284D01*
X102626628Y-95139284D02*
X102598057Y-95085713D01*
X102598057Y-95085713D02*
X102540914Y-95064284D01*
X102540914Y-95064284D02*
X102226628Y-95103570D01*
X102540914Y-95064284D02*
X102598057Y-95028570D01*
X102598057Y-95028570D02*
X102626628Y-94967856D01*
X102626628Y-94967856D02*
X102626628Y-94882141D01*
X102626628Y-94882141D02*
X102598057Y-94828570D01*
X102598057Y-94828570D02*
X102540914Y-94807141D01*
X102540914Y-94807141D02*
X102226628Y-94846427D01*
X102226628Y-94560713D02*
X102626628Y-94510713D01*
X102569485Y-94517856D02*
X102598057Y-94485713D01*
X102598057Y-94485713D02*
X102626628Y-94424999D01*
X102626628Y-94424999D02*
X102626628Y-94339284D01*
X102626628Y-94339284D02*
X102598057Y-94285713D01*
X102598057Y-94285713D02*
X102540914Y-94264284D01*
X102540914Y-94264284D02*
X102226628Y-94303570D01*
X102540914Y-94264284D02*
X102598057Y-94228570D01*
X102598057Y-94228570D02*
X102626628Y-94167856D01*
X102626628Y-94167856D02*
X102626628Y-94082141D01*
X102626628Y-94082141D02*
X102598057Y-94028570D01*
X102598057Y-94028570D02*
X102540914Y-94007141D01*
X102540914Y-94007141D02*
X102226628Y-94046427D01*
X102226628Y-93760713D02*
X102626628Y-93710713D01*
X102826628Y-93685713D02*
X102798057Y-93717856D01*
X102798057Y-93717856D02*
X102769485Y-93692856D01*
X102769485Y-93692856D02*
X102798057Y-93660713D01*
X102798057Y-93660713D02*
X102826628Y-93685713D01*
X102826628Y-93685713D02*
X102769485Y-93692856D01*
X102626628Y-93510713D02*
X102626628Y-93282142D01*
X102826628Y-93399999D02*
X102312342Y-93464285D01*
X102312342Y-93464285D02*
X102255200Y-93442856D01*
X102255200Y-93442856D02*
X102226628Y-93389285D01*
X102226628Y-93389285D02*
X102226628Y-93332142D01*
X103235771Y-97499999D02*
X103207200Y-97528571D01*
X103207200Y-97528571D02*
X103178628Y-97614285D01*
X103178628Y-97614285D02*
X103178628Y-97671428D01*
X103178628Y-97671428D02*
X103207200Y-97757142D01*
X103207200Y-97757142D02*
X103264342Y-97814285D01*
X103264342Y-97814285D02*
X103321485Y-97842856D01*
X103321485Y-97842856D02*
X103435771Y-97871428D01*
X103435771Y-97871428D02*
X103521485Y-97871428D01*
X103521485Y-97871428D02*
X103635771Y-97842856D01*
X103635771Y-97842856D02*
X103692914Y-97814285D01*
X103692914Y-97814285D02*
X103750057Y-97757142D01*
X103750057Y-97757142D02*
X103778628Y-97671428D01*
X103778628Y-97671428D02*
X103778628Y-97614285D01*
X103778628Y-97614285D02*
X103750057Y-97528571D01*
X103750057Y-97528571D02*
X103721485Y-97499999D01*
X103178628Y-97242856D02*
X103578628Y-97242856D01*
X103464342Y-97242856D02*
X103521485Y-97214285D01*
X103521485Y-97214285D02*
X103550057Y-97185714D01*
X103550057Y-97185714D02*
X103578628Y-97128571D01*
X103578628Y-97128571D02*
X103578628Y-97071428D01*
X103207200Y-96642856D02*
X103178628Y-96699999D01*
X103178628Y-96699999D02*
X103178628Y-96814285D01*
X103178628Y-96814285D02*
X103207200Y-96871427D01*
X103207200Y-96871427D02*
X103264342Y-96899999D01*
X103264342Y-96899999D02*
X103492914Y-96899999D01*
X103492914Y-96899999D02*
X103550057Y-96871427D01*
X103550057Y-96871427D02*
X103578628Y-96814285D01*
X103578628Y-96814285D02*
X103578628Y-96699999D01*
X103578628Y-96699999D02*
X103550057Y-96642856D01*
X103550057Y-96642856D02*
X103492914Y-96614285D01*
X103492914Y-96614285D02*
X103435771Y-96614285D01*
X103435771Y-96614285D02*
X103378628Y-96899999D01*
X103178628Y-96099999D02*
X103492914Y-96099999D01*
X103492914Y-96099999D02*
X103550057Y-96128570D01*
X103550057Y-96128570D02*
X103578628Y-96185713D01*
X103578628Y-96185713D02*
X103578628Y-96299999D01*
X103578628Y-96299999D02*
X103550057Y-96357141D01*
X103207200Y-96099999D02*
X103178628Y-96157141D01*
X103178628Y-96157141D02*
X103178628Y-96299999D01*
X103178628Y-96299999D02*
X103207200Y-96357141D01*
X103207200Y-96357141D02*
X103264342Y-96385713D01*
X103264342Y-96385713D02*
X103321485Y-96385713D01*
X103321485Y-96385713D02*
X103378628Y-96357141D01*
X103378628Y-96357141D02*
X103407200Y-96299999D01*
X103407200Y-96299999D02*
X103407200Y-96157141D01*
X103407200Y-96157141D02*
X103435771Y-96099999D01*
X103578628Y-95899999D02*
X103578628Y-95671427D01*
X103778628Y-95814284D02*
X103264342Y-95814284D01*
X103264342Y-95814284D02*
X103207200Y-95785713D01*
X103207200Y-95785713D02*
X103178628Y-95728570D01*
X103178628Y-95728570D02*
X103178628Y-95671427D01*
X103207200Y-95242856D02*
X103178628Y-95299999D01*
X103178628Y-95299999D02*
X103178628Y-95414285D01*
X103178628Y-95414285D02*
X103207200Y-95471427D01*
X103207200Y-95471427D02*
X103264342Y-95499999D01*
X103264342Y-95499999D02*
X103492914Y-95499999D01*
X103492914Y-95499999D02*
X103550057Y-95471427D01*
X103550057Y-95471427D02*
X103578628Y-95414285D01*
X103578628Y-95414285D02*
X103578628Y-95299999D01*
X103578628Y-95299999D02*
X103550057Y-95242856D01*
X103550057Y-95242856D02*
X103492914Y-95214285D01*
X103492914Y-95214285D02*
X103435771Y-95214285D01*
X103435771Y-95214285D02*
X103378628Y-95499999D01*
X103178628Y-94699999D02*
X103778628Y-94699999D01*
X103207200Y-94699999D02*
X103178628Y-94757141D01*
X103178628Y-94757141D02*
X103178628Y-94871427D01*
X103178628Y-94871427D02*
X103207200Y-94928570D01*
X103207200Y-94928570D02*
X103235771Y-94957141D01*
X103235771Y-94957141D02*
X103292914Y-94985713D01*
X103292914Y-94985713D02*
X103464342Y-94985713D01*
X103464342Y-94985713D02*
X103521485Y-94957141D01*
X103521485Y-94957141D02*
X103550057Y-94928570D01*
X103550057Y-94928570D02*
X103578628Y-94871427D01*
X103578628Y-94871427D02*
X103578628Y-94757141D01*
X103578628Y-94757141D02*
X103550057Y-94699999D01*
X103178628Y-93957141D02*
X103778628Y-93957141D01*
X103550057Y-93957141D02*
X103578628Y-93899999D01*
X103578628Y-93899999D02*
X103578628Y-93785713D01*
X103578628Y-93785713D02*
X103550057Y-93728570D01*
X103550057Y-93728570D02*
X103521485Y-93699999D01*
X103521485Y-93699999D02*
X103464342Y-93671427D01*
X103464342Y-93671427D02*
X103292914Y-93671427D01*
X103292914Y-93671427D02*
X103235771Y-93699999D01*
X103235771Y-93699999D02*
X103207200Y-93728570D01*
X103207200Y-93728570D02*
X103178628Y-93785713D01*
X103178628Y-93785713D02*
X103178628Y-93899999D01*
X103178628Y-93899999D02*
X103207200Y-93957141D01*
X103578628Y-93471427D02*
X103178628Y-93328570D01*
X103578628Y-93185713D02*
X103178628Y-93328570D01*
X103178628Y-93328570D02*
X103035771Y-93385713D01*
X103035771Y-93385713D02*
X103007200Y-93414284D01*
X103007200Y-93414284D02*
X102978628Y-93471427D01*
X103235771Y-92957141D02*
X103207200Y-92928570D01*
X103207200Y-92928570D02*
X103178628Y-92957141D01*
X103178628Y-92957141D02*
X103207200Y-92985713D01*
X103207200Y-92985713D02*
X103235771Y-92957141D01*
X103235771Y-92957141D02*
X103178628Y-92957141D01*
X103550057Y-92957141D02*
X103521485Y-92928570D01*
X103521485Y-92928570D02*
X103492914Y-92957141D01*
X103492914Y-92957141D02*
X103521485Y-92985713D01*
X103521485Y-92985713D02*
X103550057Y-92957141D01*
X103550057Y-92957141D02*
X103492914Y-92957141D01*
D11*
G36*
X126827496Y-97098017D02*
G01*
X126834518Y-97119959D01*
X126833673Y-97122824D01*
X126817023Y-97140322D01*
X126783341Y-97165937D01*
X126738256Y-97196259D01*
X126687395Y-97227880D01*
X126636388Y-97257389D01*
X126590862Y-97281376D01*
X126556446Y-97296431D01*
X126538767Y-97299144D01*
X126527930Y-97286880D01*
X126532650Y-97269634D01*
X126556089Y-97246199D01*
X126600207Y-97214647D01*
X126666963Y-97173052D01*
X126722140Y-97140896D01*
X126769816Y-97114941D01*
X126804410Y-97098125D01*
X126820840Y-97093090D01*
X126827496Y-97098017D01*
G37*
G36*
X123739220Y-97125356D02*
G01*
X123775305Y-97159690D01*
X123776252Y-97160837D01*
X123844341Y-97236080D01*
X123910426Y-97295504D01*
X123969594Y-97334686D01*
X123978163Y-97339186D01*
X124013570Y-97363298D01*
X124022397Y-97382757D01*
X124004503Y-97397308D01*
X123999285Y-97398347D01*
X123969642Y-97392361D01*
X123928910Y-97374223D01*
X123885014Y-97347924D01*
X123845881Y-97317454D01*
X123813403Y-97285305D01*
X123777075Y-97245303D01*
X123742395Y-97203890D01*
X123713640Y-97166397D01*
X123695089Y-97138153D01*
X123691018Y-97124490D01*
X123708647Y-97115703D01*
X123739220Y-97125356D01*
G37*
G36*
X126579972Y-97987327D02*
G01*
X126614833Y-98017398D01*
X126623165Y-98025080D01*
X126660369Y-98051493D01*
X126711425Y-98081210D01*
X126767850Y-98109145D01*
X126806052Y-98126934D01*
X126850767Y-98150960D01*
X126875061Y-98170112D01*
X126882391Y-98186731D01*
X126880061Y-98197966D01*
X126865899Y-98205781D01*
X126836493Y-98201272D01*
X126789099Y-98183865D01*
X126720974Y-98152986D01*
X126701193Y-98143216D01*
X126637132Y-98106140D01*
X126586201Y-98068130D01*
X126552578Y-98032653D01*
X126540442Y-98003177D01*
X126541708Y-97991550D01*
X126554768Y-97978552D01*
X126579972Y-97987327D01*
G37*
G36*
X123722806Y-97668705D02*
G01*
X123795186Y-97672045D01*
X123868756Y-97677355D01*
X123938207Y-97684529D01*
X123967153Y-97690770D01*
X123992286Y-97704531D01*
X123997293Y-97720569D01*
X123978879Y-97734808D01*
X123978577Y-97734917D01*
X123956819Y-97736874D01*
X123914823Y-97736467D01*
X123858534Y-97734128D01*
X123793901Y-97730291D01*
X123726868Y-97725390D01*
X123663383Y-97719858D01*
X123609393Y-97714129D01*
X123570843Y-97708635D01*
X123553680Y-97703812D01*
X123549843Y-97698074D01*
X123551626Y-97676611D01*
X123565895Y-97671604D01*
X123602852Y-97668376D01*
X123656925Y-97667446D01*
X123722806Y-97668705D01*
G37*
G36*
X126703826Y-97651998D02*
G01*
X126773955Y-97654021D01*
X126824473Y-97656943D01*
X126855548Y-97661252D01*
X126871225Y-97667521D01*
X126875552Y-97676323D01*
X126875503Y-97677461D01*
X126870216Y-97685744D01*
X126853414Y-97691674D01*
X126821137Y-97695782D01*
X126769426Y-97698598D01*
X126694319Y-97700656D01*
X126623676Y-97701711D01*
X126569650Y-97701157D01*
X126535717Y-97698533D01*
X126518117Y-97693529D01*
X126513086Y-97685839D01*
X126513672Y-97678826D01*
X126522593Y-97657697D01*
X126523066Y-97657345D01*
X126541898Y-97654116D01*
X126582003Y-97652032D01*
X126637830Y-97651268D01*
X126703826Y-97651998D01*
G37*
G36*
X124014884Y-97979395D02*
G01*
X124024095Y-97990437D01*
X124011224Y-98011630D01*
X123977594Y-98041228D01*
X123924529Y-98077486D01*
X123921582Y-98079339D01*
X123861787Y-98119769D01*
X123799855Y-98165908D01*
X123748740Y-98208132D01*
X123738267Y-98217409D01*
X123697942Y-98250026D01*
X123671892Y-98264184D01*
X123657054Y-98261670D01*
X123650438Y-98251272D01*
X123654770Y-98222731D01*
X123669711Y-98204320D01*
X123703549Y-98172568D01*
X123749801Y-98133908D01*
X123802906Y-98092783D01*
X123857303Y-98053633D01*
X123907431Y-98020902D01*
X123937774Y-98003669D01*
X123975432Y-97985685D01*
X123999758Y-97978288D01*
X124014884Y-97979395D01*
G37*
G36*
X125802709Y-98446171D02*
G01*
X125849181Y-98449325D01*
X125896145Y-98457142D01*
X125936621Y-98472225D01*
X125982536Y-98498012D01*
X126044602Y-98544527D01*
X126090797Y-98603006D01*
X126102004Y-98622334D01*
X126121090Y-98650190D01*
X126133236Y-98661137D01*
X126134482Y-98661466D01*
X126141088Y-98676872D01*
X126143780Y-98708203D01*
X126143832Y-98712469D01*
X126147944Y-98745397D01*
X126156618Y-98763202D01*
X126162866Y-98774748D01*
X126161551Y-98801624D01*
X126155732Y-98831825D01*
X126151124Y-98873146D01*
X126138244Y-98924749D01*
X126108023Y-98983828D01*
X126065132Y-99041070D01*
X126062772Y-99043735D01*
X126042626Y-99069252D01*
X126034357Y-99084932D01*
X126025849Y-99096579D01*
X125997125Y-99114125D01*
X125955027Y-99132880D01*
X125906775Y-99150028D01*
X125859594Y-99162752D01*
X125820705Y-99168237D01*
X125720802Y-99163968D01*
X125634088Y-99142584D01*
X125562014Y-99102358D01*
X125500643Y-99041735D01*
X125495900Y-99035761D01*
X125450494Y-98965558D01*
X125426142Y-98893518D01*
X125418981Y-98808615D01*
X125419435Y-98797183D01*
X125487314Y-98797183D01*
X125494444Y-98866369D01*
X125517746Y-98935544D01*
X125554522Y-98987481D01*
X125583615Y-99014366D01*
X125628769Y-99051717D01*
X125662327Y-99073352D01*
X125680976Y-99076927D01*
X125684746Y-99075410D01*
X125692407Y-99084319D01*
X125693811Y-99086881D01*
X125715065Y-99092370D01*
X125759700Y-99094169D01*
X125824896Y-99092247D01*
X125907835Y-99086576D01*
X125915627Y-99083660D01*
X125924933Y-99064637D01*
X125927050Y-99055114D01*
X125943346Y-99044120D01*
X125956913Y-99038036D01*
X125984363Y-99016106D01*
X126016748Y-98983699D01*
X126039121Y-98958518D01*
X126057791Y-98932560D01*
X126067858Y-98905666D01*
X126072294Y-98869030D01*
X126074072Y-98813846D01*
X126074176Y-98808258D01*
X126073285Y-98752752D01*
X126069036Y-98713300D01*
X126061998Y-98695509D01*
X126057227Y-98691575D01*
X126054057Y-98676136D01*
X126051417Y-98661859D01*
X126031238Y-98636623D01*
X125998281Y-98606340D01*
X125958272Y-98575735D01*
X125916937Y-98549536D01*
X125880001Y-98532467D01*
X125857590Y-98525513D01*
X125817360Y-98515501D01*
X125791095Y-98512266D01*
X125785120Y-98512696D01*
X125775128Y-98514915D01*
X125791573Y-98520108D01*
X125804242Y-98525353D01*
X125815509Y-98539038D01*
X125817691Y-98544756D01*
X125835675Y-98551713D01*
X125842751Y-98552674D01*
X125866804Y-98572094D01*
X125885946Y-98613212D01*
X125898647Y-98671695D01*
X125903372Y-98743205D01*
X125903338Y-98753650D01*
X125897088Y-98831013D01*
X125878640Y-98887620D01*
X125845834Y-98927767D01*
X125796511Y-98955746D01*
X125785624Y-98960033D01*
X125752534Y-98969980D01*
X125726092Y-98967825D01*
X125691790Y-98953219D01*
X125646775Y-98920865D01*
X125609027Y-98865606D01*
X125596370Y-98821853D01*
X125667562Y-98821853D01*
X125676320Y-98849465D01*
X125700925Y-98863610D01*
X125724807Y-98859519D01*
X125740976Y-98837616D01*
X125738388Y-98804756D01*
X125725609Y-98791684D01*
X125696874Y-98784239D01*
X125683239Y-98784965D01*
X125668148Y-98794514D01*
X125667562Y-98821853D01*
X125596370Y-98821853D01*
X125588902Y-98796039D01*
X125587592Y-98716646D01*
X125606291Y-98631908D01*
X125632406Y-98554805D01*
X125593924Y-98583256D01*
X125588405Y-98587630D01*
X125552300Y-98629049D01*
X125519783Y-98685072D01*
X125496304Y-98744763D01*
X125487314Y-98797183D01*
X125419435Y-98797183D01*
X125420202Y-98777860D01*
X125440723Y-98680998D01*
X125485089Y-98595402D01*
X125551385Y-98524038D01*
X125637695Y-98469871D01*
X125654403Y-98462536D01*
X125694697Y-98450050D01*
X125740563Y-98445107D01*
X125802709Y-98446171D01*
G37*
G36*
X124585369Y-98446171D02*
G01*
X124631841Y-98449325D01*
X124678805Y-98457142D01*
X124719282Y-98472225D01*
X124765197Y-98498012D01*
X124827262Y-98544527D01*
X124873457Y-98603006D01*
X124884665Y-98622334D01*
X124903750Y-98650190D01*
X124915896Y-98661137D01*
X124917142Y-98661466D01*
X124923748Y-98676872D01*
X124926441Y-98708203D01*
X124926493Y-98712469D01*
X124930604Y-98745397D01*
X124939278Y-98763202D01*
X124945527Y-98774748D01*
X124944211Y-98801624D01*
X124938392Y-98831825D01*
X124933784Y-98873146D01*
X124920904Y-98924749D01*
X124890684Y-98983828D01*
X124847792Y-99041070D01*
X124845433Y-99043735D01*
X124825287Y-99069252D01*
X124817017Y-99084932D01*
X124808509Y-99096579D01*
X124779786Y-99114125D01*
X124737687Y-99132880D01*
X124689436Y-99150028D01*
X124642254Y-99162752D01*
X124603366Y-99168237D01*
X124503462Y-99163968D01*
X124416748Y-99142584D01*
X124344674Y-99102358D01*
X124283304Y-99041735D01*
X124278560Y-99035761D01*
X124233154Y-98965558D01*
X124208802Y-98893518D01*
X124201642Y-98808615D01*
X124202499Y-98787005D01*
X124273489Y-98787005D01*
X124275862Y-98862330D01*
X124296963Y-98931291D01*
X124337182Y-98987481D01*
X124366275Y-99014366D01*
X124411429Y-99051717D01*
X124444987Y-99073352D01*
X124463636Y-99076927D01*
X124467406Y-99075410D01*
X124475067Y-99084319D01*
X124476471Y-99086881D01*
X124497725Y-99092370D01*
X124542360Y-99094169D01*
X124607557Y-99092247D01*
X124690496Y-99086576D01*
X124698287Y-99083660D01*
X124707593Y-99064637D01*
X124709710Y-99055114D01*
X124726006Y-99044120D01*
X124739541Y-99038059D01*
X124766977Y-99016154D01*
X124799346Y-98983767D01*
X124818342Y-98962503D01*
X124838753Y-98935326D01*
X124849828Y-98908353D01*
X124854753Y-98872398D01*
X124856711Y-98818274D01*
X124856200Y-98764367D01*
X124851562Y-98718553D01*
X124843247Y-98693975D01*
X124836214Y-98683103D01*
X124838542Y-98674815D01*
X124839446Y-98671589D01*
X124827798Y-98654257D01*
X124803339Y-98626942D01*
X124803250Y-98626851D01*
X124769294Y-98594845D01*
X124747921Y-98580904D01*
X124741145Y-98585685D01*
X124750979Y-98609845D01*
X124751661Y-98611162D01*
X124759937Y-98641404D01*
X124765860Y-98688628D01*
X124768188Y-98743205D01*
X124768146Y-98753558D01*
X124761843Y-98830966D01*
X124743364Y-98887605D01*
X124710549Y-98927767D01*
X124661239Y-98955746D01*
X124650082Y-98960137D01*
X124617087Y-98969997D01*
X124590555Y-98967722D01*
X124555901Y-98952919D01*
X124519288Y-98928344D01*
X124479037Y-98875939D01*
X124460769Y-98821853D01*
X124532290Y-98821853D01*
X124541048Y-98849465D01*
X124565653Y-98863610D01*
X124589535Y-98859519D01*
X124605704Y-98837616D01*
X124603116Y-98804756D01*
X124590337Y-98791684D01*
X124561602Y-98784239D01*
X124547967Y-98784965D01*
X124532876Y-98794514D01*
X124532290Y-98821853D01*
X124460769Y-98821853D01*
X124456094Y-98808011D01*
X124451685Y-98728837D01*
X124467036Y-98642697D01*
X124478112Y-98608578D01*
X124491237Y-98577411D01*
X124500713Y-98565391D01*
X124515390Y-98558552D01*
X124721271Y-98558552D01*
X124728110Y-98565391D01*
X124734949Y-98558552D01*
X124728110Y-98551713D01*
X124721271Y-98558552D01*
X124515390Y-98558552D01*
X124517710Y-98557471D01*
X124543457Y-98538035D01*
X124561204Y-98521781D01*
X124564822Y-98512886D01*
X124548970Y-98511759D01*
X124533735Y-98513255D01*
X124474976Y-98529868D01*
X124413464Y-98560214D01*
X124360835Y-98598902D01*
X124323366Y-98642894D01*
X124289454Y-98711724D01*
X124273489Y-98787005D01*
X124202499Y-98787005D01*
X124202862Y-98777860D01*
X124223383Y-98680998D01*
X124267749Y-98595402D01*
X124334045Y-98524038D01*
X124420356Y-98469871D01*
X124437063Y-98462536D01*
X124477357Y-98450050D01*
X124523223Y-98445107D01*
X124585369Y-98446171D01*
G37*
G36*
X125235673Y-95859727D02*
G01*
X125332428Y-95862035D01*
X125424887Y-95865946D01*
X125506126Y-95871329D01*
X125569220Y-95878052D01*
X125682245Y-95896998D01*
X125915712Y-95955750D01*
X126138965Y-96039698D01*
X126352903Y-96149209D01*
X126558424Y-96284654D01*
X126581818Y-96302426D01*
X126664144Y-96371394D01*
X126754368Y-96454943D01*
X126846629Y-96547079D01*
X126935068Y-96641807D01*
X127013821Y-96733132D01*
X127077029Y-96815061D01*
X127139309Y-96909738D01*
X127209234Y-97031418D01*
X127274486Y-97160226D01*
X127330479Y-97287046D01*
X127372630Y-97402763D01*
X127377116Y-97417206D01*
X127433855Y-97646171D01*
X127467090Y-97883269D01*
X127476844Y-98124036D01*
X127463139Y-98364009D01*
X127425997Y-98598725D01*
X127365441Y-98823719D01*
X127352141Y-98862113D01*
X127290062Y-99011991D01*
X127211796Y-99166452D01*
X127121979Y-99317539D01*
X127025249Y-99457290D01*
X126926240Y-99577747D01*
X126845017Y-99666840D01*
X126829187Y-99858146D01*
X126827611Y-99877150D01*
X126809872Y-100083033D01*
X126793038Y-100262902D01*
X126776942Y-100417973D01*
X126761416Y-100549461D01*
X126746293Y-100658581D01*
X126731407Y-100746549D01*
X126716589Y-100814580D01*
X126701673Y-100863890D01*
X126686492Y-100895695D01*
X126676562Y-100908181D01*
X126635024Y-100933984D01*
X126581715Y-100940847D01*
X126523853Y-100927365D01*
X126486266Y-100906115D01*
X126427574Y-100857674D01*
X126360681Y-100787937D01*
X126287603Y-100698853D01*
X126287169Y-100698289D01*
X126242535Y-100641537D01*
X126191127Y-100577955D01*
X126143985Y-100521201D01*
X126143165Y-100520232D01*
X126097018Y-100462877D01*
X126048442Y-100398183D01*
X126007821Y-100339967D01*
X125999277Y-100327160D01*
X125970717Y-100286715D01*
X125948260Y-100258429D01*
X125936164Y-100247782D01*
X125935006Y-100247865D01*
X125914011Y-100252186D01*
X125875182Y-100261766D01*
X125825920Y-100274792D01*
X125798678Y-100281969D01*
X125591958Y-100323026D01*
X125374313Y-100344670D01*
X125151940Y-100347064D01*
X124931037Y-100330372D01*
X124717801Y-100294755D01*
X124518430Y-100240378D01*
X124485086Y-100229374D01*
X124429461Y-100212373D01*
X124392831Y-100204001D01*
X124370739Y-100203400D01*
X124358730Y-100209717D01*
X124345980Y-100224476D01*
X124312785Y-100264490D01*
X124270198Y-100317024D01*
X124222897Y-100376213D01*
X124175558Y-100436186D01*
X124132857Y-100491078D01*
X124099470Y-100535020D01*
X124071145Y-100571489D01*
X124018269Y-100634084D01*
X123959836Y-100698180D01*
X123900366Y-100759199D01*
X123844379Y-100812559D01*
X123796397Y-100853682D01*
X123760938Y-100877988D01*
X123736920Y-100889155D01*
X123668488Y-100904977D01*
X123605282Y-100894050D01*
X123546603Y-100856304D01*
X123528828Y-100838920D01*
X123497953Y-100802039D01*
X123479641Y-100770817D01*
X123476061Y-100759618D01*
X123465398Y-100715516D01*
X123452816Y-100652412D01*
X123439272Y-100576098D01*
X123425718Y-100492368D01*
X123413112Y-100407016D01*
X123402406Y-100325836D01*
X123394558Y-100254621D01*
X123392233Y-100230780D01*
X123383967Y-100152577D01*
X123374871Y-100073821D01*
X123366526Y-100008418D01*
X123357073Y-99933810D01*
X123341364Y-99774417D01*
X123330945Y-99614200D01*
X123326814Y-99466755D01*
X123326773Y-99463618D01*
X123383562Y-99463618D01*
X123386470Y-99516951D01*
X123392538Y-99592914D01*
X123401309Y-99693824D01*
X123411719Y-99810880D01*
X123431345Y-100019317D01*
X123450087Y-100201695D01*
X123467918Y-100357801D01*
X123484812Y-100487422D01*
X123500743Y-100590345D01*
X123515682Y-100666357D01*
X123529605Y-100715247D01*
X123532042Y-100721003D01*
X123551996Y-100755683D01*
X123579030Y-100792253D01*
X123610001Y-100820913D01*
X123649035Y-100835698D01*
X123693614Y-100830118D01*
X123745880Y-100803406D01*
X123807974Y-100754794D01*
X123882035Y-100683512D01*
X123913967Y-100649968D01*
X123972273Y-100585698D01*
X124028356Y-100520655D01*
X124073526Y-100464765D01*
X124081956Y-100453811D01*
X124131917Y-100389879D01*
X124186096Y-100321814D01*
X124234163Y-100262615D01*
X124253548Y-100238807D01*
X124283841Y-100200161D01*
X124303645Y-100172865D01*
X124309392Y-100161705D01*
X124293605Y-100153559D01*
X124261890Y-100138314D01*
X124222738Y-100119979D01*
X124184177Y-100102275D01*
X124154239Y-100088924D01*
X124140954Y-100083647D01*
X124136937Y-100087318D01*
X124121953Y-100108333D01*
X124101046Y-100141778D01*
X124073635Y-100181665D01*
X124028215Y-100236691D01*
X123976271Y-100291843D01*
X123925054Y-100339503D01*
X123881815Y-100372055D01*
X123866422Y-100380393D01*
X123809632Y-100395554D01*
X123755274Y-100388983D01*
X123709807Y-100362422D01*
X123679691Y-100317609D01*
X123661414Y-100258389D01*
X123642005Y-100152908D01*
X123631258Y-100027048D01*
X123629570Y-99884231D01*
X123633382Y-99691654D01*
X123560984Y-99610671D01*
X123560058Y-99609634D01*
X123517865Y-99561181D01*
X123476563Y-99511784D01*
X123444966Y-99471980D01*
X123432371Y-99455304D01*
X123412642Y-99430243D01*
X123398353Y-99416226D01*
X123389047Y-99415572D01*
X123384269Y-99430597D01*
X123383562Y-99463618D01*
X123326773Y-99463618D01*
X123326042Y-99407210D01*
X123323273Y-99356880D01*
X123317237Y-99319762D01*
X123306617Y-99288252D01*
X123290095Y-99254747D01*
X123287866Y-99250595D01*
X123206305Y-99091478D01*
X123140756Y-98946455D01*
X123089131Y-98809311D01*
X123049336Y-98673830D01*
X123019284Y-98533797D01*
X122996881Y-98382997D01*
X122990668Y-98314194D01*
X122986429Y-98206590D01*
X122986444Y-98100153D01*
X123054321Y-98100153D01*
X123065831Y-98332255D01*
X123101578Y-98561754D01*
X123161940Y-98785677D01*
X123180937Y-98840119D01*
X123211761Y-98919926D01*
X123245257Y-98998966D01*
X123279083Y-99072229D01*
X123310895Y-99134705D01*
X123338350Y-99181384D01*
X123359106Y-99207254D01*
X123371257Y-99220215D01*
X123380829Y-99241981D01*
X123384427Y-99256700D01*
X123404803Y-99293975D01*
X123440658Y-99344711D01*
X123489113Y-99405743D01*
X123547287Y-99473906D01*
X123612300Y-99546037D01*
X123681271Y-99618970D01*
X123751320Y-99689540D01*
X123819567Y-99754582D01*
X123883131Y-99810932D01*
X123939132Y-99855425D01*
X123974389Y-99880766D01*
X124178294Y-100009718D01*
X124388140Y-100112535D01*
X124605393Y-100189660D01*
X124831521Y-100241536D01*
X125067989Y-100268607D01*
X125316263Y-100271315D01*
X125328774Y-100270827D01*
X125574697Y-100248333D01*
X125656944Y-100231884D01*
X126007001Y-100231884D01*
X126014903Y-100249070D01*
X126038863Y-100284908D01*
X126076955Y-100336567D01*
X126127231Y-100401574D01*
X126187747Y-100477457D01*
X126256556Y-100561743D01*
X126331713Y-100651959D01*
X126411271Y-100745632D01*
X126433509Y-100770761D01*
X126494544Y-100829837D01*
X126546316Y-100863669D01*
X126588639Y-100872161D01*
X126621330Y-100855215D01*
X126640900Y-100824590D01*
X126659184Y-100775150D01*
X126676346Y-100705699D01*
X126692577Y-100615013D01*
X126708068Y-100501868D01*
X126723007Y-100365040D01*
X126737587Y-100203304D01*
X126751998Y-100015436D01*
X126752792Y-100004288D01*
X126758420Y-99923245D01*
X126763067Y-99852750D01*
X126766474Y-99796987D01*
X126768384Y-99760139D01*
X126768541Y-99746390D01*
X126765051Y-99747976D01*
X126746532Y-99762384D01*
X126717974Y-99787244D01*
X126694423Y-99808142D01*
X126649185Y-99847313D01*
X126603955Y-99885585D01*
X126537998Y-99940566D01*
X126574674Y-100053863D01*
X126579898Y-100070217D01*
X126595995Y-100127071D01*
X126604802Y-100176614D01*
X126607808Y-100230354D01*
X126606502Y-100299797D01*
X126603955Y-100348434D01*
X126595231Y-100420496D01*
X126579957Y-100472500D01*
X126556521Y-100508993D01*
X126523312Y-100534523D01*
X126516809Y-100538083D01*
X126492257Y-100547692D01*
X126468959Y-100544683D01*
X126434651Y-100528181D01*
X126433909Y-100527779D01*
X126394144Y-100497358D01*
X126347380Y-100447978D01*
X126298110Y-100385340D01*
X126250825Y-100315144D01*
X126210017Y-100243091D01*
X126191874Y-100208770D01*
X126173317Y-100180963D01*
X126157185Y-100169939D01*
X126138724Y-100170884D01*
X126129833Y-100173254D01*
X126088170Y-100187211D01*
X126048443Y-100204121D01*
X126018703Y-100220254D01*
X126007001Y-100231884D01*
X125656944Y-100231884D01*
X125807922Y-100201689D01*
X126028805Y-100130781D01*
X126237700Y-100035499D01*
X126434963Y-99915727D01*
X126479957Y-99883949D01*
X126672308Y-99729029D01*
X126844795Y-99557552D01*
X126996298Y-99371200D01*
X127125697Y-99171655D01*
X127231873Y-98960598D01*
X127313707Y-98739713D01*
X127370079Y-98510679D01*
X127380661Y-98436045D01*
X127388975Y-98336381D01*
X127394040Y-98223531D01*
X127395854Y-98104219D01*
X127394413Y-97985170D01*
X127389712Y-97873107D01*
X127381749Y-97774756D01*
X127370521Y-97696840D01*
X127321669Y-97492690D01*
X127248159Y-97278303D01*
X127153622Y-97077929D01*
X127036510Y-96888766D01*
X126895279Y-96708013D01*
X126728381Y-96532866D01*
X126681720Y-96489077D01*
X126495887Y-96335136D01*
X126302120Y-96206809D01*
X126098741Y-96103210D01*
X125884071Y-96023452D01*
X125656432Y-95966651D01*
X125648994Y-95965237D01*
X125550946Y-95950854D01*
X125435345Y-95940033D01*
X125311036Y-95933128D01*
X125186865Y-95930490D01*
X125071676Y-95932474D01*
X124974314Y-95939432D01*
X124841028Y-95958765D01*
X124612116Y-96012867D01*
X124390412Y-96091708D01*
X124178955Y-96193933D01*
X123980784Y-96318188D01*
X123798940Y-96463118D01*
X123717805Y-96535865D01*
X123771584Y-96575568D01*
X123931296Y-96701847D01*
X124102689Y-96858197D01*
X124255813Y-97021549D01*
X124386161Y-97187415D01*
X124387360Y-97189101D01*
X124416123Y-97226698D01*
X124439701Y-97252570D01*
X124453093Y-97261201D01*
X124460786Y-97254164D01*
X124478182Y-97228110D01*
X124498675Y-97190101D01*
X124512083Y-97163287D01*
X124531781Y-97125336D01*
X124544917Y-97101848D01*
X124552125Y-97089131D01*
X124569654Y-97055107D01*
X124590167Y-97012941D01*
X124606506Y-96980487D01*
X124672504Y-96878150D01*
X124751238Y-96792012D01*
X124838869Y-96725783D01*
X124931555Y-96683172D01*
X124994074Y-96668635D01*
X125074320Y-96658279D01*
X125161354Y-96653151D01*
X125246814Y-96653471D01*
X125322335Y-96659459D01*
X125379554Y-96671338D01*
X125411060Y-96682840D01*
X125515490Y-96739379D01*
X125607314Y-96819533D01*
X125685051Y-96922087D01*
X125721965Y-96981690D01*
X125743423Y-96949443D01*
X125786323Y-96893625D01*
X125859409Y-96829067D01*
X125940569Y-96789436D01*
X126028018Y-96775495D01*
X126119973Y-96788009D01*
X126132668Y-96792058D01*
X126177212Y-96819227D01*
X126207970Y-96865098D01*
X126227663Y-96933347D01*
X126232634Y-97008036D01*
X126218162Y-97071775D01*
X126186272Y-97118945D01*
X126139589Y-97147073D01*
X126080739Y-97153683D01*
X126012348Y-97136301D01*
X125987454Y-97123362D01*
X125967646Y-97102530D01*
X125969532Y-97084431D01*
X125989704Y-97072355D01*
X126024753Y-97069591D01*
X126071271Y-97079429D01*
X126098102Y-97081542D01*
X126128610Y-97063858D01*
X126149629Y-97026831D01*
X126157458Y-96974951D01*
X126152584Y-96921164D01*
X126133657Y-96882341D01*
X126097020Y-96861713D01*
X126039068Y-96855644D01*
X126038740Y-96855645D01*
X125952276Y-96866738D01*
X125881877Y-96899967D01*
X125827324Y-96955489D01*
X125788399Y-97033458D01*
X125782781Y-97051223D01*
X125779938Y-97073776D01*
X125785122Y-97098638D01*
X125800164Y-97132965D01*
X125826897Y-97183916D01*
X125848137Y-97227310D01*
X125877924Y-97297125D01*
X125907641Y-97374960D01*
X125933227Y-97450636D01*
X125935218Y-97457041D01*
X125957077Y-97530381D01*
X125971434Y-97588276D01*
X125979881Y-97640321D01*
X125984008Y-97696108D01*
X125985407Y-97765230D01*
X125985527Y-97785320D01*
X125985075Y-97847419D01*
X125982175Y-97891956D01*
X125975492Y-97926687D01*
X125963695Y-97959368D01*
X125945450Y-97997755D01*
X125924690Y-98037228D01*
X125905219Y-98065231D01*
X125885559Y-98078899D01*
X125859880Y-98084115D01*
X125828418Y-98082994D01*
X125777538Y-98060801D01*
X125730695Y-98012469D01*
X125687256Y-97937460D01*
X125644534Y-97847298D01*
X125645202Y-97566899D01*
X125714039Y-97566899D01*
X125714407Y-97628586D01*
X125715475Y-97704523D01*
X125717562Y-97760998D01*
X125721137Y-97802806D01*
X125726669Y-97834739D01*
X125734628Y-97861593D01*
X125745482Y-97888161D01*
X125767873Y-97932149D01*
X125796492Y-97975954D01*
X125823736Y-98006682D01*
X125844971Y-98018272D01*
X125847763Y-98017869D01*
X125865392Y-98001357D01*
X125883970Y-97965373D01*
X125901145Y-97916420D01*
X125914564Y-97861001D01*
X125921877Y-97805618D01*
X125921913Y-97805070D01*
X125923392Y-97759835D01*
X125920841Y-97716256D01*
X125913177Y-97667408D01*
X125899316Y-97606365D01*
X125878176Y-97526201D01*
X125875538Y-97516621D01*
X125853822Y-97442454D01*
X125831231Y-97372248D01*
X125810288Y-97313525D01*
X125793515Y-97273805D01*
X125778564Y-97244849D01*
X125759432Y-97210680D01*
X125747232Y-97192524D01*
X125747067Y-97192358D01*
X125737051Y-97195099D01*
X125728667Y-97223667D01*
X125722043Y-97276597D01*
X125717311Y-97352423D01*
X125714599Y-97449678D01*
X125714039Y-97566899D01*
X125645202Y-97566899D01*
X125645283Y-97532704D01*
X125645373Y-97503511D01*
X125646186Y-97401336D01*
X125647892Y-97321713D01*
X125650722Y-97260795D01*
X125654910Y-97214735D01*
X125660686Y-97179686D01*
X125668283Y-97151802D01*
X125672049Y-97140475D01*
X125681072Y-97108273D01*
X125682593Y-97081544D01*
X125675000Y-97053035D01*
X125656682Y-97015496D01*
X125626028Y-96961675D01*
X125622480Y-96955653D01*
X125555021Y-96865863D01*
X125472508Y-96794326D01*
X125379826Y-96745336D01*
X125348219Y-96734357D01*
X125311619Y-96725454D01*
X125270340Y-96720869D01*
X125216848Y-96719846D01*
X125143610Y-96721628D01*
X125124121Y-96722320D01*
X125058507Y-96725529D01*
X125010557Y-96730478D01*
X124972472Y-96738725D01*
X124936454Y-96751828D01*
X124894707Y-96771344D01*
X124857725Y-96791194D01*
X124780050Y-96847460D01*
X124714937Y-96919299D01*
X124659275Y-97010575D01*
X124609956Y-97125152D01*
X124595694Y-97161048D01*
X124574757Y-97206959D01*
X124557098Y-97238628D01*
X124555523Y-97240975D01*
X124534845Y-97279355D01*
X124517311Y-97322990D01*
X124513974Y-97333778D01*
X124509695Y-97355649D01*
X124511456Y-97378268D01*
X124520903Y-97407516D01*
X124539678Y-97449275D01*
X124569427Y-97509425D01*
X124614460Y-97603614D01*
X124658476Y-97710648D01*
X124685024Y-97798026D01*
X124693915Y-97865209D01*
X124692869Y-97892112D01*
X124680364Y-97963308D01*
X124656064Y-98027569D01*
X124622924Y-98079792D01*
X124583901Y-98114869D01*
X124541950Y-98127696D01*
X124503066Y-98116170D01*
X124463514Y-98086018D01*
X124431509Y-98044940D01*
X124414764Y-98000643D01*
X124407361Y-97939402D01*
X124400386Y-97816654D01*
X124400510Y-97792716D01*
X124470418Y-97792716D01*
X124472086Y-97862060D01*
X124475701Y-97924065D01*
X124481326Y-97973530D01*
X124489020Y-98005256D01*
X124505176Y-98033771D01*
X124530612Y-98051574D01*
X124557484Y-98047454D01*
X124583097Y-98024152D01*
X124604759Y-97984405D01*
X124619774Y-97930954D01*
X124625449Y-97866536D01*
X124622779Y-97835089D01*
X124606751Y-97767109D01*
X124577556Y-97684127D01*
X124536705Y-97590836D01*
X124518132Y-97553019D01*
X124502461Y-97523495D01*
X124494790Y-97512187D01*
X124489169Y-97517936D01*
X124482010Y-97545965D01*
X124476494Y-97592658D01*
X124472683Y-97652814D01*
X124470638Y-97721234D01*
X124470418Y-97792716D01*
X124400510Y-97792716D01*
X124401084Y-97681466D01*
X124409556Y-97542660D01*
X124416101Y-97468844D01*
X124419227Y-97411709D01*
X124416573Y-97367928D01*
X124406116Y-97330379D01*
X124385834Y-97291942D01*
X124353707Y-97245494D01*
X124307712Y-97183916D01*
X124234768Y-97092101D01*
X124138473Y-96982822D01*
X124035023Y-96875960D01*
X123929761Y-96776752D01*
X123828027Y-96690440D01*
X123735164Y-96622263D01*
X123675762Y-96582937D01*
X123643376Y-96613286D01*
X123637825Y-96618622D01*
X123598624Y-96660869D01*
X123550153Y-96718719D01*
X123497296Y-96785986D01*
X123444939Y-96856486D01*
X123397964Y-96924034D01*
X123347140Y-97004711D01*
X123243118Y-97205209D01*
X123161448Y-97417977D01*
X123102507Y-97640040D01*
X123066672Y-97868424D01*
X123054321Y-98100153D01*
X122986444Y-98100153D01*
X122986446Y-98087122D01*
X122990437Y-97963604D01*
X122998121Y-97843852D01*
X123009215Y-97735678D01*
X123023437Y-97646898D01*
X123061101Y-97491775D01*
X123140182Y-97260459D01*
X123244119Y-97039824D01*
X123372144Y-96831419D01*
X123523489Y-96636797D01*
X123538597Y-96619391D01*
X123573493Y-96578281D01*
X123593298Y-96551686D01*
X123600264Y-96535076D01*
X123596642Y-96523922D01*
X123584684Y-96513695D01*
X123578995Y-96509454D01*
X123547191Y-96484636D01*
X123511412Y-96455564D01*
X123499852Y-96446295D01*
X123470902Y-96426030D01*
X123453178Y-96417949D01*
X123443960Y-96415055D01*
X123416194Y-96400597D01*
X123379755Y-96378072D01*
X123317905Y-96343449D01*
X123212456Y-96302425D01*
X123093691Y-96272395D01*
X122968763Y-96254286D01*
X122844826Y-96249025D01*
X122729034Y-96257539D01*
X122628541Y-96280753D01*
X122604130Y-96289596D01*
X122498855Y-96338692D01*
X122400671Y-96401099D01*
X122319705Y-96470594D01*
X122269077Y-96540818D01*
X122235115Y-96631576D01*
X122219997Y-96739131D01*
X122223965Y-96861718D01*
X122247261Y-96997570D01*
X122259649Y-97049191D01*
X122276670Y-97108934D01*
X122295864Y-97155025D01*
X122321639Y-97195372D01*
X122358405Y-97237881D01*
X122410570Y-97290461D01*
X122481039Y-97355632D01*
X122548391Y-97406701D01*
X122611286Y-97439870D01*
X122674999Y-97457868D01*
X122744804Y-97463426D01*
X122785544Y-97462188D01*
X122859812Y-97449222D01*
X122913468Y-97421419D01*
X122948706Y-97377858D01*
X122958766Y-97352784D01*
X122973527Y-97300466D01*
X122987760Y-97235462D01*
X122999854Y-97166242D01*
X123008201Y-97101279D01*
X123011190Y-97049045D01*
X123010993Y-97036529D01*
X123001585Y-96949102D01*
X122979311Y-96876305D01*
X122945759Y-96823616D01*
X122889753Y-96777164D01*
X122825521Y-96745583D01*
X122761418Y-96732749D01*
X122704382Y-96741039D01*
X122690820Y-96748825D01*
X122665155Y-96782025D01*
X122650502Y-96829074D01*
X122650325Y-96881002D01*
X122652625Y-96922367D01*
X122642500Y-96944377D01*
X122640782Y-96945365D01*
X122620251Y-96944926D01*
X122604075Y-96924050D01*
X122593467Y-96889006D01*
X122589638Y-96846064D01*
X122593800Y-96801493D01*
X122607165Y-96761560D01*
X122611951Y-96753053D01*
X122651686Y-96708011D01*
X122703887Y-96676282D01*
X122758482Y-96664337D01*
X122765516Y-96664601D01*
X122817943Y-96676420D01*
X122878742Y-96702455D01*
X122938658Y-96738101D01*
X122988432Y-96778752D01*
X123009471Y-96801774D01*
X123035176Y-96840575D01*
X123052204Y-96886336D01*
X123061653Y-96944072D01*
X123064620Y-97018797D01*
X123062205Y-97115526D01*
X123058521Y-97179351D01*
X123046656Y-97281706D01*
X123026937Y-97362023D01*
X122997611Y-97423461D01*
X122956926Y-97469178D01*
X122903130Y-97502335D01*
X122834469Y-97526089D01*
X122755957Y-97537000D01*
X122658639Y-97525720D01*
X122559124Y-97488247D01*
X122458544Y-97425033D01*
X122358034Y-97336529D01*
X122330918Y-97308764D01*
X122281613Y-97253826D01*
X122245911Y-97203742D01*
X122219483Y-97150525D01*
X122197998Y-97086184D01*
X122177127Y-97002729D01*
X122164009Y-96934413D01*
X122152385Y-96800653D01*
X122158942Y-96671942D01*
X122183566Y-96556075D01*
X122184504Y-96553161D01*
X122221973Y-96478893D01*
X122282515Y-96407150D01*
X122362007Y-96340523D01*
X122456329Y-96281600D01*
X122561358Y-96232971D01*
X122672973Y-96197225D01*
X122787051Y-96176952D01*
X122869319Y-96174142D01*
X122972774Y-96181823D01*
X123081819Y-96199402D01*
X123189879Y-96225278D01*
X123290377Y-96257847D01*
X123376736Y-96295506D01*
X123442380Y-96336654D01*
X123471738Y-96359448D01*
X123529426Y-96402076D01*
X123583032Y-96439486D01*
X123655294Y-96487759D01*
X123781363Y-96381954D01*
X123857389Y-96320507D01*
X124057653Y-96180489D01*
X124266040Y-96065983D01*
X124484619Y-95976084D01*
X124715461Y-95909888D01*
X124960636Y-95866489D01*
X124988888Y-95863737D01*
X125056978Y-95860446D01*
X125141548Y-95859153D01*
X125235673Y-95859727D01*
G37*
G36*
X110877496Y-97883541D02*
G01*
X110884518Y-97905483D01*
X110883673Y-97908348D01*
X110867023Y-97925846D01*
X110833341Y-97951461D01*
X110788256Y-97981783D01*
X110737395Y-98013404D01*
X110686388Y-98042913D01*
X110640862Y-98066900D01*
X110606446Y-98081955D01*
X110588767Y-98084668D01*
X110577930Y-98072404D01*
X110582650Y-98055158D01*
X110606089Y-98031723D01*
X110650207Y-98000171D01*
X110716963Y-97958576D01*
X110772140Y-97926420D01*
X110819816Y-97900465D01*
X110854410Y-97883649D01*
X110870840Y-97878614D01*
X110877496Y-97883541D01*
G37*
G36*
X107789220Y-97910880D02*
G01*
X107825305Y-97945214D01*
X107826252Y-97946361D01*
X107894341Y-98021604D01*
X107960426Y-98081028D01*
X108019594Y-98120210D01*
X108028163Y-98124710D01*
X108063570Y-98148822D01*
X108072397Y-98168281D01*
X108054503Y-98182832D01*
X108049285Y-98183871D01*
X108019642Y-98177885D01*
X107978910Y-98159747D01*
X107935014Y-98133448D01*
X107895881Y-98102978D01*
X107863403Y-98070829D01*
X107827075Y-98030827D01*
X107792395Y-97989414D01*
X107763640Y-97951921D01*
X107745089Y-97923677D01*
X107741018Y-97910014D01*
X107758647Y-97901227D01*
X107789220Y-97910880D01*
G37*
G36*
X110629972Y-98772851D02*
G01*
X110664833Y-98802922D01*
X110673165Y-98810604D01*
X110710369Y-98837017D01*
X110761425Y-98866734D01*
X110817850Y-98894669D01*
X110856052Y-98912458D01*
X110900767Y-98936484D01*
X110925061Y-98955636D01*
X110932391Y-98972255D01*
X110930061Y-98983490D01*
X110915899Y-98991305D01*
X110886493Y-98986796D01*
X110839099Y-98969389D01*
X110770974Y-98938510D01*
X110751193Y-98928740D01*
X110687132Y-98891664D01*
X110636201Y-98853654D01*
X110602578Y-98818177D01*
X110590442Y-98788701D01*
X110591708Y-98777074D01*
X110604768Y-98764076D01*
X110629972Y-98772851D01*
G37*
G36*
X107772806Y-98454229D02*
G01*
X107845186Y-98457569D01*
X107918756Y-98462879D01*
X107988207Y-98470053D01*
X108017153Y-98476294D01*
X108042286Y-98490055D01*
X108047293Y-98506093D01*
X108028879Y-98520332D01*
X108028577Y-98520441D01*
X108006819Y-98522398D01*
X107964823Y-98521991D01*
X107908534Y-98519652D01*
X107843901Y-98515815D01*
X107776868Y-98510914D01*
X107713383Y-98505382D01*
X107659393Y-98499653D01*
X107620843Y-98494159D01*
X107603680Y-98489336D01*
X107599843Y-98483598D01*
X107601626Y-98462135D01*
X107615895Y-98457128D01*
X107652852Y-98453900D01*
X107706925Y-98452970D01*
X107772806Y-98454229D01*
G37*
G36*
X110753826Y-98437522D02*
G01*
X110823955Y-98439545D01*
X110874473Y-98442467D01*
X110905548Y-98446776D01*
X110921225Y-98453045D01*
X110925552Y-98461847D01*
X110925503Y-98462985D01*
X110920216Y-98471268D01*
X110903414Y-98477198D01*
X110871137Y-98481306D01*
X110819426Y-98484122D01*
X110744319Y-98486180D01*
X110673676Y-98487235D01*
X110619650Y-98486681D01*
X110585717Y-98484057D01*
X110568117Y-98479053D01*
X110563086Y-98471363D01*
X110563672Y-98464350D01*
X110572593Y-98443221D01*
X110573066Y-98442869D01*
X110591898Y-98439640D01*
X110632003Y-98437556D01*
X110687830Y-98436792D01*
X110753826Y-98437522D01*
G37*
G36*
X108064884Y-98764919D02*
G01*
X108074095Y-98775961D01*
X108061224Y-98797154D01*
X108027594Y-98826752D01*
X107974529Y-98863010D01*
X107971582Y-98864863D01*
X107911787Y-98905293D01*
X107849855Y-98951432D01*
X107798740Y-98993656D01*
X107788267Y-99002933D01*
X107747942Y-99035550D01*
X107721892Y-99049708D01*
X107707054Y-99047194D01*
X107700438Y-99036796D01*
X107704770Y-99008255D01*
X107719711Y-98989844D01*
X107753549Y-98958092D01*
X107799801Y-98919432D01*
X107852906Y-98878307D01*
X107907303Y-98839157D01*
X107957431Y-98806426D01*
X107987774Y-98789193D01*
X108025432Y-98771209D01*
X108049758Y-98763812D01*
X108064884Y-98764919D01*
G37*
G36*
X109852709Y-99231695D02*
G01*
X109899181Y-99234849D01*
X109946145Y-99242666D01*
X109986621Y-99257749D01*
X110032536Y-99283536D01*
X110094602Y-99330051D01*
X110140797Y-99388530D01*
X110152004Y-99407858D01*
X110171090Y-99435714D01*
X110183236Y-99446661D01*
X110184482Y-99446990D01*
X110191088Y-99462396D01*
X110193780Y-99493727D01*
X110193832Y-99497993D01*
X110197944Y-99530921D01*
X110206618Y-99548726D01*
X110212866Y-99560272D01*
X110211551Y-99587148D01*
X110205732Y-99617349D01*
X110201124Y-99658670D01*
X110188244Y-99710273D01*
X110158023Y-99769352D01*
X110115132Y-99826594D01*
X110112772Y-99829259D01*
X110092626Y-99854776D01*
X110084357Y-99870456D01*
X110075849Y-99882103D01*
X110047125Y-99899649D01*
X110005027Y-99918404D01*
X109956775Y-99935552D01*
X109909594Y-99948276D01*
X109870705Y-99953761D01*
X109770802Y-99949492D01*
X109684088Y-99928108D01*
X109612014Y-99887882D01*
X109550643Y-99827259D01*
X109545900Y-99821285D01*
X109500494Y-99751082D01*
X109476142Y-99679042D01*
X109468981Y-99594139D01*
X109469435Y-99582707D01*
X109537314Y-99582707D01*
X109544444Y-99651893D01*
X109567746Y-99721068D01*
X109604522Y-99773005D01*
X109633615Y-99799890D01*
X109678769Y-99837241D01*
X109712327Y-99858876D01*
X109730976Y-99862451D01*
X109734746Y-99860934D01*
X109742407Y-99869843D01*
X109743811Y-99872405D01*
X109765065Y-99877894D01*
X109809700Y-99879693D01*
X109874896Y-99877771D01*
X109957835Y-99872100D01*
X109965627Y-99869184D01*
X109974933Y-99850161D01*
X109977050Y-99840638D01*
X109993346Y-99829644D01*
X110006913Y-99823560D01*
X110034363Y-99801630D01*
X110066748Y-99769223D01*
X110089121Y-99744042D01*
X110107791Y-99718084D01*
X110117858Y-99691190D01*
X110122294Y-99654554D01*
X110124072Y-99599370D01*
X110124176Y-99593782D01*
X110123285Y-99538276D01*
X110119036Y-99498824D01*
X110111998Y-99481033D01*
X110107227Y-99477099D01*
X110104057Y-99461660D01*
X110101417Y-99447383D01*
X110081238Y-99422147D01*
X110048281Y-99391864D01*
X110008272Y-99361259D01*
X109966937Y-99335060D01*
X109930001Y-99317991D01*
X109907590Y-99311037D01*
X109867360Y-99301025D01*
X109841095Y-99297790D01*
X109835120Y-99298220D01*
X109825128Y-99300439D01*
X109841573Y-99305632D01*
X109854242Y-99310877D01*
X109865509Y-99324562D01*
X109867691Y-99330280D01*
X109885675Y-99337237D01*
X109892751Y-99338198D01*
X109916804Y-99357618D01*
X109935946Y-99398736D01*
X109948647Y-99457219D01*
X109953372Y-99528729D01*
X109953338Y-99539174D01*
X109947088Y-99616537D01*
X109928640Y-99673144D01*
X109895834Y-99713291D01*
X109846511Y-99741270D01*
X109835624Y-99745557D01*
X109802534Y-99755504D01*
X109776092Y-99753349D01*
X109741790Y-99738743D01*
X109696775Y-99706389D01*
X109659027Y-99651130D01*
X109646370Y-99607377D01*
X109717562Y-99607377D01*
X109726320Y-99634989D01*
X109750925Y-99649134D01*
X109774807Y-99645043D01*
X109790976Y-99623140D01*
X109788388Y-99590280D01*
X109775609Y-99577208D01*
X109746874Y-99569763D01*
X109733239Y-99570489D01*
X109718148Y-99580038D01*
X109717562Y-99607377D01*
X109646370Y-99607377D01*
X109638902Y-99581563D01*
X109637592Y-99502170D01*
X109656291Y-99417432D01*
X109682406Y-99340329D01*
X109643924Y-99368780D01*
X109638405Y-99373154D01*
X109602300Y-99414573D01*
X109569783Y-99470596D01*
X109546304Y-99530287D01*
X109537314Y-99582707D01*
X109469435Y-99582707D01*
X109470202Y-99563384D01*
X109490723Y-99466522D01*
X109535089Y-99380926D01*
X109601385Y-99309562D01*
X109687695Y-99255395D01*
X109704403Y-99248060D01*
X109744697Y-99235574D01*
X109790563Y-99230631D01*
X109852709Y-99231695D01*
G37*
G36*
X108635369Y-99231695D02*
G01*
X108681841Y-99234849D01*
X108728805Y-99242666D01*
X108769282Y-99257749D01*
X108815197Y-99283536D01*
X108877262Y-99330051D01*
X108923457Y-99388530D01*
X108934665Y-99407858D01*
X108953750Y-99435714D01*
X108965896Y-99446661D01*
X108967142Y-99446990D01*
X108973748Y-99462396D01*
X108976441Y-99493727D01*
X108976493Y-99497993D01*
X108980604Y-99530921D01*
X108989278Y-99548726D01*
X108995527Y-99560272D01*
X108994211Y-99587148D01*
X108988392Y-99617349D01*
X108983784Y-99658670D01*
X108970904Y-99710273D01*
X108940684Y-99769352D01*
X108897792Y-99826594D01*
X108895433Y-99829259D01*
X108875287Y-99854776D01*
X108867017Y-99870456D01*
X108858509Y-99882103D01*
X108829786Y-99899649D01*
X108787687Y-99918404D01*
X108739436Y-99935552D01*
X108692254Y-99948276D01*
X108653366Y-99953761D01*
X108553462Y-99949492D01*
X108466748Y-99928108D01*
X108394674Y-99887882D01*
X108333304Y-99827259D01*
X108328560Y-99821285D01*
X108283154Y-99751082D01*
X108258802Y-99679042D01*
X108251642Y-99594139D01*
X108252499Y-99572529D01*
X108323489Y-99572529D01*
X108325862Y-99647854D01*
X108346963Y-99716815D01*
X108387182Y-99773005D01*
X108416275Y-99799890D01*
X108461429Y-99837241D01*
X108494987Y-99858876D01*
X108513636Y-99862451D01*
X108517406Y-99860934D01*
X108525067Y-99869843D01*
X108526471Y-99872405D01*
X108547725Y-99877894D01*
X108592360Y-99879693D01*
X108657557Y-99877771D01*
X108740496Y-99872100D01*
X108748287Y-99869184D01*
X108757593Y-99850161D01*
X108759710Y-99840638D01*
X108776006Y-99829644D01*
X108789541Y-99823583D01*
X108816977Y-99801678D01*
X108849346Y-99769291D01*
X108868342Y-99748027D01*
X108888753Y-99720850D01*
X108899828Y-99693877D01*
X108904753Y-99657922D01*
X108906711Y-99603798D01*
X108906200Y-99549891D01*
X108901562Y-99504077D01*
X108893247Y-99479499D01*
X108886214Y-99468627D01*
X108888542Y-99460339D01*
X108889446Y-99457113D01*
X108877798Y-99439781D01*
X108853339Y-99412466D01*
X108853250Y-99412375D01*
X108819294Y-99380369D01*
X108797921Y-99366428D01*
X108791145Y-99371209D01*
X108800979Y-99395369D01*
X108801661Y-99396686D01*
X108809937Y-99426928D01*
X108815860Y-99474152D01*
X108818188Y-99528729D01*
X108818146Y-99539082D01*
X108811843Y-99616490D01*
X108793364Y-99673129D01*
X108760549Y-99713291D01*
X108711239Y-99741270D01*
X108700082Y-99745661D01*
X108667087Y-99755521D01*
X108640555Y-99753246D01*
X108605901Y-99738443D01*
X108569288Y-99713868D01*
X108529037Y-99661463D01*
X108510769Y-99607377D01*
X108582290Y-99607377D01*
X108591048Y-99634989D01*
X108615653Y-99649134D01*
X108639535Y-99645043D01*
X108655704Y-99623140D01*
X108653116Y-99590280D01*
X108640337Y-99577208D01*
X108611602Y-99569763D01*
X108597967Y-99570489D01*
X108582876Y-99580038D01*
X108582290Y-99607377D01*
X108510769Y-99607377D01*
X108506094Y-99593535D01*
X108501685Y-99514361D01*
X108517036Y-99428221D01*
X108528112Y-99394102D01*
X108541237Y-99362935D01*
X108550713Y-99350915D01*
X108565390Y-99344076D01*
X108771271Y-99344076D01*
X108778110Y-99350915D01*
X108784949Y-99344076D01*
X108778110Y-99337237D01*
X108771271Y-99344076D01*
X108565390Y-99344076D01*
X108567710Y-99342995D01*
X108593457Y-99323559D01*
X108611204Y-99307305D01*
X108614822Y-99298410D01*
X108598970Y-99297283D01*
X108583735Y-99298779D01*
X108524976Y-99315392D01*
X108463464Y-99345738D01*
X108410835Y-99384426D01*
X108373366Y-99428418D01*
X108339454Y-99497248D01*
X108323489Y-99572529D01*
X108252499Y-99572529D01*
X108252862Y-99563384D01*
X108273383Y-99466522D01*
X108317749Y-99380926D01*
X108384045Y-99309562D01*
X108470356Y-99255395D01*
X108487063Y-99248060D01*
X108527357Y-99235574D01*
X108573223Y-99230631D01*
X108635369Y-99231695D01*
G37*
G36*
X109285673Y-96645251D02*
G01*
X109382428Y-96647559D01*
X109474887Y-96651470D01*
X109556126Y-96656853D01*
X109619220Y-96663576D01*
X109732245Y-96682522D01*
X109965712Y-96741274D01*
X110188965Y-96825222D01*
X110402903Y-96934733D01*
X110608424Y-97070178D01*
X110631818Y-97087950D01*
X110714144Y-97156918D01*
X110804368Y-97240467D01*
X110896629Y-97332603D01*
X110985068Y-97427331D01*
X111063821Y-97518656D01*
X111127029Y-97600585D01*
X111189309Y-97695262D01*
X111259234Y-97816942D01*
X111324486Y-97945750D01*
X111380479Y-98072570D01*
X111422630Y-98188287D01*
X111427116Y-98202730D01*
X111483855Y-98431695D01*
X111517090Y-98668793D01*
X111526844Y-98909560D01*
X111513139Y-99149533D01*
X111475997Y-99384249D01*
X111415441Y-99609243D01*
X111402141Y-99647637D01*
X111340062Y-99797515D01*
X111261796Y-99951976D01*
X111171979Y-100103063D01*
X111075249Y-100242814D01*
X110976240Y-100363271D01*
X110895017Y-100452364D01*
X110879187Y-100643670D01*
X110877611Y-100662674D01*
X110859872Y-100868557D01*
X110843038Y-101048426D01*
X110826942Y-101203497D01*
X110811416Y-101334985D01*
X110796293Y-101444105D01*
X110781407Y-101532073D01*
X110766589Y-101600104D01*
X110751673Y-101649414D01*
X110736492Y-101681219D01*
X110726562Y-101693705D01*
X110685024Y-101719508D01*
X110631715Y-101726371D01*
X110573853Y-101712889D01*
X110536266Y-101691639D01*
X110477574Y-101643198D01*
X110410681Y-101573461D01*
X110337603Y-101484377D01*
X110337169Y-101483813D01*
X110292535Y-101427061D01*
X110241127Y-101363479D01*
X110193985Y-101306725D01*
X110193165Y-101305756D01*
X110147018Y-101248401D01*
X110098442Y-101183707D01*
X110057821Y-101125491D01*
X110049277Y-101112684D01*
X110020717Y-101072239D01*
X109998260Y-101043953D01*
X109986164Y-101033306D01*
X109985006Y-101033389D01*
X109964011Y-101037710D01*
X109925182Y-101047290D01*
X109875920Y-101060316D01*
X109848678Y-101067493D01*
X109641958Y-101108550D01*
X109424313Y-101130194D01*
X109201940Y-101132588D01*
X108981037Y-101115896D01*
X108767801Y-101080279D01*
X108568430Y-101025902D01*
X108535086Y-101014898D01*
X108479461Y-100997897D01*
X108442831Y-100989525D01*
X108420739Y-100988924D01*
X108408730Y-100995241D01*
X108395980Y-101010000D01*
X108362785Y-101050014D01*
X108320198Y-101102548D01*
X108272897Y-101161737D01*
X108225558Y-101221710D01*
X108182857Y-101276602D01*
X108149470Y-101320544D01*
X108121145Y-101357013D01*
X108068269Y-101419608D01*
X108009836Y-101483704D01*
X107950366Y-101544723D01*
X107894379Y-101598083D01*
X107846397Y-101639206D01*
X107810938Y-101663512D01*
X107786920Y-101674679D01*
X107718488Y-101690501D01*
X107655282Y-101679574D01*
X107596603Y-101641828D01*
X107578828Y-101624444D01*
X107547953Y-101587563D01*
X107529641Y-101556341D01*
X107526061Y-101545142D01*
X107515398Y-101501040D01*
X107502816Y-101437936D01*
X107489272Y-101361622D01*
X107475718Y-101277892D01*
X107463112Y-101192540D01*
X107452406Y-101111360D01*
X107444558Y-101040145D01*
X107442233Y-101016304D01*
X107433967Y-100938101D01*
X107424871Y-100859345D01*
X107416526Y-100793942D01*
X107407073Y-100719334D01*
X107391364Y-100559941D01*
X107380945Y-100399724D01*
X107376814Y-100252279D01*
X107376773Y-100249142D01*
X107433562Y-100249142D01*
X107436470Y-100302475D01*
X107442538Y-100378438D01*
X107451309Y-100479348D01*
X107461719Y-100596404D01*
X107481345Y-100804841D01*
X107500087Y-100987219D01*
X107517918Y-101143325D01*
X107534812Y-101272946D01*
X107550743Y-101375869D01*
X107565682Y-101451881D01*
X107579605Y-101500771D01*
X107582042Y-101506527D01*
X107601996Y-101541207D01*
X107629030Y-101577777D01*
X107660001Y-101606437D01*
X107699035Y-101621222D01*
X107743614Y-101615642D01*
X107795880Y-101588930D01*
X107857974Y-101540318D01*
X107932035Y-101469036D01*
X107963967Y-101435492D01*
X108022273Y-101371222D01*
X108078356Y-101306179D01*
X108123526Y-101250289D01*
X108131956Y-101239335D01*
X108181917Y-101175403D01*
X108236096Y-101107338D01*
X108284163Y-101048139D01*
X108303548Y-101024331D01*
X108333841Y-100985685D01*
X108353645Y-100958389D01*
X108359392Y-100947229D01*
X108343605Y-100939083D01*
X108311890Y-100923838D01*
X108272738Y-100905503D01*
X108234177Y-100887799D01*
X108204239Y-100874448D01*
X108190954Y-100869171D01*
X108186937Y-100872842D01*
X108171953Y-100893857D01*
X108151046Y-100927302D01*
X108123635Y-100967189D01*
X108078215Y-101022215D01*
X108026271Y-101077367D01*
X107975054Y-101125027D01*
X107931815Y-101157579D01*
X107916422Y-101165917D01*
X107859632Y-101181078D01*
X107805274Y-101174507D01*
X107759807Y-101147946D01*
X107729691Y-101103133D01*
X107711414Y-101043913D01*
X107692005Y-100938432D01*
X107681258Y-100812572D01*
X107679570Y-100669755D01*
X107683382Y-100477178D01*
X107610984Y-100396195D01*
X107610058Y-100395158D01*
X107567865Y-100346705D01*
X107526563Y-100297308D01*
X107494966Y-100257504D01*
X107482371Y-100240828D01*
X107462642Y-100215767D01*
X107448353Y-100201750D01*
X107439047Y-100201096D01*
X107434269Y-100216121D01*
X107433562Y-100249142D01*
X107376773Y-100249142D01*
X107376042Y-100192734D01*
X107373273Y-100142404D01*
X107367237Y-100105286D01*
X107356617Y-100073776D01*
X107340095Y-100040271D01*
X107337866Y-100036119D01*
X107256305Y-99877002D01*
X107190756Y-99731979D01*
X107139131Y-99594835D01*
X107099336Y-99459354D01*
X107069284Y-99319321D01*
X107046881Y-99168521D01*
X107040668Y-99099718D01*
X107036429Y-98992114D01*
X107036444Y-98885677D01*
X107104321Y-98885677D01*
X107115831Y-99117779D01*
X107151578Y-99347278D01*
X107211940Y-99571201D01*
X107230937Y-99625643D01*
X107261761Y-99705450D01*
X107295257Y-99784490D01*
X107329083Y-99857753D01*
X107360895Y-99920229D01*
X107388350Y-99966908D01*
X107409106Y-99992778D01*
X107421257Y-100005739D01*
X107430829Y-100027505D01*
X107434427Y-100042224D01*
X107454803Y-100079499D01*
X107490658Y-100130235D01*
X107539113Y-100191267D01*
X107597287Y-100259430D01*
X107662300Y-100331561D01*
X107731271Y-100404494D01*
X107801320Y-100475064D01*
X107869567Y-100540106D01*
X107933131Y-100596456D01*
X107989132Y-100640949D01*
X108024389Y-100666290D01*
X108228294Y-100795242D01*
X108438140Y-100898059D01*
X108655393Y-100975184D01*
X108881521Y-101027060D01*
X109117989Y-101054131D01*
X109366263Y-101056839D01*
X109378774Y-101056351D01*
X109624697Y-101033857D01*
X109706944Y-101017408D01*
X110057001Y-101017408D01*
X110064903Y-101034594D01*
X110088863Y-101070432D01*
X110126955Y-101122091D01*
X110177231Y-101187098D01*
X110237747Y-101262981D01*
X110306556Y-101347267D01*
X110381713Y-101437483D01*
X110461271Y-101531156D01*
X110483509Y-101556285D01*
X110544544Y-101615361D01*
X110596316Y-101649193D01*
X110638639Y-101657685D01*
X110671330Y-101640739D01*
X110690900Y-101610114D01*
X110709184Y-101560674D01*
X110726346Y-101491223D01*
X110742577Y-101400537D01*
X110758068Y-101287392D01*
X110773007Y-101150564D01*
X110787587Y-100988828D01*
X110801998Y-100800960D01*
X110802792Y-100789812D01*
X110808420Y-100708769D01*
X110813067Y-100638274D01*
X110816474Y-100582511D01*
X110818384Y-100545663D01*
X110818541Y-100531914D01*
X110815051Y-100533500D01*
X110796532Y-100547908D01*
X110767974Y-100572768D01*
X110744423Y-100593666D01*
X110699185Y-100632837D01*
X110653955Y-100671109D01*
X110587998Y-100726090D01*
X110624674Y-100839387D01*
X110629898Y-100855741D01*
X110645995Y-100912595D01*
X110654802Y-100962138D01*
X110657808Y-101015878D01*
X110656502Y-101085321D01*
X110653955Y-101133958D01*
X110645231Y-101206020D01*
X110629957Y-101258024D01*
X110606521Y-101294517D01*
X110573312Y-101320047D01*
X110566809Y-101323607D01*
X110542257Y-101333216D01*
X110518959Y-101330207D01*
X110484651Y-101313705D01*
X110483909Y-101313303D01*
X110444144Y-101282882D01*
X110397380Y-101233502D01*
X110348110Y-101170864D01*
X110300825Y-101100668D01*
X110260017Y-101028615D01*
X110241874Y-100994294D01*
X110223317Y-100966487D01*
X110207185Y-100955463D01*
X110188724Y-100956408D01*
X110179833Y-100958778D01*
X110138170Y-100972735D01*
X110098443Y-100989645D01*
X110068703Y-101005778D01*
X110057001Y-101017408D01*
X109706944Y-101017408D01*
X109857922Y-100987213D01*
X110078805Y-100916305D01*
X110287700Y-100821023D01*
X110484963Y-100701251D01*
X110529957Y-100669473D01*
X110722308Y-100514553D01*
X110894795Y-100343076D01*
X111046298Y-100156724D01*
X111175697Y-99957179D01*
X111281873Y-99746122D01*
X111363707Y-99525237D01*
X111420079Y-99296203D01*
X111430661Y-99221569D01*
X111438975Y-99121905D01*
X111444040Y-99009055D01*
X111445854Y-98889743D01*
X111444413Y-98770694D01*
X111439712Y-98658631D01*
X111431749Y-98560280D01*
X111420521Y-98482364D01*
X111371669Y-98278214D01*
X111298159Y-98063827D01*
X111203622Y-97863453D01*
X111086510Y-97674290D01*
X110945279Y-97493537D01*
X110778381Y-97318390D01*
X110731720Y-97274601D01*
X110545887Y-97120660D01*
X110352120Y-96992333D01*
X110148741Y-96888734D01*
X109934071Y-96808976D01*
X109706432Y-96752175D01*
X109698994Y-96750761D01*
X109600946Y-96736378D01*
X109485345Y-96725557D01*
X109361036Y-96718652D01*
X109236865Y-96716014D01*
X109121676Y-96717998D01*
X109024314Y-96724956D01*
X108891028Y-96744289D01*
X108662116Y-96798391D01*
X108440412Y-96877232D01*
X108228955Y-96979457D01*
X108030784Y-97103712D01*
X107848940Y-97248642D01*
X107767805Y-97321389D01*
X107821584Y-97361092D01*
X107981296Y-97487371D01*
X108152689Y-97643721D01*
X108305813Y-97807073D01*
X108436161Y-97972939D01*
X108437360Y-97974625D01*
X108466123Y-98012222D01*
X108489701Y-98038094D01*
X108503093Y-98046725D01*
X108510786Y-98039688D01*
X108528182Y-98013634D01*
X108548675Y-97975625D01*
X108562083Y-97948811D01*
X108581781Y-97910860D01*
X108594917Y-97887372D01*
X108602125Y-97874655D01*
X108619654Y-97840631D01*
X108640167Y-97798465D01*
X108656506Y-97766011D01*
X108722504Y-97663674D01*
X108801238Y-97577536D01*
X108888869Y-97511307D01*
X108981555Y-97468696D01*
X109044074Y-97454159D01*
X109124320Y-97443803D01*
X109211354Y-97438675D01*
X109296814Y-97438995D01*
X109372335Y-97444983D01*
X109429554Y-97456862D01*
X109461060Y-97468364D01*
X109565490Y-97524903D01*
X109657314Y-97605057D01*
X109735051Y-97707611D01*
X109771965Y-97767214D01*
X109793423Y-97734967D01*
X109836323Y-97679149D01*
X109909409Y-97614591D01*
X109990569Y-97574960D01*
X110078018Y-97561019D01*
X110169973Y-97573533D01*
X110182668Y-97577582D01*
X110227212Y-97604751D01*
X110257970Y-97650622D01*
X110277663Y-97718871D01*
X110282634Y-97793560D01*
X110268162Y-97857299D01*
X110236272Y-97904469D01*
X110189589Y-97932597D01*
X110130739Y-97939207D01*
X110062348Y-97921825D01*
X110037454Y-97908886D01*
X110017646Y-97888054D01*
X110019532Y-97869955D01*
X110039704Y-97857879D01*
X110074753Y-97855115D01*
X110121271Y-97864953D01*
X110148102Y-97867066D01*
X110178610Y-97849382D01*
X110199629Y-97812355D01*
X110207458Y-97760475D01*
X110202584Y-97706688D01*
X110183657Y-97667865D01*
X110147020Y-97647237D01*
X110089068Y-97641168D01*
X110088740Y-97641169D01*
X110002276Y-97652262D01*
X109931877Y-97685491D01*
X109877324Y-97741013D01*
X109838399Y-97818982D01*
X109832781Y-97836747D01*
X109829938Y-97859300D01*
X109835122Y-97884162D01*
X109850164Y-97918489D01*
X109876897Y-97969440D01*
X109898137Y-98012834D01*
X109927924Y-98082649D01*
X109957641Y-98160484D01*
X109983227Y-98236160D01*
X109985218Y-98242565D01*
X110007077Y-98315905D01*
X110021434Y-98373800D01*
X110029881Y-98425845D01*
X110034008Y-98481632D01*
X110035407Y-98550754D01*
X110035527Y-98570844D01*
X110035075Y-98632943D01*
X110032175Y-98677480D01*
X110025492Y-98712211D01*
X110013695Y-98744892D01*
X109995450Y-98783279D01*
X109974690Y-98822752D01*
X109955219Y-98850755D01*
X109935559Y-98864423D01*
X109909880Y-98869639D01*
X109878418Y-98868518D01*
X109827538Y-98846325D01*
X109780695Y-98797993D01*
X109737256Y-98722984D01*
X109694534Y-98632822D01*
X109695202Y-98352423D01*
X109764039Y-98352423D01*
X109764407Y-98414110D01*
X109765475Y-98490047D01*
X109767562Y-98546522D01*
X109771137Y-98588330D01*
X109776669Y-98620263D01*
X109784628Y-98647117D01*
X109795482Y-98673685D01*
X109817873Y-98717673D01*
X109846492Y-98761478D01*
X109873736Y-98792206D01*
X109894971Y-98803796D01*
X109897763Y-98803393D01*
X109915392Y-98786881D01*
X109933970Y-98750897D01*
X109951145Y-98701944D01*
X109964564Y-98646525D01*
X109971877Y-98591142D01*
X109971913Y-98590594D01*
X109973392Y-98545359D01*
X109970841Y-98501780D01*
X109963177Y-98452932D01*
X109949316Y-98391889D01*
X109928176Y-98311725D01*
X109925538Y-98302145D01*
X109903822Y-98227978D01*
X109881231Y-98157772D01*
X109860288Y-98099049D01*
X109843515Y-98059329D01*
X109828564Y-98030373D01*
X109809432Y-97996204D01*
X109797232Y-97978048D01*
X109797067Y-97977882D01*
X109787051Y-97980623D01*
X109778667Y-98009191D01*
X109772043Y-98062121D01*
X109767311Y-98137947D01*
X109764599Y-98235202D01*
X109764039Y-98352423D01*
X109695202Y-98352423D01*
X109695283Y-98318228D01*
X109695373Y-98289035D01*
X109696186Y-98186860D01*
X109697892Y-98107237D01*
X109700722Y-98046319D01*
X109704910Y-98000259D01*
X109710686Y-97965210D01*
X109718283Y-97937326D01*
X109722049Y-97925999D01*
X109731072Y-97893797D01*
X109732593Y-97867068D01*
X109725000Y-97838559D01*
X109706682Y-97801020D01*
X109676028Y-97747199D01*
X109672480Y-97741177D01*
X109605021Y-97651387D01*
X109522508Y-97579850D01*
X109429826Y-97530860D01*
X109398219Y-97519881D01*
X109361619Y-97510978D01*
X109320340Y-97506393D01*
X109266848Y-97505370D01*
X109193610Y-97507152D01*
X109174121Y-97507844D01*
X109108507Y-97511053D01*
X109060557Y-97516002D01*
X109022472Y-97524249D01*
X108986454Y-97537352D01*
X108944707Y-97556868D01*
X108907725Y-97576718D01*
X108830050Y-97632984D01*
X108764937Y-97704823D01*
X108709275Y-97796099D01*
X108659956Y-97910676D01*
X108645694Y-97946572D01*
X108624757Y-97992483D01*
X108607098Y-98024152D01*
X108605523Y-98026499D01*
X108584845Y-98064879D01*
X108567311Y-98108514D01*
X108563974Y-98119302D01*
X108559695Y-98141173D01*
X108561456Y-98163792D01*
X108570903Y-98193040D01*
X108589678Y-98234799D01*
X108619427Y-98294949D01*
X108664460Y-98389138D01*
X108708476Y-98496172D01*
X108735024Y-98583550D01*
X108743915Y-98650733D01*
X108742869Y-98677636D01*
X108730364Y-98748832D01*
X108706064Y-98813093D01*
X108672924Y-98865316D01*
X108633901Y-98900393D01*
X108591950Y-98913220D01*
X108553066Y-98901694D01*
X108513514Y-98871542D01*
X108481509Y-98830464D01*
X108464764Y-98786167D01*
X108457361Y-98724926D01*
X108450386Y-98602178D01*
X108450510Y-98578240D01*
X108520418Y-98578240D01*
X108522086Y-98647584D01*
X108525701Y-98709589D01*
X108531326Y-98759054D01*
X108539020Y-98790780D01*
X108555176Y-98819295D01*
X108580612Y-98837098D01*
X108607484Y-98832978D01*
X108633097Y-98809676D01*
X108654759Y-98769929D01*
X108669774Y-98716478D01*
X108675449Y-98652060D01*
X108672779Y-98620613D01*
X108656751Y-98552633D01*
X108627556Y-98469651D01*
X108586705Y-98376360D01*
X108568132Y-98338543D01*
X108552461Y-98309019D01*
X108544790Y-98297711D01*
X108539169Y-98303460D01*
X108532010Y-98331489D01*
X108526494Y-98378182D01*
X108522683Y-98438338D01*
X108520638Y-98506758D01*
X108520418Y-98578240D01*
X108450510Y-98578240D01*
X108451084Y-98466990D01*
X108459556Y-98328184D01*
X108466101Y-98254368D01*
X108469227Y-98197233D01*
X108466573Y-98153452D01*
X108456116Y-98115903D01*
X108435834Y-98077466D01*
X108403707Y-98031018D01*
X108357712Y-97969440D01*
X108284768Y-97877625D01*
X108188473Y-97768346D01*
X108085023Y-97661484D01*
X107979761Y-97562276D01*
X107878027Y-97475964D01*
X107785164Y-97407787D01*
X107725762Y-97368461D01*
X107693376Y-97398810D01*
X107687825Y-97404146D01*
X107648624Y-97446393D01*
X107600153Y-97504243D01*
X107547296Y-97571510D01*
X107494939Y-97642010D01*
X107447964Y-97709558D01*
X107397140Y-97790235D01*
X107293118Y-97990733D01*
X107211448Y-98203501D01*
X107152507Y-98425564D01*
X107116672Y-98653948D01*
X107104321Y-98885677D01*
X107036444Y-98885677D01*
X107036446Y-98872646D01*
X107040437Y-98749128D01*
X107048121Y-98629376D01*
X107059215Y-98521202D01*
X107073437Y-98432422D01*
X107111101Y-98277299D01*
X107190182Y-98045983D01*
X107294119Y-97825348D01*
X107422144Y-97616943D01*
X107573489Y-97422321D01*
X107588597Y-97404915D01*
X107623493Y-97363805D01*
X107643298Y-97337210D01*
X107650264Y-97320600D01*
X107646642Y-97309446D01*
X107634684Y-97299219D01*
X107628995Y-97294978D01*
X107597191Y-97270160D01*
X107561412Y-97241088D01*
X107549852Y-97231819D01*
X107520902Y-97211554D01*
X107503178Y-97203473D01*
X107493960Y-97200579D01*
X107466194Y-97186121D01*
X107429755Y-97163596D01*
X107367905Y-97128973D01*
X107262456Y-97087949D01*
X107143691Y-97057919D01*
X107018763Y-97039810D01*
X106894826Y-97034549D01*
X106779034Y-97043063D01*
X106678541Y-97066277D01*
X106654130Y-97075120D01*
X106548855Y-97124216D01*
X106450671Y-97186623D01*
X106369705Y-97256118D01*
X106319077Y-97326342D01*
X106285115Y-97417100D01*
X106269997Y-97524655D01*
X106273965Y-97647242D01*
X106297261Y-97783094D01*
X106309649Y-97834715D01*
X106326670Y-97894458D01*
X106345864Y-97940549D01*
X106371639Y-97980896D01*
X106408405Y-98023405D01*
X106460570Y-98075985D01*
X106531039Y-98141156D01*
X106598391Y-98192225D01*
X106661286Y-98225394D01*
X106724999Y-98243392D01*
X106794804Y-98248950D01*
X106835544Y-98247712D01*
X106909812Y-98234746D01*
X106963468Y-98206943D01*
X106998706Y-98163382D01*
X107008766Y-98138308D01*
X107023527Y-98085990D01*
X107037760Y-98020986D01*
X107049854Y-97951766D01*
X107058201Y-97886803D01*
X107061190Y-97834569D01*
X107060993Y-97822053D01*
X107051585Y-97734626D01*
X107029311Y-97661829D01*
X106995759Y-97609140D01*
X106939753Y-97562688D01*
X106875521Y-97531107D01*
X106811418Y-97518273D01*
X106754382Y-97526563D01*
X106740820Y-97534349D01*
X106715155Y-97567549D01*
X106700502Y-97614598D01*
X106700325Y-97666526D01*
X106702625Y-97707891D01*
X106692500Y-97729901D01*
X106690782Y-97730889D01*
X106670251Y-97730450D01*
X106654075Y-97709574D01*
X106643467Y-97674530D01*
X106639638Y-97631588D01*
X106643800Y-97587017D01*
X106657165Y-97547084D01*
X106661951Y-97538577D01*
X106701686Y-97493535D01*
X106753887Y-97461806D01*
X106808482Y-97449861D01*
X106815516Y-97450125D01*
X106867943Y-97461944D01*
X106928742Y-97487979D01*
X106988658Y-97523625D01*
X107038432Y-97564276D01*
X107059471Y-97587298D01*
X107085176Y-97626099D01*
X107102204Y-97671860D01*
X107111653Y-97729596D01*
X107114620Y-97804321D01*
X107112205Y-97901050D01*
X107108521Y-97964875D01*
X107096656Y-98067230D01*
X107076937Y-98147547D01*
X107047611Y-98208985D01*
X107006926Y-98254702D01*
X106953130Y-98287859D01*
X106884469Y-98311613D01*
X106805957Y-98322524D01*
X106708639Y-98311244D01*
X106609124Y-98273771D01*
X106508544Y-98210557D01*
X106408034Y-98122053D01*
X106380918Y-98094288D01*
X106331613Y-98039350D01*
X106295911Y-97989266D01*
X106269483Y-97936049D01*
X106247998Y-97871708D01*
X106227127Y-97788253D01*
X106214009Y-97719937D01*
X106202385Y-97586177D01*
X106208942Y-97457466D01*
X106233566Y-97341599D01*
X106234504Y-97338685D01*
X106271973Y-97264417D01*
X106332515Y-97192674D01*
X106412007Y-97126047D01*
X106506329Y-97067124D01*
X106611358Y-97018495D01*
X106722973Y-96982749D01*
X106837051Y-96962476D01*
X106919319Y-96959666D01*
X107022774Y-96967347D01*
X107131819Y-96984926D01*
X107239879Y-97010802D01*
X107340377Y-97043371D01*
X107426736Y-97081030D01*
X107492380Y-97122178D01*
X107521738Y-97144972D01*
X107579426Y-97187600D01*
X107633032Y-97225010D01*
X107705294Y-97273283D01*
X107831363Y-97167478D01*
X107907389Y-97106031D01*
X108107653Y-96966013D01*
X108316040Y-96851507D01*
X108534619Y-96761608D01*
X108765461Y-96695412D01*
X109010636Y-96652013D01*
X109038888Y-96649261D01*
X109106978Y-96645970D01*
X109191548Y-96644677D01*
X109285673Y-96645251D01*
G37*
%LPC*%
D12*
X114075000Y-91650000D03*
D13*
X111535000Y-91650000D03*
X108995000Y-91650000D03*
X106455000Y-91650000D03*
X103915000Y-91650000D03*
D14*
X115100000Y-99900000D03*
D15*
X112005000Y-94500000D03*
X110505000Y-94500000D03*
X109005000Y-94500000D03*
X107505000Y-94500000D03*
X106005000Y-94500000D03*
D14*
X102900000Y-99900000D03*
%LPD*%
M02*
