M48
; DRILL file {KiCad 8.0.2} date 2024-11-03T01:21:10-0700
; FORMAT={-:-/ absolute / metric / decimal}
; #@! TF.CreationDate,2024-11-03T01:21:10-07:00
; #@! TF.GenerationSoftware,Kicad,Pcbnew,8.0.2
; #@! TF.FileFunction,Plated,1,2,PTH
FMAT,2
METRIC
; #@! TA.AperFunction,Plated,PTH,ViaDrill
T1C0.300
; #@! TA.AperFunction,Plated,PTH,ViaDrill
T2C0.400
; #@! TA.AperFunction,Plated,PTH,ComponentDrill
T3C0.600
; #@! TA.AperFunction,Plated,PTH,ComponentDrill
T4C0.750
%
G90
G05
T1
X105.225Y-93.875
X106.175Y-99.225
X107.9Y-105.75
X108.76Y-102.123
X109.85Y-107.45
X110.446Y-101.65
X110.55Y-106.873
X111.1Y-93.75
X111.114Y-107.983
X111.301Y-94.42
X113.31Y-103.515
X113.73Y-106.604
X113.767Y-97.55
X113.8Y-96.8
X113.804Y-110.8
X114.573Y-103.1
X114.6Y-99.15
X116.113Y-103.426
X116.175Y-105.833
X116.2Y-99.114
X117.673Y-101.6
X117.8Y-99.35
X118.6Y-99.4
X118.827Y-101.348
X120.1Y-91.6
X120.277Y-99.343
X122.025Y-99.19
X122.4Y-98.599
X122.79Y-97.25
X122.896Y-103.846
X123.15Y-92.8
X123.15Y-95.8
X123.28Y-98.556
X123.8Y-108.304
X124.7Y-105.8
T2
X104.65Y-106.45
X108.05Y-96.25
X108.65Y-97.2
X109.223Y-99.95
X110.8Y-99.85
X113.85Y-95.85
X114.0Y-91.95
X117.2Y-109.35
X119.45Y-108.65
X119.65Y-105.0
X121.0Y-97.673
X121.0Y-103.65
X124.25Y-100.9
T3
X105.619Y-100.375
X105.619Y-101.625
T4
X117.795Y-106.8
X119.295Y-106.8
X120.795Y-106.8
X122.295Y-106.8
X123.795Y-106.8
T3
X101.83Y-104.595G85X101.83Y-105.695
G05
X101.83Y-108.925G85X101.83Y-109.725
G05
X110.47Y-104.595G85X110.47Y-105.695
G05
X110.47Y-108.925G85X110.47Y-109.725
G05
M30
