G04 #@! TF.GenerationSoftware,KiCad,Pcbnew,8.0.6-8.0.6-0~ubuntu22.04.1*
G04 #@! TF.CreationDate,2024-11-03T15:11:06-08:00*
G04 #@! TF.ProjectId,uSlime,75536c69-6d65-42e6-9b69-6361645f7063,rev?*
G04 #@! TF.SameCoordinates,Original*
G04 #@! TF.FileFunction,Legend,Bot*
G04 #@! TF.FilePolarity,Positive*
%FSLAX46Y46*%
G04 Gerber Fmt 4.6, Leading zero omitted, Abs format (unit mm)*
G04 Created by KiCad (PCBNEW 8.0.6-8.0.6-0~ubuntu22.04.1) date 2024-11-03 15:11:06*
%MOMM*%
%LPD*%
G01*
G04 APERTURE LIST*
G04 Aperture macros list*
%AMFreePoly0*
4,1,19,0.550000,-0.750000,0.000000,-0.750000,0.000000,-0.744911,-0.071157,-0.744911,-0.207708,-0.704816,-0.327430,-0.627875,-0.420627,-0.520320,-0.479746,-0.390866,-0.500000,-0.250000,-0.500000,0.250000,-0.479746,0.390866,-0.420627,0.520320,-0.327430,0.627875,-0.207708,0.704816,-0.071157,0.744911,0.000000,0.744911,0.000000,0.750000,0.550000,0.750000,0.550000,-0.750000,0.550000,-0.750000,
$1*%
%AMFreePoly1*
4,1,19,0.000000,0.744911,0.071157,0.744911,0.207708,0.704816,0.327430,0.627875,0.420627,0.520320,0.479746,0.390866,0.500000,0.250000,0.500000,-0.250000,0.479746,-0.390866,0.420627,-0.520320,0.327430,-0.627875,0.207708,-0.704816,0.071157,-0.744911,0.000000,-0.744911,0.000000,-0.750000,-0.550000,-0.750000,-0.550000,0.750000,0.000000,0.750000,0.000000,0.744911,0.000000,0.744911,
$1*%
G04 Aperture macros list end*
%ADD10C,0.100000*%
%ADD11C,0.120000*%
%ADD12C,0.000000*%
%ADD13C,1.000000*%
%ADD14C,1.200000*%
%ADD15O,1.000000X1.800000*%
%ADD16O,1.000000X2.100000*%
%ADD17C,0.650000*%
%ADD18C,3.100000*%
%ADD19C,0.900000*%
%ADD20C,0.800000*%
%ADD21R,2.000000X2.000000*%
%ADD22FreePoly0,0.000000*%
%ADD23R,1.000000X1.500000*%
%ADD24FreePoly1,0.000000*%
G04 APERTURE END LIST*
D10*
X124749999Y-99961466D02*
X124649999Y-99994800D01*
X124649999Y-99994800D02*
X124616665Y-100028133D01*
X124616665Y-100028133D02*
X124583332Y-100094800D01*
X124583332Y-100094800D02*
X124583332Y-100194800D01*
X124583332Y-100194800D02*
X124616665Y-100261466D01*
X124616665Y-100261466D02*
X124649999Y-100294800D01*
X124649999Y-100294800D02*
X124716665Y-100328133D01*
X124716665Y-100328133D02*
X124983332Y-100328133D01*
X124983332Y-100328133D02*
X124983332Y-99628133D01*
X124983332Y-99628133D02*
X124749999Y-99628133D01*
X124749999Y-99628133D02*
X124683332Y-99661466D01*
X124683332Y-99661466D02*
X124649999Y-99694800D01*
X124649999Y-99694800D02*
X124616665Y-99761466D01*
X124616665Y-99761466D02*
X124616665Y-99828133D01*
X124616665Y-99828133D02*
X124649999Y-99894800D01*
X124649999Y-99894800D02*
X124683332Y-99928133D01*
X124683332Y-99928133D02*
X124749999Y-99961466D01*
X124749999Y-99961466D02*
X124983332Y-99961466D01*
X124149999Y-99628133D02*
X124016665Y-99628133D01*
X124016665Y-99628133D02*
X123949999Y-99661466D01*
X123949999Y-99661466D02*
X123883332Y-99728133D01*
X123883332Y-99728133D02*
X123849999Y-99861466D01*
X123849999Y-99861466D02*
X123849999Y-100094800D01*
X123849999Y-100094800D02*
X123883332Y-100228133D01*
X123883332Y-100228133D02*
X123949999Y-100294800D01*
X123949999Y-100294800D02*
X124016665Y-100328133D01*
X124016665Y-100328133D02*
X124149999Y-100328133D01*
X124149999Y-100328133D02*
X124216665Y-100294800D01*
X124216665Y-100294800D02*
X124283332Y-100228133D01*
X124283332Y-100228133D02*
X124316665Y-100094800D01*
X124316665Y-100094800D02*
X124316665Y-99861466D01*
X124316665Y-99861466D02*
X124283332Y-99728133D01*
X124283332Y-99728133D02*
X124216665Y-99661466D01*
X124216665Y-99661466D02*
X124149999Y-99628133D01*
X123416666Y-99628133D02*
X123283332Y-99628133D01*
X123283332Y-99628133D02*
X123216666Y-99661466D01*
X123216666Y-99661466D02*
X123149999Y-99728133D01*
X123149999Y-99728133D02*
X123116666Y-99861466D01*
X123116666Y-99861466D02*
X123116666Y-100094800D01*
X123116666Y-100094800D02*
X123149999Y-100228133D01*
X123149999Y-100228133D02*
X123216666Y-100294800D01*
X123216666Y-100294800D02*
X123283332Y-100328133D01*
X123283332Y-100328133D02*
X123416666Y-100328133D01*
X123416666Y-100328133D02*
X123483332Y-100294800D01*
X123483332Y-100294800D02*
X123549999Y-100228133D01*
X123549999Y-100228133D02*
X123583332Y-100094800D01*
X123583332Y-100094800D02*
X123583332Y-99861466D01*
X123583332Y-99861466D02*
X123549999Y-99728133D01*
X123549999Y-99728133D02*
X123483332Y-99661466D01*
X123483332Y-99661466D02*
X123416666Y-99628133D01*
X122916666Y-99628133D02*
X122516666Y-99628133D01*
X122716666Y-100328133D02*
X122716666Y-99628133D01*
X107303570Y-105973371D02*
X107228570Y-105373371D01*
X107299999Y-105944800D02*
X107360713Y-105973371D01*
X107360713Y-105973371D02*
X107474999Y-105973371D01*
X107474999Y-105973371D02*
X107528570Y-105944800D01*
X107528570Y-105944800D02*
X107553570Y-105916228D01*
X107553570Y-105916228D02*
X107574999Y-105859085D01*
X107574999Y-105859085D02*
X107553570Y-105687657D01*
X107553570Y-105687657D02*
X107517856Y-105630514D01*
X107517856Y-105630514D02*
X107485713Y-105601942D01*
X107485713Y-105601942D02*
X107424999Y-105573371D01*
X107424999Y-105573371D02*
X107310713Y-105573371D01*
X107310713Y-105573371D02*
X107257141Y-105601942D01*
X107017856Y-105973371D02*
X106967856Y-105573371D01*
X106942856Y-105373371D02*
X106974999Y-105401942D01*
X106974999Y-105401942D02*
X106949999Y-105430514D01*
X106949999Y-105430514D02*
X106917856Y-105401942D01*
X106917856Y-105401942D02*
X106942856Y-105373371D01*
X106942856Y-105373371D02*
X106949999Y-105430514D01*
X106682142Y-105573371D02*
X106732142Y-105973371D01*
X106689285Y-105630514D02*
X106657142Y-105601942D01*
X106657142Y-105601942D02*
X106596428Y-105573371D01*
X106596428Y-105573371D02*
X106510713Y-105573371D01*
X106510713Y-105573371D02*
X106457142Y-105601942D01*
X106457142Y-105601942D02*
X106435713Y-105659085D01*
X106435713Y-105659085D02*
X106474999Y-105973371D01*
X105882142Y-105573371D02*
X105942856Y-106059085D01*
X105942856Y-106059085D02*
X105978571Y-106116228D01*
X105978571Y-106116228D02*
X106010713Y-106144800D01*
X106010713Y-106144800D02*
X106071428Y-106173371D01*
X106071428Y-106173371D02*
X106157142Y-106173371D01*
X106157142Y-106173371D02*
X106210713Y-106144800D01*
X105928571Y-105944800D02*
X105989285Y-105973371D01*
X105989285Y-105973371D02*
X106103571Y-105973371D01*
X106103571Y-105973371D02*
X106157142Y-105944800D01*
X106157142Y-105944800D02*
X106182142Y-105916228D01*
X106182142Y-105916228D02*
X106203571Y-105859085D01*
X106203571Y-105859085D02*
X106182142Y-105687657D01*
X106182142Y-105687657D02*
X106146428Y-105630514D01*
X106146428Y-105630514D02*
X106114285Y-105601942D01*
X106114285Y-105601942D02*
X106053571Y-105573371D01*
X106053571Y-105573371D02*
X105939285Y-105573371D01*
X105939285Y-105573371D02*
X105885713Y-105601942D01*
X105653571Y-105573371D02*
X105560714Y-105973371D01*
X105367856Y-105573371D02*
X105560714Y-105973371D01*
X105560714Y-105973371D02*
X105635714Y-106116228D01*
X105635714Y-106116228D02*
X105667856Y-106144800D01*
X105667856Y-106144800D02*
X105728571Y-106173371D01*
X105189285Y-105973371D02*
X105139285Y-105573371D01*
X105114285Y-105373371D02*
X105146428Y-105401942D01*
X105146428Y-105401942D02*
X105121428Y-105430514D01*
X105121428Y-105430514D02*
X105089285Y-105401942D01*
X105089285Y-105401942D02*
X105114285Y-105373371D01*
X105114285Y-105373371D02*
X105121428Y-105430514D01*
X104939285Y-105573371D02*
X104710714Y-105573371D01*
X104903571Y-105973371D02*
X104839285Y-105459085D01*
X104839285Y-105459085D02*
X104803571Y-105401942D01*
X104803571Y-105401942D02*
X104742857Y-105373371D01*
X104742857Y-105373371D02*
X104685714Y-105373371D01*
X104328571Y-105944800D02*
X104389285Y-105973371D01*
X104389285Y-105973371D02*
X104503571Y-105973371D01*
X104503571Y-105973371D02*
X104557142Y-105944800D01*
X104557142Y-105944800D02*
X104578571Y-105887657D01*
X104578571Y-105887657D02*
X104550000Y-105659085D01*
X104550000Y-105659085D02*
X104514285Y-105601942D01*
X104514285Y-105601942D02*
X104453571Y-105573371D01*
X104453571Y-105573371D02*
X104339285Y-105573371D01*
X104339285Y-105573371D02*
X104285714Y-105601942D01*
X104285714Y-105601942D02*
X104264285Y-105659085D01*
X104264285Y-105659085D02*
X104271428Y-105716228D01*
X104271428Y-105716228D02*
X104564285Y-105773371D01*
X104046428Y-105973371D02*
X103996428Y-105573371D01*
X103971428Y-105373371D02*
X104003571Y-105401942D01*
X104003571Y-105401942D02*
X103978571Y-105430514D01*
X103978571Y-105430514D02*
X103946428Y-105401942D01*
X103946428Y-105401942D02*
X103971428Y-105373371D01*
X103971428Y-105373371D02*
X103978571Y-105430514D01*
X124183333Y-91159133D02*
X124183333Y-90459133D01*
X123716667Y-90459133D02*
X123583333Y-90459133D01*
X123583333Y-90459133D02*
X123516667Y-90492466D01*
X123516667Y-90492466D02*
X123450000Y-90559133D01*
X123450000Y-90559133D02*
X123416667Y-90692466D01*
X123416667Y-90692466D02*
X123416667Y-90925800D01*
X123416667Y-90925800D02*
X123450000Y-91059133D01*
X123450000Y-91059133D02*
X123516667Y-91125800D01*
X123516667Y-91125800D02*
X123583333Y-91159133D01*
X123583333Y-91159133D02*
X123716667Y-91159133D01*
X123716667Y-91159133D02*
X123783333Y-91125800D01*
X123783333Y-91125800D02*
X123850000Y-91059133D01*
X123850000Y-91059133D02*
X123883333Y-90925800D01*
X123883333Y-90925800D02*
X123883333Y-90692466D01*
X123883333Y-90692466D02*
X123850000Y-90559133D01*
X123850000Y-90559133D02*
X123783333Y-90492466D01*
X123783333Y-90492466D02*
X123716667Y-90459133D01*
X123150000Y-90525800D02*
X123116667Y-90492466D01*
X123116667Y-90492466D02*
X123050000Y-90459133D01*
X123050000Y-90459133D02*
X122883334Y-90459133D01*
X122883334Y-90459133D02*
X122816667Y-90492466D01*
X122816667Y-90492466D02*
X122783334Y-90525800D01*
X122783334Y-90525800D02*
X122750000Y-90592466D01*
X122750000Y-90592466D02*
X122750000Y-90659133D01*
X122750000Y-90659133D02*
X122783334Y-90759133D01*
X122783334Y-90759133D02*
X123183334Y-91159133D01*
X123183334Y-91159133D02*
X122750000Y-91159133D01*
X122083333Y-91159133D02*
X122483333Y-91159133D01*
X122283333Y-91159133D02*
X122283333Y-90459133D01*
X122283333Y-90459133D02*
X122350000Y-90559133D01*
X122350000Y-90559133D02*
X122416667Y-90625800D01*
X122416667Y-90625800D02*
X122483333Y-90659133D01*
X109149999Y-109742419D02*
X108816666Y-110742419D01*
X108816666Y-110742419D02*
X108483333Y-109742419D01*
X108149999Y-110742419D02*
X108149999Y-109742419D01*
X107673809Y-110742419D02*
X107673809Y-109742419D01*
X107673809Y-109742419D02*
X107102381Y-110742419D01*
X107102381Y-110742419D02*
X107102381Y-109742419D01*
X105864285Y-110361466D02*
X105102381Y-110361466D01*
X105483333Y-110742419D02*
X105483333Y-109980514D01*
X104150000Y-109742419D02*
X104626190Y-109742419D01*
X104626190Y-109742419D02*
X104673809Y-110218609D01*
X104673809Y-110218609D02*
X104626190Y-110170990D01*
X104626190Y-110170990D02*
X104530952Y-110123371D01*
X104530952Y-110123371D02*
X104292857Y-110123371D01*
X104292857Y-110123371D02*
X104197619Y-110170990D01*
X104197619Y-110170990D02*
X104150000Y-110218609D01*
X104150000Y-110218609D02*
X104102381Y-110313847D01*
X104102381Y-110313847D02*
X104102381Y-110551942D01*
X104102381Y-110551942D02*
X104150000Y-110647180D01*
X104150000Y-110647180D02*
X104197619Y-110694800D01*
X104197619Y-110694800D02*
X104292857Y-110742419D01*
X104292857Y-110742419D02*
X104530952Y-110742419D01*
X104530952Y-110742419D02*
X104626190Y-110694800D01*
X104626190Y-110694800D02*
X104673809Y-110647180D01*
X103816666Y-109742419D02*
X103483333Y-110742419D01*
X103483333Y-110742419D02*
X103150000Y-109742419D01*
X107646428Y-104223371D02*
X107810713Y-103937657D01*
X107989285Y-104223371D02*
X107914285Y-103623371D01*
X107914285Y-103623371D02*
X107685713Y-103623371D01*
X107685713Y-103623371D02*
X107632142Y-103651942D01*
X107632142Y-103651942D02*
X107607142Y-103680514D01*
X107607142Y-103680514D02*
X107585713Y-103737657D01*
X107585713Y-103737657D02*
X107596428Y-103823371D01*
X107596428Y-103823371D02*
X107632142Y-103880514D01*
X107632142Y-103880514D02*
X107664285Y-103909085D01*
X107664285Y-103909085D02*
X107724999Y-103937657D01*
X107724999Y-103937657D02*
X107953571Y-103937657D01*
X107157142Y-104194800D02*
X107217856Y-104223371D01*
X107217856Y-104223371D02*
X107332142Y-104223371D01*
X107332142Y-104223371D02*
X107385713Y-104194800D01*
X107385713Y-104194800D02*
X107407142Y-104137657D01*
X107407142Y-104137657D02*
X107378571Y-103909085D01*
X107378571Y-103909085D02*
X107342856Y-103851942D01*
X107342856Y-103851942D02*
X107282142Y-103823371D01*
X107282142Y-103823371D02*
X107167856Y-103823371D01*
X107167856Y-103823371D02*
X107114285Y-103851942D01*
X107114285Y-103851942D02*
X107092856Y-103909085D01*
X107092856Y-103909085D02*
X107099999Y-103966228D01*
X107099999Y-103966228D02*
X107392856Y-104023371D01*
X106899999Y-104194800D02*
X106817856Y-104223371D01*
X106817856Y-104223371D02*
X106674999Y-104223371D01*
X106674999Y-104223371D02*
X106614285Y-104194800D01*
X106614285Y-104194800D02*
X106582142Y-104166228D01*
X106582142Y-104166228D02*
X106546427Y-104109085D01*
X106546427Y-104109085D02*
X106539285Y-104051942D01*
X106539285Y-104051942D02*
X106560713Y-103994800D01*
X106560713Y-103994800D02*
X106585713Y-103966228D01*
X106585713Y-103966228D02*
X106639285Y-103937657D01*
X106639285Y-103937657D02*
X106749999Y-103909085D01*
X106749999Y-103909085D02*
X106803570Y-103880514D01*
X106803570Y-103880514D02*
X106828570Y-103851942D01*
X106828570Y-103851942D02*
X106849999Y-103794800D01*
X106849999Y-103794800D02*
X106842856Y-103737657D01*
X106842856Y-103737657D02*
X106807142Y-103680514D01*
X106807142Y-103680514D02*
X106774999Y-103651942D01*
X106774999Y-103651942D02*
X106714285Y-103623371D01*
X106714285Y-103623371D02*
X106571427Y-103623371D01*
X106571427Y-103623371D02*
X106489285Y-103651942D01*
X105996427Y-103823371D02*
X106046427Y-104223371D01*
X106253570Y-103823371D02*
X106292856Y-104137657D01*
X106292856Y-104137657D02*
X106271427Y-104194800D01*
X106271427Y-104194800D02*
X106217856Y-104223371D01*
X106217856Y-104223371D02*
X106132141Y-104223371D01*
X106132141Y-104223371D02*
X106071427Y-104194800D01*
X106071427Y-104194800D02*
X106039284Y-104166228D01*
X105760713Y-104223371D02*
X105710713Y-103823371D01*
X105717856Y-103880514D02*
X105685713Y-103851942D01*
X105685713Y-103851942D02*
X105624999Y-103823371D01*
X105624999Y-103823371D02*
X105539284Y-103823371D01*
X105539284Y-103823371D02*
X105485713Y-103851942D01*
X105485713Y-103851942D02*
X105464284Y-103909085D01*
X105464284Y-103909085D02*
X105503570Y-104223371D01*
X105464284Y-103909085D02*
X105428570Y-103851942D01*
X105428570Y-103851942D02*
X105367856Y-103823371D01*
X105367856Y-103823371D02*
X105282141Y-103823371D01*
X105282141Y-103823371D02*
X105228570Y-103851942D01*
X105228570Y-103851942D02*
X105207141Y-103909085D01*
X105207141Y-103909085D02*
X105246427Y-104223371D01*
X104960713Y-104223371D02*
X104910713Y-103823371D01*
X104917856Y-103880514D02*
X104885713Y-103851942D01*
X104885713Y-103851942D02*
X104824999Y-103823371D01*
X104824999Y-103823371D02*
X104739284Y-103823371D01*
X104739284Y-103823371D02*
X104685713Y-103851942D01*
X104685713Y-103851942D02*
X104664284Y-103909085D01*
X104664284Y-103909085D02*
X104703570Y-104223371D01*
X104664284Y-103909085D02*
X104628570Y-103851942D01*
X104628570Y-103851942D02*
X104567856Y-103823371D01*
X104567856Y-103823371D02*
X104482141Y-103823371D01*
X104482141Y-103823371D02*
X104428570Y-103851942D01*
X104428570Y-103851942D02*
X104407141Y-103909085D01*
X104407141Y-103909085D02*
X104446427Y-104223371D01*
X104160713Y-104223371D02*
X104110713Y-103823371D01*
X104085713Y-103623371D02*
X104117856Y-103651942D01*
X104117856Y-103651942D02*
X104092856Y-103680514D01*
X104092856Y-103680514D02*
X104060713Y-103651942D01*
X104060713Y-103651942D02*
X104085713Y-103623371D01*
X104085713Y-103623371D02*
X104092856Y-103680514D01*
X103910713Y-103823371D02*
X103682142Y-103823371D01*
X103799999Y-103623371D02*
X103864285Y-104137657D01*
X103864285Y-104137657D02*
X103842856Y-104194800D01*
X103842856Y-104194800D02*
X103789285Y-104223371D01*
X103789285Y-104223371D02*
X103732142Y-104223371D01*
X120933333Y-91125800D02*
X120833333Y-91159133D01*
X120833333Y-91159133D02*
X120666667Y-91159133D01*
X120666667Y-91159133D02*
X120600000Y-91125800D01*
X120600000Y-91125800D02*
X120566667Y-91092466D01*
X120566667Y-91092466D02*
X120533333Y-91025800D01*
X120533333Y-91025800D02*
X120533333Y-90959133D01*
X120533333Y-90959133D02*
X120566667Y-90892466D01*
X120566667Y-90892466D02*
X120600000Y-90859133D01*
X120600000Y-90859133D02*
X120666667Y-90825800D01*
X120666667Y-90825800D02*
X120800000Y-90792466D01*
X120800000Y-90792466D02*
X120866667Y-90759133D01*
X120866667Y-90759133D02*
X120900000Y-90725800D01*
X120900000Y-90725800D02*
X120933333Y-90659133D01*
X120933333Y-90659133D02*
X120933333Y-90592466D01*
X120933333Y-90592466D02*
X120900000Y-90525800D01*
X120900000Y-90525800D02*
X120866667Y-90492466D01*
X120866667Y-90492466D02*
X120800000Y-90459133D01*
X120800000Y-90459133D02*
X120633333Y-90459133D01*
X120633333Y-90459133D02*
X120533333Y-90492466D01*
X119833333Y-91092466D02*
X119866666Y-91125800D01*
X119866666Y-91125800D02*
X119966666Y-91159133D01*
X119966666Y-91159133D02*
X120033333Y-91159133D01*
X120033333Y-91159133D02*
X120133333Y-91125800D01*
X120133333Y-91125800D02*
X120200000Y-91059133D01*
X120200000Y-91059133D02*
X120233333Y-90992466D01*
X120233333Y-90992466D02*
X120266666Y-90859133D01*
X120266666Y-90859133D02*
X120266666Y-90759133D01*
X120266666Y-90759133D02*
X120233333Y-90625800D01*
X120233333Y-90625800D02*
X120200000Y-90559133D01*
X120200000Y-90559133D02*
X120133333Y-90492466D01*
X120133333Y-90492466D02*
X120033333Y-90459133D01*
X120033333Y-90459133D02*
X119966666Y-90459133D01*
X119966666Y-90459133D02*
X119866666Y-90492466D01*
X119866666Y-90492466D02*
X119833333Y-90525800D01*
X119200000Y-91159133D02*
X119533333Y-91159133D01*
X119533333Y-91159133D02*
X119533333Y-90459133D01*
X107899999Y-103214228D02*
X107928571Y-103242800D01*
X107928571Y-103242800D02*
X108014285Y-103271371D01*
X108014285Y-103271371D02*
X108071428Y-103271371D01*
X108071428Y-103271371D02*
X108157142Y-103242800D01*
X108157142Y-103242800D02*
X108214285Y-103185657D01*
X108214285Y-103185657D02*
X108242856Y-103128514D01*
X108242856Y-103128514D02*
X108271428Y-103014228D01*
X108271428Y-103014228D02*
X108271428Y-102928514D01*
X108271428Y-102928514D02*
X108242856Y-102814228D01*
X108242856Y-102814228D02*
X108214285Y-102757085D01*
X108214285Y-102757085D02*
X108157142Y-102699942D01*
X108157142Y-102699942D02*
X108071428Y-102671371D01*
X108071428Y-102671371D02*
X108014285Y-102671371D01*
X108014285Y-102671371D02*
X107928571Y-102699942D01*
X107928571Y-102699942D02*
X107899999Y-102728514D01*
X107642856Y-103271371D02*
X107642856Y-102871371D01*
X107642856Y-102985657D02*
X107614285Y-102928514D01*
X107614285Y-102928514D02*
X107585714Y-102899942D01*
X107585714Y-102899942D02*
X107528571Y-102871371D01*
X107528571Y-102871371D02*
X107471428Y-102871371D01*
X107042856Y-103242800D02*
X107099999Y-103271371D01*
X107099999Y-103271371D02*
X107214285Y-103271371D01*
X107214285Y-103271371D02*
X107271427Y-103242800D01*
X107271427Y-103242800D02*
X107299999Y-103185657D01*
X107299999Y-103185657D02*
X107299999Y-102957085D01*
X107299999Y-102957085D02*
X107271427Y-102899942D01*
X107271427Y-102899942D02*
X107214285Y-102871371D01*
X107214285Y-102871371D02*
X107099999Y-102871371D01*
X107099999Y-102871371D02*
X107042856Y-102899942D01*
X107042856Y-102899942D02*
X107014285Y-102957085D01*
X107014285Y-102957085D02*
X107014285Y-103014228D01*
X107014285Y-103014228D02*
X107299999Y-103071371D01*
X106499999Y-103271371D02*
X106499999Y-102957085D01*
X106499999Y-102957085D02*
X106528570Y-102899942D01*
X106528570Y-102899942D02*
X106585713Y-102871371D01*
X106585713Y-102871371D02*
X106699999Y-102871371D01*
X106699999Y-102871371D02*
X106757141Y-102899942D01*
X106499999Y-103242800D02*
X106557141Y-103271371D01*
X106557141Y-103271371D02*
X106699999Y-103271371D01*
X106699999Y-103271371D02*
X106757141Y-103242800D01*
X106757141Y-103242800D02*
X106785713Y-103185657D01*
X106785713Y-103185657D02*
X106785713Y-103128514D01*
X106785713Y-103128514D02*
X106757141Y-103071371D01*
X106757141Y-103071371D02*
X106699999Y-103042800D01*
X106699999Y-103042800D02*
X106557141Y-103042800D01*
X106557141Y-103042800D02*
X106499999Y-103014228D01*
X106299999Y-102871371D02*
X106071427Y-102871371D01*
X106214284Y-102671371D02*
X106214284Y-103185657D01*
X106214284Y-103185657D02*
X106185713Y-103242800D01*
X106185713Y-103242800D02*
X106128570Y-103271371D01*
X106128570Y-103271371D02*
X106071427Y-103271371D01*
X105642856Y-103242800D02*
X105699999Y-103271371D01*
X105699999Y-103271371D02*
X105814285Y-103271371D01*
X105814285Y-103271371D02*
X105871427Y-103242800D01*
X105871427Y-103242800D02*
X105899999Y-103185657D01*
X105899999Y-103185657D02*
X105899999Y-102957085D01*
X105899999Y-102957085D02*
X105871427Y-102899942D01*
X105871427Y-102899942D02*
X105814285Y-102871371D01*
X105814285Y-102871371D02*
X105699999Y-102871371D01*
X105699999Y-102871371D02*
X105642856Y-102899942D01*
X105642856Y-102899942D02*
X105614285Y-102957085D01*
X105614285Y-102957085D02*
X105614285Y-103014228D01*
X105614285Y-103014228D02*
X105899999Y-103071371D01*
X105099999Y-103271371D02*
X105099999Y-102671371D01*
X105099999Y-103242800D02*
X105157141Y-103271371D01*
X105157141Y-103271371D02*
X105271427Y-103271371D01*
X105271427Y-103271371D02*
X105328570Y-103242800D01*
X105328570Y-103242800D02*
X105357141Y-103214228D01*
X105357141Y-103214228D02*
X105385713Y-103157085D01*
X105385713Y-103157085D02*
X105385713Y-102985657D01*
X105385713Y-102985657D02*
X105357141Y-102928514D01*
X105357141Y-102928514D02*
X105328570Y-102899942D01*
X105328570Y-102899942D02*
X105271427Y-102871371D01*
X105271427Y-102871371D02*
X105157141Y-102871371D01*
X105157141Y-102871371D02*
X105099999Y-102899942D01*
X104357141Y-103271371D02*
X104357141Y-102671371D01*
X104357141Y-102899942D02*
X104299999Y-102871371D01*
X104299999Y-102871371D02*
X104185713Y-102871371D01*
X104185713Y-102871371D02*
X104128570Y-102899942D01*
X104128570Y-102899942D02*
X104099999Y-102928514D01*
X104099999Y-102928514D02*
X104071427Y-102985657D01*
X104071427Y-102985657D02*
X104071427Y-103157085D01*
X104071427Y-103157085D02*
X104099999Y-103214228D01*
X104099999Y-103214228D02*
X104128570Y-103242800D01*
X104128570Y-103242800D02*
X104185713Y-103271371D01*
X104185713Y-103271371D02*
X104299999Y-103271371D01*
X104299999Y-103271371D02*
X104357141Y-103242800D01*
X103871427Y-102871371D02*
X103728570Y-103271371D01*
X103585713Y-102871371D02*
X103728570Y-103271371D01*
X103728570Y-103271371D02*
X103785713Y-103414228D01*
X103785713Y-103414228D02*
X103814284Y-103442800D01*
X103814284Y-103442800D02*
X103871427Y-103471371D01*
X103357141Y-103214228D02*
X103328570Y-103242800D01*
X103328570Y-103242800D02*
X103357141Y-103271371D01*
X103357141Y-103271371D02*
X103385713Y-103242800D01*
X103385713Y-103242800D02*
X103357141Y-103214228D01*
X103357141Y-103214228D02*
X103357141Y-103271371D01*
X103357141Y-102899942D02*
X103328570Y-102928514D01*
X103328570Y-102928514D02*
X103357141Y-102957085D01*
X103357141Y-102957085D02*
X103385713Y-102928514D01*
X103385713Y-102928514D02*
X103357141Y-102899942D01*
X103357141Y-102899942D02*
X103357141Y-102957085D01*
X118800000Y-111142466D02*
X118266667Y-111142466D01*
X118533333Y-111409133D02*
X118533333Y-110875800D01*
X118000000Y-110709133D02*
X117566666Y-110709133D01*
X117566666Y-110709133D02*
X117800000Y-110975800D01*
X117800000Y-110975800D02*
X117700000Y-110975800D01*
X117700000Y-110975800D02*
X117633333Y-111009133D01*
X117633333Y-111009133D02*
X117600000Y-111042466D01*
X117600000Y-111042466D02*
X117566666Y-111109133D01*
X117566666Y-111109133D02*
X117566666Y-111275800D01*
X117566666Y-111275800D02*
X117600000Y-111342466D01*
X117600000Y-111342466D02*
X117633333Y-111375800D01*
X117633333Y-111375800D02*
X117700000Y-111409133D01*
X117700000Y-111409133D02*
X117900000Y-111409133D01*
X117900000Y-111409133D02*
X117966666Y-111375800D01*
X117966666Y-111375800D02*
X118000000Y-111342466D01*
X117266666Y-111342466D02*
X117233333Y-111375800D01*
X117233333Y-111375800D02*
X117266666Y-111409133D01*
X117266666Y-111409133D02*
X117299999Y-111375800D01*
X117299999Y-111375800D02*
X117266666Y-111342466D01*
X117266666Y-111342466D02*
X117266666Y-111409133D01*
X117000000Y-110709133D02*
X116566666Y-110709133D01*
X116566666Y-110709133D02*
X116800000Y-110975800D01*
X116800000Y-110975800D02*
X116700000Y-110975800D01*
X116700000Y-110975800D02*
X116633333Y-111009133D01*
X116633333Y-111009133D02*
X116600000Y-111042466D01*
X116600000Y-111042466D02*
X116566666Y-111109133D01*
X116566666Y-111109133D02*
X116566666Y-111275800D01*
X116566666Y-111275800D02*
X116600000Y-111342466D01*
X116600000Y-111342466D02*
X116633333Y-111375800D01*
X116633333Y-111375800D02*
X116700000Y-111409133D01*
X116700000Y-111409133D02*
X116900000Y-111409133D01*
X116900000Y-111409133D02*
X116966666Y-111375800D01*
X116966666Y-111375800D02*
X117000000Y-111342466D01*
X116366666Y-110709133D02*
X116133333Y-111409133D01*
X116133333Y-111409133D02*
X115899999Y-110709133D01*
X114333332Y-110742466D02*
X114399999Y-110709133D01*
X114399999Y-110709133D02*
X114499999Y-110709133D01*
X114499999Y-110709133D02*
X114599999Y-110742466D01*
X114599999Y-110742466D02*
X114666666Y-110809133D01*
X114666666Y-110809133D02*
X114699999Y-110875800D01*
X114699999Y-110875800D02*
X114733332Y-111009133D01*
X114733332Y-111009133D02*
X114733332Y-111109133D01*
X114733332Y-111109133D02*
X114699999Y-111242466D01*
X114699999Y-111242466D02*
X114666666Y-111309133D01*
X114666666Y-111309133D02*
X114599999Y-111375800D01*
X114599999Y-111375800D02*
X114499999Y-111409133D01*
X114499999Y-111409133D02*
X114433332Y-111409133D01*
X114433332Y-111409133D02*
X114333332Y-111375800D01*
X114333332Y-111375800D02*
X114299999Y-111342466D01*
X114299999Y-111342466D02*
X114299999Y-111109133D01*
X114299999Y-111109133D02*
X114433332Y-111109133D01*
X113999999Y-111409133D02*
X113999999Y-110709133D01*
X113999999Y-110709133D02*
X113599999Y-111409133D01*
X113599999Y-111409133D02*
X113599999Y-110709133D01*
X113266666Y-111409133D02*
X113266666Y-110709133D01*
X113266666Y-110709133D02*
X113099999Y-110709133D01*
X113099999Y-110709133D02*
X112999999Y-110742466D01*
X112999999Y-110742466D02*
X112933333Y-110809133D01*
X112933333Y-110809133D02*
X112899999Y-110875800D01*
X112899999Y-110875800D02*
X112866666Y-111009133D01*
X112866666Y-111009133D02*
X112866666Y-111109133D01*
X112866666Y-111109133D02*
X112899999Y-111242466D01*
X112899999Y-111242466D02*
X112933333Y-111309133D01*
X112933333Y-111309133D02*
X112999999Y-111375800D01*
X112999999Y-111375800D02*
X113099999Y-111409133D01*
X113099999Y-111409133D02*
X113266666Y-111409133D01*
X122416666Y-110501966D02*
X122416666Y-110968633D01*
X122583333Y-110235300D02*
X122749999Y-110735300D01*
X122749999Y-110735300D02*
X122316666Y-110735300D01*
X122083332Y-110768633D02*
X121749999Y-110768633D01*
X122149999Y-110968633D02*
X121916666Y-110268633D01*
X121916666Y-110268633D02*
X121683332Y-110968633D01*
X112400000Y-102251966D02*
X112233333Y-102718633D01*
X112233333Y-102718633D02*
X112066666Y-102251966D01*
X111433333Y-102718633D02*
X111833333Y-102718633D01*
X111633333Y-102718633D02*
X111633333Y-102018633D01*
X111633333Y-102018633D02*
X111700000Y-102118633D01*
X111700000Y-102118633D02*
X111766667Y-102185300D01*
X111766667Y-102185300D02*
X111833333Y-102218633D01*
X111133333Y-102651966D02*
X111100000Y-102685300D01*
X111100000Y-102685300D02*
X111133333Y-102718633D01*
X111133333Y-102718633D02*
X111166666Y-102685300D01*
X111166666Y-102685300D02*
X111133333Y-102651966D01*
X111133333Y-102651966D02*
X111133333Y-102718633D01*
X110666667Y-102018633D02*
X110600000Y-102018633D01*
X110600000Y-102018633D02*
X110533333Y-102051966D01*
X110533333Y-102051966D02*
X110500000Y-102085300D01*
X110500000Y-102085300D02*
X110466667Y-102151966D01*
X110466667Y-102151966D02*
X110433333Y-102285300D01*
X110433333Y-102285300D02*
X110433333Y-102451966D01*
X110433333Y-102451966D02*
X110466667Y-102585300D01*
X110466667Y-102585300D02*
X110500000Y-102651966D01*
X110500000Y-102651966D02*
X110533333Y-102685300D01*
X110533333Y-102685300D02*
X110600000Y-102718633D01*
X110600000Y-102718633D02*
X110666667Y-102718633D01*
X110666667Y-102718633D02*
X110733333Y-102685300D01*
X110733333Y-102685300D02*
X110766667Y-102651966D01*
X110766667Y-102651966D02*
X110800000Y-102585300D01*
X110800000Y-102585300D02*
X110833333Y-102451966D01*
X110833333Y-102451966D02*
X110833333Y-102285300D01*
X110833333Y-102285300D02*
X110800000Y-102151966D01*
X110800000Y-102151966D02*
X110766667Y-102085300D01*
X110766667Y-102085300D02*
X110733333Y-102051966D01*
X110733333Y-102051966D02*
X110666667Y-102018633D01*
X110133333Y-102651966D02*
X110100000Y-102685300D01*
X110100000Y-102685300D02*
X110133333Y-102718633D01*
X110133333Y-102718633D02*
X110166666Y-102685300D01*
X110166666Y-102685300D02*
X110133333Y-102651966D01*
X110133333Y-102651966D02*
X110133333Y-102718633D01*
X109666667Y-102018633D02*
X109600000Y-102018633D01*
X109600000Y-102018633D02*
X109533333Y-102051966D01*
X109533333Y-102051966D02*
X109500000Y-102085300D01*
X109500000Y-102085300D02*
X109466667Y-102151966D01*
X109466667Y-102151966D02*
X109433333Y-102285300D01*
X109433333Y-102285300D02*
X109433333Y-102451966D01*
X109433333Y-102451966D02*
X109466667Y-102585300D01*
X109466667Y-102585300D02*
X109500000Y-102651966D01*
X109500000Y-102651966D02*
X109533333Y-102685300D01*
X109533333Y-102685300D02*
X109600000Y-102718633D01*
X109600000Y-102718633D02*
X109666667Y-102718633D01*
X109666667Y-102718633D02*
X109733333Y-102685300D01*
X109733333Y-102685300D02*
X109766667Y-102651966D01*
X109766667Y-102651966D02*
X109800000Y-102585300D01*
X109800000Y-102585300D02*
X109833333Y-102451966D01*
X109833333Y-102451966D02*
X109833333Y-102285300D01*
X109833333Y-102285300D02*
X109800000Y-102151966D01*
X109800000Y-102151966D02*
X109766667Y-102085300D01*
X109766667Y-102085300D02*
X109733333Y-102051966D01*
X109733333Y-102051966D02*
X109666667Y-102018633D01*
X117949999Y-91125800D02*
X117849999Y-91159133D01*
X117849999Y-91159133D02*
X117683333Y-91159133D01*
X117683333Y-91159133D02*
X117616666Y-91125800D01*
X117616666Y-91125800D02*
X117583333Y-91092466D01*
X117583333Y-91092466D02*
X117549999Y-91025800D01*
X117549999Y-91025800D02*
X117549999Y-90959133D01*
X117549999Y-90959133D02*
X117583333Y-90892466D01*
X117583333Y-90892466D02*
X117616666Y-90859133D01*
X117616666Y-90859133D02*
X117683333Y-90825800D01*
X117683333Y-90825800D02*
X117816666Y-90792466D01*
X117816666Y-90792466D02*
X117883333Y-90759133D01*
X117883333Y-90759133D02*
X117916666Y-90725800D01*
X117916666Y-90725800D02*
X117949999Y-90659133D01*
X117949999Y-90659133D02*
X117949999Y-90592466D01*
X117949999Y-90592466D02*
X117916666Y-90525800D01*
X117916666Y-90525800D02*
X117883333Y-90492466D01*
X117883333Y-90492466D02*
X117816666Y-90459133D01*
X117816666Y-90459133D02*
X117649999Y-90459133D01*
X117649999Y-90459133D02*
X117549999Y-90492466D01*
X117249999Y-91159133D02*
X117249999Y-90459133D01*
X117249999Y-90459133D02*
X117083332Y-90459133D01*
X117083332Y-90459133D02*
X116983332Y-90492466D01*
X116983332Y-90492466D02*
X116916666Y-90559133D01*
X116916666Y-90559133D02*
X116883332Y-90625800D01*
X116883332Y-90625800D02*
X116849999Y-90759133D01*
X116849999Y-90759133D02*
X116849999Y-90859133D01*
X116849999Y-90859133D02*
X116883332Y-90992466D01*
X116883332Y-90992466D02*
X116916666Y-91059133D01*
X116916666Y-91059133D02*
X116983332Y-91125800D01*
X116983332Y-91125800D02*
X117083332Y-91159133D01*
X117083332Y-91159133D02*
X117249999Y-91159133D01*
X116583332Y-90959133D02*
X116249999Y-90959133D01*
X116649999Y-91159133D02*
X116416666Y-90459133D01*
X116416666Y-90459133D02*
X116183332Y-91159133D01*
X120066666Y-110501966D02*
X120066666Y-110968633D01*
X120233333Y-110235300D02*
X120399999Y-110735300D01*
X120399999Y-110735300D02*
X119966666Y-110735300D01*
X119466666Y-110601966D02*
X119366666Y-110635300D01*
X119366666Y-110635300D02*
X119333332Y-110668633D01*
X119333332Y-110668633D02*
X119299999Y-110735300D01*
X119299999Y-110735300D02*
X119299999Y-110835300D01*
X119299999Y-110835300D02*
X119333332Y-110901966D01*
X119333332Y-110901966D02*
X119366666Y-110935300D01*
X119366666Y-110935300D02*
X119433332Y-110968633D01*
X119433332Y-110968633D02*
X119699999Y-110968633D01*
X119699999Y-110968633D02*
X119699999Y-110268633D01*
X119699999Y-110268633D02*
X119466666Y-110268633D01*
X119466666Y-110268633D02*
X119399999Y-110301966D01*
X119399999Y-110301966D02*
X119366666Y-110335300D01*
X119366666Y-110335300D02*
X119333332Y-110401966D01*
X119333332Y-110401966D02*
X119333332Y-110468633D01*
X119333332Y-110468633D02*
X119366666Y-110535300D01*
X119366666Y-110535300D02*
X119399999Y-110568633D01*
X119399999Y-110568633D02*
X119466666Y-110601966D01*
X119466666Y-110601966D02*
X119699999Y-110601966D01*
X107182142Y-104573371D02*
X107257142Y-105173371D01*
X107185713Y-104601942D02*
X107124999Y-104573371D01*
X107124999Y-104573371D02*
X107010713Y-104573371D01*
X107010713Y-104573371D02*
X106957142Y-104601942D01*
X106957142Y-104601942D02*
X106932142Y-104630514D01*
X106932142Y-104630514D02*
X106910713Y-104687657D01*
X106910713Y-104687657D02*
X106932142Y-104859085D01*
X106932142Y-104859085D02*
X106967856Y-104916228D01*
X106967856Y-104916228D02*
X106999999Y-104944800D01*
X106999999Y-104944800D02*
X107060713Y-104973371D01*
X107060713Y-104973371D02*
X107174999Y-104973371D01*
X107174999Y-104973371D02*
X107228570Y-104944800D01*
X106457142Y-104944800D02*
X106517856Y-104973371D01*
X106517856Y-104973371D02*
X106632142Y-104973371D01*
X106632142Y-104973371D02*
X106685713Y-104944800D01*
X106685713Y-104944800D02*
X106707142Y-104887657D01*
X106707142Y-104887657D02*
X106678571Y-104659085D01*
X106678571Y-104659085D02*
X106642856Y-104601942D01*
X106642856Y-104601942D02*
X106582142Y-104573371D01*
X106582142Y-104573371D02*
X106467856Y-104573371D01*
X106467856Y-104573371D02*
X106414285Y-104601942D01*
X106414285Y-104601942D02*
X106392856Y-104659085D01*
X106392856Y-104659085D02*
X106399999Y-104716228D01*
X106399999Y-104716228D02*
X106692856Y-104773371D01*
X106174999Y-104973371D02*
X106124999Y-104573371D01*
X106099999Y-104373371D02*
X106132142Y-104401942D01*
X106132142Y-104401942D02*
X106107142Y-104430514D01*
X106107142Y-104430514D02*
X106074999Y-104401942D01*
X106074999Y-104401942D02*
X106099999Y-104373371D01*
X106099999Y-104373371D02*
X106107142Y-104430514D01*
X105860713Y-104744800D02*
X105403571Y-104744800D01*
X105060714Y-104973371D02*
X105114285Y-104944800D01*
X105114285Y-104944800D02*
X105135714Y-104887657D01*
X105135714Y-104887657D02*
X105071428Y-104373371D01*
X104524999Y-104573371D02*
X104574999Y-104973371D01*
X104782142Y-104573371D02*
X104821428Y-104887657D01*
X104821428Y-104887657D02*
X104799999Y-104944800D01*
X104799999Y-104944800D02*
X104746428Y-104973371D01*
X104746428Y-104973371D02*
X104660713Y-104973371D01*
X104660713Y-104973371D02*
X104599999Y-104944800D01*
X104599999Y-104944800D02*
X104567856Y-104916228D01*
X120821866Y-96833333D02*
X121521866Y-96833333D01*
X121521866Y-96366667D02*
X121521866Y-96233333D01*
X121521866Y-96233333D02*
X121488533Y-96166667D01*
X121488533Y-96166667D02*
X121421866Y-96100000D01*
X121421866Y-96100000D02*
X121288533Y-96066667D01*
X121288533Y-96066667D02*
X121055200Y-96066667D01*
X121055200Y-96066667D02*
X120921866Y-96100000D01*
X120921866Y-96100000D02*
X120855200Y-96166667D01*
X120855200Y-96166667D02*
X120821866Y-96233333D01*
X120821866Y-96233333D02*
X120821866Y-96366667D01*
X120821866Y-96366667D02*
X120855200Y-96433333D01*
X120855200Y-96433333D02*
X120921866Y-96500000D01*
X120921866Y-96500000D02*
X121055200Y-96533333D01*
X121055200Y-96533333D02*
X121288533Y-96533333D01*
X121288533Y-96533333D02*
X121421866Y-96500000D01*
X121421866Y-96500000D02*
X121488533Y-96433333D01*
X121488533Y-96433333D02*
X121521866Y-96366667D01*
X121455200Y-95800000D02*
X121488533Y-95766667D01*
X121488533Y-95766667D02*
X121521866Y-95700000D01*
X121521866Y-95700000D02*
X121521866Y-95533334D01*
X121521866Y-95533334D02*
X121488533Y-95466667D01*
X121488533Y-95466667D02*
X121455200Y-95433334D01*
X121455200Y-95433334D02*
X121388533Y-95400000D01*
X121388533Y-95400000D02*
X121321866Y-95400000D01*
X121321866Y-95400000D02*
X121221866Y-95433334D01*
X121221866Y-95433334D02*
X120821866Y-95833334D01*
X120821866Y-95833334D02*
X120821866Y-95400000D01*
X121521866Y-94966667D02*
X121521866Y-94900000D01*
X121521866Y-94900000D02*
X121488533Y-94833333D01*
X121488533Y-94833333D02*
X121455200Y-94800000D01*
X121455200Y-94800000D02*
X121388533Y-94766667D01*
X121388533Y-94766667D02*
X121255200Y-94733333D01*
X121255200Y-94733333D02*
X121088533Y-94733333D01*
X121088533Y-94733333D02*
X120955200Y-94766667D01*
X120955200Y-94766667D02*
X120888533Y-94800000D01*
X120888533Y-94800000D02*
X120855200Y-94833333D01*
X120855200Y-94833333D02*
X120821866Y-94900000D01*
X120821866Y-94900000D02*
X120821866Y-94966667D01*
X120821866Y-94966667D02*
X120855200Y-95033333D01*
X120855200Y-95033333D02*
X120888533Y-95066667D01*
X120888533Y-95066667D02*
X120955200Y-95100000D01*
X120955200Y-95100000D02*
X121088533Y-95133333D01*
X121088533Y-95133333D02*
X121255200Y-95133333D01*
X121255200Y-95133333D02*
X121388533Y-95100000D01*
X121388533Y-95100000D02*
X121455200Y-95066667D01*
X121455200Y-95066667D02*
X121488533Y-95033333D01*
X121488533Y-95033333D02*
X121521866Y-94966667D01*
X112358349Y-101660324D02*
X112215492Y-101707943D01*
X112215492Y-101707943D02*
X111977397Y-101707943D01*
X111977397Y-101707943D02*
X111882159Y-101660324D01*
X111882159Y-101660324D02*
X111834540Y-101612704D01*
X111834540Y-101612704D02*
X111786921Y-101517466D01*
X111786921Y-101517466D02*
X111786921Y-101422228D01*
X111786921Y-101422228D02*
X111834540Y-101326990D01*
X111834540Y-101326990D02*
X111882159Y-101279371D01*
X111882159Y-101279371D02*
X111977397Y-101231752D01*
X111977397Y-101231752D02*
X112167873Y-101184133D01*
X112167873Y-101184133D02*
X112263111Y-101136514D01*
X112263111Y-101136514D02*
X112310730Y-101088895D01*
X112310730Y-101088895D02*
X112358349Y-100993657D01*
X112358349Y-100993657D02*
X112358349Y-100898419D01*
X112358349Y-100898419D02*
X112310730Y-100803181D01*
X112310730Y-100803181D02*
X112263111Y-100755562D01*
X112263111Y-100755562D02*
X112167873Y-100707943D01*
X112167873Y-100707943D02*
X111929778Y-100707943D01*
X111929778Y-100707943D02*
X111786921Y-100755562D01*
X111215492Y-101707943D02*
X111310730Y-101660324D01*
X111310730Y-101660324D02*
X111358349Y-101565085D01*
X111358349Y-101565085D02*
X111358349Y-100707943D01*
X110834539Y-101707943D02*
X110834539Y-101041276D01*
X110834539Y-100707943D02*
X110882158Y-100755562D01*
X110882158Y-100755562D02*
X110834539Y-100803181D01*
X110834539Y-100803181D02*
X110786920Y-100755562D01*
X110786920Y-100755562D02*
X110834539Y-100707943D01*
X110834539Y-100707943D02*
X110834539Y-100803181D01*
X110358349Y-101707943D02*
X110358349Y-101041276D01*
X110358349Y-101136514D02*
X110310730Y-101088895D01*
X110310730Y-101088895D02*
X110215492Y-101041276D01*
X110215492Y-101041276D02*
X110072635Y-101041276D01*
X110072635Y-101041276D02*
X109977397Y-101088895D01*
X109977397Y-101088895D02*
X109929778Y-101184133D01*
X109929778Y-101184133D02*
X109929778Y-101707943D01*
X109929778Y-101184133D02*
X109882159Y-101088895D01*
X109882159Y-101088895D02*
X109786921Y-101041276D01*
X109786921Y-101041276D02*
X109644064Y-101041276D01*
X109644064Y-101041276D02*
X109548825Y-101088895D01*
X109548825Y-101088895D02*
X109501206Y-101184133D01*
X109501206Y-101184133D02*
X109501206Y-101707943D01*
X108644064Y-101660324D02*
X108739302Y-101707943D01*
X108739302Y-101707943D02*
X108929778Y-101707943D01*
X108929778Y-101707943D02*
X109025016Y-101660324D01*
X109025016Y-101660324D02*
X109072635Y-101565085D01*
X109072635Y-101565085D02*
X109072635Y-101184133D01*
X109072635Y-101184133D02*
X109025016Y-101088895D01*
X109025016Y-101088895D02*
X108929778Y-101041276D01*
X108929778Y-101041276D02*
X108739302Y-101041276D01*
X108739302Y-101041276D02*
X108644064Y-101088895D01*
X108644064Y-101088895D02*
X108596445Y-101184133D01*
X108596445Y-101184133D02*
X108596445Y-101279371D01*
X108596445Y-101279371D02*
X109072635Y-101374609D01*
D11*
X124500000Y-98850000D02*
G75*
G02*
X123100000Y-98850000I-700000J0D01*
G01*
X123100000Y-98850000D02*
G75*
G02*
X124500000Y-98850000I700000J0D01*
G01*
X112600000Y-108150000D02*
X115000000Y-108150000D01*
X112600000Y-110550000D02*
X112600000Y-108150000D01*
X115000000Y-108150000D02*
X115000000Y-110550000D01*
X115000000Y-110550000D02*
X112600000Y-110550000D01*
X116000000Y-108150000D02*
X118400000Y-108150000D01*
X116000000Y-110550000D02*
X116000000Y-108150000D01*
X118400000Y-108150000D02*
X118400000Y-110550000D01*
X118400000Y-110550000D02*
X116000000Y-110550000D01*
X124350000Y-97000000D02*
X121950000Y-97000000D01*
X124350000Y-94600000D02*
X124350000Y-97000000D01*
X121950000Y-97000000D02*
X121950000Y-94600000D01*
X121950000Y-94600000D02*
X124350000Y-94600000D01*
X118900000Y-91550000D02*
X121300000Y-91550000D01*
X118900000Y-93950000D02*
X118900000Y-91550000D01*
X121300000Y-91550000D02*
X121300000Y-93950000D01*
X121300000Y-93950000D02*
X118900000Y-93950000D01*
X104950000Y-106900000D02*
X107350000Y-106900000D01*
X104950000Y-109300000D02*
X104950000Y-106900000D01*
X107350000Y-106900000D02*
X107350000Y-109300000D01*
X107350000Y-109300000D02*
X104950000Y-109300000D01*
X121950000Y-91550000D02*
X124350000Y-91550000D01*
X121950000Y-93950000D02*
X121950000Y-91550000D01*
X124350000Y-91550000D02*
X124350000Y-93950000D01*
X124350000Y-93950000D02*
X121950000Y-93950000D01*
D12*
G36*
X113686685Y-101213120D02*
G01*
X113681965Y-101230366D01*
X113658526Y-101253801D01*
X113614408Y-101285353D01*
X113547652Y-101326948D01*
X113492475Y-101359104D01*
X113444799Y-101385059D01*
X113410205Y-101401875D01*
X113393775Y-101406910D01*
X113387119Y-101401983D01*
X113380097Y-101380041D01*
X113380942Y-101377176D01*
X113397592Y-101359678D01*
X113431274Y-101334063D01*
X113476359Y-101303741D01*
X113527220Y-101272120D01*
X113578227Y-101242611D01*
X113623753Y-101218624D01*
X113658169Y-101203569D01*
X113675848Y-101200856D01*
X113686685Y-101213120D01*
G37*
G36*
X113378122Y-100298728D02*
G01*
X113425516Y-100316135D01*
X113493641Y-100347014D01*
X113513422Y-100356784D01*
X113577483Y-100393860D01*
X113628414Y-100431870D01*
X113662037Y-100467347D01*
X113674173Y-100496823D01*
X113672907Y-100508450D01*
X113659847Y-100521448D01*
X113634643Y-100512673D01*
X113599782Y-100482602D01*
X113591450Y-100474920D01*
X113554246Y-100448507D01*
X113503190Y-100418790D01*
X113446765Y-100390855D01*
X113408563Y-100373066D01*
X113363848Y-100349040D01*
X113339554Y-100329888D01*
X113332224Y-100313269D01*
X113334554Y-100302034D01*
X113348716Y-100294219D01*
X113378122Y-100298728D01*
G37*
G36*
X116244973Y-101107639D02*
G01*
X116285705Y-101125777D01*
X116329601Y-101152076D01*
X116368734Y-101182546D01*
X116401212Y-101214695D01*
X116437540Y-101254697D01*
X116472220Y-101296110D01*
X116500975Y-101333603D01*
X116519526Y-101361847D01*
X116523597Y-101375510D01*
X116505968Y-101384297D01*
X116475395Y-101374644D01*
X116439310Y-101340310D01*
X116438363Y-101339163D01*
X116370274Y-101263920D01*
X116304189Y-101204496D01*
X116245021Y-101165314D01*
X116236452Y-101160814D01*
X116201045Y-101136702D01*
X116192218Y-101117243D01*
X116210112Y-101102692D01*
X116215330Y-101101653D01*
X116244973Y-101107639D01*
G37*
G36*
X113644965Y-100798843D02*
G01*
X113678898Y-100801467D01*
X113696498Y-100806471D01*
X113701529Y-100814161D01*
X113700943Y-100821174D01*
X113692022Y-100842303D01*
X113691549Y-100842655D01*
X113672717Y-100845884D01*
X113632612Y-100847968D01*
X113576785Y-100848732D01*
X113510789Y-100848002D01*
X113440660Y-100845979D01*
X113390142Y-100843057D01*
X113359067Y-100838748D01*
X113343390Y-100832479D01*
X113339063Y-100823677D01*
X113339112Y-100822539D01*
X113344399Y-100814256D01*
X113361201Y-100808326D01*
X113393478Y-100804218D01*
X113445189Y-100801402D01*
X113520296Y-100799344D01*
X113590939Y-100798289D01*
X113644965Y-100798843D01*
G37*
G36*
X116299792Y-100763533D02*
G01*
X116356081Y-100765872D01*
X116420714Y-100769709D01*
X116487747Y-100774610D01*
X116551232Y-100780142D01*
X116605222Y-100785871D01*
X116643772Y-100791365D01*
X116660935Y-100796188D01*
X116664772Y-100801926D01*
X116662989Y-100823389D01*
X116648720Y-100828396D01*
X116611763Y-100831624D01*
X116557690Y-100832554D01*
X116491809Y-100831295D01*
X116419429Y-100827955D01*
X116345859Y-100822645D01*
X116276408Y-100815471D01*
X116247462Y-100809230D01*
X116222329Y-100795469D01*
X116217322Y-100779431D01*
X116235736Y-100765192D01*
X116236038Y-100765083D01*
X116257796Y-100763126D01*
X116299792Y-100763533D01*
G37*
G36*
X116557561Y-100238330D02*
G01*
X116564177Y-100248728D01*
X116559845Y-100277269D01*
X116544904Y-100295680D01*
X116511066Y-100327432D01*
X116464814Y-100366092D01*
X116411709Y-100407217D01*
X116357312Y-100446367D01*
X116307184Y-100479098D01*
X116276841Y-100496331D01*
X116239183Y-100514315D01*
X116214857Y-100521712D01*
X116199731Y-100520605D01*
X116190520Y-100509563D01*
X116203391Y-100488370D01*
X116237021Y-100458772D01*
X116290086Y-100422514D01*
X116293033Y-100420661D01*
X116352828Y-100380231D01*
X116414760Y-100334092D01*
X116465875Y-100291868D01*
X116476348Y-100282591D01*
X116516673Y-100249974D01*
X116542723Y-100235816D01*
X116557561Y-100238330D01*
G37*
G36*
X114794413Y-99722140D02*
G01*
X114773892Y-99819002D01*
X114729526Y-99904598D01*
X114663230Y-99975962D01*
X114576920Y-100030129D01*
X114560212Y-100037464D01*
X114519918Y-100049950D01*
X114474052Y-100054893D01*
X114411906Y-100053829D01*
X114365434Y-100050675D01*
X114318470Y-100042858D01*
X114277994Y-100027775D01*
X114232079Y-100001988D01*
X114170013Y-99955473D01*
X114123818Y-99896994D01*
X114112611Y-99877666D01*
X114093525Y-99849810D01*
X114081379Y-99838863D01*
X114080133Y-99838534D01*
X114073527Y-99823128D01*
X114070835Y-99791797D01*
X114070783Y-99787531D01*
X114066671Y-99754603D01*
X114057997Y-99736798D01*
X114051749Y-99725252D01*
X114053064Y-99698376D01*
X114054342Y-99691742D01*
X114140439Y-99691742D01*
X114141330Y-99747248D01*
X114145579Y-99786700D01*
X114152617Y-99804491D01*
X114157388Y-99808425D01*
X114160558Y-99823864D01*
X114163198Y-99838141D01*
X114183377Y-99863377D01*
X114216334Y-99893660D01*
X114256343Y-99924265D01*
X114297678Y-99950464D01*
X114334614Y-99967533D01*
X114357025Y-99974487D01*
X114397255Y-99984499D01*
X114423520Y-99987734D01*
X114429495Y-99987304D01*
X114439487Y-99985085D01*
X114423042Y-99979892D01*
X114410373Y-99974647D01*
X114399106Y-99960962D01*
X114396924Y-99955244D01*
X114378940Y-99948287D01*
X114371864Y-99947326D01*
X114347811Y-99927906D01*
X114328669Y-99886788D01*
X114315968Y-99828305D01*
X114311243Y-99756795D01*
X114311277Y-99746350D01*
X114317527Y-99668987D01*
X114319679Y-99662384D01*
X114473639Y-99662384D01*
X114476227Y-99695244D01*
X114489006Y-99708316D01*
X114517741Y-99715761D01*
X114531376Y-99715035D01*
X114546467Y-99705486D01*
X114547053Y-99678147D01*
X114538295Y-99650535D01*
X114513690Y-99636390D01*
X114489808Y-99640481D01*
X114473639Y-99662384D01*
X114319679Y-99662384D01*
X114335975Y-99612380D01*
X114368781Y-99572233D01*
X114418104Y-99544254D01*
X114428991Y-99539967D01*
X114462081Y-99530020D01*
X114488523Y-99532175D01*
X114522825Y-99546781D01*
X114567840Y-99579135D01*
X114605588Y-99634394D01*
X114618245Y-99678147D01*
X114625713Y-99703961D01*
X114627023Y-99783354D01*
X114608324Y-99868092D01*
X114582209Y-99945195D01*
X114620691Y-99916744D01*
X114626210Y-99912370D01*
X114662315Y-99870951D01*
X114694832Y-99814928D01*
X114718311Y-99755237D01*
X114727301Y-99702817D01*
X114720171Y-99633631D01*
X114696869Y-99564456D01*
X114660093Y-99512519D01*
X114631000Y-99485634D01*
X114585846Y-99448283D01*
X114552288Y-99426648D01*
X114533639Y-99423073D01*
X114529869Y-99424590D01*
X114522208Y-99415681D01*
X114520804Y-99413119D01*
X114499550Y-99407630D01*
X114454915Y-99405831D01*
X114389719Y-99407753D01*
X114306780Y-99413424D01*
X114298988Y-99416340D01*
X114289682Y-99435363D01*
X114287565Y-99444886D01*
X114271269Y-99455880D01*
X114257702Y-99461964D01*
X114230252Y-99483894D01*
X114197867Y-99516301D01*
X114175494Y-99541482D01*
X114156824Y-99567440D01*
X114146757Y-99594334D01*
X114142321Y-99630970D01*
X114140543Y-99686154D01*
X114140439Y-99691742D01*
X114054342Y-99691742D01*
X114058883Y-99668175D01*
X114063491Y-99626854D01*
X114076371Y-99575251D01*
X114106592Y-99516172D01*
X114149483Y-99458930D01*
X114151843Y-99456265D01*
X114171989Y-99430748D01*
X114180258Y-99415068D01*
X114188766Y-99403421D01*
X114217490Y-99385875D01*
X114259588Y-99367120D01*
X114307840Y-99349972D01*
X114355021Y-99337248D01*
X114393910Y-99331763D01*
X114493813Y-99336032D01*
X114580527Y-99357416D01*
X114652601Y-99397642D01*
X114713972Y-99458265D01*
X114718715Y-99464239D01*
X114764121Y-99534442D01*
X114788473Y-99606482D01*
X114795634Y-99691385D01*
X114795180Y-99702817D01*
X114794413Y-99722140D01*
G37*
G36*
X116011753Y-99722140D02*
G01*
X115991232Y-99819002D01*
X115946866Y-99904598D01*
X115880570Y-99975962D01*
X115794259Y-100030129D01*
X115777552Y-100037464D01*
X115737258Y-100049950D01*
X115691392Y-100054893D01*
X115629246Y-100053829D01*
X115582774Y-100050675D01*
X115535810Y-100042858D01*
X115495333Y-100027775D01*
X115449418Y-100001988D01*
X115387353Y-99955473D01*
X115376274Y-99941448D01*
X115479666Y-99941448D01*
X115486505Y-99948287D01*
X115493344Y-99941448D01*
X115486505Y-99934609D01*
X115479666Y-99941448D01*
X115376274Y-99941448D01*
X115341158Y-99896994D01*
X115329950Y-99877666D01*
X115310865Y-99849810D01*
X115298719Y-99838863D01*
X115297473Y-99838534D01*
X115290867Y-99823128D01*
X115288174Y-99791797D01*
X115288122Y-99787531D01*
X115284011Y-99754603D01*
X115275337Y-99736798D01*
X115269088Y-99725252D01*
X115270404Y-99698376D01*
X115273612Y-99681726D01*
X115357904Y-99681726D01*
X115358415Y-99735633D01*
X115363053Y-99781447D01*
X115371368Y-99806025D01*
X115378401Y-99816897D01*
X115376073Y-99825185D01*
X115375169Y-99828411D01*
X115386817Y-99845743D01*
X115411276Y-99873058D01*
X115411365Y-99873149D01*
X115445321Y-99905155D01*
X115466694Y-99919096D01*
X115473470Y-99914315D01*
X115463636Y-99890155D01*
X115462954Y-99888838D01*
X115454678Y-99858596D01*
X115448755Y-99811372D01*
X115446427Y-99756795D01*
X115446469Y-99746442D01*
X115452772Y-99669034D01*
X115454942Y-99662384D01*
X115608911Y-99662384D01*
X115611499Y-99695244D01*
X115624278Y-99708316D01*
X115653013Y-99715761D01*
X115666648Y-99715035D01*
X115681739Y-99705486D01*
X115682325Y-99678147D01*
X115673567Y-99650535D01*
X115648962Y-99636390D01*
X115625080Y-99640481D01*
X115608911Y-99662384D01*
X115454942Y-99662384D01*
X115471251Y-99612395D01*
X115504066Y-99572233D01*
X115553376Y-99544254D01*
X115564533Y-99539863D01*
X115597528Y-99530003D01*
X115624060Y-99532278D01*
X115658714Y-99547081D01*
X115695327Y-99571656D01*
X115735578Y-99624061D01*
X115753846Y-99678147D01*
X115758521Y-99691989D01*
X115762930Y-99771163D01*
X115747579Y-99857303D01*
X115736503Y-99891422D01*
X115723378Y-99922589D01*
X115713902Y-99934609D01*
X115699225Y-99941448D01*
X115696905Y-99942529D01*
X115671158Y-99961965D01*
X115653411Y-99978219D01*
X115649793Y-99987114D01*
X115665645Y-99988241D01*
X115680880Y-99986745D01*
X115739639Y-99970132D01*
X115801151Y-99939786D01*
X115853780Y-99901098D01*
X115891249Y-99857106D01*
X115925161Y-99788276D01*
X115941126Y-99712995D01*
X115938753Y-99637670D01*
X115917652Y-99568709D01*
X115877433Y-99512519D01*
X115848340Y-99485634D01*
X115803186Y-99448283D01*
X115769628Y-99426648D01*
X115750979Y-99423073D01*
X115747209Y-99424590D01*
X115739548Y-99415681D01*
X115738144Y-99413119D01*
X115716890Y-99407630D01*
X115672255Y-99405831D01*
X115607058Y-99407753D01*
X115524119Y-99413424D01*
X115516328Y-99416340D01*
X115507022Y-99435363D01*
X115504905Y-99444886D01*
X115488609Y-99455880D01*
X115475074Y-99461941D01*
X115447638Y-99483846D01*
X115415269Y-99516233D01*
X115396273Y-99537497D01*
X115375862Y-99564674D01*
X115364787Y-99591647D01*
X115359862Y-99627602D01*
X115357904Y-99681726D01*
X115273612Y-99681726D01*
X115276223Y-99668175D01*
X115280831Y-99626854D01*
X115293711Y-99575251D01*
X115323931Y-99516172D01*
X115366823Y-99458930D01*
X115369182Y-99456265D01*
X115389328Y-99430748D01*
X115397598Y-99415068D01*
X115406106Y-99403421D01*
X115434829Y-99385875D01*
X115476928Y-99367120D01*
X115525179Y-99349972D01*
X115572361Y-99337248D01*
X115611249Y-99331763D01*
X115711153Y-99336032D01*
X115797867Y-99357416D01*
X115869941Y-99397642D01*
X115931311Y-99458265D01*
X115936055Y-99464239D01*
X115981461Y-99534442D01*
X116005813Y-99606482D01*
X116012973Y-99691385D01*
X116012116Y-99712995D01*
X116011753Y-99722140D01*
G37*
G36*
X116888573Y-99092790D02*
G01*
X116891342Y-99143120D01*
X116897378Y-99180238D01*
X116907998Y-99211748D01*
X116924520Y-99245253D01*
X116926749Y-99249405D01*
X117008310Y-99408522D01*
X117073859Y-99553545D01*
X117125484Y-99690689D01*
X117165279Y-99826170D01*
X117195331Y-99966203D01*
X117217734Y-100117003D01*
X117223947Y-100185806D01*
X117228186Y-100293410D01*
X117228171Y-100399847D01*
X117228169Y-100412878D01*
X117224178Y-100536396D01*
X117216494Y-100656148D01*
X117205400Y-100764322D01*
X117191178Y-100853102D01*
X117153514Y-101008225D01*
X117074433Y-101239541D01*
X116970496Y-101460176D01*
X116842471Y-101668581D01*
X116691126Y-101863203D01*
X116676018Y-101880609D01*
X116641122Y-101921719D01*
X116621317Y-101948314D01*
X116614351Y-101964924D01*
X116617973Y-101976078D01*
X116629931Y-101986305D01*
X116635620Y-101990546D01*
X116667424Y-102015364D01*
X116703203Y-102044436D01*
X116714763Y-102053705D01*
X116743713Y-102073970D01*
X116761437Y-102082051D01*
X116770655Y-102084945D01*
X116798421Y-102099403D01*
X116834860Y-102121928D01*
X116896710Y-102156551D01*
X117002159Y-102197575D01*
X117120924Y-102227605D01*
X117245852Y-102245714D01*
X117369789Y-102250975D01*
X117485581Y-102242461D01*
X117586074Y-102219247D01*
X117610485Y-102210404D01*
X117715760Y-102161308D01*
X117813944Y-102098901D01*
X117894910Y-102029406D01*
X117945538Y-101959182D01*
X117979500Y-101868424D01*
X117994618Y-101760869D01*
X117990650Y-101638282D01*
X117967354Y-101502430D01*
X117954966Y-101450809D01*
X117937945Y-101391066D01*
X117918751Y-101344975D01*
X117892976Y-101304628D01*
X117856210Y-101262119D01*
X117804045Y-101209539D01*
X117733576Y-101144368D01*
X117666224Y-101093299D01*
X117603329Y-101060130D01*
X117539616Y-101042132D01*
X117469811Y-101036574D01*
X117429071Y-101037812D01*
X117354803Y-101050778D01*
X117301147Y-101078581D01*
X117265909Y-101122142D01*
X117255849Y-101147216D01*
X117241088Y-101199534D01*
X117226855Y-101264538D01*
X117214761Y-101333758D01*
X117206414Y-101398721D01*
X117203425Y-101450955D01*
X117203622Y-101463471D01*
X117213030Y-101550898D01*
X117235304Y-101623695D01*
X117268856Y-101676384D01*
X117324862Y-101722836D01*
X117389094Y-101754417D01*
X117453197Y-101767251D01*
X117510233Y-101758961D01*
X117523795Y-101751175D01*
X117549460Y-101717975D01*
X117564113Y-101670926D01*
X117564290Y-101618998D01*
X117561990Y-101577633D01*
X117572115Y-101555623D01*
X117573833Y-101554635D01*
X117594364Y-101555074D01*
X117610540Y-101575950D01*
X117621148Y-101610994D01*
X117624977Y-101653936D01*
X117620815Y-101698507D01*
X117607450Y-101738440D01*
X117602664Y-101746947D01*
X117562929Y-101791989D01*
X117510728Y-101823718D01*
X117456133Y-101835663D01*
X117449099Y-101835399D01*
X117396672Y-101823580D01*
X117335873Y-101797545D01*
X117275957Y-101761899D01*
X117226183Y-101721248D01*
X117205144Y-101698226D01*
X117179439Y-101659425D01*
X117162411Y-101613664D01*
X117152962Y-101555928D01*
X117149995Y-101481203D01*
X117152410Y-101384474D01*
X117156094Y-101320649D01*
X117167959Y-101218294D01*
X117187678Y-101137977D01*
X117217004Y-101076539D01*
X117257689Y-101030822D01*
X117311485Y-100997665D01*
X117380146Y-100973911D01*
X117458658Y-100963000D01*
X117555976Y-100974280D01*
X117655491Y-101011753D01*
X117756071Y-101074967D01*
X117856581Y-101163471D01*
X117883697Y-101191236D01*
X117933002Y-101246174D01*
X117968704Y-101296258D01*
X117995132Y-101349475D01*
X118016617Y-101413816D01*
X118037488Y-101497271D01*
X118050606Y-101565587D01*
X118062230Y-101699347D01*
X118055673Y-101828058D01*
X118031049Y-101943925D01*
X118030111Y-101946839D01*
X117992642Y-102021107D01*
X117932100Y-102092850D01*
X117852608Y-102159477D01*
X117758286Y-102218400D01*
X117653257Y-102267029D01*
X117541642Y-102302775D01*
X117427564Y-102323048D01*
X117345296Y-102325858D01*
X117241841Y-102318177D01*
X117132796Y-102300598D01*
X117024736Y-102274722D01*
X116924238Y-102242153D01*
X116837879Y-102204494D01*
X116772235Y-102163346D01*
X116742877Y-102140552D01*
X116685189Y-102097924D01*
X116631583Y-102060514D01*
X116559321Y-102012241D01*
X116433252Y-102118046D01*
X116357226Y-102179493D01*
X116156962Y-102319511D01*
X115948575Y-102434017D01*
X115729996Y-102523916D01*
X115499154Y-102590112D01*
X115253979Y-102633511D01*
X115225727Y-102636263D01*
X115157637Y-102639554D01*
X115073067Y-102640847D01*
X114978942Y-102640273D01*
X114882187Y-102637965D01*
X114789728Y-102634054D01*
X114708489Y-102628671D01*
X114645395Y-102621948D01*
X114532370Y-102603002D01*
X114298903Y-102544250D01*
X114075650Y-102460302D01*
X113861712Y-102350791D01*
X113656191Y-102215346D01*
X113632797Y-102197574D01*
X113550471Y-102128606D01*
X113460247Y-102045057D01*
X113367986Y-101952921D01*
X113279547Y-101858193D01*
X113200794Y-101766868D01*
X113137586Y-101684939D01*
X113075306Y-101590262D01*
X113005381Y-101468582D01*
X112940129Y-101339774D01*
X112884136Y-101212954D01*
X112841985Y-101097237D01*
X112837499Y-101082794D01*
X112780760Y-100853829D01*
X112747525Y-100616731D01*
X112738574Y-100395781D01*
X112818761Y-100395781D01*
X112820202Y-100514830D01*
X112824903Y-100626893D01*
X112832866Y-100725244D01*
X112844094Y-100803160D01*
X112892946Y-101007310D01*
X112966456Y-101221697D01*
X113060993Y-101422071D01*
X113178105Y-101611234D01*
X113319336Y-101791987D01*
X113486234Y-101967134D01*
X113532895Y-102010923D01*
X113718728Y-102164864D01*
X113912495Y-102293191D01*
X114115874Y-102396790D01*
X114330544Y-102476548D01*
X114558183Y-102533349D01*
X114565621Y-102534763D01*
X114663669Y-102549146D01*
X114779270Y-102559967D01*
X114903579Y-102566872D01*
X115027750Y-102569510D01*
X115142939Y-102567526D01*
X115240301Y-102560568D01*
X115373587Y-102541235D01*
X115602499Y-102487133D01*
X115824203Y-102408292D01*
X116035660Y-102306067D01*
X116233831Y-102181812D01*
X116415675Y-102036882D01*
X116496810Y-101964135D01*
X116443031Y-101924432D01*
X116283319Y-101798153D01*
X116111926Y-101641803D01*
X115958802Y-101478451D01*
X115828454Y-101312585D01*
X115827255Y-101310899D01*
X115798492Y-101273302D01*
X115774914Y-101247430D01*
X115761522Y-101238799D01*
X115753829Y-101245836D01*
X115736433Y-101271890D01*
X115715940Y-101309899D01*
X115702532Y-101336713D01*
X115682834Y-101374664D01*
X115669698Y-101398152D01*
X115662490Y-101410869D01*
X115644961Y-101444893D01*
X115624448Y-101487059D01*
X115608109Y-101519513D01*
X115542111Y-101621850D01*
X115463377Y-101707988D01*
X115375746Y-101774217D01*
X115283060Y-101816828D01*
X115220541Y-101831365D01*
X115140295Y-101841721D01*
X115053261Y-101846849D01*
X114967801Y-101846529D01*
X114892280Y-101840541D01*
X114835061Y-101828662D01*
X114803555Y-101817160D01*
X114699125Y-101760621D01*
X114607301Y-101680467D01*
X114529564Y-101577913D01*
X114492650Y-101518310D01*
X114471192Y-101550557D01*
X114428292Y-101606375D01*
X114355206Y-101670933D01*
X114274046Y-101710564D01*
X114186597Y-101724505D01*
X114094642Y-101711991D01*
X114081947Y-101707942D01*
X114037403Y-101680773D01*
X114006645Y-101634902D01*
X113986952Y-101566653D01*
X113981981Y-101491964D01*
X113996453Y-101428225D01*
X114028343Y-101381055D01*
X114075026Y-101352927D01*
X114133876Y-101346317D01*
X114202267Y-101363699D01*
X114227161Y-101376638D01*
X114246969Y-101397470D01*
X114245083Y-101415569D01*
X114224911Y-101427645D01*
X114189862Y-101430409D01*
X114143344Y-101420571D01*
X114116513Y-101418458D01*
X114086005Y-101436142D01*
X114064986Y-101473169D01*
X114057157Y-101525049D01*
X114062031Y-101578836D01*
X114080958Y-101617659D01*
X114117595Y-101638287D01*
X114175547Y-101644356D01*
X114175875Y-101644355D01*
X114262339Y-101633262D01*
X114332738Y-101600033D01*
X114387291Y-101544511D01*
X114426216Y-101466542D01*
X114431834Y-101448777D01*
X114434677Y-101426224D01*
X114429493Y-101401362D01*
X114414451Y-101367035D01*
X114387718Y-101316084D01*
X114366478Y-101272690D01*
X114336691Y-101202875D01*
X114306974Y-101125040D01*
X114281388Y-101049364D01*
X114279397Y-101042959D01*
X114257538Y-100969619D01*
X114243181Y-100911724D01*
X114234734Y-100859679D01*
X114230607Y-100803892D01*
X114229317Y-100740165D01*
X114291223Y-100740165D01*
X114293774Y-100783744D01*
X114301438Y-100832592D01*
X114315299Y-100893635D01*
X114336439Y-100973799D01*
X114339077Y-100983379D01*
X114360793Y-101057546D01*
X114383384Y-101127752D01*
X114404327Y-101186475D01*
X114421100Y-101226195D01*
X114436051Y-101255151D01*
X114455183Y-101289320D01*
X114467383Y-101307476D01*
X114467548Y-101307642D01*
X114477564Y-101304901D01*
X114485948Y-101276333D01*
X114492572Y-101223403D01*
X114497304Y-101147577D01*
X114500016Y-101050322D01*
X114500576Y-100933101D01*
X114500208Y-100871414D01*
X114499140Y-100795477D01*
X114497053Y-100739002D01*
X114493478Y-100697194D01*
X114487946Y-100665261D01*
X114479987Y-100638407D01*
X114469133Y-100611839D01*
X114446742Y-100567851D01*
X114418123Y-100524046D01*
X114390879Y-100493318D01*
X114369644Y-100481728D01*
X114366852Y-100482131D01*
X114349223Y-100498643D01*
X114330645Y-100534627D01*
X114313470Y-100583580D01*
X114300051Y-100638999D01*
X114292738Y-100694382D01*
X114292702Y-100694930D01*
X114291223Y-100740165D01*
X114229317Y-100740165D01*
X114229208Y-100734770D01*
X114229088Y-100714680D01*
X114229540Y-100652581D01*
X114232440Y-100608044D01*
X114239123Y-100573313D01*
X114250920Y-100540632D01*
X114269165Y-100502245D01*
X114289925Y-100462772D01*
X114309396Y-100434769D01*
X114329056Y-100421101D01*
X114354735Y-100415885D01*
X114386197Y-100417006D01*
X114437077Y-100439199D01*
X114483920Y-100487531D01*
X114527359Y-100562540D01*
X114570081Y-100652702D01*
X114569413Y-100933101D01*
X114569332Y-100967296D01*
X114569242Y-100996489D01*
X114568429Y-101098664D01*
X114566723Y-101178287D01*
X114563893Y-101239205D01*
X114559705Y-101285265D01*
X114553929Y-101320314D01*
X114546332Y-101348198D01*
X114542566Y-101359525D01*
X114533543Y-101391727D01*
X114532022Y-101418456D01*
X114539615Y-101446965D01*
X114557933Y-101484504D01*
X114588587Y-101538325D01*
X114592135Y-101544347D01*
X114659594Y-101634137D01*
X114742107Y-101705674D01*
X114834789Y-101754664D01*
X114866396Y-101765643D01*
X114902996Y-101774546D01*
X114944275Y-101779131D01*
X114997767Y-101780154D01*
X115071005Y-101778372D01*
X115090494Y-101777680D01*
X115156108Y-101774471D01*
X115204058Y-101769522D01*
X115242143Y-101761275D01*
X115278161Y-101748172D01*
X115319908Y-101728656D01*
X115356890Y-101708806D01*
X115434565Y-101652540D01*
X115499678Y-101580701D01*
X115555340Y-101489425D01*
X115604659Y-101374848D01*
X115618921Y-101338952D01*
X115639858Y-101293041D01*
X115657517Y-101261372D01*
X115659092Y-101259025D01*
X115679770Y-101220645D01*
X115697304Y-101177010D01*
X115700641Y-101166222D01*
X115704920Y-101144351D01*
X115703159Y-101121732D01*
X115693712Y-101092484D01*
X115674937Y-101050725D01*
X115645188Y-100990575D01*
X115600155Y-100896386D01*
X115556139Y-100789352D01*
X115529591Y-100701974D01*
X115520700Y-100634791D01*
X115520752Y-100633464D01*
X115589166Y-100633464D01*
X115591836Y-100664911D01*
X115607864Y-100732891D01*
X115637059Y-100815873D01*
X115677910Y-100909164D01*
X115696483Y-100946981D01*
X115712154Y-100976505D01*
X115719825Y-100987813D01*
X115725446Y-100982064D01*
X115732605Y-100954035D01*
X115738121Y-100907342D01*
X115741932Y-100847186D01*
X115743977Y-100778766D01*
X115744197Y-100707284D01*
X115742529Y-100637940D01*
X115738914Y-100575935D01*
X115733289Y-100526470D01*
X115725595Y-100494744D01*
X115709439Y-100466229D01*
X115684003Y-100448426D01*
X115657131Y-100452546D01*
X115631518Y-100475848D01*
X115609856Y-100515595D01*
X115594841Y-100569046D01*
X115589166Y-100633464D01*
X115520752Y-100633464D01*
X115521746Y-100607888D01*
X115534251Y-100536692D01*
X115558551Y-100472431D01*
X115591691Y-100420208D01*
X115630714Y-100385131D01*
X115672665Y-100372304D01*
X115711549Y-100383830D01*
X115751101Y-100413982D01*
X115783106Y-100455060D01*
X115799851Y-100499357D01*
X115807254Y-100560598D01*
X115814229Y-100683346D01*
X115814105Y-100707284D01*
X115813531Y-100818534D01*
X115805059Y-100957340D01*
X115798514Y-101031156D01*
X115795388Y-101088291D01*
X115798042Y-101132072D01*
X115808499Y-101169621D01*
X115828781Y-101208058D01*
X115860908Y-101254506D01*
X115906903Y-101316084D01*
X115979847Y-101407899D01*
X116076142Y-101517178D01*
X116179592Y-101624040D01*
X116284854Y-101723248D01*
X116386588Y-101809560D01*
X116479451Y-101877737D01*
X116538853Y-101917063D01*
X116571239Y-101886714D01*
X116576790Y-101881378D01*
X116615991Y-101839131D01*
X116664462Y-101781281D01*
X116717319Y-101714014D01*
X116769676Y-101643514D01*
X116816651Y-101575966D01*
X116867475Y-101495289D01*
X116971497Y-101294791D01*
X117053167Y-101082023D01*
X117112108Y-100859960D01*
X117147943Y-100631576D01*
X117160294Y-100399847D01*
X117148784Y-100167745D01*
X117113037Y-99938246D01*
X117052675Y-99714323D01*
X117033678Y-99659881D01*
X117002854Y-99580074D01*
X116969358Y-99501034D01*
X116935532Y-99427771D01*
X116903720Y-99365295D01*
X116876265Y-99318616D01*
X116855509Y-99292746D01*
X116843358Y-99279785D01*
X116833786Y-99258019D01*
X116830188Y-99243300D01*
X116809812Y-99206025D01*
X116773957Y-99155289D01*
X116725502Y-99094257D01*
X116667328Y-99026094D01*
X116602315Y-98953963D01*
X116533344Y-98881030D01*
X116463295Y-98810460D01*
X116395048Y-98745418D01*
X116331484Y-98689068D01*
X116275483Y-98644575D01*
X116240226Y-98619234D01*
X116036321Y-98490282D01*
X115826475Y-98387465D01*
X115687968Y-98338295D01*
X115905223Y-98338295D01*
X115921010Y-98346441D01*
X115952725Y-98361686D01*
X115991877Y-98380021D01*
X116030438Y-98397725D01*
X116060376Y-98411076D01*
X116073661Y-98416353D01*
X116077678Y-98412682D01*
X116092662Y-98391667D01*
X116113569Y-98358222D01*
X116140980Y-98318335D01*
X116186400Y-98263309D01*
X116238344Y-98208157D01*
X116289561Y-98160497D01*
X116332800Y-98127945D01*
X116348193Y-98119607D01*
X116404983Y-98104446D01*
X116459341Y-98111017D01*
X116504808Y-98137578D01*
X116534924Y-98182391D01*
X116553201Y-98241611D01*
X116572610Y-98347092D01*
X116583357Y-98472952D01*
X116585045Y-98615769D01*
X116581233Y-98808346D01*
X116653631Y-98889329D01*
X116654557Y-98890366D01*
X116696750Y-98938819D01*
X116738052Y-98988216D01*
X116769649Y-99028020D01*
X116782244Y-99044696D01*
X116801973Y-99069757D01*
X116816262Y-99083774D01*
X116825568Y-99084428D01*
X116830346Y-99069403D01*
X116831053Y-99036382D01*
X116828145Y-98983049D01*
X116822077Y-98907086D01*
X116813306Y-98806176D01*
X116802896Y-98689120D01*
X116783270Y-98480683D01*
X116764528Y-98298305D01*
X116746697Y-98142199D01*
X116729803Y-98012578D01*
X116713872Y-97909655D01*
X116698933Y-97833643D01*
X116685010Y-97784753D01*
X116682573Y-97778997D01*
X116662619Y-97744317D01*
X116635585Y-97707747D01*
X116604614Y-97679087D01*
X116565580Y-97664302D01*
X116521001Y-97669882D01*
X116468735Y-97696594D01*
X116406641Y-97745206D01*
X116332580Y-97816488D01*
X116300648Y-97850032D01*
X116242342Y-97914302D01*
X116186259Y-97979345D01*
X116141089Y-98035235D01*
X116132659Y-98046189D01*
X116082698Y-98110121D01*
X116028519Y-98178186D01*
X115980452Y-98237385D01*
X115961067Y-98261193D01*
X115930774Y-98299839D01*
X115910970Y-98327135D01*
X115905223Y-98338295D01*
X115687968Y-98338295D01*
X115609222Y-98310340D01*
X115383094Y-98258464D01*
X115146626Y-98231393D01*
X114898352Y-98228685D01*
X114885841Y-98229173D01*
X114639918Y-98251667D01*
X114557671Y-98268116D01*
X114406693Y-98298311D01*
X114185810Y-98369219D01*
X113976915Y-98464501D01*
X113779652Y-98584273D01*
X113734658Y-98616051D01*
X113542307Y-98770971D01*
X113369820Y-98942448D01*
X113218317Y-99128800D01*
X113088918Y-99328345D01*
X112982742Y-99539402D01*
X112900908Y-99760287D01*
X112844536Y-99989321D01*
X112833954Y-100063955D01*
X112825640Y-100163619D01*
X112820575Y-100276469D01*
X112818761Y-100395781D01*
X112738574Y-100395781D01*
X112737771Y-100375964D01*
X112751476Y-100135991D01*
X112788618Y-99901275D01*
X112849174Y-99676281D01*
X112862474Y-99637887D01*
X112924553Y-99488009D01*
X113002819Y-99333548D01*
X113092636Y-99182461D01*
X113189366Y-99042710D01*
X113288375Y-98922253D01*
X113369598Y-98833160D01*
X113376181Y-98753610D01*
X113446074Y-98753610D01*
X113449564Y-98752024D01*
X113468083Y-98737616D01*
X113496641Y-98712756D01*
X113520192Y-98691858D01*
X113565430Y-98652687D01*
X113610660Y-98614415D01*
X113676617Y-98559434D01*
X113639941Y-98446137D01*
X113634717Y-98429783D01*
X113618620Y-98372929D01*
X113609813Y-98323386D01*
X113606807Y-98269646D01*
X113608113Y-98200203D01*
X113610660Y-98151566D01*
X113619384Y-98079504D01*
X113634658Y-98027500D01*
X113658094Y-97991007D01*
X113691303Y-97965477D01*
X113697806Y-97961917D01*
X113722358Y-97952308D01*
X113745656Y-97955317D01*
X113779964Y-97971819D01*
X113780706Y-97972221D01*
X113820471Y-98002642D01*
X113867235Y-98052022D01*
X113916505Y-98114660D01*
X113963790Y-98184856D01*
X114004598Y-98256909D01*
X114022741Y-98291230D01*
X114041298Y-98319037D01*
X114057430Y-98330061D01*
X114075891Y-98329116D01*
X114084782Y-98326746D01*
X114126445Y-98312789D01*
X114166172Y-98295879D01*
X114195912Y-98279746D01*
X114207614Y-98268116D01*
X114199712Y-98250930D01*
X114175752Y-98215092D01*
X114137660Y-98163433D01*
X114087384Y-98098426D01*
X114026868Y-98022543D01*
X113958059Y-97938257D01*
X113882902Y-97848041D01*
X113803344Y-97754368D01*
X113781106Y-97729239D01*
X113720071Y-97670163D01*
X113668299Y-97636331D01*
X113625976Y-97627839D01*
X113593285Y-97644785D01*
X113573715Y-97675410D01*
X113555431Y-97724850D01*
X113538269Y-97794301D01*
X113522038Y-97884987D01*
X113506547Y-97998132D01*
X113491608Y-98134960D01*
X113477028Y-98296696D01*
X113462617Y-98484564D01*
X113461823Y-98495712D01*
X113456195Y-98576755D01*
X113451548Y-98647250D01*
X113448141Y-98703013D01*
X113446231Y-98739861D01*
X113446074Y-98753610D01*
X113376181Y-98753610D01*
X113385428Y-98641854D01*
X113387004Y-98622850D01*
X113404743Y-98416967D01*
X113421577Y-98237098D01*
X113437673Y-98082027D01*
X113453199Y-97950539D01*
X113468322Y-97841419D01*
X113483208Y-97753451D01*
X113498026Y-97685420D01*
X113512942Y-97636110D01*
X113528123Y-97604305D01*
X113538053Y-97591819D01*
X113579591Y-97566016D01*
X113632900Y-97559153D01*
X113690762Y-97572635D01*
X113728349Y-97593885D01*
X113787041Y-97642326D01*
X113853934Y-97712063D01*
X113927012Y-97801147D01*
X113927446Y-97801711D01*
X113972080Y-97858463D01*
X114023488Y-97922045D01*
X114070630Y-97978799D01*
X114071450Y-97979768D01*
X114117597Y-98037123D01*
X114166173Y-98101817D01*
X114206794Y-98160033D01*
X114215338Y-98172840D01*
X114243898Y-98213285D01*
X114266355Y-98241571D01*
X114278451Y-98252218D01*
X114279609Y-98252135D01*
X114300604Y-98247814D01*
X114339433Y-98238234D01*
X114388695Y-98225208D01*
X114415937Y-98218031D01*
X114622657Y-98176974D01*
X114840302Y-98155330D01*
X115062675Y-98152936D01*
X115283578Y-98169628D01*
X115496814Y-98205245D01*
X115696185Y-98259622D01*
X115729529Y-98270626D01*
X115785154Y-98287627D01*
X115821784Y-98295999D01*
X115843876Y-98296600D01*
X115855885Y-98290283D01*
X115868635Y-98275524D01*
X115901830Y-98235510D01*
X115944417Y-98182976D01*
X115991718Y-98123787D01*
X116039057Y-98063814D01*
X116081758Y-98008922D01*
X116115145Y-97964980D01*
X116143470Y-97928511D01*
X116196346Y-97865916D01*
X116254779Y-97801820D01*
X116314249Y-97740801D01*
X116370236Y-97687441D01*
X116418218Y-97646318D01*
X116453677Y-97622012D01*
X116477695Y-97610845D01*
X116546127Y-97595023D01*
X116609333Y-97605950D01*
X116668012Y-97643696D01*
X116685787Y-97661080D01*
X116716662Y-97697961D01*
X116734974Y-97729183D01*
X116738554Y-97740382D01*
X116749217Y-97784484D01*
X116761799Y-97847588D01*
X116775343Y-97923902D01*
X116788897Y-98007632D01*
X116801503Y-98092984D01*
X116812209Y-98174164D01*
X116820057Y-98245379D01*
X116822382Y-98269220D01*
X116830648Y-98347423D01*
X116839744Y-98426179D01*
X116848089Y-98491582D01*
X116857542Y-98566190D01*
X116873251Y-98725583D01*
X116883670Y-98885800D01*
X116887801Y-99033245D01*
X116887842Y-99036382D01*
X116888573Y-99092790D01*
G37*
D11*
X119000000Y-109407500D02*
X119000000Y-108807500D01*
X119550000Y-107607500D02*
X119850000Y-107907500D01*
X119650000Y-108107500D02*
X122450000Y-108107500D01*
X120150000Y-107607500D02*
X119550000Y-107607500D01*
X120150000Y-107607500D02*
X119850000Y-107907500D01*
X122450000Y-110107500D02*
X119650000Y-110107500D01*
X123100000Y-108807500D02*
X123100000Y-109407500D01*
X119000000Y-108807500D02*
G75*
G02*
X119700000Y-108107500I699999J1D01*
G01*
X119700000Y-110107500D02*
G75*
G02*
X119000000Y-109407500I-1J699999D01*
G01*
X122400000Y-108107500D02*
G75*
G02*
X123100000Y-108807500I0J-700000D01*
G01*
X123100000Y-109407500D02*
G75*
G02*
X122400000Y-110107500I-700000J0D01*
G01*
X115850000Y-91550000D02*
X118250000Y-91550000D01*
X115850000Y-93950000D02*
X115850000Y-91550000D01*
X118250000Y-91550000D02*
X118250000Y-93950000D01*
X118250000Y-93950000D02*
X115850000Y-93950000D01*
%LPC*%
D13*
X123800000Y-98850000D03*
D14*
X117795000Y-106800000D03*
X119295000Y-106800000D03*
X120795000Y-106800000D03*
X122295000Y-106800000D03*
X123795000Y-106800000D03*
D15*
X110470000Y-109325000D03*
D16*
X110470000Y-105145000D03*
D15*
X101830000Y-109325000D03*
D16*
X101830000Y-105145000D03*
D17*
X109040000Y-105645000D03*
X103260000Y-105645000D03*
D18*
X102900000Y-96300000D03*
D19*
X104475000Y-91225000D03*
X107475000Y-91225000D03*
D20*
X119650000Y-103400000D03*
D13*
X105619000Y-100375000D03*
X105619000Y-101625000D03*
D21*
X113800000Y-109350000D03*
X117200000Y-109350000D03*
X123150000Y-95800000D03*
X120100000Y-92750000D03*
X106150000Y-108100000D03*
X123150000Y-92750000D03*
D22*
X119750000Y-109107500D03*
D23*
X121050000Y-109107500D03*
D24*
X122350000Y-109107500D03*
D21*
X117050000Y-92750000D03*
%LPD*%
M02*
