G04 #@! TF.GenerationSoftware,KiCad,Pcbnew,8.0.6-8.0.6-0~ubuntu24.04.1*
G04 #@! TF.CreationDate,2024-11-16T03:15:43-08:00*
G04 #@! TF.ProjectId,uSlime,75536c69-6d65-42e6-9b69-6361645f7063,rev?*
G04 #@! TF.SameCoordinates,Original*
G04 #@! TF.FileFunction,Copper,L2,Bot*
G04 #@! TF.FilePolarity,Positive*
%FSLAX46Y46*%
G04 Gerber Fmt 4.6, Leading zero omitted, Abs format (unit mm)*
G04 Created by KiCad (PCBNEW 8.0.6-8.0.6-0~ubuntu24.04.1) date 2024-11-16 03:15:43*
%MOMM*%
%LPD*%
G01*
G04 APERTURE LIST*
G04 Aperture macros list*
%AMFreePoly0*
4,1,19,0.550000,-0.750000,0.000000,-0.750000,0.000000,-0.744911,-0.071157,-0.744911,-0.207708,-0.704816,-0.327430,-0.627875,-0.420627,-0.520320,-0.479746,-0.390866,-0.500000,-0.250000,-0.500000,0.250000,-0.479746,0.390866,-0.420627,0.520320,-0.327430,0.627875,-0.207708,0.704816,-0.071157,0.744911,0.000000,0.744911,0.000000,0.750000,0.550000,0.750000,0.550000,-0.750000,0.550000,-0.750000,
$1*%
%AMFreePoly1*
4,1,19,0.000000,0.744911,0.071157,0.744911,0.207708,0.704816,0.327430,0.627875,0.420627,0.520320,0.479746,0.390866,0.500000,0.250000,0.500000,-0.250000,0.479746,-0.390866,0.420627,-0.520320,0.327430,-0.627875,0.207708,-0.704816,0.071157,-0.744911,0.000000,-0.744911,0.000000,-0.750000,-0.550000,-0.750000,-0.550000,0.750000,0.000000,0.750000,0.000000,0.744911,0.000000,0.744911,
$1*%
G04 Aperture macros list end*
G04 #@! TA.AperFunction,ComponentPad*
%ADD10C,1.200000*%
G04 #@! TD*
G04 #@! TA.AperFunction,ComponentPad*
%ADD11O,1.000000X2.100000*%
G04 #@! TD*
G04 #@! TA.AperFunction,ComponentPad*
%ADD12O,1.000000X1.800000*%
G04 #@! TD*
G04 #@! TA.AperFunction,ComponentPad*
%ADD13C,1.000000*%
G04 #@! TD*
G04 #@! TA.AperFunction,SMDPad,CuDef*
%ADD14R,2.000000X2.000000*%
G04 #@! TD*
G04 #@! TA.AperFunction,SMDPad,CuDef*
%ADD15C,1.000000*%
G04 #@! TD*
G04 #@! TA.AperFunction,SMDPad,CuDef*
%ADD16FreePoly0,0.000000*%
G04 #@! TD*
G04 #@! TA.AperFunction,SMDPad,CuDef*
%ADD17R,1.000000X1.500000*%
G04 #@! TD*
G04 #@! TA.AperFunction,SMDPad,CuDef*
%ADD18FreePoly1,0.000000*%
G04 #@! TD*
G04 #@! TA.AperFunction,ViaPad*
%ADD19C,0.500000*%
G04 #@! TD*
G04 #@! TA.AperFunction,ViaPad*
%ADD20C,0.600000*%
G04 #@! TD*
G04 #@! TA.AperFunction,Conductor*
%ADD21C,0.254000*%
G04 #@! TD*
G04 APERTURE END LIST*
D10*
X117795000Y-106800000D03*
X119295000Y-106800000D03*
X120795000Y-106800000D03*
X122295000Y-106800000D03*
X123795000Y-106800000D03*
D11*
X101830000Y-105145000D03*
D12*
X101830000Y-109325000D03*
D11*
X110470000Y-105145000D03*
D12*
X110470000Y-109325000D03*
D13*
X105619000Y-100375000D03*
X105619000Y-101625000D03*
D14*
X113800000Y-108800000D03*
X117200000Y-109350000D03*
X123150000Y-95800000D03*
X120100000Y-92750000D03*
X106150000Y-108100000D03*
X123150000Y-92750000D03*
D15*
X123800000Y-98850000D03*
D16*
X119750000Y-109107500D03*
D17*
X121050000Y-109107500D03*
D18*
X122350000Y-109107500D03*
D14*
X117050000Y-92750000D03*
D19*
X109150000Y-99000000D03*
X109100000Y-100900000D03*
X115200000Y-96949104D03*
X101550000Y-92950000D03*
D20*
X109368356Y-94381644D03*
D19*
X124895928Y-99150019D03*
X123700000Y-103250000D03*
D20*
X119650000Y-105000000D03*
X107640993Y-99781136D03*
X120954643Y-97145357D03*
X108050000Y-96250000D03*
X124250000Y-100900000D03*
X116200000Y-91000000D03*
D19*
X118826861Y-101348309D03*
X112000000Y-96750000D03*
X123300000Y-99050000D03*
D20*
X108650000Y-97200000D03*
X104650000Y-106450000D03*
D19*
X122350000Y-96650000D03*
X123050000Y-93700000D03*
X110550000Y-106873003D03*
X118600000Y-99400000D03*
X109850000Y-107450003D03*
X117800000Y-99350000D03*
X114600000Y-99500000D03*
X116174672Y-105832672D03*
X113309792Y-103515170D03*
X113730216Y-106604389D03*
X123800000Y-108304000D03*
X120626008Y-99223991D03*
X116200000Y-99350000D03*
X117673000Y-101600000D03*
X116112843Y-103426070D03*
X114573000Y-103100000D03*
X113720000Y-110250002D03*
D20*
X117200000Y-109350000D03*
X121000000Y-103650000D03*
X110477000Y-99850000D03*
X119450000Y-108650000D03*
X111100000Y-91940000D03*
D19*
X112002002Y-97597538D03*
X110453967Y-102611675D03*
X111113626Y-107982763D03*
X107900000Y-105750000D03*
X119929015Y-99343000D03*
X105225000Y-93875000D03*
X108760000Y-102123000D03*
X106175000Y-99225000D03*
D20*
X102874998Y-93087493D03*
D19*
X114543601Y-95918104D03*
D21*
X102874998Y-93087493D02*
X103812491Y-92150000D01*
X103812491Y-92150000D02*
X108950000Y-92150000D01*
X108950000Y-92150000D02*
X110800000Y-94000000D01*
X110800000Y-92240000D02*
X110800000Y-94000000D01*
X110800000Y-94000000D02*
X110800000Y-96250000D01*
X101550000Y-92950000D02*
X101550000Y-91350000D01*
X101550000Y-91350000D02*
X102920317Y-89979683D01*
X102920317Y-89979683D02*
X110329683Y-89979683D01*
X113534250Y-96277752D02*
X113872248Y-96615750D01*
X110329683Y-89979683D02*
X111800000Y-91450000D01*
X111800000Y-91450000D02*
X111800000Y-94550000D01*
X113872248Y-96622248D02*
X114199104Y-96949104D01*
X111800000Y-94550000D02*
X113527752Y-96277752D01*
X113527752Y-96277752D02*
X113534250Y-96277752D01*
X113872248Y-96615750D02*
X113872248Y-96622248D01*
X114199104Y-96949104D02*
X115200000Y-96949104D01*
X115150000Y-104808000D02*
X116174672Y-105832672D01*
X114600000Y-99500000D02*
X115150000Y-100050000D01*
X115150000Y-100050000D02*
X115150000Y-104808000D01*
X115127000Y-110127000D02*
X115450000Y-109804000D01*
X113720000Y-110250002D02*
X113843002Y-110127000D01*
X115450000Y-109804000D02*
X115450000Y-107167703D01*
X113843002Y-110127000D02*
X115127000Y-110127000D01*
X115450000Y-107167703D02*
X114573000Y-106290703D01*
X114573000Y-106290703D02*
X114573000Y-103100000D01*
X112776104Y-97526104D02*
X117542106Y-97526104D01*
X119177000Y-100998170D02*
X118826861Y-101348309D01*
X112000000Y-96750000D02*
X112776104Y-97526104D01*
X117542106Y-97526104D02*
X119177000Y-99160998D01*
X119177000Y-99160998D02*
X119177000Y-100998170D01*
X109850000Y-107450003D02*
X110892050Y-107450003D01*
X110892050Y-107450003D02*
X111804000Y-106538053D01*
X111804000Y-106538053D02*
X111804000Y-101038052D01*
X117187218Y-98537218D02*
X117800000Y-99150000D01*
X111804000Y-101038052D02*
X114304834Y-98537218D01*
X114304834Y-98537218D02*
X117187218Y-98537218D01*
X110550000Y-106873003D02*
X110826997Y-106873003D01*
X110826997Y-106873003D02*
X111350000Y-106350000D01*
X118600000Y-99307948D02*
X118600000Y-99400000D01*
X111350000Y-106350000D02*
X111350000Y-100850000D01*
X111350000Y-100850000D02*
X114116782Y-98083218D01*
X117375270Y-98083218D02*
X118600000Y-99307948D01*
X114116782Y-98083218D02*
X117375270Y-98083218D01*
X109150000Y-99000000D02*
X109100000Y-99050000D01*
X109100000Y-99050000D02*
X109100000Y-100900000D01*
X116200000Y-99350000D02*
X116200000Y-100127000D01*
X116200000Y-100127000D02*
X117673000Y-101600000D01*
X120973993Y-99223991D02*
X122954000Y-101203998D01*
X120626008Y-99223991D02*
X120973993Y-99223991D01*
X120626008Y-99223991D02*
X120100000Y-98697983D01*
X120100000Y-98697983D02*
X120100000Y-92750000D01*
X122954000Y-101203998D02*
X122954000Y-105959000D01*
X122954000Y-105959000D02*
X123795000Y-106800000D01*
X119929015Y-99343000D02*
X122500000Y-101913985D01*
X122500000Y-101913985D02*
X122500000Y-105057948D01*
X122500000Y-105057948D02*
X120795000Y-106762948D01*
X120795000Y-106762948D02*
X120795000Y-106800000D01*
X109368356Y-94381644D02*
X109368356Y-96481644D01*
X109368356Y-96481644D02*
X108650000Y-97200000D01*
X124895928Y-102054072D02*
X124895928Y-99150019D01*
X123700000Y-103250000D02*
X124895928Y-102054072D01*
X122059286Y-98250000D02*
X122216002Y-98250000D01*
X122350000Y-106855000D02*
X122295000Y-106800000D01*
X122577000Y-98610998D02*
X122577000Y-99577000D01*
X122577000Y-99577000D02*
X123900000Y-100900000D01*
X122216002Y-98250000D02*
X122577000Y-98610998D01*
X122350000Y-109107500D02*
X122350000Y-106855000D01*
X120954643Y-97145357D02*
X122059286Y-98250000D01*
X123900000Y-100900000D02*
X124250000Y-100900000D01*
X123500000Y-98850000D02*
X123300000Y-99050000D01*
X123800000Y-98850000D02*
X123500000Y-98850000D01*
X106150000Y-107950000D02*
X106150000Y-108100000D01*
X104650000Y-105350000D02*
X104650000Y-106450000D01*
X109026002Y-102700000D02*
X107300000Y-102700000D01*
X109850000Y-98400000D02*
X109850000Y-101876002D01*
X107300000Y-102700000D02*
X104650000Y-105350000D01*
X104650000Y-106450000D02*
X106150000Y-107950000D01*
X109850000Y-101876002D02*
X109026002Y-102700000D01*
X108650000Y-97200000D02*
X109850000Y-98400000D01*
X123150000Y-95850000D02*
X123150000Y-95800000D01*
X122350000Y-96650000D02*
X123150000Y-95850000D01*
X123150000Y-93600000D02*
X123050000Y-93700000D01*
X123150000Y-92750000D02*
X123150000Y-93600000D01*
X113309792Y-106183965D02*
X113730216Y-106604389D01*
X113309792Y-103515170D02*
X113309792Y-106183965D01*
X123800000Y-106805000D02*
X123795000Y-106800000D01*
X123800000Y-108304000D02*
X123800000Y-106805000D01*
X117795000Y-101722000D02*
X117795000Y-106800000D01*
X117673000Y-101600000D02*
X117795000Y-101722000D01*
X116850000Y-104163227D02*
X116112843Y-103426070D01*
X117584024Y-107900000D02*
X116850000Y-107165976D01*
X120584024Y-107900000D02*
X117584024Y-107900000D01*
X121050000Y-109107500D02*
X121050000Y-108365976D01*
X121050000Y-108365976D02*
X120584024Y-107900000D01*
X116850000Y-107165976D02*
X116850000Y-104163227D01*
X117442500Y-109107500D02*
X117200000Y-109350000D01*
X119750000Y-109107500D02*
X117442500Y-109107500D01*
X121000000Y-105095000D02*
X119295000Y-106800000D01*
X119750000Y-109107500D02*
X119750000Y-108950000D01*
X121000000Y-103650000D02*
X121000000Y-105095000D01*
X119750000Y-108950000D02*
X119450000Y-108650000D01*
X107900000Y-106316005D02*
X109610998Y-108027003D01*
X109610998Y-108027003D02*
X111069386Y-108027003D01*
X107900000Y-105750000D02*
X107900000Y-106316005D01*
X111069386Y-108027003D02*
X111113626Y-107982763D01*
X105850000Y-94500000D02*
X105850000Y-98900000D01*
X105225000Y-93875000D02*
X105850000Y-94500000D01*
X106175000Y-99225000D02*
X106950000Y-100000000D01*
X106950000Y-100000000D02*
X106950000Y-101050000D01*
X106950000Y-101050000D02*
X108023000Y-102123000D01*
X108023000Y-102123000D02*
X108760000Y-102123000D01*
X105850000Y-98900000D02*
X106175000Y-99225000D01*
X111100000Y-91940000D02*
X110800000Y-92240000D01*
X117050000Y-93411705D02*
X117050000Y-92750000D01*
X114543601Y-95918104D02*
X117050000Y-93411705D01*
X110453967Y-102611675D02*
X110453967Y-101103981D01*
X110453967Y-101103981D02*
X112002002Y-99555946D01*
X112002002Y-99555946D02*
X112002002Y-97597538D01*
X110800000Y-99527000D02*
X110477000Y-99850000D01*
X110800000Y-96250000D02*
X110800000Y-99527000D01*
G04 #@! TA.AperFunction,Conductor*
G36*
X108704433Y-92791852D02*
G01*
X109405012Y-93492431D01*
X109419364Y-93527079D01*
X109405012Y-93561727D01*
X109370364Y-93576079D01*
X109368356Y-93576079D01*
X109189106Y-93596275D01*
X109189097Y-93596277D01*
X109018829Y-93655856D01*
X108866096Y-93751826D01*
X108866092Y-93751829D01*
X108738541Y-93879380D01*
X108738538Y-93879384D01*
X108642568Y-94032117D01*
X108582989Y-94202385D01*
X108582987Y-94202394D01*
X108562791Y-94381644D01*
X108582987Y-94560893D01*
X108582989Y-94560902D01*
X108642568Y-94731170D01*
X108733345Y-94875638D01*
X108740856Y-94901708D01*
X108740856Y-96201427D01*
X108726504Y-96236075D01*
X108726504Y-96236076D01*
X108701264Y-96261315D01*
X108689471Y-96270009D01*
X108308892Y-96470693D01*
X108302227Y-96473598D01*
X108300484Y-96474207D01*
X108300477Y-96474211D01*
X108147739Y-96570182D01*
X108020185Y-96697736D01*
X108020182Y-96697740D01*
X107924212Y-96850473D01*
X107864633Y-97020741D01*
X107864631Y-97020750D01*
X107844435Y-97200000D01*
X107864631Y-97379249D01*
X107864633Y-97379258D01*
X107924212Y-97549526D01*
X108020182Y-97702259D01*
X108020185Y-97702263D01*
X108147739Y-97829817D01*
X108156117Y-97835081D01*
X108300478Y-97925789D01*
X108302222Y-97926399D01*
X108308891Y-97929305D01*
X108689471Y-98129988D01*
X108701264Y-98138683D01*
X108815596Y-98253015D01*
X108829948Y-98287663D01*
X108815596Y-98322311D01*
X108807018Y-98329152D01*
X108679112Y-98409521D01*
X108679108Y-98409524D01*
X108559524Y-98529108D01*
X108559521Y-98529112D01*
X108469545Y-98672308D01*
X108469544Y-98672310D01*
X108413688Y-98831937D01*
X108413686Y-98831946D01*
X108394751Y-99000000D01*
X108413310Y-99164718D01*
X108413687Y-99168059D01*
X108469544Y-99327690D01*
X108469545Y-99327692D01*
X108469750Y-99328277D01*
X108472500Y-99344461D01*
X108472500Y-100473914D01*
X108464989Y-100499984D01*
X108419545Y-100572305D01*
X108363688Y-100731937D01*
X108363686Y-100731946D01*
X108344751Y-100900000D01*
X108359476Y-101030691D01*
X108363687Y-101068059D01*
X108419544Y-101227690D01*
X108454686Y-101283618D01*
X108494921Y-101347651D01*
X108501203Y-101384624D01*
X108479502Y-101415210D01*
X108465635Y-101421177D01*
X108288251Y-101466789D01*
X108251120Y-101461518D01*
X108241400Y-101453981D01*
X107591852Y-100804433D01*
X107577500Y-100769785D01*
X107577500Y-99938198D01*
X107572157Y-99911333D01*
X107572157Y-99911332D01*
X107553388Y-99816976D01*
X107553387Y-99816975D01*
X107553386Y-99816966D01*
X107512012Y-99717081D01*
X107506083Y-99702767D01*
X107437411Y-99599992D01*
X107350008Y-99512589D01*
X107035614Y-99198195D01*
X107028081Y-99188482D01*
X106846316Y-98880878D01*
X106846315Y-98880877D01*
X106846290Y-98880834D01*
X106837122Y-98865918D01*
X106837116Y-98865910D01*
X106834391Y-98862748D01*
X106830026Y-98856838D01*
X106765477Y-98754110D01*
X106645890Y-98634523D01*
X106586372Y-98597125D01*
X106500430Y-98543123D01*
X106478728Y-98512537D01*
X106477500Y-98501634D01*
X106477500Y-94438197D01*
X106477499Y-94438193D01*
X106469046Y-94395699D01*
X106453385Y-94316965D01*
X106429756Y-94259919D01*
X106406084Y-94202768D01*
X106395822Y-94187411D01*
X106395821Y-94187410D01*
X106337411Y-94099992D01*
X106085614Y-93848195D01*
X106078081Y-93838482D01*
X105896316Y-93530878D01*
X105896315Y-93530877D01*
X105896290Y-93530834D01*
X105887122Y-93515918D01*
X105887116Y-93515910D01*
X105884391Y-93512748D01*
X105880026Y-93506838D01*
X105815477Y-93404110D01*
X105695890Y-93284523D01*
X105552690Y-93194544D01*
X105393059Y-93138687D01*
X105393055Y-93138686D01*
X105393053Y-93138686D01*
X105225000Y-93119751D01*
X105056946Y-93138686D01*
X105056937Y-93138688D01*
X104897310Y-93194544D01*
X104897308Y-93194545D01*
X104754112Y-93284521D01*
X104754108Y-93284524D01*
X104634524Y-93404108D01*
X104634521Y-93404112D01*
X104544545Y-93547308D01*
X104544544Y-93547310D01*
X104488688Y-93706937D01*
X104488686Y-93706946D01*
X104469751Y-93875000D01*
X104487454Y-94032122D01*
X104488687Y-94043059D01*
X104544544Y-94202690D01*
X104570558Y-94244091D01*
X104634521Y-94345887D01*
X104634524Y-94345891D01*
X104754111Y-94465478D01*
X104871689Y-94539357D01*
X104876295Y-94542636D01*
X104880878Y-94546316D01*
X105188476Y-94728078D01*
X105198195Y-94735614D01*
X105208148Y-94745567D01*
X105222500Y-94780215D01*
X105222500Y-98838197D01*
X105222500Y-98961803D01*
X105230098Y-99000000D01*
X105246613Y-99083032D01*
X105246615Y-99083038D01*
X105270460Y-99140603D01*
X105270460Y-99140604D01*
X105293914Y-99197227D01*
X105293914Y-99197228D01*
X105342048Y-99269266D01*
X105362588Y-99300007D01*
X105377700Y-99315119D01*
X105387238Y-99328586D01*
X105392569Y-99339707D01*
X105394604Y-99377155D01*
X105369564Y-99405074D01*
X105362607Y-99407778D01*
X105234463Y-99446650D01*
X105110476Y-99512922D01*
X105110475Y-99512923D01*
X105677697Y-100080144D01*
X105658496Y-100075000D01*
X105579504Y-100075000D01*
X105503204Y-100095444D01*
X105434795Y-100134940D01*
X105378940Y-100190795D01*
X105339444Y-100259204D01*
X105319000Y-100335504D01*
X105319000Y-100414496D01*
X105324144Y-100433697D01*
X104756923Y-99866475D01*
X104756922Y-99866476D01*
X104690654Y-99990456D01*
X104690649Y-99990468D01*
X104633470Y-100178961D01*
X104633468Y-100178969D01*
X104614161Y-100374999D01*
X104633468Y-100571030D01*
X104633470Y-100571038D01*
X104690649Y-100759531D01*
X104690654Y-100759543D01*
X104783506Y-100933258D01*
X104783511Y-100933265D01*
X104812445Y-100968520D01*
X104823332Y-101004408D01*
X104812446Y-101030691D01*
X104783091Y-101066460D01*
X104690185Y-101240273D01*
X104632976Y-101428866D01*
X104632976Y-101428867D01*
X104613659Y-101624999D01*
X104613659Y-101625000D01*
X104632976Y-101821132D01*
X104632976Y-101821133D01*
X104690185Y-102009726D01*
X104713205Y-102052793D01*
X104750201Y-102122008D01*
X104783092Y-102183541D01*
X104783094Y-102183544D01*
X104849310Y-102264227D01*
X104908117Y-102335883D01*
X104995427Y-102407537D01*
X105060455Y-102460905D01*
X105060458Y-102460907D01*
X105060462Y-102460910D01*
X105234273Y-102553814D01*
X105422868Y-102611024D01*
X105619000Y-102630341D01*
X105815132Y-102611024D01*
X106003727Y-102553814D01*
X106177538Y-102460910D01*
X106329883Y-102335883D01*
X106454910Y-102183538D01*
X106547814Y-102009727D01*
X106605024Y-101821132D01*
X106615373Y-101716047D01*
X106633051Y-101682975D01*
X106668940Y-101672088D01*
X106698785Y-101686204D01*
X107059616Y-102047035D01*
X107073968Y-102081683D01*
X107059616Y-102116331D01*
X107043720Y-102126953D01*
X107002769Y-102143916D01*
X107002767Y-102143917D01*
X106953038Y-102177145D01*
X106899992Y-102212588D01*
X104162588Y-104949992D01*
X104093644Y-105053175D01*
X104092995Y-105054990D01*
X104046616Y-105166957D01*
X104046613Y-105166967D01*
X104023225Y-105284553D01*
X104022500Y-105288198D01*
X104022500Y-105749996D01*
X104020309Y-105764483D01*
X103893078Y-106175575D01*
X103885068Y-106204472D01*
X103885067Y-106204474D01*
X103884566Y-106209576D01*
X103882052Y-106220957D01*
X103864632Y-106270745D01*
X103864631Y-106270748D01*
X103864631Y-106270750D01*
X103844435Y-106450000D01*
X103864631Y-106629249D01*
X103864633Y-106629258D01*
X103924212Y-106799526D01*
X104020182Y-106952259D01*
X104020185Y-106952263D01*
X104147739Y-107079817D01*
X104179980Y-107100075D01*
X104300478Y-107175789D01*
X104302222Y-107176399D01*
X104308891Y-107179305D01*
X104460352Y-107259171D01*
X104623355Y-107345124D01*
X104647309Y-107373980D01*
X104649500Y-107388467D01*
X104649500Y-109147879D01*
X104655907Y-109207478D01*
X104655909Y-109207483D01*
X104706204Y-109342331D01*
X104792454Y-109457546D01*
X104907669Y-109543796D01*
X105042517Y-109594091D01*
X105042520Y-109594092D01*
X105086177Y-109598785D01*
X105102127Y-109600500D01*
X107197872Y-109600499D01*
X107197878Y-109600499D01*
X107257478Y-109594092D01*
X107257479Y-109594091D01*
X107257483Y-109594091D01*
X107392331Y-109543796D01*
X107507546Y-109457546D01*
X107593796Y-109342331D01*
X107644091Y-109207483D01*
X107644091Y-109207481D01*
X107644092Y-109207479D01*
X107650499Y-109147879D01*
X107650500Y-109147873D01*
X107650499Y-107072218D01*
X107664851Y-107037571D01*
X107699499Y-107023219D01*
X107734147Y-107037571D01*
X109123587Y-108427011D01*
X109210990Y-108514414D01*
X109313765Y-108583086D01*
X109357576Y-108601233D01*
X109427964Y-108630389D01*
X109457867Y-108636337D01*
X109489049Y-108657171D01*
X109496366Y-108693954D01*
X109470000Y-108826512D01*
X109470000Y-109075000D01*
X110170000Y-109075000D01*
X110170000Y-109575000D01*
X109470000Y-109575000D01*
X109470000Y-109823487D01*
X109508429Y-110016689D01*
X109508429Y-110016690D01*
X109583809Y-110198674D01*
X109693246Y-110362460D01*
X109832539Y-110501753D01*
X109996325Y-110611190D01*
X110178310Y-110686570D01*
X110220000Y-110694862D01*
X110220000Y-109891988D01*
X110229940Y-109909205D01*
X110285795Y-109965060D01*
X110354204Y-110004556D01*
X110430504Y-110025000D01*
X110509496Y-110025000D01*
X110585796Y-110004556D01*
X110654205Y-109965060D01*
X110710060Y-109909205D01*
X110720000Y-109891988D01*
X110720000Y-110694862D01*
X110761689Y-110686570D01*
X110761690Y-110686570D01*
X110943674Y-110611190D01*
X111107460Y-110501753D01*
X111246753Y-110362460D01*
X111356190Y-110198674D01*
X111431570Y-110016690D01*
X111431570Y-110016689D01*
X111470000Y-109823487D01*
X111470000Y-109575000D01*
X110770000Y-109575000D01*
X110770000Y-109075000D01*
X111470000Y-109075000D01*
X111470000Y-108826512D01*
X111444524Y-108698434D01*
X111451841Y-108661652D01*
X111466508Y-108647389D01*
X111584516Y-108573240D01*
X111704103Y-108453653D01*
X111794082Y-108310453D01*
X111849939Y-108150822D01*
X111868875Y-107982763D01*
X111849939Y-107814704D01*
X111794082Y-107655073D01*
X111738103Y-107565984D01*
X111730100Y-107553247D01*
X111723817Y-107516274D01*
X111736939Y-107492531D01*
X112291411Y-106938061D01*
X112302156Y-106921980D01*
X112360083Y-106835286D01*
X112407385Y-106721088D01*
X112431500Y-106599856D01*
X112431500Y-101318266D01*
X112445851Y-101283619D01*
X113869243Y-99860226D01*
X113903890Y-99845875D01*
X113938538Y-99860227D01*
X113945375Y-99868800D01*
X114009523Y-99970890D01*
X114129110Y-100090477D01*
X114272310Y-100180456D01*
X114431941Y-100236313D01*
X114434001Y-100236545D01*
X114463170Y-100250589D01*
X114508148Y-100295567D01*
X114522500Y-100330215D01*
X114522500Y-102306651D01*
X114508148Y-102341299D01*
X114478987Y-102355343D01*
X114404946Y-102363686D01*
X114404937Y-102363688D01*
X114245310Y-102419544D01*
X114245308Y-102419545D01*
X114102112Y-102509521D01*
X114102108Y-102509524D01*
X113982524Y-102629108D01*
X113982521Y-102629112D01*
X113892545Y-102772308D01*
X113892544Y-102772310D01*
X113848965Y-102896851D01*
X113823975Y-102924815D01*
X113786531Y-102926917D01*
X113776645Y-102922156D01*
X113686778Y-102865689D01*
X113637482Y-102834714D01*
X113477851Y-102778857D01*
X113477847Y-102778856D01*
X113477845Y-102778856D01*
X113309792Y-102759921D01*
X113141738Y-102778856D01*
X113141729Y-102778858D01*
X112982102Y-102834714D01*
X112982100Y-102834715D01*
X112838904Y-102924691D01*
X112838900Y-102924694D01*
X112719316Y-103044278D01*
X112719313Y-103044282D01*
X112629337Y-103187478D01*
X112629336Y-103187480D01*
X112573480Y-103347107D01*
X112573478Y-103347116D01*
X112554543Y-103515170D01*
X112562945Y-103589744D01*
X112573479Y-103683229D01*
X112628502Y-103840477D01*
X112629336Y-103842859D01*
X112629336Y-103842861D01*
X112674781Y-103915184D01*
X112682292Y-103941254D01*
X112682292Y-106122162D01*
X112682292Y-106245768D01*
X112691983Y-106294489D01*
X112706405Y-106366997D01*
X112706407Y-106367003D01*
X112738868Y-106445368D01*
X112738868Y-106445369D01*
X112750662Y-106473842D01*
X112753709Y-106481198D01*
X112775043Y-106513127D01*
X112808092Y-106562589D01*
X112822379Y-106583970D01*
X112822382Y-106583974D01*
X112979625Y-106741217D01*
X112993668Y-106770372D01*
X112993900Y-106772436D01*
X112993902Y-106772446D01*
X112993903Y-106772448D01*
X113049760Y-106932079D01*
X113139739Y-107075279D01*
X113259326Y-107194866D01*
X113259328Y-107194867D01*
X113282633Y-107209511D01*
X113304335Y-107240097D01*
X113298052Y-107277070D01*
X113267466Y-107298772D01*
X113256563Y-107300000D01*
X112752166Y-107300000D01*
X112692627Y-107306401D01*
X112692626Y-107306401D01*
X112557908Y-107356648D01*
X112442811Y-107442811D01*
X112356648Y-107557908D01*
X112306401Y-107692626D01*
X112306401Y-107692627D01*
X112300000Y-107752165D01*
X112300000Y-108550000D01*
X114001000Y-108550000D01*
X114035648Y-108564352D01*
X114050000Y-108599000D01*
X114050000Y-109001000D01*
X114035648Y-109035648D01*
X114001000Y-109050000D01*
X112300000Y-109050000D01*
X112300000Y-109847834D01*
X112306401Y-109907372D01*
X112306401Y-109907373D01*
X112356648Y-110042091D01*
X112442811Y-110157188D01*
X112557908Y-110243351D01*
X112692626Y-110293598D01*
X112752166Y-110300000D01*
X112926596Y-110300000D01*
X112961244Y-110314352D01*
X112975287Y-110343512D01*
X112983687Y-110418061D01*
X113039544Y-110577692D01*
X113129523Y-110720892D01*
X113249110Y-110840479D01*
X113392310Y-110930458D01*
X113551941Y-110986315D01*
X113720000Y-111005251D01*
X113888059Y-110986315D01*
X114047690Y-110930458D01*
X114190890Y-110840479D01*
X114262517Y-110768852D01*
X114297165Y-110754500D01*
X115188800Y-110754500D01*
X115188803Y-110754500D01*
X115310035Y-110730386D01*
X115390782Y-110696938D01*
X115390783Y-110696938D01*
X115403139Y-110691819D01*
X115424233Y-110683083D01*
X115527008Y-110614411D01*
X115614411Y-110527008D01*
X115646026Y-110495391D01*
X115680671Y-110481040D01*
X115715320Y-110495391D01*
X115726583Y-110512916D01*
X115756202Y-110592328D01*
X115756204Y-110592332D01*
X115772733Y-110614411D01*
X115842454Y-110707546D01*
X115957669Y-110793796D01*
X116092517Y-110844091D01*
X116092520Y-110844092D01*
X116136177Y-110848785D01*
X116152127Y-110850500D01*
X118247872Y-110850499D01*
X118247878Y-110850499D01*
X118307478Y-110844092D01*
X118307479Y-110844091D01*
X118307483Y-110844091D01*
X118442331Y-110793796D01*
X118557546Y-110707546D01*
X118643796Y-110592331D01*
X118694091Y-110457483D01*
X118694091Y-110457481D01*
X118694092Y-110457479D01*
X118700500Y-110397879D01*
X118700500Y-109784000D01*
X118714852Y-109749352D01*
X118749500Y-109735000D01*
X118785516Y-109735000D01*
X118820164Y-109749352D01*
X118830088Y-109763644D01*
X118865233Y-109840601D01*
X118865234Y-109840602D01*
X118943010Y-109961625D01*
X118943013Y-109961629D01*
X118943014Y-109961630D01*
X119037168Y-110070291D01*
X119037171Y-110070294D01*
X119145909Y-110164515D01*
X119266861Y-110242246D01*
X119266860Y-110242246D01*
X119334445Y-110273110D01*
X119397741Y-110302017D01*
X119535696Y-110342524D01*
X119678111Y-110363000D01*
X119678115Y-110363000D01*
X120300008Y-110363000D01*
X120357552Y-110358884D01*
X120371940Y-110357855D01*
X120405176Y-110348095D01*
X120436106Y-110349199D01*
X120442517Y-110351591D01*
X120442520Y-110351592D01*
X120486177Y-110356285D01*
X120502127Y-110358000D01*
X121597872Y-110357999D01*
X121597878Y-110357999D01*
X121657478Y-110351592D01*
X121657479Y-110351591D01*
X121657483Y-110351591D01*
X121792331Y-110301296D01*
X121907546Y-110215046D01*
X121993796Y-110099831D01*
X122044091Y-109964983D01*
X122044091Y-109964981D01*
X122044092Y-109964979D01*
X122050499Y-109905379D01*
X122050500Y-109905373D01*
X122050499Y-108309628D01*
X122050499Y-108309620D01*
X122044092Y-108250021D01*
X122044091Y-108250017D01*
X121993796Y-108115169D01*
X121907546Y-107999954D01*
X121838314Y-107948127D01*
X121792333Y-107913705D01*
X121792331Y-107913704D01*
X121734223Y-107892031D01*
X121657479Y-107863407D01*
X121597879Y-107857000D01*
X121597873Y-107857000D01*
X121448739Y-107857000D01*
X121414091Y-107842648D01*
X121376559Y-107805116D01*
X121362207Y-107770468D01*
X121376559Y-107735820D01*
X121385408Y-107728809D01*
X121461041Y-107681981D01*
X121512361Y-107635196D01*
X121547633Y-107622460D01*
X121578382Y-107635197D01*
X121629257Y-107681576D01*
X121802590Y-107788900D01*
X121992674Y-107862538D01*
X122193072Y-107900000D01*
X122396928Y-107900000D01*
X122597325Y-107862538D01*
X122787409Y-107788900D01*
X122960736Y-107681580D01*
X123011616Y-107635196D01*
X123046890Y-107622459D01*
X123077636Y-107635194D01*
X123128959Y-107681981D01*
X123149295Y-107694572D01*
X123171198Y-107725014D01*
X123172500Y-107736233D01*
X123172500Y-107877914D01*
X123164989Y-107903984D01*
X123119545Y-107976305D01*
X123063688Y-108135937D01*
X123063686Y-108135946D01*
X123044751Y-108304000D01*
X123061612Y-108453650D01*
X123063687Y-108472059D01*
X123119544Y-108631690D01*
X123209523Y-108774890D01*
X123329110Y-108894477D01*
X123472310Y-108984456D01*
X123631941Y-109040313D01*
X123800000Y-109059249D01*
X123968059Y-109040313D01*
X124127690Y-108984456D01*
X124270890Y-108894477D01*
X124390477Y-108774890D01*
X124480456Y-108631690D01*
X124536313Y-108472059D01*
X124555249Y-108304000D01*
X124536313Y-108135941D01*
X124480456Y-107976310D01*
X124480455Y-107976309D01*
X124480454Y-107976305D01*
X124435011Y-107903984D01*
X124427500Y-107877914D01*
X124427500Y-107730041D01*
X124441852Y-107695393D01*
X124450706Y-107688380D01*
X124451426Y-107687933D01*
X124461041Y-107681981D01*
X124611764Y-107544579D01*
X124734673Y-107381821D01*
X124825582Y-107199250D01*
X124881397Y-107003083D01*
X124900215Y-106800000D01*
X124881397Y-106596917D01*
X124825582Y-106400750D01*
X124734673Y-106218179D01*
X124671998Y-106135184D01*
X124611766Y-106055423D01*
X124611763Y-106055420D01*
X124461045Y-105918022D01*
X124461042Y-105918020D01*
X124461041Y-105918019D01*
X124287637Y-105810652D01*
X124287634Y-105810651D01*
X124287633Y-105810650D01*
X124097462Y-105736978D01*
X124097460Y-105736977D01*
X124097456Y-105736976D01*
X123896976Y-105699500D01*
X123693024Y-105699500D01*
X123639503Y-105709504D01*
X123602808Y-105701762D01*
X123582334Y-105670341D01*
X123581500Y-105661338D01*
X123581500Y-104046728D01*
X123595852Y-104012080D01*
X123630500Y-103997728D01*
X123635982Y-103998035D01*
X123700000Y-104005249D01*
X123868059Y-103986313D01*
X124027690Y-103930456D01*
X124170890Y-103840477D01*
X124290477Y-103720890D01*
X124380456Y-103577690D01*
X124436313Y-103418059D01*
X124436545Y-103415997D01*
X124450588Y-103386829D01*
X125063042Y-102774375D01*
X125097689Y-102760024D01*
X125132337Y-102774376D01*
X125146689Y-102809007D01*
X125149499Y-110947237D01*
X125149191Y-110952741D01*
X125137593Y-111055666D01*
X125135151Y-111066362D01*
X125101858Y-111161512D01*
X125097097Y-111171399D01*
X125043461Y-111256759D01*
X125036620Y-111265337D01*
X124965337Y-111336620D01*
X124956759Y-111343461D01*
X124871399Y-111397097D01*
X124861512Y-111401858D01*
X124766362Y-111435151D01*
X124755666Y-111437593D01*
X124659877Y-111448386D01*
X124652732Y-111449192D01*
X124647247Y-111449500D01*
X101652753Y-111449500D01*
X101647267Y-111449192D01*
X101639061Y-111448267D01*
X101544333Y-111437593D01*
X101533637Y-111435151D01*
X101469221Y-111412612D01*
X101438484Y-111401856D01*
X101428603Y-111397098D01*
X101343240Y-111343461D01*
X101334662Y-111336620D01*
X101263379Y-111265337D01*
X101256538Y-111256759D01*
X101202899Y-111171393D01*
X101198144Y-111161519D01*
X101164847Y-111066361D01*
X101162406Y-111055665D01*
X101150808Y-110952733D01*
X101150500Y-110947247D01*
X101150500Y-110565335D01*
X101164852Y-110530687D01*
X101199500Y-110516335D01*
X101226723Y-110524593D01*
X101356325Y-110611190D01*
X101538310Y-110686570D01*
X101580000Y-110694862D01*
X101580000Y-109891988D01*
X101589940Y-109909205D01*
X101645795Y-109965060D01*
X101714204Y-110004556D01*
X101790504Y-110025000D01*
X101869496Y-110025000D01*
X101945796Y-110004556D01*
X102014205Y-109965060D01*
X102070060Y-109909205D01*
X102080000Y-109891988D01*
X102080000Y-110694862D01*
X102121689Y-110686570D01*
X102121690Y-110686570D01*
X102303674Y-110611190D01*
X102467460Y-110501753D01*
X102606753Y-110362460D01*
X102716190Y-110198674D01*
X102791570Y-110016690D01*
X102791570Y-110016689D01*
X102830000Y-109823487D01*
X102830000Y-109575000D01*
X102130000Y-109575000D01*
X102130000Y-109075000D01*
X102830000Y-109075000D01*
X102830000Y-108826512D01*
X102791570Y-108633310D01*
X102791570Y-108633309D01*
X102716190Y-108451325D01*
X102606753Y-108287539D01*
X102467460Y-108148246D01*
X102303674Y-108038809D01*
X102121691Y-107963429D01*
X102121682Y-107963426D01*
X102080000Y-107955135D01*
X102080000Y-108758011D01*
X102070060Y-108740795D01*
X102014205Y-108684940D01*
X101945796Y-108645444D01*
X101869496Y-108625000D01*
X101790504Y-108625000D01*
X101714204Y-108645444D01*
X101645795Y-108684940D01*
X101589940Y-108740795D01*
X101580000Y-108758011D01*
X101580000Y-107955135D01*
X101579999Y-107955135D01*
X101538317Y-107963426D01*
X101538308Y-107963429D01*
X101356325Y-108038809D01*
X101226723Y-108125406D01*
X101189940Y-108132722D01*
X101158758Y-108111887D01*
X101150500Y-108084664D01*
X101150500Y-106535335D01*
X101164852Y-106500687D01*
X101199500Y-106486335D01*
X101226723Y-106494593D01*
X101356325Y-106581190D01*
X101538310Y-106656570D01*
X101580000Y-106664862D01*
X101580000Y-105861988D01*
X101589940Y-105879205D01*
X101645795Y-105935060D01*
X101714204Y-105974556D01*
X101790504Y-105995000D01*
X101869496Y-105995000D01*
X101945796Y-105974556D01*
X102014205Y-105935060D01*
X102070060Y-105879205D01*
X102080000Y-105861988D01*
X102080000Y-106664862D01*
X102121689Y-106656570D01*
X102121690Y-106656570D01*
X102303674Y-106581190D01*
X102467460Y-106471753D01*
X102606753Y-106332460D01*
X102716190Y-106168674D01*
X102762405Y-106057101D01*
X102788923Y-106030582D01*
X102826426Y-106030582D01*
X102842323Y-106041204D01*
X102891201Y-106090081D01*
X102906635Y-106105515D01*
X102938666Y-106124008D01*
X103037862Y-106181280D01*
X103037864Y-106181280D01*
X103037865Y-106181281D01*
X103143465Y-106209576D01*
X103184230Y-106220499D01*
X103184231Y-106220500D01*
X103184234Y-106220500D01*
X103335769Y-106220500D01*
X103335769Y-106220499D01*
X103482135Y-106181281D01*
X103613365Y-106105515D01*
X103720515Y-105998365D01*
X103789312Y-105879205D01*
X103796280Y-105867137D01*
X103796280Y-105867136D01*
X103796281Y-105867135D01*
X103835499Y-105720769D01*
X103835500Y-105720769D01*
X103835500Y-105569231D01*
X103835499Y-105569230D01*
X103796281Y-105422866D01*
X103796280Y-105422862D01*
X103727033Y-105302925D01*
X103720515Y-105291635D01*
X103613365Y-105184485D01*
X103482137Y-105108719D01*
X103482133Y-105108718D01*
X103335769Y-105069500D01*
X103335766Y-105069500D01*
X103184234Y-105069500D01*
X103184231Y-105069500D01*
X103037866Y-105108718D01*
X103037862Y-105108719D01*
X102906634Y-105184485D01*
X102906634Y-105184486D01*
X102799486Y-105291634D01*
X102799485Y-105291634D01*
X102753952Y-105370500D01*
X102724199Y-105393330D01*
X102711517Y-105395000D01*
X102130000Y-105395000D01*
X102130000Y-104895000D01*
X102830000Y-104895000D01*
X102830000Y-104496512D01*
X102791570Y-104303310D01*
X102791570Y-104303309D01*
X102716190Y-104121325D01*
X102606753Y-103957539D01*
X102467460Y-103818246D01*
X102303674Y-103708809D01*
X102121691Y-103633429D01*
X102121682Y-103633426D01*
X102080000Y-103625135D01*
X102080000Y-104428011D01*
X102070060Y-104410795D01*
X102014205Y-104354940D01*
X101945796Y-104315444D01*
X101869496Y-104295000D01*
X101790504Y-104295000D01*
X101714204Y-104315444D01*
X101645795Y-104354940D01*
X101589940Y-104410795D01*
X101580000Y-104428011D01*
X101580000Y-103625135D01*
X101579999Y-103625135D01*
X101538317Y-103633426D01*
X101538308Y-103633429D01*
X101356325Y-103708809D01*
X101226723Y-103795406D01*
X101189940Y-103802722D01*
X101158758Y-103781887D01*
X101150500Y-103754664D01*
X101150500Y-97027605D01*
X101164852Y-96992957D01*
X101199500Y-96978605D01*
X101234148Y-96992957D01*
X101244770Y-97008854D01*
X101258637Y-97042333D01*
X101281716Y-97098049D01*
X101309131Y-97145533D01*
X101399725Y-97302447D01*
X101399735Y-97302462D01*
X101543403Y-97489693D01*
X101543413Y-97489705D01*
X101710294Y-97656586D01*
X101710306Y-97656596D01*
X101897537Y-97800264D01*
X101897546Y-97800270D01*
X101897550Y-97800273D01*
X102101951Y-97918284D01*
X102320007Y-98008606D01*
X102320010Y-98008606D01*
X102320013Y-98008608D01*
X102547974Y-98069690D01*
X102547975Y-98069690D01*
X102547986Y-98069693D01*
X102781989Y-98100500D01*
X102781993Y-98100500D01*
X103018007Y-98100500D01*
X103018011Y-98100500D01*
X103252014Y-98069693D01*
X103479993Y-98008606D01*
X103698049Y-97918284D01*
X103902450Y-97800273D01*
X104089699Y-97656592D01*
X104256592Y-97489699D01*
X104400273Y-97302450D01*
X104518284Y-97098049D01*
X104608606Y-96879993D01*
X104636588Y-96775565D01*
X104669690Y-96652025D01*
X104669689Y-96652025D01*
X104669693Y-96652014D01*
X104700500Y-96418011D01*
X104700500Y-96181989D01*
X104669693Y-95947986D01*
X104608606Y-95720007D01*
X104518284Y-95501951D01*
X104400273Y-95297550D01*
X104400270Y-95297546D01*
X104400264Y-95297537D01*
X104256596Y-95110306D01*
X104256586Y-95110294D01*
X104089705Y-94943413D01*
X104089693Y-94943403D01*
X103902462Y-94799735D01*
X103902447Y-94799725D01*
X103698050Y-94681716D01*
X103479996Y-94591395D01*
X103479986Y-94591391D01*
X103252025Y-94530309D01*
X103252018Y-94530308D01*
X103252014Y-94530307D01*
X103018011Y-94499500D01*
X102781989Y-94499500D01*
X102547986Y-94530307D01*
X102547982Y-94530307D01*
X102547974Y-94530309D01*
X102320013Y-94591391D01*
X102320003Y-94591395D01*
X102101949Y-94681716D01*
X101897552Y-94799725D01*
X101897537Y-94799735D01*
X101710306Y-94943403D01*
X101710294Y-94943413D01*
X101543413Y-95110294D01*
X101543403Y-95110306D01*
X101399735Y-95297537D01*
X101399725Y-95297552D01*
X101281716Y-95501949D01*
X101244770Y-95591146D01*
X101218251Y-95617664D01*
X101180748Y-95617664D01*
X101154230Y-95591145D01*
X101150500Y-95572394D01*
X101150500Y-93673856D01*
X101164852Y-93639208D01*
X101199500Y-93624856D01*
X101220767Y-93629712D01*
X101222303Y-93630451D01*
X101222310Y-93630456D01*
X101381941Y-93686313D01*
X101550000Y-93705249D01*
X101718059Y-93686313D01*
X101877690Y-93630456D01*
X102020890Y-93540477D01*
X102096170Y-93465197D01*
X102130818Y-93450845D01*
X102165466Y-93465197D01*
X102172302Y-93473768D01*
X102245182Y-93589755D01*
X102372736Y-93717309D01*
X102372738Y-93717310D01*
X102525471Y-93813280D01*
X102525475Y-93813281D01*
X102525476Y-93813282D01*
X102695743Y-93872861D01*
X102874998Y-93893058D01*
X103054253Y-93872861D01*
X103224520Y-93813282D01*
X103224522Y-93813280D01*
X103224524Y-93813280D01*
X103280594Y-93778048D01*
X103377260Y-93717309D01*
X103504814Y-93589755D01*
X103592097Y-93450845D01*
X103600785Y-93437019D01*
X103600785Y-93437017D01*
X103600787Y-93437015D01*
X103660366Y-93266748D01*
X103668249Y-93196775D01*
X103682292Y-93167616D01*
X104058058Y-92791852D01*
X104092706Y-92777500D01*
X108669785Y-92777500D01*
X108704433Y-92791852D01*
G37*
G04 #@! TD.AperFunction*
G04 #@! TA.AperFunction,Conductor*
G36*
X109761884Y-102920831D02*
G01*
X109772059Y-102937019D01*
X109772321Y-102936894D01*
X109773434Y-102939207D01*
X109773482Y-102939283D01*
X109773511Y-102939367D01*
X109839435Y-103044282D01*
X109863490Y-103082565D01*
X109983077Y-103202152D01*
X110126277Y-103292131D01*
X110285908Y-103347988D01*
X110453967Y-103366924D01*
X110622026Y-103347988D01*
X110657316Y-103335639D01*
X110694760Y-103337741D01*
X110719750Y-103365704D01*
X110722500Y-103381889D01*
X110722500Y-103599910D01*
X110720000Y-103605945D01*
X110720000Y-104428011D01*
X110710060Y-104410795D01*
X110654205Y-104354940D01*
X110585796Y-104315444D01*
X110509496Y-104295000D01*
X110430504Y-104295000D01*
X110354204Y-104315444D01*
X110285795Y-104354940D01*
X110229940Y-104410795D01*
X110220000Y-104428011D01*
X110220000Y-103625135D01*
X110219999Y-103625135D01*
X110178317Y-103633426D01*
X110178308Y-103633429D01*
X109996325Y-103708809D01*
X109832539Y-103818246D01*
X109693246Y-103957539D01*
X109583809Y-104121325D01*
X109508429Y-104303309D01*
X109508429Y-104303310D01*
X109470000Y-104496512D01*
X109470000Y-104895000D01*
X110170000Y-104895000D01*
X110170000Y-105395000D01*
X109588483Y-105395000D01*
X109553835Y-105380648D01*
X109546048Y-105370500D01*
X109507033Y-105302925D01*
X109500515Y-105291635D01*
X109393365Y-105184485D01*
X109262137Y-105108719D01*
X109262133Y-105108718D01*
X109115769Y-105069500D01*
X109115766Y-105069500D01*
X108964234Y-105069500D01*
X108964231Y-105069500D01*
X108817866Y-105108718D01*
X108817862Y-105108719D01*
X108686634Y-105184485D01*
X108686634Y-105184486D01*
X108579487Y-105291632D01*
X108577758Y-105293886D01*
X108545278Y-105312634D01*
X108509053Y-105302925D01*
X108497397Y-105290123D01*
X108490478Y-105279112D01*
X108490477Y-105279110D01*
X108370890Y-105159523D01*
X108227690Y-105069544D01*
X108068059Y-105013687D01*
X108068055Y-105013686D01*
X108068053Y-105013686D01*
X107900000Y-104994751D01*
X107731946Y-105013686D01*
X107731937Y-105013688D01*
X107572310Y-105069544D01*
X107572308Y-105069545D01*
X107429112Y-105159521D01*
X107429108Y-105159524D01*
X107309524Y-105279108D01*
X107309521Y-105279112D01*
X107219545Y-105422308D01*
X107219544Y-105422310D01*
X107163688Y-105581937D01*
X107163686Y-105581946D01*
X107145211Y-105745919D01*
X107144751Y-105750000D01*
X107146383Y-105764483D01*
X107163686Y-105918053D01*
X107163687Y-105918061D01*
X107178373Y-105960033D01*
X107180831Y-105970887D01*
X107181976Y-105981354D01*
X107181978Y-105981369D01*
X107270956Y-106327390D01*
X107272500Y-106339593D01*
X107272500Y-106377808D01*
X107286860Y-106450000D01*
X107296613Y-106499037D01*
X107296615Y-106499043D01*
X107313289Y-106539296D01*
X107313289Y-106576799D01*
X107286771Y-106603318D01*
X107260617Y-106605427D01*
X107260531Y-106606236D01*
X107197879Y-106599500D01*
X107197873Y-106599500D01*
X105707215Y-106599500D01*
X105672567Y-106585148D01*
X105588683Y-106501264D01*
X105579988Y-106489471D01*
X105398314Y-106144940D01*
X105394848Y-106136572D01*
X105279691Y-105764485D01*
X105277500Y-105749998D01*
X105277500Y-105630215D01*
X105291852Y-105595567D01*
X107545567Y-103341852D01*
X107580215Y-103327500D01*
X109087802Y-103327500D01*
X109087805Y-103327500D01*
X109209037Y-103303386D01*
X109308527Y-103262175D01*
X109323235Y-103256083D01*
X109426010Y-103187411D01*
X109513413Y-103100008D01*
X109692590Y-102920830D01*
X109727236Y-102906479D01*
X109761884Y-102920831D01*
G37*
G04 #@! TD.AperFunction*
G04 #@! TA.AperFunction,Conductor*
G36*
X119888148Y-100189552D02*
G01*
X121858148Y-102159552D01*
X121872500Y-102194200D01*
X121872500Y-103431361D01*
X121858148Y-103466009D01*
X121823500Y-103480361D01*
X121788852Y-103466009D01*
X121777250Y-103447545D01*
X121749039Y-103366923D01*
X121725789Y-103300478D01*
X121725788Y-103300477D01*
X121725787Y-103300473D01*
X121629817Y-103147740D01*
X121629816Y-103147738D01*
X121502262Y-103020184D01*
X121502259Y-103020182D01*
X121349526Y-102924212D01*
X121179258Y-102864633D01*
X121179257Y-102864632D01*
X121179255Y-102864632D01*
X121179251Y-102864631D01*
X121179249Y-102864631D01*
X121000000Y-102844435D01*
X120820750Y-102864631D01*
X120820741Y-102864633D01*
X120650473Y-102924212D01*
X120497740Y-103020182D01*
X120497736Y-103020185D01*
X120370185Y-103147736D01*
X120347973Y-103183085D01*
X120317386Y-103204786D01*
X120280413Y-103198503D01*
X120261214Y-103175765D01*
X120229834Y-103100008D01*
X120226465Y-103091873D01*
X120155276Y-102985331D01*
X120064669Y-102894724D01*
X119958127Y-102823535D01*
X119923054Y-102809007D01*
X119839742Y-102774498D01*
X119839737Y-102774497D01*
X119714072Y-102749500D01*
X119714069Y-102749500D01*
X119585931Y-102749500D01*
X119585927Y-102749500D01*
X119460262Y-102774497D01*
X119460257Y-102774498D01*
X119341874Y-102823534D01*
X119235331Y-102894723D01*
X119144723Y-102985331D01*
X119073534Y-103091874D01*
X119024498Y-103210257D01*
X119024497Y-103210262D01*
X118999500Y-103335927D01*
X118999500Y-103464072D01*
X119024497Y-103589737D01*
X119024498Y-103589742D01*
X119024499Y-103589744D01*
X119073535Y-103708127D01*
X119144724Y-103814669D01*
X119235331Y-103905276D01*
X119341873Y-103976465D01*
X119460256Y-104025501D01*
X119585931Y-104050500D01*
X119714069Y-104050500D01*
X119839744Y-104025501D01*
X119958127Y-103976465D01*
X120064669Y-103905276D01*
X120140324Y-103829620D01*
X120174971Y-103815269D01*
X120209619Y-103829621D01*
X120221221Y-103848085D01*
X120274212Y-103999526D01*
X120364989Y-104143994D01*
X120372500Y-104170064D01*
X120372500Y-104814784D01*
X120358148Y-104849432D01*
X119508845Y-105698734D01*
X119474197Y-105713086D01*
X119465193Y-105712252D01*
X119396976Y-105699500D01*
X119193024Y-105699500D01*
X118992544Y-105736976D01*
X118992540Y-105736977D01*
X118992537Y-105736978D01*
X118802366Y-105810650D01*
X118628957Y-105918020D01*
X118578011Y-105964463D01*
X118542736Y-105977199D01*
X118511989Y-105964463D01*
X118461043Y-105918020D01*
X118445703Y-105908522D01*
X118423801Y-105878079D01*
X118422500Y-105866862D01*
X118422500Y-102090764D01*
X118423014Y-102083686D01*
X118425891Y-102063977D01*
X118445097Y-102031765D01*
X118481455Y-102022569D01*
X118496438Y-102028092D01*
X118496690Y-102027570D01*
X118499164Y-102028760D01*
X118499171Y-102028765D01*
X118658802Y-102084622D01*
X118826861Y-102103558D01*
X118994920Y-102084622D01*
X119154551Y-102028765D01*
X119297751Y-101938786D01*
X119417338Y-101819199D01*
X119507317Y-101675999D01*
X119563174Y-101516368D01*
X119563406Y-101514306D01*
X119577448Y-101485140D01*
X119664411Y-101398178D01*
X119733083Y-101295403D01*
X119780385Y-101181205D01*
X119804500Y-101059973D01*
X119804500Y-100936367D01*
X119804500Y-100224200D01*
X119818852Y-100189552D01*
X119853500Y-100175200D01*
X119888148Y-100189552D01*
G37*
G04 #@! TD.AperFunction*
G04 #@! TA.AperFunction,Conductor*
G36*
X124573644Y-89857584D02*
G01*
X124573980Y-89857607D01*
X124577000Y-89857607D01*
X124577004Y-89857608D01*
X124640144Y-89857607D01*
X124645630Y-89857914D01*
X124748562Y-89869512D01*
X124759257Y-89871953D01*
X124854407Y-89905247D01*
X124864292Y-89910007D01*
X124943020Y-89959475D01*
X124949654Y-89963643D01*
X124958233Y-89970485D01*
X125029514Y-90041766D01*
X125036356Y-90050345D01*
X125089992Y-90135707D01*
X125094752Y-90145593D01*
X125128045Y-90240741D01*
X125130487Y-90251438D01*
X125142084Y-90354368D01*
X125142392Y-90359854D01*
X125142392Y-90425963D01*
X125142416Y-90426334D01*
X125145159Y-98373033D01*
X125130819Y-98407686D01*
X125096176Y-98422050D01*
X125079977Y-98419301D01*
X125063987Y-98413706D01*
X125063983Y-98413705D01*
X125063981Y-98413705D01*
X124895928Y-98394770D01*
X124735792Y-98412813D01*
X124699755Y-98402431D01*
X124687094Y-98387221D01*
X124635910Y-98291462D01*
X124635907Y-98291458D01*
X124635905Y-98291455D01*
X124582537Y-98226427D01*
X124510883Y-98139117D01*
X124426290Y-98069693D01*
X124358544Y-98014094D01*
X124358541Y-98014092D01*
X124358539Y-98014091D01*
X124358538Y-98014090D01*
X124199842Y-97929265D01*
X124184726Y-97921185D01*
X123996132Y-97863976D01*
X123800000Y-97844659D01*
X123603867Y-97863976D01*
X123603866Y-97863976D01*
X123415273Y-97921185D01*
X123241458Y-98014092D01*
X123241455Y-98014094D01*
X123089117Y-98139117D01*
X122964091Y-98291458D01*
X122903221Y-98405337D01*
X122886077Y-98423727D01*
X122829112Y-98459521D01*
X122829108Y-98459524D01*
X122709524Y-98579108D01*
X122709521Y-98579112D01*
X122619545Y-98722308D01*
X122619544Y-98722310D01*
X122563688Y-98881937D01*
X122563686Y-98881946D01*
X122544751Y-99050000D01*
X122561339Y-99197227D01*
X122563687Y-99218059D01*
X122619544Y-99377690D01*
X122709523Y-99520890D01*
X122829110Y-99640477D01*
X122972310Y-99730456D01*
X123131941Y-99786313D01*
X123300000Y-99805249D01*
X123437554Y-99789749D01*
X123457262Y-99791550D01*
X123603868Y-99836024D01*
X123800000Y-99855341D01*
X123996132Y-99836024D01*
X124184727Y-99778814D01*
X124196328Y-99772612D01*
X124233650Y-99768935D01*
X124262641Y-99792726D01*
X124268428Y-99815826D01*
X124268428Y-101773857D01*
X124254076Y-101808505D01*
X123665148Y-102397433D01*
X123630500Y-102411785D01*
X123595852Y-102397433D01*
X123581500Y-102362785D01*
X123581500Y-101142196D01*
X123575455Y-101111802D01*
X123575455Y-101111801D01*
X123557388Y-101020974D01*
X123557387Y-101020973D01*
X123557386Y-101020964D01*
X123522344Y-100936367D01*
X123521056Y-100933258D01*
X123510618Y-100908057D01*
X123510083Y-100906765D01*
X123441411Y-100803990D01*
X123354008Y-100716587D01*
X121374001Y-98736580D01*
X121352644Y-98722310D01*
X121344645Y-98716965D01*
X121271226Y-98667908D01*
X121271223Y-98667906D01*
X121271222Y-98667906D01*
X121224863Y-98648704D01*
X121190623Y-98634521D01*
X121157028Y-98620605D01*
X121047844Y-98598887D01*
X121031336Y-98592318D01*
X120953702Y-98543536D01*
X120794070Y-98487679D01*
X120794069Y-98487678D01*
X120794067Y-98487678D01*
X120794065Y-98487677D01*
X120794055Y-98487675D01*
X120791991Y-98487443D01*
X120762836Y-98473400D01*
X120741852Y-98452416D01*
X120727500Y-98417768D01*
X120727500Y-94299499D01*
X120741852Y-94264851D01*
X120776500Y-94250499D01*
X121147878Y-94250499D01*
X121207478Y-94244092D01*
X121207479Y-94244091D01*
X121207483Y-94244091D01*
X121342331Y-94193796D01*
X121457546Y-94107546D01*
X121543796Y-93992331D01*
X121579089Y-93897703D01*
X121604644Y-93870256D01*
X121642124Y-93868917D01*
X121669572Y-93894472D01*
X121670905Y-93897690D01*
X121688612Y-93945164D01*
X121706205Y-93992333D01*
X121740627Y-94038314D01*
X121792454Y-94107546D01*
X121907669Y-94193796D01*
X122002292Y-94229088D01*
X122002295Y-94229089D01*
X122029743Y-94254645D01*
X122031082Y-94292124D01*
X122005526Y-94319572D01*
X122002295Y-94320911D01*
X121907666Y-94356205D01*
X121792454Y-94442454D01*
X121706205Y-94557666D01*
X121655907Y-94692520D01*
X121649500Y-94752120D01*
X121649500Y-96371266D01*
X121646750Y-96387449D01*
X121613689Y-96481934D01*
X121613686Y-96481946D01*
X121594751Y-96650000D01*
X121613686Y-96818053D01*
X121613688Y-96818062D01*
X121669543Y-96977687D01*
X121669546Y-96977694D01*
X121697756Y-97022591D01*
X121702175Y-97031532D01*
X121706203Y-97042331D01*
X121729636Y-97073632D01*
X121731896Y-97076923D01*
X121749487Y-97104919D01*
X121759521Y-97120887D01*
X121759524Y-97120891D01*
X121778882Y-97140249D01*
X121783460Y-97145531D01*
X121792454Y-97157546D01*
X121804466Y-97166538D01*
X121809749Y-97171116D01*
X121879110Y-97240477D01*
X122022310Y-97330456D01*
X122181941Y-97386313D01*
X122350000Y-97405249D01*
X122518059Y-97386313D01*
X122677690Y-97330456D01*
X122713411Y-97308010D01*
X122739481Y-97300499D01*
X124197878Y-97300499D01*
X124257478Y-97294092D01*
X124257479Y-97294091D01*
X124257483Y-97294091D01*
X124392331Y-97243796D01*
X124507546Y-97157546D01*
X124593796Y-97042331D01*
X124644091Y-96907483D01*
X124644091Y-96907481D01*
X124644092Y-96907479D01*
X124650499Y-96847879D01*
X124650500Y-96847873D01*
X124650499Y-94752128D01*
X124650499Y-94752127D01*
X124650499Y-94752120D01*
X124644092Y-94692521D01*
X124640062Y-94681716D01*
X124593796Y-94557669D01*
X124585299Y-94546319D01*
X124573313Y-94530307D01*
X124507546Y-94442454D01*
X124449938Y-94399329D01*
X124392332Y-94356204D01*
X124392328Y-94356202D01*
X124297704Y-94320909D01*
X124270256Y-94295354D01*
X124268918Y-94257875D01*
X124294473Y-94230427D01*
X124297676Y-94229099D01*
X124392331Y-94193796D01*
X124507546Y-94107546D01*
X124593796Y-93992331D01*
X124644091Y-93857483D01*
X124644091Y-93857481D01*
X124644092Y-93857479D01*
X124648843Y-93813282D01*
X124650500Y-93797873D01*
X124650499Y-91702128D01*
X124650499Y-91702127D01*
X124650499Y-91702120D01*
X124644092Y-91642521D01*
X124644091Y-91642517D01*
X124593796Y-91507669D01*
X124507546Y-91392454D01*
X124438314Y-91340627D01*
X124392333Y-91306205D01*
X124392331Y-91306204D01*
X124347381Y-91289439D01*
X124257479Y-91255907D01*
X124197879Y-91249500D01*
X122102120Y-91249500D01*
X122042521Y-91255907D01*
X121907666Y-91306205D01*
X121792454Y-91392454D01*
X121706204Y-91507667D01*
X121706202Y-91507671D01*
X121670909Y-91602295D01*
X121645354Y-91629743D01*
X121607875Y-91631081D01*
X121580427Y-91605526D01*
X121579096Y-91602313D01*
X121543796Y-91507669D01*
X121457546Y-91392454D01*
X121388314Y-91340627D01*
X121342333Y-91306205D01*
X121342331Y-91306204D01*
X121297381Y-91289439D01*
X121207479Y-91255907D01*
X121147879Y-91249500D01*
X119052120Y-91249500D01*
X118992521Y-91255907D01*
X118857666Y-91306205D01*
X118742454Y-91392454D01*
X118656204Y-91507667D01*
X118656202Y-91507671D01*
X118620909Y-91602295D01*
X118595354Y-91629743D01*
X118557875Y-91631081D01*
X118530427Y-91605526D01*
X118529096Y-91602313D01*
X118493796Y-91507669D01*
X118407546Y-91392454D01*
X118338314Y-91340627D01*
X118292333Y-91306205D01*
X118292331Y-91306204D01*
X118247381Y-91289439D01*
X118157479Y-91255907D01*
X118097879Y-91249500D01*
X116002120Y-91249500D01*
X115942521Y-91255907D01*
X115807666Y-91306205D01*
X115692454Y-91392454D01*
X115606205Y-91507666D01*
X115555907Y-91642520D01*
X115549500Y-91702120D01*
X115549500Y-93797879D01*
X115555908Y-93857479D01*
X115555908Y-93857481D01*
X115555909Y-93857483D01*
X115564076Y-93879380D01*
X115588611Y-93945164D01*
X115587272Y-93982643D01*
X115577348Y-93996935D01*
X114406771Y-95167513D01*
X114377619Y-95181556D01*
X114375551Y-95181789D01*
X114375538Y-95181792D01*
X114215911Y-95237648D01*
X114215909Y-95237649D01*
X114072713Y-95327625D01*
X114072709Y-95327628D01*
X113953125Y-95447212D01*
X113953122Y-95447216D01*
X113863146Y-95590412D01*
X113863145Y-95590414D01*
X113862889Y-95591146D01*
X113853826Y-95617046D01*
X113828835Y-95645009D01*
X113791391Y-95647111D01*
X113772928Y-95635509D01*
X112441852Y-94304433D01*
X112427500Y-94269785D01*
X112427500Y-91388197D01*
X112427499Y-91388193D01*
X112408761Y-91293993D01*
X112403385Y-91266965D01*
X112356083Y-91152767D01*
X112287411Y-91049992D01*
X112200008Y-90962589D01*
X111174521Y-89937102D01*
X111160169Y-89902454D01*
X111174521Y-89867806D01*
X111209167Y-89853454D01*
X124573644Y-89857584D01*
G37*
G04 #@! TD.AperFunction*
G04 #@! TA.AperFunction,Conductor*
G36*
X105937904Y-100340351D02*
G01*
X105952256Y-100374999D01*
X105937904Y-100409647D01*
X105913855Y-100433695D01*
X105919000Y-100414496D01*
X105919000Y-100335504D01*
X105913854Y-100316302D01*
X105937904Y-100340351D01*
G37*
G04 #@! TD.AperFunction*
G04 #@! TA.AperFunction,Conductor*
G36*
X110341215Y-107320744D02*
G01*
X110348373Y-107326122D01*
X110350000Y-107332074D01*
X110350000Y-107567931D01*
X110346573Y-107576204D01*
X110341214Y-107579262D01*
X109955471Y-107678452D01*
X109946605Y-107677194D01*
X109941764Y-107671638D01*
X109927568Y-107637720D01*
X109850889Y-107454518D01*
X109850857Y-107445566D01*
X109941764Y-107228366D01*
X109948120Y-107222058D01*
X109955471Y-107221553D01*
X110341215Y-107320744D01*
G37*
G04 #@! TD.AperFunction*
G04 #@! TA.AperFunction,Conductor*
G36*
X117679240Y-98850343D02*
G01*
X117679455Y-98850558D01*
X117679786Y-98850903D01*
X117969196Y-99164996D01*
X117972282Y-99173402D01*
X117968898Y-99181164D01*
X117804153Y-99347233D01*
X117795894Y-99350693D01*
X117795814Y-99350693D01*
X117559779Y-99350027D01*
X117551516Y-99346577D01*
X117548292Y-99340370D01*
X117492780Y-99027323D01*
X117494709Y-99018580D01*
X117496021Y-99017015D01*
X117662694Y-98850343D01*
X117670967Y-98846916D01*
X117679240Y-98850343D01*
G37*
G04 #@! TD.AperFunction*
G04 #@! TA.AperFunction,Conductor*
G36*
X110890085Y-106625479D02*
G01*
X110898273Y-106628906D01*
X111064648Y-106795281D01*
X111068075Y-106803554D01*
X111064648Y-106811827D01*
X111063108Y-106813123D01*
X110734791Y-107044140D01*
X110726053Y-107046098D01*
X110719819Y-107042877D01*
X110552765Y-106877154D01*
X110549306Y-106868898D01*
X110549966Y-106634752D01*
X110553416Y-106626492D01*
X110561698Y-106623088D01*
X110890085Y-106625479D01*
G37*
G04 #@! TD.AperFunction*
G04 #@! TA.AperFunction,Conductor*
G36*
X118399593Y-98926201D02*
G01*
X118766467Y-99215104D01*
X118770847Y-99222915D01*
X118768421Y-99231534D01*
X118767535Y-99232536D01*
X118602379Y-99399021D01*
X118598510Y-99401607D01*
X118379979Y-99491182D01*
X118371025Y-99491149D01*
X118364716Y-99484793D01*
X118364666Y-99484670D01*
X118264647Y-99232536D01*
X118214660Y-99106524D01*
X118214795Y-99097572D01*
X118217260Y-99093942D01*
X118384083Y-98927119D01*
X118392355Y-98923693D01*
X118399593Y-98926201D01*
G37*
G04 #@! TD.AperFunction*
G04 #@! TA.AperFunction,Conductor*
G36*
X116387717Y-99427568D02*
G01*
X116421635Y-99441764D01*
X116427944Y-99448120D01*
X116428449Y-99455471D01*
X116329259Y-99841214D01*
X116323880Y-99848373D01*
X116317928Y-99850000D01*
X116082072Y-99850000D01*
X116073799Y-99846573D01*
X116070741Y-99841214D01*
X115971550Y-99455471D01*
X115972808Y-99446605D01*
X115978363Y-99441764D01*
X116195484Y-99350889D01*
X116204437Y-99350857D01*
X116387717Y-99427568D01*
G37*
G04 #@! TD.AperFunction*
G04 #@! TA.AperFunction,Conductor*
G36*
X117417058Y-101161259D02*
G01*
X117759959Y-101363882D01*
X117765338Y-101371041D01*
X117764833Y-101378392D01*
X117675564Y-101596175D01*
X117669255Y-101602531D01*
X117669175Y-101602564D01*
X117451392Y-101691833D01*
X117442438Y-101691800D01*
X117436882Y-101686959D01*
X117234259Y-101344058D01*
X117233001Y-101335192D01*
X117236057Y-101329835D01*
X117402834Y-101163058D01*
X117411106Y-101159632D01*
X117417058Y-101161259D01*
G37*
G04 #@! TD.AperFunction*
G04 #@! TA.AperFunction,Conductor*
G36*
X108990560Y-96692033D02*
G01*
X109157966Y-96859439D01*
X109161393Y-96867712D01*
X109160042Y-96873169D01*
X108932122Y-97305400D01*
X108925232Y-97311120D01*
X108917329Y-97310766D01*
X108653815Y-97202563D01*
X108647463Y-97196251D01*
X108647436Y-97196184D01*
X108539233Y-96932670D01*
X108539260Y-96923715D01*
X108544599Y-96917877D01*
X108976832Y-96689956D01*
X108985746Y-96689129D01*
X108990560Y-96692033D01*
G37*
G04 #@! TD.AperFunction*
G04 #@! TA.AperFunction,Conductor*
G36*
X104776647Y-105853427D02*
G01*
X104779551Y-105858241D01*
X104924020Y-106325038D01*
X104923192Y-106333954D01*
X104917354Y-106339293D01*
X104654511Y-106449115D01*
X104645556Y-106449142D01*
X104645489Y-106449115D01*
X104382645Y-106339293D01*
X104376333Y-106332941D01*
X104375979Y-106325039D01*
X104520449Y-105858240D01*
X104526169Y-105851351D01*
X104531626Y-105850000D01*
X104768374Y-105850000D01*
X104776647Y-105853427D01*
G37*
G04 #@! TD.AperFunction*
G04 #@! TA.AperFunction,Conductor*
G36*
X104926284Y-106339260D02*
G01*
X104932122Y-106344599D01*
X105160042Y-106776830D01*
X105160870Y-106785746D01*
X105157966Y-106790560D01*
X104990560Y-106957966D01*
X104982287Y-106961393D01*
X104976830Y-106960042D01*
X104544599Y-106732122D01*
X104538879Y-106725232D01*
X104539233Y-106717329D01*
X104647436Y-106453815D01*
X104653746Y-106447464D01*
X104917329Y-106339233D01*
X104926284Y-106339260D01*
G37*
G04 #@! TD.AperFunction*
G04 #@! TA.AperFunction,Conductor*
G36*
X108926284Y-97089260D02*
G01*
X108932122Y-97094599D01*
X109160042Y-97526830D01*
X109160870Y-97535746D01*
X109157966Y-97540560D01*
X108990560Y-97707966D01*
X108982287Y-97711393D01*
X108976830Y-97710042D01*
X108544599Y-97482122D01*
X108538879Y-97475232D01*
X108539233Y-97467329D01*
X108647436Y-97203815D01*
X108653746Y-97197464D01*
X108917329Y-97089233D01*
X108926284Y-97089260D01*
G37*
G04 #@! TD.AperFunction*
G04 #@! TA.AperFunction,Conductor*
G36*
X117911321Y-101599953D02*
G01*
X117919580Y-101603413D01*
X117922974Y-101611678D01*
X117922025Y-102051703D01*
X117918580Y-102059969D01*
X117910325Y-102063378D01*
X117674543Y-102063378D01*
X117666270Y-102059951D01*
X117664575Y-102057804D01*
X117449184Y-101707313D01*
X117447772Y-101698470D01*
X117453026Y-101691219D01*
X117454621Y-101690400D01*
X117670812Y-101599915D01*
X117675371Y-101599009D01*
X117911321Y-101599953D01*
G37*
G04 #@! TD.AperFunction*
G04 #@! TA.AperFunction,Conductor*
G36*
X108087717Y-105827568D02*
G01*
X108121635Y-105841764D01*
X108127944Y-105848120D01*
X108128449Y-105855471D01*
X108029259Y-106241214D01*
X108023880Y-106248373D01*
X108017928Y-106250000D01*
X107782072Y-106250000D01*
X107773799Y-106246573D01*
X107770741Y-106241214D01*
X107671550Y-105855471D01*
X107672808Y-105846605D01*
X107678363Y-105841764D01*
X107895484Y-105750889D01*
X107904437Y-105750857D01*
X108087717Y-105827568D01*
G37*
G04 #@! TD.AperFunction*
G04 #@! TA.AperFunction,Conductor*
G36*
X105455561Y-93783199D02*
G01*
X105461117Y-93788040D01*
X105663740Y-94130941D01*
X105664998Y-94139807D01*
X105661940Y-94145166D01*
X105495166Y-94311940D01*
X105486893Y-94315367D01*
X105480941Y-94313740D01*
X105138040Y-94111117D01*
X105132661Y-94103958D01*
X105133165Y-94096609D01*
X105222436Y-93878822D01*
X105228743Y-93872468D01*
X105446609Y-93783166D01*
X105455561Y-93783199D01*
G37*
G04 #@! TD.AperFunction*
G04 #@! TA.AperFunction,Conductor*
G36*
X106405561Y-99133199D02*
G01*
X106411117Y-99138040D01*
X106613740Y-99480941D01*
X106614998Y-99489807D01*
X106611940Y-99495166D01*
X106445166Y-99661940D01*
X106436893Y-99665367D01*
X106430941Y-99663740D01*
X106088040Y-99461117D01*
X106082661Y-99453958D01*
X106083165Y-99446609D01*
X106172436Y-99228822D01*
X106178743Y-99222468D01*
X106396609Y-99133166D01*
X106405561Y-99133199D01*
G37*
G04 #@! TD.AperFunction*
G04 #@! TA.AperFunction,Conductor*
G36*
X108663394Y-101895808D02*
G01*
X108668235Y-101901364D01*
X108759109Y-102118483D01*
X108759142Y-102127437D01*
X108759109Y-102127517D01*
X108668235Y-102344635D01*
X108661879Y-102350944D01*
X108654528Y-102351449D01*
X108268786Y-102252259D01*
X108261627Y-102246880D01*
X108260000Y-102240928D01*
X108260000Y-102005071D01*
X108263427Y-101996798D01*
X108268783Y-101993741D01*
X108654528Y-101894550D01*
X108663394Y-101895808D01*
G37*
G04 #@! TD.AperFunction*
G04 #@! TA.AperFunction,Conductor*
G36*
X105979318Y-98860679D02*
G01*
X105994077Y-98867434D01*
X106260429Y-98989342D01*
X106266526Y-98995901D01*
X106266376Y-99004442D01*
X106176861Y-99221486D01*
X106170539Y-99227828D01*
X106170482Y-99227851D01*
X105954244Y-99316484D01*
X105945290Y-99316451D01*
X105939258Y-99310716D01*
X105731034Y-98876376D01*
X105730547Y-98867434D01*
X105736526Y-98860768D01*
X105741584Y-98859618D01*
X105974449Y-98859618D01*
X105979318Y-98860679D01*
G37*
G04 #@! TD.AperFunction*
G04 #@! TA.AperFunction,Conductor*
G36*
X110835307Y-91830315D02*
G01*
X111097815Y-91938103D01*
X111101663Y-91940671D01*
X111302212Y-92142165D01*
X111305619Y-92150447D01*
X111302173Y-92158712D01*
X111300527Y-92160074D01*
X110929988Y-92413691D01*
X110923380Y-92415736D01*
X110688040Y-92415736D01*
X110679767Y-92412309D01*
X110676340Y-92404036D01*
X110676699Y-92401159D01*
X110742412Y-92142165D01*
X110819521Y-91838259D01*
X110824877Y-91831084D01*
X110833738Y-91829797D01*
X110835307Y-91830315D01*
G37*
G04 #@! TD.AperFunction*
G04 #@! TA.AperFunction,Conductor*
G36*
X110580168Y-102115102D02*
G01*
X110583226Y-102120461D01*
X110682416Y-102506203D01*
X110681158Y-102515069D01*
X110675602Y-102519910D01*
X110458484Y-102610784D01*
X110449530Y-102610817D01*
X110449450Y-102610784D01*
X110232331Y-102519910D01*
X110226022Y-102513554D01*
X110225517Y-102506203D01*
X110324708Y-102120461D01*
X110330087Y-102113302D01*
X110336039Y-102111675D01*
X110571895Y-102111675D01*
X110580168Y-102115102D01*
G37*
G04 #@! TD.AperFunction*
G04 #@! TA.AperFunction,Conductor*
G36*
X112189719Y-97675106D02*
G01*
X112223637Y-97689302D01*
X112229946Y-97695658D01*
X112230451Y-97703009D01*
X112131261Y-98088752D01*
X112125882Y-98095911D01*
X112119930Y-98097538D01*
X111884074Y-98097538D01*
X111875801Y-98094111D01*
X111872743Y-98088752D01*
X111773552Y-97703009D01*
X111774810Y-97694143D01*
X111780365Y-97689302D01*
X111997486Y-97598427D01*
X112006439Y-97598395D01*
X112189719Y-97675106D01*
G37*
G04 #@! TD.AperFunction*
G04 #@! TA.AperFunction,Conductor*
G36*
X110919586Y-99387218D02*
G01*
X110923013Y-99395491D01*
X110922527Y-99398827D01*
X110757853Y-99952403D01*
X110752210Y-99959356D01*
X110743303Y-99960281D01*
X110742195Y-99959890D01*
X110481510Y-99852852D01*
X110475160Y-99846542D01*
X110366015Y-99582091D01*
X110366026Y-99573137D01*
X110370749Y-99567633D01*
X110670198Y-99385494D01*
X110676278Y-99383791D01*
X110911313Y-99383791D01*
X110919586Y-99387218D01*
G37*
G04 #@! TD.AperFunction*
M02*
