%TF.GenerationSoftware,KiCad,Pcbnew,8.0.2*%
%TF.CreationDate,2024-11-03T01:21:11-07:00*%
%TF.ProjectId,uSlime,75536c69-6d65-42e6-9b69-6361645f7063,rev?*%
%TF.SameCoordinates,Original*%
%TF.FileFunction,Drillmap*%
%TF.FilePolarity,Positive*%
%FSLAX45Y45*%
G04 Gerber Fmt 4.5, Leading zero omitted, Abs format (unit mm)*
G04 Created by KiCad (PCBNEW 8.0.2) date 2024-11-03 01:21:11*
%MOMM*%
%LPD*%
G01*
G04 APERTURE LIST*
%ADD10C,0.050000*%
%ADD11C,0.200000*%
%ADD12C,0.100000*%
G04 APERTURE END LIST*
D10*
X12464289Y-8935711D02*
X10165000Y-8935000D01*
X10165000Y-11195000D02*
X12465000Y-11195000D01*
X12565000Y-11095000D02*
X12564289Y-9035711D01*
X10065000Y-9035000D02*
G75*
G02*
X10165000Y-8935000I100000J0D01*
G01*
X10065000Y-9035000D02*
X10065000Y-11095000D01*
X10165000Y-11195000D02*
G75*
G02*
X10065000Y-11095000I0J100000D01*
G01*
X12464289Y-8935711D02*
G75*
G02*
X12564289Y-9035711I1J-99999D01*
G01*
X12565000Y-11095000D02*
G75*
G02*
X12465000Y-11195000I-100000J0D01*
G01*
D11*
D12*
X10507500Y-9372500D02*
X10537500Y-9402500D01*
X10537500Y-9372500D02*
X10507500Y-9402500D01*
X10602500Y-9907500D02*
X10632500Y-9937500D01*
X10632500Y-9907500D02*
X10602500Y-9937500D01*
X10775000Y-10560000D02*
X10805000Y-10590000D01*
X10805000Y-10560000D02*
X10775000Y-10590000D01*
X10861000Y-10197300D02*
X10891000Y-10227300D01*
X10891000Y-10197300D02*
X10861000Y-10227300D01*
X10970000Y-10730000D02*
X11000000Y-10760000D01*
X11000000Y-10730000D02*
X10970000Y-10760000D01*
X11029633Y-10150000D02*
X11059633Y-10180000D01*
X11059633Y-10150000D02*
X11029633Y-10180000D01*
X11040000Y-10672300D02*
X11070000Y-10702300D01*
X11070000Y-10672300D02*
X11040000Y-10702300D01*
X11095000Y-9360000D02*
X11125000Y-9390000D01*
X11125000Y-9360000D02*
X11095000Y-9390000D01*
X11096363Y-10783276D02*
X11126363Y-10813276D01*
X11126363Y-10783276D02*
X11096363Y-10813276D01*
X11115114Y-9427048D02*
X11145114Y-9457048D01*
X11145114Y-9427048D02*
X11115114Y-9457048D01*
X11315979Y-10336517D02*
X11345979Y-10366517D01*
X11345979Y-10336517D02*
X11315979Y-10366517D01*
X11358022Y-10645439D02*
X11388022Y-10675439D01*
X11388022Y-10645439D02*
X11358022Y-10675439D01*
X11361700Y-9740000D02*
X11391700Y-9770000D01*
X11391700Y-9740000D02*
X11361700Y-9770000D01*
X11365000Y-9665000D02*
X11395000Y-9695000D01*
X11395000Y-9665000D02*
X11365000Y-9695000D01*
X11365446Y-11065000D02*
X11395446Y-11095000D01*
X11395446Y-11065000D02*
X11365446Y-11095000D01*
X11442300Y-10295000D02*
X11472300Y-10325000D01*
X11472300Y-10295000D02*
X11442300Y-10325000D01*
X11445000Y-9900000D02*
X11475000Y-9930000D01*
X11475000Y-9900000D02*
X11445000Y-9930000D01*
X11596284Y-10327607D02*
X11626284Y-10357607D01*
X11626284Y-10327607D02*
X11596284Y-10357607D01*
X11602467Y-10568267D02*
X11632467Y-10598267D01*
X11632467Y-10568267D02*
X11602467Y-10598267D01*
X11605000Y-9896422D02*
X11635000Y-9926422D01*
X11635000Y-9896422D02*
X11605000Y-9926422D01*
X11752300Y-10145000D02*
X11782300Y-10175000D01*
X11782300Y-10145000D02*
X11752300Y-10175000D01*
X11765000Y-9920000D02*
X11795000Y-9950000D01*
X11795000Y-9920000D02*
X11765000Y-9950000D01*
X11845000Y-9925000D02*
X11875000Y-9955000D01*
X11875000Y-9925000D02*
X11845000Y-9955000D01*
X11867686Y-10119831D02*
X11897686Y-10149831D01*
X11897686Y-10119831D02*
X11867686Y-10149831D01*
X11995000Y-9145000D02*
X12025000Y-9175000D01*
X12025000Y-9145000D02*
X11995000Y-9175000D01*
X12012700Y-9919300D02*
X12042700Y-9949300D01*
X12042700Y-9919300D02*
X12012700Y-9949300D01*
X12187481Y-9904006D02*
X12217481Y-9934006D01*
X12217481Y-9904006D02*
X12187481Y-9934006D01*
X12225041Y-9844936D02*
X12255041Y-9874936D01*
X12255041Y-9844936D02*
X12225041Y-9874936D01*
X12264000Y-9710000D02*
X12294000Y-9740000D01*
X12294000Y-9710000D02*
X12264000Y-9740000D01*
X12274597Y-10369597D02*
X12304597Y-10399597D01*
X12304597Y-10369597D02*
X12274597Y-10399597D01*
X12300000Y-9265000D02*
X12330000Y-9295000D01*
X12330000Y-9265000D02*
X12300000Y-9295000D01*
X12300000Y-9565000D02*
X12330000Y-9595000D01*
X12330000Y-9565000D02*
X12300000Y-9595000D01*
X12312986Y-9840587D02*
X12342986Y-9870587D01*
X12342986Y-9840587D02*
X12312986Y-9870587D01*
X12365000Y-10815400D02*
X12395000Y-10845400D01*
X12395000Y-10815400D02*
X12365000Y-10845400D01*
X12455000Y-10565000D02*
X12485000Y-10595000D01*
X12485000Y-10565000D02*
X12455000Y-10595000D01*
X10485000Y-10645000D02*
G75*
G02*
X10445000Y-10645000I-20000J0D01*
G01*
X10445000Y-10645000D02*
G75*
G02*
X10485000Y-10645000I20000J0D01*
G01*
X10825000Y-9625000D02*
G75*
G02*
X10785000Y-9625000I-20000J0D01*
G01*
X10785000Y-9625000D02*
G75*
G02*
X10825000Y-9625000I20000J0D01*
G01*
X10885000Y-9720000D02*
G75*
G02*
X10845000Y-9720000I-20000J0D01*
G01*
X10845000Y-9720000D02*
G75*
G02*
X10885000Y-9720000I20000J0D01*
G01*
X10942300Y-9995000D02*
G75*
G02*
X10902300Y-9995000I-20000J0D01*
G01*
X10902300Y-9995000D02*
G75*
G02*
X10942300Y-9995000I20000J0D01*
G01*
X11100000Y-9985000D02*
G75*
G02*
X11060000Y-9985000I-20000J0D01*
G01*
X11060000Y-9985000D02*
G75*
G02*
X11100000Y-9985000I20000J0D01*
G01*
X11405000Y-9585000D02*
G75*
G02*
X11365000Y-9585000I-20000J0D01*
G01*
X11365000Y-9585000D02*
G75*
G02*
X11405000Y-9585000I20000J0D01*
G01*
X11420000Y-9195000D02*
G75*
G02*
X11380000Y-9195000I-20000J0D01*
G01*
X11380000Y-9195000D02*
G75*
G02*
X11420000Y-9195000I20000J0D01*
G01*
X11740000Y-10935000D02*
G75*
G02*
X11700000Y-10935000I-20000J0D01*
G01*
X11700000Y-10935000D02*
G75*
G02*
X11740000Y-10935000I20000J0D01*
G01*
X11965000Y-10865000D02*
G75*
G02*
X11925000Y-10865000I-20000J0D01*
G01*
X11925000Y-10865000D02*
G75*
G02*
X11965000Y-10865000I20000J0D01*
G01*
X11985000Y-10500000D02*
G75*
G02*
X11945000Y-10500000I-20000J0D01*
G01*
X11945000Y-10500000D02*
G75*
G02*
X11985000Y-10500000I20000J0D01*
G01*
X12120000Y-9767300D02*
G75*
G02*
X12080000Y-9767300I-20000J0D01*
G01*
X12080000Y-9767300D02*
G75*
G02*
X12120000Y-9767300I20000J0D01*
G01*
X12120000Y-10365000D02*
G75*
G02*
X12080000Y-10365000I-20000J0D01*
G01*
X12080000Y-10365000D02*
G75*
G02*
X12120000Y-10365000I20000J0D01*
G01*
X12445000Y-10090000D02*
G75*
G02*
X12405000Y-10090000I-20000J0D01*
G01*
X12405000Y-10090000D02*
G75*
G02*
X12445000Y-10090000I20000J0D01*
G01*
X10183000Y-10484500D02*
X10183000Y-10544500D01*
X10153000Y-10514500D02*
X10213000Y-10514500D01*
X10153000Y-10459500D02*
X10153000Y-10569500D01*
X10213000Y-10569500D02*
G75*
G02*
X10153000Y-10569500I-30000J0D01*
G01*
X10213000Y-10569500D02*
X10213000Y-10459500D01*
X10213000Y-10459500D02*
G75*
G03*
X10153000Y-10459500I-30000J0D01*
G01*
X10183000Y-10902500D02*
X10183000Y-10962500D01*
X10153000Y-10932500D02*
X10213000Y-10932500D01*
X10153000Y-10892500D02*
X10153000Y-10972500D01*
X10213000Y-10972500D02*
G75*
G02*
X10153000Y-10972500I-30000J0D01*
G01*
X10213000Y-10972500D02*
X10213000Y-10892500D01*
X10213000Y-10892500D02*
G75*
G03*
X10153000Y-10892500I-30000J0D01*
G01*
X10561900Y-10007500D02*
X10561900Y-10067500D01*
X10531900Y-10037500D02*
X10591900Y-10037500D01*
X10561900Y-10132500D02*
X10561900Y-10192500D01*
X10531900Y-10162500D02*
X10591900Y-10162500D01*
X11047000Y-10484500D02*
X11047000Y-10544500D01*
X11017000Y-10514500D02*
X11077000Y-10514500D01*
X11017000Y-10459500D02*
X11017000Y-10569500D01*
X11077000Y-10569500D02*
G75*
G02*
X11017000Y-10569500I-30000J0D01*
G01*
X11077000Y-10569500D02*
X11077000Y-10459500D01*
X11077000Y-10459500D02*
G75*
G03*
X11017000Y-10459500I-30000J0D01*
G01*
X11047000Y-10902500D02*
X11047000Y-10962500D01*
X11017000Y-10932500D02*
X11077000Y-10932500D01*
X11017000Y-10892500D02*
X11017000Y-10972500D01*
X11077000Y-10972500D02*
G75*
G02*
X11017000Y-10972500I-30000J0D01*
G01*
X11077000Y-10972500D02*
X11077000Y-10892500D01*
X11077000Y-10892500D02*
G75*
G03*
X11017000Y-10892500I-30000J0D01*
G01*
X11806017Y-10706517D02*
X11806017Y-10653483D01*
X11752983Y-10653483D01*
X11752983Y-10706517D01*
X11806017Y-10706517D01*
X11956017Y-10706517D02*
X11956017Y-10653483D01*
X11902983Y-10653483D01*
X11902983Y-10706517D01*
X11956017Y-10706517D01*
X12106017Y-10706517D02*
X12106017Y-10653483D01*
X12052983Y-10653483D01*
X12052983Y-10706517D01*
X12106017Y-10706517D01*
X12256017Y-10706517D02*
X12256017Y-10653483D01*
X12202983Y-10653483D01*
X12202983Y-10706517D01*
X12256017Y-10706517D01*
X12406017Y-10706517D02*
X12406017Y-10653483D01*
X12352983Y-10653483D01*
X12352983Y-10706517D01*
X12406017Y-10706517D01*
D11*
X10323277Y-11508984D02*
X10323277Y-11308984D01*
X10323277Y-11308984D02*
X10370896Y-11308984D01*
X10370896Y-11308984D02*
X10399467Y-11318508D01*
X10399467Y-11318508D02*
X10418515Y-11337555D01*
X10418515Y-11337555D02*
X10428039Y-11356603D01*
X10428039Y-11356603D02*
X10437563Y-11394698D01*
X10437563Y-11394698D02*
X10437563Y-11423269D01*
X10437563Y-11423269D02*
X10428039Y-11461365D01*
X10428039Y-11461365D02*
X10418515Y-11480412D01*
X10418515Y-11480412D02*
X10399467Y-11499460D01*
X10399467Y-11499460D02*
X10370896Y-11508984D01*
X10370896Y-11508984D02*
X10323277Y-11508984D01*
X10523277Y-11508984D02*
X10523277Y-11375650D01*
X10523277Y-11413746D02*
X10532801Y-11394698D01*
X10532801Y-11394698D02*
X10542324Y-11385174D01*
X10542324Y-11385174D02*
X10561372Y-11375650D01*
X10561372Y-11375650D02*
X10580420Y-11375650D01*
X10647086Y-11508984D02*
X10647086Y-11375650D01*
X10647086Y-11308984D02*
X10637563Y-11318508D01*
X10637563Y-11318508D02*
X10647086Y-11328031D01*
X10647086Y-11328031D02*
X10656610Y-11318508D01*
X10656610Y-11318508D02*
X10647086Y-11308984D01*
X10647086Y-11308984D02*
X10647086Y-11328031D01*
X10770896Y-11508984D02*
X10751848Y-11499460D01*
X10751848Y-11499460D02*
X10742324Y-11480412D01*
X10742324Y-11480412D02*
X10742324Y-11308984D01*
X10875658Y-11508984D02*
X10856610Y-11499460D01*
X10856610Y-11499460D02*
X10847086Y-11480412D01*
X10847086Y-11480412D02*
X10847086Y-11308984D01*
X11104229Y-11508984D02*
X11104229Y-11308984D01*
X11104229Y-11308984D02*
X11170896Y-11451841D01*
X11170896Y-11451841D02*
X11237562Y-11308984D01*
X11237562Y-11308984D02*
X11237562Y-11508984D01*
X11418515Y-11508984D02*
X11418515Y-11404222D01*
X11418515Y-11404222D02*
X11408991Y-11385174D01*
X11408991Y-11385174D02*
X11389943Y-11375650D01*
X11389943Y-11375650D02*
X11351848Y-11375650D01*
X11351848Y-11375650D02*
X11332801Y-11385174D01*
X11418515Y-11499460D02*
X11399467Y-11508984D01*
X11399467Y-11508984D02*
X11351848Y-11508984D01*
X11351848Y-11508984D02*
X11332801Y-11499460D01*
X11332801Y-11499460D02*
X11323277Y-11480412D01*
X11323277Y-11480412D02*
X11323277Y-11461365D01*
X11323277Y-11461365D02*
X11332801Y-11442317D01*
X11332801Y-11442317D02*
X11351848Y-11432793D01*
X11351848Y-11432793D02*
X11399467Y-11432793D01*
X11399467Y-11432793D02*
X11418515Y-11423269D01*
X11513753Y-11375650D02*
X11513753Y-11575650D01*
X11513753Y-11385174D02*
X11532801Y-11375650D01*
X11532801Y-11375650D02*
X11570896Y-11375650D01*
X11570896Y-11375650D02*
X11589943Y-11385174D01*
X11589943Y-11385174D02*
X11599467Y-11394698D01*
X11599467Y-11394698D02*
X11608991Y-11413746D01*
X11608991Y-11413746D02*
X11608991Y-11470888D01*
X11608991Y-11470888D02*
X11599467Y-11489936D01*
X11599467Y-11489936D02*
X11589943Y-11499460D01*
X11589943Y-11499460D02*
X11570896Y-11508984D01*
X11570896Y-11508984D02*
X11532801Y-11508984D01*
X11532801Y-11508984D02*
X11513753Y-11499460D01*
X11694705Y-11489936D02*
X11704229Y-11499460D01*
X11704229Y-11499460D02*
X11694705Y-11508984D01*
X11694705Y-11508984D02*
X11685182Y-11499460D01*
X11685182Y-11499460D02*
X11694705Y-11489936D01*
X11694705Y-11489936D02*
X11694705Y-11508984D01*
X11694705Y-11385174D02*
X11704229Y-11394698D01*
X11704229Y-11394698D02*
X11694705Y-11404222D01*
X11694705Y-11404222D02*
X11685182Y-11394698D01*
X11685182Y-11394698D02*
X11694705Y-11385174D01*
X11694705Y-11385174D02*
X11694705Y-11404222D01*
D12*
X10032500Y-11822500D02*
X10062500Y-11852500D01*
X10062500Y-11822500D02*
X10032500Y-11852500D01*
D11*
X10361372Y-11728984D02*
X10380420Y-11728984D01*
X10380420Y-11728984D02*
X10399467Y-11738508D01*
X10399467Y-11738508D02*
X10408991Y-11748031D01*
X10408991Y-11748031D02*
X10418515Y-11767079D01*
X10418515Y-11767079D02*
X10428039Y-11805174D01*
X10428039Y-11805174D02*
X10428039Y-11852793D01*
X10428039Y-11852793D02*
X10418515Y-11890888D01*
X10418515Y-11890888D02*
X10408991Y-11909936D01*
X10408991Y-11909936D02*
X10399467Y-11919460D01*
X10399467Y-11919460D02*
X10380420Y-11928984D01*
X10380420Y-11928984D02*
X10361372Y-11928984D01*
X10361372Y-11928984D02*
X10342324Y-11919460D01*
X10342324Y-11919460D02*
X10332801Y-11909936D01*
X10332801Y-11909936D02*
X10323277Y-11890888D01*
X10323277Y-11890888D02*
X10313753Y-11852793D01*
X10313753Y-11852793D02*
X10313753Y-11805174D01*
X10313753Y-11805174D02*
X10323277Y-11767079D01*
X10323277Y-11767079D02*
X10332801Y-11748031D01*
X10332801Y-11748031D02*
X10342324Y-11738508D01*
X10342324Y-11738508D02*
X10361372Y-11728984D01*
X10513753Y-11909936D02*
X10523277Y-11919460D01*
X10523277Y-11919460D02*
X10513753Y-11928984D01*
X10513753Y-11928984D02*
X10504229Y-11919460D01*
X10504229Y-11919460D02*
X10513753Y-11909936D01*
X10513753Y-11909936D02*
X10513753Y-11928984D01*
X10589944Y-11728984D02*
X10713753Y-11728984D01*
X10713753Y-11728984D02*
X10647086Y-11805174D01*
X10647086Y-11805174D02*
X10675658Y-11805174D01*
X10675658Y-11805174D02*
X10694705Y-11814698D01*
X10694705Y-11814698D02*
X10704229Y-11824222D01*
X10704229Y-11824222D02*
X10713753Y-11843269D01*
X10713753Y-11843269D02*
X10713753Y-11890888D01*
X10713753Y-11890888D02*
X10704229Y-11909936D01*
X10704229Y-11909936D02*
X10694705Y-11919460D01*
X10694705Y-11919460D02*
X10675658Y-11928984D01*
X10675658Y-11928984D02*
X10618515Y-11928984D01*
X10618515Y-11928984D02*
X10599467Y-11919460D01*
X10599467Y-11919460D02*
X10589944Y-11909936D01*
X10837563Y-11728984D02*
X10856610Y-11728984D01*
X10856610Y-11728984D02*
X10875658Y-11738508D01*
X10875658Y-11738508D02*
X10885182Y-11748031D01*
X10885182Y-11748031D02*
X10894705Y-11767079D01*
X10894705Y-11767079D02*
X10904229Y-11805174D01*
X10904229Y-11805174D02*
X10904229Y-11852793D01*
X10904229Y-11852793D02*
X10894705Y-11890888D01*
X10894705Y-11890888D02*
X10885182Y-11909936D01*
X10885182Y-11909936D02*
X10875658Y-11919460D01*
X10875658Y-11919460D02*
X10856610Y-11928984D01*
X10856610Y-11928984D02*
X10837563Y-11928984D01*
X10837563Y-11928984D02*
X10818515Y-11919460D01*
X10818515Y-11919460D02*
X10808991Y-11909936D01*
X10808991Y-11909936D02*
X10799467Y-11890888D01*
X10799467Y-11890888D02*
X10789944Y-11852793D01*
X10789944Y-11852793D02*
X10789944Y-11805174D01*
X10789944Y-11805174D02*
X10799467Y-11767079D01*
X10799467Y-11767079D02*
X10808991Y-11748031D01*
X10808991Y-11748031D02*
X10818515Y-11738508D01*
X10818515Y-11738508D02*
X10837563Y-11728984D01*
X11028039Y-11728984D02*
X11047086Y-11728984D01*
X11047086Y-11728984D02*
X11066134Y-11738508D01*
X11066134Y-11738508D02*
X11075658Y-11748031D01*
X11075658Y-11748031D02*
X11085182Y-11767079D01*
X11085182Y-11767079D02*
X11094705Y-11805174D01*
X11094705Y-11805174D02*
X11094705Y-11852793D01*
X11094705Y-11852793D02*
X11085182Y-11890888D01*
X11085182Y-11890888D02*
X11075658Y-11909936D01*
X11075658Y-11909936D02*
X11066134Y-11919460D01*
X11066134Y-11919460D02*
X11047086Y-11928984D01*
X11047086Y-11928984D02*
X11028039Y-11928984D01*
X11028039Y-11928984D02*
X11008991Y-11919460D01*
X11008991Y-11919460D02*
X10999467Y-11909936D01*
X10999467Y-11909936D02*
X10989944Y-11890888D01*
X10989944Y-11890888D02*
X10980420Y-11852793D01*
X10980420Y-11852793D02*
X10980420Y-11805174D01*
X10980420Y-11805174D02*
X10989944Y-11767079D01*
X10989944Y-11767079D02*
X10999467Y-11748031D01*
X10999467Y-11748031D02*
X11008991Y-11738508D01*
X11008991Y-11738508D02*
X11028039Y-11728984D01*
X11180420Y-11928984D02*
X11180420Y-11795650D01*
X11180420Y-11814698D02*
X11189943Y-11805174D01*
X11189943Y-11805174D02*
X11208991Y-11795650D01*
X11208991Y-11795650D02*
X11237563Y-11795650D01*
X11237563Y-11795650D02*
X11256610Y-11805174D01*
X11256610Y-11805174D02*
X11266134Y-11824222D01*
X11266134Y-11824222D02*
X11266134Y-11928984D01*
X11266134Y-11824222D02*
X11275658Y-11805174D01*
X11275658Y-11805174D02*
X11294705Y-11795650D01*
X11294705Y-11795650D02*
X11323277Y-11795650D01*
X11323277Y-11795650D02*
X11342324Y-11805174D01*
X11342324Y-11805174D02*
X11351848Y-11824222D01*
X11351848Y-11824222D02*
X11351848Y-11928984D01*
X11447086Y-11928984D02*
X11447086Y-11795650D01*
X11447086Y-11814698D02*
X11456610Y-11805174D01*
X11456610Y-11805174D02*
X11475658Y-11795650D01*
X11475658Y-11795650D02*
X11504229Y-11795650D01*
X11504229Y-11795650D02*
X11523277Y-11805174D01*
X11523277Y-11805174D02*
X11532801Y-11824222D01*
X11532801Y-11824222D02*
X11532801Y-11928984D01*
X11532801Y-11824222D02*
X11542324Y-11805174D01*
X11542324Y-11805174D02*
X11561372Y-11795650D01*
X11561372Y-11795650D02*
X11589943Y-11795650D01*
X11589943Y-11795650D02*
X11608991Y-11805174D01*
X11608991Y-11805174D02*
X11618515Y-11824222D01*
X11618515Y-11824222D02*
X11618515Y-11928984D01*
X12008991Y-11719460D02*
X11837563Y-11976603D01*
X12266134Y-11728984D02*
X12285182Y-11728984D01*
X12285182Y-11728984D02*
X12304229Y-11738508D01*
X12304229Y-11738508D02*
X12313753Y-11748031D01*
X12313753Y-11748031D02*
X12323277Y-11767079D01*
X12323277Y-11767079D02*
X12332801Y-11805174D01*
X12332801Y-11805174D02*
X12332801Y-11852793D01*
X12332801Y-11852793D02*
X12323277Y-11890888D01*
X12323277Y-11890888D02*
X12313753Y-11909936D01*
X12313753Y-11909936D02*
X12304229Y-11919460D01*
X12304229Y-11919460D02*
X12285182Y-11928984D01*
X12285182Y-11928984D02*
X12266134Y-11928984D01*
X12266134Y-11928984D02*
X12247086Y-11919460D01*
X12247086Y-11919460D02*
X12237563Y-11909936D01*
X12237563Y-11909936D02*
X12228039Y-11890888D01*
X12228039Y-11890888D02*
X12218515Y-11852793D01*
X12218515Y-11852793D02*
X12218515Y-11805174D01*
X12218515Y-11805174D02*
X12228039Y-11767079D01*
X12228039Y-11767079D02*
X12237563Y-11748031D01*
X12237563Y-11748031D02*
X12247086Y-11738508D01*
X12247086Y-11738508D02*
X12266134Y-11728984D01*
X12418515Y-11909936D02*
X12428039Y-11919460D01*
X12428039Y-11919460D02*
X12418515Y-11928984D01*
X12418515Y-11928984D02*
X12408991Y-11919460D01*
X12408991Y-11919460D02*
X12418515Y-11909936D01*
X12418515Y-11909936D02*
X12418515Y-11928984D01*
X12551848Y-11728984D02*
X12570896Y-11728984D01*
X12570896Y-11728984D02*
X12589944Y-11738508D01*
X12589944Y-11738508D02*
X12599467Y-11748031D01*
X12599467Y-11748031D02*
X12608991Y-11767079D01*
X12608991Y-11767079D02*
X12618515Y-11805174D01*
X12618515Y-11805174D02*
X12618515Y-11852793D01*
X12618515Y-11852793D02*
X12608991Y-11890888D01*
X12608991Y-11890888D02*
X12599467Y-11909936D01*
X12599467Y-11909936D02*
X12589944Y-11919460D01*
X12589944Y-11919460D02*
X12570896Y-11928984D01*
X12570896Y-11928984D02*
X12551848Y-11928984D01*
X12551848Y-11928984D02*
X12532801Y-11919460D01*
X12532801Y-11919460D02*
X12523277Y-11909936D01*
X12523277Y-11909936D02*
X12513753Y-11890888D01*
X12513753Y-11890888D02*
X12504229Y-11852793D01*
X12504229Y-11852793D02*
X12504229Y-11805174D01*
X12504229Y-11805174D02*
X12513753Y-11767079D01*
X12513753Y-11767079D02*
X12523277Y-11748031D01*
X12523277Y-11748031D02*
X12532801Y-11738508D01*
X12532801Y-11738508D02*
X12551848Y-11728984D01*
X12808991Y-11928984D02*
X12694706Y-11928984D01*
X12751848Y-11928984D02*
X12751848Y-11728984D01*
X12751848Y-11728984D02*
X12732801Y-11757555D01*
X12732801Y-11757555D02*
X12713753Y-11776603D01*
X12713753Y-11776603D02*
X12694706Y-11786127D01*
X12999467Y-11928984D02*
X12885182Y-11928984D01*
X12942325Y-11928984D02*
X12942325Y-11728984D01*
X12942325Y-11728984D02*
X12923277Y-11757555D01*
X12923277Y-11757555D02*
X12904229Y-11776603D01*
X12904229Y-11776603D02*
X12885182Y-11786127D01*
X13113753Y-11814698D02*
X13094706Y-11805174D01*
X13094706Y-11805174D02*
X13085182Y-11795650D01*
X13085182Y-11795650D02*
X13075658Y-11776603D01*
X13075658Y-11776603D02*
X13075658Y-11767079D01*
X13075658Y-11767079D02*
X13085182Y-11748031D01*
X13085182Y-11748031D02*
X13094706Y-11738508D01*
X13094706Y-11738508D02*
X13113753Y-11728984D01*
X13113753Y-11728984D02*
X13151848Y-11728984D01*
X13151848Y-11728984D02*
X13170896Y-11738508D01*
X13170896Y-11738508D02*
X13180420Y-11748031D01*
X13180420Y-11748031D02*
X13189944Y-11767079D01*
X13189944Y-11767079D02*
X13189944Y-11776603D01*
X13189944Y-11776603D02*
X13180420Y-11795650D01*
X13180420Y-11795650D02*
X13170896Y-11805174D01*
X13170896Y-11805174D02*
X13151848Y-11814698D01*
X13151848Y-11814698D02*
X13113753Y-11814698D01*
X13113753Y-11814698D02*
X13094706Y-11824222D01*
X13094706Y-11824222D02*
X13085182Y-11833746D01*
X13085182Y-11833746D02*
X13075658Y-11852793D01*
X13075658Y-11852793D02*
X13075658Y-11890888D01*
X13075658Y-11890888D02*
X13085182Y-11909936D01*
X13085182Y-11909936D02*
X13094706Y-11919460D01*
X13094706Y-11919460D02*
X13113753Y-11928984D01*
X13113753Y-11928984D02*
X13151848Y-11928984D01*
X13151848Y-11928984D02*
X13170896Y-11919460D01*
X13170896Y-11919460D02*
X13180420Y-11909936D01*
X13180420Y-11909936D02*
X13189944Y-11890888D01*
X13189944Y-11890888D02*
X13189944Y-11852793D01*
X13189944Y-11852793D02*
X13180420Y-11833746D01*
X13180420Y-11833746D02*
X13170896Y-11824222D01*
X13170896Y-11824222D02*
X13151848Y-11814698D01*
X13266134Y-11728984D02*
X13266134Y-11767079D01*
X13342325Y-11728984D02*
X13342325Y-11767079D01*
X13637563Y-12005174D02*
X13628039Y-11995650D01*
X13628039Y-11995650D02*
X13608991Y-11967079D01*
X13608991Y-11967079D02*
X13599468Y-11948031D01*
X13599468Y-11948031D02*
X13589944Y-11919460D01*
X13589944Y-11919460D02*
X13580420Y-11871841D01*
X13580420Y-11871841D02*
X13580420Y-11833746D01*
X13580420Y-11833746D02*
X13589944Y-11786127D01*
X13589944Y-11786127D02*
X13599468Y-11757555D01*
X13599468Y-11757555D02*
X13608991Y-11738508D01*
X13608991Y-11738508D02*
X13628039Y-11709936D01*
X13628039Y-11709936D02*
X13637563Y-11700412D01*
X13694706Y-11728984D02*
X13818515Y-11728984D01*
X13818515Y-11728984D02*
X13751848Y-11805174D01*
X13751848Y-11805174D02*
X13780420Y-11805174D01*
X13780420Y-11805174D02*
X13799468Y-11814698D01*
X13799468Y-11814698D02*
X13808991Y-11824222D01*
X13808991Y-11824222D02*
X13818515Y-11843269D01*
X13818515Y-11843269D02*
X13818515Y-11890888D01*
X13818515Y-11890888D02*
X13808991Y-11909936D01*
X13808991Y-11909936D02*
X13799468Y-11919460D01*
X13799468Y-11919460D02*
X13780420Y-11928984D01*
X13780420Y-11928984D02*
X13723277Y-11928984D01*
X13723277Y-11928984D02*
X13704229Y-11919460D01*
X13704229Y-11919460D02*
X13694706Y-11909936D01*
X13999468Y-11728984D02*
X13904229Y-11728984D01*
X13904229Y-11728984D02*
X13894706Y-11824222D01*
X13894706Y-11824222D02*
X13904229Y-11814698D01*
X13904229Y-11814698D02*
X13923277Y-11805174D01*
X13923277Y-11805174D02*
X13970896Y-11805174D01*
X13970896Y-11805174D02*
X13989944Y-11814698D01*
X13989944Y-11814698D02*
X13999468Y-11824222D01*
X13999468Y-11824222D02*
X14008991Y-11843269D01*
X14008991Y-11843269D02*
X14008991Y-11890888D01*
X14008991Y-11890888D02*
X13999468Y-11909936D01*
X13999468Y-11909936D02*
X13989944Y-11919460D01*
X13989944Y-11919460D02*
X13970896Y-11928984D01*
X13970896Y-11928984D02*
X13923277Y-11928984D01*
X13923277Y-11928984D02*
X13904229Y-11919460D01*
X13904229Y-11919460D02*
X13894706Y-11909936D01*
X14247087Y-11928984D02*
X14247087Y-11728984D01*
X14332801Y-11928984D02*
X14332801Y-11824222D01*
X14332801Y-11824222D02*
X14323277Y-11805174D01*
X14323277Y-11805174D02*
X14304230Y-11795650D01*
X14304230Y-11795650D02*
X14275658Y-11795650D01*
X14275658Y-11795650D02*
X14256610Y-11805174D01*
X14256610Y-11805174D02*
X14247087Y-11814698D01*
X14456610Y-11928984D02*
X14437563Y-11919460D01*
X14437563Y-11919460D02*
X14428039Y-11909936D01*
X14428039Y-11909936D02*
X14418515Y-11890888D01*
X14418515Y-11890888D02*
X14418515Y-11833746D01*
X14418515Y-11833746D02*
X14428039Y-11814698D01*
X14428039Y-11814698D02*
X14437563Y-11805174D01*
X14437563Y-11805174D02*
X14456610Y-11795650D01*
X14456610Y-11795650D02*
X14485182Y-11795650D01*
X14485182Y-11795650D02*
X14504230Y-11805174D01*
X14504230Y-11805174D02*
X14513753Y-11814698D01*
X14513753Y-11814698D02*
X14523277Y-11833746D01*
X14523277Y-11833746D02*
X14523277Y-11890888D01*
X14523277Y-11890888D02*
X14513753Y-11909936D01*
X14513753Y-11909936D02*
X14504230Y-11919460D01*
X14504230Y-11919460D02*
X14485182Y-11928984D01*
X14485182Y-11928984D02*
X14456610Y-11928984D01*
X14637563Y-11928984D02*
X14618515Y-11919460D01*
X14618515Y-11919460D02*
X14608991Y-11900412D01*
X14608991Y-11900412D02*
X14608991Y-11728984D01*
X14789944Y-11919460D02*
X14770896Y-11928984D01*
X14770896Y-11928984D02*
X14732801Y-11928984D01*
X14732801Y-11928984D02*
X14713753Y-11919460D01*
X14713753Y-11919460D02*
X14704230Y-11900412D01*
X14704230Y-11900412D02*
X14704230Y-11824222D01*
X14704230Y-11824222D02*
X14713753Y-11805174D01*
X14713753Y-11805174D02*
X14732801Y-11795650D01*
X14732801Y-11795650D02*
X14770896Y-11795650D01*
X14770896Y-11795650D02*
X14789944Y-11805174D01*
X14789944Y-11805174D02*
X14799468Y-11824222D01*
X14799468Y-11824222D02*
X14799468Y-11843269D01*
X14799468Y-11843269D02*
X14704230Y-11862317D01*
X14875658Y-11919460D02*
X14894706Y-11928984D01*
X14894706Y-11928984D02*
X14932801Y-11928984D01*
X14932801Y-11928984D02*
X14951849Y-11919460D01*
X14951849Y-11919460D02*
X14961372Y-11900412D01*
X14961372Y-11900412D02*
X14961372Y-11890888D01*
X14961372Y-11890888D02*
X14951849Y-11871841D01*
X14951849Y-11871841D02*
X14932801Y-11862317D01*
X14932801Y-11862317D02*
X14904230Y-11862317D01*
X14904230Y-11862317D02*
X14885182Y-11852793D01*
X14885182Y-11852793D02*
X14875658Y-11833746D01*
X14875658Y-11833746D02*
X14875658Y-11824222D01*
X14875658Y-11824222D02*
X14885182Y-11805174D01*
X14885182Y-11805174D02*
X14904230Y-11795650D01*
X14904230Y-11795650D02*
X14932801Y-11795650D01*
X14932801Y-11795650D02*
X14951849Y-11805174D01*
X15028039Y-12005174D02*
X15037563Y-11995650D01*
X15037563Y-11995650D02*
X15056611Y-11967079D01*
X15056611Y-11967079D02*
X15066134Y-11948031D01*
X15066134Y-11948031D02*
X15075658Y-11919460D01*
X15075658Y-11919460D02*
X15085182Y-11871841D01*
X15085182Y-11871841D02*
X15085182Y-11833746D01*
X15085182Y-11833746D02*
X15075658Y-11786127D01*
X15075658Y-11786127D02*
X15066134Y-11757555D01*
X15066134Y-11757555D02*
X15056611Y-11738508D01*
X15056611Y-11738508D02*
X15037563Y-11709936D01*
X15037563Y-11709936D02*
X15028039Y-11700412D01*
D12*
X10062500Y-12101500D02*
G75*
G02*
X10022500Y-12101500I-20000J0D01*
G01*
X10022500Y-12101500D02*
G75*
G02*
X10062500Y-12101500I20000J0D01*
G01*
D11*
X10361372Y-11992984D02*
X10380420Y-11992984D01*
X10380420Y-11992984D02*
X10399467Y-12002508D01*
X10399467Y-12002508D02*
X10408991Y-12012031D01*
X10408991Y-12012031D02*
X10418515Y-12031079D01*
X10418515Y-12031079D02*
X10428039Y-12069174D01*
X10428039Y-12069174D02*
X10428039Y-12116793D01*
X10428039Y-12116793D02*
X10418515Y-12154888D01*
X10418515Y-12154888D02*
X10408991Y-12173936D01*
X10408991Y-12173936D02*
X10399467Y-12183460D01*
X10399467Y-12183460D02*
X10380420Y-12192984D01*
X10380420Y-12192984D02*
X10361372Y-12192984D01*
X10361372Y-12192984D02*
X10342324Y-12183460D01*
X10342324Y-12183460D02*
X10332801Y-12173936D01*
X10332801Y-12173936D02*
X10323277Y-12154888D01*
X10323277Y-12154888D02*
X10313753Y-12116793D01*
X10313753Y-12116793D02*
X10313753Y-12069174D01*
X10313753Y-12069174D02*
X10323277Y-12031079D01*
X10323277Y-12031079D02*
X10332801Y-12012031D01*
X10332801Y-12012031D02*
X10342324Y-12002508D01*
X10342324Y-12002508D02*
X10361372Y-11992984D01*
X10513753Y-12173936D02*
X10523277Y-12183460D01*
X10523277Y-12183460D02*
X10513753Y-12192984D01*
X10513753Y-12192984D02*
X10504229Y-12183460D01*
X10504229Y-12183460D02*
X10513753Y-12173936D01*
X10513753Y-12173936D02*
X10513753Y-12192984D01*
X10694705Y-12059650D02*
X10694705Y-12192984D01*
X10647086Y-11983460D02*
X10599467Y-12126317D01*
X10599467Y-12126317D02*
X10723277Y-12126317D01*
X10837563Y-11992984D02*
X10856610Y-11992984D01*
X10856610Y-11992984D02*
X10875658Y-12002508D01*
X10875658Y-12002508D02*
X10885182Y-12012031D01*
X10885182Y-12012031D02*
X10894705Y-12031079D01*
X10894705Y-12031079D02*
X10904229Y-12069174D01*
X10904229Y-12069174D02*
X10904229Y-12116793D01*
X10904229Y-12116793D02*
X10894705Y-12154888D01*
X10894705Y-12154888D02*
X10885182Y-12173936D01*
X10885182Y-12173936D02*
X10875658Y-12183460D01*
X10875658Y-12183460D02*
X10856610Y-12192984D01*
X10856610Y-12192984D02*
X10837563Y-12192984D01*
X10837563Y-12192984D02*
X10818515Y-12183460D01*
X10818515Y-12183460D02*
X10808991Y-12173936D01*
X10808991Y-12173936D02*
X10799467Y-12154888D01*
X10799467Y-12154888D02*
X10789944Y-12116793D01*
X10789944Y-12116793D02*
X10789944Y-12069174D01*
X10789944Y-12069174D02*
X10799467Y-12031079D01*
X10799467Y-12031079D02*
X10808991Y-12012031D01*
X10808991Y-12012031D02*
X10818515Y-12002508D01*
X10818515Y-12002508D02*
X10837563Y-11992984D01*
X11028039Y-11992984D02*
X11047086Y-11992984D01*
X11047086Y-11992984D02*
X11066134Y-12002508D01*
X11066134Y-12002508D02*
X11075658Y-12012031D01*
X11075658Y-12012031D02*
X11085182Y-12031079D01*
X11085182Y-12031079D02*
X11094705Y-12069174D01*
X11094705Y-12069174D02*
X11094705Y-12116793D01*
X11094705Y-12116793D02*
X11085182Y-12154888D01*
X11085182Y-12154888D02*
X11075658Y-12173936D01*
X11075658Y-12173936D02*
X11066134Y-12183460D01*
X11066134Y-12183460D02*
X11047086Y-12192984D01*
X11047086Y-12192984D02*
X11028039Y-12192984D01*
X11028039Y-12192984D02*
X11008991Y-12183460D01*
X11008991Y-12183460D02*
X10999467Y-12173936D01*
X10999467Y-12173936D02*
X10989944Y-12154888D01*
X10989944Y-12154888D02*
X10980420Y-12116793D01*
X10980420Y-12116793D02*
X10980420Y-12069174D01*
X10980420Y-12069174D02*
X10989944Y-12031079D01*
X10989944Y-12031079D02*
X10999467Y-12012031D01*
X10999467Y-12012031D02*
X11008991Y-12002508D01*
X11008991Y-12002508D02*
X11028039Y-11992984D01*
X11180420Y-12192984D02*
X11180420Y-12059650D01*
X11180420Y-12078698D02*
X11189943Y-12069174D01*
X11189943Y-12069174D02*
X11208991Y-12059650D01*
X11208991Y-12059650D02*
X11237563Y-12059650D01*
X11237563Y-12059650D02*
X11256610Y-12069174D01*
X11256610Y-12069174D02*
X11266134Y-12088222D01*
X11266134Y-12088222D02*
X11266134Y-12192984D01*
X11266134Y-12088222D02*
X11275658Y-12069174D01*
X11275658Y-12069174D02*
X11294705Y-12059650D01*
X11294705Y-12059650D02*
X11323277Y-12059650D01*
X11323277Y-12059650D02*
X11342324Y-12069174D01*
X11342324Y-12069174D02*
X11351848Y-12088222D01*
X11351848Y-12088222D02*
X11351848Y-12192984D01*
X11447086Y-12192984D02*
X11447086Y-12059650D01*
X11447086Y-12078698D02*
X11456610Y-12069174D01*
X11456610Y-12069174D02*
X11475658Y-12059650D01*
X11475658Y-12059650D02*
X11504229Y-12059650D01*
X11504229Y-12059650D02*
X11523277Y-12069174D01*
X11523277Y-12069174D02*
X11532801Y-12088222D01*
X11532801Y-12088222D02*
X11532801Y-12192984D01*
X11532801Y-12088222D02*
X11542324Y-12069174D01*
X11542324Y-12069174D02*
X11561372Y-12059650D01*
X11561372Y-12059650D02*
X11589943Y-12059650D01*
X11589943Y-12059650D02*
X11608991Y-12069174D01*
X11608991Y-12069174D02*
X11618515Y-12088222D01*
X11618515Y-12088222D02*
X11618515Y-12192984D01*
X12008991Y-11983460D02*
X11837563Y-12240603D01*
X12266134Y-11992984D02*
X12285182Y-11992984D01*
X12285182Y-11992984D02*
X12304229Y-12002508D01*
X12304229Y-12002508D02*
X12313753Y-12012031D01*
X12313753Y-12012031D02*
X12323277Y-12031079D01*
X12323277Y-12031079D02*
X12332801Y-12069174D01*
X12332801Y-12069174D02*
X12332801Y-12116793D01*
X12332801Y-12116793D02*
X12323277Y-12154888D01*
X12323277Y-12154888D02*
X12313753Y-12173936D01*
X12313753Y-12173936D02*
X12304229Y-12183460D01*
X12304229Y-12183460D02*
X12285182Y-12192984D01*
X12285182Y-12192984D02*
X12266134Y-12192984D01*
X12266134Y-12192984D02*
X12247086Y-12183460D01*
X12247086Y-12183460D02*
X12237563Y-12173936D01*
X12237563Y-12173936D02*
X12228039Y-12154888D01*
X12228039Y-12154888D02*
X12218515Y-12116793D01*
X12218515Y-12116793D02*
X12218515Y-12069174D01*
X12218515Y-12069174D02*
X12228039Y-12031079D01*
X12228039Y-12031079D02*
X12237563Y-12012031D01*
X12237563Y-12012031D02*
X12247086Y-12002508D01*
X12247086Y-12002508D02*
X12266134Y-11992984D01*
X12418515Y-12173936D02*
X12428039Y-12183460D01*
X12428039Y-12183460D02*
X12418515Y-12192984D01*
X12418515Y-12192984D02*
X12408991Y-12183460D01*
X12408991Y-12183460D02*
X12418515Y-12173936D01*
X12418515Y-12173936D02*
X12418515Y-12192984D01*
X12551848Y-11992984D02*
X12570896Y-11992984D01*
X12570896Y-11992984D02*
X12589944Y-12002508D01*
X12589944Y-12002508D02*
X12599467Y-12012031D01*
X12599467Y-12012031D02*
X12608991Y-12031079D01*
X12608991Y-12031079D02*
X12618515Y-12069174D01*
X12618515Y-12069174D02*
X12618515Y-12116793D01*
X12618515Y-12116793D02*
X12608991Y-12154888D01*
X12608991Y-12154888D02*
X12599467Y-12173936D01*
X12599467Y-12173936D02*
X12589944Y-12183460D01*
X12589944Y-12183460D02*
X12570896Y-12192984D01*
X12570896Y-12192984D02*
X12551848Y-12192984D01*
X12551848Y-12192984D02*
X12532801Y-12183460D01*
X12532801Y-12183460D02*
X12523277Y-12173936D01*
X12523277Y-12173936D02*
X12513753Y-12154888D01*
X12513753Y-12154888D02*
X12504229Y-12116793D01*
X12504229Y-12116793D02*
X12504229Y-12069174D01*
X12504229Y-12069174D02*
X12513753Y-12031079D01*
X12513753Y-12031079D02*
X12523277Y-12012031D01*
X12523277Y-12012031D02*
X12532801Y-12002508D01*
X12532801Y-12002508D02*
X12551848Y-11992984D01*
X12808991Y-12192984D02*
X12694706Y-12192984D01*
X12751848Y-12192984D02*
X12751848Y-11992984D01*
X12751848Y-11992984D02*
X12732801Y-12021555D01*
X12732801Y-12021555D02*
X12713753Y-12040603D01*
X12713753Y-12040603D02*
X12694706Y-12050127D01*
X12989944Y-11992984D02*
X12894706Y-11992984D01*
X12894706Y-11992984D02*
X12885182Y-12088222D01*
X12885182Y-12088222D02*
X12894706Y-12078698D01*
X12894706Y-12078698D02*
X12913753Y-12069174D01*
X12913753Y-12069174D02*
X12961372Y-12069174D01*
X12961372Y-12069174D02*
X12980420Y-12078698D01*
X12980420Y-12078698D02*
X12989944Y-12088222D01*
X12989944Y-12088222D02*
X12999467Y-12107269D01*
X12999467Y-12107269D02*
X12999467Y-12154888D01*
X12999467Y-12154888D02*
X12989944Y-12173936D01*
X12989944Y-12173936D02*
X12980420Y-12183460D01*
X12980420Y-12183460D02*
X12961372Y-12192984D01*
X12961372Y-12192984D02*
X12913753Y-12192984D01*
X12913753Y-12192984D02*
X12894706Y-12183460D01*
X12894706Y-12183460D02*
X12885182Y-12173936D01*
X13066134Y-11992984D02*
X13199467Y-11992984D01*
X13199467Y-11992984D02*
X13113753Y-12192984D01*
X13266134Y-11992984D02*
X13266134Y-12031079D01*
X13342325Y-11992984D02*
X13342325Y-12031079D01*
X13637563Y-12269174D02*
X13628039Y-12259650D01*
X13628039Y-12259650D02*
X13608991Y-12231079D01*
X13608991Y-12231079D02*
X13599468Y-12212031D01*
X13599468Y-12212031D02*
X13589944Y-12183460D01*
X13589944Y-12183460D02*
X13580420Y-12135841D01*
X13580420Y-12135841D02*
X13580420Y-12097746D01*
X13580420Y-12097746D02*
X13589944Y-12050127D01*
X13589944Y-12050127D02*
X13599468Y-12021555D01*
X13599468Y-12021555D02*
X13608991Y-12002508D01*
X13608991Y-12002508D02*
X13628039Y-11973936D01*
X13628039Y-11973936D02*
X13637563Y-11964412D01*
X13818515Y-12192984D02*
X13704229Y-12192984D01*
X13761372Y-12192984D02*
X13761372Y-11992984D01*
X13761372Y-11992984D02*
X13742325Y-12021555D01*
X13742325Y-12021555D02*
X13723277Y-12040603D01*
X13723277Y-12040603D02*
X13704229Y-12050127D01*
X13885182Y-11992984D02*
X14008991Y-11992984D01*
X14008991Y-11992984D02*
X13942325Y-12069174D01*
X13942325Y-12069174D02*
X13970896Y-12069174D01*
X13970896Y-12069174D02*
X13989944Y-12078698D01*
X13989944Y-12078698D02*
X13999468Y-12088222D01*
X13999468Y-12088222D02*
X14008991Y-12107269D01*
X14008991Y-12107269D02*
X14008991Y-12154888D01*
X14008991Y-12154888D02*
X13999468Y-12173936D01*
X13999468Y-12173936D02*
X13989944Y-12183460D01*
X13989944Y-12183460D02*
X13970896Y-12192984D01*
X13970896Y-12192984D02*
X13913753Y-12192984D01*
X13913753Y-12192984D02*
X13894706Y-12183460D01*
X13894706Y-12183460D02*
X13885182Y-12173936D01*
X14247087Y-12192984D02*
X14247087Y-11992984D01*
X14332801Y-12192984D02*
X14332801Y-12088222D01*
X14332801Y-12088222D02*
X14323277Y-12069174D01*
X14323277Y-12069174D02*
X14304230Y-12059650D01*
X14304230Y-12059650D02*
X14275658Y-12059650D01*
X14275658Y-12059650D02*
X14256610Y-12069174D01*
X14256610Y-12069174D02*
X14247087Y-12078698D01*
X14456610Y-12192984D02*
X14437563Y-12183460D01*
X14437563Y-12183460D02*
X14428039Y-12173936D01*
X14428039Y-12173936D02*
X14418515Y-12154888D01*
X14418515Y-12154888D02*
X14418515Y-12097746D01*
X14418515Y-12097746D02*
X14428039Y-12078698D01*
X14428039Y-12078698D02*
X14437563Y-12069174D01*
X14437563Y-12069174D02*
X14456610Y-12059650D01*
X14456610Y-12059650D02*
X14485182Y-12059650D01*
X14485182Y-12059650D02*
X14504230Y-12069174D01*
X14504230Y-12069174D02*
X14513753Y-12078698D01*
X14513753Y-12078698D02*
X14523277Y-12097746D01*
X14523277Y-12097746D02*
X14523277Y-12154888D01*
X14523277Y-12154888D02*
X14513753Y-12173936D01*
X14513753Y-12173936D02*
X14504230Y-12183460D01*
X14504230Y-12183460D02*
X14485182Y-12192984D01*
X14485182Y-12192984D02*
X14456610Y-12192984D01*
X14637563Y-12192984D02*
X14618515Y-12183460D01*
X14618515Y-12183460D02*
X14608991Y-12164412D01*
X14608991Y-12164412D02*
X14608991Y-11992984D01*
X14789944Y-12183460D02*
X14770896Y-12192984D01*
X14770896Y-12192984D02*
X14732801Y-12192984D01*
X14732801Y-12192984D02*
X14713753Y-12183460D01*
X14713753Y-12183460D02*
X14704230Y-12164412D01*
X14704230Y-12164412D02*
X14704230Y-12088222D01*
X14704230Y-12088222D02*
X14713753Y-12069174D01*
X14713753Y-12069174D02*
X14732801Y-12059650D01*
X14732801Y-12059650D02*
X14770896Y-12059650D01*
X14770896Y-12059650D02*
X14789944Y-12069174D01*
X14789944Y-12069174D02*
X14799468Y-12088222D01*
X14799468Y-12088222D02*
X14799468Y-12107269D01*
X14799468Y-12107269D02*
X14704230Y-12126317D01*
X14875658Y-12183460D02*
X14894706Y-12192984D01*
X14894706Y-12192984D02*
X14932801Y-12192984D01*
X14932801Y-12192984D02*
X14951849Y-12183460D01*
X14951849Y-12183460D02*
X14961372Y-12164412D01*
X14961372Y-12164412D02*
X14961372Y-12154888D01*
X14961372Y-12154888D02*
X14951849Y-12135841D01*
X14951849Y-12135841D02*
X14932801Y-12126317D01*
X14932801Y-12126317D02*
X14904230Y-12126317D01*
X14904230Y-12126317D02*
X14885182Y-12116793D01*
X14885182Y-12116793D02*
X14875658Y-12097746D01*
X14875658Y-12097746D02*
X14875658Y-12088222D01*
X14875658Y-12088222D02*
X14885182Y-12069174D01*
X14885182Y-12069174D02*
X14904230Y-12059650D01*
X14904230Y-12059650D02*
X14932801Y-12059650D01*
X14932801Y-12059650D02*
X14951849Y-12069174D01*
X15028039Y-12269174D02*
X15037563Y-12259650D01*
X15037563Y-12259650D02*
X15056611Y-12231079D01*
X15056611Y-12231079D02*
X15066134Y-12212031D01*
X15066134Y-12212031D02*
X15075658Y-12183460D01*
X15075658Y-12183460D02*
X15085182Y-12135841D01*
X15085182Y-12135841D02*
X15085182Y-12097746D01*
X15085182Y-12097746D02*
X15075658Y-12050127D01*
X15075658Y-12050127D02*
X15066134Y-12021555D01*
X15066134Y-12021555D02*
X15056611Y-12002508D01*
X15056611Y-12002508D02*
X15037563Y-11973936D01*
X15037563Y-11973936D02*
X15028039Y-11964412D01*
D12*
X10032500Y-12335500D02*
X10032500Y-12395500D01*
X10002500Y-12365500D02*
X10062500Y-12365500D01*
D11*
X10361372Y-12256984D02*
X10380420Y-12256984D01*
X10380420Y-12256984D02*
X10399467Y-12266508D01*
X10399467Y-12266508D02*
X10408991Y-12276031D01*
X10408991Y-12276031D02*
X10418515Y-12295079D01*
X10418515Y-12295079D02*
X10428039Y-12333174D01*
X10428039Y-12333174D02*
X10428039Y-12380793D01*
X10428039Y-12380793D02*
X10418515Y-12418888D01*
X10418515Y-12418888D02*
X10408991Y-12437936D01*
X10408991Y-12437936D02*
X10399467Y-12447460D01*
X10399467Y-12447460D02*
X10380420Y-12456984D01*
X10380420Y-12456984D02*
X10361372Y-12456984D01*
X10361372Y-12456984D02*
X10342324Y-12447460D01*
X10342324Y-12447460D02*
X10332801Y-12437936D01*
X10332801Y-12437936D02*
X10323277Y-12418888D01*
X10323277Y-12418888D02*
X10313753Y-12380793D01*
X10313753Y-12380793D02*
X10313753Y-12333174D01*
X10313753Y-12333174D02*
X10323277Y-12295079D01*
X10323277Y-12295079D02*
X10332801Y-12276031D01*
X10332801Y-12276031D02*
X10342324Y-12266508D01*
X10342324Y-12266508D02*
X10361372Y-12256984D01*
X10513753Y-12437936D02*
X10523277Y-12447460D01*
X10523277Y-12447460D02*
X10513753Y-12456984D01*
X10513753Y-12456984D02*
X10504229Y-12447460D01*
X10504229Y-12447460D02*
X10513753Y-12437936D01*
X10513753Y-12437936D02*
X10513753Y-12456984D01*
X10694705Y-12256984D02*
X10656610Y-12256984D01*
X10656610Y-12256984D02*
X10637563Y-12266508D01*
X10637563Y-12266508D02*
X10628039Y-12276031D01*
X10628039Y-12276031D02*
X10608991Y-12304603D01*
X10608991Y-12304603D02*
X10599467Y-12342698D01*
X10599467Y-12342698D02*
X10599467Y-12418888D01*
X10599467Y-12418888D02*
X10608991Y-12437936D01*
X10608991Y-12437936D02*
X10618515Y-12447460D01*
X10618515Y-12447460D02*
X10637563Y-12456984D01*
X10637563Y-12456984D02*
X10675658Y-12456984D01*
X10675658Y-12456984D02*
X10694705Y-12447460D01*
X10694705Y-12447460D02*
X10704229Y-12437936D01*
X10704229Y-12437936D02*
X10713753Y-12418888D01*
X10713753Y-12418888D02*
X10713753Y-12371269D01*
X10713753Y-12371269D02*
X10704229Y-12352222D01*
X10704229Y-12352222D02*
X10694705Y-12342698D01*
X10694705Y-12342698D02*
X10675658Y-12333174D01*
X10675658Y-12333174D02*
X10637563Y-12333174D01*
X10637563Y-12333174D02*
X10618515Y-12342698D01*
X10618515Y-12342698D02*
X10608991Y-12352222D01*
X10608991Y-12352222D02*
X10599467Y-12371269D01*
X10837563Y-12256984D02*
X10856610Y-12256984D01*
X10856610Y-12256984D02*
X10875658Y-12266508D01*
X10875658Y-12266508D02*
X10885182Y-12276031D01*
X10885182Y-12276031D02*
X10894705Y-12295079D01*
X10894705Y-12295079D02*
X10904229Y-12333174D01*
X10904229Y-12333174D02*
X10904229Y-12380793D01*
X10904229Y-12380793D02*
X10894705Y-12418888D01*
X10894705Y-12418888D02*
X10885182Y-12437936D01*
X10885182Y-12437936D02*
X10875658Y-12447460D01*
X10875658Y-12447460D02*
X10856610Y-12456984D01*
X10856610Y-12456984D02*
X10837563Y-12456984D01*
X10837563Y-12456984D02*
X10818515Y-12447460D01*
X10818515Y-12447460D02*
X10808991Y-12437936D01*
X10808991Y-12437936D02*
X10799467Y-12418888D01*
X10799467Y-12418888D02*
X10789944Y-12380793D01*
X10789944Y-12380793D02*
X10789944Y-12333174D01*
X10789944Y-12333174D02*
X10799467Y-12295079D01*
X10799467Y-12295079D02*
X10808991Y-12276031D01*
X10808991Y-12276031D02*
X10818515Y-12266508D01*
X10818515Y-12266508D02*
X10837563Y-12256984D01*
X11028039Y-12256984D02*
X11047086Y-12256984D01*
X11047086Y-12256984D02*
X11066134Y-12266508D01*
X11066134Y-12266508D02*
X11075658Y-12276031D01*
X11075658Y-12276031D02*
X11085182Y-12295079D01*
X11085182Y-12295079D02*
X11094705Y-12333174D01*
X11094705Y-12333174D02*
X11094705Y-12380793D01*
X11094705Y-12380793D02*
X11085182Y-12418888D01*
X11085182Y-12418888D02*
X11075658Y-12437936D01*
X11075658Y-12437936D02*
X11066134Y-12447460D01*
X11066134Y-12447460D02*
X11047086Y-12456984D01*
X11047086Y-12456984D02*
X11028039Y-12456984D01*
X11028039Y-12456984D02*
X11008991Y-12447460D01*
X11008991Y-12447460D02*
X10999467Y-12437936D01*
X10999467Y-12437936D02*
X10989944Y-12418888D01*
X10989944Y-12418888D02*
X10980420Y-12380793D01*
X10980420Y-12380793D02*
X10980420Y-12333174D01*
X10980420Y-12333174D02*
X10989944Y-12295079D01*
X10989944Y-12295079D02*
X10999467Y-12276031D01*
X10999467Y-12276031D02*
X11008991Y-12266508D01*
X11008991Y-12266508D02*
X11028039Y-12256984D01*
X11180420Y-12456984D02*
X11180420Y-12323650D01*
X11180420Y-12342698D02*
X11189943Y-12333174D01*
X11189943Y-12333174D02*
X11208991Y-12323650D01*
X11208991Y-12323650D02*
X11237563Y-12323650D01*
X11237563Y-12323650D02*
X11256610Y-12333174D01*
X11256610Y-12333174D02*
X11266134Y-12352222D01*
X11266134Y-12352222D02*
X11266134Y-12456984D01*
X11266134Y-12352222D02*
X11275658Y-12333174D01*
X11275658Y-12333174D02*
X11294705Y-12323650D01*
X11294705Y-12323650D02*
X11323277Y-12323650D01*
X11323277Y-12323650D02*
X11342324Y-12333174D01*
X11342324Y-12333174D02*
X11351848Y-12352222D01*
X11351848Y-12352222D02*
X11351848Y-12456984D01*
X11447086Y-12456984D02*
X11447086Y-12323650D01*
X11447086Y-12342698D02*
X11456610Y-12333174D01*
X11456610Y-12333174D02*
X11475658Y-12323650D01*
X11475658Y-12323650D02*
X11504229Y-12323650D01*
X11504229Y-12323650D02*
X11523277Y-12333174D01*
X11523277Y-12333174D02*
X11532801Y-12352222D01*
X11532801Y-12352222D02*
X11532801Y-12456984D01*
X11532801Y-12352222D02*
X11542324Y-12333174D01*
X11542324Y-12333174D02*
X11561372Y-12323650D01*
X11561372Y-12323650D02*
X11589943Y-12323650D01*
X11589943Y-12323650D02*
X11608991Y-12333174D01*
X11608991Y-12333174D02*
X11618515Y-12352222D01*
X11618515Y-12352222D02*
X11618515Y-12456984D01*
X12008991Y-12247460D02*
X11837563Y-12504603D01*
X12266134Y-12256984D02*
X12285182Y-12256984D01*
X12285182Y-12256984D02*
X12304229Y-12266508D01*
X12304229Y-12266508D02*
X12313753Y-12276031D01*
X12313753Y-12276031D02*
X12323277Y-12295079D01*
X12323277Y-12295079D02*
X12332801Y-12333174D01*
X12332801Y-12333174D02*
X12332801Y-12380793D01*
X12332801Y-12380793D02*
X12323277Y-12418888D01*
X12323277Y-12418888D02*
X12313753Y-12437936D01*
X12313753Y-12437936D02*
X12304229Y-12447460D01*
X12304229Y-12447460D02*
X12285182Y-12456984D01*
X12285182Y-12456984D02*
X12266134Y-12456984D01*
X12266134Y-12456984D02*
X12247086Y-12447460D01*
X12247086Y-12447460D02*
X12237563Y-12437936D01*
X12237563Y-12437936D02*
X12228039Y-12418888D01*
X12228039Y-12418888D02*
X12218515Y-12380793D01*
X12218515Y-12380793D02*
X12218515Y-12333174D01*
X12218515Y-12333174D02*
X12228039Y-12295079D01*
X12228039Y-12295079D02*
X12237563Y-12276031D01*
X12237563Y-12276031D02*
X12247086Y-12266508D01*
X12247086Y-12266508D02*
X12266134Y-12256984D01*
X12418515Y-12437936D02*
X12428039Y-12447460D01*
X12428039Y-12447460D02*
X12418515Y-12456984D01*
X12418515Y-12456984D02*
X12408991Y-12447460D01*
X12408991Y-12447460D02*
X12418515Y-12437936D01*
X12418515Y-12437936D02*
X12418515Y-12456984D01*
X12551848Y-12256984D02*
X12570896Y-12256984D01*
X12570896Y-12256984D02*
X12589944Y-12266508D01*
X12589944Y-12266508D02*
X12599467Y-12276031D01*
X12599467Y-12276031D02*
X12608991Y-12295079D01*
X12608991Y-12295079D02*
X12618515Y-12333174D01*
X12618515Y-12333174D02*
X12618515Y-12380793D01*
X12618515Y-12380793D02*
X12608991Y-12418888D01*
X12608991Y-12418888D02*
X12599467Y-12437936D01*
X12599467Y-12437936D02*
X12589944Y-12447460D01*
X12589944Y-12447460D02*
X12570896Y-12456984D01*
X12570896Y-12456984D02*
X12551848Y-12456984D01*
X12551848Y-12456984D02*
X12532801Y-12447460D01*
X12532801Y-12447460D02*
X12523277Y-12437936D01*
X12523277Y-12437936D02*
X12513753Y-12418888D01*
X12513753Y-12418888D02*
X12504229Y-12380793D01*
X12504229Y-12380793D02*
X12504229Y-12333174D01*
X12504229Y-12333174D02*
X12513753Y-12295079D01*
X12513753Y-12295079D02*
X12523277Y-12276031D01*
X12523277Y-12276031D02*
X12532801Y-12266508D01*
X12532801Y-12266508D02*
X12551848Y-12256984D01*
X12694706Y-12276031D02*
X12704229Y-12266508D01*
X12704229Y-12266508D02*
X12723277Y-12256984D01*
X12723277Y-12256984D02*
X12770896Y-12256984D01*
X12770896Y-12256984D02*
X12789944Y-12266508D01*
X12789944Y-12266508D02*
X12799467Y-12276031D01*
X12799467Y-12276031D02*
X12808991Y-12295079D01*
X12808991Y-12295079D02*
X12808991Y-12314127D01*
X12808991Y-12314127D02*
X12799467Y-12342698D01*
X12799467Y-12342698D02*
X12685182Y-12456984D01*
X12685182Y-12456984D02*
X12808991Y-12456984D01*
X12875658Y-12256984D02*
X12999467Y-12256984D01*
X12999467Y-12256984D02*
X12932801Y-12333174D01*
X12932801Y-12333174D02*
X12961372Y-12333174D01*
X12961372Y-12333174D02*
X12980420Y-12342698D01*
X12980420Y-12342698D02*
X12989944Y-12352222D01*
X12989944Y-12352222D02*
X12999467Y-12371269D01*
X12999467Y-12371269D02*
X12999467Y-12418888D01*
X12999467Y-12418888D02*
X12989944Y-12437936D01*
X12989944Y-12437936D02*
X12980420Y-12447460D01*
X12980420Y-12447460D02*
X12961372Y-12456984D01*
X12961372Y-12456984D02*
X12904229Y-12456984D01*
X12904229Y-12456984D02*
X12885182Y-12447460D01*
X12885182Y-12447460D02*
X12875658Y-12437936D01*
X13170896Y-12256984D02*
X13132801Y-12256984D01*
X13132801Y-12256984D02*
X13113753Y-12266508D01*
X13113753Y-12266508D02*
X13104229Y-12276031D01*
X13104229Y-12276031D02*
X13085182Y-12304603D01*
X13085182Y-12304603D02*
X13075658Y-12342698D01*
X13075658Y-12342698D02*
X13075658Y-12418888D01*
X13075658Y-12418888D02*
X13085182Y-12437936D01*
X13085182Y-12437936D02*
X13094706Y-12447460D01*
X13094706Y-12447460D02*
X13113753Y-12456984D01*
X13113753Y-12456984D02*
X13151848Y-12456984D01*
X13151848Y-12456984D02*
X13170896Y-12447460D01*
X13170896Y-12447460D02*
X13180420Y-12437936D01*
X13180420Y-12437936D02*
X13189944Y-12418888D01*
X13189944Y-12418888D02*
X13189944Y-12371269D01*
X13189944Y-12371269D02*
X13180420Y-12352222D01*
X13180420Y-12352222D02*
X13170896Y-12342698D01*
X13170896Y-12342698D02*
X13151848Y-12333174D01*
X13151848Y-12333174D02*
X13113753Y-12333174D01*
X13113753Y-12333174D02*
X13094706Y-12342698D01*
X13094706Y-12342698D02*
X13085182Y-12352222D01*
X13085182Y-12352222D02*
X13075658Y-12371269D01*
X13266134Y-12256984D02*
X13266134Y-12295079D01*
X13342325Y-12256984D02*
X13342325Y-12295079D01*
X13637563Y-12533174D02*
X13628039Y-12523650D01*
X13628039Y-12523650D02*
X13608991Y-12495079D01*
X13608991Y-12495079D02*
X13599468Y-12476031D01*
X13599468Y-12476031D02*
X13589944Y-12447460D01*
X13589944Y-12447460D02*
X13580420Y-12399841D01*
X13580420Y-12399841D02*
X13580420Y-12361746D01*
X13580420Y-12361746D02*
X13589944Y-12314127D01*
X13589944Y-12314127D02*
X13599468Y-12285555D01*
X13599468Y-12285555D02*
X13608991Y-12266508D01*
X13608991Y-12266508D02*
X13628039Y-12237936D01*
X13628039Y-12237936D02*
X13637563Y-12228412D01*
X13704229Y-12276031D02*
X13713753Y-12266508D01*
X13713753Y-12266508D02*
X13732801Y-12256984D01*
X13732801Y-12256984D02*
X13780420Y-12256984D01*
X13780420Y-12256984D02*
X13799468Y-12266508D01*
X13799468Y-12266508D02*
X13808991Y-12276031D01*
X13808991Y-12276031D02*
X13818515Y-12295079D01*
X13818515Y-12295079D02*
X13818515Y-12314127D01*
X13818515Y-12314127D02*
X13808991Y-12342698D01*
X13808991Y-12342698D02*
X13694706Y-12456984D01*
X13694706Y-12456984D02*
X13818515Y-12456984D01*
X14056610Y-12456984D02*
X14056610Y-12256984D01*
X14142325Y-12456984D02*
X14142325Y-12352222D01*
X14142325Y-12352222D02*
X14132801Y-12333174D01*
X14132801Y-12333174D02*
X14113753Y-12323650D01*
X14113753Y-12323650D02*
X14085182Y-12323650D01*
X14085182Y-12323650D02*
X14066134Y-12333174D01*
X14066134Y-12333174D02*
X14056610Y-12342698D01*
X14266134Y-12456984D02*
X14247087Y-12447460D01*
X14247087Y-12447460D02*
X14237563Y-12437936D01*
X14237563Y-12437936D02*
X14228039Y-12418888D01*
X14228039Y-12418888D02*
X14228039Y-12361746D01*
X14228039Y-12361746D02*
X14237563Y-12342698D01*
X14237563Y-12342698D02*
X14247087Y-12333174D01*
X14247087Y-12333174D02*
X14266134Y-12323650D01*
X14266134Y-12323650D02*
X14294706Y-12323650D01*
X14294706Y-12323650D02*
X14313753Y-12333174D01*
X14313753Y-12333174D02*
X14323277Y-12342698D01*
X14323277Y-12342698D02*
X14332801Y-12361746D01*
X14332801Y-12361746D02*
X14332801Y-12418888D01*
X14332801Y-12418888D02*
X14323277Y-12437936D01*
X14323277Y-12437936D02*
X14313753Y-12447460D01*
X14313753Y-12447460D02*
X14294706Y-12456984D01*
X14294706Y-12456984D02*
X14266134Y-12456984D01*
X14447087Y-12456984D02*
X14428039Y-12447460D01*
X14428039Y-12447460D02*
X14418515Y-12428412D01*
X14418515Y-12428412D02*
X14418515Y-12256984D01*
X14599468Y-12447460D02*
X14580420Y-12456984D01*
X14580420Y-12456984D02*
X14542325Y-12456984D01*
X14542325Y-12456984D02*
X14523277Y-12447460D01*
X14523277Y-12447460D02*
X14513753Y-12428412D01*
X14513753Y-12428412D02*
X14513753Y-12352222D01*
X14513753Y-12352222D02*
X14523277Y-12333174D01*
X14523277Y-12333174D02*
X14542325Y-12323650D01*
X14542325Y-12323650D02*
X14580420Y-12323650D01*
X14580420Y-12323650D02*
X14599468Y-12333174D01*
X14599468Y-12333174D02*
X14608991Y-12352222D01*
X14608991Y-12352222D02*
X14608991Y-12371269D01*
X14608991Y-12371269D02*
X14513753Y-12390317D01*
X14685182Y-12447460D02*
X14704230Y-12456984D01*
X14704230Y-12456984D02*
X14742325Y-12456984D01*
X14742325Y-12456984D02*
X14761372Y-12447460D01*
X14761372Y-12447460D02*
X14770896Y-12428412D01*
X14770896Y-12428412D02*
X14770896Y-12418888D01*
X14770896Y-12418888D02*
X14761372Y-12399841D01*
X14761372Y-12399841D02*
X14742325Y-12390317D01*
X14742325Y-12390317D02*
X14713753Y-12390317D01*
X14713753Y-12390317D02*
X14694706Y-12380793D01*
X14694706Y-12380793D02*
X14685182Y-12361746D01*
X14685182Y-12361746D02*
X14685182Y-12352222D01*
X14685182Y-12352222D02*
X14694706Y-12333174D01*
X14694706Y-12333174D02*
X14713753Y-12323650D01*
X14713753Y-12323650D02*
X14742325Y-12323650D01*
X14742325Y-12323650D02*
X14761372Y-12333174D01*
X15008992Y-12380793D02*
X15161373Y-12380793D01*
X15085182Y-12456984D02*
X15085182Y-12304603D01*
X15494706Y-12323650D02*
X15494706Y-12456984D01*
X15447087Y-12247460D02*
X15399468Y-12390317D01*
X15399468Y-12390317D02*
X15523277Y-12390317D01*
X15742325Y-12447460D02*
X15761373Y-12456984D01*
X15761373Y-12456984D02*
X15799468Y-12456984D01*
X15799468Y-12456984D02*
X15818515Y-12447460D01*
X15818515Y-12447460D02*
X15828039Y-12428412D01*
X15828039Y-12428412D02*
X15828039Y-12418888D01*
X15828039Y-12418888D02*
X15818515Y-12399841D01*
X15818515Y-12399841D02*
X15799468Y-12390317D01*
X15799468Y-12390317D02*
X15770896Y-12390317D01*
X15770896Y-12390317D02*
X15751849Y-12380793D01*
X15751849Y-12380793D02*
X15742325Y-12361746D01*
X15742325Y-12361746D02*
X15742325Y-12352222D01*
X15742325Y-12352222D02*
X15751849Y-12333174D01*
X15751849Y-12333174D02*
X15770896Y-12323650D01*
X15770896Y-12323650D02*
X15799468Y-12323650D01*
X15799468Y-12323650D02*
X15818515Y-12333174D01*
X15942325Y-12456984D02*
X15923277Y-12447460D01*
X15923277Y-12447460D02*
X15913754Y-12428412D01*
X15913754Y-12428412D02*
X15913754Y-12256984D01*
X16047087Y-12456984D02*
X16028039Y-12447460D01*
X16028039Y-12447460D02*
X16018515Y-12437936D01*
X16018515Y-12437936D02*
X16008992Y-12418888D01*
X16008992Y-12418888D02*
X16008992Y-12361746D01*
X16008992Y-12361746D02*
X16018515Y-12342698D01*
X16018515Y-12342698D02*
X16028039Y-12333174D01*
X16028039Y-12333174D02*
X16047087Y-12323650D01*
X16047087Y-12323650D02*
X16075658Y-12323650D01*
X16075658Y-12323650D02*
X16094706Y-12333174D01*
X16094706Y-12333174D02*
X16104230Y-12342698D01*
X16104230Y-12342698D02*
X16113754Y-12361746D01*
X16113754Y-12361746D02*
X16113754Y-12418888D01*
X16113754Y-12418888D02*
X16104230Y-12437936D01*
X16104230Y-12437936D02*
X16094706Y-12447460D01*
X16094706Y-12447460D02*
X16075658Y-12456984D01*
X16075658Y-12456984D02*
X16047087Y-12456984D01*
X16170896Y-12323650D02*
X16247087Y-12323650D01*
X16199468Y-12256984D02*
X16199468Y-12428412D01*
X16199468Y-12428412D02*
X16208992Y-12447460D01*
X16208992Y-12447460D02*
X16228039Y-12456984D01*
X16228039Y-12456984D02*
X16247087Y-12456984D01*
X16304230Y-12447460D02*
X16323277Y-12456984D01*
X16323277Y-12456984D02*
X16361373Y-12456984D01*
X16361373Y-12456984D02*
X16380420Y-12447460D01*
X16380420Y-12447460D02*
X16389944Y-12428412D01*
X16389944Y-12428412D02*
X16389944Y-12418888D01*
X16389944Y-12418888D02*
X16380420Y-12399841D01*
X16380420Y-12399841D02*
X16361373Y-12390317D01*
X16361373Y-12390317D02*
X16332801Y-12390317D01*
X16332801Y-12390317D02*
X16313754Y-12380793D01*
X16313754Y-12380793D02*
X16304230Y-12361746D01*
X16304230Y-12361746D02*
X16304230Y-12352222D01*
X16304230Y-12352222D02*
X16313754Y-12333174D01*
X16313754Y-12333174D02*
X16332801Y-12323650D01*
X16332801Y-12323650D02*
X16361373Y-12323650D01*
X16361373Y-12323650D02*
X16380420Y-12333174D01*
X16456611Y-12533174D02*
X16466135Y-12523650D01*
X16466135Y-12523650D02*
X16485182Y-12495079D01*
X16485182Y-12495079D02*
X16494706Y-12476031D01*
X16494706Y-12476031D02*
X16504230Y-12447460D01*
X16504230Y-12447460D02*
X16513754Y-12399841D01*
X16513754Y-12399841D02*
X16513754Y-12361746D01*
X16513754Y-12361746D02*
X16504230Y-12314127D01*
X16504230Y-12314127D02*
X16494706Y-12285555D01*
X16494706Y-12285555D02*
X16485182Y-12266508D01*
X16485182Y-12266508D02*
X16466135Y-12237936D01*
X16466135Y-12237936D02*
X16456611Y-12228412D01*
D12*
X10051517Y-12656017D02*
X10051517Y-12602983D01*
X9998483Y-12602983D01*
X9998483Y-12656017D01*
X10051517Y-12656017D01*
D11*
X10361372Y-12520984D02*
X10380420Y-12520984D01*
X10380420Y-12520984D02*
X10399467Y-12530508D01*
X10399467Y-12530508D02*
X10408991Y-12540031D01*
X10408991Y-12540031D02*
X10418515Y-12559079D01*
X10418515Y-12559079D02*
X10428039Y-12597174D01*
X10428039Y-12597174D02*
X10428039Y-12644793D01*
X10428039Y-12644793D02*
X10418515Y-12682888D01*
X10418515Y-12682888D02*
X10408991Y-12701936D01*
X10408991Y-12701936D02*
X10399467Y-12711460D01*
X10399467Y-12711460D02*
X10380420Y-12720984D01*
X10380420Y-12720984D02*
X10361372Y-12720984D01*
X10361372Y-12720984D02*
X10342324Y-12711460D01*
X10342324Y-12711460D02*
X10332801Y-12701936D01*
X10332801Y-12701936D02*
X10323277Y-12682888D01*
X10323277Y-12682888D02*
X10313753Y-12644793D01*
X10313753Y-12644793D02*
X10313753Y-12597174D01*
X10313753Y-12597174D02*
X10323277Y-12559079D01*
X10323277Y-12559079D02*
X10332801Y-12540031D01*
X10332801Y-12540031D02*
X10342324Y-12530508D01*
X10342324Y-12530508D02*
X10361372Y-12520984D01*
X10513753Y-12701936D02*
X10523277Y-12711460D01*
X10523277Y-12711460D02*
X10513753Y-12720984D01*
X10513753Y-12720984D02*
X10504229Y-12711460D01*
X10504229Y-12711460D02*
X10513753Y-12701936D01*
X10513753Y-12701936D02*
X10513753Y-12720984D01*
X10589944Y-12520984D02*
X10723277Y-12520984D01*
X10723277Y-12520984D02*
X10637563Y-12720984D01*
X10894705Y-12520984D02*
X10799467Y-12520984D01*
X10799467Y-12520984D02*
X10789944Y-12616222D01*
X10789944Y-12616222D02*
X10799467Y-12606698D01*
X10799467Y-12606698D02*
X10818515Y-12597174D01*
X10818515Y-12597174D02*
X10866134Y-12597174D01*
X10866134Y-12597174D02*
X10885182Y-12606698D01*
X10885182Y-12606698D02*
X10894705Y-12616222D01*
X10894705Y-12616222D02*
X10904229Y-12635269D01*
X10904229Y-12635269D02*
X10904229Y-12682888D01*
X10904229Y-12682888D02*
X10894705Y-12701936D01*
X10894705Y-12701936D02*
X10885182Y-12711460D01*
X10885182Y-12711460D02*
X10866134Y-12720984D01*
X10866134Y-12720984D02*
X10818515Y-12720984D01*
X10818515Y-12720984D02*
X10799467Y-12711460D01*
X10799467Y-12711460D02*
X10789944Y-12701936D01*
X11028039Y-12520984D02*
X11047086Y-12520984D01*
X11047086Y-12520984D02*
X11066134Y-12530508D01*
X11066134Y-12530508D02*
X11075658Y-12540031D01*
X11075658Y-12540031D02*
X11085182Y-12559079D01*
X11085182Y-12559079D02*
X11094705Y-12597174D01*
X11094705Y-12597174D02*
X11094705Y-12644793D01*
X11094705Y-12644793D02*
X11085182Y-12682888D01*
X11085182Y-12682888D02*
X11075658Y-12701936D01*
X11075658Y-12701936D02*
X11066134Y-12711460D01*
X11066134Y-12711460D02*
X11047086Y-12720984D01*
X11047086Y-12720984D02*
X11028039Y-12720984D01*
X11028039Y-12720984D02*
X11008991Y-12711460D01*
X11008991Y-12711460D02*
X10999467Y-12701936D01*
X10999467Y-12701936D02*
X10989944Y-12682888D01*
X10989944Y-12682888D02*
X10980420Y-12644793D01*
X10980420Y-12644793D02*
X10980420Y-12597174D01*
X10980420Y-12597174D02*
X10989944Y-12559079D01*
X10989944Y-12559079D02*
X10999467Y-12540031D01*
X10999467Y-12540031D02*
X11008991Y-12530508D01*
X11008991Y-12530508D02*
X11028039Y-12520984D01*
X11180420Y-12720984D02*
X11180420Y-12587650D01*
X11180420Y-12606698D02*
X11189943Y-12597174D01*
X11189943Y-12597174D02*
X11208991Y-12587650D01*
X11208991Y-12587650D02*
X11237563Y-12587650D01*
X11237563Y-12587650D02*
X11256610Y-12597174D01*
X11256610Y-12597174D02*
X11266134Y-12616222D01*
X11266134Y-12616222D02*
X11266134Y-12720984D01*
X11266134Y-12616222D02*
X11275658Y-12597174D01*
X11275658Y-12597174D02*
X11294705Y-12587650D01*
X11294705Y-12587650D02*
X11323277Y-12587650D01*
X11323277Y-12587650D02*
X11342324Y-12597174D01*
X11342324Y-12597174D02*
X11351848Y-12616222D01*
X11351848Y-12616222D02*
X11351848Y-12720984D01*
X11447086Y-12720984D02*
X11447086Y-12587650D01*
X11447086Y-12606698D02*
X11456610Y-12597174D01*
X11456610Y-12597174D02*
X11475658Y-12587650D01*
X11475658Y-12587650D02*
X11504229Y-12587650D01*
X11504229Y-12587650D02*
X11523277Y-12597174D01*
X11523277Y-12597174D02*
X11532801Y-12616222D01*
X11532801Y-12616222D02*
X11532801Y-12720984D01*
X11532801Y-12616222D02*
X11542324Y-12597174D01*
X11542324Y-12597174D02*
X11561372Y-12587650D01*
X11561372Y-12587650D02*
X11589943Y-12587650D01*
X11589943Y-12587650D02*
X11608991Y-12597174D01*
X11608991Y-12597174D02*
X11618515Y-12616222D01*
X11618515Y-12616222D02*
X11618515Y-12720984D01*
X12008991Y-12511460D02*
X11837563Y-12768603D01*
X12266134Y-12520984D02*
X12285182Y-12520984D01*
X12285182Y-12520984D02*
X12304229Y-12530508D01*
X12304229Y-12530508D02*
X12313753Y-12540031D01*
X12313753Y-12540031D02*
X12323277Y-12559079D01*
X12323277Y-12559079D02*
X12332801Y-12597174D01*
X12332801Y-12597174D02*
X12332801Y-12644793D01*
X12332801Y-12644793D02*
X12323277Y-12682888D01*
X12323277Y-12682888D02*
X12313753Y-12701936D01*
X12313753Y-12701936D02*
X12304229Y-12711460D01*
X12304229Y-12711460D02*
X12285182Y-12720984D01*
X12285182Y-12720984D02*
X12266134Y-12720984D01*
X12266134Y-12720984D02*
X12247086Y-12711460D01*
X12247086Y-12711460D02*
X12237563Y-12701936D01*
X12237563Y-12701936D02*
X12228039Y-12682888D01*
X12228039Y-12682888D02*
X12218515Y-12644793D01*
X12218515Y-12644793D02*
X12218515Y-12597174D01*
X12218515Y-12597174D02*
X12228039Y-12559079D01*
X12228039Y-12559079D02*
X12237563Y-12540031D01*
X12237563Y-12540031D02*
X12247086Y-12530508D01*
X12247086Y-12530508D02*
X12266134Y-12520984D01*
X12418515Y-12701936D02*
X12428039Y-12711460D01*
X12428039Y-12711460D02*
X12418515Y-12720984D01*
X12418515Y-12720984D02*
X12408991Y-12711460D01*
X12408991Y-12711460D02*
X12418515Y-12701936D01*
X12418515Y-12701936D02*
X12418515Y-12720984D01*
X12551848Y-12520984D02*
X12570896Y-12520984D01*
X12570896Y-12520984D02*
X12589944Y-12530508D01*
X12589944Y-12530508D02*
X12599467Y-12540031D01*
X12599467Y-12540031D02*
X12608991Y-12559079D01*
X12608991Y-12559079D02*
X12618515Y-12597174D01*
X12618515Y-12597174D02*
X12618515Y-12644793D01*
X12618515Y-12644793D02*
X12608991Y-12682888D01*
X12608991Y-12682888D02*
X12599467Y-12701936D01*
X12599467Y-12701936D02*
X12589944Y-12711460D01*
X12589944Y-12711460D02*
X12570896Y-12720984D01*
X12570896Y-12720984D02*
X12551848Y-12720984D01*
X12551848Y-12720984D02*
X12532801Y-12711460D01*
X12532801Y-12711460D02*
X12523277Y-12701936D01*
X12523277Y-12701936D02*
X12513753Y-12682888D01*
X12513753Y-12682888D02*
X12504229Y-12644793D01*
X12504229Y-12644793D02*
X12504229Y-12597174D01*
X12504229Y-12597174D02*
X12513753Y-12559079D01*
X12513753Y-12559079D02*
X12523277Y-12540031D01*
X12523277Y-12540031D02*
X12532801Y-12530508D01*
X12532801Y-12530508D02*
X12551848Y-12520984D01*
X12694706Y-12540031D02*
X12704229Y-12530508D01*
X12704229Y-12530508D02*
X12723277Y-12520984D01*
X12723277Y-12520984D02*
X12770896Y-12520984D01*
X12770896Y-12520984D02*
X12789944Y-12530508D01*
X12789944Y-12530508D02*
X12799467Y-12540031D01*
X12799467Y-12540031D02*
X12808991Y-12559079D01*
X12808991Y-12559079D02*
X12808991Y-12578127D01*
X12808991Y-12578127D02*
X12799467Y-12606698D01*
X12799467Y-12606698D02*
X12685182Y-12720984D01*
X12685182Y-12720984D02*
X12808991Y-12720984D01*
X12904229Y-12720984D02*
X12942325Y-12720984D01*
X12942325Y-12720984D02*
X12961372Y-12711460D01*
X12961372Y-12711460D02*
X12970896Y-12701936D01*
X12970896Y-12701936D02*
X12989944Y-12673365D01*
X12989944Y-12673365D02*
X12999467Y-12635269D01*
X12999467Y-12635269D02*
X12999467Y-12559079D01*
X12999467Y-12559079D02*
X12989944Y-12540031D01*
X12989944Y-12540031D02*
X12980420Y-12530508D01*
X12980420Y-12530508D02*
X12961372Y-12520984D01*
X12961372Y-12520984D02*
X12923277Y-12520984D01*
X12923277Y-12520984D02*
X12904229Y-12530508D01*
X12904229Y-12530508D02*
X12894706Y-12540031D01*
X12894706Y-12540031D02*
X12885182Y-12559079D01*
X12885182Y-12559079D02*
X12885182Y-12606698D01*
X12885182Y-12606698D02*
X12894706Y-12625746D01*
X12894706Y-12625746D02*
X12904229Y-12635269D01*
X12904229Y-12635269D02*
X12923277Y-12644793D01*
X12923277Y-12644793D02*
X12961372Y-12644793D01*
X12961372Y-12644793D02*
X12980420Y-12635269D01*
X12980420Y-12635269D02*
X12989944Y-12625746D01*
X12989944Y-12625746D02*
X12999467Y-12606698D01*
X13180420Y-12520984D02*
X13085182Y-12520984D01*
X13085182Y-12520984D02*
X13075658Y-12616222D01*
X13075658Y-12616222D02*
X13085182Y-12606698D01*
X13085182Y-12606698D02*
X13104229Y-12597174D01*
X13104229Y-12597174D02*
X13151848Y-12597174D01*
X13151848Y-12597174D02*
X13170896Y-12606698D01*
X13170896Y-12606698D02*
X13180420Y-12616222D01*
X13180420Y-12616222D02*
X13189944Y-12635269D01*
X13189944Y-12635269D02*
X13189944Y-12682888D01*
X13189944Y-12682888D02*
X13180420Y-12701936D01*
X13180420Y-12701936D02*
X13170896Y-12711460D01*
X13170896Y-12711460D02*
X13151848Y-12720984D01*
X13151848Y-12720984D02*
X13104229Y-12720984D01*
X13104229Y-12720984D02*
X13085182Y-12711460D01*
X13085182Y-12711460D02*
X13075658Y-12701936D01*
X13266134Y-12520984D02*
X13266134Y-12559079D01*
X13342325Y-12520984D02*
X13342325Y-12559079D01*
X13637563Y-12797174D02*
X13628039Y-12787650D01*
X13628039Y-12787650D02*
X13608991Y-12759079D01*
X13608991Y-12759079D02*
X13599468Y-12740031D01*
X13599468Y-12740031D02*
X13589944Y-12711460D01*
X13589944Y-12711460D02*
X13580420Y-12663841D01*
X13580420Y-12663841D02*
X13580420Y-12625746D01*
X13580420Y-12625746D02*
X13589944Y-12578127D01*
X13589944Y-12578127D02*
X13599468Y-12549555D01*
X13599468Y-12549555D02*
X13608991Y-12530508D01*
X13608991Y-12530508D02*
X13628039Y-12501936D01*
X13628039Y-12501936D02*
X13637563Y-12492412D01*
X13808991Y-12520984D02*
X13713753Y-12520984D01*
X13713753Y-12520984D02*
X13704229Y-12616222D01*
X13704229Y-12616222D02*
X13713753Y-12606698D01*
X13713753Y-12606698D02*
X13732801Y-12597174D01*
X13732801Y-12597174D02*
X13780420Y-12597174D01*
X13780420Y-12597174D02*
X13799468Y-12606698D01*
X13799468Y-12606698D02*
X13808991Y-12616222D01*
X13808991Y-12616222D02*
X13818515Y-12635269D01*
X13818515Y-12635269D02*
X13818515Y-12682888D01*
X13818515Y-12682888D02*
X13808991Y-12701936D01*
X13808991Y-12701936D02*
X13799468Y-12711460D01*
X13799468Y-12711460D02*
X13780420Y-12720984D01*
X13780420Y-12720984D02*
X13732801Y-12720984D01*
X13732801Y-12720984D02*
X13713753Y-12711460D01*
X13713753Y-12711460D02*
X13704229Y-12701936D01*
X14056610Y-12720984D02*
X14056610Y-12520984D01*
X14142325Y-12720984D02*
X14142325Y-12616222D01*
X14142325Y-12616222D02*
X14132801Y-12597174D01*
X14132801Y-12597174D02*
X14113753Y-12587650D01*
X14113753Y-12587650D02*
X14085182Y-12587650D01*
X14085182Y-12587650D02*
X14066134Y-12597174D01*
X14066134Y-12597174D02*
X14056610Y-12606698D01*
X14266134Y-12720984D02*
X14247087Y-12711460D01*
X14247087Y-12711460D02*
X14237563Y-12701936D01*
X14237563Y-12701936D02*
X14228039Y-12682888D01*
X14228039Y-12682888D02*
X14228039Y-12625746D01*
X14228039Y-12625746D02*
X14237563Y-12606698D01*
X14237563Y-12606698D02*
X14247087Y-12597174D01*
X14247087Y-12597174D02*
X14266134Y-12587650D01*
X14266134Y-12587650D02*
X14294706Y-12587650D01*
X14294706Y-12587650D02*
X14313753Y-12597174D01*
X14313753Y-12597174D02*
X14323277Y-12606698D01*
X14323277Y-12606698D02*
X14332801Y-12625746D01*
X14332801Y-12625746D02*
X14332801Y-12682888D01*
X14332801Y-12682888D02*
X14323277Y-12701936D01*
X14323277Y-12701936D02*
X14313753Y-12711460D01*
X14313753Y-12711460D02*
X14294706Y-12720984D01*
X14294706Y-12720984D02*
X14266134Y-12720984D01*
X14447087Y-12720984D02*
X14428039Y-12711460D01*
X14428039Y-12711460D02*
X14418515Y-12692412D01*
X14418515Y-12692412D02*
X14418515Y-12520984D01*
X14599468Y-12711460D02*
X14580420Y-12720984D01*
X14580420Y-12720984D02*
X14542325Y-12720984D01*
X14542325Y-12720984D02*
X14523277Y-12711460D01*
X14523277Y-12711460D02*
X14513753Y-12692412D01*
X14513753Y-12692412D02*
X14513753Y-12616222D01*
X14513753Y-12616222D02*
X14523277Y-12597174D01*
X14523277Y-12597174D02*
X14542325Y-12587650D01*
X14542325Y-12587650D02*
X14580420Y-12587650D01*
X14580420Y-12587650D02*
X14599468Y-12597174D01*
X14599468Y-12597174D02*
X14608991Y-12616222D01*
X14608991Y-12616222D02*
X14608991Y-12635269D01*
X14608991Y-12635269D02*
X14513753Y-12654317D01*
X14685182Y-12711460D02*
X14704230Y-12720984D01*
X14704230Y-12720984D02*
X14742325Y-12720984D01*
X14742325Y-12720984D02*
X14761372Y-12711460D01*
X14761372Y-12711460D02*
X14770896Y-12692412D01*
X14770896Y-12692412D02*
X14770896Y-12682888D01*
X14770896Y-12682888D02*
X14761372Y-12663841D01*
X14761372Y-12663841D02*
X14742325Y-12654317D01*
X14742325Y-12654317D02*
X14713753Y-12654317D01*
X14713753Y-12654317D02*
X14694706Y-12644793D01*
X14694706Y-12644793D02*
X14685182Y-12625746D01*
X14685182Y-12625746D02*
X14685182Y-12616222D01*
X14685182Y-12616222D02*
X14694706Y-12597174D01*
X14694706Y-12597174D02*
X14713753Y-12587650D01*
X14713753Y-12587650D02*
X14742325Y-12587650D01*
X14742325Y-12587650D02*
X14761372Y-12597174D01*
X14837563Y-12797174D02*
X14847087Y-12787650D01*
X14847087Y-12787650D02*
X14866134Y-12759079D01*
X14866134Y-12759079D02*
X14875658Y-12740031D01*
X14875658Y-12740031D02*
X14885182Y-12711460D01*
X14885182Y-12711460D02*
X14894706Y-12663841D01*
X14894706Y-12663841D02*
X14894706Y-12625746D01*
X14894706Y-12625746D02*
X14885182Y-12578127D01*
X14885182Y-12578127D02*
X14875658Y-12549555D01*
X14875658Y-12549555D02*
X14866134Y-12530508D01*
X14866134Y-12530508D02*
X14847087Y-12501936D01*
X14847087Y-12501936D02*
X14837563Y-12492412D01*
M02*
