G04 #@! TF.GenerationSoftware,KiCad,Pcbnew,8.0.6-8.0.6-0~ubuntu24.04.1*
G04 #@! TF.CreationDate,2024-11-07T20:15:22-08:00*
G04 #@! TF.ProjectId,uSlime,75536c69-6d65-42e6-9b69-6361645f7063,rev?*
G04 #@! TF.SameCoordinates,Original*
G04 #@! TF.FileFunction,Legend,Top*
G04 #@! TF.FilePolarity,Positive*
%FSLAX46Y46*%
G04 Gerber Fmt 4.6, Leading zero omitted, Abs format (unit mm)*
G04 Created by KiCad (PCBNEW 8.0.6-8.0.6-0~ubuntu24.04.1) date 2024-11-07 20:15:22*
%MOMM*%
%LPD*%
G01*
G04 APERTURE LIST*
G04 Aperture macros list*
%AMRoundRect*
0 Rectangle with rounded corners*
0 $1 Rounding radius*
0 $2 $3 $4 $5 $6 $7 $8 $9 X,Y pos of 4 corners*
0 Add a 4 corners polygon primitive as box body*
4,1,4,$2,$3,$4,$5,$6,$7,$8,$9,$2,$3,0*
0 Add four circle primitives for the rounded corners*
1,1,$1+$1,$2,$3*
1,1,$1+$1,$4,$5*
1,1,$1+$1,$6,$7*
1,1,$1+$1,$8,$9*
0 Add four rect primitives between the rounded corners*
20,1,$1+$1,$2,$3,$4,$5,0*
20,1,$1+$1,$4,$5,$6,$7,0*
20,1,$1+$1,$6,$7,$8,$9,0*
20,1,$1+$1,$8,$9,$2,$3,0*%
%AMFreePoly0*
4,1,6,0.725000,-0.725000,-0.725000,-0.725000,-0.725000,0.125000,-0.125000,0.725000,0.725000,0.725000,0.725000,-0.725000,0.725000,-0.725000,$1*%
G04 Aperture macros list end*
%ADD10C,0.100000*%
%ADD11C,0.150000*%
%ADD12C,0.152400*%
%ADD13C,0.254000*%
%ADD14C,0.120000*%
%ADD15C,0.152000*%
%ADD16C,0.250000*%
%ADD17C,0.101600*%
%ADD18C,0.127000*%
%ADD19C,0.200000*%
%ADD20RoundRect,0.147500X-0.172500X0.147500X-0.172500X-0.147500X0.172500X-0.147500X0.172500X0.147500X0*%
%ADD21C,1.200000*%
%ADD22RoundRect,0.135000X-0.135000X-0.185000X0.135000X-0.185000X0.135000X0.185000X-0.135000X0.185000X0*%
%ADD23RoundRect,0.135000X0.135000X0.185000X-0.135000X0.185000X-0.135000X-0.185000X0.135000X-0.185000X0*%
%ADD24R,0.800000X0.700000*%
%ADD25RoundRect,0.135000X0.185000X-0.135000X0.185000X0.135000X-0.185000X0.135000X-0.185000X-0.135000X0*%
%ADD26RoundRect,0.140000X0.170000X-0.140000X0.170000X0.140000X-0.170000X0.140000X-0.170000X-0.140000X0*%
%ADD27RoundRect,0.140000X-0.170000X0.140000X-0.170000X-0.140000X0.170000X-0.140000X0.170000X0.140000X0*%
%ADD28C,0.650000*%
%ADD29RoundRect,0.150000X-0.150000X-0.425000X0.150000X-0.425000X0.150000X0.425000X-0.150000X0.425000X0*%
%ADD30RoundRect,0.075000X-0.075000X-0.500000X0.075000X-0.500000X0.075000X0.500000X-0.075000X0.500000X0*%
%ADD31O,1.000000X2.100000*%
%ADD32O,1.000000X1.800000*%
%ADD33RoundRect,0.135000X-0.185000X0.135000X-0.185000X-0.135000X0.185000X-0.135000X0.185000X0.135000X0*%
%ADD34RoundRect,0.140000X-0.140000X-0.170000X0.140000X-0.170000X0.140000X0.170000X-0.140000X0.170000X0*%
%ADD35R,0.250000X0.914400*%
%ADD36R,0.812800X0.250000*%
%ADD37C,3.100000*%
%ADD38R,1.320800X0.508000*%
%ADD39R,0.800000X0.400000*%
%ADD40R,0.400000X0.800000*%
%ADD41FreePoly0,0.000000*%
%ADD42R,1.450000X1.450000*%
%ADD43R,0.700000X0.700000*%
%ADD44C,0.900000*%
%ADD45R,0.700000X1.500000*%
%ADD46R,1.000000X0.800000*%
%ADD47C,0.800000*%
%ADD48R,1.700000X0.900000*%
%ADD49C,1.000000*%
%ADD50RoundRect,0.060300X-0.716700X0.341700X-0.716700X-0.341700X0.716700X-0.341700X0.716700X0.341700X0*%
G04 APERTURE END LIST*
D10*
X115366666Y-91359133D02*
X115366666Y-91859133D01*
X115366666Y-91859133D02*
X115333333Y-91959133D01*
X115333333Y-91959133D02*
X115266666Y-92025800D01*
X115266666Y-92025800D02*
X115166666Y-92059133D01*
X115166666Y-92059133D02*
X115100000Y-92059133D01*
X116033333Y-92059133D02*
X115699999Y-92059133D01*
X115699999Y-92059133D02*
X115699999Y-91359133D01*
X116666666Y-91992466D02*
X116633333Y-92025800D01*
X116633333Y-92025800D02*
X116533333Y-92059133D01*
X116533333Y-92059133D02*
X116466666Y-92059133D01*
X116466666Y-92059133D02*
X116366666Y-92025800D01*
X116366666Y-92025800D02*
X116300000Y-91959133D01*
X116300000Y-91959133D02*
X116266666Y-91892466D01*
X116266666Y-91892466D02*
X116233333Y-91759133D01*
X116233333Y-91759133D02*
X116233333Y-91659133D01*
X116233333Y-91659133D02*
X116266666Y-91525800D01*
X116266666Y-91525800D02*
X116300000Y-91459133D01*
X116300000Y-91459133D02*
X116366666Y-91392466D01*
X116366666Y-91392466D02*
X116466666Y-91359133D01*
X116466666Y-91359133D02*
X116533333Y-91359133D01*
X116533333Y-91359133D02*
X116633333Y-91392466D01*
X116633333Y-91392466D02*
X116666666Y-91425800D01*
X117166666Y-91359133D02*
X117166666Y-91859133D01*
X117166666Y-91859133D02*
X117133333Y-91959133D01*
X117133333Y-91959133D02*
X117066666Y-92025800D01*
X117066666Y-92025800D02*
X116966666Y-92059133D01*
X116966666Y-92059133D02*
X116900000Y-92059133D01*
X117833333Y-92059133D02*
X117499999Y-92059133D01*
X117499999Y-92059133D02*
X117499999Y-91359133D01*
X118466666Y-91992466D02*
X118433333Y-92025800D01*
X118433333Y-92025800D02*
X118333333Y-92059133D01*
X118333333Y-92059133D02*
X118266666Y-92059133D01*
X118266666Y-92059133D02*
X118166666Y-92025800D01*
X118166666Y-92025800D02*
X118100000Y-91959133D01*
X118100000Y-91959133D02*
X118066666Y-91892466D01*
X118066666Y-91892466D02*
X118033333Y-91759133D01*
X118033333Y-91759133D02*
X118033333Y-91659133D01*
X118033333Y-91659133D02*
X118066666Y-91525800D01*
X118066666Y-91525800D02*
X118100000Y-91459133D01*
X118100000Y-91459133D02*
X118166666Y-91392466D01*
X118166666Y-91392466D02*
X118266666Y-91359133D01*
X118266666Y-91359133D02*
X118333333Y-91359133D01*
X118333333Y-91359133D02*
X118433333Y-91392466D01*
X118433333Y-91392466D02*
X118466666Y-91425800D01*
X118966666Y-91359133D02*
X118966666Y-91859133D01*
X118966666Y-91859133D02*
X118933333Y-91959133D01*
X118933333Y-91959133D02*
X118866666Y-92025800D01*
X118866666Y-92025800D02*
X118766666Y-92059133D01*
X118766666Y-92059133D02*
X118700000Y-92059133D01*
X119633333Y-92059133D02*
X119299999Y-92059133D01*
X119299999Y-92059133D02*
X119299999Y-91359133D01*
X120266666Y-91992466D02*
X120233333Y-92025800D01*
X120233333Y-92025800D02*
X120133333Y-92059133D01*
X120133333Y-92059133D02*
X120066666Y-92059133D01*
X120066666Y-92059133D02*
X119966666Y-92025800D01*
X119966666Y-92025800D02*
X119900000Y-91959133D01*
X119900000Y-91959133D02*
X119866666Y-91892466D01*
X119866666Y-91892466D02*
X119833333Y-91759133D01*
X119833333Y-91759133D02*
X119833333Y-91659133D01*
X119833333Y-91659133D02*
X119866666Y-91525800D01*
X119866666Y-91525800D02*
X119900000Y-91459133D01*
X119900000Y-91459133D02*
X119966666Y-91392466D01*
X119966666Y-91392466D02*
X120066666Y-91359133D01*
X120066666Y-91359133D02*
X120133333Y-91359133D01*
X120133333Y-91359133D02*
X120233333Y-91392466D01*
X120233333Y-91392466D02*
X120266666Y-91425800D01*
X120766666Y-91359133D02*
X120766666Y-91859133D01*
X120766666Y-91859133D02*
X120733333Y-91959133D01*
X120733333Y-91959133D02*
X120666666Y-92025800D01*
X120666666Y-92025800D02*
X120566666Y-92059133D01*
X120566666Y-92059133D02*
X120500000Y-92059133D01*
X121433333Y-92059133D02*
X121099999Y-92059133D01*
X121099999Y-92059133D02*
X121099999Y-91359133D01*
X122066666Y-91992466D02*
X122033333Y-92025800D01*
X122033333Y-92025800D02*
X121933333Y-92059133D01*
X121933333Y-92059133D02*
X121866666Y-92059133D01*
X121866666Y-92059133D02*
X121766666Y-92025800D01*
X121766666Y-92025800D02*
X121700000Y-91959133D01*
X121700000Y-91959133D02*
X121666666Y-91892466D01*
X121666666Y-91892466D02*
X121633333Y-91759133D01*
X121633333Y-91759133D02*
X121633333Y-91659133D01*
X121633333Y-91659133D02*
X121666666Y-91525800D01*
X121666666Y-91525800D02*
X121700000Y-91459133D01*
X121700000Y-91459133D02*
X121766666Y-91392466D01*
X121766666Y-91392466D02*
X121866666Y-91359133D01*
X121866666Y-91359133D02*
X121933333Y-91359133D01*
X121933333Y-91359133D02*
X122033333Y-91392466D01*
X122033333Y-91392466D02*
X122066666Y-91425800D01*
D11*
X108407143Y-103769771D02*
X108407143Y-103169771D01*
X108407143Y-103169771D02*
X108550000Y-103169771D01*
X108550000Y-103169771D02*
X108635714Y-103198342D01*
X108635714Y-103198342D02*
X108692857Y-103255485D01*
X108692857Y-103255485D02*
X108721428Y-103312628D01*
X108721428Y-103312628D02*
X108750000Y-103426914D01*
X108750000Y-103426914D02*
X108750000Y-103512628D01*
X108750000Y-103512628D02*
X108721428Y-103626914D01*
X108721428Y-103626914D02*
X108692857Y-103684057D01*
X108692857Y-103684057D02*
X108635714Y-103741200D01*
X108635714Y-103741200D02*
X108550000Y-103769771D01*
X108550000Y-103769771D02*
X108407143Y-103769771D01*
X109321428Y-103769771D02*
X108978571Y-103769771D01*
X109150000Y-103769771D02*
X109150000Y-103169771D01*
X109150000Y-103169771D02*
X109092857Y-103255485D01*
X109092857Y-103255485D02*
X109035714Y-103312628D01*
X109035714Y-103312628D02*
X108978571Y-103341200D01*
X120108207Y-109409580D02*
X120060588Y-109457200D01*
X120060588Y-109457200D02*
X119917731Y-109504819D01*
X119917731Y-109504819D02*
X119822493Y-109504819D01*
X119822493Y-109504819D02*
X119679636Y-109457200D01*
X119679636Y-109457200D02*
X119584398Y-109361961D01*
X119584398Y-109361961D02*
X119536779Y-109266723D01*
X119536779Y-109266723D02*
X119489160Y-109076247D01*
X119489160Y-109076247D02*
X119489160Y-108933390D01*
X119489160Y-108933390D02*
X119536779Y-108742914D01*
X119536779Y-108742914D02*
X119584398Y-108647676D01*
X119584398Y-108647676D02*
X119679636Y-108552438D01*
X119679636Y-108552438D02*
X119822493Y-108504819D01*
X119822493Y-108504819D02*
X119917731Y-108504819D01*
X119917731Y-108504819D02*
X120060588Y-108552438D01*
X120060588Y-108552438D02*
X120108207Y-108600057D01*
X120536779Y-109504819D02*
X120536779Y-108504819D01*
X120536779Y-108504819D02*
X121108207Y-109504819D01*
X121108207Y-109504819D02*
X121108207Y-108504819D01*
X121536779Y-108600057D02*
X121584398Y-108552438D01*
X121584398Y-108552438D02*
X121679636Y-108504819D01*
X121679636Y-108504819D02*
X121917731Y-108504819D01*
X121917731Y-108504819D02*
X122012969Y-108552438D01*
X122012969Y-108552438D02*
X122060588Y-108600057D01*
X122060588Y-108600057D02*
X122108207Y-108695295D01*
X122108207Y-108695295D02*
X122108207Y-108790533D01*
X122108207Y-108790533D02*
X122060588Y-108933390D01*
X122060588Y-108933390D02*
X121489160Y-109504819D01*
X121489160Y-109504819D02*
X122108207Y-109504819D01*
X122677255Y-103319771D02*
X122391541Y-103319771D01*
X122391541Y-103319771D02*
X122391541Y-102719771D01*
X122877255Y-103005485D02*
X123077255Y-103005485D01*
X123162969Y-103319771D02*
X122877255Y-103319771D01*
X122877255Y-103319771D02*
X122877255Y-102719771D01*
X122877255Y-102719771D02*
X123162969Y-102719771D01*
X123420112Y-103319771D02*
X123420112Y-102719771D01*
X123420112Y-102719771D02*
X123562969Y-102719771D01*
X123562969Y-102719771D02*
X123648683Y-102748342D01*
X123648683Y-102748342D02*
X123705826Y-102805485D01*
X123705826Y-102805485D02*
X123734397Y-102862628D01*
X123734397Y-102862628D02*
X123762969Y-102976914D01*
X123762969Y-102976914D02*
X123762969Y-103062628D01*
X123762969Y-103062628D02*
X123734397Y-103176914D01*
X123734397Y-103176914D02*
X123705826Y-103234057D01*
X123705826Y-103234057D02*
X123648683Y-103291200D01*
X123648683Y-103291200D02*
X123562969Y-103319771D01*
X123562969Y-103319771D02*
X123420112Y-103319771D01*
X124334397Y-103319771D02*
X123991540Y-103319771D01*
X124162969Y-103319771D02*
X124162969Y-102719771D01*
X124162969Y-102719771D02*
X124105826Y-102805485D01*
X124105826Y-102805485D02*
X124048683Y-102862628D01*
X124048683Y-102862628D02*
X123991540Y-102891200D01*
X105700000Y-95062628D02*
X105671428Y-95091200D01*
X105671428Y-95091200D02*
X105585714Y-95119771D01*
X105585714Y-95119771D02*
X105528571Y-95119771D01*
X105528571Y-95119771D02*
X105442857Y-95091200D01*
X105442857Y-95091200D02*
X105385714Y-95034057D01*
X105385714Y-95034057D02*
X105357143Y-94976914D01*
X105357143Y-94976914D02*
X105328571Y-94862628D01*
X105328571Y-94862628D02*
X105328571Y-94776914D01*
X105328571Y-94776914D02*
X105357143Y-94662628D01*
X105357143Y-94662628D02*
X105385714Y-94605485D01*
X105385714Y-94605485D02*
X105442857Y-94548342D01*
X105442857Y-94548342D02*
X105528571Y-94519771D01*
X105528571Y-94519771D02*
X105585714Y-94519771D01*
X105585714Y-94519771D02*
X105671428Y-94548342D01*
X105671428Y-94548342D02*
X105700000Y-94576914D01*
X106242857Y-94519771D02*
X105957143Y-94519771D01*
X105957143Y-94519771D02*
X105928571Y-94805485D01*
X105928571Y-94805485D02*
X105957143Y-94776914D01*
X105957143Y-94776914D02*
X106014286Y-94748342D01*
X106014286Y-94748342D02*
X106157143Y-94748342D01*
X106157143Y-94748342D02*
X106214286Y-94776914D01*
X106214286Y-94776914D02*
X106242857Y-94805485D01*
X106242857Y-94805485D02*
X106271428Y-94862628D01*
X106271428Y-94862628D02*
X106271428Y-95005485D01*
X106271428Y-95005485D02*
X106242857Y-95062628D01*
X106242857Y-95062628D02*
X106214286Y-95091200D01*
X106214286Y-95091200D02*
X106157143Y-95119771D01*
X106157143Y-95119771D02*
X106014286Y-95119771D01*
X106014286Y-95119771D02*
X105957143Y-95091200D01*
X105957143Y-95091200D02*
X105928571Y-95062628D01*
X109450000Y-93512628D02*
X109421428Y-93541200D01*
X109421428Y-93541200D02*
X109335714Y-93569771D01*
X109335714Y-93569771D02*
X109278571Y-93569771D01*
X109278571Y-93569771D02*
X109192857Y-93541200D01*
X109192857Y-93541200D02*
X109135714Y-93484057D01*
X109135714Y-93484057D02*
X109107143Y-93426914D01*
X109107143Y-93426914D02*
X109078571Y-93312628D01*
X109078571Y-93312628D02*
X109078571Y-93226914D01*
X109078571Y-93226914D02*
X109107143Y-93112628D01*
X109107143Y-93112628D02*
X109135714Y-93055485D01*
X109135714Y-93055485D02*
X109192857Y-92998342D01*
X109192857Y-92998342D02*
X109278571Y-92969771D01*
X109278571Y-92969771D02*
X109335714Y-92969771D01*
X109335714Y-92969771D02*
X109421428Y-92998342D01*
X109421428Y-92998342D02*
X109450000Y-93026914D01*
X109964286Y-93169771D02*
X109964286Y-93569771D01*
X109821428Y-92941200D02*
X109678571Y-93369771D01*
X109678571Y-93369771D02*
X110050000Y-93369771D01*
X105816666Y-107414819D02*
X105816666Y-108129104D01*
X105816666Y-108129104D02*
X105769047Y-108271961D01*
X105769047Y-108271961D02*
X105673809Y-108367200D01*
X105673809Y-108367200D02*
X105530952Y-108414819D01*
X105530952Y-108414819D02*
X105435714Y-108414819D01*
X106816666Y-108414819D02*
X106245238Y-108414819D01*
X106530952Y-108414819D02*
X106530952Y-107414819D01*
X106530952Y-107414819D02*
X106435714Y-107557676D01*
X106435714Y-107557676D02*
X106340476Y-107652914D01*
X106340476Y-107652914D02*
X106245238Y-107700533D01*
X105207143Y-98419771D02*
X105207143Y-97819771D01*
X105207143Y-97819771D02*
X105350000Y-97819771D01*
X105350000Y-97819771D02*
X105435714Y-97848342D01*
X105435714Y-97848342D02*
X105492857Y-97905485D01*
X105492857Y-97905485D02*
X105521428Y-97962628D01*
X105521428Y-97962628D02*
X105550000Y-98076914D01*
X105550000Y-98076914D02*
X105550000Y-98162628D01*
X105550000Y-98162628D02*
X105521428Y-98276914D01*
X105521428Y-98276914D02*
X105492857Y-98334057D01*
X105492857Y-98334057D02*
X105435714Y-98391200D01*
X105435714Y-98391200D02*
X105350000Y-98419771D01*
X105350000Y-98419771D02*
X105207143Y-98419771D01*
X105778571Y-97876914D02*
X105807143Y-97848342D01*
X105807143Y-97848342D02*
X105864286Y-97819771D01*
X105864286Y-97819771D02*
X106007143Y-97819771D01*
X106007143Y-97819771D02*
X106064286Y-97848342D01*
X106064286Y-97848342D02*
X106092857Y-97876914D01*
X106092857Y-97876914D02*
X106121428Y-97934057D01*
X106121428Y-97934057D02*
X106121428Y-97991200D01*
X106121428Y-97991200D02*
X106092857Y-98076914D01*
X106092857Y-98076914D02*
X105750000Y-98419771D01*
X105750000Y-98419771D02*
X106121428Y-98419771D01*
X111050000Y-103862628D02*
X111021428Y-103891200D01*
X111021428Y-103891200D02*
X110935714Y-103919771D01*
X110935714Y-103919771D02*
X110878571Y-103919771D01*
X110878571Y-103919771D02*
X110792857Y-103891200D01*
X110792857Y-103891200D02*
X110735714Y-103834057D01*
X110735714Y-103834057D02*
X110707143Y-103776914D01*
X110707143Y-103776914D02*
X110678571Y-103662628D01*
X110678571Y-103662628D02*
X110678571Y-103576914D01*
X110678571Y-103576914D02*
X110707143Y-103462628D01*
X110707143Y-103462628D02*
X110735714Y-103405485D01*
X110735714Y-103405485D02*
X110792857Y-103348342D01*
X110792857Y-103348342D02*
X110878571Y-103319771D01*
X110878571Y-103319771D02*
X110935714Y-103319771D01*
X110935714Y-103319771D02*
X111021428Y-103348342D01*
X111021428Y-103348342D02*
X111050000Y-103376914D01*
X111278571Y-103376914D02*
X111307143Y-103348342D01*
X111307143Y-103348342D02*
X111364286Y-103319771D01*
X111364286Y-103319771D02*
X111507143Y-103319771D01*
X111507143Y-103319771D02*
X111564286Y-103348342D01*
X111564286Y-103348342D02*
X111592857Y-103376914D01*
X111592857Y-103376914D02*
X111621428Y-103434057D01*
X111621428Y-103434057D02*
X111621428Y-103491200D01*
X111621428Y-103491200D02*
X111592857Y-103576914D01*
X111592857Y-103576914D02*
X111250000Y-103919771D01*
X111250000Y-103919771D02*
X111621428Y-103919771D01*
X122550000Y-105962628D02*
X122521428Y-105991200D01*
X122521428Y-105991200D02*
X122435714Y-106019771D01*
X122435714Y-106019771D02*
X122378571Y-106019771D01*
X122378571Y-106019771D02*
X122292857Y-105991200D01*
X122292857Y-105991200D02*
X122235714Y-105934057D01*
X122235714Y-105934057D02*
X122207143Y-105876914D01*
X122207143Y-105876914D02*
X122178571Y-105762628D01*
X122178571Y-105762628D02*
X122178571Y-105676914D01*
X122178571Y-105676914D02*
X122207143Y-105562628D01*
X122207143Y-105562628D02*
X122235714Y-105505485D01*
X122235714Y-105505485D02*
X122292857Y-105448342D01*
X122292857Y-105448342D02*
X122378571Y-105419771D01*
X122378571Y-105419771D02*
X122435714Y-105419771D01*
X122435714Y-105419771D02*
X122521428Y-105448342D01*
X122521428Y-105448342D02*
X122550000Y-105476914D01*
X122750000Y-105419771D02*
X123150000Y-105419771D01*
X123150000Y-105419771D02*
X122892857Y-106019771D01*
X109450000Y-102219771D02*
X109250000Y-101934057D01*
X109107143Y-102219771D02*
X109107143Y-101619771D01*
X109107143Y-101619771D02*
X109335714Y-101619771D01*
X109335714Y-101619771D02*
X109392857Y-101648342D01*
X109392857Y-101648342D02*
X109421428Y-101676914D01*
X109421428Y-101676914D02*
X109450000Y-101734057D01*
X109450000Y-101734057D02*
X109450000Y-101819771D01*
X109450000Y-101819771D02*
X109421428Y-101876914D01*
X109421428Y-101876914D02*
X109392857Y-101905485D01*
X109392857Y-101905485D02*
X109335714Y-101934057D01*
X109335714Y-101934057D02*
X109107143Y-101934057D01*
X109650000Y-101619771D02*
X110021428Y-101619771D01*
X110021428Y-101619771D02*
X109821428Y-101848342D01*
X109821428Y-101848342D02*
X109907143Y-101848342D01*
X109907143Y-101848342D02*
X109964286Y-101876914D01*
X109964286Y-101876914D02*
X109992857Y-101905485D01*
X109992857Y-101905485D02*
X110021428Y-101962628D01*
X110021428Y-101962628D02*
X110021428Y-102105485D01*
X110021428Y-102105485D02*
X109992857Y-102162628D01*
X109992857Y-102162628D02*
X109964286Y-102191200D01*
X109964286Y-102191200D02*
X109907143Y-102219771D01*
X109907143Y-102219771D02*
X109735714Y-102219771D01*
X109735714Y-102219771D02*
X109678571Y-102191200D01*
X109678571Y-102191200D02*
X109650000Y-102162628D01*
D12*
X113447615Y-102187737D02*
X113447615Y-102721520D01*
X113447615Y-102721520D02*
X113479014Y-102784318D01*
X113479014Y-102784318D02*
X113510413Y-102815718D01*
X113510413Y-102815718D02*
X113573211Y-102847117D01*
X113573211Y-102847117D02*
X113698807Y-102847117D01*
X113698807Y-102847117D02*
X113761605Y-102815718D01*
X113761605Y-102815718D02*
X113793004Y-102784318D01*
X113793004Y-102784318D02*
X113824403Y-102721520D01*
X113824403Y-102721520D02*
X113824403Y-102187737D01*
X114452384Y-102187737D02*
X114138394Y-102187737D01*
X114138394Y-102187737D02*
X114106995Y-102501727D01*
X114106995Y-102501727D02*
X114138394Y-102470328D01*
X114138394Y-102470328D02*
X114201192Y-102438929D01*
X114201192Y-102438929D02*
X114358187Y-102438929D01*
X114358187Y-102438929D02*
X114420985Y-102470328D01*
X114420985Y-102470328D02*
X114452384Y-102501727D01*
X114452384Y-102501727D02*
X114483783Y-102564525D01*
X114483783Y-102564525D02*
X114483783Y-102721520D01*
X114483783Y-102721520D02*
X114452384Y-102784318D01*
X114452384Y-102784318D02*
X114420985Y-102815718D01*
X114420985Y-102815718D02*
X114358187Y-102847117D01*
X114358187Y-102847117D02*
X114201192Y-102847117D01*
X114201192Y-102847117D02*
X114138394Y-102815718D01*
X114138394Y-102815718D02*
X114106995Y-102784318D01*
D11*
X108442857Y-95919771D02*
X108442857Y-96405485D01*
X108442857Y-96405485D02*
X108471428Y-96462628D01*
X108471428Y-96462628D02*
X108500000Y-96491200D01*
X108500000Y-96491200D02*
X108557142Y-96519771D01*
X108557142Y-96519771D02*
X108671428Y-96519771D01*
X108671428Y-96519771D02*
X108728571Y-96491200D01*
X108728571Y-96491200D02*
X108757142Y-96462628D01*
X108757142Y-96462628D02*
X108785714Y-96405485D01*
X108785714Y-96405485D02*
X108785714Y-95919771D01*
X109385713Y-96519771D02*
X109042856Y-96519771D01*
X109214285Y-96519771D02*
X109214285Y-95919771D01*
X109214285Y-95919771D02*
X109157142Y-96005485D01*
X109157142Y-96005485D02*
X109099999Y-96062628D01*
X109099999Y-96062628D02*
X109042856Y-96091200D01*
X108300000Y-95004819D02*
X108300000Y-95242914D01*
X108061905Y-95147676D02*
X108300000Y-95242914D01*
X108300000Y-95242914D02*
X108538095Y-95147676D01*
X108157143Y-95433390D02*
X108300000Y-95242914D01*
X108300000Y-95242914D02*
X108442857Y-95433390D01*
X109500000Y-94369771D02*
X109300000Y-94084057D01*
X109157143Y-94369771D02*
X109157143Y-93769771D01*
X109157143Y-93769771D02*
X109385714Y-93769771D01*
X109385714Y-93769771D02*
X109442857Y-93798342D01*
X109442857Y-93798342D02*
X109471428Y-93826914D01*
X109471428Y-93826914D02*
X109500000Y-93884057D01*
X109500000Y-93884057D02*
X109500000Y-93969771D01*
X109500000Y-93969771D02*
X109471428Y-94026914D01*
X109471428Y-94026914D02*
X109442857Y-94055485D01*
X109442857Y-94055485D02*
X109385714Y-94084057D01*
X109385714Y-94084057D02*
X109157143Y-94084057D01*
X110071428Y-94369771D02*
X109728571Y-94369771D01*
X109900000Y-94369771D02*
X109900000Y-93769771D01*
X109900000Y-93769771D02*
X109842857Y-93855485D01*
X109842857Y-93855485D02*
X109785714Y-93912628D01*
X109785714Y-93912628D02*
X109728571Y-93941200D01*
X117838095Y-82404819D02*
X117838095Y-83214342D01*
X117838095Y-83214342D02*
X117885714Y-83309580D01*
X117885714Y-83309580D02*
X117933333Y-83357200D01*
X117933333Y-83357200D02*
X118028571Y-83404819D01*
X118028571Y-83404819D02*
X118219047Y-83404819D01*
X118219047Y-83404819D02*
X118314285Y-83357200D01*
X118314285Y-83357200D02*
X118361904Y-83309580D01*
X118361904Y-83309580D02*
X118409523Y-83214342D01*
X118409523Y-83214342D02*
X118409523Y-82404819D01*
X119314285Y-82738152D02*
X119314285Y-83404819D01*
X119076190Y-82357200D02*
X118838095Y-83071485D01*
X118838095Y-83071485D02*
X119457142Y-83071485D01*
X113838094Y-86769104D02*
X114314284Y-86769104D01*
X113742856Y-87054819D02*
X114076189Y-86054819D01*
X114076189Y-86054819D02*
X114409522Y-87054819D01*
X114742856Y-86388152D02*
X114742856Y-87054819D01*
X114742856Y-86483390D02*
X114790475Y-86435771D01*
X114790475Y-86435771D02*
X114885713Y-86388152D01*
X114885713Y-86388152D02*
X115028570Y-86388152D01*
X115028570Y-86388152D02*
X115123808Y-86435771D01*
X115123808Y-86435771D02*
X115171427Y-86531009D01*
X115171427Y-86531009D02*
X115171427Y-87054819D01*
X115504761Y-86388152D02*
X115885713Y-86388152D01*
X115647618Y-86054819D02*
X115647618Y-86911961D01*
X115647618Y-86911961D02*
X115695237Y-87007200D01*
X115695237Y-87007200D02*
X115790475Y-87054819D01*
X115790475Y-87054819D02*
X115885713Y-87054819D01*
X116599999Y-87007200D02*
X116504761Y-87054819D01*
X116504761Y-87054819D02*
X116314285Y-87054819D01*
X116314285Y-87054819D02*
X116219047Y-87007200D01*
X116219047Y-87007200D02*
X116171428Y-86911961D01*
X116171428Y-86911961D02*
X116171428Y-86531009D01*
X116171428Y-86531009D02*
X116219047Y-86435771D01*
X116219047Y-86435771D02*
X116314285Y-86388152D01*
X116314285Y-86388152D02*
X116504761Y-86388152D01*
X116504761Y-86388152D02*
X116599999Y-86435771D01*
X116599999Y-86435771D02*
X116647618Y-86531009D01*
X116647618Y-86531009D02*
X116647618Y-86626247D01*
X116647618Y-86626247D02*
X116171428Y-86721485D01*
X117076190Y-86388152D02*
X117076190Y-87054819D01*
X117076190Y-86483390D02*
X117123809Y-86435771D01*
X117123809Y-86435771D02*
X117219047Y-86388152D01*
X117219047Y-86388152D02*
X117361904Y-86388152D01*
X117361904Y-86388152D02*
X117457142Y-86435771D01*
X117457142Y-86435771D02*
X117504761Y-86531009D01*
X117504761Y-86531009D02*
X117504761Y-87054819D01*
X117980952Y-86388152D02*
X117980952Y-87054819D01*
X117980952Y-86483390D02*
X118028571Y-86435771D01*
X118028571Y-86435771D02*
X118123809Y-86388152D01*
X118123809Y-86388152D02*
X118266666Y-86388152D01*
X118266666Y-86388152D02*
X118361904Y-86435771D01*
X118361904Y-86435771D02*
X118409523Y-86531009D01*
X118409523Y-86531009D02*
X118409523Y-87054819D01*
X119314285Y-87054819D02*
X119314285Y-86531009D01*
X119314285Y-86531009D02*
X119266666Y-86435771D01*
X119266666Y-86435771D02*
X119171428Y-86388152D01*
X119171428Y-86388152D02*
X118980952Y-86388152D01*
X118980952Y-86388152D02*
X118885714Y-86435771D01*
X119314285Y-87007200D02*
X119219047Y-87054819D01*
X119219047Y-87054819D02*
X118980952Y-87054819D01*
X118980952Y-87054819D02*
X118885714Y-87007200D01*
X118885714Y-87007200D02*
X118838095Y-86911961D01*
X118838095Y-86911961D02*
X118838095Y-86816723D01*
X118838095Y-86816723D02*
X118885714Y-86721485D01*
X118885714Y-86721485D02*
X118980952Y-86673866D01*
X118980952Y-86673866D02*
X119219047Y-86673866D01*
X119219047Y-86673866D02*
X119314285Y-86626247D01*
X120504762Y-86769104D02*
X120980952Y-86769104D01*
X120409524Y-87054819D02*
X120742857Y-86054819D01*
X120742857Y-86054819D02*
X121076190Y-87054819D01*
X121409524Y-87054819D02*
X121409524Y-86388152D01*
X121409524Y-86578628D02*
X121457143Y-86483390D01*
X121457143Y-86483390D02*
X121504762Y-86435771D01*
X121504762Y-86435771D02*
X121600000Y-86388152D01*
X121600000Y-86388152D02*
X121695238Y-86388152D01*
X122409524Y-87007200D02*
X122314286Y-87054819D01*
X122314286Y-87054819D02*
X122123810Y-87054819D01*
X122123810Y-87054819D02*
X122028572Y-87007200D01*
X122028572Y-87007200D02*
X121980953Y-86911961D01*
X121980953Y-86911961D02*
X121980953Y-86531009D01*
X121980953Y-86531009D02*
X122028572Y-86435771D01*
X122028572Y-86435771D02*
X122123810Y-86388152D01*
X122123810Y-86388152D02*
X122314286Y-86388152D01*
X122314286Y-86388152D02*
X122409524Y-86435771D01*
X122409524Y-86435771D02*
X122457143Y-86531009D01*
X122457143Y-86531009D02*
X122457143Y-86626247D01*
X122457143Y-86626247D02*
X121980953Y-86721485D01*
X123314286Y-87054819D02*
X123314286Y-86531009D01*
X123314286Y-86531009D02*
X123266667Y-86435771D01*
X123266667Y-86435771D02*
X123171429Y-86388152D01*
X123171429Y-86388152D02*
X122980953Y-86388152D01*
X122980953Y-86388152D02*
X122885715Y-86435771D01*
X123314286Y-87007200D02*
X123219048Y-87054819D01*
X123219048Y-87054819D02*
X122980953Y-87054819D01*
X122980953Y-87054819D02*
X122885715Y-87007200D01*
X122885715Y-87007200D02*
X122838096Y-86911961D01*
X122838096Y-86911961D02*
X122838096Y-86816723D01*
X122838096Y-86816723D02*
X122885715Y-86721485D01*
X122885715Y-86721485D02*
X122980953Y-86673866D01*
X122980953Y-86673866D02*
X123219048Y-86673866D01*
X123219048Y-86673866D02*
X123314286Y-86626247D01*
X105517857Y-90894771D02*
X105517857Y-91380485D01*
X105517857Y-91380485D02*
X105546428Y-91437628D01*
X105546428Y-91437628D02*
X105575000Y-91466200D01*
X105575000Y-91466200D02*
X105632142Y-91494771D01*
X105632142Y-91494771D02*
X105746428Y-91494771D01*
X105746428Y-91494771D02*
X105803571Y-91466200D01*
X105803571Y-91466200D02*
X105832142Y-91437628D01*
X105832142Y-91437628D02*
X105860714Y-91380485D01*
X105860714Y-91380485D02*
X105860714Y-90894771D01*
X106117856Y-90951914D02*
X106146428Y-90923342D01*
X106146428Y-90923342D02*
X106203571Y-90894771D01*
X106203571Y-90894771D02*
X106346428Y-90894771D01*
X106346428Y-90894771D02*
X106403571Y-90923342D01*
X106403571Y-90923342D02*
X106432142Y-90951914D01*
X106432142Y-90951914D02*
X106460713Y-91009057D01*
X106460713Y-91009057D02*
X106460713Y-91066200D01*
X106460713Y-91066200D02*
X106432142Y-91151914D01*
X106432142Y-91151914D02*
X106089285Y-91494771D01*
X106089285Y-91494771D02*
X106460713Y-91494771D01*
X103259580Y-101690476D02*
X103307200Y-101738095D01*
X103307200Y-101738095D02*
X103354819Y-101880952D01*
X103354819Y-101880952D02*
X103354819Y-101976190D01*
X103354819Y-101976190D02*
X103307200Y-102119047D01*
X103307200Y-102119047D02*
X103211961Y-102214285D01*
X103211961Y-102214285D02*
X103116723Y-102261904D01*
X103116723Y-102261904D02*
X102926247Y-102309523D01*
X102926247Y-102309523D02*
X102783390Y-102309523D01*
X102783390Y-102309523D02*
X102592914Y-102261904D01*
X102592914Y-102261904D02*
X102497676Y-102214285D01*
X102497676Y-102214285D02*
X102402438Y-102119047D01*
X102402438Y-102119047D02*
X102354819Y-101976190D01*
X102354819Y-101976190D02*
X102354819Y-101880952D01*
X102354819Y-101880952D02*
X102402438Y-101738095D01*
X102402438Y-101738095D02*
X102450057Y-101690476D01*
X103354819Y-101261904D02*
X102354819Y-101261904D01*
X102354819Y-101261904D02*
X103354819Y-100690476D01*
X103354819Y-100690476D02*
X102354819Y-100690476D01*
X103354819Y-99690476D02*
X103354819Y-100261904D01*
X103354819Y-99976190D02*
X102354819Y-99976190D01*
X102354819Y-99976190D02*
X102497676Y-100071428D01*
X102497676Y-100071428D02*
X102592914Y-100166666D01*
X102592914Y-100166666D02*
X102640533Y-100261904D01*
X109542857Y-99619771D02*
X109542857Y-100105485D01*
X109542857Y-100105485D02*
X109571428Y-100162628D01*
X109571428Y-100162628D02*
X109600000Y-100191200D01*
X109600000Y-100191200D02*
X109657142Y-100219771D01*
X109657142Y-100219771D02*
X109771428Y-100219771D01*
X109771428Y-100219771D02*
X109828571Y-100191200D01*
X109828571Y-100191200D02*
X109857142Y-100162628D01*
X109857142Y-100162628D02*
X109885714Y-100105485D01*
X109885714Y-100105485D02*
X109885714Y-99619771D01*
X110114285Y-99619771D02*
X110485713Y-99619771D01*
X110485713Y-99619771D02*
X110285713Y-99848342D01*
X110285713Y-99848342D02*
X110371428Y-99848342D01*
X110371428Y-99848342D02*
X110428571Y-99876914D01*
X110428571Y-99876914D02*
X110457142Y-99905485D01*
X110457142Y-99905485D02*
X110485713Y-99962628D01*
X110485713Y-99962628D02*
X110485713Y-100105485D01*
X110485713Y-100105485D02*
X110457142Y-100162628D01*
X110457142Y-100162628D02*
X110428571Y-100191200D01*
X110428571Y-100191200D02*
X110371428Y-100219771D01*
X110371428Y-100219771D02*
X110199999Y-100219771D01*
X110199999Y-100219771D02*
X110142856Y-100191200D01*
X110142856Y-100191200D02*
X110114285Y-100162628D01*
X105550000Y-103262628D02*
X105521428Y-103291200D01*
X105521428Y-103291200D02*
X105435714Y-103319771D01*
X105435714Y-103319771D02*
X105378571Y-103319771D01*
X105378571Y-103319771D02*
X105292857Y-103291200D01*
X105292857Y-103291200D02*
X105235714Y-103234057D01*
X105235714Y-103234057D02*
X105207143Y-103176914D01*
X105207143Y-103176914D02*
X105178571Y-103062628D01*
X105178571Y-103062628D02*
X105178571Y-102976914D01*
X105178571Y-102976914D02*
X105207143Y-102862628D01*
X105207143Y-102862628D02*
X105235714Y-102805485D01*
X105235714Y-102805485D02*
X105292857Y-102748342D01*
X105292857Y-102748342D02*
X105378571Y-102719771D01*
X105378571Y-102719771D02*
X105435714Y-102719771D01*
X105435714Y-102719771D02*
X105521428Y-102748342D01*
X105521428Y-102748342D02*
X105550000Y-102776914D01*
X106064286Y-102719771D02*
X105950000Y-102719771D01*
X105950000Y-102719771D02*
X105892857Y-102748342D01*
X105892857Y-102748342D02*
X105864286Y-102776914D01*
X105864286Y-102776914D02*
X105807143Y-102862628D01*
X105807143Y-102862628D02*
X105778571Y-102976914D01*
X105778571Y-102976914D02*
X105778571Y-103205485D01*
X105778571Y-103205485D02*
X105807143Y-103262628D01*
X105807143Y-103262628D02*
X105835714Y-103291200D01*
X105835714Y-103291200D02*
X105892857Y-103319771D01*
X105892857Y-103319771D02*
X106007143Y-103319771D01*
X106007143Y-103319771D02*
X106064286Y-103291200D01*
X106064286Y-103291200D02*
X106092857Y-103262628D01*
X106092857Y-103262628D02*
X106121428Y-103205485D01*
X106121428Y-103205485D02*
X106121428Y-103062628D01*
X106121428Y-103062628D02*
X106092857Y-103005485D01*
X106092857Y-103005485D02*
X106064286Y-102976914D01*
X106064286Y-102976914D02*
X106007143Y-102948342D01*
X106007143Y-102948342D02*
X105892857Y-102948342D01*
X105892857Y-102948342D02*
X105835714Y-102976914D01*
X105835714Y-102976914D02*
X105807143Y-103005485D01*
X105807143Y-103005485D02*
X105778571Y-103062628D01*
D10*
X107450000Y-101500000D02*
X107450000Y-102300000D01*
X108450000Y-101500000D02*
X107450000Y-101500000D01*
X108450000Y-101500000D02*
X108450000Y-102300000D01*
X108000000Y-101500000D02*
G75*
G02*
X107900000Y-101500000I-50000J0D01*
G01*
X107900000Y-101500000D02*
G75*
G02*
X108000000Y-101500000I50000J0D01*
G01*
D13*
X116295000Y-105500000D02*
X116845000Y-105500000D01*
X116295000Y-106259000D02*
X117165000Y-106259000D01*
X116295000Y-111800000D02*
X116295000Y-105500000D01*
X116295000Y-111800000D02*
X125295000Y-111800000D01*
X116845000Y-105500000D02*
X116845000Y-106259000D01*
X118425000Y-106259000D02*
X118665000Y-106259000D01*
X119925000Y-106259000D02*
X120165000Y-106259000D01*
X121425000Y-106259000D02*
X121665000Y-106259000D01*
X122925000Y-106259000D02*
X123165000Y-106259000D01*
X124435000Y-106260000D02*
X125304000Y-106260000D01*
X124755000Y-105500000D02*
X124755000Y-106259000D01*
X125295000Y-105500000D02*
X125295000Y-111800000D01*
X125305000Y-105500000D02*
X124755000Y-105500000D01*
D14*
X118295000Y-108800000D02*
X117295000Y-108800000D01*
X117795000Y-107800000D01*
X118295000Y-108800000D01*
G36*
X118295000Y-108800000D02*
G01*
X117295000Y-108800000D01*
X117795000Y-107800000D01*
X118295000Y-108800000D01*
G37*
X122146359Y-101220000D02*
X122453641Y-101220000D01*
X122146359Y-101980000D02*
X122453641Y-101980000D01*
X115103641Y-107720000D02*
X114796359Y-107720000D01*
X115103641Y-108480000D02*
X114796359Y-108480000D01*
D15*
X125050000Y-102149000D02*
X121697000Y-102149000D01*
X125050000Y-104308000D02*
X121697000Y-104308000D01*
D16*
X122725000Y-103806000D02*
G75*
G02*
X122475000Y-103806000I-125000J0D01*
G01*
X122475000Y-103806000D02*
G75*
G02*
X122725000Y-103806000I125000J0D01*
G01*
D14*
X110920000Y-95753641D02*
X110920000Y-95446359D01*
X111680000Y-95753641D02*
X111680000Y-95446359D01*
X105490000Y-96257836D02*
X105490000Y-96042164D01*
X106210000Y-96257836D02*
X106210000Y-96042164D01*
X114796359Y-106720000D02*
X115103641Y-106720000D01*
X114796359Y-107480000D02*
X115103641Y-107480000D01*
X110740000Y-90657836D02*
X110740000Y-90442164D01*
X111460000Y-90657836D02*
X111460000Y-90442164D01*
X106440000Y-100522164D02*
X106440000Y-100737836D01*
X107160000Y-100522164D02*
X107160000Y-100737836D01*
X101480000Y-108150000D02*
X101480000Y-106450000D01*
X110820000Y-108150000D02*
X110820000Y-106450000D01*
X115103641Y-105720000D02*
X114796359Y-105720000D01*
X115103641Y-106480000D02*
X114796359Y-106480000D01*
X112720000Y-109753641D02*
X112720000Y-109446359D01*
X113480000Y-109753641D02*
X113480000Y-109446359D01*
X124096359Y-101220000D02*
X124403641Y-101220000D01*
X124096359Y-101980000D02*
X124403641Y-101980000D01*
X112720000Y-107753641D02*
X112720000Y-107446359D01*
X113480000Y-107753641D02*
X113480000Y-107446359D01*
X111720000Y-107446359D02*
X111720000Y-107753641D01*
X112480000Y-107446359D02*
X112480000Y-107753641D01*
D10*
X106300000Y-97750000D02*
X106300000Y-98550000D01*
X107300000Y-97750000D02*
X106300000Y-97750000D01*
X107300000Y-97750000D02*
X107300000Y-98550000D01*
X106850000Y-97750000D02*
G75*
G02*
X106750000Y-97750000I-50000J0D01*
G01*
X106750000Y-97750000D02*
G75*
G02*
X106850000Y-97750000I50000J0D01*
G01*
D14*
X110840000Y-102292164D02*
X110840000Y-102507836D01*
X111560000Y-102292164D02*
X111560000Y-102507836D01*
X122142164Y-104540000D02*
X122357836Y-104540000D01*
X122142164Y-105260000D02*
X122357836Y-105260000D01*
X109446359Y-102370000D02*
X109753641Y-102370000D01*
X109446359Y-103130000D02*
X109753641Y-103130000D01*
X106370000Y-93853641D02*
X106370000Y-93546359D01*
X107130000Y-93853641D02*
X107130000Y-93546359D01*
X114796359Y-108720000D02*
X115103641Y-108720000D01*
X114796359Y-109480000D02*
X115103641Y-109480000D01*
D17*
X111800000Y-101000010D02*
X111800000Y-102500010D01*
X111800000Y-104000010D02*
X111800000Y-105500010D01*
X112050010Y-101250000D02*
X112050010Y-105249990D01*
X113300000Y-101000010D02*
X111800000Y-101000010D01*
X113300000Y-105500010D02*
X111800000Y-105500010D01*
X117550000Y-101250000D02*
X112050010Y-101250000D01*
X117550000Y-101250000D02*
X117550000Y-105249990D01*
X117550000Y-105249990D02*
X112050010Y-105249990D01*
X117799990Y-101000010D02*
X116299990Y-101000010D01*
X117799990Y-101000010D02*
X117799990Y-102500010D01*
X117799990Y-104000010D02*
X117799990Y-105500010D01*
X117799990Y-105500010D02*
X116299990Y-105500010D01*
D13*
X113224970Y-102350000D02*
G75*
G02*
X112975030Y-102350000I-124970J0D01*
G01*
X112975030Y-102350000D02*
G75*
G02*
X113224970Y-102350000I124970J0D01*
G01*
D14*
X110920000Y-97346359D02*
X110920000Y-97653641D01*
X111680000Y-97346359D02*
X111680000Y-97653641D01*
X112442164Y-105740000D02*
X112657836Y-105740000D01*
X112442164Y-106460000D02*
X112657836Y-106460000D01*
X111720000Y-109446359D02*
X111720000Y-109753641D01*
X112480000Y-109446359D02*
X112480000Y-109753641D01*
D12*
X107571300Y-97926400D02*
X109628700Y-97926400D01*
X109628700Y-94573600D02*
X107571300Y-94573600D01*
X109628700Y-96613261D02*
X109628700Y-95886739D01*
D14*
X110720000Y-92603641D02*
X110720000Y-92296359D01*
X111480000Y-92603641D02*
X111480000Y-92296359D01*
X111800000Y-100150000D02*
X111800000Y-100950000D01*
X111800000Y-100950000D02*
X112600000Y-100950000D01*
X112000000Y-84150000D02*
X125200000Y-84150000D01*
X112000000Y-89550000D02*
X125200000Y-89550000D01*
X112000000Y-100750000D02*
X112000000Y-84150000D01*
X112675000Y-83950000D02*
X111825000Y-83950000D01*
X124650000Y-83950000D02*
X125400000Y-83950000D01*
X125200000Y-84150000D02*
X125200000Y-100750000D01*
X125200000Y-100750000D02*
X112000000Y-100750000D01*
X125400000Y-83950000D02*
X125400000Y-84550000D01*
X125400000Y-100150000D02*
X125400000Y-100950000D01*
X125400000Y-100950000D02*
X124600000Y-100950000D01*
X114796359Y-109720000D02*
X115103641Y-109720000D01*
X114796359Y-110480000D02*
X115103641Y-110480000D01*
D18*
X102625000Y-91525000D02*
X102625000Y-90925000D01*
X107575000Y-92525000D02*
X105875000Y-92525000D01*
X108875000Y-89925000D02*
X103075000Y-89925000D01*
X109325000Y-90925000D02*
X109325000Y-91525000D01*
D14*
X118250000Y-101750000D02*
X118550000Y-101750000D01*
X118250000Y-105050000D02*
X118250000Y-101750000D01*
X118550000Y-105050000D02*
X118250000Y-105050000D01*
X120750000Y-105050000D02*
X121050000Y-105050000D01*
X121050000Y-101750000D02*
X120750000Y-101750000D01*
X121050000Y-105050000D02*
X121050000Y-101750000D01*
D13*
X101100000Y-98750000D02*
X101100000Y-103250000D01*
X101100000Y-103250000D02*
X106000000Y-103250000D01*
X106000000Y-98750000D02*
X101100000Y-98750000D01*
X106000000Y-98750000D02*
X106000000Y-99751000D01*
X106000000Y-100999000D02*
X106000000Y-101001000D01*
X106000000Y-102249000D02*
X106000000Y-103250000D01*
D18*
X108750000Y-98400000D02*
X108750000Y-98500000D01*
X108750000Y-101500000D02*
X108750000Y-101400000D01*
X110450000Y-98400000D02*
X108750000Y-98400000D01*
X110450000Y-98400000D02*
X110450000Y-98500000D01*
X110450000Y-101500000D02*
X108750000Y-101500000D01*
X110450000Y-101500000D02*
X110450000Y-101400000D01*
D19*
X109500000Y-98950000D02*
G75*
G02*
X109300000Y-98950000I-100000J0D01*
G01*
X109300000Y-98950000D02*
G75*
G02*
X109500000Y-98950000I100000J0D01*
G01*
D14*
X106440000Y-102607836D02*
X106440000Y-102392164D01*
X107160000Y-102607836D02*
X107160000Y-102392164D01*
%LPC*%
D20*
X107950000Y-102015000D03*
X107950000Y-102985000D03*
D21*
X117795000Y-106800000D03*
X119295000Y-106800000D03*
X120795000Y-106800000D03*
X122295000Y-106800000D03*
X123795000Y-106800000D03*
D22*
X121790000Y-101600000D03*
X122810000Y-101600000D03*
D23*
X115460000Y-108100000D03*
X114440000Y-108100000D03*
D24*
X121850000Y-103800000D03*
X121850000Y-102700000D03*
X124750000Y-102700000D03*
X124750000Y-103800000D03*
D25*
X111300000Y-96110000D03*
X111300000Y-95090000D03*
D26*
X105850000Y-96630000D03*
X105850000Y-95670000D03*
D22*
X114440000Y-107100000D03*
X115460000Y-107100000D03*
D26*
X111100000Y-91030000D03*
X111100000Y-90070000D03*
D27*
X106800000Y-100150000D03*
X106800000Y-101110000D03*
D28*
X103260000Y-105645000D03*
X109040000Y-105645000D03*
D29*
X102950000Y-104570000D03*
X103750000Y-104570000D03*
D30*
X104900000Y-104570000D03*
X105900000Y-104570000D03*
X106400000Y-104570000D03*
X107400000Y-104570000D03*
D29*
X108550000Y-104570000D03*
X109350000Y-104570000D03*
X109350000Y-104570000D03*
X108550000Y-104570000D03*
D30*
X107900000Y-104570000D03*
X106900000Y-104570000D03*
X105400000Y-104570000D03*
X104400000Y-104570000D03*
D29*
X103750000Y-104570000D03*
X102950000Y-104570000D03*
D31*
X101830000Y-105145000D03*
D32*
X101830000Y-109325000D03*
D31*
X110470000Y-105145000D03*
D32*
X110470000Y-109325000D03*
D23*
X115460000Y-106100000D03*
X114440000Y-106100000D03*
D25*
X113100000Y-110110000D03*
X113100000Y-109090000D03*
D22*
X123740000Y-101600000D03*
X124760000Y-101600000D03*
D25*
X113100000Y-108110000D03*
X113100000Y-107090000D03*
D33*
X112100000Y-107090000D03*
X112100000Y-108110000D03*
D20*
X106800000Y-98265000D03*
X106800000Y-99235000D03*
D27*
X111200000Y-101920000D03*
X111200000Y-102880000D03*
D34*
X121770000Y-104900000D03*
X122730000Y-104900000D03*
D22*
X109090000Y-102750000D03*
X110110000Y-102750000D03*
D25*
X106750000Y-94210000D03*
X106750000Y-93190000D03*
D22*
X114440000Y-109100000D03*
X115460000Y-109100000D03*
D35*
X112552600Y-101572670D03*
D36*
X112361600Y-102500000D03*
X112361600Y-103003070D03*
X112361600Y-103503070D03*
X112361600Y-104003060D03*
D35*
X112552600Y-104925470D03*
X113052600Y-104925470D03*
X113552600Y-104925470D03*
X114052600Y-104925470D03*
X114552600Y-104925470D03*
X115052600Y-104925470D03*
X115552600Y-104925470D03*
X116052600Y-104925470D03*
X116552600Y-104925470D03*
X117060600Y-104925470D03*
D36*
X117187600Y-104003070D03*
X117187600Y-103503070D03*
X117187600Y-103003070D03*
X117187600Y-102500000D03*
D35*
X117060600Y-101572670D03*
X116552600Y-101572670D03*
X116052600Y-101572670D03*
X115552600Y-101572670D03*
X115052600Y-101572670D03*
X114552600Y-101572670D03*
X114052600Y-101572670D03*
X113552600Y-101572670D03*
X113052600Y-101572670D03*
D33*
X111300000Y-96990000D03*
X111300000Y-98010000D03*
D34*
X112070000Y-106100000D03*
X113030000Y-106100000D03*
D33*
X112100000Y-109090000D03*
X112100000Y-110110000D03*
D37*
X102900000Y-96300000D03*
D38*
X107304600Y-95299999D03*
X107304600Y-96250000D03*
X107304600Y-97200001D03*
X109895400Y-97200001D03*
X109895400Y-95299999D03*
D25*
X111100000Y-92960000D03*
X111100000Y-91940000D03*
D39*
X112700000Y-91150000D03*
X112700000Y-91950000D03*
X112700000Y-92750000D03*
X112700000Y-93550000D03*
X112700000Y-94350000D03*
X112700000Y-95150000D03*
X112700000Y-95950000D03*
X112700000Y-96750000D03*
X112700000Y-97550000D03*
X112700000Y-98350000D03*
X112700000Y-99150000D03*
D40*
X113800000Y-100050000D03*
X114600000Y-100050000D03*
X115400000Y-100050000D03*
X116200000Y-100050000D03*
X117000000Y-100050000D03*
X117800000Y-100050000D03*
X118600000Y-100050000D03*
X119400000Y-100050000D03*
X120200000Y-100050000D03*
X121000000Y-100050000D03*
X121800000Y-100050000D03*
X122600000Y-100050000D03*
X123400000Y-100050000D03*
D39*
X124500000Y-99150000D03*
X124500000Y-98350000D03*
X124500000Y-97550000D03*
X124500000Y-96750000D03*
X124500000Y-95950000D03*
X124500000Y-95150000D03*
X124500000Y-94350000D03*
X124500000Y-93550000D03*
X124500000Y-92750000D03*
X124500000Y-91950000D03*
X124500000Y-91150000D03*
D40*
X123400000Y-90250000D03*
X122600000Y-90250000D03*
X121800000Y-90250000D03*
X121000000Y-90250000D03*
X120200000Y-90250000D03*
X119400000Y-90250000D03*
X118600000Y-90250000D03*
X117800000Y-90250000D03*
X117000000Y-90250000D03*
X116200000Y-90250000D03*
X115400000Y-90250000D03*
X114600000Y-90250000D03*
X113800000Y-90250000D03*
D41*
X116625000Y-93175000D03*
D42*
X116625000Y-95150000D03*
X116625000Y-97125000D03*
X118600000Y-93175000D03*
X118600000Y-95150000D03*
X118600000Y-97125000D03*
X120575000Y-93175000D03*
X120575000Y-95150000D03*
X120575000Y-97125000D03*
D43*
X124550000Y-90200000D03*
X124550000Y-100100000D03*
X112650000Y-100100000D03*
X112650000Y-90200000D03*
D22*
X114440000Y-110100000D03*
X115460000Y-110100000D03*
D44*
X107475000Y-91225000D03*
X104475000Y-91225000D03*
D45*
X105225000Y-92975000D03*
D46*
X109625000Y-92190000D03*
X109625000Y-90260000D03*
X102325000Y-92190000D03*
X102325000Y-90260000D03*
D45*
X103725000Y-92975000D03*
X108225000Y-92975000D03*
D47*
X119650000Y-103400000D03*
D48*
X119650000Y-105100000D03*
X119650000Y-101700000D03*
D49*
X105619000Y-100375000D03*
X105619000Y-101625000D03*
D50*
X108415000Y-99000000D03*
X108415000Y-99950000D03*
X108415000Y-100900000D03*
X110785000Y-100900000D03*
X110785000Y-99000000D03*
D26*
X106800000Y-102980000D03*
X106800000Y-102020000D03*
%LPD*%
M02*
