G04 #@! TF.GenerationSoftware,KiCad,Pcbnew,8.0.6-8.0.6-0~ubuntu24.04.1*
G04 #@! TF.CreationDate,2024-11-16T03:15:43-08:00*
G04 #@! TF.ProjectId,uSlime,75536c69-6d65-42e6-9b69-6361645f7063,rev?*
G04 #@! TF.SameCoordinates,Original*
G04 #@! TF.FileFunction,Paste,Top*
G04 #@! TF.FilePolarity,Positive*
%FSLAX46Y46*%
G04 Gerber Fmt 4.6, Leading zero omitted, Abs format (unit mm)*
G04 Created by KiCad (PCBNEW 8.0.6-8.0.6-0~ubuntu24.04.1) date 2024-11-16 03:15:43*
%MOMM*%
%LPD*%
G01*
G04 APERTURE LIST*
G04 Aperture macros list*
%AMRoundRect*
0 Rectangle with rounded corners*
0 $1 Rounding radius*
0 $2 $3 $4 $5 $6 $7 $8 $9 X,Y pos of 4 corners*
0 Add a 4 corners polygon primitive as box body*
4,1,4,$2,$3,$4,$5,$6,$7,$8,$9,$2,$3,0*
0 Add four circle primitives for the rounded corners*
1,1,$1+$1,$2,$3*
1,1,$1+$1,$4,$5*
1,1,$1+$1,$6,$7*
1,1,$1+$1,$8,$9*
0 Add four rect primitives between the rounded corners*
20,1,$1+$1,$2,$3,$4,$5,0*
20,1,$1+$1,$4,$5,$6,$7,0*
20,1,$1+$1,$6,$7,$8,$9,0*
20,1,$1+$1,$8,$9,$2,$3,0*%
%AMFreePoly0*
4,1,6,0.725000,-0.725000,-0.725000,-0.725000,-0.725000,0.125000,-0.125000,0.725000,0.725000,0.725000,0.725000,-0.725000,0.725000,-0.725000,$1*%
G04 Aperture macros list end*
%ADD10RoundRect,0.135000X-0.185000X0.135000X-0.185000X-0.135000X0.185000X-0.135000X0.185000X0.135000X0*%
%ADD11RoundRect,0.218750X0.218750X0.256250X-0.218750X0.256250X-0.218750X-0.256250X0.218750X-0.256250X0*%
%ADD12RoundRect,0.147500X-0.172500X0.147500X-0.172500X-0.147500X0.172500X-0.147500X0.172500X0.147500X0*%
%ADD13RoundRect,0.135000X-0.135000X-0.185000X0.135000X-0.185000X0.135000X0.185000X-0.135000X0.185000X0*%
%ADD14RoundRect,0.135000X0.135000X0.185000X-0.135000X0.185000X-0.135000X-0.185000X0.135000X-0.185000X0*%
%ADD15RoundRect,0.140000X0.170000X-0.140000X0.170000X0.140000X-0.170000X0.140000X-0.170000X-0.140000X0*%
%ADD16RoundRect,0.140000X-0.170000X0.140000X-0.170000X-0.140000X0.170000X-0.140000X0.170000X0.140000X0*%
%ADD17RoundRect,0.150000X-0.150000X-0.425000X0.150000X-0.425000X0.150000X0.425000X-0.150000X0.425000X0*%
%ADD18RoundRect,0.075000X-0.075000X-0.500000X0.075000X-0.500000X0.075000X0.500000X-0.075000X0.500000X0*%
%ADD19O,1.000000X2.100000*%
%ADD20O,1.000000X1.800000*%
%ADD21RoundRect,0.135000X0.185000X-0.135000X0.185000X0.135000X-0.185000X0.135000X-0.185000X-0.135000X0*%
%ADD22RoundRect,0.140000X-0.140000X-0.170000X0.140000X-0.170000X0.140000X0.170000X-0.140000X0.170000X0*%
%ADD23R,0.250000X0.914400*%
%ADD24R,0.812800X0.250000*%
%ADD25R,1.320800X0.508000*%
%ADD26R,0.800000X0.400000*%
%ADD27R,0.400000X0.800000*%
%ADD28FreePoly0,0.000000*%
%ADD29R,1.450000X1.450000*%
%ADD30R,0.700000X0.700000*%
%ADD31R,0.700000X1.500000*%
%ADD32R,1.000000X0.800000*%
%ADD33R,1.700000X0.900000*%
%ADD34RoundRect,0.045000X-0.630000X0.255000X-0.630000X-0.255000X0.630000X-0.255000X0.630000X0.255000X0*%
%ADD35R,0.800000X0.700000*%
G04 APERTURE END LIST*
D10*
X111300000Y-95090000D03*
X111300000Y-96110000D03*
D11*
X111087500Y-93650000D03*
X109512500Y-93650000D03*
D12*
X107950000Y-102015000D03*
X107950000Y-102985000D03*
D13*
X121790000Y-101600000D03*
X122810000Y-101600000D03*
D14*
X115460000Y-108100000D03*
X114440000Y-108100000D03*
D13*
X123690000Y-104900000D03*
X124710000Y-104900000D03*
D15*
X105850000Y-96630000D03*
X105850000Y-95670000D03*
D13*
X114440000Y-107100000D03*
X115460000Y-107100000D03*
D15*
X111100000Y-91030000D03*
X111100000Y-90070000D03*
D16*
X106800000Y-100150000D03*
X106800000Y-101110000D03*
D17*
X102950000Y-104570000D03*
X103750000Y-104570000D03*
D18*
X104900000Y-104570000D03*
X105900000Y-104570000D03*
X106400000Y-104570000D03*
X107400000Y-104570000D03*
D17*
X108550000Y-104570000D03*
X109350000Y-104570000D03*
X109350000Y-104570000D03*
X108550000Y-104570000D03*
D18*
X107900000Y-104570000D03*
X106900000Y-104570000D03*
X105400000Y-104570000D03*
X104400000Y-104570000D03*
D17*
X103750000Y-104570000D03*
X102950000Y-104570000D03*
D19*
X101830000Y-105145000D03*
D20*
X101830000Y-109325000D03*
D19*
X110470000Y-105145000D03*
D20*
X110470000Y-109325000D03*
D14*
X115460000Y-106100000D03*
X114440000Y-106100000D03*
D21*
X113100000Y-110110000D03*
X113100000Y-109090000D03*
D13*
X123740000Y-101600000D03*
X124760000Y-101600000D03*
D21*
X113100000Y-108110000D03*
X113100000Y-107090000D03*
D10*
X112100000Y-107090000D03*
X112100000Y-108110000D03*
D12*
X106800000Y-98265000D03*
X106800000Y-99235000D03*
D16*
X111200000Y-101920000D03*
X111200000Y-102880000D03*
D22*
X121770000Y-104900000D03*
X122730000Y-104900000D03*
D13*
X109090000Y-102750000D03*
X110110000Y-102750000D03*
D21*
X106750000Y-94210000D03*
X106750000Y-93190000D03*
D13*
X114440000Y-109100000D03*
X115460000Y-109100000D03*
D23*
X112552600Y-101572670D03*
D24*
X112361600Y-102500000D03*
X112361600Y-103003070D03*
X112361600Y-103503070D03*
X112361600Y-104003060D03*
D23*
X112552600Y-104925470D03*
X113052600Y-104925470D03*
X113552600Y-104925470D03*
X114052600Y-104925470D03*
X114552600Y-104925470D03*
X115052600Y-104925470D03*
X115552600Y-104925470D03*
X116052600Y-104925470D03*
X116552600Y-104925470D03*
X117060600Y-104925470D03*
D24*
X117187600Y-104003070D03*
X117187600Y-103503070D03*
X117187600Y-103003070D03*
X117187600Y-102500000D03*
D23*
X117060600Y-101572670D03*
X116552600Y-101572670D03*
X116052600Y-101572670D03*
X115552600Y-101572670D03*
X115052600Y-101572670D03*
X114552600Y-101572670D03*
X114052600Y-101572670D03*
X113552600Y-101572670D03*
X113052600Y-101572670D03*
D10*
X111300000Y-96990000D03*
X111300000Y-98010000D03*
D22*
X112070000Y-106100000D03*
X113030000Y-106100000D03*
D10*
X112100000Y-109090000D03*
X112100000Y-110110000D03*
D25*
X107304600Y-95299999D03*
X107304600Y-96250000D03*
X107304600Y-97200001D03*
X109895400Y-97200001D03*
X109895400Y-95299999D03*
D13*
X102610000Y-93400000D03*
X101590000Y-93400000D03*
D26*
X112700000Y-91150000D03*
X112700000Y-91950000D03*
X112700000Y-92750000D03*
X112700000Y-93550000D03*
X112700000Y-94350000D03*
X112700000Y-95150000D03*
X112700000Y-95950000D03*
X112700000Y-96750000D03*
X112700000Y-97550000D03*
X112700000Y-98350000D03*
X112700000Y-99150000D03*
D27*
X113800000Y-100050000D03*
X114600000Y-100050000D03*
X115400000Y-100050000D03*
X116200000Y-100050000D03*
X117000000Y-100050000D03*
X117800000Y-100050000D03*
X118600000Y-100050000D03*
X119400000Y-100050000D03*
X120200000Y-100050000D03*
X121000000Y-100050000D03*
X121800000Y-100050000D03*
X122600000Y-100050000D03*
X123400000Y-100050000D03*
D26*
X124500000Y-99150000D03*
X124500000Y-98350000D03*
X124500000Y-97550000D03*
X124500000Y-96750000D03*
X124500000Y-95950000D03*
X124500000Y-95150000D03*
X124500000Y-94350000D03*
X124500000Y-93550000D03*
X124500000Y-92750000D03*
X124500000Y-91950000D03*
X124500000Y-91150000D03*
D27*
X123400000Y-90250000D03*
X122600000Y-90250000D03*
X121800000Y-90250000D03*
X121000000Y-90250000D03*
X120200000Y-90250000D03*
X119400000Y-90250000D03*
X118600000Y-90250000D03*
X117800000Y-90250000D03*
X117000000Y-90250000D03*
X116200000Y-90250000D03*
X115400000Y-90250000D03*
X114600000Y-90250000D03*
X113800000Y-90250000D03*
D28*
X116625000Y-93175000D03*
D29*
X116625000Y-95150000D03*
X116625000Y-97125000D03*
X118600000Y-93175000D03*
X118600000Y-95150000D03*
X118600000Y-97125000D03*
X120575000Y-93175000D03*
X120575000Y-95150000D03*
X120575000Y-97125000D03*
D30*
X124550000Y-90200000D03*
X124550000Y-100100000D03*
X112650000Y-100100000D03*
X112650000Y-90200000D03*
D13*
X114440000Y-110100000D03*
X115460000Y-110100000D03*
D31*
X108225000Y-92975000D03*
X103725000Y-92975000D03*
D32*
X102325000Y-90260000D03*
X102325000Y-92190000D03*
X109625000Y-90260000D03*
X109625000Y-92190000D03*
D31*
X105225000Y-92975000D03*
D33*
X119650000Y-105100000D03*
X119650000Y-101700000D03*
D34*
X108415000Y-99000000D03*
X108415000Y-99950000D03*
X108415000Y-100900000D03*
X110785000Y-100900000D03*
X110785000Y-99000000D03*
D15*
X106800000Y-102980000D03*
X106800000Y-102020000D03*
D35*
X121850000Y-103800000D03*
X121850000Y-102700000D03*
X124750000Y-102700000D03*
X124750000Y-103800000D03*
M02*
