M48
; DRILL file {KiCad 8.0.6-8.0.6-0~ubuntu24.04.1} date 2024-11-07T20:15:25-0800
; FORMAT={-:-/ absolute / inch / decimal}
; #@! TF.CreationDate,2024-11-07T20:15:25-08:00
; #@! TF.GenerationSoftware,Kicad,Pcbnew,8.0.6-8.0.6-0~ubuntu24.04.1
; #@! TF.FileFunction,Plated,1,2,PTH
FMAT,2
INCH
; #@! TA.AperFunction,Plated,PTH,ViaDrill
T1C0.0118
; #@! TA.AperFunction,Plated,PTH,ViaDrill
T2C0.0157
; #@! TA.AperFunction,Plated,PTH,ComponentDrill
T3C0.0236
; #@! TA.AperFunction,Plated,PTH,ComponentDrill
T4C0.0295
%
G90
G05
T1
X4.1427Y-3.6959
X4.1801Y-3.9065
X4.248Y-4.1634
X4.2819Y-4.0206
X4.3248Y-4.2303
X4.3473Y-4.0139
X4.3524Y-4.2076
X4.374Y-3.6909
X4.3746Y-4.2513
X4.3819Y-3.7173
X4.4095Y-3.8424
X4.461Y-4.0754
X4.4776Y-4.197
X4.4805Y-4.3622
X4.4869Y-3.8396
X4.5096Y-3.7763
X4.5107Y-4.0591
X4.5118Y-3.9035
X4.5714Y-4.0719
X4.5738Y-4.1666
X4.5748Y-3.9021
X4.6328Y-4.0
X4.6378Y-3.9114
X4.6693Y-3.9134
X4.6782Y-3.9901
X4.7353Y-3.9111
X4.7638Y-3.8969
X4.8031Y-3.8917
X4.8169Y-3.8051
X4.8384Y-4.0884
X4.8445Y-3.689
X4.8543Y-3.8996
X4.874Y-4.2639
T2
X4.1201Y-4.1909
X4.2539Y-3.7894
X4.2776Y-3.8268
X4.3001Y-3.935
X4.3525Y-3.7151
X4.3622Y-3.9311
X4.5748Y-3.5827
X4.6142Y-4.3051
X4.7028Y-4.2776
X4.7106Y-4.1339
X4.762Y-3.8246
X4.7638Y-4.0807
X4.8917Y-3.9724
T3
X4.1582Y-3.9518
X4.1582Y-4.001
T4
X4.6376Y-4.2047
X4.6967Y-4.2047
X4.7557Y-4.2047
X4.8148Y-4.2047
X4.8738Y-4.2047
T3
G00X4.0091Y-4.1179
M15
G01X4.0091Y-4.1612
M16
G05
G00X4.0091Y-4.2884
M15
G01X4.0091Y-4.3199
M16
G05
G00X4.3492Y-4.1179
M15
G01X4.3492Y-4.1612
M16
G05
G00X4.3492Y-4.2884
M15
G01X4.3492Y-4.3199
M16
G05
M30
