M48
; DRILL file {KiCad 8.0.2} date 2024-08-22T04:58:58-0700
; FORMAT={-:-/ absolute / metric / decimal}
; #@! TF.CreationDate,2024-08-22T04:58:58-07:00
; #@! TF.GenerationSoftware,Kicad,Pcbnew,8.0.2
; #@! TF.FileFunction,Plated,1,2,PTH
FMAT,2
METRIC
; #@! TA.AperFunction,Plated,PTH,ViaDrill
T1C0.300
; #@! TA.AperFunction,Plated,PTH,ViaDrill
T2C0.400
; #@! TA.AperFunction,Plated,PTH,ComponentDrill
T3C0.600
; #@! TA.AperFunction,Plated,PTH,ComponentDrill
T4C0.750
%
G90
G05
T1
X105.85Y-94.5
X106.175Y-99.225
X107.9Y-105.75
X108.15Y-94.4
X108.76Y-102.123
X109.85Y-107.45
X110.35Y-106.75
X110.446Y-101.65
X111.123Y-103.7
X111.25Y-94.45
X111.7Y-109.8
X113.436Y-103.426
X113.767Y-97.55
X113.8Y-96.75
X114.112Y-107.341
X114.323Y-95.5
X114.604Y-99.054
X115.65Y-103.75
X116.2Y-99.114
X116.55Y-105.8
X117.673Y-101.6
X117.8Y-99.35
X118.6Y-99.4
X119.9Y-103.284
X120.1Y-91.6
X121.455Y-100.876
X122.023Y-99.378
X122.658Y-98.04
X122.899Y-99.315
X123.15Y-91.7
X123.3Y-97.55
X123.8Y-108.95
X124.825Y-103.052
T2
X104.65Y-106.45
X108.4Y-96.25
X108.65Y-97.2
X109.223Y-99.95
X110.8Y-99.85
X114.65Y-103.65
X114.9Y-96.123
X115.0Y-91.95
X117.2Y-109.527
X119.0Y-105.0
X123.465Y-102.261
T3
X105.619Y-100.375
X105.619Y-101.625
T4
X117.795Y-106.8
X119.295Y-106.8
X120.795Y-106.8
X122.295Y-106.8
X123.795Y-106.8
T3
X101.83Y-104.595G85X101.83Y-105.695
G05
X101.83Y-108.925G85X101.83Y-109.725
G05
X110.47Y-104.595G85X110.47Y-105.695
G05
X110.47Y-108.925G85X110.47Y-109.725
G05
M30
