G04 #@! TF.GenerationSoftware,KiCad,Pcbnew,8.0.2-8.0.2-0~ubuntu22.04.1*
G04 #@! TF.CreationDate,2024-06-05T03:13:53-07:00*
G04 #@! TF.ProjectId,uSlime,75536c69-6d65-42e6-9b69-6361645f7063,rev?*
G04 #@! TF.SameCoordinates,Original*
G04 #@! TF.FileFunction,Copper,L2,Bot*
G04 #@! TF.FilePolarity,Positive*
%FSLAX46Y46*%
G04 Gerber Fmt 4.6, Leading zero omitted, Abs format (unit mm)*
G04 Created by KiCad (PCBNEW 8.0.2-8.0.2-0~ubuntu22.04.1) date 2024-06-05 03:13:53*
%MOMM*%
%LPD*%
G01*
G04 APERTURE LIST*
G04 #@! TA.AperFunction,ComponentPad*
%ADD10C,1.200000*%
G04 #@! TD*
G04 #@! TA.AperFunction,ComponentPad*
%ADD11O,1.000000X2.100000*%
G04 #@! TD*
G04 #@! TA.AperFunction,ComponentPad*
%ADD12O,1.000000X1.800000*%
G04 #@! TD*
G04 #@! TA.AperFunction,ComponentPad*
%ADD13C,1.000000*%
G04 #@! TD*
G04 #@! TA.AperFunction,SMDPad,CuDef*
%ADD14R,2.000000X2.000000*%
G04 #@! TD*
G04 #@! TA.AperFunction,ViaPad*
%ADD15C,0.600000*%
G04 #@! TD*
G04 #@! TA.AperFunction,ViaPad*
%ADD16C,0.500000*%
G04 #@! TD*
G04 #@! TA.AperFunction,Conductor*
%ADD17C,0.254000*%
G04 #@! TD*
G04 APERTURE END LIST*
D10*
X117795000Y-106800000D03*
X119295000Y-106800000D03*
X120795000Y-106800000D03*
X122295000Y-106800000D03*
X123795000Y-106800000D03*
D11*
X101830000Y-105145000D03*
D12*
X101830000Y-109325000D03*
D11*
X110470000Y-105145000D03*
D12*
X110470000Y-109325000D03*
D13*
X105619000Y-100375000D03*
X105619000Y-101625000D03*
D14*
X113800000Y-109350000D03*
X117200000Y-109350000D03*
X120100000Y-95800000D03*
X123150000Y-92800000D03*
X106150000Y-108100000D03*
X123150000Y-95800000D03*
X120100000Y-92800000D03*
D15*
X122300000Y-105677000D03*
X109223000Y-99950000D03*
X108400000Y-96250000D03*
X123464941Y-102261223D03*
X115000000Y-91950000D03*
D16*
X113800000Y-96750000D03*
X118170000Y-102380000D03*
X122899255Y-99315257D03*
X121454947Y-100875981D03*
D15*
X108650000Y-97200000D03*
X104650000Y-106450000D03*
D16*
X124824631Y-103052239D03*
X122023000Y-99378037D03*
X122658000Y-98040369D03*
X123300000Y-97550000D03*
X110350000Y-106750000D03*
X118600000Y-99400000D03*
X109850000Y-107450003D03*
X117800000Y-99350000D03*
X113350000Y-103150000D03*
X114604027Y-99054027D03*
X123150000Y-91700000D03*
X120100000Y-91600000D03*
X116200000Y-99114218D03*
X114044598Y-102650000D03*
D15*
X118177000Y-103750000D03*
X114850000Y-103750000D03*
X110800000Y-99850000D03*
X114900000Y-96123000D03*
D16*
X114323000Y-95500000D03*
X120795000Y-105605000D03*
X113766999Y-97550000D03*
X110446328Y-101650000D03*
X107900000Y-105750000D03*
X111123000Y-103700000D03*
X111250000Y-94450000D03*
X108150000Y-94400000D03*
X105850000Y-94500000D03*
X108760000Y-102123000D03*
X106175000Y-99225000D03*
D17*
X106175000Y-99225000D02*
X106950000Y-100000000D01*
X106950000Y-100000000D02*
X106950000Y-101050000D01*
X106950000Y-101050000D02*
X108023000Y-102123000D01*
X108023000Y-102123000D02*
X108760000Y-102123000D01*
X106175000Y-99225000D02*
X105850000Y-98900000D01*
X105850000Y-98900000D02*
X105850000Y-94500000D01*
X110470000Y-105145000D02*
X110470000Y-105695000D01*
X123464941Y-102261223D02*
X123464941Y-104512059D01*
X123464941Y-104512059D02*
X122300000Y-105677000D01*
X108023000Y-98750000D02*
X108023000Y-96627000D01*
X109250000Y-106915000D02*
X109250000Y-108105000D01*
X110470000Y-105695000D02*
X109250000Y-106915000D01*
X109223000Y-99950000D02*
X108023000Y-98750000D01*
X109250000Y-108105000D02*
X110470000Y-109325000D01*
X108023000Y-96627000D02*
X108400000Y-96250000D01*
X118150000Y-102400000D02*
X119300000Y-101250000D01*
X118839002Y-98623000D02*
X118665052Y-98623000D01*
X119300000Y-101250000D02*
X119300000Y-99083998D01*
X116792052Y-96750000D02*
X113800000Y-96750000D01*
X119300000Y-99083998D02*
X118839002Y-98623000D01*
X118665052Y-98623000D02*
X116792052Y-96750000D01*
X122899255Y-100350745D02*
X122374019Y-100875981D01*
X122899255Y-99315257D02*
X122899255Y-100350745D01*
X122374019Y-100875981D02*
X121454947Y-100875981D01*
X106150000Y-107950000D02*
X106150000Y-108100000D01*
X104650000Y-105350000D02*
X104650000Y-106450000D01*
X109026002Y-102700000D02*
X107300000Y-102700000D01*
X109850000Y-98400000D02*
X109850000Y-101876002D01*
X107300000Y-102700000D02*
X104650000Y-105350000D01*
X104650000Y-106450000D02*
X106150000Y-107950000D01*
X109850000Y-101876002D02*
X109026002Y-102700000D01*
X108650000Y-97200000D02*
X109850000Y-98400000D01*
X122322255Y-99076255D02*
X122798510Y-98600000D01*
X122322255Y-99078782D02*
X122322255Y-99076255D01*
X123500000Y-98600000D02*
X124800000Y-99900000D01*
X122023000Y-99378037D02*
X122322255Y-99078782D01*
X122798510Y-98600000D02*
X123500000Y-98600000D01*
X124800000Y-99900000D02*
X124800000Y-103050000D01*
X120100000Y-95800000D02*
X122340369Y-98040369D01*
X122340369Y-98040369D02*
X122658000Y-98040369D01*
X123150000Y-95800000D02*
X123150000Y-97400000D01*
X123150000Y-97400000D02*
X123300000Y-97550000D01*
X110350000Y-106750000D02*
X110950000Y-106750000D01*
X114800000Y-97400000D02*
X116692052Y-97400000D01*
X116692052Y-97400000D02*
X118600000Y-99307948D01*
X111700000Y-106000000D02*
X111700000Y-100500000D01*
X110950000Y-106750000D02*
X111700000Y-106000000D01*
X111700000Y-100500000D02*
X114800000Y-97400000D01*
X118600000Y-99307948D02*
X118600000Y-99400000D01*
X117800000Y-99150000D02*
X116600000Y-97950000D01*
X116600000Y-97950000D02*
X114892052Y-97950000D01*
X109850000Y-107450003D02*
X110892050Y-107450003D01*
X112154000Y-100688052D02*
X112154000Y-106188053D01*
X112154000Y-106188053D02*
X110892050Y-107450003D01*
X114892052Y-97950000D02*
X112154000Y-100688052D01*
X114604027Y-99054027D02*
X113350000Y-100308054D01*
X113350000Y-100308054D02*
X113350000Y-103150000D01*
X123150000Y-92800000D02*
X123150000Y-91700000D01*
X115250000Y-106800000D02*
X117795000Y-106800000D01*
X114044598Y-105594598D02*
X115250000Y-106800000D01*
X116200000Y-99142998D02*
X114044598Y-101298400D01*
X114044598Y-101298400D02*
X114044598Y-102650000D01*
X114044598Y-102650000D02*
X114044598Y-105594598D01*
X120100000Y-91600000D02*
X120100000Y-92800000D01*
X116200000Y-99114218D02*
X116200000Y-99142998D01*
X118177000Y-105682000D02*
X119295000Y-106800000D01*
X116807104Y-96123000D02*
X118853104Y-98169000D01*
X117200000Y-108895000D02*
X119295000Y-106800000D01*
X114900000Y-96123000D02*
X112392947Y-96123000D01*
X118177000Y-103750000D02*
X118177000Y-105682000D01*
X112392947Y-96123000D02*
X110800000Y-97715947D01*
X118853104Y-98169000D02*
X119027055Y-98169000D01*
X119754000Y-102173000D02*
X118177000Y-103750000D01*
X119027055Y-98169000D02*
X119754000Y-98895945D01*
X117200000Y-109350000D02*
X117200000Y-108895000D01*
X119754000Y-98895945D02*
X119754000Y-102173000D01*
X110800000Y-97715947D02*
X110800000Y-99850000D01*
X118177000Y-103750000D02*
X114850000Y-103750000D01*
X114900000Y-96123000D02*
X116807104Y-96123000D01*
X114323000Y-95500000D02*
X114373000Y-95450000D01*
X120800000Y-99299892D02*
X120800000Y-105600000D01*
X116776156Y-95450000D02*
X119041156Y-97715000D01*
X119041156Y-97715000D02*
X119215108Y-97715000D01*
X119215108Y-97715000D02*
X120800000Y-99299892D01*
X114373000Y-95450000D02*
X116776156Y-95450000D01*
X110446328Y-101111620D02*
X113766999Y-97790949D01*
X113766999Y-97790949D02*
X113766999Y-97550000D01*
X110446328Y-101650000D02*
X110446328Y-101111620D01*
X109200000Y-103600000D02*
X111023000Y-103600000D01*
X107900000Y-104900000D02*
X109200000Y-103600000D01*
X111023000Y-103600000D02*
X111123000Y-103700000D01*
X107900000Y-105750000D02*
X107900000Y-104900000D01*
X108150000Y-94400000D02*
X111200000Y-94400000D01*
X111200000Y-94400000D02*
X111250000Y-94450000D01*
G04 #@! TA.AperFunction,Conductor*
G36*
X124573644Y-89857584D02*
G01*
X124573980Y-89857607D01*
X124577000Y-89857607D01*
X124577004Y-89857608D01*
X124640144Y-89857607D01*
X124645630Y-89857914D01*
X124748562Y-89869512D01*
X124759257Y-89871953D01*
X124854407Y-89905247D01*
X124864292Y-89910007D01*
X124943020Y-89959475D01*
X124949654Y-89963643D01*
X124958233Y-89970485D01*
X125029514Y-90041766D01*
X125036356Y-90050345D01*
X125089992Y-90135707D01*
X125094752Y-90145593D01*
X125128045Y-90240741D01*
X125130487Y-90251438D01*
X125142084Y-90354368D01*
X125142392Y-90359854D01*
X125142392Y-90425963D01*
X125142416Y-90426334D01*
X125145458Y-99239726D01*
X125131118Y-99274379D01*
X125096475Y-99288743D01*
X125061822Y-99274403D01*
X123900004Y-98112585D01*
X123888971Y-98105214D01*
X123868134Y-98074032D01*
X123875449Y-98037250D01*
X123881541Y-98029825D01*
X123890477Y-98020890D01*
X123980456Y-97877690D01*
X124036313Y-97718059D01*
X124055249Y-97550000D01*
X124036313Y-97381941D01*
X124030624Y-97365682D01*
X124032727Y-97328239D01*
X124060690Y-97303249D01*
X124076874Y-97300499D01*
X124197878Y-97300499D01*
X124257478Y-97294092D01*
X124257479Y-97294091D01*
X124257483Y-97294091D01*
X124392331Y-97243796D01*
X124507546Y-97157546D01*
X124593796Y-97042331D01*
X124644091Y-96907483D01*
X124644091Y-96907481D01*
X124644092Y-96907479D01*
X124650499Y-96847879D01*
X124650500Y-96847873D01*
X124650499Y-94752128D01*
X124650499Y-94752127D01*
X124650499Y-94752120D01*
X124644092Y-94692521D01*
X124640062Y-94681716D01*
X124593796Y-94557669D01*
X124507546Y-94442454D01*
X124449938Y-94399329D01*
X124392332Y-94356204D01*
X124392330Y-94356203D01*
X124364731Y-94345909D01*
X124337284Y-94320354D01*
X124335946Y-94282874D01*
X124361501Y-94255427D01*
X124364709Y-94254098D01*
X124392331Y-94243796D01*
X124507546Y-94157546D01*
X124593796Y-94042331D01*
X124644091Y-93907483D01*
X124644091Y-93907481D01*
X124644092Y-93907479D01*
X124649247Y-93859523D01*
X124650500Y-93847873D01*
X124650499Y-91752128D01*
X124650499Y-91752127D01*
X124650499Y-91752120D01*
X124644092Y-91692521D01*
X124644091Y-91692517D01*
X124593796Y-91557669D01*
X124507546Y-91442454D01*
X124438314Y-91390627D01*
X124392333Y-91356205D01*
X124392331Y-91356204D01*
X124347381Y-91339439D01*
X124257479Y-91305907D01*
X124197879Y-91299500D01*
X124197873Y-91299500D01*
X123811787Y-91299500D01*
X123777139Y-91285148D01*
X123770297Y-91276569D01*
X123768998Y-91274502D01*
X123740477Y-91229110D01*
X123620890Y-91109523D01*
X123477690Y-91019544D01*
X123318059Y-90963687D01*
X123318055Y-90963686D01*
X123318053Y-90963686D01*
X123150000Y-90944751D01*
X122981946Y-90963686D01*
X122981937Y-90963688D01*
X122822310Y-91019544D01*
X122822308Y-91019545D01*
X122679112Y-91109521D01*
X122679108Y-91109524D01*
X122559525Y-91229106D01*
X122559523Y-91229108D01*
X122529701Y-91276570D01*
X122499115Y-91298272D01*
X122488212Y-91299500D01*
X122102120Y-91299500D01*
X122042521Y-91305907D01*
X121907666Y-91356205D01*
X121792454Y-91442454D01*
X121706204Y-91557667D01*
X121706202Y-91557671D01*
X121670909Y-91652295D01*
X121645354Y-91679743D01*
X121607875Y-91681081D01*
X121580427Y-91655526D01*
X121579096Y-91652313D01*
X121543796Y-91557669D01*
X121457546Y-91442454D01*
X121388314Y-91390627D01*
X121342333Y-91356205D01*
X121342331Y-91356204D01*
X121297381Y-91339439D01*
X121207479Y-91305907D01*
X121147879Y-91299500D01*
X121147873Y-91299500D01*
X120824339Y-91299500D01*
X120789691Y-91285148D01*
X120782139Y-91274502D01*
X120781921Y-91274640D01*
X120690478Y-91129112D01*
X120690477Y-91129110D01*
X120570890Y-91009523D01*
X120427690Y-90919544D01*
X120268059Y-90863687D01*
X120268055Y-90863686D01*
X120268053Y-90863686D01*
X120100000Y-90844751D01*
X119931946Y-90863686D01*
X119931937Y-90863688D01*
X119772310Y-90919544D01*
X119772308Y-90919545D01*
X119629112Y-91009521D01*
X119629108Y-91009524D01*
X119509524Y-91129108D01*
X119509521Y-91129112D01*
X119418080Y-91274640D01*
X119417205Y-91274090D01*
X119391834Y-91296754D01*
X119375661Y-91299500D01*
X119052120Y-91299500D01*
X118992521Y-91305907D01*
X118857666Y-91356205D01*
X118742454Y-91442454D01*
X118656205Y-91557666D01*
X118605907Y-91692520D01*
X118599500Y-91752120D01*
X118599500Y-93847879D01*
X118605907Y-93907478D01*
X118610673Y-93920256D01*
X118656204Y-94042331D01*
X118742454Y-94157546D01*
X118857669Y-94243796D01*
X118885267Y-94254089D01*
X118912715Y-94279645D01*
X118914054Y-94317124D01*
X118888498Y-94344572D01*
X118885276Y-94345907D01*
X118864274Y-94353740D01*
X118857666Y-94356205D01*
X118742454Y-94442454D01*
X118656205Y-94557666D01*
X118605907Y-94692520D01*
X118599500Y-94752120D01*
X118599500Y-96267629D01*
X118585148Y-96302277D01*
X118550500Y-96316629D01*
X118515852Y-96302277D01*
X117176163Y-94962588D01*
X117166427Y-94956083D01*
X117147465Y-94943413D01*
X117073389Y-94893917D01*
X117073386Y-94893915D01*
X117073385Y-94893915D01*
X117039940Y-94880062D01*
X116959194Y-94846615D01*
X116959188Y-94846613D01*
X116910298Y-94836888D01*
X116837959Y-94822500D01*
X116837956Y-94822500D01*
X114667462Y-94822500D01*
X114651278Y-94819750D01*
X114650690Y-94819544D01*
X114491059Y-94763687D01*
X114491055Y-94763686D01*
X114491053Y-94763686D01*
X114323000Y-94744751D01*
X114154946Y-94763686D01*
X114154937Y-94763688D01*
X113995310Y-94819544D01*
X113995308Y-94819545D01*
X113852112Y-94909521D01*
X113852108Y-94909524D01*
X113732524Y-95029108D01*
X113732521Y-95029112D01*
X113642545Y-95172308D01*
X113642544Y-95172310D01*
X113586688Y-95331937D01*
X113586686Y-95331946D01*
X113573161Y-95451986D01*
X113555020Y-95484810D01*
X113524469Y-95495500D01*
X112331140Y-95495500D01*
X112209919Y-95519613D01*
X112209910Y-95519615D01*
X112095717Y-95566915D01*
X111992939Y-95635588D01*
X110312588Y-97315939D01*
X110243915Y-97418717D01*
X110231003Y-97449891D01*
X110231003Y-97449892D01*
X110196615Y-97532908D01*
X110196613Y-97532914D01*
X110193310Y-97549522D01*
X110175242Y-97640361D01*
X110173770Y-97647763D01*
X110172500Y-97654146D01*
X110172500Y-97716785D01*
X110158148Y-97751433D01*
X110123500Y-97765785D01*
X110088852Y-97751433D01*
X109457295Y-97119876D01*
X109443251Y-97090714D01*
X109441784Y-97077690D01*
X109435368Y-97020745D01*
X109375789Y-96850478D01*
X109375788Y-96850477D01*
X109375787Y-96850473D01*
X109279817Y-96697740D01*
X109279816Y-96697738D01*
X109152262Y-96570184D01*
X109152259Y-96570182D01*
X108999526Y-96474212D01*
X108829258Y-96414633D01*
X108829257Y-96414632D01*
X108829255Y-96414632D01*
X108829251Y-96414631D01*
X108829249Y-96414631D01*
X108650000Y-96394435D01*
X108470750Y-96414631D01*
X108470741Y-96414633D01*
X108300473Y-96474212D01*
X108147740Y-96570182D01*
X108147736Y-96570185D01*
X108020185Y-96697736D01*
X108020182Y-96697740D01*
X107924212Y-96850473D01*
X107864633Y-97020741D01*
X107864631Y-97020750D01*
X107844435Y-97200000D01*
X107864631Y-97379249D01*
X107864633Y-97379258D01*
X107924212Y-97549526D01*
X108020182Y-97702259D01*
X108020184Y-97702262D01*
X108147738Y-97829816D01*
X108147740Y-97829817D01*
X108300473Y-97925787D01*
X108300477Y-97925788D01*
X108300478Y-97925789D01*
X108470745Y-97985368D01*
X108540714Y-97993251D01*
X108569876Y-98007295D01*
X109208148Y-98645567D01*
X109222500Y-98680215D01*
X109222500Y-101438591D01*
X109208148Y-101473239D01*
X109173500Y-101487591D01*
X109147431Y-101480081D01*
X109087693Y-101442545D01*
X108928062Y-101386688D01*
X108928061Y-101386687D01*
X108928059Y-101386687D01*
X108928055Y-101386686D01*
X108928053Y-101386686D01*
X108760000Y-101367751D01*
X108591946Y-101386686D01*
X108591937Y-101386688D01*
X108432305Y-101442545D01*
X108359984Y-101487989D01*
X108333914Y-101495500D01*
X108303215Y-101495500D01*
X108268567Y-101481148D01*
X107591852Y-100804433D01*
X107577500Y-100769785D01*
X107577500Y-99938198D01*
X107572157Y-99911333D01*
X107572157Y-99911332D01*
X107553388Y-99816976D01*
X107553387Y-99816975D01*
X107553386Y-99816966D01*
X107553177Y-99816462D01*
X107511964Y-99716965D01*
X107506882Y-99704696D01*
X107506083Y-99702767D01*
X107437411Y-99599992D01*
X107350008Y-99512589D01*
X106925589Y-99088170D01*
X106911545Y-99059001D01*
X106911313Y-99056941D01*
X106855456Y-98897310D01*
X106765477Y-98754110D01*
X106645890Y-98634523D01*
X106615770Y-98615597D01*
X106500430Y-98543123D01*
X106478728Y-98512537D01*
X106477500Y-98501634D01*
X106477500Y-94926084D01*
X106485011Y-94900014D01*
X106488842Y-94893917D01*
X106530456Y-94827690D01*
X106586313Y-94668059D01*
X106605249Y-94500000D01*
X106593982Y-94400000D01*
X107394751Y-94400000D01*
X107412516Y-94557671D01*
X107413687Y-94568059D01*
X107469544Y-94727690D01*
X107559523Y-94870890D01*
X107679110Y-94990477D01*
X107822310Y-95080456D01*
X107981941Y-95136313D01*
X108150000Y-95155249D01*
X108318059Y-95136313D01*
X108477690Y-95080456D01*
X108477692Y-95080454D01*
X108477694Y-95080454D01*
X108550016Y-95035011D01*
X108576086Y-95027500D01*
X110745837Y-95027500D01*
X110775982Y-95039987D01*
X110776960Y-95038762D01*
X110779107Y-95040474D01*
X110779110Y-95040477D01*
X110922310Y-95130456D01*
X111081941Y-95186313D01*
X111250000Y-95205249D01*
X111418059Y-95186313D01*
X111577690Y-95130456D01*
X111720890Y-95040477D01*
X111840477Y-94920890D01*
X111930456Y-94777690D01*
X111986313Y-94618059D01*
X112005249Y-94450000D01*
X111986313Y-94281941D01*
X111930456Y-94122310D01*
X111840477Y-93979110D01*
X111720890Y-93859523D01*
X111577690Y-93769544D01*
X111418059Y-93713687D01*
X111418055Y-93713686D01*
X111418053Y-93713686D01*
X111250000Y-93694751D01*
X111081946Y-93713686D01*
X111081937Y-93713688D01*
X110993165Y-93744751D01*
X110922310Y-93769544D01*
X110922309Y-93769544D01*
X110921722Y-93769750D01*
X110905538Y-93772500D01*
X108576086Y-93772500D01*
X108550016Y-93764989D01*
X108477694Y-93719545D01*
X108318062Y-93663688D01*
X108318061Y-93663687D01*
X108318059Y-93663687D01*
X108318055Y-93663686D01*
X108318053Y-93663686D01*
X108150000Y-93644751D01*
X107981946Y-93663686D01*
X107981937Y-93663688D01*
X107822310Y-93719544D01*
X107822308Y-93719545D01*
X107679112Y-93809521D01*
X107679108Y-93809524D01*
X107559524Y-93929108D01*
X107559521Y-93929112D01*
X107469545Y-94072308D01*
X107469544Y-94072310D01*
X107413688Y-94231937D01*
X107413686Y-94231946D01*
X107394751Y-94400000D01*
X106593982Y-94400000D01*
X106586313Y-94331941D01*
X106530456Y-94172310D01*
X106440477Y-94029110D01*
X106320890Y-93909523D01*
X106317643Y-93907483D01*
X106241316Y-93859523D01*
X106177690Y-93819544D01*
X106018059Y-93763687D01*
X106018055Y-93763686D01*
X106018053Y-93763686D01*
X105850000Y-93744751D01*
X105681946Y-93763686D01*
X105681937Y-93763688D01*
X105522310Y-93819544D01*
X105522308Y-93819545D01*
X105379112Y-93909521D01*
X105379108Y-93909524D01*
X105259524Y-94029108D01*
X105259521Y-94029112D01*
X105169545Y-94172308D01*
X105169544Y-94172310D01*
X105113688Y-94331937D01*
X105113686Y-94331946D01*
X105094751Y-94500000D01*
X105111910Y-94652294D01*
X105113687Y-94668059D01*
X105159759Y-94799727D01*
X105169544Y-94827689D01*
X105169544Y-94827691D01*
X105196687Y-94870887D01*
X105211156Y-94893915D01*
X105214989Y-94900014D01*
X105222500Y-94926084D01*
X105222500Y-98838197D01*
X105222500Y-98961803D01*
X105236945Y-99034425D01*
X105246613Y-99083032D01*
X105246615Y-99083038D01*
X105269406Y-99138058D01*
X105293916Y-99197231D01*
X105320530Y-99237062D01*
X105362588Y-99300007D01*
X105387072Y-99324491D01*
X105401424Y-99359139D01*
X105387072Y-99393787D01*
X105366648Y-99406029D01*
X105234274Y-99446185D01*
X105060458Y-99539092D01*
X105060455Y-99539094D01*
X104908117Y-99664117D01*
X104783094Y-99816455D01*
X104783092Y-99816458D01*
X104690185Y-99990273D01*
X104632976Y-100178866D01*
X104632976Y-100178867D01*
X104613659Y-100374999D01*
X104613659Y-100375000D01*
X104632976Y-100571132D01*
X104632976Y-100571133D01*
X104690185Y-100759726D01*
X104783092Y-100933541D01*
X104783094Y-100933544D01*
X104812445Y-100969307D01*
X104823332Y-101005195D01*
X104812446Y-101031478D01*
X104783507Y-101066741D01*
X104690654Y-101240456D01*
X104690649Y-101240468D01*
X104633470Y-101428961D01*
X104633468Y-101428969D01*
X104614161Y-101624999D01*
X104614161Y-101625000D01*
X104633468Y-101821030D01*
X104633470Y-101821038D01*
X104690649Y-102009531D01*
X104690654Y-102009543D01*
X104756922Y-102133522D01*
X104756923Y-102133523D01*
X105324145Y-101566299D01*
X105319000Y-101585504D01*
X105319000Y-101664496D01*
X105339444Y-101740796D01*
X105378940Y-101809205D01*
X105434795Y-101865060D01*
X105503204Y-101904556D01*
X105579504Y-101925000D01*
X105658496Y-101925000D01*
X105734796Y-101904556D01*
X105803205Y-101865060D01*
X105859060Y-101809205D01*
X105898556Y-101740796D01*
X105919000Y-101664496D01*
X105919000Y-101585504D01*
X105913855Y-101566302D01*
X106481075Y-102133523D01*
X106481075Y-102133522D01*
X106547347Y-102009539D01*
X106547350Y-102009532D01*
X106604529Y-101821038D01*
X106604531Y-101821030D01*
X106614916Y-101715592D01*
X106632595Y-101682518D01*
X106668483Y-101671631D01*
X106698328Y-101685747D01*
X107059616Y-102047035D01*
X107073968Y-102081683D01*
X107059616Y-102116331D01*
X107043720Y-102126953D01*
X107002769Y-102143916D01*
X107002767Y-102143917D01*
X106986942Y-102154491D01*
X106950097Y-102179110D01*
X106899992Y-102212588D01*
X104162588Y-104949992D01*
X104093916Y-105052768D01*
X104088553Y-105065717D01*
X104046615Y-105166961D01*
X104046611Y-105166976D01*
X104023733Y-105281988D01*
X104023734Y-105281989D01*
X104022500Y-105288191D01*
X104022500Y-105929935D01*
X104014989Y-105956005D01*
X103924212Y-106100473D01*
X103864633Y-106270741D01*
X103864631Y-106270750D01*
X103844435Y-106450000D01*
X103864631Y-106629249D01*
X103864633Y-106629258D01*
X103924212Y-106799526D01*
X104015461Y-106944745D01*
X104020184Y-106952262D01*
X104147738Y-107079816D01*
X104147740Y-107079817D01*
X104300473Y-107175787D01*
X104300477Y-107175788D01*
X104300478Y-107175789D01*
X104470745Y-107235368D01*
X104540714Y-107243251D01*
X104569876Y-107257295D01*
X104635148Y-107322567D01*
X104649500Y-107357215D01*
X104649500Y-109147879D01*
X104655907Y-109207478D01*
X104655909Y-109207483D01*
X104706204Y-109342331D01*
X104792454Y-109457546D01*
X104907669Y-109543796D01*
X105042517Y-109594091D01*
X105042520Y-109594092D01*
X105086177Y-109598785D01*
X105102127Y-109600500D01*
X107197872Y-109600499D01*
X107197878Y-109600499D01*
X107257478Y-109594092D01*
X107257479Y-109594091D01*
X107257483Y-109594091D01*
X107392331Y-109543796D01*
X107507546Y-109457546D01*
X107593796Y-109342331D01*
X107644091Y-109207483D01*
X107644091Y-109207481D01*
X107644092Y-109207479D01*
X107650499Y-109147879D01*
X107650500Y-109147873D01*
X107650499Y-107052128D01*
X107650499Y-107052120D01*
X107644092Y-106992521D01*
X107639092Y-106979115D01*
X107593796Y-106857669D01*
X107587583Y-106849370D01*
X107550267Y-106799522D01*
X107507546Y-106742454D01*
X107403897Y-106664862D01*
X107392333Y-106656205D01*
X107392331Y-106656204D01*
X107320061Y-106629249D01*
X107257479Y-106605907D01*
X107197879Y-106599500D01*
X107197873Y-106599500D01*
X105707215Y-106599500D01*
X105672567Y-106585148D01*
X105457295Y-106369876D01*
X105443251Y-106340714D01*
X105435368Y-106270745D01*
X105375789Y-106100478D01*
X105375788Y-106100477D01*
X105375787Y-106100473D01*
X105285011Y-105956005D01*
X105277500Y-105929935D01*
X105277500Y-105630215D01*
X105291852Y-105595567D01*
X107545567Y-103341852D01*
X107580215Y-103327500D01*
X108466785Y-103327500D01*
X108501433Y-103341852D01*
X108515785Y-103376500D01*
X108501433Y-103411148D01*
X107412588Y-104499992D01*
X107343644Y-104603175D01*
X107342995Y-104604990D01*
X107296616Y-104716957D01*
X107296613Y-104716967D01*
X107281308Y-104793917D01*
X107272500Y-104838199D01*
X107272500Y-105323914D01*
X107264989Y-105349984D01*
X107219545Y-105422305D01*
X107163688Y-105581937D01*
X107163686Y-105581946D01*
X107144751Y-105750000D01*
X107163682Y-105918020D01*
X107163687Y-105918059D01*
X107219544Y-106077690D01*
X107266883Y-106153029D01*
X107307819Y-106218179D01*
X107309523Y-106220890D01*
X107429110Y-106340477D01*
X107572310Y-106430456D01*
X107731941Y-106486313D01*
X107900000Y-106505249D01*
X108068059Y-106486313D01*
X108227690Y-106430456D01*
X108370890Y-106340477D01*
X108490477Y-106220890D01*
X108578003Y-106081593D01*
X108608586Y-106059895D01*
X108645560Y-106066176D01*
X108654138Y-106073018D01*
X108686635Y-106105515D01*
X108722549Y-106126250D01*
X108817862Y-106181280D01*
X108817864Y-106181280D01*
X108817865Y-106181281D01*
X108933303Y-106212212D01*
X108964230Y-106220499D01*
X108964231Y-106220500D01*
X108964234Y-106220500D01*
X109115769Y-106220500D01*
X109115769Y-106220499D01*
X109262135Y-106181281D01*
X109393365Y-106105515D01*
X109457677Y-106041202D01*
X109492324Y-106026851D01*
X109526972Y-106041203D01*
X109537594Y-106057100D01*
X109583809Y-106168674D01*
X109692483Y-106331318D01*
X109699799Y-106368101D01*
X109693231Y-106384609D01*
X109669548Y-106422301D01*
X109669543Y-106422312D01*
X109613688Y-106581937D01*
X109613686Y-106581946D01*
X109598878Y-106713366D01*
X109580737Y-106746189D01*
X109566371Y-106754128D01*
X109522310Y-106769547D01*
X109522308Y-106769547D01*
X109522308Y-106769548D01*
X109379112Y-106859524D01*
X109379108Y-106859527D01*
X109259524Y-106979111D01*
X109259521Y-106979115D01*
X109169545Y-107122311D01*
X109169544Y-107122313D01*
X109113688Y-107281940D01*
X109113686Y-107281949D01*
X109095669Y-107441852D01*
X109094751Y-107450003D01*
X109113687Y-107618062D01*
X109169544Y-107777693D01*
X109259523Y-107920893D01*
X109379110Y-108040480D01*
X109522310Y-108130459D01*
X109681941Y-108186316D01*
X109681951Y-108186317D01*
X109681953Y-108186318D01*
X109684628Y-108186929D01*
X109684452Y-108187698D01*
X109714780Y-108204449D01*
X109725171Y-108240483D01*
X109711127Y-108269657D01*
X109693250Y-108287534D01*
X109583809Y-108451325D01*
X109508429Y-108633309D01*
X109508429Y-108633310D01*
X109470000Y-108826512D01*
X109470000Y-109075000D01*
X110170000Y-109075000D01*
X110170000Y-109575000D01*
X109470000Y-109575000D01*
X109470000Y-109823487D01*
X109508429Y-110016689D01*
X109508429Y-110016690D01*
X109583809Y-110198674D01*
X109693246Y-110362460D01*
X109832539Y-110501753D01*
X109996325Y-110611190D01*
X110178310Y-110686570D01*
X110220000Y-110694862D01*
X110220000Y-109891988D01*
X110229940Y-109909205D01*
X110285795Y-109965060D01*
X110354204Y-110004556D01*
X110430504Y-110025000D01*
X110509496Y-110025000D01*
X110585796Y-110004556D01*
X110654205Y-109965060D01*
X110710060Y-109909205D01*
X110720000Y-109891988D01*
X110720000Y-110694862D01*
X110761689Y-110686570D01*
X110761690Y-110686570D01*
X110943674Y-110611190D01*
X111107460Y-110501753D01*
X111211379Y-110397834D01*
X112300000Y-110397834D01*
X112306401Y-110457372D01*
X112306401Y-110457373D01*
X112356648Y-110592091D01*
X112442811Y-110707188D01*
X112557908Y-110793351D01*
X112692626Y-110843598D01*
X112752166Y-110850000D01*
X113550000Y-110850000D01*
X114050000Y-110850000D01*
X114847834Y-110850000D01*
X114907372Y-110843598D01*
X114907373Y-110843598D01*
X115042091Y-110793351D01*
X115157188Y-110707188D01*
X115243351Y-110592091D01*
X115293598Y-110457373D01*
X115293598Y-110457372D01*
X115300000Y-110397834D01*
X115300000Y-109600000D01*
X114050000Y-109600000D01*
X114050000Y-110850000D01*
X113550000Y-110850000D01*
X113550000Y-109600000D01*
X112300000Y-109600000D01*
X112300000Y-110397834D01*
X111211379Y-110397834D01*
X111246753Y-110362460D01*
X111356190Y-110198674D01*
X111431570Y-110016690D01*
X111431570Y-110016689D01*
X111470000Y-109823487D01*
X111470000Y-109575000D01*
X110770000Y-109575000D01*
X110770000Y-109075000D01*
X111470000Y-109075000D01*
X111470000Y-108826512D01*
X111431570Y-108633310D01*
X111431570Y-108633309D01*
X111356190Y-108451325D01*
X111256526Y-108302165D01*
X112300000Y-108302165D01*
X112300000Y-109100000D01*
X113550000Y-109100000D01*
X114050000Y-109100000D01*
X115300000Y-109100000D01*
X115300000Y-108302165D01*
X115293598Y-108242627D01*
X115293598Y-108242626D01*
X115243351Y-108107908D01*
X115157188Y-107992811D01*
X115042091Y-107906648D01*
X114907373Y-107856401D01*
X114847834Y-107850000D01*
X114050000Y-107850000D01*
X114050000Y-109100000D01*
X113550000Y-109100000D01*
X113550000Y-107850000D01*
X112752166Y-107850000D01*
X112692627Y-107856401D01*
X112692626Y-107856401D01*
X112557908Y-107906648D01*
X112442811Y-107992811D01*
X112356648Y-108107908D01*
X112306401Y-108242626D01*
X112306401Y-108242627D01*
X112300000Y-108302165D01*
X111256526Y-108302165D01*
X111246753Y-108287539D01*
X111107463Y-108148249D01*
X111083655Y-108132341D01*
X111062819Y-108101158D01*
X111070136Y-108064376D01*
X111092123Y-108046331D01*
X111155832Y-108019941D01*
X111155833Y-108019941D01*
X111168189Y-108014822D01*
X111189283Y-108006086D01*
X111292058Y-107937414D01*
X111379461Y-107850011D01*
X112641411Y-106588061D01*
X112670433Y-106544626D01*
X112710083Y-106485286D01*
X112724699Y-106450000D01*
X112745099Y-106400751D01*
X112757383Y-106371094D01*
X112757382Y-106371094D01*
X112757386Y-106371087D01*
X112781500Y-106249856D01*
X112781500Y-106126250D01*
X112781500Y-103761163D01*
X112795852Y-103726515D01*
X112830500Y-103712163D01*
X112865148Y-103726515D01*
X112879110Y-103740477D01*
X113022310Y-103830456D01*
X113181941Y-103886313D01*
X113350000Y-103905249D01*
X113362611Y-103903827D01*
X113398647Y-103914207D01*
X113416790Y-103947030D01*
X113417098Y-103952519D01*
X113417098Y-105532795D01*
X113417098Y-105656401D01*
X113428207Y-105712252D01*
X113441211Y-105777630D01*
X113441213Y-105777636D01*
X113469786Y-105846614D01*
X113469786Y-105846615D01*
X113483285Y-105879205D01*
X113488515Y-105891831D01*
X113546915Y-105979233D01*
X113557187Y-105994606D01*
X114762589Y-107200008D01*
X114849992Y-107287411D01*
X114952767Y-107356083D01*
X115000070Y-107375676D01*
X115066966Y-107403386D01*
X115188197Y-107427500D01*
X115311803Y-107427500D01*
X116865423Y-107427500D01*
X116900071Y-107441852D01*
X116904524Y-107446969D01*
X116918782Y-107465849D01*
X116978233Y-107544576D01*
X116978236Y-107544579D01*
X117128954Y-107681977D01*
X117128955Y-107681978D01*
X117128959Y-107681981D01*
X117253090Y-107758839D01*
X117274993Y-107789281D01*
X117268956Y-107826295D01*
X117238514Y-107848198D01*
X117227295Y-107849500D01*
X116152120Y-107849500D01*
X116092521Y-107855907D01*
X115957666Y-107906205D01*
X115842454Y-107992454D01*
X115756205Y-108107666D01*
X115705907Y-108242520D01*
X115699500Y-108302120D01*
X115699500Y-110397879D01*
X115705907Y-110457478D01*
X115705909Y-110457483D01*
X115756204Y-110592331D01*
X115842454Y-110707546D01*
X115934934Y-110776776D01*
X115957074Y-110793351D01*
X115957669Y-110793796D01*
X116092517Y-110844091D01*
X116092520Y-110844092D01*
X116136177Y-110848785D01*
X116152127Y-110850500D01*
X118247872Y-110850499D01*
X118247878Y-110850499D01*
X118307478Y-110844092D01*
X118307479Y-110844091D01*
X118307483Y-110844091D01*
X118442331Y-110793796D01*
X118557546Y-110707546D01*
X118643796Y-110592331D01*
X118694091Y-110457483D01*
X118694091Y-110457481D01*
X118694092Y-110457479D01*
X118700499Y-110397879D01*
X118700500Y-110397873D01*
X118700499Y-108302213D01*
X118714850Y-108267567D01*
X119081154Y-107901263D01*
X119115801Y-107886912D01*
X119124792Y-107887744D01*
X119193024Y-107900500D01*
X119193027Y-107900500D01*
X119396974Y-107900500D01*
X119396976Y-107900500D01*
X119597456Y-107863024D01*
X119787637Y-107789348D01*
X119961041Y-107681981D01*
X120011990Y-107635534D01*
X120047262Y-107622798D01*
X120078008Y-107635533D01*
X120128959Y-107681981D01*
X120302363Y-107789348D01*
X120492544Y-107863024D01*
X120693024Y-107900500D01*
X120693026Y-107900500D01*
X120896974Y-107900500D01*
X120896976Y-107900500D01*
X121097456Y-107863024D01*
X121287637Y-107789348D01*
X121461041Y-107681981D01*
X121512364Y-107635193D01*
X121547632Y-107622459D01*
X121578381Y-107635196D01*
X121629257Y-107681576D01*
X121802590Y-107788900D01*
X121992674Y-107862538D01*
X122193072Y-107900000D01*
X122396928Y-107900000D01*
X122597325Y-107862538D01*
X122787409Y-107788900D01*
X122960736Y-107681580D01*
X123011616Y-107635196D01*
X123046890Y-107622459D01*
X123077636Y-107635194D01*
X123128959Y-107681981D01*
X123302363Y-107789348D01*
X123492544Y-107863024D01*
X123693024Y-107900500D01*
X123693026Y-107900500D01*
X123896974Y-107900500D01*
X123896976Y-107900500D01*
X124097456Y-107863024D01*
X124287637Y-107789348D01*
X124461041Y-107681981D01*
X124611764Y-107544579D01*
X124734673Y-107381821D01*
X124825582Y-107199250D01*
X124881397Y-107003083D01*
X124900215Y-106800000D01*
X124881397Y-106596917D01*
X124825582Y-106400750D01*
X124734673Y-106218179D01*
X124649593Y-106105515D01*
X124611766Y-106055423D01*
X124611763Y-106055420D01*
X124461045Y-105918022D01*
X124461042Y-105918020D01*
X124461041Y-105918019D01*
X124287637Y-105810652D01*
X124287634Y-105810651D01*
X124287633Y-105810650D01*
X124097462Y-105736978D01*
X124097460Y-105736977D01*
X124097456Y-105736976D01*
X123896976Y-105699500D01*
X123693024Y-105699500D01*
X123492544Y-105736976D01*
X123492540Y-105736977D01*
X123492537Y-105736978D01*
X123302366Y-105810650D01*
X123128954Y-105918022D01*
X123077637Y-105964802D01*
X123042363Y-105977538D01*
X123011616Y-105964801D01*
X122960742Y-105918423D01*
X122787409Y-105811099D01*
X122597325Y-105737461D01*
X122396928Y-105700000D01*
X122193072Y-105700000D01*
X121992674Y-105737461D01*
X121802590Y-105811099D01*
X121629257Y-105918423D01*
X121578380Y-105964802D01*
X121543106Y-105977538D01*
X121512359Y-105964801D01*
X121499798Y-105953350D01*
X121483861Y-105919402D01*
X121486559Y-105900956D01*
X121531313Y-105773059D01*
X121550249Y-105605000D01*
X121531313Y-105436941D01*
X121475456Y-105277310D01*
X121435010Y-105212940D01*
X121427500Y-105186871D01*
X121427500Y-104208307D01*
X121441852Y-104173659D01*
X121476500Y-104159307D01*
X121503722Y-104167564D01*
X121591873Y-104226465D01*
X121710256Y-104275501D01*
X121835931Y-104300500D01*
X121964069Y-104300500D01*
X122089744Y-104275501D01*
X122208127Y-104226465D01*
X122314669Y-104155276D01*
X122405276Y-104064669D01*
X122476465Y-103958127D01*
X122525501Y-103839744D01*
X122550500Y-103714069D01*
X122550500Y-103585931D01*
X122525501Y-103460256D01*
X122476465Y-103341873D01*
X122405276Y-103235331D01*
X122314669Y-103144724D01*
X122281408Y-103122500D01*
X122216548Y-103079162D01*
X122208127Y-103073535D01*
X122184488Y-103063743D01*
X122089742Y-103024498D01*
X122089737Y-103024497D01*
X121964072Y-102999500D01*
X121964069Y-102999500D01*
X121835931Y-102999500D01*
X121835927Y-102999500D01*
X121710262Y-103024497D01*
X121710257Y-103024498D01*
X121591872Y-103073535D01*
X121591871Y-103073535D01*
X121503722Y-103132434D01*
X121466940Y-103139750D01*
X121435758Y-103118914D01*
X121427500Y-103091692D01*
X121427500Y-101678111D01*
X121441852Y-101643463D01*
X121471012Y-101629419D01*
X121623006Y-101612294D01*
X121782637Y-101556437D01*
X121782639Y-101556435D01*
X121782641Y-101556435D01*
X121854963Y-101510992D01*
X121881033Y-101503481D01*
X122435819Y-101503481D01*
X122435822Y-101503481D01*
X122557054Y-101479367D01*
X122645951Y-101442544D01*
X122671252Y-101432064D01*
X122774027Y-101363392D01*
X122861430Y-101275989D01*
X123386666Y-100750753D01*
X123415191Y-100708062D01*
X123455338Y-100647978D01*
X123469192Y-100614529D01*
X123502641Y-100533780D01*
X123526755Y-100412548D01*
X123526755Y-100288942D01*
X123526755Y-99741341D01*
X123534266Y-99715271D01*
X123540911Y-99704696D01*
X123576278Y-99648410D01*
X123606863Y-99626710D01*
X123643836Y-99632992D01*
X123652414Y-99639833D01*
X124158148Y-100145567D01*
X124172500Y-100180215D01*
X124172500Y-102665353D01*
X124164989Y-102691423D01*
X124144176Y-102724544D01*
X124088319Y-102884176D01*
X124088317Y-102884185D01*
X124069382Y-103052239D01*
X124079802Y-103144723D01*
X124088318Y-103220298D01*
X124144175Y-103379929D01*
X124234154Y-103523129D01*
X124353741Y-103642716D01*
X124496941Y-103732695D01*
X124656572Y-103788552D01*
X124824631Y-103807488D01*
X124992690Y-103788552D01*
X125081850Y-103757353D01*
X125119292Y-103759455D01*
X125144282Y-103787419D01*
X125147032Y-103803586D01*
X125149499Y-110947237D01*
X125149191Y-110952741D01*
X125137593Y-111055666D01*
X125135151Y-111066362D01*
X125101858Y-111161512D01*
X125097097Y-111171399D01*
X125043461Y-111256759D01*
X125036620Y-111265337D01*
X124965337Y-111336620D01*
X124956759Y-111343461D01*
X124871399Y-111397097D01*
X124861512Y-111401858D01*
X124766362Y-111435151D01*
X124755666Y-111437593D01*
X124659877Y-111448386D01*
X124652732Y-111449192D01*
X124647247Y-111449500D01*
X101652753Y-111449500D01*
X101647267Y-111449192D01*
X101639061Y-111448267D01*
X101544333Y-111437593D01*
X101533637Y-111435151D01*
X101469221Y-111412612D01*
X101438484Y-111401856D01*
X101428603Y-111397098D01*
X101343240Y-111343461D01*
X101334662Y-111336620D01*
X101263379Y-111265337D01*
X101256538Y-111256759D01*
X101202899Y-111171393D01*
X101198144Y-111161519D01*
X101164847Y-111066361D01*
X101162406Y-111055665D01*
X101150808Y-110952733D01*
X101150500Y-110947247D01*
X101150500Y-110565335D01*
X101164852Y-110530687D01*
X101199500Y-110516335D01*
X101226723Y-110524593D01*
X101356325Y-110611190D01*
X101538310Y-110686570D01*
X101580000Y-110694862D01*
X101580000Y-109891988D01*
X101589940Y-109909205D01*
X101645795Y-109965060D01*
X101714204Y-110004556D01*
X101790504Y-110025000D01*
X101869496Y-110025000D01*
X101945796Y-110004556D01*
X102014205Y-109965060D01*
X102070060Y-109909205D01*
X102080000Y-109891988D01*
X102080000Y-110694862D01*
X102121689Y-110686570D01*
X102121690Y-110686570D01*
X102303674Y-110611190D01*
X102467460Y-110501753D01*
X102606753Y-110362460D01*
X102716190Y-110198674D01*
X102791570Y-110016690D01*
X102791570Y-110016689D01*
X102830000Y-109823487D01*
X102830000Y-109575000D01*
X102130000Y-109575000D01*
X102130000Y-109075000D01*
X102830000Y-109075000D01*
X102830000Y-108826512D01*
X102791570Y-108633310D01*
X102791570Y-108633309D01*
X102716190Y-108451325D01*
X102606753Y-108287539D01*
X102467460Y-108148246D01*
X102303674Y-108038809D01*
X102121691Y-107963429D01*
X102121682Y-107963426D01*
X102080000Y-107955135D01*
X102080000Y-108758011D01*
X102070060Y-108740795D01*
X102014205Y-108684940D01*
X101945796Y-108645444D01*
X101869496Y-108625000D01*
X101790504Y-108625000D01*
X101714204Y-108645444D01*
X101645795Y-108684940D01*
X101589940Y-108740795D01*
X101580000Y-108758011D01*
X101580000Y-107955135D01*
X101579999Y-107955135D01*
X101538317Y-107963426D01*
X101538308Y-107963429D01*
X101356325Y-108038809D01*
X101226723Y-108125406D01*
X101189940Y-108132722D01*
X101158758Y-108111887D01*
X101150500Y-108084664D01*
X101150500Y-106535335D01*
X101164852Y-106500687D01*
X101199500Y-106486335D01*
X101226723Y-106494593D01*
X101356325Y-106581190D01*
X101538310Y-106656570D01*
X101580000Y-106664862D01*
X101580000Y-105861988D01*
X101589940Y-105879205D01*
X101645795Y-105935060D01*
X101714204Y-105974556D01*
X101790504Y-105995000D01*
X101869496Y-105995000D01*
X101945796Y-105974556D01*
X102014205Y-105935060D01*
X102070060Y-105879205D01*
X102080000Y-105861988D01*
X102080000Y-106664862D01*
X102121689Y-106656570D01*
X102121690Y-106656570D01*
X102303674Y-106581190D01*
X102467460Y-106471753D01*
X102606753Y-106332460D01*
X102716190Y-106168674D01*
X102762405Y-106057101D01*
X102788923Y-106030582D01*
X102826426Y-106030582D01*
X102842323Y-106041204D01*
X102878809Y-106077689D01*
X102906635Y-106105515D01*
X102942549Y-106126250D01*
X103037862Y-106181280D01*
X103037864Y-106181280D01*
X103037865Y-106181281D01*
X103153303Y-106212212D01*
X103184230Y-106220499D01*
X103184231Y-106220500D01*
X103184234Y-106220500D01*
X103335769Y-106220500D01*
X103335769Y-106220499D01*
X103482135Y-106181281D01*
X103613365Y-106105515D01*
X103720515Y-105998365D01*
X103796281Y-105867135D01*
X103835499Y-105720769D01*
X103835500Y-105720769D01*
X103835500Y-105569231D01*
X103835499Y-105569230D01*
X103800054Y-105436946D01*
X103796281Y-105422865D01*
X103796280Y-105422864D01*
X103796280Y-105422862D01*
X103739151Y-105323914D01*
X103720515Y-105291635D01*
X103613365Y-105184485D01*
X103570816Y-105159919D01*
X103482137Y-105108719D01*
X103482133Y-105108718D01*
X103335769Y-105069500D01*
X103335766Y-105069500D01*
X103184234Y-105069500D01*
X103184231Y-105069500D01*
X103037866Y-105108718D01*
X103037862Y-105108719D01*
X102906634Y-105184485D01*
X102906634Y-105184486D01*
X102799486Y-105291634D01*
X102799485Y-105291634D01*
X102753952Y-105370500D01*
X102724199Y-105393330D01*
X102711517Y-105395000D01*
X102130000Y-105395000D01*
X102130000Y-104895000D01*
X102830000Y-104895000D01*
X102830000Y-104496512D01*
X102791570Y-104303310D01*
X102791570Y-104303309D01*
X102716190Y-104121325D01*
X102606753Y-103957539D01*
X102467460Y-103818246D01*
X102303674Y-103708809D01*
X102121691Y-103633429D01*
X102121682Y-103633426D01*
X102080000Y-103625135D01*
X102080000Y-104428011D01*
X102070060Y-104410795D01*
X102014205Y-104354940D01*
X101945796Y-104315444D01*
X101869496Y-104295000D01*
X101790504Y-104295000D01*
X101714204Y-104315444D01*
X101645795Y-104354940D01*
X101589940Y-104410795D01*
X101580000Y-104428011D01*
X101580000Y-103625135D01*
X101579999Y-103625135D01*
X101538317Y-103633426D01*
X101538308Y-103633429D01*
X101356325Y-103708809D01*
X101226723Y-103795406D01*
X101189940Y-103802722D01*
X101158758Y-103781887D01*
X101150500Y-103754664D01*
X101150500Y-102487075D01*
X105110475Y-102487075D01*
X105234460Y-102553347D01*
X105234467Y-102553350D01*
X105422961Y-102610529D01*
X105422969Y-102610531D01*
X105619000Y-102629839D01*
X105815030Y-102610531D01*
X105815038Y-102610529D01*
X106003532Y-102553350D01*
X106003539Y-102553347D01*
X106127522Y-102487075D01*
X106127523Y-102487075D01*
X105619000Y-101978553D01*
X105110475Y-102487075D01*
X101150500Y-102487075D01*
X101150500Y-97027605D01*
X101164852Y-96992957D01*
X101199500Y-96978605D01*
X101234148Y-96992957D01*
X101244770Y-97008854D01*
X101281715Y-97098047D01*
X101399725Y-97302447D01*
X101399735Y-97302462D01*
X101543403Y-97489693D01*
X101543413Y-97489705D01*
X101710294Y-97656586D01*
X101710306Y-97656596D01*
X101897537Y-97800264D01*
X101897546Y-97800270D01*
X101897550Y-97800273D01*
X102101951Y-97918284D01*
X102320007Y-98008606D01*
X102320010Y-98008606D01*
X102320013Y-98008608D01*
X102547974Y-98069690D01*
X102547975Y-98069690D01*
X102547986Y-98069693D01*
X102781989Y-98100500D01*
X102781993Y-98100500D01*
X103018007Y-98100500D01*
X103018011Y-98100500D01*
X103252014Y-98069693D01*
X103434149Y-98020890D01*
X103479986Y-98008608D01*
X103479986Y-98008607D01*
X103479993Y-98008606D01*
X103698049Y-97918284D01*
X103902450Y-97800273D01*
X104089699Y-97656592D01*
X104256592Y-97489699D01*
X104364171Y-97349499D01*
X104400264Y-97302462D01*
X104400265Y-97302459D01*
X104400273Y-97302450D01*
X104518284Y-97098049D01*
X104608606Y-96879993D01*
X104669693Y-96652014D01*
X104700500Y-96418011D01*
X104700500Y-96181989D01*
X104669693Y-95947986D01*
X104608606Y-95720007D01*
X104518284Y-95501951D01*
X104400273Y-95297550D01*
X104400270Y-95297546D01*
X104400264Y-95297537D01*
X104256596Y-95110306D01*
X104256586Y-95110294D01*
X104089705Y-94943413D01*
X104089693Y-94943403D01*
X103902462Y-94799735D01*
X103902447Y-94799725D01*
X103698050Y-94681716D01*
X103479996Y-94591395D01*
X103479986Y-94591391D01*
X103252025Y-94530309D01*
X103252018Y-94530308D01*
X103252014Y-94530307D01*
X103018011Y-94499500D01*
X102781989Y-94499500D01*
X102547986Y-94530307D01*
X102547982Y-94530307D01*
X102547974Y-94530309D01*
X102320013Y-94591391D01*
X102320003Y-94591395D01*
X102101949Y-94681716D01*
X101897552Y-94799725D01*
X101897537Y-94799735D01*
X101710306Y-94943403D01*
X101710294Y-94943413D01*
X101543413Y-95110294D01*
X101543403Y-95110306D01*
X101399735Y-95297537D01*
X101399725Y-95297552D01*
X101281716Y-95501949D01*
X101244770Y-95591146D01*
X101218251Y-95617664D01*
X101180748Y-95617664D01*
X101154230Y-95591145D01*
X101150500Y-95572394D01*
X101150500Y-91156001D01*
X103774500Y-91156001D01*
X103774500Y-91293998D01*
X103801417Y-91429318D01*
X103801420Y-91429328D01*
X103854225Y-91556811D01*
X103854800Y-91557671D01*
X103930883Y-91671539D01*
X104028460Y-91769116D01*
X104074102Y-91799613D01*
X104143189Y-91845775D01*
X104270672Y-91898580D01*
X104270678Y-91898581D01*
X104270681Y-91898582D01*
X104406001Y-91925499D01*
X104406007Y-91925500D01*
X104543993Y-91925500D01*
X104679328Y-91898580D01*
X104806811Y-91845775D01*
X104921542Y-91769114D01*
X105019114Y-91671542D01*
X105095775Y-91556811D01*
X105148580Y-91429328D01*
X105175500Y-91293993D01*
X105175500Y-91156007D01*
X105175499Y-91156001D01*
X106774500Y-91156001D01*
X106774500Y-91293998D01*
X106801417Y-91429318D01*
X106801420Y-91429328D01*
X106854225Y-91556811D01*
X106854800Y-91557671D01*
X106930883Y-91671539D01*
X107028460Y-91769116D01*
X107074102Y-91799613D01*
X107143189Y-91845775D01*
X107270672Y-91898580D01*
X107270678Y-91898581D01*
X107270681Y-91898582D01*
X107406001Y-91925499D01*
X107406007Y-91925500D01*
X107543993Y-91925500D01*
X107679328Y-91898580D01*
X107806811Y-91845775D01*
X107921542Y-91769114D01*
X108019114Y-91671542D01*
X108095775Y-91556811D01*
X108148580Y-91429328D01*
X108175500Y-91293993D01*
X108175500Y-91156007D01*
X108170150Y-91129110D01*
X108148582Y-91020681D01*
X108148579Y-91020670D01*
X108143961Y-91009521D01*
X108095775Y-90893189D01*
X108049613Y-90824102D01*
X108019116Y-90778460D01*
X107921539Y-90680883D01*
X107853074Y-90635137D01*
X107806811Y-90604225D01*
X107806808Y-90604223D01*
X107806807Y-90604223D01*
X107679329Y-90551420D01*
X107679318Y-90551417D01*
X107543998Y-90524500D01*
X107543993Y-90524500D01*
X107406007Y-90524500D01*
X107406001Y-90524500D01*
X107270681Y-90551417D01*
X107270670Y-90551420D01*
X107143192Y-90604223D01*
X107028460Y-90680883D01*
X106930883Y-90778460D01*
X106854223Y-90893192D01*
X106801420Y-91020670D01*
X106801417Y-91020681D01*
X106774500Y-91156001D01*
X105175499Y-91156001D01*
X105170150Y-91129110D01*
X105148582Y-91020681D01*
X105148579Y-91020670D01*
X105143961Y-91009521D01*
X105095775Y-90893189D01*
X105049613Y-90824102D01*
X105019116Y-90778460D01*
X104921539Y-90680883D01*
X104853074Y-90635137D01*
X104806811Y-90604225D01*
X104806808Y-90604223D01*
X104806807Y-90604223D01*
X104679329Y-90551420D01*
X104679318Y-90551417D01*
X104543998Y-90524500D01*
X104543993Y-90524500D01*
X104406007Y-90524500D01*
X104406001Y-90524500D01*
X104270681Y-90551417D01*
X104270670Y-90551420D01*
X104143192Y-90604223D01*
X104028460Y-90680883D01*
X103930883Y-90778460D01*
X103854223Y-90893192D01*
X103801420Y-91020670D01*
X103801417Y-91020681D01*
X103774500Y-91156001D01*
X101150500Y-91156001D01*
X101150500Y-90352752D01*
X101150808Y-90347266D01*
X101162406Y-90244332D01*
X101164848Y-90233637D01*
X101198145Y-90138477D01*
X101202897Y-90128610D01*
X101256541Y-90043235D01*
X101263375Y-90034666D01*
X101334666Y-89963375D01*
X101343235Y-89956541D01*
X101428610Y-89902897D01*
X101438477Y-89898145D01*
X101533640Y-89864847D01*
X101544330Y-89862406D01*
X101647270Y-89850807D01*
X101652741Y-89850500D01*
X124573644Y-89857584D01*
G37*
G04 #@! TD.AperFunction*
G04 #@! TA.AperFunction,Conductor*
G36*
X109494374Y-104262340D02*
G01*
X109508726Y-104296988D01*
X109507785Y-104306547D01*
X109470000Y-104496512D01*
X109470000Y-104895000D01*
X110170000Y-104895000D01*
X110170000Y-105395000D01*
X109588483Y-105395000D01*
X109553835Y-105380648D01*
X109546048Y-105370500D01*
X109527302Y-105338031D01*
X109500515Y-105291635D01*
X109393365Y-105184485D01*
X109350816Y-105159919D01*
X109262137Y-105108719D01*
X109262133Y-105108718D01*
X109115769Y-105069500D01*
X109115766Y-105069500D01*
X108964234Y-105069500D01*
X108964231Y-105069500D01*
X108817866Y-105108718D01*
X108817862Y-105108719D01*
X108686634Y-105184485D01*
X108686634Y-105184486D01*
X108611148Y-105259972D01*
X108576500Y-105274324D01*
X108541852Y-105259972D01*
X108527500Y-105225324D01*
X108527500Y-105180215D01*
X108541852Y-105145567D01*
X108970462Y-104716957D01*
X109425079Y-104262339D01*
X109459726Y-104247988D01*
X109494374Y-104262340D01*
G37*
G04 #@! TD.AperFunction*
M02*
