G04 #@! TF.GenerationSoftware,KiCad,Pcbnew,8.0.5-8.0.5-0~ubuntu22.04.1*
G04 #@! TF.CreationDate,2024-10-20T12:43:39-07:00*
G04 #@! TF.ProjectId,uSlime,75536c69-6d65-42e6-9b69-6361645f7063,rev?*
G04 #@! TF.SameCoordinates,Original*
G04 #@! TF.FileFunction,Copper,L1,Top*
G04 #@! TF.FilePolarity,Positive*
%FSLAX46Y46*%
G04 Gerber Fmt 4.6, Leading zero omitted, Abs format (unit mm)*
G04 Created by KiCad (PCBNEW 8.0.5-8.0.5-0~ubuntu22.04.1) date 2024-10-20 12:43:39*
%MOMM*%
%LPD*%
G01*
G04 APERTURE LIST*
G04 Aperture macros list*
%AMRoundRect*
0 Rectangle with rounded corners*
0 $1 Rounding radius*
0 $2 $3 $4 $5 $6 $7 $8 $9 X,Y pos of 4 corners*
0 Add a 4 corners polygon primitive as box body*
4,1,4,$2,$3,$4,$5,$6,$7,$8,$9,$2,$3,0*
0 Add four circle primitives for the rounded corners*
1,1,$1+$1,$2,$3*
1,1,$1+$1,$4,$5*
1,1,$1+$1,$6,$7*
1,1,$1+$1,$8,$9*
0 Add four rect primitives between the rounded corners*
20,1,$1+$1,$2,$3,$4,$5,0*
20,1,$1+$1,$4,$5,$6,$7,0*
20,1,$1+$1,$6,$7,$8,$9,0*
20,1,$1+$1,$8,$9,$2,$3,0*%
%AMFreePoly0*
4,1,6,0.725000,-0.725000,-0.725000,-0.725000,-0.725000,0.125000,-0.125000,0.725000,0.725000,0.725000,0.725000,-0.725000,0.725000,-0.725000,$1*%
G04 Aperture macros list end*
G04 #@! TA.AperFunction,SMDPad,CuDef*
%ADD10RoundRect,0.147500X-0.172500X0.147500X-0.172500X-0.147500X0.172500X-0.147500X0.172500X0.147500X0*%
G04 #@! TD*
G04 #@! TA.AperFunction,SMDPad,CuDef*
%ADD11RoundRect,0.140000X0.170000X-0.140000X0.170000X0.140000X-0.170000X0.140000X-0.170000X-0.140000X0*%
G04 #@! TD*
G04 #@! TA.AperFunction,ComponentPad*
%ADD12C,1.200000*%
G04 #@! TD*
G04 #@! TA.AperFunction,SMDPad,CuDef*
%ADD13RoundRect,0.135000X0.185000X-0.135000X0.185000X0.135000X-0.185000X0.135000X-0.185000X-0.135000X0*%
G04 #@! TD*
G04 #@! TA.AperFunction,SMDPad,CuDef*
%ADD14RoundRect,0.135000X-0.185000X0.135000X-0.185000X-0.135000X0.185000X-0.135000X0.185000X0.135000X0*%
G04 #@! TD*
G04 #@! TA.AperFunction,SMDPad,CuDef*
%ADD15RoundRect,0.140000X-0.170000X0.140000X-0.170000X-0.140000X0.170000X-0.140000X0.170000X0.140000X0*%
G04 #@! TD*
G04 #@! TA.AperFunction,SMDPad,CuDef*
%ADD16RoundRect,0.150000X-0.150000X-0.425000X0.150000X-0.425000X0.150000X0.425000X-0.150000X0.425000X0*%
G04 #@! TD*
G04 #@! TA.AperFunction,SMDPad,CuDef*
%ADD17RoundRect,0.075000X-0.075000X-0.500000X0.075000X-0.500000X0.075000X0.500000X-0.075000X0.500000X0*%
G04 #@! TD*
G04 #@! TA.AperFunction,ComponentPad*
%ADD18O,1.000000X2.100000*%
G04 #@! TD*
G04 #@! TA.AperFunction,ComponentPad*
%ADD19O,1.000000X1.800000*%
G04 #@! TD*
G04 #@! TA.AperFunction,SMDPad,CuDef*
%ADD20RoundRect,0.135000X-0.135000X-0.185000X0.135000X-0.185000X0.135000X0.185000X-0.135000X0.185000X0*%
G04 #@! TD*
G04 #@! TA.AperFunction,SMDPad,CuDef*
%ADD21RoundRect,0.135000X0.135000X0.185000X-0.135000X0.185000X-0.135000X-0.185000X0.135000X-0.185000X0*%
G04 #@! TD*
G04 #@! TA.AperFunction,SMDPad,CuDef*
%ADD22R,0.250000X0.914400*%
G04 #@! TD*
G04 #@! TA.AperFunction,SMDPad,CuDef*
%ADD23R,0.812800X0.250000*%
G04 #@! TD*
G04 #@! TA.AperFunction,SMDPad,CuDef*
%ADD24RoundRect,0.147500X0.147500X0.172500X-0.147500X0.172500X-0.147500X-0.172500X0.147500X-0.172500X0*%
G04 #@! TD*
G04 #@! TA.AperFunction,SMDPad,CuDef*
%ADD25RoundRect,0.140000X0.140000X0.170000X-0.140000X0.170000X-0.140000X-0.170000X0.140000X-0.170000X0*%
G04 #@! TD*
G04 #@! TA.AperFunction,SMDPad,CuDef*
%ADD26R,1.320800X0.508000*%
G04 #@! TD*
G04 #@! TA.AperFunction,SMDPad,CuDef*
%ADD27R,0.800000X0.400000*%
G04 #@! TD*
G04 #@! TA.AperFunction,SMDPad,CuDef*
%ADD28R,0.400000X0.800000*%
G04 #@! TD*
G04 #@! TA.AperFunction,SMDPad,CuDef*
%ADD29FreePoly0,0.000000*%
G04 #@! TD*
G04 #@! TA.AperFunction,SMDPad,CuDef*
%ADD30R,1.450000X1.450000*%
G04 #@! TD*
G04 #@! TA.AperFunction,SMDPad,CuDef*
%ADD31R,0.700000X0.700000*%
G04 #@! TD*
G04 #@! TA.AperFunction,SMDPad,CuDef*
%ADD32R,0.700000X1.500000*%
G04 #@! TD*
G04 #@! TA.AperFunction,SMDPad,CuDef*
%ADD33R,1.000000X0.800000*%
G04 #@! TD*
G04 #@! TA.AperFunction,SMDPad,CuDef*
%ADD34R,0.900000X1.700000*%
G04 #@! TD*
G04 #@! TA.AperFunction,ComponentPad*
%ADD35C,1.000000*%
G04 #@! TD*
G04 #@! TA.AperFunction,SMDPad,CuDef*
%ADD36RoundRect,0.045000X-0.630000X0.255000X-0.630000X-0.255000X0.630000X-0.255000X0.630000X0.255000X0*%
G04 #@! TD*
G04 #@! TA.AperFunction,ViaPad*
%ADD37C,0.600000*%
G04 #@! TD*
G04 #@! TA.AperFunction,ViaPad*
%ADD38C,0.500000*%
G04 #@! TD*
G04 #@! TA.AperFunction,Conductor*
%ADD39C,0.254000*%
G04 #@! TD*
G04 APERTURE END LIST*
D10*
X107950000Y-102015000D03*
X107950000Y-102985000D03*
D11*
X119000000Y-102380000D03*
X119000000Y-101420000D03*
D12*
X117795000Y-106800000D03*
X119295000Y-106800000D03*
X120795000Y-106800000D03*
X122295000Y-106800000D03*
X123795000Y-106800000D03*
D13*
X111300000Y-96160000D03*
X111300000Y-95140000D03*
D11*
X105850000Y-96630000D03*
X105850000Y-95670000D03*
X111100000Y-91030000D03*
X111100000Y-90070000D03*
D14*
X119000000Y-103290000D03*
X119000000Y-104310000D03*
D15*
X106800000Y-100150000D03*
X106800000Y-101110000D03*
D16*
X102950000Y-104570000D03*
X103750000Y-104570000D03*
D17*
X104900000Y-104570000D03*
X105900000Y-104570000D03*
X106400000Y-104570000D03*
X107400000Y-104570000D03*
D16*
X108550000Y-104570000D03*
X109350000Y-104570000D03*
X109350000Y-104570000D03*
X108550000Y-104570000D03*
D17*
X107900000Y-104570000D03*
X106900000Y-104570000D03*
X105400000Y-104570000D03*
X104400000Y-104570000D03*
D16*
X103750000Y-104570000D03*
X102950000Y-104570000D03*
D18*
X101830000Y-105145000D03*
D19*
X101830000Y-109325000D03*
D18*
X110470000Y-105145000D03*
D19*
X110470000Y-109325000D03*
D20*
X112390000Y-108800000D03*
X113410000Y-108800000D03*
D21*
X113410000Y-109850000D03*
X112390000Y-109850000D03*
D14*
X112300000Y-106090000D03*
X112300000Y-107110000D03*
D10*
X106800000Y-98265000D03*
X106800000Y-99235000D03*
D15*
X111200000Y-101920000D03*
X111200000Y-102880000D03*
D20*
X109090000Y-102750000D03*
X110110000Y-102750000D03*
D13*
X110300000Y-94310000D03*
X110300000Y-93290000D03*
D20*
X114590000Y-108000000D03*
X115610000Y-108000000D03*
D22*
X112552600Y-101572670D03*
D23*
X112361600Y-102500000D03*
X112361600Y-103003070D03*
X112361600Y-103503070D03*
X112361600Y-104003060D03*
D22*
X112552600Y-104925470D03*
X113052600Y-104925470D03*
X113552600Y-104925470D03*
X114052600Y-104925470D03*
X114552600Y-104925470D03*
X115052600Y-104925470D03*
X115552600Y-104925470D03*
X116052600Y-104925470D03*
X116552600Y-104925470D03*
X117060600Y-104925470D03*
D23*
X117187600Y-104003070D03*
X117187600Y-103503070D03*
X117187600Y-103003070D03*
X117187600Y-102500000D03*
D22*
X117060600Y-101572670D03*
X116552600Y-101572670D03*
X116052600Y-101572670D03*
X115552600Y-101572670D03*
X115052600Y-101572670D03*
X114552600Y-101572670D03*
X114052600Y-101572670D03*
X113552600Y-101572670D03*
X113052600Y-101572670D03*
D24*
X122967500Y-101500000D03*
X121997500Y-101500000D03*
D11*
X115650000Y-106980000D03*
X115650000Y-106020000D03*
D21*
X124892500Y-101500000D03*
X123872500Y-101500000D03*
D14*
X124800000Y-103840000D03*
X124800000Y-104860000D03*
D25*
X121097500Y-101500000D03*
X120137500Y-101500000D03*
D14*
X113300000Y-106090000D03*
X113300000Y-107110000D03*
D26*
X107304600Y-95299999D03*
X107304600Y-96250000D03*
X107304600Y-97200001D03*
X109895400Y-97200001D03*
X109895400Y-95299999D03*
D27*
X112700000Y-91150000D03*
X112700000Y-91950000D03*
X112700000Y-92750000D03*
X112700000Y-93550000D03*
X112700000Y-94350000D03*
X112700000Y-95150000D03*
X112700000Y-95950000D03*
X112700000Y-96750000D03*
X112700000Y-97550000D03*
X112700000Y-98350000D03*
X112700000Y-99150000D03*
D28*
X113800000Y-100050000D03*
X114600000Y-100050000D03*
X115400000Y-100050000D03*
X116200000Y-100050000D03*
X117000000Y-100050000D03*
X117800000Y-100050000D03*
X118600000Y-100050000D03*
X119400000Y-100050000D03*
X120200000Y-100050000D03*
X121000000Y-100050000D03*
X121800000Y-100050000D03*
X122600000Y-100050000D03*
X123400000Y-100050000D03*
D27*
X124500000Y-99150000D03*
X124500000Y-98350000D03*
X124500000Y-97550000D03*
X124500000Y-96750000D03*
X124500000Y-95950000D03*
X124500000Y-95150000D03*
X124500000Y-94350000D03*
X124500000Y-93550000D03*
X124500000Y-92750000D03*
X124500000Y-91950000D03*
X124500000Y-91150000D03*
D28*
X123400000Y-90250000D03*
X122600000Y-90250000D03*
X121800000Y-90250000D03*
X121000000Y-90250000D03*
X120200000Y-90250000D03*
X119400000Y-90250000D03*
X118600000Y-90250000D03*
X117800000Y-90250000D03*
X117000000Y-90250000D03*
X116200000Y-90250000D03*
X115400000Y-90250000D03*
X114600000Y-90250000D03*
X113800000Y-90250000D03*
D29*
X116625000Y-93175000D03*
D30*
X116625000Y-95150000D03*
X116625000Y-97125000D03*
X118600000Y-93175000D03*
X118600000Y-95150000D03*
X118600000Y-97125000D03*
X120575000Y-93175000D03*
X120575000Y-95150000D03*
X120575000Y-97125000D03*
D31*
X124550000Y-90200000D03*
X124550000Y-100100000D03*
X112650000Y-100100000D03*
X112650000Y-90200000D03*
D20*
X114590000Y-109050000D03*
X115610000Y-109050000D03*
D32*
X105225000Y-92975000D03*
D33*
X109625000Y-92190000D03*
X109625000Y-90260000D03*
X102325000Y-92190000D03*
X102325000Y-90260000D03*
D32*
X103725000Y-92975000D03*
X108225000Y-92975000D03*
D34*
X123600000Y-103650000D03*
X120200000Y-103650000D03*
D35*
X105619000Y-100375000D03*
X105619000Y-101625000D03*
D36*
X108415000Y-99000000D03*
X108415000Y-99950000D03*
X108415000Y-100900000D03*
X110785000Y-100900000D03*
X110785000Y-99000000D03*
D10*
X111300000Y-97015000D03*
X111300000Y-97985000D03*
D11*
X106800000Y-102980000D03*
X106800000Y-102020000D03*
D37*
X114057897Y-106507897D03*
X109223000Y-99950000D03*
X108400000Y-96250000D03*
X123464941Y-102261223D03*
X115000000Y-91950000D03*
D38*
X113800000Y-96750000D03*
X119900000Y-103283998D03*
X122899255Y-99315257D03*
X121454947Y-100875981D03*
D37*
X108650000Y-97200000D03*
X104650000Y-106450000D03*
D38*
X124824631Y-103052239D03*
X122023000Y-99378037D03*
X122658000Y-98040369D03*
X123300000Y-97550000D03*
X110350000Y-106750000D03*
X118600000Y-99400000D03*
X109850000Y-107450003D03*
X117800000Y-99350000D03*
X117218000Y-105850000D03*
X114604027Y-99054027D03*
X113436368Y-103426060D03*
X111700000Y-109800000D03*
X123150000Y-91700000D03*
X123800000Y-108950000D03*
X120100000Y-91600000D03*
X116200000Y-99114218D03*
X117673000Y-101600000D03*
X116444012Y-103580070D03*
D37*
X119000000Y-105000000D03*
X117200000Y-109527000D03*
X110800000Y-99850000D03*
X114900000Y-96123000D03*
D38*
X114323000Y-95500000D03*
X113766999Y-97550000D03*
X110446328Y-101650000D03*
X107900000Y-105750000D03*
X111123000Y-103700000D03*
X111250000Y-94450000D03*
X108150000Y-94400000D03*
X105850000Y-94500000D03*
X108760000Y-102123000D03*
X106175000Y-99225000D03*
X115650000Y-103750000D03*
X114111686Y-107340820D03*
D39*
X114552600Y-101572670D02*
X114552600Y-100836470D01*
X111126998Y-102880000D02*
X110470000Y-103536998D01*
X115000000Y-91950000D02*
X115400000Y-91950000D01*
X111200000Y-102880000D02*
X111126998Y-102880000D01*
X102950000Y-104570000D02*
X102405000Y-104570000D01*
X112700000Y-91950000D02*
X112700000Y-90250000D01*
X112650000Y-100100000D02*
X112650000Y-99200000D01*
X115246800Y-103003070D02*
X114552600Y-102308870D01*
X124550000Y-100100000D02*
X124550000Y-101157500D01*
X106739999Y-96250000D02*
X107304600Y-96250000D01*
X111947000Y-99397000D02*
X111947000Y-94297000D01*
X115400000Y-100504000D02*
X115400000Y-100050000D01*
X115400000Y-91950000D02*
X116625000Y-93175000D01*
X102405000Y-104570000D02*
X101830000Y-105145000D01*
X112552600Y-105837400D02*
X112552600Y-104194060D01*
X123600000Y-103650000D02*
X124250000Y-103000000D01*
X113300000Y-106090000D02*
X113640000Y-106090000D01*
X111583250Y-102496750D02*
X111200000Y-102880000D01*
X106800000Y-102015000D02*
X106869318Y-102015000D01*
X108415000Y-99950000D02*
X109223000Y-99950000D01*
X122350000Y-102400000D02*
X123600000Y-103650000D01*
X109350000Y-104570000D02*
X109895000Y-104570000D01*
X111947000Y-94297000D02*
X110940000Y-93290000D01*
X101830000Y-109325000D02*
X101830000Y-105145000D01*
X115400000Y-100050000D02*
X115400000Y-98350000D01*
X105619000Y-100375000D02*
X106354000Y-101110000D01*
X124250000Y-102550000D02*
X124892500Y-101907500D01*
X112300000Y-106090000D02*
X112552600Y-105837400D01*
X112300000Y-106090000D02*
X113300000Y-106090000D01*
X112520000Y-90070000D02*
X112650000Y-90200000D01*
X112700000Y-90250000D02*
X112650000Y-90200000D01*
X109895000Y-104570000D02*
X110470000Y-105145000D01*
X119000000Y-101420000D02*
X120057500Y-101420000D01*
X110940000Y-93290000D02*
X110300000Y-93290000D01*
X114612070Y-100777000D02*
X115127000Y-100777000D01*
X111100000Y-90070000D02*
X112520000Y-90070000D01*
X112552600Y-104194060D02*
X112361600Y-104003060D01*
X114552600Y-100836470D02*
X114612070Y-100777000D01*
X117187600Y-103003070D02*
X115246800Y-103003070D01*
X109625000Y-90260000D02*
X109625000Y-92190000D01*
X106800000Y-102020000D02*
X106800000Y-101110000D01*
X110300000Y-92865000D02*
X109625000Y-92190000D01*
X108400000Y-96250000D02*
X107304600Y-96250000D01*
X108400000Y-95190000D02*
X110300000Y-93290000D01*
X114380000Y-106830000D02*
X115650000Y-106830000D01*
X106354000Y-101110000D02*
X106800000Y-101110000D01*
X120137500Y-101809999D02*
X120727501Y-102400000D01*
X102325000Y-90260000D02*
X102325000Y-92190000D01*
X102325000Y-90260000D02*
X109625000Y-90260000D01*
X112331249Y-102496750D02*
X111583250Y-102496750D01*
X123600000Y-103650000D02*
X123600000Y-102396282D01*
X110470000Y-109325000D02*
X101830000Y-109325000D01*
X115127000Y-100777000D02*
X115400000Y-100504000D01*
X110300000Y-93290000D02*
X110300000Y-92865000D01*
X124250000Y-103000000D02*
X124250000Y-102550000D01*
X112650000Y-100100000D02*
X111947000Y-99397000D01*
X124892500Y-101907500D02*
X124892500Y-101500000D01*
X115400000Y-98350000D02*
X116625000Y-97125000D01*
X115000000Y-91950000D02*
X112700000Y-91950000D01*
X106159999Y-95670000D02*
X106739999Y-96250000D01*
X109815000Y-90070000D02*
X109625000Y-90260000D01*
X113640000Y-106090000D02*
X114380000Y-106830000D01*
X120727501Y-102400000D02*
X122350000Y-102400000D01*
X114552600Y-102308870D02*
X114552600Y-101572670D01*
X120137500Y-101500000D02*
X120137500Y-101809999D01*
X112650000Y-99200000D02*
X112700000Y-99150000D01*
X105850000Y-95670000D02*
X106159999Y-95670000D01*
X112650000Y-90200000D02*
X124550000Y-90200000D01*
X120057500Y-101420000D02*
X120137500Y-101500000D01*
X123600000Y-102396282D02*
X123464941Y-102261223D01*
X111100000Y-90070000D02*
X109815000Y-90070000D01*
X108400000Y-96250000D02*
X108400000Y-95190000D01*
X124550000Y-101157500D02*
X124892500Y-101500000D01*
X110470000Y-103536998D02*
X110470000Y-105145000D01*
X103725000Y-92975000D02*
X103725000Y-93525000D01*
X105213000Y-96022801D02*
X106390200Y-97200001D01*
X104792000Y-100798000D02*
X105297974Y-101303974D01*
X105900000Y-96680000D02*
X105900000Y-98183998D01*
X106390200Y-97200001D02*
X107304600Y-97200001D01*
X105213000Y-95013000D02*
X105213000Y-96022801D01*
X103725000Y-93525000D02*
X105213000Y-95013000D01*
X105850000Y-96630000D02*
X105900000Y-96680000D01*
X104792000Y-99291998D02*
X104792000Y-100798000D01*
X105900000Y-98183998D02*
X104792000Y-99291998D01*
X119840000Y-103290000D02*
X120200000Y-103650000D01*
X119000000Y-102380000D02*
X119000000Y-102450000D01*
X119000000Y-102450000D02*
X120200000Y-103650000D01*
X119000000Y-103290000D02*
X119840000Y-103290000D01*
X113800000Y-96750000D02*
X112700000Y-96750000D01*
X119000000Y-102380000D02*
X119000000Y-103290000D01*
X121097500Y-101321572D02*
X121548771Y-100870301D01*
X122899255Y-99315257D02*
X122600000Y-99614512D01*
X121460627Y-100870301D02*
X121454947Y-100875981D01*
X122600000Y-99614512D02*
X122600000Y-100050000D01*
X121097500Y-101500000D02*
X121097500Y-101321572D01*
X121548771Y-100870301D02*
X121460627Y-100870301D01*
X106800000Y-102985000D02*
X104760001Y-102985000D01*
X108550000Y-103530000D02*
X108550000Y-104570000D01*
X104650000Y-106450000D02*
X104650000Y-105965592D01*
X103750000Y-103995001D02*
X103750000Y-104570000D01*
X110680399Y-97985000D02*
X111300000Y-97985000D01*
X109895400Y-97200001D02*
X108650001Y-97200001D01*
X107705000Y-102985000D02*
X107720000Y-103000000D01*
X103750000Y-105065592D02*
X103750000Y-104570000D01*
X108650001Y-97200001D02*
X108650000Y-97200000D01*
X108020000Y-103000000D02*
X108550000Y-103530000D01*
X104760001Y-102985000D02*
X103750000Y-103995001D01*
X104650000Y-105965592D02*
X103750000Y-105065592D01*
X109895400Y-97200001D02*
X110680399Y-97985000D01*
X107720000Y-103000000D02*
X108020000Y-103000000D01*
X106800000Y-102985000D02*
X107705000Y-102985000D01*
X111300000Y-97015000D02*
X111300000Y-96160000D01*
X124800000Y-103840000D02*
X124800000Y-103050000D01*
X124822392Y-103050000D02*
X124824631Y-103052239D01*
X122023000Y-99827000D02*
X121800000Y-100050000D01*
X124800000Y-103050000D02*
X124822392Y-103050000D01*
X122023000Y-99378037D02*
X122023000Y-99827000D01*
X109159712Y-99000000D02*
X109861333Y-99701621D01*
X107859999Y-100900000D02*
X108415000Y-100900000D01*
X108415000Y-99000000D02*
X109159712Y-99000000D01*
X107950000Y-102015000D02*
X107950000Y-101365000D01*
X107680000Y-98265000D02*
X108415000Y-99000000D01*
X109861333Y-100198379D02*
X109159712Y-100900000D01*
X109861333Y-99701621D02*
X109861333Y-100198379D01*
X107109999Y-100150000D02*
X107859999Y-100900000D01*
X109159712Y-100900000D02*
X108415000Y-100900000D01*
X107984318Y-100900000D02*
X108415000Y-100900000D01*
X106800000Y-100150000D02*
X107109999Y-100150000D01*
X107950000Y-101365000D02*
X108415000Y-100900000D01*
X106800000Y-98265000D02*
X107680000Y-98265000D01*
X122967631Y-98350000D02*
X124500000Y-98350000D01*
X122658000Y-98040369D02*
X122967631Y-98350000D01*
X123300000Y-97550000D02*
X124500000Y-97550000D01*
X107750000Y-106750000D02*
X106900000Y-105900000D01*
X105900000Y-104570000D02*
X105900000Y-103924408D01*
X110350000Y-106750000D02*
X107750000Y-106750000D01*
X118600000Y-100050000D02*
X118600000Y-99400000D01*
X106156408Y-103668000D02*
X106643592Y-103668000D01*
X106643592Y-103668000D02*
X106900000Y-103924408D01*
X106900000Y-105900000D02*
X106900000Y-104570000D01*
X106900000Y-103924408D02*
X106900000Y-104570000D01*
X105900000Y-103924408D02*
X106156408Y-103668000D01*
X114052600Y-105602600D02*
X114470000Y-106020000D01*
X114470000Y-106020000D02*
X115650000Y-106020000D01*
X114052600Y-104901810D02*
X114052600Y-105602600D01*
X117800000Y-99350000D02*
X117800000Y-100050000D01*
X106592204Y-106407796D02*
X105400000Y-105215592D01*
X109850000Y-107450003D02*
X109849997Y-107450000D01*
X105400000Y-105215592D02*
X105400000Y-104570000D01*
X109849997Y-107450000D02*
X107634408Y-107450000D01*
X106400000Y-104570000D02*
X106400000Y-106215592D01*
X107634408Y-107450000D02*
X106592204Y-106407796D01*
X106400000Y-106215592D02*
X106592204Y-106407796D01*
X117218000Y-105850000D02*
X116748930Y-105850000D01*
X114604027Y-99591973D02*
X114600000Y-99596000D01*
X116552600Y-105653670D02*
X116552600Y-104901180D01*
X116748930Y-105850000D02*
X116552600Y-105653670D01*
X114604027Y-99054027D02*
X114604027Y-99591973D01*
X114600000Y-99596000D02*
X114600000Y-100050000D01*
X113359358Y-103503070D02*
X112361600Y-103503070D01*
X113436368Y-103426060D02*
X113359358Y-103503070D01*
X111700000Y-109800000D02*
X111750000Y-109850000D01*
X111750000Y-109850000D02*
X112390000Y-109850000D01*
X123028000Y-105028000D02*
X123795000Y-105795000D01*
X118250000Y-105250000D02*
X118650000Y-105650000D01*
X118250000Y-102950000D02*
X118250000Y-105250000D01*
X117000000Y-100350000D02*
X117427000Y-100777000D01*
X117877000Y-100777000D02*
X118250000Y-101150000D01*
X117000000Y-100050000D02*
X117000000Y-100350000D01*
X115610000Y-108900000D02*
X123750000Y-108900000D01*
X117800000Y-102500000D02*
X118250000Y-102950000D01*
X122081000Y-92769000D02*
X123150000Y-91700000D01*
X117000000Y-99250000D02*
X117496000Y-98754000D01*
X117496000Y-98754000D02*
X121611052Y-98754000D01*
X121611052Y-98754000D02*
X122081000Y-98284052D01*
X117000000Y-100050000D02*
X117000000Y-99250000D01*
X119250000Y-105650000D02*
X119872000Y-105028000D01*
X117427000Y-100777000D02*
X117877000Y-100777000D01*
X119872000Y-105028000D02*
X123028000Y-105028000D01*
X122081000Y-98284052D02*
X122081000Y-92769000D01*
X118650000Y-105650000D02*
X119250000Y-105650000D01*
X118250000Y-101150000D02*
X118250000Y-102950000D01*
X123795000Y-105795000D02*
X123795000Y-106800000D01*
X117187600Y-102500000D02*
X117800000Y-102500000D01*
X123750000Y-108900000D02*
X123800000Y-108950000D01*
X117060600Y-101572670D02*
X117645670Y-101572670D01*
X121423000Y-98300000D02*
X117014218Y-98300000D01*
X120100000Y-91600000D02*
X121104000Y-91600000D01*
X117014218Y-98300000D02*
X116200000Y-99114218D01*
X116200000Y-99114218D02*
X116200000Y-100050000D01*
X121627000Y-92123000D02*
X121627000Y-98096000D01*
X121104000Y-91600000D02*
X121627000Y-92123000D01*
X121627000Y-98096000D02*
X121423000Y-98300000D01*
X117645670Y-101572670D02*
X117673000Y-101600000D01*
X116745000Y-107850000D02*
X117795000Y-106800000D01*
X115610000Y-107850000D02*
X116745000Y-107850000D01*
X116444012Y-103580070D02*
X116521012Y-103503070D01*
X116521012Y-103503070D02*
X117187600Y-103503070D01*
X113250000Y-102600000D02*
X113250000Y-102356870D01*
X124800000Y-107105976D02*
X124178976Y-107727000D01*
X113250000Y-102356870D02*
X114552600Y-103659470D01*
X120222000Y-107727000D02*
X119295000Y-106800000D01*
X114900000Y-96123000D02*
X114900000Y-93700000D01*
X112361600Y-103003070D02*
X113043930Y-103003070D01*
X111147334Y-99850000D02*
X111787000Y-100489666D01*
X112700000Y-92750000D02*
X114000000Y-92750000D01*
X112074334Y-100777000D02*
X111787000Y-100489666D01*
X117030000Y-109697000D02*
X114947000Y-109697000D01*
X114000000Y-92800000D02*
X114000000Y-92750000D01*
X113052600Y-101572670D02*
X113052600Y-100979600D01*
X124800000Y-104860000D02*
X124800000Y-107105976D01*
X124178976Y-107727000D02*
X120222000Y-107727000D01*
X113250000Y-102797000D02*
X113250000Y-102600000D01*
X112046000Y-92750000D02*
X112700000Y-92750000D01*
X111850000Y-100552666D02*
X111850000Y-101270000D01*
X112850000Y-100777000D02*
X112074334Y-100777000D01*
X114590000Y-109340000D02*
X114590000Y-107850000D01*
X113410000Y-108800000D02*
X113790000Y-108800000D01*
X110800000Y-99850000D02*
X111147334Y-99850000D01*
X113410000Y-109850000D02*
X113410000Y-108800000D01*
X111850000Y-101270000D02*
X111200000Y-101920000D01*
X114900000Y-93700000D02*
X114000000Y-92800000D01*
X110785000Y-99835000D02*
X110785000Y-99000000D01*
X117200000Y-109527000D02*
X117030000Y-109697000D01*
X113043930Y-103003070D02*
X113250000Y-102797000D01*
X111100000Y-91804000D02*
X112046000Y-92750000D01*
X113052600Y-102159470D02*
X113052600Y-101572670D01*
X114552600Y-103659470D02*
X114552600Y-104925470D01*
X114947000Y-109697000D02*
X114590000Y-109340000D01*
X111787000Y-100489666D02*
X111850000Y-100552666D01*
X110800000Y-99850000D02*
X110785000Y-99835000D01*
X113052600Y-100979600D02*
X112850000Y-100777000D01*
X113250000Y-102356870D02*
X113052600Y-102159470D01*
X113790000Y-108800000D02*
X114590000Y-108000000D01*
X119000000Y-105000000D02*
X119000000Y-104310000D01*
X111100000Y-91030000D02*
X111100000Y-91804000D01*
X113173000Y-94350000D02*
X112700000Y-94350000D01*
X114323000Y-95500000D02*
X113173000Y-94350000D01*
X110110000Y-102750000D02*
X110446328Y-102413672D01*
X110446328Y-102413672D02*
X110446328Y-101650000D01*
X113766999Y-97550000D02*
X113800000Y-97583001D01*
X112700000Y-97550000D02*
X113766999Y-97550000D01*
X107900000Y-104570000D02*
X107900000Y-105750000D01*
X111123000Y-103700000D02*
X111500000Y-104077000D01*
X112010000Y-107110000D02*
X112300000Y-107110000D01*
X111500000Y-106600000D02*
X112010000Y-107110000D01*
X111500000Y-104077000D02*
X111500000Y-106600000D01*
X107569359Y-108027003D02*
X104900000Y-105357644D01*
X113300000Y-107150000D02*
X112422997Y-108027003D01*
X112422997Y-108027003D02*
X107569359Y-108027003D01*
X104900000Y-105357644D02*
X104900000Y-104570000D01*
X111250000Y-94450000D02*
X111250000Y-95090000D01*
X111250000Y-95090000D02*
X111300000Y-95140000D01*
X107304600Y-95299999D02*
X107304600Y-95245400D01*
X107304600Y-95245400D02*
X108150000Y-94400000D01*
X110300000Y-94895399D02*
X109895400Y-95299999D01*
X110300000Y-94310000D02*
X110300000Y-94895399D01*
X123251000Y-100853000D02*
X123400000Y-100704000D01*
X121997500Y-101474868D02*
X122619368Y-100853000D01*
X123400000Y-100704000D02*
X123400000Y-100050000D01*
X121997500Y-101500000D02*
X121997500Y-101474868D01*
X122619368Y-100853000D02*
X123251000Y-100853000D01*
X123872500Y-101500000D02*
X122967500Y-101500000D01*
X105225000Y-93875000D02*
X105850000Y-94500000D01*
X106175000Y-99225000D02*
X106790000Y-99225000D01*
X108760000Y-102420000D02*
X108760000Y-102123000D01*
X109090000Y-102750000D02*
X108760000Y-102420000D01*
X105225000Y-92975000D02*
X105225000Y-93875000D01*
X106790000Y-99225000D02*
X106800000Y-99235000D01*
X115650000Y-103750000D02*
X115650000Y-103772924D01*
X113483000Y-107707000D02*
X112390000Y-108800000D01*
X115052600Y-104370324D02*
X115052600Y-104925470D01*
X115650000Y-103772924D02*
X115052600Y-104370324D01*
X113745506Y-107707000D02*
X113483000Y-107707000D01*
X114111686Y-107340820D02*
X113745506Y-107707000D01*
G04 #@! TA.AperFunction,Conductor*
G36*
X115631223Y-92001618D02*
G01*
X115451618Y-92181223D01*
X115000000Y-92250000D01*
X114999293Y-91949293D01*
X115114805Y-91672836D01*
X115631223Y-92001618D01*
G37*
G04 #@! TD.AperFunction*
G04 #@! TA.AperFunction,Conductor*
G36*
X115428771Y-103658321D02*
G01*
X115646175Y-103747435D01*
X115652531Y-103753744D01*
X115741971Y-103971945D01*
X115741939Y-103980899D01*
X115737460Y-103986232D01*
X115407919Y-104197456D01*
X115399104Y-104199036D01*
X115393332Y-104195879D01*
X115226544Y-104029091D01*
X115223117Y-104020818D01*
X115224517Y-104015267D01*
X115247864Y-103971944D01*
X115414035Y-103663596D01*
X115420977Y-103657940D01*
X115428771Y-103658321D01*
G37*
G04 #@! TD.AperFunction*
G04 #@! TA.AperFunction,Conductor*
G36*
X108677164Y-96135195D02*
G01*
X108400000Y-96251000D01*
X108122836Y-96135195D01*
X108273000Y-95650000D01*
X108527000Y-95650000D01*
X108677164Y-96135195D01*
G37*
G04 #@! TD.AperFunction*
G04 #@! TA.AperFunction,Conductor*
G36*
X120135359Y-103199173D02*
G01*
X120135411Y-103199301D01*
X120272905Y-103539026D01*
X120272833Y-103547980D01*
X120270333Y-103551688D01*
X120103199Y-103718822D01*
X120094926Y-103722249D01*
X120088149Y-103720086D01*
X120086370Y-103718822D01*
X119734555Y-103468827D01*
X119729796Y-103461242D01*
X119731795Y-103452513D01*
X119733088Y-103450987D01*
X119899090Y-103286308D01*
X119902806Y-103283826D01*
X120120051Y-103192896D01*
X120129003Y-103192864D01*
X120135359Y-103199173D01*
G37*
G04 #@! TD.AperFunction*
G04 #@! TA.AperFunction,Conductor*
G36*
X110634045Y-101727568D02*
G01*
X110667963Y-101741764D01*
X110674272Y-101748120D01*
X110674777Y-101755471D01*
X110575587Y-102141214D01*
X110570208Y-102148373D01*
X110564256Y-102150000D01*
X110328400Y-102150000D01*
X110320127Y-102146573D01*
X110317069Y-102141214D01*
X110217878Y-101755471D01*
X110219136Y-101746605D01*
X110224691Y-101741764D01*
X110441812Y-101650889D01*
X110450765Y-101650857D01*
X110634045Y-101727568D01*
G37*
G04 #@! TD.AperFunction*
G04 #@! TA.AperFunction,Conductor*
G36*
X122928390Y-91608165D02*
G01*
X123146175Y-91697435D01*
X123152531Y-91703744D01*
X123152564Y-91703824D01*
X123241833Y-91921607D01*
X123241800Y-91930561D01*
X123236959Y-91936117D01*
X122894058Y-92138740D01*
X122885192Y-92139998D01*
X122879833Y-92136940D01*
X122713059Y-91970166D01*
X122709632Y-91961893D01*
X122711259Y-91955941D01*
X122860237Y-91703824D01*
X122913883Y-91613039D01*
X122921041Y-91607661D01*
X122928390Y-91608165D01*
G37*
G04 #@! TD.AperFunction*
G04 #@! TA.AperFunction,Conductor*
G36*
X109753394Y-107222811D02*
G01*
X109758235Y-107228367D01*
X109849109Y-107445486D01*
X109849142Y-107454440D01*
X109849109Y-107454520D01*
X109758235Y-107671638D01*
X109751879Y-107677947D01*
X109744528Y-107678452D01*
X109358787Y-107579259D01*
X109351628Y-107573880D01*
X109350001Y-107567928D01*
X109350001Y-107332071D01*
X109353428Y-107323798D01*
X109358784Y-107320741D01*
X109744528Y-107221553D01*
X109753394Y-107222811D01*
G37*
G04 #@! TD.AperFunction*
G04 #@! TA.AperFunction,Conductor*
G36*
X114791744Y-99131595D02*
G01*
X114825662Y-99145791D01*
X114831971Y-99152147D01*
X114832476Y-99159498D01*
X114733286Y-99545241D01*
X114727907Y-99552400D01*
X114721955Y-99554027D01*
X114486099Y-99554027D01*
X114477826Y-99550600D01*
X114474768Y-99545241D01*
X114375577Y-99159498D01*
X114376835Y-99150632D01*
X114382390Y-99145791D01*
X114599511Y-99054916D01*
X114608464Y-99054884D01*
X114791744Y-99131595D01*
G37*
G04 #@! TD.AperFunction*
G04 #@! TA.AperFunction,Conductor*
G36*
X124826819Y-103052154D02*
G01*
X125045687Y-103143760D01*
X125051996Y-103150116D01*
X125052307Y-103158139D01*
X124929612Y-103539226D01*
X124923815Y-103546051D01*
X124918475Y-103547340D01*
X124682604Y-103547340D01*
X124674331Y-103543913D01*
X124671128Y-103537920D01*
X124577396Y-103066158D01*
X124579145Y-103057379D01*
X124586592Y-103052405D01*
X124588812Y-103052182D01*
X124822258Y-103051248D01*
X124826819Y-103052154D01*
G37*
G04 #@! TD.AperFunction*
G04 #@! TA.AperFunction,Conductor*
G36*
X115001000Y-91950000D02*
G01*
X114885195Y-92227164D01*
X114400000Y-92077000D01*
X114400000Y-91823000D01*
X114885195Y-91672836D01*
X115001000Y-91950000D01*
G37*
G04 #@! TD.AperFunction*
G04 #@! TA.AperFunction,Conductor*
G36*
X105594058Y-94061259D02*
G01*
X105936959Y-94263882D01*
X105942338Y-94271041D01*
X105941833Y-94278392D01*
X105852564Y-94496175D01*
X105846255Y-94502531D01*
X105846175Y-94502564D01*
X105628392Y-94591833D01*
X105619438Y-94591800D01*
X105613882Y-94586959D01*
X105411259Y-94244058D01*
X105410001Y-94235192D01*
X105413057Y-94229835D01*
X105579834Y-94063058D01*
X105588106Y-94059632D01*
X105594058Y-94061259D01*
G37*
G04 #@! TD.AperFunction*
G04 #@! TA.AperFunction,Conductor*
G36*
X107721974Y-102704552D02*
G01*
X107726512Y-102707964D01*
X107945031Y-102977634D01*
X107947577Y-102986219D01*
X107945031Y-102992366D01*
X107726512Y-103262035D01*
X107718641Y-103266305D01*
X107713020Y-103265509D01*
X107342298Y-103114963D01*
X107335922Y-103108675D01*
X107335000Y-103104123D01*
X107335000Y-102865876D01*
X107338427Y-102857603D01*
X107342296Y-102855036D01*
X107713021Y-102704490D01*
X107721974Y-102704552D01*
G37*
G04 #@! TD.AperFunction*
G04 #@! TA.AperFunction,Conductor*
G36*
X108077775Y-101428427D02*
G01*
X108080132Y-101431813D01*
X108241092Y-101781942D01*
X108241435Y-101790890D01*
X108237569Y-101796123D01*
X107957107Y-102010565D01*
X107948453Y-102012868D01*
X107942893Y-102010565D01*
X107662430Y-101796123D01*
X107657940Y-101788376D01*
X107658906Y-101781943D01*
X107819868Y-101431813D01*
X107826437Y-101425727D01*
X107830498Y-101425000D01*
X108069502Y-101425000D01*
X108077775Y-101428427D01*
G37*
G04 #@! TD.AperFunction*
G04 #@! TA.AperFunction,Conductor*
G36*
X122028210Y-99379215D02*
G01*
X122079109Y-99400519D01*
X122243623Y-99469377D01*
X122249931Y-99475732D01*
X122250078Y-99484228D01*
X122226312Y-99548471D01*
X122225067Y-99550912D01*
X122211134Y-99571765D01*
X122211133Y-99571768D01*
X122203679Y-99609240D01*
X122203177Y-99611016D01*
X122083047Y-99935765D01*
X122076963Y-99942336D01*
X122068015Y-99942679D01*
X122063801Y-99939979D01*
X121898995Y-99775173D01*
X121896227Y-99770773D01*
X121795688Y-99484137D01*
X121796184Y-99475196D01*
X121802233Y-99469463D01*
X122019199Y-99379204D01*
X122028154Y-99379192D01*
X122028210Y-99379215D01*
G37*
G04 #@! TD.AperFunction*
G04 #@! TA.AperFunction,Conductor*
G36*
X106666215Y-99095741D02*
G01*
X106673373Y-99101119D01*
X106675000Y-99107071D01*
X106675000Y-99342928D01*
X106671573Y-99351201D01*
X106666214Y-99354259D01*
X106280471Y-99453449D01*
X106271605Y-99452191D01*
X106266764Y-99446635D01*
X106252568Y-99412717D01*
X106175889Y-99229515D01*
X106175857Y-99220563D01*
X106266764Y-99003363D01*
X106273120Y-98997055D01*
X106280471Y-98996550D01*
X106666215Y-99095741D01*
G37*
G04 #@! TD.AperFunction*
G04 #@! TA.AperFunction,Conductor*
G36*
X117120619Y-105623376D02*
G01*
X117126725Y-105629598D01*
X117216831Y-105846199D01*
X117216844Y-105855154D01*
X117216821Y-105855210D01*
X117126531Y-106070928D01*
X117120175Y-106077237D01*
X117112010Y-106077501D01*
X116655150Y-105923945D01*
X116648400Y-105918061D01*
X116647788Y-105909127D01*
X116650603Y-105904584D01*
X116815129Y-105740058D01*
X116819142Y-105737435D01*
X117111666Y-105623194D01*
X117120619Y-105623376D01*
G37*
G04 #@! TD.AperFunction*
G04 #@! TA.AperFunction,Conductor*
G36*
X120591215Y-91470741D02*
G01*
X120598373Y-91476119D01*
X120600000Y-91482071D01*
X120600000Y-91717928D01*
X120596573Y-91726201D01*
X120591214Y-91729259D01*
X120205471Y-91828449D01*
X120196605Y-91827191D01*
X120191764Y-91821635D01*
X120177568Y-91787717D01*
X120100889Y-91604515D01*
X120100857Y-91595563D01*
X120191764Y-91378363D01*
X120198120Y-91372055D01*
X120205471Y-91371550D01*
X120591215Y-91470741D01*
G37*
G04 #@! TD.AperFunction*
G04 #@! TA.AperFunction,Conductor*
G36*
X123764941Y-102261223D02*
G01*
X123727000Y-102824854D01*
X123473000Y-102824854D01*
X123187777Y-102376028D01*
X123464941Y-102260223D01*
X123764941Y-102261223D01*
G37*
G04 #@! TD.AperFunction*
G04 #@! TA.AperFunction,Conductor*
G36*
X119891396Y-103267351D02*
G01*
X119892486Y-103276240D01*
X119889485Y-103281384D01*
X119876065Y-103294805D01*
X119876063Y-103294806D01*
X119823348Y-103347522D01*
X119775073Y-103395797D01*
X119766800Y-103399224D01*
X119764479Y-103398991D01*
X119699754Y-103385888D01*
X119692325Y-103380888D01*
X119690608Y-103372100D01*
X119695608Y-103364671D01*
X119696292Y-103364250D01*
X119875454Y-103262926D01*
X119884341Y-103261837D01*
X119891396Y-103267351D01*
G37*
G04 #@! TD.AperFunction*
G04 #@! TA.AperFunction,Conductor*
G36*
X109224000Y-99950000D02*
G01*
X109108195Y-100227164D01*
X108623000Y-100077000D01*
X108623000Y-99823000D01*
X109108195Y-99672836D01*
X109224000Y-99950000D01*
G37*
G04 #@! TD.AperFunction*
G04 #@! TA.AperFunction,Conductor*
G36*
X118787717Y-99477568D02*
G01*
X118821635Y-99491764D01*
X118827944Y-99498120D01*
X118828449Y-99505471D01*
X118729259Y-99891214D01*
X118723880Y-99898373D01*
X118717928Y-99900000D01*
X118482072Y-99900000D01*
X118473799Y-99896573D01*
X118470741Y-99891214D01*
X118371550Y-99505471D01*
X118372808Y-99496605D01*
X118378363Y-99491764D01*
X118595484Y-99400889D01*
X118604437Y-99400857D01*
X118787717Y-99477568D01*
G37*
G04 #@! TD.AperFunction*
G04 #@! TA.AperFunction,Conductor*
G36*
X121234820Y-100784754D02*
G01*
X121453458Y-100874374D01*
X121457326Y-100876959D01*
X121622432Y-101043392D01*
X121625826Y-101051679D01*
X121622366Y-101059938D01*
X121621314Y-101060863D01*
X121252188Y-101348292D01*
X121243555Y-101350671D01*
X121236727Y-101347334D01*
X121069906Y-101180513D01*
X121066479Y-101172240D01*
X121067331Y-101167858D01*
X121219572Y-100791207D01*
X121225847Y-100784823D01*
X121234801Y-100784747D01*
X121234820Y-100784754D01*
G37*
G04 #@! TD.AperFunction*
G04 #@! TA.AperFunction,Conductor*
G36*
X112182609Y-109720093D02*
G01*
X112189069Y-109726294D01*
X112190054Y-109730992D01*
X112190054Y-109966914D01*
X112186627Y-109975187D01*
X112180078Y-109978486D01*
X111713369Y-110048008D01*
X111704681Y-110045838D01*
X111700073Y-110038160D01*
X111699945Y-110036495D01*
X111699009Y-109802371D01*
X111699915Y-109797812D01*
X111791262Y-109579563D01*
X111797617Y-109573256D01*
X111806309Y-109573183D01*
X112182609Y-109720093D01*
G37*
G04 #@! TD.AperFunction*
G04 #@! TA.AperFunction,Conductor*
G36*
X107036978Y-97984489D02*
G01*
X107407702Y-98135036D01*
X107414078Y-98141324D01*
X107415000Y-98145876D01*
X107415000Y-98384123D01*
X107411573Y-98392396D01*
X107407702Y-98394963D01*
X107036979Y-98545509D01*
X107028025Y-98545447D01*
X107023487Y-98542035D01*
X106994832Y-98506672D01*
X106804967Y-98272364D01*
X106802422Y-98263781D01*
X106804967Y-98257636D01*
X107023488Y-97987963D01*
X107031358Y-97983694D01*
X107036978Y-97984489D01*
G37*
G04 #@! TD.AperFunction*
G04 #@! TA.AperFunction,Conductor*
G36*
X114056206Y-106509588D02*
G01*
X113968095Y-106597700D01*
X113780733Y-106622702D01*
X114147700Y-106418095D01*
X114056206Y-106509588D01*
G37*
G04 #@! TD.AperFunction*
G04 #@! TA.AperFunction,Conductor*
G36*
X104663107Y-105805558D02*
G01*
X104665310Y-105808621D01*
X104921600Y-106324006D01*
X104922216Y-106332940D01*
X104916334Y-106339692D01*
X104915635Y-106340012D01*
X104655206Y-106448827D01*
X104646251Y-106448854D01*
X104646204Y-106448835D01*
X104382515Y-106339218D01*
X104376191Y-106332878D01*
X104375775Y-106325135D01*
X104477623Y-105976528D01*
X104480578Y-105971541D01*
X104646562Y-105805557D01*
X104654834Y-105802131D01*
X104663107Y-105805558D01*
G37*
G04 #@! TD.AperFunction*
G04 #@! TA.AperFunction,Conductor*
G36*
X123791215Y-97420741D02*
G01*
X123798373Y-97426119D01*
X123800000Y-97432071D01*
X123800000Y-97667928D01*
X123796573Y-97676201D01*
X123791214Y-97679259D01*
X123405471Y-97778449D01*
X123396605Y-97777191D01*
X123391764Y-97771635D01*
X123377568Y-97737717D01*
X123300889Y-97554515D01*
X123300857Y-97545563D01*
X123391764Y-97328363D01*
X123398120Y-97322055D01*
X123405471Y-97321550D01*
X123791215Y-97420741D01*
G37*
G04 #@! TD.AperFunction*
G04 #@! TA.AperFunction,Conductor*
G36*
X115026647Y-95526427D02*
G01*
X115029551Y-95531241D01*
X115174020Y-95998038D01*
X115173192Y-96006954D01*
X115167354Y-96012293D01*
X114904511Y-96122115D01*
X114895556Y-96122142D01*
X114895489Y-96122115D01*
X114632645Y-96012293D01*
X114626333Y-96005941D01*
X114625979Y-95998039D01*
X114702174Y-95751845D01*
X114704505Y-95747652D01*
X114705882Y-95746063D01*
X114759697Y-95628226D01*
X114773383Y-95533034D01*
X114777952Y-95525334D01*
X114784964Y-95523000D01*
X115018374Y-95523000D01*
X115026647Y-95526427D01*
G37*
G04 #@! TD.AperFunction*
G04 #@! TA.AperFunction,Conductor*
G36*
X111353561Y-103608199D02*
G01*
X111359117Y-103613040D01*
X111561740Y-103955941D01*
X111562998Y-103964807D01*
X111559940Y-103970166D01*
X111393166Y-104136940D01*
X111384893Y-104140367D01*
X111378941Y-104138740D01*
X111036040Y-103936117D01*
X111030661Y-103928958D01*
X111031165Y-103921609D01*
X111120436Y-103703822D01*
X111126743Y-103697468D01*
X111344609Y-103608166D01*
X111353561Y-103608199D01*
G37*
G04 #@! TD.AperFunction*
G04 #@! TA.AperFunction,Conductor*
G36*
X108269832Y-102878434D02*
G01*
X108274809Y-102883086D01*
X108333238Y-102984293D01*
X108532724Y-103329832D01*
X108533892Y-103338710D01*
X108530864Y-103343955D01*
X108363349Y-103511470D01*
X108355076Y-103514897D01*
X108350219Y-103513841D01*
X107847807Y-103284538D01*
X107841705Y-103277986D01*
X107841718Y-103269769D01*
X107947348Y-102989453D01*
X107953471Y-102982922D01*
X107954492Y-102982517D01*
X108260896Y-102877865D01*
X108269832Y-102878434D01*
G37*
G04 #@! TD.AperFunction*
G04 #@! TA.AperFunction,Conductor*
G36*
X119126647Y-104403427D02*
G01*
X119129551Y-104408241D01*
X119274020Y-104875038D01*
X119273192Y-104883954D01*
X119267354Y-104889293D01*
X119004511Y-104999115D01*
X118995556Y-104999142D01*
X118995489Y-104999115D01*
X118732645Y-104889293D01*
X118726333Y-104882941D01*
X118725979Y-104875039D01*
X118870449Y-104408240D01*
X118876169Y-104401351D01*
X118881626Y-104400000D01*
X119118374Y-104400000D01*
X119126647Y-104403427D01*
G37*
G04 #@! TD.AperFunction*
G04 #@! TA.AperFunction,Conductor*
G36*
X123795318Y-108704161D02*
G01*
X123799926Y-108711839D01*
X123800054Y-108713516D01*
X123800990Y-108947625D01*
X123800083Y-108952189D01*
X123708738Y-109170434D01*
X123702382Y-109176743D01*
X123693690Y-109176816D01*
X123317391Y-109029906D01*
X123310931Y-109023705D01*
X123309946Y-109019007D01*
X123309946Y-108783085D01*
X123313373Y-108774812D01*
X123319919Y-108771514D01*
X123786631Y-108701991D01*
X123795318Y-108704161D01*
G37*
G04 #@! TD.AperFunction*
G04 #@! TA.AperFunction,Conductor*
G36*
X110911913Y-99256411D02*
G01*
X110914709Y-99260893D01*
X111073614Y-99724831D01*
X111073053Y-99733768D01*
X111067056Y-99739418D01*
X110804511Y-99849115D01*
X110795556Y-99849142D01*
X110795489Y-99849115D01*
X110532384Y-99739184D01*
X110526072Y-99732832D01*
X110525629Y-99725230D01*
X110655606Y-99261526D01*
X110661139Y-99254485D01*
X110666872Y-99252984D01*
X110903640Y-99252984D01*
X110911913Y-99256411D01*
G37*
G04 #@! TD.AperFunction*
G04 #@! TA.AperFunction,Conductor*
G36*
X108026201Y-105253427D02*
G01*
X108029259Y-105258786D01*
X108128449Y-105644528D01*
X108127191Y-105653394D01*
X108121635Y-105658235D01*
X107904517Y-105749109D01*
X107895563Y-105749142D01*
X107895483Y-105749109D01*
X107678364Y-105658235D01*
X107672055Y-105651879D01*
X107671550Y-105644528D01*
X107770741Y-105258786D01*
X107776120Y-105251627D01*
X107782072Y-105250000D01*
X108017928Y-105250000D01*
X108026201Y-105253427D01*
G37*
G04 #@! TD.AperFunction*
G04 #@! TA.AperFunction,Conductor*
G36*
X122887912Y-97948840D02*
G01*
X122893858Y-97954362D01*
X123028488Y-98220509D01*
X123029748Y-98225790D01*
X123029748Y-98459069D01*
X123026321Y-98467342D01*
X123018048Y-98470769D01*
X123013336Y-98469778D01*
X122572768Y-98275932D01*
X122566576Y-98269464D01*
X122566653Y-98260787D01*
X122655148Y-98044885D01*
X122661455Y-98038531D01*
X122878958Y-97948827D01*
X122887912Y-97948840D01*
G37*
G04 #@! TD.AperFunction*
G04 #@! TA.AperFunction,Conductor*
G36*
X111020216Y-99643896D02*
G01*
X111404952Y-99930772D01*
X111409536Y-99938465D01*
X111407338Y-99947146D01*
X111406231Y-99948425D01*
X111239275Y-100115381D01*
X111231846Y-100118778D01*
X110812514Y-100149095D01*
X110804015Y-100146273D01*
X110800000Y-100138269D01*
X110799970Y-100137467D01*
X110799304Y-99854177D01*
X110802710Y-99845898D01*
X111004978Y-99644973D01*
X111013261Y-99641576D01*
X111020216Y-99643896D01*
G37*
G04 #@! TD.AperFunction*
G04 #@! TA.AperFunction,Conductor*
G36*
X117667907Y-101354475D02*
G01*
X117672843Y-101361947D01*
X117673056Y-101364122D01*
X117673990Y-101597625D01*
X117673083Y-101602189D01*
X117581505Y-101820991D01*
X117575149Y-101827300D01*
X117567054Y-101827587D01*
X117186478Y-101702317D01*
X117179691Y-101696476D01*
X117178436Y-101691204D01*
X117178436Y-101455323D01*
X117181863Y-101447050D01*
X117187912Y-101443836D01*
X117659134Y-101352682D01*
X117667907Y-101354475D01*
G37*
G04 #@! TD.AperFunction*
G04 #@! TA.AperFunction,Conductor*
G36*
X108401000Y-96250000D02*
G01*
X108285195Y-96527164D01*
X107800000Y-96377000D01*
X107800000Y-96123000D01*
X108285195Y-95972836D01*
X108401000Y-96250000D01*
G37*
G04 #@! TD.AperFunction*
G04 #@! TA.AperFunction,Conductor*
G36*
X111437717Y-94527568D02*
G01*
X111471635Y-94541764D01*
X111477944Y-94548120D01*
X111478449Y-94555471D01*
X111379259Y-94941214D01*
X111373880Y-94948373D01*
X111367928Y-94950000D01*
X111132072Y-94950000D01*
X111123799Y-94946573D01*
X111120741Y-94941214D01*
X111021550Y-94555471D01*
X111022808Y-94546605D01*
X111028363Y-94541764D01*
X111245484Y-94450889D01*
X111254437Y-94450857D01*
X111437717Y-94527568D01*
G37*
G04 #@! TD.AperFunction*
G04 #@! TA.AperFunction,Conductor*
G36*
X113703394Y-96522808D02*
G01*
X113708235Y-96528364D01*
X113799109Y-96745483D01*
X113799142Y-96754437D01*
X113799109Y-96754517D01*
X113708235Y-96971635D01*
X113701879Y-96977944D01*
X113694528Y-96978449D01*
X113308786Y-96879259D01*
X113301627Y-96873880D01*
X113300000Y-96867928D01*
X113300000Y-96632071D01*
X113303427Y-96623798D01*
X113308783Y-96620741D01*
X113694528Y-96521550D01*
X113703394Y-96522808D01*
G37*
G04 #@! TD.AperFunction*
G04 #@! TA.AperFunction,Conductor*
G36*
X108997766Y-102122965D02*
G01*
X109006028Y-102126415D01*
X109009432Y-102134698D01*
X109009419Y-102135220D01*
X108993559Y-102469221D01*
X108990145Y-102476939D01*
X108823915Y-102643169D01*
X108815642Y-102646596D01*
X108807369Y-102643169D01*
X108805855Y-102641307D01*
X108536740Y-102230442D01*
X108535073Y-102221643D01*
X108540116Y-102214244D01*
X108542010Y-102213238D01*
X108757113Y-102123205D01*
X108761656Y-102122299D01*
X108997766Y-102122965D01*
G37*
G04 #@! TD.AperFunction*
G04 #@! TA.AperFunction,Conductor*
G36*
X113670393Y-97322808D02*
G01*
X113675234Y-97328364D01*
X113766108Y-97545483D01*
X113766141Y-97554437D01*
X113766108Y-97554517D01*
X113675234Y-97771635D01*
X113668878Y-97777944D01*
X113661527Y-97778449D01*
X113275785Y-97679259D01*
X113268626Y-97673880D01*
X113266999Y-97667928D01*
X113266999Y-97432071D01*
X113270426Y-97423798D01*
X113275782Y-97420741D01*
X113661527Y-97321550D01*
X113670393Y-97322808D01*
G37*
G04 #@! TD.AperFunction*
G04 #@! TA.AperFunction,Conductor*
G36*
X119803305Y-103056859D02*
G01*
X119808294Y-103062501D01*
X119899109Y-103279481D01*
X119899142Y-103288436D01*
X119899109Y-103288515D01*
X119808183Y-103505758D01*
X119801827Y-103512067D01*
X119794627Y-103512610D01*
X119410131Y-103419171D01*
X119402901Y-103413888D01*
X119401194Y-103407802D01*
X119401194Y-103171936D01*
X119404621Y-103163663D01*
X119409814Y-103160648D01*
X119794423Y-103055730D01*
X119803305Y-103056859D01*
G37*
G04 #@! TD.AperFunction*
G04 #@! TA.AperFunction,Conductor*
G36*
X106572088Y-98954500D02*
G01*
X106576385Y-98957807D01*
X106795031Y-99227634D01*
X106797577Y-99236219D01*
X106795031Y-99242366D01*
X106576639Y-99511878D01*
X106568768Y-99516148D01*
X106562909Y-99515253D01*
X106192060Y-99355049D01*
X106185824Y-99348622D01*
X106185000Y-99344308D01*
X106185000Y-99106068D01*
X106188427Y-99097795D01*
X106192539Y-99095133D01*
X106563139Y-98954237D01*
X106572088Y-98954500D01*
G37*
G04 #@! TD.AperFunction*
G04 #@! TA.AperFunction,Conductor*
G36*
X107928390Y-94308165D02*
G01*
X108146175Y-94397435D01*
X108152531Y-94403744D01*
X108152564Y-94403824D01*
X108241833Y-94621607D01*
X108241800Y-94630561D01*
X108236959Y-94636117D01*
X107894058Y-94838740D01*
X107885192Y-94839998D01*
X107879833Y-94836940D01*
X107713059Y-94670166D01*
X107709632Y-94661893D01*
X107711259Y-94655941D01*
X107860237Y-94403824D01*
X107913883Y-94313039D01*
X107921041Y-94307661D01*
X107928390Y-94308165D01*
G37*
G04 #@! TD.AperFunction*
G04 #@! TA.AperFunction,Conductor*
G36*
X116995169Y-109322135D02*
G01*
X117197537Y-109523553D01*
X117200983Y-109531818D01*
X117200983Y-109531885D01*
X117200039Y-109815273D01*
X117196585Y-109823535D01*
X117188300Y-109826934D01*
X117188274Y-109826934D01*
X116671351Y-109824064D01*
X116663097Y-109820591D01*
X116659716Y-109812364D01*
X116659716Y-109575723D01*
X116663143Y-109567450D01*
X116664229Y-109566490D01*
X116979736Y-109321190D01*
X116988368Y-109318819D01*
X116995169Y-109322135D01*
G37*
G04 #@! TD.AperFunction*
G04 #@! TA.AperFunction,Conductor*
G36*
X113890076Y-107248985D02*
G01*
X114107861Y-107338255D01*
X114114217Y-107344564D01*
X114114250Y-107344644D01*
X114203519Y-107562427D01*
X114203486Y-107571381D01*
X114198645Y-107576937D01*
X113855744Y-107779560D01*
X113846878Y-107780818D01*
X113841519Y-107777760D01*
X113674745Y-107610986D01*
X113671318Y-107602713D01*
X113672945Y-107596761D01*
X113821923Y-107344644D01*
X113875569Y-107253859D01*
X113882727Y-107248481D01*
X113890076Y-107248985D01*
G37*
G04 #@! TD.AperFunction*
G04 #@! TA.AperFunction,Conductor*
G36*
X116387717Y-99191786D02*
G01*
X116421635Y-99205982D01*
X116427944Y-99212338D01*
X116428449Y-99219689D01*
X116329259Y-99605432D01*
X116323880Y-99612591D01*
X116317928Y-99614218D01*
X116082072Y-99614218D01*
X116073799Y-99610791D01*
X116070741Y-99605432D01*
X115971550Y-99219689D01*
X115972808Y-99210823D01*
X115978363Y-99205982D01*
X116195484Y-99115107D01*
X116204437Y-99115075D01*
X116387717Y-99191786D01*
G37*
G04 #@! TD.AperFunction*
G04 #@! TA.AperFunction,Conductor*
G36*
X113345209Y-103205894D02*
G01*
X113345394Y-103206312D01*
X113436451Y-103423870D01*
X113437358Y-103428434D01*
X113436419Y-103663248D01*
X113432959Y-103671507D01*
X113424672Y-103674901D01*
X113423614Y-103674849D01*
X112962281Y-103631075D01*
X112954368Y-103626882D01*
X112951686Y-103619427D01*
X112951686Y-103383530D01*
X112955113Y-103375257D01*
X112958447Y-103372924D01*
X113047140Y-103331662D01*
X113052075Y-103330570D01*
X113087047Y-103330570D01*
X113087047Y-103330569D01*
X113145593Y-103314881D01*
X113170337Y-103308252D01*
X113170337Y-103308251D01*
X113170340Y-103308251D01*
X113245020Y-103265135D01*
X113291309Y-103218845D01*
X113294633Y-103216520D01*
X113329668Y-103200220D01*
X113338613Y-103199838D01*
X113345209Y-103205894D01*
G37*
G04 #@! TD.AperFunction*
G04 #@! TA.AperFunction,Conductor*
G36*
X122894737Y-99312405D02*
G01*
X122901093Y-99318714D01*
X122901116Y-99318770D01*
X122990910Y-99536491D01*
X122990897Y-99545446D01*
X122985665Y-99551241D01*
X122729606Y-99689891D01*
X122724035Y-99691302D01*
X122490506Y-99691302D01*
X122482233Y-99687875D01*
X122478806Y-99679602D01*
X122479696Y-99675127D01*
X122663825Y-99230357D01*
X122670156Y-99224024D01*
X122679070Y-99224007D01*
X122894737Y-99312405D01*
G37*
G04 #@! TD.AperFunction*
G04 #@! TA.AperFunction,Conductor*
G36*
X114067058Y-95061259D02*
G01*
X114409959Y-95263882D01*
X114415338Y-95271041D01*
X114414833Y-95278392D01*
X114325564Y-95496175D01*
X114319255Y-95502531D01*
X114319175Y-95502564D01*
X114101392Y-95591833D01*
X114092438Y-95591800D01*
X114086882Y-95586959D01*
X113884259Y-95244058D01*
X113883001Y-95235192D01*
X113886057Y-95229835D01*
X114052834Y-95063058D01*
X114061106Y-95059632D01*
X114067058Y-95061259D01*
G37*
G04 #@! TD.AperFunction*
G04 #@! TA.AperFunction,Conductor*
G36*
X109241759Y-97070450D02*
G01*
X109248649Y-97076170D01*
X109250000Y-97081627D01*
X109250000Y-97318374D01*
X109246573Y-97326647D01*
X109241759Y-97329551D01*
X108774961Y-97474020D01*
X108766045Y-97473192D01*
X108760706Y-97467354D01*
X108703129Y-97329551D01*
X108650883Y-97204509D01*
X108650857Y-97195556D01*
X108650862Y-97195542D01*
X108760707Y-96932643D01*
X108767058Y-96926333D01*
X108774960Y-96925979D01*
X109241759Y-97070450D01*
G37*
G04 #@! TD.AperFunction*
G04 #@! TA.AperFunction,Conductor*
G36*
X117987717Y-99427568D02*
G01*
X118021635Y-99441764D01*
X118027944Y-99448120D01*
X118028449Y-99455471D01*
X117929259Y-99841214D01*
X117923880Y-99848373D01*
X117917928Y-99850000D01*
X117682072Y-99850000D01*
X117673799Y-99846573D01*
X117670741Y-99841214D01*
X117571550Y-99455471D01*
X117572808Y-99446605D01*
X117578363Y-99441764D01*
X117795484Y-99350889D01*
X117804437Y-99350857D01*
X117987717Y-99427568D01*
G37*
G04 #@! TD.AperFunction*
G04 #@! TA.AperFunction,Conductor*
G36*
X116470166Y-98677277D02*
G01*
X116636940Y-98844051D01*
X116640367Y-98852324D01*
X116638740Y-98858276D01*
X116436117Y-99201177D01*
X116428958Y-99206556D01*
X116421607Y-99206051D01*
X116203824Y-99116782D01*
X116197468Y-99110473D01*
X116197435Y-99110393D01*
X116108166Y-98892610D01*
X116108199Y-98883656D01*
X116113038Y-98878101D01*
X116455941Y-98675476D01*
X116464807Y-98674219D01*
X116470166Y-98677277D01*
G37*
G04 #@! TD.AperFunction*
G04 #@! TA.AperFunction,Conductor*
G36*
X110253394Y-106522808D02*
G01*
X110258235Y-106528364D01*
X110349109Y-106745483D01*
X110349142Y-106754437D01*
X110349109Y-106754517D01*
X110258235Y-106971635D01*
X110251879Y-106977944D01*
X110244528Y-106978449D01*
X109858786Y-106879259D01*
X109851627Y-106873880D01*
X109850000Y-106867928D01*
X109850000Y-106632071D01*
X109853427Y-106623798D01*
X109858783Y-106620741D01*
X110244528Y-106521550D01*
X110253394Y-106522808D01*
G37*
G04 #@! TD.AperFunction*
G04 #@! TA.AperFunction,Conductor*
G36*
X102080000Y-106664862D02*
G01*
X102121689Y-106656570D01*
X102121690Y-106656570D01*
X102303674Y-106581190D01*
X102467460Y-106471753D01*
X102606753Y-106332460D01*
X102716190Y-106168674D01*
X102762405Y-106057101D01*
X102788923Y-106030582D01*
X102826426Y-106030582D01*
X102842323Y-106041204D01*
X102878810Y-106077690D01*
X102906635Y-106105515D01*
X102921115Y-106113875D01*
X103037862Y-106181280D01*
X103037864Y-106181280D01*
X103037865Y-106181281D01*
X103153303Y-106212212D01*
X103184230Y-106220499D01*
X103184231Y-106220500D01*
X103184234Y-106220500D01*
X103335769Y-106220500D01*
X103335769Y-106220499D01*
X103482135Y-106181281D01*
X103613365Y-106105515D01*
X103720515Y-105998365D01*
X103722786Y-105996094D01*
X103724104Y-105997412D01*
X103751414Y-105981602D01*
X103787651Y-105991265D01*
X103792516Y-105995527D01*
X103890337Y-106093348D01*
X103904689Y-106127996D01*
X103902723Y-106141735D01*
X103890564Y-106183357D01*
X103883808Y-106208949D01*
X103883808Y-106208950D01*
X103883511Y-106212273D01*
X103880956Y-106224091D01*
X103864634Y-106270738D01*
X103864631Y-106270750D01*
X103844435Y-106450000D01*
X103864631Y-106629249D01*
X103864633Y-106629258D01*
X103924212Y-106799526D01*
X103999417Y-106919212D01*
X104020184Y-106952262D01*
X104147738Y-107079816D01*
X104147740Y-107079817D01*
X104300473Y-107175787D01*
X104300477Y-107175788D01*
X104300478Y-107175789D01*
X104470745Y-107235368D01*
X104650000Y-107255565D01*
X104829255Y-107235368D01*
X104999522Y-107175789D01*
X104999524Y-107175787D01*
X104999526Y-107175787D01*
X105071599Y-107130500D01*
X105152262Y-107079816D01*
X105279816Y-106952262D01*
X105373456Y-106803233D01*
X105404041Y-106781533D01*
X105441014Y-106787814D01*
X105449593Y-106794656D01*
X107081948Y-108427011D01*
X107169351Y-108514414D01*
X107272126Y-108583086D01*
X107319429Y-108602679D01*
X107386325Y-108630389D01*
X107507556Y-108654503D01*
X109444508Y-108654503D01*
X109479156Y-108668855D01*
X109493508Y-108703503D01*
X109492566Y-108713063D01*
X109470000Y-108826505D01*
X109470000Y-109075000D01*
X110170000Y-109075000D01*
X110170000Y-109575000D01*
X109470000Y-109575000D01*
X109470000Y-109823487D01*
X109508429Y-110016689D01*
X109508429Y-110016690D01*
X109583809Y-110198674D01*
X109693246Y-110362460D01*
X109832539Y-110501753D01*
X109996325Y-110611190D01*
X110178310Y-110686570D01*
X110220000Y-110694862D01*
X110220000Y-109891988D01*
X110229940Y-109909205D01*
X110285795Y-109965060D01*
X110354204Y-110004556D01*
X110430504Y-110025000D01*
X110509496Y-110025000D01*
X110585796Y-110004556D01*
X110654205Y-109965060D01*
X110710060Y-109909205D01*
X110720000Y-109891988D01*
X110720000Y-110694862D01*
X110761689Y-110686570D01*
X110761690Y-110686570D01*
X110943674Y-110611190D01*
X111107460Y-110501753D01*
X111195108Y-110414105D01*
X111229756Y-110399753D01*
X111255826Y-110407264D01*
X111273811Y-110418564D01*
X111372310Y-110480456D01*
X111531941Y-110536313D01*
X111700000Y-110555249D01*
X111760718Y-110548407D01*
X111765932Y-110548101D01*
X111787848Y-110547991D01*
X111839463Y-110540302D01*
X111871626Y-110546591D01*
X111961973Y-110600021D01*
X112000605Y-110622868D01*
X112000606Y-110622868D01*
X112000607Y-110622869D01*
X112154796Y-110667665D01*
X112190819Y-110670500D01*
X112589180Y-110670499D01*
X112589185Y-110670498D01*
X112589194Y-110670498D01*
X112609469Y-110668902D01*
X112625204Y-110667665D01*
X112779393Y-110622869D01*
X112875057Y-110566292D01*
X112912185Y-110561008D01*
X112924939Y-110566290D01*
X113020607Y-110622869D01*
X113174796Y-110667665D01*
X113210819Y-110670500D01*
X113609180Y-110670499D01*
X113609185Y-110670498D01*
X113609194Y-110670498D01*
X113629469Y-110668902D01*
X113645204Y-110667665D01*
X113799393Y-110622869D01*
X113937598Y-110541135D01*
X114051135Y-110427598D01*
X114132869Y-110289393D01*
X114177665Y-110135204D01*
X114180500Y-110099181D01*
X114180499Y-109936212D01*
X114194851Y-109901566D01*
X114229499Y-109887214D01*
X114264147Y-109901566D01*
X114546992Y-110184411D01*
X114649767Y-110253083D01*
X114763965Y-110300385D01*
X114885197Y-110324500D01*
X115008803Y-110324500D01*
X116631070Y-110324500D01*
X116638312Y-110325038D01*
X116668544Y-110329556D01*
X116718975Y-110329836D01*
X117185393Y-110332426D01*
X117185394Y-110332426D01*
X117185876Y-110332427D01*
X117188274Y-110332434D01*
X117188300Y-110332434D01*
X117191488Y-110332268D01*
X117199518Y-110332510D01*
X117200000Y-110332565D01*
X117210689Y-110331359D01*
X117213616Y-110331119D01*
X117240637Y-110329717D01*
X117249897Y-110327386D01*
X117256362Y-110326214D01*
X117379255Y-110312368D01*
X117549522Y-110252789D01*
X117549524Y-110252787D01*
X117549526Y-110252787D01*
X117635645Y-110198674D01*
X117702262Y-110156816D01*
X117829816Y-110029262D01*
X117919071Y-109887214D01*
X117925787Y-109876526D01*
X117925787Y-109876524D01*
X117925789Y-109876522D01*
X117985368Y-109706255D01*
X118000606Y-109571013D01*
X118018747Y-109538190D01*
X118049298Y-109527500D01*
X123192738Y-109527500D01*
X123210557Y-109530854D01*
X123509852Y-109647702D01*
X123509867Y-109647707D01*
X123509872Y-109647709D01*
X123555349Y-109663018D01*
X123555350Y-109663018D01*
X123555353Y-109663019D01*
X123566757Y-109664560D01*
X123576369Y-109666867D01*
X123631941Y-109686313D01*
X123800000Y-109705249D01*
X123968059Y-109686313D01*
X124127690Y-109630456D01*
X124270890Y-109540477D01*
X124390477Y-109420890D01*
X124480456Y-109277690D01*
X124536313Y-109118059D01*
X124555249Y-108950000D01*
X124536313Y-108781941D01*
X124480456Y-108622310D01*
X124390477Y-108479110D01*
X124326527Y-108415160D01*
X124312175Y-108380512D01*
X124326527Y-108345864D01*
X124351615Y-108332453D01*
X124362011Y-108330386D01*
X124471088Y-108285204D01*
X124476209Y-108283083D01*
X124578984Y-108214411D01*
X124666387Y-108127008D01*
X125064753Y-107728641D01*
X125099399Y-107714290D01*
X125134047Y-107728642D01*
X125148399Y-107763273D01*
X125149499Y-110947237D01*
X125149191Y-110952741D01*
X125137593Y-111055666D01*
X125135151Y-111066362D01*
X125101858Y-111161512D01*
X125097097Y-111171399D01*
X125043461Y-111256759D01*
X125036620Y-111265337D01*
X124965337Y-111336620D01*
X124956759Y-111343461D01*
X124871399Y-111397097D01*
X124861512Y-111401858D01*
X124766362Y-111435151D01*
X124755666Y-111437593D01*
X124659877Y-111448386D01*
X124652732Y-111449192D01*
X124647247Y-111449500D01*
X101652753Y-111449500D01*
X101647267Y-111449192D01*
X101639061Y-111448267D01*
X101544333Y-111437593D01*
X101533637Y-111435151D01*
X101469221Y-111412612D01*
X101438484Y-111401856D01*
X101428603Y-111397098D01*
X101343240Y-111343461D01*
X101334662Y-111336620D01*
X101263379Y-111265337D01*
X101256538Y-111256759D01*
X101202899Y-111171393D01*
X101198144Y-111161519D01*
X101164847Y-111066361D01*
X101162406Y-111055665D01*
X101150808Y-110952733D01*
X101150500Y-110947247D01*
X101150500Y-110565335D01*
X101164852Y-110530687D01*
X101199500Y-110516335D01*
X101226723Y-110524593D01*
X101356325Y-110611190D01*
X101538310Y-110686570D01*
X101580000Y-110694862D01*
X101580000Y-109891988D01*
X101589940Y-109909205D01*
X101645795Y-109965060D01*
X101714204Y-110004556D01*
X101790504Y-110025000D01*
X101869496Y-110025000D01*
X101945796Y-110004556D01*
X102014205Y-109965060D01*
X102070060Y-109909205D01*
X102080000Y-109891988D01*
X102080000Y-110694862D01*
X102121689Y-110686570D01*
X102121690Y-110686570D01*
X102303674Y-110611190D01*
X102467460Y-110501753D01*
X102606753Y-110362460D01*
X102716190Y-110198674D01*
X102791570Y-110016690D01*
X102791570Y-110016689D01*
X102830000Y-109823487D01*
X102830000Y-109575000D01*
X102130000Y-109575000D01*
X102130000Y-109075000D01*
X102830000Y-109075000D01*
X102830000Y-108826512D01*
X102791570Y-108633310D01*
X102791570Y-108633309D01*
X102716190Y-108451325D01*
X102606753Y-108287539D01*
X102467460Y-108148246D01*
X102303674Y-108038809D01*
X102121691Y-107963429D01*
X102121682Y-107963426D01*
X102080000Y-107955135D01*
X102080000Y-108758011D01*
X102070060Y-108740795D01*
X102014205Y-108684940D01*
X101945796Y-108645444D01*
X101869496Y-108625000D01*
X101790504Y-108625000D01*
X101714204Y-108645444D01*
X101645795Y-108684940D01*
X101589940Y-108740795D01*
X101580000Y-108758011D01*
X101580000Y-107955135D01*
X101579999Y-107955135D01*
X101538317Y-107963426D01*
X101538308Y-107963429D01*
X101356325Y-108038809D01*
X101226723Y-108125406D01*
X101189940Y-108132722D01*
X101158758Y-108111887D01*
X101150500Y-108084664D01*
X101150500Y-106535335D01*
X101164852Y-106500687D01*
X101199500Y-106486335D01*
X101226723Y-106494593D01*
X101356325Y-106581190D01*
X101538310Y-106656570D01*
X101580000Y-106664862D01*
X101580000Y-105861988D01*
X101589940Y-105879205D01*
X101645795Y-105935060D01*
X101714204Y-105974556D01*
X101790504Y-105995000D01*
X101869496Y-105995000D01*
X101945796Y-105974556D01*
X102014205Y-105935060D01*
X102070060Y-105879205D01*
X102080000Y-105861988D01*
X102080000Y-106664862D01*
G37*
G04 #@! TD.AperFunction*
G04 #@! TA.AperFunction,Conductor*
G36*
X116464386Y-106411338D02*
G01*
X116499000Y-106425676D01*
X116565896Y-106453386D01*
X116687127Y-106477500D01*
X116687132Y-106477500D01*
X116687499Y-106477573D01*
X116718682Y-106498409D01*
X116725999Y-106535191D01*
X116725070Y-106539039D01*
X116708603Y-106596917D01*
X116708603Y-106596919D01*
X116708602Y-106596925D01*
X116689785Y-106800000D01*
X116706131Y-106976422D01*
X116695037Y-107012247D01*
X116691988Y-107015591D01*
X116499433Y-107208148D01*
X116464785Y-107222500D01*
X115990426Y-107222500D01*
X115976755Y-107220554D01*
X115845203Y-107182334D01*
X115809183Y-107179500D01*
X115449000Y-107179500D01*
X115414352Y-107165148D01*
X115400000Y-107130500D01*
X115400000Y-106849500D01*
X115414352Y-106814852D01*
X115449000Y-106800500D01*
X115884679Y-106800500D01*
X115884690Y-106800500D01*
X115920993Y-106797643D01*
X116076395Y-106752494D01*
X116102892Y-106736823D01*
X116127835Y-106730000D01*
X116454505Y-106730000D01*
X116454505Y-106729999D01*
X116412032Y-106583804D01*
X116377510Y-106525434D01*
X116372225Y-106488305D01*
X116377506Y-106475556D01*
X116403463Y-106431665D01*
X116433452Y-106409149D01*
X116464386Y-106411338D01*
G37*
G04 #@! TD.AperFunction*
G04 #@! TA.AperFunction,Conductor*
G36*
X114838849Y-106661852D02*
G01*
X114853201Y-106696500D01*
X114851256Y-106710170D01*
X114842854Y-106739090D01*
X114840000Y-106775360D01*
X114840000Y-106919212D01*
X114825648Y-106953860D01*
X114791000Y-106968212D01*
X114756352Y-106953860D01*
X114749511Y-106945282D01*
X114702164Y-106869932D01*
X114702163Y-106869930D01*
X114582576Y-106750343D01*
X114562915Y-106737989D01*
X114541213Y-106707403D01*
X114547496Y-106670430D01*
X114578082Y-106648728D01*
X114588985Y-106647500D01*
X114804201Y-106647500D01*
X114838849Y-106661852D01*
G37*
G04 #@! TD.AperFunction*
G04 #@! TA.AperFunction,Conductor*
G36*
X112729837Y-105843088D02*
G01*
X112820117Y-105876761D01*
X112820120Y-105876762D01*
X112863777Y-105881455D01*
X112879727Y-105883170D01*
X113225472Y-105883169D01*
X113225478Y-105883169D01*
X113285077Y-105876762D01*
X113285078Y-105876761D01*
X113285083Y-105876761D01*
X113285463Y-105876618D01*
X113285684Y-105876618D01*
X113288067Y-105876056D01*
X113288199Y-105876618D01*
X113317007Y-105876616D01*
X113317140Y-105876057D01*
X113319504Y-105876616D01*
X113319728Y-105876616D01*
X113320117Y-105876761D01*
X113320121Y-105876761D01*
X113320123Y-105876762D01*
X113320122Y-105876762D01*
X113358948Y-105880935D01*
X113379727Y-105883170D01*
X113459190Y-105883169D01*
X113493839Y-105897520D01*
X113499933Y-105904946D01*
X113508938Y-105918423D01*
X113541742Y-105967517D01*
X113550000Y-105994739D01*
X113550000Y-106290500D01*
X113535648Y-106325148D01*
X113501000Y-106339500D01*
X113050820Y-106339500D01*
X113050815Y-106339501D01*
X113047892Y-106339731D01*
X113046393Y-106339849D01*
X113042552Y-106340000D01*
X112557459Y-106340000D01*
X112553618Y-106339849D01*
X112549188Y-106339500D01*
X112549181Y-106339500D01*
X112176500Y-106339500D01*
X112141852Y-106325148D01*
X112127500Y-106290500D01*
X112127500Y-105889000D01*
X112141852Y-105854352D01*
X112176500Y-105840000D01*
X112712714Y-105840000D01*
X112729837Y-105843088D01*
G37*
G04 #@! TD.AperFunction*
G04 #@! TA.AperFunction,Conductor*
G36*
X104773119Y-96470339D02*
G01*
X105025148Y-96722368D01*
X105039500Y-96757016D01*
X105039500Y-96834692D01*
X105042356Y-96870991D01*
X105042356Y-96870993D01*
X105087507Y-97026398D01*
X105169879Y-97165682D01*
X105169883Y-97165687D01*
X105258148Y-97253952D01*
X105272500Y-97288600D01*
X105272500Y-97903783D01*
X105258148Y-97938431D01*
X104304588Y-98891990D01*
X104235915Y-98994768D01*
X104225688Y-99019460D01*
X104225688Y-99019461D01*
X104188615Y-99108959D01*
X104188613Y-99108965D01*
X104180612Y-99149192D01*
X104166031Y-99222500D01*
X104164500Y-99230195D01*
X104164500Y-100736197D01*
X104164500Y-100859803D01*
X104177994Y-100927643D01*
X104188613Y-100981032D01*
X104188615Y-100981038D01*
X104222062Y-101061784D01*
X104235916Y-101095231D01*
X104295598Y-101184551D01*
X104295600Y-101184554D01*
X104304589Y-101198009D01*
X104304590Y-101198010D01*
X104607843Y-101501262D01*
X104622195Y-101535910D01*
X104621959Y-101540712D01*
X104613659Y-101624998D01*
X104613659Y-101625000D01*
X104632976Y-101821132D01*
X104632976Y-101821133D01*
X104690185Y-102009726D01*
X104720097Y-102065687D01*
X104781261Y-102180117D01*
X104783092Y-102183541D01*
X104783094Y-102183544D01*
X104812484Y-102219355D01*
X104860133Y-102277415D01*
X104871020Y-102313302D01*
X104853342Y-102346377D01*
X104822256Y-102357500D01*
X104698194Y-102357500D01*
X104576973Y-102381613D01*
X104576964Y-102381615D01*
X104462771Y-102428915D01*
X104382770Y-102482370D01*
X104359993Y-102497588D01*
X103349992Y-103507589D01*
X103349989Y-103507593D01*
X103344781Y-103512800D01*
X103310131Y-103527148D01*
X103296465Y-103525202D01*
X103202500Y-103497901D01*
X103202489Y-103497899D01*
X103200000Y-103497703D01*
X103200000Y-103604758D01*
X103185648Y-103639406D01*
X103081921Y-103743132D01*
X103081917Y-103743137D01*
X102998256Y-103884600D01*
X102952401Y-104042430D01*
X102952401Y-104042432D01*
X102949500Y-104079303D01*
X102949500Y-104771000D01*
X102935148Y-104805648D01*
X102900500Y-104820000D01*
X102156000Y-104820000D01*
X102130000Y-104809230D01*
X102130000Y-104555504D01*
X102109556Y-104479204D01*
X102107000Y-104474776D01*
X102107000Y-104369000D01*
X102121352Y-104334352D01*
X102156000Y-104320000D01*
X102700000Y-104320000D01*
X102700000Y-103497703D01*
X102697510Y-103497899D01*
X102697499Y-103497901D01*
X102539798Y-103543719D01*
X102398446Y-103627315D01*
X102398445Y-103627316D01*
X102336213Y-103689547D01*
X102301564Y-103703898D01*
X102282814Y-103700168D01*
X102121691Y-103633429D01*
X102121682Y-103633426D01*
X102080000Y-103625135D01*
X102080000Y-104428011D01*
X102070060Y-104410795D01*
X102014205Y-104354940D01*
X101945796Y-104315444D01*
X101869496Y-104295000D01*
X101790504Y-104295000D01*
X101714204Y-104315444D01*
X101645795Y-104354940D01*
X101589940Y-104410795D01*
X101580000Y-104428011D01*
X101580000Y-103625135D01*
X101579999Y-103625135D01*
X101538317Y-103633426D01*
X101538308Y-103633429D01*
X101356325Y-103708809D01*
X101226723Y-103795406D01*
X101189940Y-103802722D01*
X101158758Y-103781887D01*
X101150500Y-103754664D01*
X101150500Y-97027605D01*
X101164852Y-96992957D01*
X101199500Y-96978605D01*
X101234148Y-96992957D01*
X101244770Y-97008854D01*
X101281715Y-97098047D01*
X101399725Y-97302447D01*
X101399735Y-97302462D01*
X101543403Y-97489693D01*
X101543413Y-97489705D01*
X101710294Y-97656586D01*
X101710306Y-97656596D01*
X101897537Y-97800264D01*
X101897546Y-97800270D01*
X101897550Y-97800273D01*
X101918882Y-97812589D01*
X102076834Y-97903783D01*
X102101951Y-97918284D01*
X102320007Y-98008606D01*
X102320010Y-98008606D01*
X102320013Y-98008608D01*
X102547974Y-98069690D01*
X102547975Y-98069690D01*
X102547986Y-98069693D01*
X102781989Y-98100500D01*
X102781993Y-98100500D01*
X103018007Y-98100500D01*
X103018011Y-98100500D01*
X103252014Y-98069693D01*
X103479993Y-98008606D01*
X103698049Y-97918284D01*
X103902450Y-97800273D01*
X104089699Y-97656592D01*
X104256592Y-97489699D01*
X104400273Y-97302450D01*
X104518284Y-97098049D01*
X104608606Y-96879993D01*
X104620581Y-96835304D01*
X104669690Y-96652025D01*
X104669689Y-96652025D01*
X104669693Y-96652014D01*
X104689891Y-96498587D01*
X104708641Y-96466113D01*
X104744867Y-96456406D01*
X104773119Y-96470339D01*
G37*
G04 #@! TD.AperFunction*
G04 #@! TA.AperFunction,Conductor*
G36*
X109593176Y-103512504D02*
G01*
X109600000Y-103537448D01*
X109600000Y-104771000D01*
X109585648Y-104805648D01*
X109551000Y-104820000D01*
X109399500Y-104820000D01*
X109364852Y-104805648D01*
X109350500Y-104771000D01*
X109350500Y-104079317D01*
X109350500Y-104079306D01*
X109347598Y-104042431D01*
X109346653Y-104039180D01*
X109323105Y-103958125D01*
X109301744Y-103884602D01*
X109218081Y-103743135D01*
X109191852Y-103716906D01*
X109177500Y-103682258D01*
X109177500Y-103619499D01*
X109191852Y-103584851D01*
X109226500Y-103570499D01*
X109289179Y-103570499D01*
X109289180Y-103570499D01*
X109289185Y-103570498D01*
X109289194Y-103570498D01*
X109309469Y-103568902D01*
X109325204Y-103567665D01*
X109479393Y-103522869D01*
X109526057Y-103495271D01*
X109563185Y-103489987D01*
X109593176Y-103512504D01*
G37*
G04 #@! TD.AperFunction*
G04 #@! TA.AperFunction,Conductor*
G36*
X122507439Y-102240490D02*
G01*
X122560603Y-102271931D01*
X122717825Y-102317609D01*
X122754560Y-102320500D01*
X122754571Y-102320500D01*
X122808977Y-102320500D01*
X122843625Y-102334852D01*
X122857977Y-102369500D01*
X122843625Y-102404148D01*
X122838342Y-102408726D01*
X122792811Y-102442811D01*
X122706648Y-102557908D01*
X122656401Y-102692626D01*
X122656401Y-102692627D01*
X122650000Y-102752165D01*
X122650000Y-103400000D01*
X123801000Y-103400000D01*
X123835648Y-103414352D01*
X123850000Y-103449000D01*
X123850000Y-103851000D01*
X123835648Y-103885648D01*
X123801000Y-103900000D01*
X122650000Y-103900000D01*
X122650000Y-104351500D01*
X122635648Y-104386148D01*
X122601000Y-104400500D01*
X121199500Y-104400500D01*
X121164852Y-104386148D01*
X121150500Y-104351500D01*
X121150500Y-103585927D01*
X121249500Y-103585927D01*
X121249500Y-103714072D01*
X121274497Y-103839737D01*
X121274498Y-103839742D01*
X121274499Y-103839744D01*
X121323535Y-103958127D01*
X121394724Y-104064669D01*
X121485331Y-104155276D01*
X121591873Y-104226465D01*
X121710256Y-104275501D01*
X121835931Y-104300500D01*
X121964069Y-104300500D01*
X122089744Y-104275501D01*
X122208127Y-104226465D01*
X122314669Y-104155276D01*
X122405276Y-104064669D01*
X122476465Y-103958127D01*
X122525501Y-103839744D01*
X122550500Y-103714069D01*
X122550500Y-103585931D01*
X122525501Y-103460256D01*
X122476465Y-103341873D01*
X122405276Y-103235331D01*
X122314669Y-103144724D01*
X122208127Y-103073535D01*
X122198495Y-103069545D01*
X122089742Y-103024498D01*
X122089737Y-103024497D01*
X121964072Y-102999500D01*
X121964069Y-102999500D01*
X121835931Y-102999500D01*
X121835927Y-102999500D01*
X121710262Y-103024497D01*
X121710257Y-103024498D01*
X121591874Y-103073534D01*
X121485331Y-103144723D01*
X121394723Y-103235331D01*
X121323534Y-103341874D01*
X121274498Y-103460257D01*
X121274497Y-103460262D01*
X121249500Y-103585927D01*
X121150500Y-103585927D01*
X121150499Y-102752120D01*
X121144092Y-102692521D01*
X121143897Y-102691998D01*
X121093796Y-102557669D01*
X121007546Y-102442454D01*
X120949133Y-102398726D01*
X120929997Y-102366473D01*
X120939272Y-102330135D01*
X120971525Y-102310999D01*
X120978498Y-102310500D01*
X121302179Y-102310500D01*
X121302190Y-102310500D01*
X121338493Y-102307643D01*
X121493895Y-102262494D01*
X121509326Y-102253367D01*
X121546453Y-102248082D01*
X121559212Y-102253366D01*
X121590603Y-102271931D01*
X121747825Y-102317609D01*
X121784560Y-102320500D01*
X121784571Y-102320500D01*
X122210429Y-102320500D01*
X122210440Y-102320500D01*
X122247175Y-102317609D01*
X122404397Y-102271931D01*
X122457557Y-102240491D01*
X122494685Y-102235207D01*
X122507439Y-102240490D01*
G37*
G04 #@! TD.AperFunction*
G04 #@! TA.AperFunction,Conductor*
G36*
X114788144Y-102523552D02*
G01*
X114817069Y-102523548D01*
X114817138Y-102523257D01*
X114818369Y-102523548D01*
X114819010Y-102523548D01*
X114820117Y-102523961D01*
X114820118Y-102523961D01*
X114820121Y-102523962D01*
X114861680Y-102528429D01*
X114879727Y-102530370D01*
X115225472Y-102530369D01*
X115225478Y-102530369D01*
X115285077Y-102523962D01*
X115285078Y-102523961D01*
X115285083Y-102523961D01*
X115285463Y-102523818D01*
X115285684Y-102523818D01*
X115288067Y-102523256D01*
X115288199Y-102523818D01*
X115317007Y-102523816D01*
X115317140Y-102523257D01*
X115319504Y-102523816D01*
X115319728Y-102523816D01*
X115320117Y-102523961D01*
X115320121Y-102523961D01*
X115320123Y-102523962D01*
X115320122Y-102523962D01*
X115358948Y-102528135D01*
X115379727Y-102530370D01*
X115725472Y-102530369D01*
X115725478Y-102530369D01*
X115785077Y-102523962D01*
X115785078Y-102523961D01*
X115785083Y-102523961D01*
X115785463Y-102523818D01*
X115785684Y-102523818D01*
X115788067Y-102523256D01*
X115788199Y-102523818D01*
X115817007Y-102523816D01*
X115817140Y-102523257D01*
X115819504Y-102523816D01*
X115819728Y-102523816D01*
X115820117Y-102523961D01*
X115820121Y-102523961D01*
X115820123Y-102523962D01*
X115820122Y-102523962D01*
X115858948Y-102528135D01*
X115879727Y-102530370D01*
X116225472Y-102530369D01*
X116226457Y-102530263D01*
X116226612Y-102530308D01*
X116226791Y-102530299D01*
X116226794Y-102530362D01*
X116262442Y-102540825D01*
X116280419Y-102573739D01*
X116280700Y-102578981D01*
X116280700Y-102672879D01*
X116287107Y-102732478D01*
X116287109Y-102732483D01*
X116288095Y-102735126D01*
X116288095Y-102767663D01*
X116288306Y-102767713D01*
X116288095Y-102768601D01*
X116288096Y-102769370D01*
X116287601Y-102770697D01*
X116283204Y-102811591D01*
X116265231Y-102844507D01*
X116250669Y-102852603D01*
X116116322Y-102899614D01*
X116116320Y-102899615D01*
X115973124Y-102989591D01*
X115973120Y-102989594D01*
X115936848Y-103025865D01*
X115902200Y-103040216D01*
X115886018Y-103037466D01*
X115818065Y-103013689D01*
X115818064Y-103013688D01*
X115818059Y-103013687D01*
X115818055Y-103013686D01*
X115818053Y-103013686D01*
X115650000Y-102994751D01*
X115481946Y-103013686D01*
X115481937Y-103013688D01*
X115322310Y-103069544D01*
X115322308Y-103069545D01*
X115179112Y-103159521D01*
X115179108Y-103159524D01*
X115094239Y-103244394D01*
X115059591Y-103258746D01*
X115024943Y-103244394D01*
X114394067Y-102613518D01*
X114379715Y-102578870D01*
X114394067Y-102544222D01*
X114428715Y-102529870D01*
X114725435Y-102529870D01*
X114784976Y-102523468D01*
X114787958Y-102522764D01*
X114788144Y-102523552D01*
G37*
G04 #@! TD.AperFunction*
G04 #@! TA.AperFunction,Conductor*
G36*
X124407935Y-102216002D02*
G01*
X124503304Y-102272404D01*
X124507935Y-102273750D01*
X124537205Y-102297197D01*
X124541322Y-102334473D01*
X124517875Y-102363743D01*
X124510453Y-102367054D01*
X124496939Y-102371783D01*
X124425055Y-102416951D01*
X124388082Y-102423232D01*
X124369621Y-102414687D01*
X124292090Y-102356647D01*
X124282832Y-102353194D01*
X124255385Y-102327638D01*
X124254048Y-102290158D01*
X124275013Y-102265109D01*
X124358050Y-102216001D01*
X124395177Y-102210717D01*
X124407935Y-102216002D01*
G37*
G04 #@! TD.AperFunction*
G04 #@! TA.AperFunction,Conductor*
G36*
X107017432Y-100944852D02*
G01*
X107035648Y-100963068D01*
X107050000Y-100997716D01*
X107050000Y-102150500D01*
X107035648Y-102185148D01*
X107001000Y-102199500D01*
X106599000Y-102199500D01*
X106564352Y-102185148D01*
X106550000Y-102150500D01*
X106550000Y-102009788D01*
X106552110Y-101995564D01*
X106555738Y-101983605D01*
X106605024Y-101821132D01*
X106624341Y-101625000D01*
X106605024Y-101428868D01*
X106555409Y-101265310D01*
X106552110Y-101254434D01*
X106550000Y-101240210D01*
X106550000Y-100979500D01*
X106564352Y-100944852D01*
X106599000Y-100930500D01*
X106982784Y-100930500D01*
X107017432Y-100944852D01*
G37*
G04 #@! TD.AperFunction*
G04 #@! TA.AperFunction,Conductor*
G36*
X119838648Y-101184352D02*
G01*
X119853000Y-101219000D01*
X119853000Y-101250000D01*
X120268000Y-101250000D01*
X120302648Y-101264352D01*
X120317000Y-101299000D01*
X120317000Y-101701000D01*
X120302648Y-101735648D01*
X120268000Y-101750000D01*
X119606100Y-101750000D01*
X119571452Y-101735648D01*
X119565687Y-101729883D01*
X119565682Y-101729879D01*
X119426398Y-101647507D01*
X119270992Y-101602356D01*
X119234692Y-101599500D01*
X119234690Y-101599500D01*
X118926500Y-101599500D01*
X118891852Y-101585148D01*
X118877500Y-101550500D01*
X118877500Y-101219000D01*
X118891852Y-101184352D01*
X118926500Y-101170000D01*
X119804000Y-101170000D01*
X119838648Y-101184352D01*
G37*
G04 #@! TD.AperFunction*
G04 #@! TA.AperFunction,Conductor*
G36*
X112885648Y-99064851D02*
G01*
X112900000Y-99099499D01*
X112900000Y-100100500D01*
X112885648Y-100135148D01*
X112851000Y-100149500D01*
X112449000Y-100149500D01*
X112414352Y-100135148D01*
X112400000Y-100100500D01*
X112400000Y-99256000D01*
X112414352Y-99221352D01*
X112449000Y-99207000D01*
X112500000Y-99207000D01*
X112500000Y-99099499D01*
X112514352Y-99064851D01*
X112548998Y-99050499D01*
X112851000Y-99050499D01*
X112885648Y-99064851D01*
G37*
G04 #@! TD.AperFunction*
G04 #@! TA.AperFunction,Conductor*
G36*
X108576018Y-89852640D02*
G01*
X108610659Y-89867001D01*
X108625000Y-89901639D01*
X108625000Y-90010000D01*
X110247000Y-90010000D01*
X110247000Y-89902172D01*
X110261352Y-89867524D01*
X110295999Y-89853172D01*
X111904017Y-89853669D01*
X111938659Y-89868030D01*
X111953000Y-89902668D01*
X111953000Y-89950000D01*
X113494000Y-89950000D01*
X113528648Y-89964352D01*
X113543000Y-89999000D01*
X113543000Y-90050000D01*
X123657000Y-90050000D01*
X123657000Y-89999000D01*
X123671352Y-89964352D01*
X123706000Y-89950000D01*
X124751000Y-89950000D01*
X124785648Y-89964352D01*
X124800000Y-89999000D01*
X124800000Y-90400500D01*
X124785648Y-90435148D01*
X124751000Y-90449500D01*
X124052129Y-90449500D01*
X124050758Y-90449648D01*
X124050096Y-90449719D01*
X124044860Y-90450000D01*
X122000000Y-90450000D01*
X122000000Y-91150000D01*
X122047835Y-91150000D01*
X122107376Y-91143598D01*
X122182876Y-91115438D01*
X122217124Y-91115438D01*
X122292623Y-91143598D01*
X122352165Y-91150000D01*
X122520862Y-91150000D01*
X122555510Y-91164352D01*
X122569862Y-91199000D01*
X122560292Y-91226343D01*
X122560987Y-91226780D01*
X122485645Y-91346683D01*
X122482368Y-91351286D01*
X122478687Y-91355871D01*
X122478680Y-91355881D01*
X122424602Y-91447399D01*
X122296918Y-91663478D01*
X122289381Y-91673198D01*
X122206769Y-91755810D01*
X122172121Y-91770162D01*
X122137473Y-91755810D01*
X122131379Y-91748385D01*
X122114413Y-91722994D01*
X121605357Y-91213938D01*
X121591005Y-91179290D01*
X121600000Y-91157574D01*
X121600000Y-90450000D01*
X119600000Y-90450000D01*
X119600000Y-91018337D01*
X119585648Y-91052985D01*
X119509524Y-91129108D01*
X119509521Y-91129112D01*
X119419545Y-91272308D01*
X119419544Y-91272310D01*
X119363688Y-91431937D01*
X119363686Y-91431946D01*
X119344751Y-91600000D01*
X119357848Y-91716242D01*
X119363687Y-91768059D01*
X119419544Y-91927690D01*
X119465294Y-92000500D01*
X119500108Y-92055907D01*
X119509523Y-92070890D01*
X119629110Y-92190477D01*
X119772310Y-92280456D01*
X119931941Y-92336313D01*
X120100000Y-92355249D01*
X120268059Y-92336313D01*
X120310031Y-92321625D01*
X120320887Y-92319167D01*
X120331360Y-92318023D01*
X120677393Y-92229043D01*
X120689596Y-92227500D01*
X120823785Y-92227500D01*
X120858433Y-92241852D01*
X120985148Y-92368567D01*
X120999500Y-92403215D01*
X120999500Y-97623500D01*
X120985148Y-97658148D01*
X120950500Y-97672500D01*
X116952411Y-97672500D01*
X116831190Y-97696613D01*
X116831181Y-97696615D01*
X116716988Y-97743915D01*
X116644344Y-97792454D01*
X116644343Y-97792454D01*
X116614216Y-97812583D01*
X116614211Y-97812587D01*
X116173199Y-98253598D01*
X116163479Y-98261135D01*
X115855873Y-98442903D01*
X115840863Y-98452129D01*
X115840855Y-98452135D01*
X115837692Y-98454861D01*
X115831779Y-98459228D01*
X115729108Y-98523741D01*
X115729106Y-98523743D01*
X115609524Y-98643326D01*
X115609521Y-98643330D01*
X115519545Y-98786526D01*
X115519544Y-98786528D01*
X115463688Y-98946155D01*
X115463686Y-98946164D01*
X115454096Y-99031276D01*
X115435955Y-99064099D01*
X115399917Y-99074481D01*
X115367094Y-99056340D01*
X115356712Y-99031276D01*
X115340340Y-98885968D01*
X115284483Y-98726337D01*
X115194504Y-98583137D01*
X115074917Y-98463550D01*
X115056745Y-98452132D01*
X115041083Y-98442290D01*
X114931717Y-98373571D01*
X114772086Y-98317714D01*
X114772082Y-98317713D01*
X114772080Y-98317713D01*
X114604027Y-98298778D01*
X114435973Y-98317713D01*
X114435964Y-98317715D01*
X114276337Y-98373571D01*
X114276335Y-98373572D01*
X114133139Y-98463548D01*
X114133135Y-98463551D01*
X114013551Y-98583135D01*
X114013548Y-98583139D01*
X113923572Y-98726335D01*
X113923571Y-98726337D01*
X113867715Y-98885964D01*
X113867713Y-98885973D01*
X113848778Y-99054027D01*
X113853396Y-99095014D01*
X113843014Y-99131051D01*
X113810190Y-99149192D01*
X113804704Y-99149500D01*
X113649000Y-99149500D01*
X113614352Y-99135148D01*
X113600000Y-99100500D01*
X113600000Y-98902165D01*
X113593598Y-98842623D01*
X113565704Y-98767838D01*
X113565704Y-98733592D01*
X113594091Y-98657483D01*
X113600500Y-98597873D01*
X113600499Y-98341318D01*
X113614851Y-98306671D01*
X113649499Y-98292319D01*
X113654976Y-98292626D01*
X113766999Y-98305249D01*
X113935058Y-98286313D01*
X114094689Y-98230456D01*
X114237889Y-98140477D01*
X114357476Y-98020890D01*
X114447455Y-97877690D01*
X114503312Y-97718059D01*
X114522248Y-97550000D01*
X114503312Y-97381941D01*
X114447455Y-97222310D01*
X114434900Y-97202329D01*
X114428618Y-97165356D01*
X114434898Y-97150192D01*
X114480456Y-97077690D01*
X114536313Y-96918059D01*
X114537479Y-96907706D01*
X114555618Y-96874883D01*
X114591655Y-96864499D01*
X114602350Y-96866939D01*
X114720745Y-96908368D01*
X114900000Y-96928565D01*
X115079255Y-96908368D01*
X115249522Y-96848789D01*
X115249524Y-96848787D01*
X115249526Y-96848787D01*
X115305596Y-96813555D01*
X115402262Y-96752816D01*
X115529816Y-96625262D01*
X115590555Y-96528596D01*
X115625787Y-96472526D01*
X115625787Y-96472524D01*
X115625789Y-96472522D01*
X115685368Y-96302255D01*
X115705565Y-96123000D01*
X115685368Y-95943745D01*
X115662400Y-95878107D01*
X115660256Y-95869603D01*
X115656923Y-95848590D01*
X115656920Y-95848577D01*
X115529691Y-95437485D01*
X115527500Y-95422998D01*
X115527500Y-93638197D01*
X115527499Y-93638193D01*
X115517342Y-93587131D01*
X115503385Y-93516965D01*
X115456083Y-93402767D01*
X115387411Y-93299992D01*
X115300008Y-93212589D01*
X114574215Y-92486796D01*
X114563594Y-92470901D01*
X114556083Y-92452767D01*
X114487411Y-92349992D01*
X114400008Y-92262589D01*
X114297233Y-92193917D01*
X114297230Y-92193915D01*
X114297229Y-92193915D01*
X114183036Y-92146615D01*
X114183027Y-92146613D01*
X114061806Y-92122500D01*
X114061803Y-92122500D01*
X113380409Y-92122500D01*
X113351045Y-92112727D01*
X113342331Y-92106204D01*
X113285244Y-92084912D01*
X113207479Y-92055907D01*
X113147879Y-92049500D01*
X112549000Y-92049500D01*
X112514352Y-92035148D01*
X112500000Y-92000500D01*
X112500000Y-91750000D01*
X112900000Y-91750000D01*
X113600000Y-91750000D01*
X113600000Y-91702165D01*
X113593598Y-91642623D01*
X113565438Y-91567124D01*
X113565438Y-91532876D01*
X113593598Y-91457376D01*
X113600000Y-91397834D01*
X113600000Y-91350000D01*
X112900000Y-91350000D01*
X112900000Y-91750000D01*
X112500000Y-91750000D01*
X112500000Y-91150000D01*
X114000000Y-91150000D01*
X114047835Y-91150000D01*
X114107376Y-91143598D01*
X114182876Y-91115438D01*
X114217124Y-91115438D01*
X114292623Y-91143598D01*
X114352165Y-91150000D01*
X114400000Y-91150000D01*
X114800000Y-91150000D01*
X114847835Y-91150000D01*
X114907376Y-91143598D01*
X114982876Y-91115438D01*
X115017124Y-91115438D01*
X115092623Y-91143598D01*
X115152165Y-91150000D01*
X115200000Y-91150000D01*
X115600000Y-91150000D01*
X115647835Y-91150000D01*
X115707376Y-91143598D01*
X115782876Y-91115438D01*
X115817124Y-91115438D01*
X115892623Y-91143598D01*
X115952165Y-91150000D01*
X116000000Y-91150000D01*
X116400000Y-91150000D01*
X116447835Y-91150000D01*
X116507376Y-91143598D01*
X116582876Y-91115438D01*
X116617124Y-91115438D01*
X116692623Y-91143598D01*
X116752165Y-91150000D01*
X116800000Y-91150000D01*
X117200000Y-91150000D01*
X117247835Y-91150000D01*
X117307376Y-91143598D01*
X117382876Y-91115438D01*
X117417124Y-91115438D01*
X117492623Y-91143598D01*
X117552165Y-91150000D01*
X117600000Y-91150000D01*
X118000000Y-91150000D01*
X118047835Y-91150000D01*
X118107376Y-91143598D01*
X118182876Y-91115438D01*
X118217124Y-91115438D01*
X118292623Y-91143598D01*
X118352165Y-91150000D01*
X118400000Y-91150000D01*
X118800000Y-91150000D01*
X118847835Y-91150000D01*
X118907376Y-91143598D01*
X118982876Y-91115438D01*
X119017124Y-91115438D01*
X119092623Y-91143598D01*
X119152165Y-91150000D01*
X119200000Y-91150000D01*
X119200000Y-90450000D01*
X118800000Y-90450000D01*
X118800000Y-91150000D01*
X118400000Y-91150000D01*
X118400000Y-90450000D01*
X118000000Y-90450000D01*
X118000000Y-91150000D01*
X117600000Y-91150000D01*
X117600000Y-90450000D01*
X117200000Y-90450000D01*
X117200000Y-91150000D01*
X116800000Y-91150000D01*
X116800000Y-90450000D01*
X116400000Y-90450000D01*
X116400000Y-91150000D01*
X116000000Y-91150000D01*
X116000000Y-90450000D01*
X115600000Y-90450000D01*
X115600000Y-91150000D01*
X115200000Y-91150000D01*
X115200000Y-90450000D01*
X114800000Y-90450000D01*
X114800000Y-91150000D01*
X114400000Y-91150000D01*
X114400000Y-90450000D01*
X114000000Y-90450000D01*
X114000000Y-91150000D01*
X112500000Y-91150000D01*
X112500000Y-91093000D01*
X112449000Y-91093000D01*
X112414352Y-91078648D01*
X112400000Y-91044000D01*
X112400000Y-90950000D01*
X112900000Y-90950000D01*
X113600000Y-90950000D01*
X113600000Y-90450000D01*
X112900000Y-90450000D01*
X112900000Y-90950000D01*
X112400000Y-90950000D01*
X112400000Y-90450000D01*
X111806000Y-90450000D01*
X111771352Y-90435648D01*
X111757000Y-90401000D01*
X111757000Y-90320000D01*
X111577835Y-90320000D01*
X111552892Y-90313176D01*
X111543578Y-90307668D01*
X111526396Y-90297506D01*
X111370992Y-90252356D01*
X111334692Y-90249500D01*
X111334690Y-90249500D01*
X110865310Y-90249500D01*
X110865307Y-90249500D01*
X110829008Y-90252356D01*
X110829006Y-90252356D01*
X110673601Y-90297507D01*
X110534317Y-90379879D01*
X110534312Y-90379883D01*
X110418548Y-90495648D01*
X110383900Y-90510000D01*
X109875000Y-90510000D01*
X109875000Y-91160000D01*
X110172834Y-91160000D01*
X110235262Y-91153288D01*
X110271246Y-91163853D01*
X110289219Y-91196769D01*
X110289500Y-91202007D01*
X110289500Y-91234702D01*
X110290259Y-91244348D01*
X110278666Y-91280014D01*
X110245249Y-91297036D01*
X110235470Y-91296283D01*
X110235423Y-91296729D01*
X110172834Y-91290000D01*
X109875000Y-91290000D01*
X109875000Y-92391000D01*
X109860648Y-92425648D01*
X109826000Y-92440000D01*
X109424000Y-92440000D01*
X109389352Y-92425648D01*
X109375000Y-92391000D01*
X109375000Y-91290000D01*
X109077166Y-91290000D01*
X109017627Y-91296401D01*
X109017626Y-91296401D01*
X108882908Y-91346648D01*
X108767811Y-91432811D01*
X108681648Y-91547908D01*
X108631401Y-91682624D01*
X108630699Y-91685601D01*
X108629150Y-91685235D01*
X108613630Y-91713655D01*
X108582886Y-91724500D01*
X108075402Y-91724500D01*
X108040754Y-91710148D01*
X108026402Y-91675500D01*
X108034660Y-91648277D01*
X108054687Y-91618304D01*
X108095775Y-91556811D01*
X108148580Y-91429328D01*
X108175500Y-91293993D01*
X108175500Y-91156007D01*
X108170150Y-91129110D01*
X108148582Y-91020681D01*
X108148579Y-91020670D01*
X108138615Y-90996614D01*
X108095775Y-90893189D01*
X108026163Y-90789007D01*
X108019116Y-90778460D01*
X107948490Y-90707834D01*
X108625000Y-90707834D01*
X108631401Y-90767372D01*
X108631401Y-90767373D01*
X108681648Y-90902091D01*
X108767811Y-91017188D01*
X108882908Y-91103351D01*
X109017626Y-91153598D01*
X109077166Y-91160000D01*
X109375000Y-91160000D01*
X109375000Y-90510000D01*
X108625000Y-90510000D01*
X108625000Y-90707834D01*
X107948490Y-90707834D01*
X107921539Y-90680883D01*
X107850781Y-90633605D01*
X107806811Y-90604225D01*
X107806808Y-90604223D01*
X107806807Y-90604223D01*
X107679329Y-90551420D01*
X107679318Y-90551417D01*
X107543998Y-90524500D01*
X107543993Y-90524500D01*
X107406007Y-90524500D01*
X107406001Y-90524500D01*
X107270681Y-90551417D01*
X107270670Y-90551420D01*
X107143192Y-90604223D01*
X107028460Y-90680883D01*
X106930883Y-90778460D01*
X106854223Y-90893192D01*
X106801420Y-91020670D01*
X106801417Y-91020681D01*
X106774500Y-91156001D01*
X106774500Y-91293998D01*
X106801417Y-91429318D01*
X106801420Y-91429329D01*
X106850537Y-91547908D01*
X106854225Y-91556811D01*
X106860156Y-91565687D01*
X106930883Y-91671539D01*
X107028460Y-91769116D01*
X107046553Y-91781205D01*
X107143189Y-91845775D01*
X107270672Y-91898580D01*
X107392841Y-91922881D01*
X107424023Y-91943716D01*
X107431340Y-91980498D01*
X107429192Y-91988062D01*
X107380908Y-92117518D01*
X107374500Y-92177120D01*
X107374500Y-93772879D01*
X107380907Y-93832478D01*
X107390232Y-93857479D01*
X107431126Y-93967123D01*
X107431205Y-93967333D01*
X107467396Y-94015677D01*
X107476671Y-94052015D01*
X107470355Y-94069970D01*
X107425039Y-94146660D01*
X107425038Y-94146662D01*
X107424602Y-94147399D01*
X107296918Y-94363478D01*
X107289381Y-94373198D01*
X107131433Y-94531147D01*
X107096785Y-94545499D01*
X106654165Y-94545499D01*
X106619517Y-94531147D01*
X106605473Y-94501985D01*
X106598915Y-94443785D01*
X106586313Y-94331941D01*
X106530456Y-94172310D01*
X106440477Y-94029110D01*
X106320890Y-93909523D01*
X106259667Y-93871054D01*
X106203313Y-93835644D01*
X106198708Y-93832365D01*
X106194122Y-93828684D01*
X106194117Y-93828680D01*
X106099571Y-93772812D01*
X106077043Y-93742830D01*
X106075499Y-93730627D01*
X106075499Y-92177120D01*
X106069092Y-92117521D01*
X106067304Y-92112727D01*
X106018796Y-91982669D01*
X105932546Y-91867454D01*
X105839808Y-91798030D01*
X105817333Y-91781205D01*
X105817331Y-91781204D01*
X105729339Y-91748385D01*
X105682479Y-91730907D01*
X105622879Y-91724500D01*
X105622873Y-91724500D01*
X105075402Y-91724500D01*
X105040754Y-91710148D01*
X105026402Y-91675500D01*
X105034660Y-91648277D01*
X105054687Y-91618304D01*
X105095775Y-91556811D01*
X105148580Y-91429328D01*
X105175500Y-91293993D01*
X105175500Y-91156007D01*
X105170150Y-91129110D01*
X105148582Y-91020681D01*
X105148579Y-91020670D01*
X105138615Y-90996614D01*
X105095775Y-90893189D01*
X105026163Y-90789007D01*
X105019116Y-90778460D01*
X104921539Y-90680883D01*
X104850781Y-90633605D01*
X104806811Y-90604225D01*
X104806808Y-90604223D01*
X104806807Y-90604223D01*
X104679329Y-90551420D01*
X104679318Y-90551417D01*
X104543998Y-90524500D01*
X104543993Y-90524500D01*
X104406007Y-90524500D01*
X104406001Y-90524500D01*
X104270681Y-90551417D01*
X104270670Y-90551420D01*
X104143192Y-90604223D01*
X104028460Y-90680883D01*
X103930883Y-90778460D01*
X103854223Y-90893192D01*
X103801420Y-91020670D01*
X103801417Y-91020681D01*
X103774500Y-91156001D01*
X103774500Y-91293998D01*
X103801417Y-91429318D01*
X103801420Y-91429329D01*
X103850537Y-91547908D01*
X103854225Y-91556811D01*
X103860156Y-91565687D01*
X103915340Y-91648277D01*
X103922656Y-91685060D01*
X103901821Y-91716242D01*
X103874598Y-91724500D01*
X103367114Y-91724500D01*
X103332466Y-91710148D01*
X103320589Y-91685303D01*
X103319303Y-91685607D01*
X103318598Y-91682626D01*
X103268351Y-91547908D01*
X103182188Y-91432811D01*
X103067091Y-91346648D01*
X102932373Y-91296401D01*
X102872834Y-91290000D01*
X102575000Y-91290000D01*
X102575000Y-93090000D01*
X102825500Y-93090000D01*
X102860148Y-93104352D01*
X102874500Y-93139000D01*
X102874500Y-93772879D01*
X102880907Y-93832478D01*
X102890232Y-93857479D01*
X102931204Y-93967331D01*
X103017454Y-94082546D01*
X103132669Y-94168796D01*
X103267517Y-94219091D01*
X103267520Y-94219092D01*
X103311177Y-94223785D01*
X103327127Y-94225500D01*
X103517784Y-94225499D01*
X103552432Y-94239851D01*
X104571148Y-95258567D01*
X104585500Y-95293215D01*
X104585500Y-95435502D01*
X104571148Y-95470150D01*
X104536500Y-95484502D01*
X104501852Y-95470150D01*
X104494065Y-95460002D01*
X104400274Y-95297552D01*
X104400264Y-95297537D01*
X104256596Y-95110306D01*
X104256586Y-95110294D01*
X104089705Y-94943413D01*
X104089693Y-94943403D01*
X103902462Y-94799735D01*
X103902447Y-94799725D01*
X103698050Y-94681716D01*
X103479996Y-94591395D01*
X103479986Y-94591391D01*
X103252025Y-94530309D01*
X103252018Y-94530308D01*
X103252014Y-94530307D01*
X103018011Y-94499500D01*
X102781989Y-94499500D01*
X102547986Y-94530307D01*
X102547982Y-94530307D01*
X102547974Y-94530309D01*
X102320013Y-94591391D01*
X102320003Y-94591395D01*
X102101949Y-94681716D01*
X101897552Y-94799725D01*
X101897537Y-94799735D01*
X101710306Y-94943403D01*
X101710294Y-94943413D01*
X101543413Y-95110294D01*
X101543403Y-95110306D01*
X101399735Y-95297537D01*
X101399725Y-95297552D01*
X101281716Y-95501949D01*
X101244770Y-95591146D01*
X101218251Y-95617664D01*
X101180748Y-95617664D01*
X101154230Y-95591145D01*
X101150500Y-95572394D01*
X101150500Y-92637834D01*
X101325000Y-92637834D01*
X101331401Y-92697372D01*
X101331401Y-92697373D01*
X101381648Y-92832091D01*
X101467811Y-92947188D01*
X101582908Y-93033351D01*
X101717626Y-93083598D01*
X101777166Y-93090000D01*
X102075000Y-93090000D01*
X102075000Y-92440000D01*
X101325000Y-92440000D01*
X101325000Y-92637834D01*
X101150500Y-92637834D01*
X101150500Y-91742165D01*
X101325000Y-91742165D01*
X101325000Y-91940000D01*
X102075000Y-91940000D01*
X102075000Y-91290000D01*
X101777166Y-91290000D01*
X101717627Y-91296401D01*
X101717626Y-91296401D01*
X101582908Y-91346648D01*
X101467811Y-91432811D01*
X101381648Y-91547908D01*
X101331401Y-91682626D01*
X101331401Y-91682627D01*
X101325000Y-91742165D01*
X101150500Y-91742165D01*
X101150500Y-90707834D01*
X101325000Y-90707834D01*
X101331401Y-90767372D01*
X101331401Y-90767373D01*
X101381648Y-90902091D01*
X101467811Y-91017188D01*
X101582908Y-91103351D01*
X101717626Y-91153598D01*
X101777166Y-91160000D01*
X102075000Y-91160000D01*
X102575000Y-91160000D01*
X102872834Y-91160000D01*
X102932372Y-91153598D01*
X102932373Y-91153598D01*
X103067091Y-91103351D01*
X103182188Y-91017188D01*
X103268351Y-90902091D01*
X103318598Y-90767373D01*
X103318598Y-90767372D01*
X103325000Y-90707834D01*
X103325000Y-90510000D01*
X102575000Y-90510000D01*
X102575000Y-91160000D01*
X102075000Y-91160000D01*
X102075000Y-90510000D01*
X101325000Y-90510000D01*
X101325000Y-90707834D01*
X101150500Y-90707834D01*
X101150500Y-90352752D01*
X101150808Y-90347266D01*
X101156415Y-90297506D01*
X101162406Y-90244332D01*
X101164848Y-90233637D01*
X101198145Y-90138477D01*
X101202897Y-90128610D01*
X101256541Y-90043235D01*
X101263372Y-90034669D01*
X101273692Y-90024349D01*
X101308338Y-90010000D01*
X103325000Y-90010000D01*
X103325000Y-89900032D01*
X103339352Y-89865384D01*
X103373997Y-89851032D01*
X108576018Y-89852640D01*
G37*
G04 #@! TD.AperFunction*
G04 #@! TA.AperFunction,Conductor*
G36*
X108720241Y-94960420D02*
G01*
X108734593Y-94995068D01*
X108734524Y-94997677D01*
X108734500Y-94998127D01*
X108734500Y-95601878D01*
X108740907Y-95661477D01*
X108740909Y-95661482D01*
X108791204Y-95796330D01*
X108877454Y-95911545D01*
X108992669Y-95997795D01*
X109127517Y-96048090D01*
X109127520Y-96048091D01*
X109171177Y-96052784D01*
X109187127Y-96054499D01*
X110430500Y-96054498D01*
X110465148Y-96068850D01*
X110479500Y-96103498D01*
X110479500Y-96359179D01*
X110479501Y-96359194D01*
X110482134Y-96392658D01*
X110470544Y-96428325D01*
X110437128Y-96445350D01*
X110433285Y-96445501D01*
X109187120Y-96445501D01*
X109127519Y-96451909D01*
X109064003Y-96475598D01*
X109032393Y-96476496D01*
X108924441Y-96443085D01*
X108895523Y-96435067D01*
X108891272Y-96434649D01*
X108890421Y-96434565D01*
X108879038Y-96432051D01*
X108829261Y-96414634D01*
X108829260Y-96414633D01*
X108829255Y-96414632D01*
X108829251Y-96414631D01*
X108829249Y-96414631D01*
X108650000Y-96394435D01*
X108470750Y-96414631D01*
X108470741Y-96414633D01*
X108300480Y-96474210D01*
X108300473Y-96474213D01*
X108271386Y-96492490D01*
X108245317Y-96500000D01*
X108210261Y-96500000D01*
X108193138Y-96496911D01*
X108072481Y-96451909D01*
X108012879Y-96445501D01*
X108012873Y-96445501D01*
X107103600Y-96445501D01*
X107068952Y-96431149D01*
X107054600Y-96396501D01*
X107054600Y-96103498D01*
X107068952Y-96068850D01*
X107103598Y-96054498D01*
X108012872Y-96054498D01*
X108012878Y-96054498D01*
X108048638Y-96050653D01*
X108072483Y-96048090D01*
X108169748Y-96011812D01*
X108193138Y-96003089D01*
X108210261Y-96000000D01*
X108465000Y-96000000D01*
X108465000Y-95948165D01*
X108458598Y-95888627D01*
X108458598Y-95888626D01*
X108422871Y-95792837D01*
X108422872Y-95758589D01*
X108437263Y-95720007D01*
X108459091Y-95661482D01*
X108465500Y-95601872D01*
X108465499Y-95116188D01*
X108479851Y-95081541D01*
X108489571Y-95074003D01*
X108494121Y-95071316D01*
X108509088Y-95062117D01*
X108512249Y-95059392D01*
X108518157Y-95055028D01*
X108620890Y-94990477D01*
X108650947Y-94960419D01*
X108685592Y-94946069D01*
X108720241Y-94960420D01*
G37*
G04 #@! TD.AperFunction*
G04 #@! TA.AperFunction,Conductor*
G36*
X110708648Y-92300067D02*
G01*
X111558589Y-93150008D01*
X111645992Y-93237411D01*
X111748767Y-93306083D01*
X111769252Y-93314568D01*
X111795769Y-93341084D01*
X111799500Y-93359837D01*
X111799500Y-93797879D01*
X111801567Y-93817098D01*
X111791001Y-93853081D01*
X111758085Y-93871054D01*
X111723258Y-93860925D01*
X111723220Y-93860987D01*
X111723005Y-93860852D01*
X111722300Y-93860647D01*
X111720891Y-93859523D01*
X111622775Y-93797873D01*
X111577690Y-93769544D01*
X111418059Y-93713687D01*
X111418055Y-93713686D01*
X111418053Y-93713686D01*
X111250000Y-93694751D01*
X111134772Y-93707734D01*
X111098735Y-93697352D01*
X111080594Y-93664528D01*
X111082232Y-93645371D01*
X111112845Y-93540000D01*
X110557459Y-93540000D01*
X110553618Y-93539849D01*
X110551634Y-93539693D01*
X110549181Y-93539500D01*
X110549178Y-93539500D01*
X110050820Y-93539500D01*
X110050815Y-93539501D01*
X110047892Y-93539731D01*
X110046393Y-93539849D01*
X110042552Y-93540000D01*
X109487155Y-93540000D01*
X109527594Y-93679194D01*
X109583996Y-93774565D01*
X109589281Y-93811694D01*
X109583997Y-93824451D01*
X109527130Y-93920608D01*
X109482334Y-94074795D01*
X109482334Y-94074797D01*
X109479500Y-94110816D01*
X109479500Y-94496499D01*
X109465148Y-94531147D01*
X109430500Y-94545499D01*
X109187120Y-94545499D01*
X109127521Y-94551906D01*
X108992666Y-94602204D01*
X108961098Y-94625836D01*
X108924760Y-94635110D01*
X108892507Y-94615973D01*
X108883233Y-94579635D01*
X108885484Y-94570425D01*
X108886313Y-94568059D01*
X108905249Y-94400000D01*
X108886313Y-94231941D01*
X108866344Y-94174873D01*
X108868446Y-94137430D01*
X108883225Y-94119466D01*
X108932546Y-94082546D01*
X109018796Y-93967331D01*
X109069091Y-93832483D01*
X109069091Y-93832481D01*
X109069092Y-93832479D01*
X109075499Y-93772879D01*
X109075500Y-93772873D01*
X109075499Y-93138998D01*
X109089851Y-93104352D01*
X109124499Y-93090000D01*
X109437000Y-93090000D01*
X109437000Y-93089000D01*
X109451352Y-93054352D01*
X109486000Y-93040000D01*
X111112845Y-93040000D01*
X111112845Y-93039999D01*
X111072404Y-92900803D01*
X110990739Y-92762715D01*
X110990735Y-92762710D01*
X110877289Y-92649264D01*
X110877284Y-92649260D01*
X110739196Y-92567594D01*
X110660329Y-92544681D01*
X110631061Y-92521232D01*
X110625000Y-92497627D01*
X110625000Y-92334715D01*
X110639352Y-92300067D01*
X110674000Y-92285715D01*
X110708648Y-92300067D01*
G37*
G04 #@! TD.AperFunction*
M02*
