G04 #@! TF.GenerationSoftware,KiCad,Pcbnew,8.0.5-8.0.5-0~ubuntu22.04.1*
G04 #@! TF.CreationDate,2024-10-21T19:31:09-07:00*
G04 #@! TF.ProjectId,uSlime,75536c69-6d65-42e6-9b69-6361645f7063,rev?*
G04 #@! TF.SameCoordinates,Original*
G04 #@! TF.FileFunction,Legend,Bot*
G04 #@! TF.FilePolarity,Positive*
%FSLAX46Y46*%
G04 Gerber Fmt 4.6, Leading zero omitted, Abs format (unit mm)*
G04 Created by KiCad (PCBNEW 8.0.5-8.0.5-0~ubuntu22.04.1) date 2024-10-21 19:31:09*
%MOMM*%
%LPD*%
G01*
G04 APERTURE LIST*
G04 Aperture macros list*
%AMFreePoly0*
4,1,19,0.550000,-0.750000,0.000000,-0.750000,0.000000,-0.744911,-0.071157,-0.744911,-0.207708,-0.704816,-0.327430,-0.627875,-0.420627,-0.520320,-0.479746,-0.390866,-0.500000,-0.250000,-0.500000,0.250000,-0.479746,0.390866,-0.420627,0.520320,-0.327430,0.627875,-0.207708,0.704816,-0.071157,0.744911,0.000000,0.744911,0.000000,0.750000,0.550000,0.750000,0.550000,-0.750000,0.550000,-0.750000,
$1*%
%AMFreePoly1*
4,1,19,0.000000,0.744911,0.071157,0.744911,0.207708,0.704816,0.327430,0.627875,0.420627,0.520320,0.479746,0.390866,0.500000,0.250000,0.500000,-0.250000,0.479746,-0.390866,0.420627,-0.520320,0.327430,-0.627875,0.207708,-0.704816,0.071157,-0.744911,0.000000,-0.744911,0.000000,-0.750000,-0.550000,-0.750000,-0.550000,0.750000,0.000000,0.750000,0.000000,0.744911,0.000000,0.744911,
$1*%
G04 Aperture macros list end*
%ADD10C,0.100000*%
%ADD11C,0.120000*%
%ADD12C,0.000000*%
%ADD13C,1.200000*%
%ADD14C,0.650000*%
%ADD15O,1.000000X2.100000*%
%ADD16O,1.000000X1.800000*%
%ADD17C,3.100000*%
%ADD18C,0.900000*%
%ADD19C,0.800000*%
%ADD20C,1.000000*%
%ADD21R,2.000000X2.000000*%
%ADD22FreePoly0,0.000000*%
%ADD23R,1.000000X1.500000*%
%ADD24FreePoly1,0.000000*%
G04 APERTURE END LIST*
D10*
X124183333Y-98178133D02*
X124183333Y-97478133D01*
X123716667Y-97478133D02*
X123583333Y-97478133D01*
X123583333Y-97478133D02*
X123516667Y-97511466D01*
X123516667Y-97511466D02*
X123450000Y-97578133D01*
X123450000Y-97578133D02*
X123416667Y-97711466D01*
X123416667Y-97711466D02*
X123416667Y-97944800D01*
X123416667Y-97944800D02*
X123450000Y-98078133D01*
X123450000Y-98078133D02*
X123516667Y-98144800D01*
X123516667Y-98144800D02*
X123583333Y-98178133D01*
X123583333Y-98178133D02*
X123716667Y-98178133D01*
X123716667Y-98178133D02*
X123783333Y-98144800D01*
X123783333Y-98144800D02*
X123850000Y-98078133D01*
X123850000Y-98078133D02*
X123883333Y-97944800D01*
X123883333Y-97944800D02*
X123883333Y-97711466D01*
X123883333Y-97711466D02*
X123850000Y-97578133D01*
X123850000Y-97578133D02*
X123783333Y-97511466D01*
X123783333Y-97511466D02*
X123716667Y-97478133D01*
X123150000Y-97544800D02*
X123116667Y-97511466D01*
X123116667Y-97511466D02*
X123050000Y-97478133D01*
X123050000Y-97478133D02*
X122883334Y-97478133D01*
X122883334Y-97478133D02*
X122816667Y-97511466D01*
X122816667Y-97511466D02*
X122783334Y-97544800D01*
X122783334Y-97544800D02*
X122750000Y-97611466D01*
X122750000Y-97611466D02*
X122750000Y-97678133D01*
X122750000Y-97678133D02*
X122783334Y-97778133D01*
X122783334Y-97778133D02*
X123183334Y-98178133D01*
X123183334Y-98178133D02*
X122750000Y-98178133D01*
X122083333Y-98178133D02*
X122483333Y-98178133D01*
X122283333Y-98178133D02*
X122283333Y-97478133D01*
X122283333Y-97478133D02*
X122350000Y-97578133D01*
X122350000Y-97578133D02*
X122416667Y-97644800D01*
X122416667Y-97644800D02*
X122483333Y-97678133D01*
X109149999Y-109742419D02*
X108816666Y-110742419D01*
X108816666Y-110742419D02*
X108483333Y-109742419D01*
X108149999Y-110742419D02*
X108149999Y-109742419D01*
X107673809Y-110742419D02*
X107673809Y-109742419D01*
X107673809Y-109742419D02*
X107102381Y-110742419D01*
X107102381Y-110742419D02*
X107102381Y-109742419D01*
X105864285Y-110361466D02*
X105102381Y-110361466D01*
X105483333Y-110742419D02*
X105483333Y-109980514D01*
X104150000Y-109742419D02*
X104626190Y-109742419D01*
X104626190Y-109742419D02*
X104673809Y-110218609D01*
X104673809Y-110218609D02*
X104626190Y-110170990D01*
X104626190Y-110170990D02*
X104530952Y-110123371D01*
X104530952Y-110123371D02*
X104292857Y-110123371D01*
X104292857Y-110123371D02*
X104197619Y-110170990D01*
X104197619Y-110170990D02*
X104150000Y-110218609D01*
X104150000Y-110218609D02*
X104102381Y-110313847D01*
X104102381Y-110313847D02*
X104102381Y-110551942D01*
X104102381Y-110551942D02*
X104150000Y-110647180D01*
X104150000Y-110647180D02*
X104197619Y-110694800D01*
X104197619Y-110694800D02*
X104292857Y-110742419D01*
X104292857Y-110742419D02*
X104530952Y-110742419D01*
X104530952Y-110742419D02*
X104626190Y-110694800D01*
X104626190Y-110694800D02*
X104673809Y-110647180D01*
X103816666Y-109742419D02*
X103483333Y-110742419D01*
X103483333Y-110742419D02*
X103150000Y-109742419D01*
X108999999Y-103570704D02*
X109038095Y-103608800D01*
X109038095Y-103608800D02*
X109152380Y-103646895D01*
X109152380Y-103646895D02*
X109228571Y-103646895D01*
X109228571Y-103646895D02*
X109342857Y-103608800D01*
X109342857Y-103608800D02*
X109419047Y-103532609D01*
X109419047Y-103532609D02*
X109457142Y-103456419D01*
X109457142Y-103456419D02*
X109495238Y-103304038D01*
X109495238Y-103304038D02*
X109495238Y-103189752D01*
X109495238Y-103189752D02*
X109457142Y-103037371D01*
X109457142Y-103037371D02*
X109419047Y-102961180D01*
X109419047Y-102961180D02*
X109342857Y-102884990D01*
X109342857Y-102884990D02*
X109228571Y-102846895D01*
X109228571Y-102846895D02*
X109152380Y-102846895D01*
X109152380Y-102846895D02*
X109038095Y-102884990D01*
X109038095Y-102884990D02*
X108999999Y-102923085D01*
X108657142Y-103646895D02*
X108657142Y-103113561D01*
X108657142Y-103265942D02*
X108619047Y-103189752D01*
X108619047Y-103189752D02*
X108580952Y-103151657D01*
X108580952Y-103151657D02*
X108504761Y-103113561D01*
X108504761Y-103113561D02*
X108428571Y-103113561D01*
X107857142Y-103608800D02*
X107933333Y-103646895D01*
X107933333Y-103646895D02*
X108085714Y-103646895D01*
X108085714Y-103646895D02*
X108161904Y-103608800D01*
X108161904Y-103608800D02*
X108200000Y-103532609D01*
X108200000Y-103532609D02*
X108200000Y-103227847D01*
X108200000Y-103227847D02*
X108161904Y-103151657D01*
X108161904Y-103151657D02*
X108085714Y-103113561D01*
X108085714Y-103113561D02*
X107933333Y-103113561D01*
X107933333Y-103113561D02*
X107857142Y-103151657D01*
X107857142Y-103151657D02*
X107819047Y-103227847D01*
X107819047Y-103227847D02*
X107819047Y-103304038D01*
X107819047Y-103304038D02*
X108200000Y-103380228D01*
X107133333Y-103646895D02*
X107133333Y-103227847D01*
X107133333Y-103227847D02*
X107171428Y-103151657D01*
X107171428Y-103151657D02*
X107247619Y-103113561D01*
X107247619Y-103113561D02*
X107400000Y-103113561D01*
X107400000Y-103113561D02*
X107476190Y-103151657D01*
X107133333Y-103608800D02*
X107209524Y-103646895D01*
X107209524Y-103646895D02*
X107400000Y-103646895D01*
X107400000Y-103646895D02*
X107476190Y-103608800D01*
X107476190Y-103608800D02*
X107514286Y-103532609D01*
X107514286Y-103532609D02*
X107514286Y-103456419D01*
X107514286Y-103456419D02*
X107476190Y-103380228D01*
X107476190Y-103380228D02*
X107400000Y-103342133D01*
X107400000Y-103342133D02*
X107209524Y-103342133D01*
X107209524Y-103342133D02*
X107133333Y-103304038D01*
X106866666Y-103113561D02*
X106561904Y-103113561D01*
X106752380Y-102846895D02*
X106752380Y-103532609D01*
X106752380Y-103532609D02*
X106714285Y-103608800D01*
X106714285Y-103608800D02*
X106638095Y-103646895D01*
X106638095Y-103646895D02*
X106561904Y-103646895D01*
X105990475Y-103608800D02*
X106066666Y-103646895D01*
X106066666Y-103646895D02*
X106219047Y-103646895D01*
X106219047Y-103646895D02*
X106295237Y-103608800D01*
X106295237Y-103608800D02*
X106333333Y-103532609D01*
X106333333Y-103532609D02*
X106333333Y-103227847D01*
X106333333Y-103227847D02*
X106295237Y-103151657D01*
X106295237Y-103151657D02*
X106219047Y-103113561D01*
X106219047Y-103113561D02*
X106066666Y-103113561D01*
X106066666Y-103113561D02*
X105990475Y-103151657D01*
X105990475Y-103151657D02*
X105952380Y-103227847D01*
X105952380Y-103227847D02*
X105952380Y-103304038D01*
X105952380Y-103304038D02*
X106333333Y-103380228D01*
X105266666Y-103646895D02*
X105266666Y-102846895D01*
X105266666Y-103608800D02*
X105342857Y-103646895D01*
X105342857Y-103646895D02*
X105495238Y-103646895D01*
X105495238Y-103646895D02*
X105571428Y-103608800D01*
X105571428Y-103608800D02*
X105609523Y-103570704D01*
X105609523Y-103570704D02*
X105647619Y-103494514D01*
X105647619Y-103494514D02*
X105647619Y-103265942D01*
X105647619Y-103265942D02*
X105609523Y-103189752D01*
X105609523Y-103189752D02*
X105571428Y-103151657D01*
X105571428Y-103151657D02*
X105495238Y-103113561D01*
X105495238Y-103113561D02*
X105342857Y-103113561D01*
X105342857Y-103113561D02*
X105266666Y-103151657D01*
X104276189Y-103646895D02*
X104276189Y-102846895D01*
X104276189Y-103151657D02*
X104199999Y-103113561D01*
X104199999Y-103113561D02*
X104047618Y-103113561D01*
X104047618Y-103113561D02*
X103971427Y-103151657D01*
X103971427Y-103151657D02*
X103933332Y-103189752D01*
X103933332Y-103189752D02*
X103895237Y-103265942D01*
X103895237Y-103265942D02*
X103895237Y-103494514D01*
X103895237Y-103494514D02*
X103933332Y-103570704D01*
X103933332Y-103570704D02*
X103971427Y-103608800D01*
X103971427Y-103608800D02*
X104047618Y-103646895D01*
X104047618Y-103646895D02*
X104199999Y-103646895D01*
X104199999Y-103646895D02*
X104276189Y-103608800D01*
X103628570Y-103113561D02*
X103438094Y-103646895D01*
X103247617Y-103113561D02*
X103438094Y-103646895D01*
X103438094Y-103646895D02*
X103514284Y-103837371D01*
X103514284Y-103837371D02*
X103552379Y-103875466D01*
X103552379Y-103875466D02*
X103628570Y-103913561D01*
X102942855Y-103570704D02*
X102904760Y-103608800D01*
X102904760Y-103608800D02*
X102942855Y-103646895D01*
X102942855Y-103646895D02*
X102980951Y-103608800D01*
X102980951Y-103608800D02*
X102942855Y-103570704D01*
X102942855Y-103570704D02*
X102942855Y-103646895D01*
X102942855Y-103151657D02*
X102904760Y-103189752D01*
X102904760Y-103189752D02*
X102942855Y-103227847D01*
X102942855Y-103227847D02*
X102980951Y-103189752D01*
X102980951Y-103189752D02*
X102942855Y-103151657D01*
X102942855Y-103151657D02*
X102942855Y-103227847D01*
X123983333Y-91075800D02*
X123883333Y-91109133D01*
X123883333Y-91109133D02*
X123716667Y-91109133D01*
X123716667Y-91109133D02*
X123650000Y-91075800D01*
X123650000Y-91075800D02*
X123616667Y-91042466D01*
X123616667Y-91042466D02*
X123583333Y-90975800D01*
X123583333Y-90975800D02*
X123583333Y-90909133D01*
X123583333Y-90909133D02*
X123616667Y-90842466D01*
X123616667Y-90842466D02*
X123650000Y-90809133D01*
X123650000Y-90809133D02*
X123716667Y-90775800D01*
X123716667Y-90775800D02*
X123850000Y-90742466D01*
X123850000Y-90742466D02*
X123916667Y-90709133D01*
X123916667Y-90709133D02*
X123950000Y-90675800D01*
X123950000Y-90675800D02*
X123983333Y-90609133D01*
X123983333Y-90609133D02*
X123983333Y-90542466D01*
X123983333Y-90542466D02*
X123950000Y-90475800D01*
X123950000Y-90475800D02*
X123916667Y-90442466D01*
X123916667Y-90442466D02*
X123850000Y-90409133D01*
X123850000Y-90409133D02*
X123683333Y-90409133D01*
X123683333Y-90409133D02*
X123583333Y-90442466D01*
X122883333Y-91042466D02*
X122916666Y-91075800D01*
X122916666Y-91075800D02*
X123016666Y-91109133D01*
X123016666Y-91109133D02*
X123083333Y-91109133D01*
X123083333Y-91109133D02*
X123183333Y-91075800D01*
X123183333Y-91075800D02*
X123250000Y-91009133D01*
X123250000Y-91009133D02*
X123283333Y-90942466D01*
X123283333Y-90942466D02*
X123316666Y-90809133D01*
X123316666Y-90809133D02*
X123316666Y-90709133D01*
X123316666Y-90709133D02*
X123283333Y-90575800D01*
X123283333Y-90575800D02*
X123250000Y-90509133D01*
X123250000Y-90509133D02*
X123183333Y-90442466D01*
X123183333Y-90442466D02*
X123083333Y-90409133D01*
X123083333Y-90409133D02*
X123016666Y-90409133D01*
X123016666Y-90409133D02*
X122916666Y-90442466D01*
X122916666Y-90442466D02*
X122883333Y-90475800D01*
X122250000Y-91109133D02*
X122583333Y-91109133D01*
X122583333Y-91109133D02*
X122583333Y-90409133D01*
X108009524Y-105549561D02*
X108109524Y-106349561D01*
X108014285Y-105587657D02*
X107933333Y-105549561D01*
X107933333Y-105549561D02*
X107780952Y-105549561D01*
X107780952Y-105549561D02*
X107709524Y-105587657D01*
X107709524Y-105587657D02*
X107676190Y-105625752D01*
X107676190Y-105625752D02*
X107647619Y-105701942D01*
X107647619Y-105701942D02*
X107676190Y-105930514D01*
X107676190Y-105930514D02*
X107723809Y-106006704D01*
X107723809Y-106006704D02*
X107766666Y-106044800D01*
X107766666Y-106044800D02*
X107847619Y-106082895D01*
X107847619Y-106082895D02*
X108000000Y-106082895D01*
X108000000Y-106082895D02*
X108071428Y-106044800D01*
X107042856Y-106044800D02*
X107123809Y-106082895D01*
X107123809Y-106082895D02*
X107276190Y-106082895D01*
X107276190Y-106082895D02*
X107347618Y-106044800D01*
X107347618Y-106044800D02*
X107376190Y-105968609D01*
X107376190Y-105968609D02*
X107338095Y-105663847D01*
X107338095Y-105663847D02*
X107290475Y-105587657D01*
X107290475Y-105587657D02*
X107209523Y-105549561D01*
X107209523Y-105549561D02*
X107057142Y-105549561D01*
X107057142Y-105549561D02*
X106985714Y-105587657D01*
X106985714Y-105587657D02*
X106957142Y-105663847D01*
X106957142Y-105663847D02*
X106966666Y-105740038D01*
X106966666Y-105740038D02*
X107357142Y-105816228D01*
X106666666Y-106082895D02*
X106600000Y-105549561D01*
X106566666Y-105282895D02*
X106609523Y-105320990D01*
X106609523Y-105320990D02*
X106576190Y-105359085D01*
X106576190Y-105359085D02*
X106533333Y-105320990D01*
X106533333Y-105320990D02*
X106566666Y-105282895D01*
X106566666Y-105282895D02*
X106576190Y-105359085D01*
X106247619Y-105778133D02*
X105638095Y-105778133D01*
X105180953Y-106082895D02*
X105252381Y-106044800D01*
X105252381Y-106044800D02*
X105280953Y-105968609D01*
X105280953Y-105968609D02*
X105195238Y-105282895D01*
X104466666Y-105549561D02*
X104533333Y-106082895D01*
X104809524Y-105549561D02*
X104861905Y-105968609D01*
X104861905Y-105968609D02*
X104833333Y-106044800D01*
X104833333Y-106044800D02*
X104761905Y-106082895D01*
X104761905Y-106082895D02*
X104647619Y-106082895D01*
X104647619Y-106082895D02*
X104566666Y-106044800D01*
X104566666Y-106044800D02*
X104523809Y-106006704D01*
X118800000Y-111142466D02*
X118266667Y-111142466D01*
X118533333Y-111409133D02*
X118533333Y-110875800D01*
X118000000Y-110709133D02*
X117566666Y-110709133D01*
X117566666Y-110709133D02*
X117800000Y-110975800D01*
X117800000Y-110975800D02*
X117700000Y-110975800D01*
X117700000Y-110975800D02*
X117633333Y-111009133D01*
X117633333Y-111009133D02*
X117600000Y-111042466D01*
X117600000Y-111042466D02*
X117566666Y-111109133D01*
X117566666Y-111109133D02*
X117566666Y-111275800D01*
X117566666Y-111275800D02*
X117600000Y-111342466D01*
X117600000Y-111342466D02*
X117633333Y-111375800D01*
X117633333Y-111375800D02*
X117700000Y-111409133D01*
X117700000Y-111409133D02*
X117900000Y-111409133D01*
X117900000Y-111409133D02*
X117966666Y-111375800D01*
X117966666Y-111375800D02*
X118000000Y-111342466D01*
X117266666Y-111342466D02*
X117233333Y-111375800D01*
X117233333Y-111375800D02*
X117266666Y-111409133D01*
X117266666Y-111409133D02*
X117299999Y-111375800D01*
X117299999Y-111375800D02*
X117266666Y-111342466D01*
X117266666Y-111342466D02*
X117266666Y-111409133D01*
X117000000Y-110709133D02*
X116566666Y-110709133D01*
X116566666Y-110709133D02*
X116800000Y-110975800D01*
X116800000Y-110975800D02*
X116700000Y-110975800D01*
X116700000Y-110975800D02*
X116633333Y-111009133D01*
X116633333Y-111009133D02*
X116600000Y-111042466D01*
X116600000Y-111042466D02*
X116566666Y-111109133D01*
X116566666Y-111109133D02*
X116566666Y-111275800D01*
X116566666Y-111275800D02*
X116600000Y-111342466D01*
X116600000Y-111342466D02*
X116633333Y-111375800D01*
X116633333Y-111375800D02*
X116700000Y-111409133D01*
X116700000Y-111409133D02*
X116900000Y-111409133D01*
X116900000Y-111409133D02*
X116966666Y-111375800D01*
X116966666Y-111375800D02*
X117000000Y-111342466D01*
X116366666Y-110709133D02*
X116133333Y-111409133D01*
X116133333Y-111409133D02*
X115899999Y-110709133D01*
X122447619Y-104107419D02*
X122780952Y-103631228D01*
X123019047Y-104107419D02*
X123019047Y-103107419D01*
X123019047Y-103107419D02*
X122638095Y-103107419D01*
X122638095Y-103107419D02*
X122542857Y-103155038D01*
X122542857Y-103155038D02*
X122495238Y-103202657D01*
X122495238Y-103202657D02*
X122447619Y-103297895D01*
X122447619Y-103297895D02*
X122447619Y-103440752D01*
X122447619Y-103440752D02*
X122495238Y-103535990D01*
X122495238Y-103535990D02*
X122542857Y-103583609D01*
X122542857Y-103583609D02*
X122638095Y-103631228D01*
X122638095Y-103631228D02*
X123019047Y-103631228D01*
X122066666Y-104059800D02*
X121923809Y-104107419D01*
X121923809Y-104107419D02*
X121685714Y-104107419D01*
X121685714Y-104107419D02*
X121590476Y-104059800D01*
X121590476Y-104059800D02*
X121542857Y-104012180D01*
X121542857Y-104012180D02*
X121495238Y-103916942D01*
X121495238Y-103916942D02*
X121495238Y-103821704D01*
X121495238Y-103821704D02*
X121542857Y-103726466D01*
X121542857Y-103726466D02*
X121590476Y-103678847D01*
X121590476Y-103678847D02*
X121685714Y-103631228D01*
X121685714Y-103631228D02*
X121876190Y-103583609D01*
X121876190Y-103583609D02*
X121971428Y-103535990D01*
X121971428Y-103535990D02*
X122019047Y-103488371D01*
X122019047Y-103488371D02*
X122066666Y-103393133D01*
X122066666Y-103393133D02*
X122066666Y-103297895D01*
X122066666Y-103297895D02*
X122019047Y-103202657D01*
X122019047Y-103202657D02*
X121971428Y-103155038D01*
X121971428Y-103155038D02*
X121876190Y-103107419D01*
X121876190Y-103107419D02*
X121638095Y-103107419D01*
X121638095Y-103107419D02*
X121495238Y-103155038D01*
X121209523Y-103107419D02*
X120638095Y-103107419D01*
X120923809Y-104107419D02*
X120923809Y-103107419D01*
X114333332Y-110742466D02*
X114399999Y-110709133D01*
X114399999Y-110709133D02*
X114499999Y-110709133D01*
X114499999Y-110709133D02*
X114599999Y-110742466D01*
X114599999Y-110742466D02*
X114666666Y-110809133D01*
X114666666Y-110809133D02*
X114699999Y-110875800D01*
X114699999Y-110875800D02*
X114733332Y-111009133D01*
X114733332Y-111009133D02*
X114733332Y-111109133D01*
X114733332Y-111109133D02*
X114699999Y-111242466D01*
X114699999Y-111242466D02*
X114666666Y-111309133D01*
X114666666Y-111309133D02*
X114599999Y-111375800D01*
X114599999Y-111375800D02*
X114499999Y-111409133D01*
X114499999Y-111409133D02*
X114433332Y-111409133D01*
X114433332Y-111409133D02*
X114333332Y-111375800D01*
X114333332Y-111375800D02*
X114299999Y-111342466D01*
X114299999Y-111342466D02*
X114299999Y-111109133D01*
X114299999Y-111109133D02*
X114433332Y-111109133D01*
X113999999Y-111409133D02*
X113999999Y-110709133D01*
X113999999Y-110709133D02*
X113599999Y-111409133D01*
X113599999Y-111409133D02*
X113599999Y-110709133D01*
X113266666Y-111409133D02*
X113266666Y-110709133D01*
X113266666Y-110709133D02*
X113099999Y-110709133D01*
X113099999Y-110709133D02*
X112999999Y-110742466D01*
X112999999Y-110742466D02*
X112933333Y-110809133D01*
X112933333Y-110809133D02*
X112899999Y-110875800D01*
X112899999Y-110875800D02*
X112866666Y-111009133D01*
X112866666Y-111009133D02*
X112866666Y-111109133D01*
X112866666Y-111109133D02*
X112899999Y-111242466D01*
X112899999Y-111242466D02*
X112933333Y-111309133D01*
X112933333Y-111309133D02*
X112999999Y-111375800D01*
X112999999Y-111375800D02*
X113099999Y-111409133D01*
X113099999Y-111409133D02*
X113266666Y-111409133D01*
X119816666Y-110501966D02*
X119816666Y-110968633D01*
X119983333Y-110235300D02*
X120149999Y-110735300D01*
X120149999Y-110735300D02*
X119716666Y-110735300D01*
X119483332Y-110768633D02*
X119149999Y-110768633D01*
X119549999Y-110968633D02*
X119316666Y-110268633D01*
X119316666Y-110268633D02*
X119083332Y-110968633D01*
X111551966Y-96650000D02*
X111585300Y-96616667D01*
X111585300Y-96616667D02*
X111618633Y-96516667D01*
X111618633Y-96516667D02*
X111618633Y-96450000D01*
X111618633Y-96450000D02*
X111585300Y-96350000D01*
X111585300Y-96350000D02*
X111518633Y-96283334D01*
X111518633Y-96283334D02*
X111451966Y-96250000D01*
X111451966Y-96250000D02*
X111318633Y-96216667D01*
X111318633Y-96216667D02*
X111218633Y-96216667D01*
X111218633Y-96216667D02*
X111085300Y-96250000D01*
X111085300Y-96250000D02*
X111018633Y-96283334D01*
X111018633Y-96283334D02*
X110951966Y-96350000D01*
X110951966Y-96350000D02*
X110918633Y-96450000D01*
X110918633Y-96450000D02*
X110918633Y-96516667D01*
X110918633Y-96516667D02*
X110951966Y-96616667D01*
X110951966Y-96616667D02*
X110985300Y-96650000D01*
X111618633Y-96950000D02*
X110918633Y-96950000D01*
X111251966Y-96950000D02*
X111251966Y-97350000D01*
X111618633Y-97350000D02*
X110918633Y-97350000D01*
X111618633Y-98083333D02*
X111285300Y-97850000D01*
X111618633Y-97683333D02*
X110918633Y-97683333D01*
X110918633Y-97683333D02*
X110918633Y-97950000D01*
X110918633Y-97950000D02*
X110951966Y-98016667D01*
X110951966Y-98016667D02*
X110985300Y-98050000D01*
X110985300Y-98050000D02*
X111051966Y-98083333D01*
X111051966Y-98083333D02*
X111151966Y-98083333D01*
X111151966Y-98083333D02*
X111218633Y-98050000D01*
X111218633Y-98050000D02*
X111251966Y-98016667D01*
X111251966Y-98016667D02*
X111285300Y-97950000D01*
X111285300Y-97950000D02*
X111285300Y-97683333D01*
X110951966Y-98750000D02*
X110918633Y-98683333D01*
X110918633Y-98683333D02*
X110918633Y-98583333D01*
X110918633Y-98583333D02*
X110951966Y-98483333D01*
X110951966Y-98483333D02*
X111018633Y-98416667D01*
X111018633Y-98416667D02*
X111085300Y-98383333D01*
X111085300Y-98383333D02*
X111218633Y-98350000D01*
X111218633Y-98350000D02*
X111318633Y-98350000D01*
X111318633Y-98350000D02*
X111451966Y-98383333D01*
X111451966Y-98383333D02*
X111518633Y-98416667D01*
X111518633Y-98416667D02*
X111585300Y-98483333D01*
X111585300Y-98483333D02*
X111618633Y-98583333D01*
X111618633Y-98583333D02*
X111618633Y-98650000D01*
X111618633Y-98650000D02*
X111585300Y-98750000D01*
X111585300Y-98750000D02*
X111551966Y-98783333D01*
X111551966Y-98783333D02*
X111318633Y-98783333D01*
X111318633Y-98783333D02*
X111318633Y-98650000D01*
X115366666Y-91101966D02*
X115199999Y-91568633D01*
X115199999Y-91568633D02*
X115033332Y-91101966D01*
X114633333Y-90868633D02*
X114566666Y-90868633D01*
X114566666Y-90868633D02*
X114499999Y-90901966D01*
X114499999Y-90901966D02*
X114466666Y-90935300D01*
X114466666Y-90935300D02*
X114433333Y-91001966D01*
X114433333Y-91001966D02*
X114399999Y-91135300D01*
X114399999Y-91135300D02*
X114399999Y-91301966D01*
X114399999Y-91301966D02*
X114433333Y-91435300D01*
X114433333Y-91435300D02*
X114466666Y-91501966D01*
X114466666Y-91501966D02*
X114499999Y-91535300D01*
X114499999Y-91535300D02*
X114566666Y-91568633D01*
X114566666Y-91568633D02*
X114633333Y-91568633D01*
X114633333Y-91568633D02*
X114699999Y-91535300D01*
X114699999Y-91535300D02*
X114733333Y-91501966D01*
X114733333Y-91501966D02*
X114766666Y-91435300D01*
X114766666Y-91435300D02*
X114799999Y-91301966D01*
X114799999Y-91301966D02*
X114799999Y-91135300D01*
X114799999Y-91135300D02*
X114766666Y-91001966D01*
X114766666Y-91001966D02*
X114733333Y-90935300D01*
X114733333Y-90935300D02*
X114699999Y-90901966D01*
X114699999Y-90901966D02*
X114633333Y-90868633D01*
X114099999Y-91501966D02*
X114066666Y-91535300D01*
X114066666Y-91535300D02*
X114099999Y-91568633D01*
X114099999Y-91568633D02*
X114133332Y-91535300D01*
X114133332Y-91535300D02*
X114099999Y-91501966D01*
X114099999Y-91501966D02*
X114099999Y-91568633D01*
X113633333Y-90868633D02*
X113566666Y-90868633D01*
X113566666Y-90868633D02*
X113499999Y-90901966D01*
X113499999Y-90901966D02*
X113466666Y-90935300D01*
X113466666Y-90935300D02*
X113433333Y-91001966D01*
X113433333Y-91001966D02*
X113399999Y-91135300D01*
X113399999Y-91135300D02*
X113399999Y-91301966D01*
X113399999Y-91301966D02*
X113433333Y-91435300D01*
X113433333Y-91435300D02*
X113466666Y-91501966D01*
X113466666Y-91501966D02*
X113499999Y-91535300D01*
X113499999Y-91535300D02*
X113566666Y-91568633D01*
X113566666Y-91568633D02*
X113633333Y-91568633D01*
X113633333Y-91568633D02*
X113699999Y-91535300D01*
X113699999Y-91535300D02*
X113733333Y-91501966D01*
X113733333Y-91501966D02*
X113766666Y-91435300D01*
X113766666Y-91435300D02*
X113799999Y-91301966D01*
X113799999Y-91301966D02*
X113799999Y-91135300D01*
X113799999Y-91135300D02*
X113766666Y-91001966D01*
X113766666Y-91001966D02*
X113733333Y-90935300D01*
X113733333Y-90935300D02*
X113699999Y-90901966D01*
X113699999Y-90901966D02*
X113633333Y-90868633D01*
X113099999Y-91501966D02*
X113066666Y-91535300D01*
X113066666Y-91535300D02*
X113099999Y-91568633D01*
X113099999Y-91568633D02*
X113133332Y-91535300D01*
X113133332Y-91535300D02*
X113099999Y-91501966D01*
X113099999Y-91501966D02*
X113099999Y-91568633D01*
X112433333Y-90868633D02*
X112766666Y-90868633D01*
X112766666Y-90868633D02*
X112799999Y-91201966D01*
X112799999Y-91201966D02*
X112766666Y-91168633D01*
X112766666Y-91168633D02*
X112699999Y-91135300D01*
X112699999Y-91135300D02*
X112533333Y-91135300D01*
X112533333Y-91135300D02*
X112466666Y-91168633D01*
X112466666Y-91168633D02*
X112433333Y-91201966D01*
X112433333Y-91201966D02*
X112399999Y-91268633D01*
X112399999Y-91268633D02*
X112399999Y-91435300D01*
X112399999Y-91435300D02*
X112433333Y-91501966D01*
X112433333Y-91501966D02*
X112466666Y-91535300D01*
X112466666Y-91535300D02*
X112533333Y-91568633D01*
X112533333Y-91568633D02*
X112699999Y-91568633D01*
X112699999Y-91568633D02*
X112766666Y-91535300D01*
X112766666Y-91535300D02*
X112799999Y-91501966D01*
X111799999Y-91568633D02*
X111799999Y-91201966D01*
X111799999Y-91201966D02*
X111833332Y-91135300D01*
X111833332Y-91135300D02*
X111899999Y-91101966D01*
X111899999Y-91101966D02*
X112033332Y-91101966D01*
X112033332Y-91101966D02*
X112099999Y-91135300D01*
X111799999Y-91535300D02*
X111866666Y-91568633D01*
X111866666Y-91568633D02*
X112033332Y-91568633D01*
X112033332Y-91568633D02*
X112099999Y-91535300D01*
X112099999Y-91535300D02*
X112133332Y-91468633D01*
X112133332Y-91468633D02*
X112133332Y-91401966D01*
X112133332Y-91401966D02*
X112099999Y-91335300D01*
X112099999Y-91335300D02*
X112033332Y-91301966D01*
X112033332Y-91301966D02*
X111866666Y-91301966D01*
X111866666Y-91301966D02*
X111799999Y-91268633D01*
X120949999Y-91075800D02*
X120849999Y-91109133D01*
X120849999Y-91109133D02*
X120683333Y-91109133D01*
X120683333Y-91109133D02*
X120616666Y-91075800D01*
X120616666Y-91075800D02*
X120583333Y-91042466D01*
X120583333Y-91042466D02*
X120549999Y-90975800D01*
X120549999Y-90975800D02*
X120549999Y-90909133D01*
X120549999Y-90909133D02*
X120583333Y-90842466D01*
X120583333Y-90842466D02*
X120616666Y-90809133D01*
X120616666Y-90809133D02*
X120683333Y-90775800D01*
X120683333Y-90775800D02*
X120816666Y-90742466D01*
X120816666Y-90742466D02*
X120883333Y-90709133D01*
X120883333Y-90709133D02*
X120916666Y-90675800D01*
X120916666Y-90675800D02*
X120949999Y-90609133D01*
X120949999Y-90609133D02*
X120949999Y-90542466D01*
X120949999Y-90542466D02*
X120916666Y-90475800D01*
X120916666Y-90475800D02*
X120883333Y-90442466D01*
X120883333Y-90442466D02*
X120816666Y-90409133D01*
X120816666Y-90409133D02*
X120649999Y-90409133D01*
X120649999Y-90409133D02*
X120549999Y-90442466D01*
X120249999Y-91109133D02*
X120249999Y-90409133D01*
X120249999Y-90409133D02*
X120083332Y-90409133D01*
X120083332Y-90409133D02*
X119983332Y-90442466D01*
X119983332Y-90442466D02*
X119916666Y-90509133D01*
X119916666Y-90509133D02*
X119883332Y-90575800D01*
X119883332Y-90575800D02*
X119849999Y-90709133D01*
X119849999Y-90709133D02*
X119849999Y-90809133D01*
X119849999Y-90809133D02*
X119883332Y-90942466D01*
X119883332Y-90942466D02*
X119916666Y-91009133D01*
X119916666Y-91009133D02*
X119983332Y-91075800D01*
X119983332Y-91075800D02*
X120083332Y-91109133D01*
X120083332Y-91109133D02*
X120249999Y-91109133D01*
X119583332Y-90909133D02*
X119249999Y-90909133D01*
X119649999Y-91109133D02*
X119416666Y-90409133D01*
X119416666Y-90409133D02*
X119183332Y-91109133D01*
X122466666Y-110501966D02*
X122466666Y-110968633D01*
X122633333Y-110235300D02*
X122799999Y-110735300D01*
X122799999Y-110735300D02*
X122366666Y-110735300D01*
X121866666Y-110601966D02*
X121766666Y-110635300D01*
X121766666Y-110635300D02*
X121733332Y-110668633D01*
X121733332Y-110668633D02*
X121699999Y-110735300D01*
X121699999Y-110735300D02*
X121699999Y-110835300D01*
X121699999Y-110835300D02*
X121733332Y-110901966D01*
X121733332Y-110901966D02*
X121766666Y-110935300D01*
X121766666Y-110935300D02*
X121833332Y-110968633D01*
X121833332Y-110968633D02*
X122099999Y-110968633D01*
X122099999Y-110968633D02*
X122099999Y-110268633D01*
X122099999Y-110268633D02*
X121866666Y-110268633D01*
X121866666Y-110268633D02*
X121799999Y-110301966D01*
X121799999Y-110301966D02*
X121766666Y-110335300D01*
X121766666Y-110335300D02*
X121733332Y-110401966D01*
X121733332Y-110401966D02*
X121733332Y-110468633D01*
X121733332Y-110468633D02*
X121766666Y-110535300D01*
X121766666Y-110535300D02*
X121799999Y-110568633D01*
X121799999Y-110568633D02*
X121866666Y-110601966D01*
X121866666Y-110601966D02*
X122099999Y-110601966D01*
X108628571Y-104882895D02*
X108847619Y-104501942D01*
X109085714Y-104882895D02*
X108985714Y-104082895D01*
X108985714Y-104082895D02*
X108680952Y-104082895D01*
X108680952Y-104082895D02*
X108609524Y-104120990D01*
X108609524Y-104120990D02*
X108576190Y-104159085D01*
X108576190Y-104159085D02*
X108547619Y-104235276D01*
X108547619Y-104235276D02*
X108561905Y-104349561D01*
X108561905Y-104349561D02*
X108609524Y-104425752D01*
X108609524Y-104425752D02*
X108652381Y-104463847D01*
X108652381Y-104463847D02*
X108733333Y-104501942D01*
X108733333Y-104501942D02*
X109038095Y-104501942D01*
X107976190Y-104844800D02*
X108057143Y-104882895D01*
X108057143Y-104882895D02*
X108209524Y-104882895D01*
X108209524Y-104882895D02*
X108280952Y-104844800D01*
X108280952Y-104844800D02*
X108309524Y-104768609D01*
X108309524Y-104768609D02*
X108271429Y-104463847D01*
X108271429Y-104463847D02*
X108223809Y-104387657D01*
X108223809Y-104387657D02*
X108142857Y-104349561D01*
X108142857Y-104349561D02*
X107990476Y-104349561D01*
X107990476Y-104349561D02*
X107919048Y-104387657D01*
X107919048Y-104387657D02*
X107890476Y-104463847D01*
X107890476Y-104463847D02*
X107900000Y-104540038D01*
X107900000Y-104540038D02*
X108290476Y-104616228D01*
X107633334Y-104844800D02*
X107523810Y-104882895D01*
X107523810Y-104882895D02*
X107333334Y-104882895D01*
X107333334Y-104882895D02*
X107252381Y-104844800D01*
X107252381Y-104844800D02*
X107209524Y-104806704D01*
X107209524Y-104806704D02*
X107161905Y-104730514D01*
X107161905Y-104730514D02*
X107152381Y-104654323D01*
X107152381Y-104654323D02*
X107180953Y-104578133D01*
X107180953Y-104578133D02*
X107214286Y-104540038D01*
X107214286Y-104540038D02*
X107285715Y-104501942D01*
X107285715Y-104501942D02*
X107433334Y-104463847D01*
X107433334Y-104463847D02*
X107504762Y-104425752D01*
X107504762Y-104425752D02*
X107538095Y-104387657D01*
X107538095Y-104387657D02*
X107566667Y-104311466D01*
X107566667Y-104311466D02*
X107557143Y-104235276D01*
X107557143Y-104235276D02*
X107509524Y-104159085D01*
X107509524Y-104159085D02*
X107466667Y-104120990D01*
X107466667Y-104120990D02*
X107385715Y-104082895D01*
X107385715Y-104082895D02*
X107195238Y-104082895D01*
X107195238Y-104082895D02*
X107085715Y-104120990D01*
X106428571Y-104349561D02*
X106495238Y-104882895D01*
X106771429Y-104349561D02*
X106823810Y-104768609D01*
X106823810Y-104768609D02*
X106795238Y-104844800D01*
X106795238Y-104844800D02*
X106723810Y-104882895D01*
X106723810Y-104882895D02*
X106609524Y-104882895D01*
X106609524Y-104882895D02*
X106528571Y-104844800D01*
X106528571Y-104844800D02*
X106485714Y-104806704D01*
X106114285Y-104882895D02*
X106047619Y-104349561D01*
X106057142Y-104425752D02*
X106014285Y-104387657D01*
X106014285Y-104387657D02*
X105933333Y-104349561D01*
X105933333Y-104349561D02*
X105819047Y-104349561D01*
X105819047Y-104349561D02*
X105747619Y-104387657D01*
X105747619Y-104387657D02*
X105719047Y-104463847D01*
X105719047Y-104463847D02*
X105771428Y-104882895D01*
X105719047Y-104463847D02*
X105671428Y-104387657D01*
X105671428Y-104387657D02*
X105590476Y-104349561D01*
X105590476Y-104349561D02*
X105476190Y-104349561D01*
X105476190Y-104349561D02*
X105404761Y-104387657D01*
X105404761Y-104387657D02*
X105376190Y-104463847D01*
X105376190Y-104463847D02*
X105428571Y-104882895D01*
X105047618Y-104882895D02*
X104980952Y-104349561D01*
X104990475Y-104425752D02*
X104947618Y-104387657D01*
X104947618Y-104387657D02*
X104866666Y-104349561D01*
X104866666Y-104349561D02*
X104752380Y-104349561D01*
X104752380Y-104349561D02*
X104680952Y-104387657D01*
X104680952Y-104387657D02*
X104652380Y-104463847D01*
X104652380Y-104463847D02*
X104704761Y-104882895D01*
X104652380Y-104463847D02*
X104604761Y-104387657D01*
X104604761Y-104387657D02*
X104523809Y-104349561D01*
X104523809Y-104349561D02*
X104409523Y-104349561D01*
X104409523Y-104349561D02*
X104338094Y-104387657D01*
X104338094Y-104387657D02*
X104309523Y-104463847D01*
X104309523Y-104463847D02*
X104361904Y-104882895D01*
X103980951Y-104882895D02*
X103914285Y-104349561D01*
X103880951Y-104082895D02*
X103923808Y-104120990D01*
X103923808Y-104120990D02*
X103890475Y-104159085D01*
X103890475Y-104159085D02*
X103847618Y-104120990D01*
X103847618Y-104120990D02*
X103880951Y-104082895D01*
X103880951Y-104082895D02*
X103890475Y-104159085D01*
X103647618Y-104349561D02*
X103342856Y-104349561D01*
X103499999Y-104082895D02*
X103585714Y-104768609D01*
X103585714Y-104768609D02*
X103557142Y-104844800D01*
X103557142Y-104844800D02*
X103485714Y-104882895D01*
X103485714Y-104882895D02*
X103409523Y-104882895D01*
X121133333Y-98178133D02*
X121133333Y-97478133D01*
X120666667Y-97478133D02*
X120533333Y-97478133D01*
X120533333Y-97478133D02*
X120466667Y-97511466D01*
X120466667Y-97511466D02*
X120400000Y-97578133D01*
X120400000Y-97578133D02*
X120366667Y-97711466D01*
X120366667Y-97711466D02*
X120366667Y-97944800D01*
X120366667Y-97944800D02*
X120400000Y-98078133D01*
X120400000Y-98078133D02*
X120466667Y-98144800D01*
X120466667Y-98144800D02*
X120533333Y-98178133D01*
X120533333Y-98178133D02*
X120666667Y-98178133D01*
X120666667Y-98178133D02*
X120733333Y-98144800D01*
X120733333Y-98144800D02*
X120800000Y-98078133D01*
X120800000Y-98078133D02*
X120833333Y-97944800D01*
X120833333Y-97944800D02*
X120833333Y-97711466D01*
X120833333Y-97711466D02*
X120800000Y-97578133D01*
X120800000Y-97578133D02*
X120733333Y-97511466D01*
X120733333Y-97511466D02*
X120666667Y-97478133D01*
X120100000Y-97544800D02*
X120066667Y-97511466D01*
X120066667Y-97511466D02*
X120000000Y-97478133D01*
X120000000Y-97478133D02*
X119833334Y-97478133D01*
X119833334Y-97478133D02*
X119766667Y-97511466D01*
X119766667Y-97511466D02*
X119733334Y-97544800D01*
X119733334Y-97544800D02*
X119700000Y-97611466D01*
X119700000Y-97611466D02*
X119700000Y-97678133D01*
X119700000Y-97678133D02*
X119733334Y-97778133D01*
X119733334Y-97778133D02*
X120133334Y-98178133D01*
X120133334Y-98178133D02*
X119700000Y-98178133D01*
X119266667Y-97478133D02*
X119200000Y-97478133D01*
X119200000Y-97478133D02*
X119133333Y-97511466D01*
X119133333Y-97511466D02*
X119100000Y-97544800D01*
X119100000Y-97544800D02*
X119066667Y-97611466D01*
X119066667Y-97611466D02*
X119033333Y-97744800D01*
X119033333Y-97744800D02*
X119033333Y-97911466D01*
X119033333Y-97911466D02*
X119066667Y-98044800D01*
X119066667Y-98044800D02*
X119100000Y-98111466D01*
X119100000Y-98111466D02*
X119133333Y-98144800D01*
X119133333Y-98144800D02*
X119200000Y-98178133D01*
X119200000Y-98178133D02*
X119266667Y-98178133D01*
X119266667Y-98178133D02*
X119333333Y-98144800D01*
X119333333Y-98144800D02*
X119366667Y-98111466D01*
X119366667Y-98111466D02*
X119400000Y-98044800D01*
X119400000Y-98044800D02*
X119433333Y-97911466D01*
X119433333Y-97911466D02*
X119433333Y-97744800D01*
X119433333Y-97744800D02*
X119400000Y-97611466D01*
X119400000Y-97611466D02*
X119366667Y-97544800D01*
X119366667Y-97544800D02*
X119333333Y-97511466D01*
X119333333Y-97511466D02*
X119266667Y-97478133D01*
X112358349Y-101560324D02*
X112215492Y-101607943D01*
X112215492Y-101607943D02*
X111977397Y-101607943D01*
X111977397Y-101607943D02*
X111882159Y-101560324D01*
X111882159Y-101560324D02*
X111834540Y-101512704D01*
X111834540Y-101512704D02*
X111786921Y-101417466D01*
X111786921Y-101417466D02*
X111786921Y-101322228D01*
X111786921Y-101322228D02*
X111834540Y-101226990D01*
X111834540Y-101226990D02*
X111882159Y-101179371D01*
X111882159Y-101179371D02*
X111977397Y-101131752D01*
X111977397Y-101131752D02*
X112167873Y-101084133D01*
X112167873Y-101084133D02*
X112263111Y-101036514D01*
X112263111Y-101036514D02*
X112310730Y-100988895D01*
X112310730Y-100988895D02*
X112358349Y-100893657D01*
X112358349Y-100893657D02*
X112358349Y-100798419D01*
X112358349Y-100798419D02*
X112310730Y-100703181D01*
X112310730Y-100703181D02*
X112263111Y-100655562D01*
X112263111Y-100655562D02*
X112167873Y-100607943D01*
X112167873Y-100607943D02*
X111929778Y-100607943D01*
X111929778Y-100607943D02*
X111786921Y-100655562D01*
X111215492Y-101607943D02*
X111310730Y-101560324D01*
X111310730Y-101560324D02*
X111358349Y-101465085D01*
X111358349Y-101465085D02*
X111358349Y-100607943D01*
X110834539Y-101607943D02*
X110834539Y-100941276D01*
X110834539Y-100607943D02*
X110882158Y-100655562D01*
X110882158Y-100655562D02*
X110834539Y-100703181D01*
X110834539Y-100703181D02*
X110786920Y-100655562D01*
X110786920Y-100655562D02*
X110834539Y-100607943D01*
X110834539Y-100607943D02*
X110834539Y-100703181D01*
X110358349Y-101607943D02*
X110358349Y-100941276D01*
X110358349Y-101036514D02*
X110310730Y-100988895D01*
X110310730Y-100988895D02*
X110215492Y-100941276D01*
X110215492Y-100941276D02*
X110072635Y-100941276D01*
X110072635Y-100941276D02*
X109977397Y-100988895D01*
X109977397Y-100988895D02*
X109929778Y-101084133D01*
X109929778Y-101084133D02*
X109929778Y-101607943D01*
X109929778Y-101084133D02*
X109882159Y-100988895D01*
X109882159Y-100988895D02*
X109786921Y-100941276D01*
X109786921Y-100941276D02*
X109644064Y-100941276D01*
X109644064Y-100941276D02*
X109548825Y-100988895D01*
X109548825Y-100988895D02*
X109501206Y-101084133D01*
X109501206Y-101084133D02*
X109501206Y-101607943D01*
X108644064Y-101560324D02*
X108739302Y-101607943D01*
X108739302Y-101607943D02*
X108929778Y-101607943D01*
X108929778Y-101607943D02*
X109025016Y-101560324D01*
X109025016Y-101560324D02*
X109072635Y-101465085D01*
X109072635Y-101465085D02*
X109072635Y-101084133D01*
X109072635Y-101084133D02*
X109025016Y-100988895D01*
X109025016Y-100988895D02*
X108929778Y-100941276D01*
X108929778Y-100941276D02*
X108739302Y-100941276D01*
X108739302Y-100941276D02*
X108644064Y-100988895D01*
X108644064Y-100988895D02*
X108596445Y-101084133D01*
X108596445Y-101084133D02*
X108596445Y-101179371D01*
X108596445Y-101179371D02*
X109072635Y-101274609D01*
D11*
X112600000Y-108150000D02*
X115000000Y-108150000D01*
X112600000Y-110550000D02*
X112600000Y-108150000D01*
X115000000Y-108150000D02*
X115000000Y-110550000D01*
X115000000Y-110550000D02*
X112600000Y-110550000D01*
X116000000Y-108150000D02*
X118400000Y-108150000D01*
X116000000Y-110550000D02*
X116000000Y-108150000D01*
X118400000Y-108150000D02*
X118400000Y-110550000D01*
X118400000Y-110550000D02*
X116000000Y-110550000D01*
X118900000Y-94600000D02*
X121300000Y-94600000D01*
X118900000Y-97000000D02*
X118900000Y-94600000D01*
X121300000Y-94600000D02*
X121300000Y-97000000D01*
X121300000Y-97000000D02*
X118900000Y-97000000D01*
X121950000Y-91600000D02*
X124350000Y-91600000D01*
X121950000Y-94000000D02*
X121950000Y-91600000D01*
X124350000Y-91600000D02*
X124350000Y-94000000D01*
X124350000Y-94000000D02*
X121950000Y-94000000D01*
X104950000Y-106900000D02*
X107350000Y-106900000D01*
X104950000Y-109300000D02*
X104950000Y-106900000D01*
X107350000Y-106900000D02*
X107350000Y-109300000D01*
X107350000Y-109300000D02*
X104950000Y-109300000D01*
X121950000Y-94600000D02*
X124350000Y-94600000D01*
X121950000Y-97000000D02*
X121950000Y-94600000D01*
X124350000Y-94600000D02*
X124350000Y-97000000D01*
X124350000Y-97000000D02*
X121950000Y-97000000D01*
D12*
G36*
X113686685Y-101113120D02*
G01*
X113681965Y-101130366D01*
X113658526Y-101153801D01*
X113614408Y-101185353D01*
X113547652Y-101226948D01*
X113492475Y-101259104D01*
X113444799Y-101285059D01*
X113410205Y-101301875D01*
X113393775Y-101306910D01*
X113387119Y-101301983D01*
X113380097Y-101280041D01*
X113380942Y-101277176D01*
X113397592Y-101259678D01*
X113431274Y-101234063D01*
X113476359Y-101203741D01*
X113527220Y-101172120D01*
X113578227Y-101142611D01*
X113623753Y-101118624D01*
X113658169Y-101103569D01*
X113675848Y-101100856D01*
X113686685Y-101113120D01*
G37*
G36*
X113378122Y-100198728D02*
G01*
X113425516Y-100216135D01*
X113493641Y-100247014D01*
X113513422Y-100256784D01*
X113577483Y-100293860D01*
X113628414Y-100331870D01*
X113662037Y-100367347D01*
X113674173Y-100396823D01*
X113672907Y-100408450D01*
X113659847Y-100421448D01*
X113634643Y-100412673D01*
X113599782Y-100382602D01*
X113591450Y-100374920D01*
X113554246Y-100348507D01*
X113503190Y-100318790D01*
X113446765Y-100290855D01*
X113408563Y-100273066D01*
X113363848Y-100249040D01*
X113339554Y-100229888D01*
X113332224Y-100213269D01*
X113334554Y-100202034D01*
X113348716Y-100194219D01*
X113378122Y-100198728D01*
G37*
G36*
X116244973Y-101007639D02*
G01*
X116285705Y-101025777D01*
X116329601Y-101052076D01*
X116368734Y-101082546D01*
X116401212Y-101114695D01*
X116437540Y-101154697D01*
X116472220Y-101196110D01*
X116500975Y-101233603D01*
X116519526Y-101261847D01*
X116523597Y-101275510D01*
X116505968Y-101284297D01*
X116475395Y-101274644D01*
X116439310Y-101240310D01*
X116438363Y-101239163D01*
X116370274Y-101163920D01*
X116304189Y-101104496D01*
X116245021Y-101065314D01*
X116236452Y-101060814D01*
X116201045Y-101036702D01*
X116192218Y-101017243D01*
X116210112Y-101002692D01*
X116215330Y-101001653D01*
X116244973Y-101007639D01*
G37*
G36*
X113644965Y-100698843D02*
G01*
X113678898Y-100701467D01*
X113696498Y-100706471D01*
X113701529Y-100714161D01*
X113700943Y-100721174D01*
X113692022Y-100742303D01*
X113691549Y-100742655D01*
X113672717Y-100745884D01*
X113632612Y-100747968D01*
X113576785Y-100748732D01*
X113510789Y-100748002D01*
X113440660Y-100745979D01*
X113390142Y-100743057D01*
X113359067Y-100738748D01*
X113343390Y-100732479D01*
X113339063Y-100723677D01*
X113339112Y-100722539D01*
X113344399Y-100714256D01*
X113361201Y-100708326D01*
X113393478Y-100704218D01*
X113445189Y-100701402D01*
X113520296Y-100699344D01*
X113590939Y-100698289D01*
X113644965Y-100698843D01*
G37*
G36*
X116299792Y-100663533D02*
G01*
X116356081Y-100665872D01*
X116420714Y-100669709D01*
X116487747Y-100674610D01*
X116551232Y-100680142D01*
X116605222Y-100685871D01*
X116643772Y-100691365D01*
X116660935Y-100696188D01*
X116664772Y-100701926D01*
X116662989Y-100723389D01*
X116648720Y-100728396D01*
X116611763Y-100731624D01*
X116557690Y-100732554D01*
X116491809Y-100731295D01*
X116419429Y-100727955D01*
X116345859Y-100722645D01*
X116276408Y-100715471D01*
X116247462Y-100709230D01*
X116222329Y-100695469D01*
X116217322Y-100679431D01*
X116235736Y-100665192D01*
X116236038Y-100665083D01*
X116257796Y-100663126D01*
X116299792Y-100663533D01*
G37*
G36*
X116557561Y-100138330D02*
G01*
X116564177Y-100148728D01*
X116559845Y-100177269D01*
X116544904Y-100195680D01*
X116511066Y-100227432D01*
X116464814Y-100266092D01*
X116411709Y-100307217D01*
X116357312Y-100346367D01*
X116307184Y-100379098D01*
X116276841Y-100396331D01*
X116239183Y-100414315D01*
X116214857Y-100421712D01*
X116199731Y-100420605D01*
X116190520Y-100409563D01*
X116203391Y-100388370D01*
X116237021Y-100358772D01*
X116290086Y-100322514D01*
X116293033Y-100320661D01*
X116352828Y-100280231D01*
X116414760Y-100234092D01*
X116465875Y-100191868D01*
X116476348Y-100182591D01*
X116516673Y-100149974D01*
X116542723Y-100135816D01*
X116557561Y-100138330D01*
G37*
G36*
X114794413Y-99622140D02*
G01*
X114773892Y-99719002D01*
X114729526Y-99804598D01*
X114663230Y-99875962D01*
X114576920Y-99930129D01*
X114560212Y-99937464D01*
X114519918Y-99949950D01*
X114474052Y-99954893D01*
X114411906Y-99953829D01*
X114365434Y-99950675D01*
X114318470Y-99942858D01*
X114277994Y-99927775D01*
X114232079Y-99901988D01*
X114170013Y-99855473D01*
X114123818Y-99796994D01*
X114112611Y-99777666D01*
X114093525Y-99749810D01*
X114081379Y-99738863D01*
X114080133Y-99738534D01*
X114073527Y-99723128D01*
X114070835Y-99691797D01*
X114070783Y-99687531D01*
X114066671Y-99654603D01*
X114057997Y-99636798D01*
X114051749Y-99625252D01*
X114053064Y-99598376D01*
X114054342Y-99591742D01*
X114140439Y-99591742D01*
X114141330Y-99647248D01*
X114145579Y-99686700D01*
X114152617Y-99704491D01*
X114157388Y-99708425D01*
X114160558Y-99723864D01*
X114163198Y-99738141D01*
X114183377Y-99763377D01*
X114216334Y-99793660D01*
X114256343Y-99824265D01*
X114297678Y-99850464D01*
X114334614Y-99867533D01*
X114357025Y-99874487D01*
X114397255Y-99884499D01*
X114423520Y-99887734D01*
X114429495Y-99887304D01*
X114439487Y-99885085D01*
X114423042Y-99879892D01*
X114410373Y-99874647D01*
X114399106Y-99860962D01*
X114396924Y-99855244D01*
X114378940Y-99848287D01*
X114371864Y-99847326D01*
X114347811Y-99827906D01*
X114328669Y-99786788D01*
X114315968Y-99728305D01*
X114311243Y-99656795D01*
X114311277Y-99646350D01*
X114317527Y-99568987D01*
X114319679Y-99562384D01*
X114473639Y-99562384D01*
X114476227Y-99595244D01*
X114489006Y-99608316D01*
X114517741Y-99615761D01*
X114531376Y-99615035D01*
X114546467Y-99605486D01*
X114547053Y-99578147D01*
X114538295Y-99550535D01*
X114513690Y-99536390D01*
X114489808Y-99540481D01*
X114473639Y-99562384D01*
X114319679Y-99562384D01*
X114335975Y-99512380D01*
X114368781Y-99472233D01*
X114418104Y-99444254D01*
X114428991Y-99439967D01*
X114462081Y-99430020D01*
X114488523Y-99432175D01*
X114522825Y-99446781D01*
X114567840Y-99479135D01*
X114605588Y-99534394D01*
X114618245Y-99578147D01*
X114625713Y-99603961D01*
X114627023Y-99683354D01*
X114608324Y-99768092D01*
X114582209Y-99845195D01*
X114620691Y-99816744D01*
X114626210Y-99812370D01*
X114662315Y-99770951D01*
X114694832Y-99714928D01*
X114718311Y-99655237D01*
X114727301Y-99602817D01*
X114720171Y-99533631D01*
X114696869Y-99464456D01*
X114660093Y-99412519D01*
X114631000Y-99385634D01*
X114585846Y-99348283D01*
X114552288Y-99326648D01*
X114533639Y-99323073D01*
X114529869Y-99324590D01*
X114522208Y-99315681D01*
X114520804Y-99313119D01*
X114499550Y-99307630D01*
X114454915Y-99305831D01*
X114389719Y-99307753D01*
X114306780Y-99313424D01*
X114298988Y-99316340D01*
X114289682Y-99335363D01*
X114287565Y-99344886D01*
X114271269Y-99355880D01*
X114257702Y-99361964D01*
X114230252Y-99383894D01*
X114197867Y-99416301D01*
X114175494Y-99441482D01*
X114156824Y-99467440D01*
X114146757Y-99494334D01*
X114142321Y-99530970D01*
X114140543Y-99586154D01*
X114140439Y-99591742D01*
X114054342Y-99591742D01*
X114058883Y-99568175D01*
X114063491Y-99526854D01*
X114076371Y-99475251D01*
X114106592Y-99416172D01*
X114149483Y-99358930D01*
X114151843Y-99356265D01*
X114171989Y-99330748D01*
X114180258Y-99315068D01*
X114188766Y-99303421D01*
X114217490Y-99285875D01*
X114259588Y-99267120D01*
X114307840Y-99249972D01*
X114355021Y-99237248D01*
X114393910Y-99231763D01*
X114493813Y-99236032D01*
X114580527Y-99257416D01*
X114652601Y-99297642D01*
X114713972Y-99358265D01*
X114718715Y-99364239D01*
X114764121Y-99434442D01*
X114788473Y-99506482D01*
X114795634Y-99591385D01*
X114795180Y-99602817D01*
X114794413Y-99622140D01*
G37*
G36*
X116011753Y-99622140D02*
G01*
X115991232Y-99719002D01*
X115946866Y-99804598D01*
X115880570Y-99875962D01*
X115794259Y-99930129D01*
X115777552Y-99937464D01*
X115737258Y-99949950D01*
X115691392Y-99954893D01*
X115629246Y-99953829D01*
X115582774Y-99950675D01*
X115535810Y-99942858D01*
X115495333Y-99927775D01*
X115449418Y-99901988D01*
X115387353Y-99855473D01*
X115376274Y-99841448D01*
X115479666Y-99841448D01*
X115486505Y-99848287D01*
X115493344Y-99841448D01*
X115486505Y-99834609D01*
X115479666Y-99841448D01*
X115376274Y-99841448D01*
X115341158Y-99796994D01*
X115329950Y-99777666D01*
X115310865Y-99749810D01*
X115298719Y-99738863D01*
X115297473Y-99738534D01*
X115290867Y-99723128D01*
X115288174Y-99691797D01*
X115288122Y-99687531D01*
X115284011Y-99654603D01*
X115275337Y-99636798D01*
X115269088Y-99625252D01*
X115270404Y-99598376D01*
X115273612Y-99581726D01*
X115357904Y-99581726D01*
X115358415Y-99635633D01*
X115363053Y-99681447D01*
X115371368Y-99706025D01*
X115378401Y-99716897D01*
X115376073Y-99725185D01*
X115375169Y-99728411D01*
X115386817Y-99745743D01*
X115411276Y-99773058D01*
X115411365Y-99773149D01*
X115445321Y-99805155D01*
X115466694Y-99819096D01*
X115473470Y-99814315D01*
X115463636Y-99790155D01*
X115462954Y-99788838D01*
X115454678Y-99758596D01*
X115448755Y-99711372D01*
X115446427Y-99656795D01*
X115446469Y-99646442D01*
X115452772Y-99569034D01*
X115454942Y-99562384D01*
X115608911Y-99562384D01*
X115611499Y-99595244D01*
X115624278Y-99608316D01*
X115653013Y-99615761D01*
X115666648Y-99615035D01*
X115681739Y-99605486D01*
X115682325Y-99578147D01*
X115673567Y-99550535D01*
X115648962Y-99536390D01*
X115625080Y-99540481D01*
X115608911Y-99562384D01*
X115454942Y-99562384D01*
X115471251Y-99512395D01*
X115504066Y-99472233D01*
X115553376Y-99444254D01*
X115564533Y-99439863D01*
X115597528Y-99430003D01*
X115624060Y-99432278D01*
X115658714Y-99447081D01*
X115695327Y-99471656D01*
X115735578Y-99524061D01*
X115753846Y-99578147D01*
X115758521Y-99591989D01*
X115762930Y-99671163D01*
X115747579Y-99757303D01*
X115736503Y-99791422D01*
X115723378Y-99822589D01*
X115713902Y-99834609D01*
X115699225Y-99841448D01*
X115696905Y-99842529D01*
X115671158Y-99861965D01*
X115653411Y-99878219D01*
X115649793Y-99887114D01*
X115665645Y-99888241D01*
X115680880Y-99886745D01*
X115739639Y-99870132D01*
X115801151Y-99839786D01*
X115853780Y-99801098D01*
X115891249Y-99757106D01*
X115925161Y-99688276D01*
X115941126Y-99612995D01*
X115938753Y-99537670D01*
X115917652Y-99468709D01*
X115877433Y-99412519D01*
X115848340Y-99385634D01*
X115803186Y-99348283D01*
X115769628Y-99326648D01*
X115750979Y-99323073D01*
X115747209Y-99324590D01*
X115739548Y-99315681D01*
X115738144Y-99313119D01*
X115716890Y-99307630D01*
X115672255Y-99305831D01*
X115607058Y-99307753D01*
X115524119Y-99313424D01*
X115516328Y-99316340D01*
X115507022Y-99335363D01*
X115504905Y-99344886D01*
X115488609Y-99355880D01*
X115475074Y-99361941D01*
X115447638Y-99383846D01*
X115415269Y-99416233D01*
X115396273Y-99437497D01*
X115375862Y-99464674D01*
X115364787Y-99491647D01*
X115359862Y-99527602D01*
X115357904Y-99581726D01*
X115273612Y-99581726D01*
X115276223Y-99568175D01*
X115280831Y-99526854D01*
X115293711Y-99475251D01*
X115323931Y-99416172D01*
X115366823Y-99358930D01*
X115369182Y-99356265D01*
X115389328Y-99330748D01*
X115397598Y-99315068D01*
X115406106Y-99303421D01*
X115434829Y-99285875D01*
X115476928Y-99267120D01*
X115525179Y-99249972D01*
X115572361Y-99237248D01*
X115611249Y-99231763D01*
X115711153Y-99236032D01*
X115797867Y-99257416D01*
X115869941Y-99297642D01*
X115931311Y-99358265D01*
X115936055Y-99364239D01*
X115981461Y-99434442D01*
X116005813Y-99506482D01*
X116012973Y-99591385D01*
X116012116Y-99612995D01*
X116011753Y-99622140D01*
G37*
G36*
X116888573Y-98992790D02*
G01*
X116891342Y-99043120D01*
X116897378Y-99080238D01*
X116907998Y-99111748D01*
X116924520Y-99145253D01*
X116926749Y-99149405D01*
X117008310Y-99308522D01*
X117073859Y-99453545D01*
X117125484Y-99590689D01*
X117165279Y-99726170D01*
X117195331Y-99866203D01*
X117217734Y-100017003D01*
X117223947Y-100085806D01*
X117228186Y-100193410D01*
X117228171Y-100299847D01*
X117228169Y-100312878D01*
X117224178Y-100436396D01*
X117216494Y-100556148D01*
X117205400Y-100664322D01*
X117191178Y-100753102D01*
X117153514Y-100908225D01*
X117074433Y-101139541D01*
X116970496Y-101360176D01*
X116842471Y-101568581D01*
X116691126Y-101763203D01*
X116676018Y-101780609D01*
X116641122Y-101821719D01*
X116621317Y-101848314D01*
X116614351Y-101864924D01*
X116617973Y-101876078D01*
X116629931Y-101886305D01*
X116635620Y-101890546D01*
X116667424Y-101915364D01*
X116703203Y-101944436D01*
X116714763Y-101953705D01*
X116743713Y-101973970D01*
X116761437Y-101982051D01*
X116770655Y-101984945D01*
X116798421Y-101999403D01*
X116834860Y-102021928D01*
X116896710Y-102056551D01*
X117002159Y-102097575D01*
X117120924Y-102127605D01*
X117245852Y-102145714D01*
X117369789Y-102150975D01*
X117485581Y-102142461D01*
X117586074Y-102119247D01*
X117610485Y-102110404D01*
X117715760Y-102061308D01*
X117813944Y-101998901D01*
X117894910Y-101929406D01*
X117945538Y-101859182D01*
X117979500Y-101768424D01*
X117994618Y-101660869D01*
X117990650Y-101538282D01*
X117967354Y-101402430D01*
X117954966Y-101350809D01*
X117937945Y-101291066D01*
X117918751Y-101244975D01*
X117892976Y-101204628D01*
X117856210Y-101162119D01*
X117804045Y-101109539D01*
X117733576Y-101044368D01*
X117666224Y-100993299D01*
X117603329Y-100960130D01*
X117539616Y-100942132D01*
X117469811Y-100936574D01*
X117429071Y-100937812D01*
X117354803Y-100950778D01*
X117301147Y-100978581D01*
X117265909Y-101022142D01*
X117255849Y-101047216D01*
X117241088Y-101099534D01*
X117226855Y-101164538D01*
X117214761Y-101233758D01*
X117206414Y-101298721D01*
X117203425Y-101350955D01*
X117203622Y-101363471D01*
X117213030Y-101450898D01*
X117235304Y-101523695D01*
X117268856Y-101576384D01*
X117324862Y-101622836D01*
X117389094Y-101654417D01*
X117453197Y-101667251D01*
X117510233Y-101658961D01*
X117523795Y-101651175D01*
X117549460Y-101617975D01*
X117564113Y-101570926D01*
X117564290Y-101518998D01*
X117561990Y-101477633D01*
X117572115Y-101455623D01*
X117573833Y-101454635D01*
X117594364Y-101455074D01*
X117610540Y-101475950D01*
X117621148Y-101510994D01*
X117624977Y-101553936D01*
X117620815Y-101598507D01*
X117607450Y-101638440D01*
X117602664Y-101646947D01*
X117562929Y-101691989D01*
X117510728Y-101723718D01*
X117456133Y-101735663D01*
X117449099Y-101735399D01*
X117396672Y-101723580D01*
X117335873Y-101697545D01*
X117275957Y-101661899D01*
X117226183Y-101621248D01*
X117205144Y-101598226D01*
X117179439Y-101559425D01*
X117162411Y-101513664D01*
X117152962Y-101455928D01*
X117149995Y-101381203D01*
X117152410Y-101284474D01*
X117156094Y-101220649D01*
X117167959Y-101118294D01*
X117187678Y-101037977D01*
X117217004Y-100976539D01*
X117257689Y-100930822D01*
X117311485Y-100897665D01*
X117380146Y-100873911D01*
X117458658Y-100863000D01*
X117555976Y-100874280D01*
X117655491Y-100911753D01*
X117756071Y-100974967D01*
X117856581Y-101063471D01*
X117883697Y-101091236D01*
X117933002Y-101146174D01*
X117968704Y-101196258D01*
X117995132Y-101249475D01*
X118016617Y-101313816D01*
X118037488Y-101397271D01*
X118050606Y-101465587D01*
X118062230Y-101599347D01*
X118055673Y-101728058D01*
X118031049Y-101843925D01*
X118030111Y-101846839D01*
X117992642Y-101921107D01*
X117932100Y-101992850D01*
X117852608Y-102059477D01*
X117758286Y-102118400D01*
X117653257Y-102167029D01*
X117541642Y-102202775D01*
X117427564Y-102223048D01*
X117345296Y-102225858D01*
X117241841Y-102218177D01*
X117132796Y-102200598D01*
X117024736Y-102174722D01*
X116924238Y-102142153D01*
X116837879Y-102104494D01*
X116772235Y-102063346D01*
X116742877Y-102040552D01*
X116685189Y-101997924D01*
X116631583Y-101960514D01*
X116559321Y-101912241D01*
X116433252Y-102018046D01*
X116357226Y-102079493D01*
X116156962Y-102219511D01*
X115948575Y-102334017D01*
X115729996Y-102423916D01*
X115499154Y-102490112D01*
X115253979Y-102533511D01*
X115225727Y-102536263D01*
X115157637Y-102539554D01*
X115073067Y-102540847D01*
X114978942Y-102540273D01*
X114882187Y-102537965D01*
X114789728Y-102534054D01*
X114708489Y-102528671D01*
X114645395Y-102521948D01*
X114532370Y-102503002D01*
X114298903Y-102444250D01*
X114075650Y-102360302D01*
X113861712Y-102250791D01*
X113656191Y-102115346D01*
X113632797Y-102097574D01*
X113550471Y-102028606D01*
X113460247Y-101945057D01*
X113367986Y-101852921D01*
X113279547Y-101758193D01*
X113200794Y-101666868D01*
X113137586Y-101584939D01*
X113075306Y-101490262D01*
X113005381Y-101368582D01*
X112940129Y-101239774D01*
X112884136Y-101112954D01*
X112841985Y-100997237D01*
X112837499Y-100982794D01*
X112780760Y-100753829D01*
X112747525Y-100516731D01*
X112738574Y-100295781D01*
X112818761Y-100295781D01*
X112820202Y-100414830D01*
X112824903Y-100526893D01*
X112832866Y-100625244D01*
X112844094Y-100703160D01*
X112892946Y-100907310D01*
X112966456Y-101121697D01*
X113060993Y-101322071D01*
X113178105Y-101511234D01*
X113319336Y-101691987D01*
X113486234Y-101867134D01*
X113532895Y-101910923D01*
X113718728Y-102064864D01*
X113912495Y-102193191D01*
X114115874Y-102296790D01*
X114330544Y-102376548D01*
X114558183Y-102433349D01*
X114565621Y-102434763D01*
X114663669Y-102449146D01*
X114779270Y-102459967D01*
X114903579Y-102466872D01*
X115027750Y-102469510D01*
X115142939Y-102467526D01*
X115240301Y-102460568D01*
X115373587Y-102441235D01*
X115602499Y-102387133D01*
X115824203Y-102308292D01*
X116035660Y-102206067D01*
X116233831Y-102081812D01*
X116415675Y-101936882D01*
X116496810Y-101864135D01*
X116443031Y-101824432D01*
X116283319Y-101698153D01*
X116111926Y-101541803D01*
X115958802Y-101378451D01*
X115828454Y-101212585D01*
X115827255Y-101210899D01*
X115798492Y-101173302D01*
X115774914Y-101147430D01*
X115761522Y-101138799D01*
X115753829Y-101145836D01*
X115736433Y-101171890D01*
X115715940Y-101209899D01*
X115702532Y-101236713D01*
X115682834Y-101274664D01*
X115669698Y-101298152D01*
X115662490Y-101310869D01*
X115644961Y-101344893D01*
X115624448Y-101387059D01*
X115608109Y-101419513D01*
X115542111Y-101521850D01*
X115463377Y-101607988D01*
X115375746Y-101674217D01*
X115283060Y-101716828D01*
X115220541Y-101731365D01*
X115140295Y-101741721D01*
X115053261Y-101746849D01*
X114967801Y-101746529D01*
X114892280Y-101740541D01*
X114835061Y-101728662D01*
X114803555Y-101717160D01*
X114699125Y-101660621D01*
X114607301Y-101580467D01*
X114529564Y-101477913D01*
X114492650Y-101418310D01*
X114471192Y-101450557D01*
X114428292Y-101506375D01*
X114355206Y-101570933D01*
X114274046Y-101610564D01*
X114186597Y-101624505D01*
X114094642Y-101611991D01*
X114081947Y-101607942D01*
X114037403Y-101580773D01*
X114006645Y-101534902D01*
X113986952Y-101466653D01*
X113981981Y-101391964D01*
X113996453Y-101328225D01*
X114028343Y-101281055D01*
X114075026Y-101252927D01*
X114133876Y-101246317D01*
X114202267Y-101263699D01*
X114227161Y-101276638D01*
X114246969Y-101297470D01*
X114245083Y-101315569D01*
X114224911Y-101327645D01*
X114189862Y-101330409D01*
X114143344Y-101320571D01*
X114116513Y-101318458D01*
X114086005Y-101336142D01*
X114064986Y-101373169D01*
X114057157Y-101425049D01*
X114062031Y-101478836D01*
X114080958Y-101517659D01*
X114117595Y-101538287D01*
X114175547Y-101544356D01*
X114175875Y-101544355D01*
X114262339Y-101533262D01*
X114332738Y-101500033D01*
X114387291Y-101444511D01*
X114426216Y-101366542D01*
X114431834Y-101348777D01*
X114434677Y-101326224D01*
X114429493Y-101301362D01*
X114414451Y-101267035D01*
X114387718Y-101216084D01*
X114366478Y-101172690D01*
X114336691Y-101102875D01*
X114306974Y-101025040D01*
X114281388Y-100949364D01*
X114279397Y-100942959D01*
X114257538Y-100869619D01*
X114243181Y-100811724D01*
X114234734Y-100759679D01*
X114230607Y-100703892D01*
X114229317Y-100640165D01*
X114291223Y-100640165D01*
X114293774Y-100683744D01*
X114301438Y-100732592D01*
X114315299Y-100793635D01*
X114336439Y-100873799D01*
X114339077Y-100883379D01*
X114360793Y-100957546D01*
X114383384Y-101027752D01*
X114404327Y-101086475D01*
X114421100Y-101126195D01*
X114436051Y-101155151D01*
X114455183Y-101189320D01*
X114467383Y-101207476D01*
X114467548Y-101207642D01*
X114477564Y-101204901D01*
X114485948Y-101176333D01*
X114492572Y-101123403D01*
X114497304Y-101047577D01*
X114500016Y-100950322D01*
X114500576Y-100833101D01*
X114500208Y-100771414D01*
X114499140Y-100695477D01*
X114497053Y-100639002D01*
X114493478Y-100597194D01*
X114487946Y-100565261D01*
X114479987Y-100538407D01*
X114469133Y-100511839D01*
X114446742Y-100467851D01*
X114418123Y-100424046D01*
X114390879Y-100393318D01*
X114369644Y-100381728D01*
X114366852Y-100382131D01*
X114349223Y-100398643D01*
X114330645Y-100434627D01*
X114313470Y-100483580D01*
X114300051Y-100538999D01*
X114292738Y-100594382D01*
X114292702Y-100594930D01*
X114291223Y-100640165D01*
X114229317Y-100640165D01*
X114229208Y-100634770D01*
X114229088Y-100614680D01*
X114229540Y-100552581D01*
X114232440Y-100508044D01*
X114239123Y-100473313D01*
X114250920Y-100440632D01*
X114269165Y-100402245D01*
X114289925Y-100362772D01*
X114309396Y-100334769D01*
X114329056Y-100321101D01*
X114354735Y-100315885D01*
X114386197Y-100317006D01*
X114437077Y-100339199D01*
X114483920Y-100387531D01*
X114527359Y-100462540D01*
X114570081Y-100552702D01*
X114569413Y-100833101D01*
X114569332Y-100867296D01*
X114569242Y-100896489D01*
X114568429Y-100998664D01*
X114566723Y-101078287D01*
X114563893Y-101139205D01*
X114559705Y-101185265D01*
X114553929Y-101220314D01*
X114546332Y-101248198D01*
X114542566Y-101259525D01*
X114533543Y-101291727D01*
X114532022Y-101318456D01*
X114539615Y-101346965D01*
X114557933Y-101384504D01*
X114588587Y-101438325D01*
X114592135Y-101444347D01*
X114659594Y-101534137D01*
X114742107Y-101605674D01*
X114834789Y-101654664D01*
X114866396Y-101665643D01*
X114902996Y-101674546D01*
X114944275Y-101679131D01*
X114997767Y-101680154D01*
X115071005Y-101678372D01*
X115090494Y-101677680D01*
X115156108Y-101674471D01*
X115204058Y-101669522D01*
X115242143Y-101661275D01*
X115278161Y-101648172D01*
X115319908Y-101628656D01*
X115356890Y-101608806D01*
X115434565Y-101552540D01*
X115499678Y-101480701D01*
X115555340Y-101389425D01*
X115604659Y-101274848D01*
X115618921Y-101238952D01*
X115639858Y-101193041D01*
X115657517Y-101161372D01*
X115659092Y-101159025D01*
X115679770Y-101120645D01*
X115697304Y-101077010D01*
X115700641Y-101066222D01*
X115704920Y-101044351D01*
X115703159Y-101021732D01*
X115693712Y-100992484D01*
X115674937Y-100950725D01*
X115645188Y-100890575D01*
X115600155Y-100796386D01*
X115556139Y-100689352D01*
X115529591Y-100601974D01*
X115520700Y-100534791D01*
X115520752Y-100533464D01*
X115589166Y-100533464D01*
X115591836Y-100564911D01*
X115607864Y-100632891D01*
X115637059Y-100715873D01*
X115677910Y-100809164D01*
X115696483Y-100846981D01*
X115712154Y-100876505D01*
X115719825Y-100887813D01*
X115725446Y-100882064D01*
X115732605Y-100854035D01*
X115738121Y-100807342D01*
X115741932Y-100747186D01*
X115743977Y-100678766D01*
X115744197Y-100607284D01*
X115742529Y-100537940D01*
X115738914Y-100475935D01*
X115733289Y-100426470D01*
X115725595Y-100394744D01*
X115709439Y-100366229D01*
X115684003Y-100348426D01*
X115657131Y-100352546D01*
X115631518Y-100375848D01*
X115609856Y-100415595D01*
X115594841Y-100469046D01*
X115589166Y-100533464D01*
X115520752Y-100533464D01*
X115521746Y-100507888D01*
X115534251Y-100436692D01*
X115558551Y-100372431D01*
X115591691Y-100320208D01*
X115630714Y-100285131D01*
X115672665Y-100272304D01*
X115711549Y-100283830D01*
X115751101Y-100313982D01*
X115783106Y-100355060D01*
X115799851Y-100399357D01*
X115807254Y-100460598D01*
X115814229Y-100583346D01*
X115814105Y-100607284D01*
X115813531Y-100718534D01*
X115805059Y-100857340D01*
X115798514Y-100931156D01*
X115795388Y-100988291D01*
X115798042Y-101032072D01*
X115808499Y-101069621D01*
X115828781Y-101108058D01*
X115860908Y-101154506D01*
X115906903Y-101216084D01*
X115979847Y-101307899D01*
X116076142Y-101417178D01*
X116179592Y-101524040D01*
X116284854Y-101623248D01*
X116386588Y-101709560D01*
X116479451Y-101777737D01*
X116538853Y-101817063D01*
X116571239Y-101786714D01*
X116576790Y-101781378D01*
X116615991Y-101739131D01*
X116664462Y-101681281D01*
X116717319Y-101614014D01*
X116769676Y-101543514D01*
X116816651Y-101475966D01*
X116867475Y-101395289D01*
X116971497Y-101194791D01*
X117053167Y-100982023D01*
X117112108Y-100759960D01*
X117147943Y-100531576D01*
X117160294Y-100299847D01*
X117148784Y-100067745D01*
X117113037Y-99838246D01*
X117052675Y-99614323D01*
X117033678Y-99559881D01*
X117002854Y-99480074D01*
X116969358Y-99401034D01*
X116935532Y-99327771D01*
X116903720Y-99265295D01*
X116876265Y-99218616D01*
X116855509Y-99192746D01*
X116843358Y-99179785D01*
X116833786Y-99158019D01*
X116830188Y-99143300D01*
X116809812Y-99106025D01*
X116773957Y-99055289D01*
X116725502Y-98994257D01*
X116667328Y-98926094D01*
X116602315Y-98853963D01*
X116533344Y-98781030D01*
X116463295Y-98710460D01*
X116395048Y-98645418D01*
X116331484Y-98589068D01*
X116275483Y-98544575D01*
X116240226Y-98519234D01*
X116036321Y-98390282D01*
X115826475Y-98287465D01*
X115687968Y-98238295D01*
X115905223Y-98238295D01*
X115921010Y-98246441D01*
X115952725Y-98261686D01*
X115991877Y-98280021D01*
X116030438Y-98297725D01*
X116060376Y-98311076D01*
X116073661Y-98316353D01*
X116077678Y-98312682D01*
X116092662Y-98291667D01*
X116113569Y-98258222D01*
X116140980Y-98218335D01*
X116186400Y-98163309D01*
X116238344Y-98108157D01*
X116289561Y-98060497D01*
X116332800Y-98027945D01*
X116348193Y-98019607D01*
X116404983Y-98004446D01*
X116459341Y-98011017D01*
X116504808Y-98037578D01*
X116534924Y-98082391D01*
X116553201Y-98141611D01*
X116572610Y-98247092D01*
X116583357Y-98372952D01*
X116585045Y-98515769D01*
X116581233Y-98708346D01*
X116653631Y-98789329D01*
X116654557Y-98790366D01*
X116696750Y-98838819D01*
X116738052Y-98888216D01*
X116769649Y-98928020D01*
X116782244Y-98944696D01*
X116801973Y-98969757D01*
X116816262Y-98983774D01*
X116825568Y-98984428D01*
X116830346Y-98969403D01*
X116831053Y-98936382D01*
X116828145Y-98883049D01*
X116822077Y-98807086D01*
X116813306Y-98706176D01*
X116802896Y-98589120D01*
X116783270Y-98380683D01*
X116764528Y-98198305D01*
X116746697Y-98042199D01*
X116729803Y-97912578D01*
X116713872Y-97809655D01*
X116698933Y-97733643D01*
X116685010Y-97684753D01*
X116682573Y-97678997D01*
X116662619Y-97644317D01*
X116635585Y-97607747D01*
X116604614Y-97579087D01*
X116565580Y-97564302D01*
X116521001Y-97569882D01*
X116468735Y-97596594D01*
X116406641Y-97645206D01*
X116332580Y-97716488D01*
X116300648Y-97750032D01*
X116242342Y-97814302D01*
X116186259Y-97879345D01*
X116141089Y-97935235D01*
X116132659Y-97946189D01*
X116082698Y-98010121D01*
X116028519Y-98078186D01*
X115980452Y-98137385D01*
X115961067Y-98161193D01*
X115930774Y-98199839D01*
X115910970Y-98227135D01*
X115905223Y-98238295D01*
X115687968Y-98238295D01*
X115609222Y-98210340D01*
X115383094Y-98158464D01*
X115146626Y-98131393D01*
X114898352Y-98128685D01*
X114885841Y-98129173D01*
X114639918Y-98151667D01*
X114557671Y-98168116D01*
X114406693Y-98198311D01*
X114185810Y-98269219D01*
X113976915Y-98364501D01*
X113779652Y-98484273D01*
X113734658Y-98516051D01*
X113542307Y-98670971D01*
X113369820Y-98842448D01*
X113218317Y-99028800D01*
X113088918Y-99228345D01*
X112982742Y-99439402D01*
X112900908Y-99660287D01*
X112844536Y-99889321D01*
X112833954Y-99963955D01*
X112825640Y-100063619D01*
X112820575Y-100176469D01*
X112818761Y-100295781D01*
X112738574Y-100295781D01*
X112737771Y-100275964D01*
X112751476Y-100035991D01*
X112788618Y-99801275D01*
X112849174Y-99576281D01*
X112862474Y-99537887D01*
X112924553Y-99388009D01*
X113002819Y-99233548D01*
X113092636Y-99082461D01*
X113189366Y-98942710D01*
X113288375Y-98822253D01*
X113369598Y-98733160D01*
X113376181Y-98653610D01*
X113446074Y-98653610D01*
X113449564Y-98652024D01*
X113468083Y-98637616D01*
X113496641Y-98612756D01*
X113520192Y-98591858D01*
X113565430Y-98552687D01*
X113610660Y-98514415D01*
X113676617Y-98459434D01*
X113639941Y-98346137D01*
X113634717Y-98329783D01*
X113618620Y-98272929D01*
X113609813Y-98223386D01*
X113606807Y-98169646D01*
X113608113Y-98100203D01*
X113610660Y-98051566D01*
X113619384Y-97979504D01*
X113634658Y-97927500D01*
X113658094Y-97891007D01*
X113691303Y-97865477D01*
X113697806Y-97861917D01*
X113722358Y-97852308D01*
X113745656Y-97855317D01*
X113779964Y-97871819D01*
X113780706Y-97872221D01*
X113820471Y-97902642D01*
X113867235Y-97952022D01*
X113916505Y-98014660D01*
X113963790Y-98084856D01*
X114004598Y-98156909D01*
X114022741Y-98191230D01*
X114041298Y-98219037D01*
X114057430Y-98230061D01*
X114075891Y-98229116D01*
X114084782Y-98226746D01*
X114126445Y-98212789D01*
X114166172Y-98195879D01*
X114195912Y-98179746D01*
X114207614Y-98168116D01*
X114199712Y-98150930D01*
X114175752Y-98115092D01*
X114137660Y-98063433D01*
X114087384Y-97998426D01*
X114026868Y-97922543D01*
X113958059Y-97838257D01*
X113882902Y-97748041D01*
X113803344Y-97654368D01*
X113781106Y-97629239D01*
X113720071Y-97570163D01*
X113668299Y-97536331D01*
X113625976Y-97527839D01*
X113593285Y-97544785D01*
X113573715Y-97575410D01*
X113555431Y-97624850D01*
X113538269Y-97694301D01*
X113522038Y-97784987D01*
X113506547Y-97898132D01*
X113491608Y-98034960D01*
X113477028Y-98196696D01*
X113462617Y-98384564D01*
X113461823Y-98395712D01*
X113456195Y-98476755D01*
X113451548Y-98547250D01*
X113448141Y-98603013D01*
X113446231Y-98639861D01*
X113446074Y-98653610D01*
X113376181Y-98653610D01*
X113385428Y-98541854D01*
X113387004Y-98522850D01*
X113404743Y-98316967D01*
X113421577Y-98137098D01*
X113437673Y-97982027D01*
X113453199Y-97850539D01*
X113468322Y-97741419D01*
X113483208Y-97653451D01*
X113498026Y-97585420D01*
X113512942Y-97536110D01*
X113528123Y-97504305D01*
X113538053Y-97491819D01*
X113579591Y-97466016D01*
X113632900Y-97459153D01*
X113690762Y-97472635D01*
X113728349Y-97493885D01*
X113787041Y-97542326D01*
X113853934Y-97612063D01*
X113927012Y-97701147D01*
X113927446Y-97701711D01*
X113972080Y-97758463D01*
X114023488Y-97822045D01*
X114070630Y-97878799D01*
X114071450Y-97879768D01*
X114117597Y-97937123D01*
X114166173Y-98001817D01*
X114206794Y-98060033D01*
X114215338Y-98072840D01*
X114243898Y-98113285D01*
X114266355Y-98141571D01*
X114278451Y-98152218D01*
X114279609Y-98152135D01*
X114300604Y-98147814D01*
X114339433Y-98138234D01*
X114388695Y-98125208D01*
X114415937Y-98118031D01*
X114622657Y-98076974D01*
X114840302Y-98055330D01*
X115062675Y-98052936D01*
X115283578Y-98069628D01*
X115496814Y-98105245D01*
X115696185Y-98159622D01*
X115729529Y-98170626D01*
X115785154Y-98187627D01*
X115821784Y-98195999D01*
X115843876Y-98196600D01*
X115855885Y-98190283D01*
X115868635Y-98175524D01*
X115901830Y-98135510D01*
X115944417Y-98082976D01*
X115991718Y-98023787D01*
X116039057Y-97963814D01*
X116081758Y-97908922D01*
X116115145Y-97864980D01*
X116143470Y-97828511D01*
X116196346Y-97765916D01*
X116254779Y-97701820D01*
X116314249Y-97640801D01*
X116370236Y-97587441D01*
X116418218Y-97546318D01*
X116453677Y-97522012D01*
X116477695Y-97510845D01*
X116546127Y-97495023D01*
X116609333Y-97505950D01*
X116668012Y-97543696D01*
X116685787Y-97561080D01*
X116716662Y-97597961D01*
X116734974Y-97629183D01*
X116738554Y-97640382D01*
X116749217Y-97684484D01*
X116761799Y-97747588D01*
X116775343Y-97823902D01*
X116788897Y-97907632D01*
X116801503Y-97992984D01*
X116812209Y-98074164D01*
X116820057Y-98145379D01*
X116822382Y-98169220D01*
X116830648Y-98247423D01*
X116839744Y-98326179D01*
X116848089Y-98391582D01*
X116857542Y-98466190D01*
X116873251Y-98625583D01*
X116883670Y-98785800D01*
X116887801Y-98933245D01*
X116887842Y-98936382D01*
X116888573Y-98992790D01*
G37*
D11*
X119000000Y-109407500D02*
X119000000Y-108807500D01*
X119550000Y-107607500D02*
X119850000Y-107907500D01*
X119650000Y-108107500D02*
X122450000Y-108107500D01*
X120150000Y-107607500D02*
X119550000Y-107607500D01*
X120150000Y-107607500D02*
X119850000Y-107907500D01*
X122450000Y-110107500D02*
X119650000Y-110107500D01*
X123100000Y-108807500D02*
X123100000Y-109407500D01*
X119000000Y-108807500D02*
G75*
G02*
X119700000Y-108107500I699999J1D01*
G01*
X119700000Y-110107500D02*
G75*
G02*
X119000000Y-109407500I-1J699999D01*
G01*
X122400000Y-108107500D02*
G75*
G02*
X123100000Y-108807500I0J-700000D01*
G01*
X123100000Y-109407500D02*
G75*
G02*
X122400000Y-110107500I-700000J0D01*
G01*
X118900000Y-91600000D02*
X121300000Y-91600000D01*
X118900000Y-94000000D02*
X118900000Y-91600000D01*
X121300000Y-91600000D02*
X121300000Y-94000000D01*
X121300000Y-94000000D02*
X118900000Y-94000000D01*
%LPC*%
D13*
X117795000Y-106800000D03*
X119295000Y-106800000D03*
X120795000Y-106800000D03*
X122295000Y-106800000D03*
X123795000Y-106800000D03*
D14*
X103260000Y-105645000D03*
X109040000Y-105645000D03*
D15*
X101830000Y-105145000D03*
D16*
X101830000Y-109325000D03*
D15*
X110470000Y-105145000D03*
D16*
X110470000Y-109325000D03*
D17*
X102900000Y-96300000D03*
D18*
X107475000Y-91225000D03*
X104475000Y-91225000D03*
D19*
X121900000Y-103650000D03*
D20*
X105619000Y-100375000D03*
X105619000Y-101625000D03*
D21*
X113800000Y-109350000D03*
X117200000Y-109350000D03*
X120100000Y-95800000D03*
X123150000Y-92800000D03*
X106150000Y-108100000D03*
X123150000Y-95800000D03*
D22*
X119750000Y-109107500D03*
D23*
X121050000Y-109107500D03*
D24*
X122350000Y-109107500D03*
D21*
X120100000Y-92800000D03*
%LPD*%
M02*
