G04 #@! TF.GenerationSoftware,KiCad,Pcbnew,8.0.2*
G04 #@! TF.CreationDate,2024-07-25T04:44:41-07:00*
G04 #@! TF.ProjectId,uSlime,75536c69-6d65-42e6-9b69-6361645f7063,rev?*
G04 #@! TF.SameCoordinates,Original*
G04 #@! TF.FileFunction,Copper,L2,Bot*
G04 #@! TF.FilePolarity,Positive*
%FSLAX46Y46*%
G04 Gerber Fmt 4.6, Leading zero omitted, Abs format (unit mm)*
G04 Created by KiCad (PCBNEW 8.0.2) date 2024-07-25 04:44:41*
%MOMM*%
%LPD*%
G01*
G04 APERTURE LIST*
G04 #@! TA.AperFunction,ComponentPad*
%ADD10C,1.200000*%
G04 #@! TD*
G04 #@! TA.AperFunction,ComponentPad*
%ADD11O,1.000000X2.100000*%
G04 #@! TD*
G04 #@! TA.AperFunction,ComponentPad*
%ADD12O,1.000000X1.800000*%
G04 #@! TD*
G04 #@! TA.AperFunction,ComponentPad*
%ADD13C,1.000000*%
G04 #@! TD*
G04 #@! TA.AperFunction,SMDPad,CuDef*
%ADD14R,2.000000X2.000000*%
G04 #@! TD*
G04 #@! TA.AperFunction,ViaPad*
%ADD15C,0.600000*%
G04 #@! TD*
G04 #@! TA.AperFunction,ViaPad*
%ADD16C,0.500000*%
G04 #@! TD*
G04 #@! TA.AperFunction,Conductor*
%ADD17C,0.254000*%
G04 #@! TD*
G04 APERTURE END LIST*
D10*
X117795000Y-106800000D03*
X119295000Y-106800000D03*
X120795000Y-106800000D03*
X122295000Y-106800000D03*
X123795000Y-106800000D03*
D11*
X101830000Y-105145000D03*
D12*
X101830000Y-109325000D03*
D11*
X110470000Y-105145000D03*
D12*
X110470000Y-109325000D03*
D13*
X105619000Y-100375000D03*
X105619000Y-101625000D03*
D14*
X113800000Y-109350000D03*
X117200000Y-109350000D03*
X120100000Y-95800000D03*
X123150000Y-92800000D03*
X106150000Y-108100000D03*
X123150000Y-95800000D03*
X120100000Y-92800000D03*
D15*
X113450000Y-103800000D03*
X122300000Y-105677000D03*
X109223000Y-99950000D03*
X108400000Y-96250000D03*
X123464941Y-102261223D03*
X115000000Y-91950000D03*
D16*
X113800000Y-96750000D03*
X118170000Y-102380000D03*
X122899255Y-99315257D03*
X121454947Y-100875981D03*
D15*
X108650000Y-97200000D03*
X104650000Y-106450000D03*
D16*
X124824631Y-103052239D03*
X122023000Y-99378037D03*
X122658000Y-98040369D03*
X123300000Y-97550000D03*
X110350000Y-106750000D03*
X118600000Y-99400000D03*
X109850000Y-107450003D03*
X117800000Y-99350000D03*
X116450000Y-105550000D03*
X114604027Y-99054027D03*
X123150000Y-91700000D03*
X120100000Y-91600000D03*
X116200000Y-99114218D03*
D15*
X119000000Y-105000000D03*
X115750000Y-102475077D03*
X110800000Y-99850000D03*
X114900000Y-96123000D03*
D16*
X114323000Y-95500000D03*
X120795000Y-105605000D03*
X113766999Y-97550000D03*
X110446328Y-101650000D03*
X107900000Y-105750000D03*
X111123000Y-103700000D03*
X111250000Y-94450000D03*
X108150000Y-94400000D03*
X105850000Y-94500000D03*
X108760000Y-102123000D03*
X106175000Y-99225000D03*
D17*
X110470000Y-105145000D02*
X110470000Y-105695000D01*
X123464941Y-102261223D02*
X123464941Y-104512059D01*
X123464941Y-104512059D02*
X122300000Y-105677000D01*
X108023000Y-98750000D02*
X108023000Y-96627000D01*
X109250000Y-106915000D02*
X109250000Y-108105000D01*
X110470000Y-105695000D02*
X109250000Y-106915000D01*
X109223000Y-99950000D02*
X108023000Y-98750000D01*
X109250000Y-108105000D02*
X110470000Y-109325000D01*
X108023000Y-96627000D02*
X108400000Y-96250000D01*
X118150000Y-102400000D02*
X119300000Y-101250000D01*
X118839002Y-98623000D02*
X118665052Y-98623000D01*
X119300000Y-101250000D02*
X119300000Y-99083998D01*
X116792052Y-96750000D02*
X113800000Y-96750000D01*
X119300000Y-99083998D02*
X118839002Y-98623000D01*
X118665052Y-98623000D02*
X116792052Y-96750000D01*
X122899255Y-100350745D02*
X122374019Y-100875981D01*
X122899255Y-99315257D02*
X122899255Y-100350745D01*
X122374019Y-100875981D02*
X121454947Y-100875981D01*
X106150000Y-107950000D02*
X106150000Y-108100000D01*
X104650000Y-105350000D02*
X104650000Y-106450000D01*
X109026002Y-102700000D02*
X107300000Y-102700000D01*
X109850000Y-98400000D02*
X109850000Y-101876002D01*
X107300000Y-102700000D02*
X104650000Y-105350000D01*
X104650000Y-106450000D02*
X106150000Y-107950000D01*
X109850000Y-101876002D02*
X109026002Y-102700000D01*
X108650000Y-97200000D02*
X109850000Y-98400000D01*
X122322255Y-99076255D02*
X122798510Y-98600000D01*
X122322255Y-99078782D02*
X122322255Y-99076255D01*
X123500000Y-98600000D02*
X124800000Y-99900000D01*
X122023000Y-99378037D02*
X122322255Y-99078782D01*
X122798510Y-98600000D02*
X123500000Y-98600000D01*
X124800000Y-99900000D02*
X124800000Y-103050000D01*
X120100000Y-95800000D02*
X122340369Y-98040369D01*
X122340369Y-98040369D02*
X122658000Y-98040369D01*
X123150000Y-95800000D02*
X123150000Y-97400000D01*
X123150000Y-97400000D02*
X123300000Y-97550000D01*
X110350000Y-106750000D02*
X110950000Y-106750000D01*
X114800000Y-97400000D02*
X116692052Y-97400000D01*
X116692052Y-97400000D02*
X118600000Y-99307948D01*
X111700000Y-106000000D02*
X111700000Y-100500000D01*
X110950000Y-106750000D02*
X111700000Y-106000000D01*
X111700000Y-100500000D02*
X114800000Y-97400000D01*
X118600000Y-99307948D02*
X118600000Y-99400000D01*
X117800000Y-99150000D02*
X116600000Y-97950000D01*
X116600000Y-97950000D02*
X114892052Y-97950000D01*
X109850000Y-107450003D02*
X110892050Y-107450003D01*
X112154000Y-100688052D02*
X112154000Y-106188053D01*
X112154000Y-106188053D02*
X110892050Y-107450003D01*
X114892052Y-97950000D02*
X112154000Y-100688052D01*
X113250000Y-100408054D02*
X114604027Y-99054027D01*
X113250000Y-102350000D02*
X113250000Y-100408054D01*
X116450000Y-105550000D02*
X113250000Y-102350000D01*
X123150000Y-92800000D02*
X123150000Y-91700000D01*
X115485782Y-99114218D02*
X113827000Y-100773000D01*
X116200000Y-99114218D02*
X115485782Y-99114218D01*
X117795000Y-105645000D02*
X117795000Y-106800000D01*
X120100000Y-91600000D02*
X120100000Y-92800000D01*
X113827000Y-100773000D02*
X113827000Y-101677000D01*
X113827000Y-101677000D02*
X117795000Y-105645000D01*
X117200000Y-108895000D02*
X119295000Y-106800000D01*
X118853104Y-98169000D02*
X116807104Y-96123000D01*
X114900000Y-96123000D02*
X112392947Y-96123000D01*
X115750000Y-102475077D02*
X116475077Y-102475077D01*
X119754000Y-98895945D02*
X119027055Y-98169000D01*
X112392947Y-96123000D02*
X110800000Y-97715947D01*
X119027055Y-98169000D02*
X118853104Y-98169000D01*
X116475077Y-102475077D02*
X119000000Y-105000000D01*
X119754000Y-104246000D02*
X119754000Y-98895945D01*
X119000000Y-105000000D02*
X119000000Y-106505000D01*
X119000000Y-105000000D02*
X119754000Y-104246000D01*
X117200000Y-109350000D02*
X117200000Y-108895000D01*
X116807104Y-96123000D02*
X114900000Y-96123000D01*
X110800000Y-97715947D02*
X110800000Y-99850000D01*
X119000000Y-106505000D02*
X119295000Y-106800000D01*
X114323000Y-95500000D02*
X114373000Y-95450000D01*
X120800000Y-99299892D02*
X120800000Y-105600000D01*
X116776156Y-95450000D02*
X119041156Y-97715000D01*
X119041156Y-97715000D02*
X119215108Y-97715000D01*
X119215108Y-97715000D02*
X120800000Y-99299892D01*
X114373000Y-95450000D02*
X116776156Y-95450000D01*
X110446328Y-101111620D02*
X113766999Y-97790949D01*
X113766999Y-97790949D02*
X113766999Y-97550000D01*
X110446328Y-101650000D02*
X110446328Y-101111620D01*
X109200000Y-103600000D02*
X111023000Y-103600000D01*
X107900000Y-104900000D02*
X109200000Y-103600000D01*
X111023000Y-103600000D02*
X111123000Y-103700000D01*
X107900000Y-105750000D02*
X107900000Y-104900000D01*
X108150000Y-94400000D02*
X111200000Y-94400000D01*
X111200000Y-94400000D02*
X111250000Y-94450000D01*
X106175000Y-99225000D02*
X106950000Y-100000000D01*
X106175000Y-99225000D02*
X105850000Y-98900000D01*
X105850000Y-98900000D02*
X105850000Y-94500000D01*
X106950000Y-101050000D02*
X108023000Y-102123000D01*
X106950000Y-100000000D02*
X106950000Y-101050000D01*
X108023000Y-102123000D02*
X108760000Y-102123000D01*
G04 #@! TA.AperFunction,Conductor*
G36*
X124573644Y-89857584D02*
G01*
X124573980Y-89857607D01*
X124577000Y-89857607D01*
X124577004Y-89857608D01*
X124640144Y-89857607D01*
X124645630Y-89857914D01*
X124748562Y-89869512D01*
X124759257Y-89871953D01*
X124854407Y-89905247D01*
X124864292Y-89910007D01*
X124943020Y-89959475D01*
X124949654Y-89963643D01*
X124958233Y-89970485D01*
X125029514Y-90041766D01*
X125036356Y-90050345D01*
X125089992Y-90135707D01*
X125094752Y-90145593D01*
X125128045Y-90240741D01*
X125130487Y-90251438D01*
X125142084Y-90354368D01*
X125142392Y-90359854D01*
X125142392Y-90425963D01*
X125142416Y-90426334D01*
X125145458Y-99239726D01*
X125131118Y-99274379D01*
X125096475Y-99288743D01*
X125061822Y-99274403D01*
X123900004Y-98112585D01*
X123888971Y-98105214D01*
X123868134Y-98074032D01*
X123875449Y-98037250D01*
X123881541Y-98029825D01*
X123890477Y-98020890D01*
X123980456Y-97877690D01*
X124036313Y-97718059D01*
X124052884Y-97570981D01*
X124069446Y-97539472D01*
X124434652Y-97222310D01*
X124471955Y-97189914D01*
X124471959Y-97189909D01*
X124471979Y-97189893D01*
X124485456Y-97177758D01*
X124486057Y-97177197D01*
X124493966Y-97168690D01*
X124500482Y-97162832D01*
X124507546Y-97157546D01*
X124519277Y-97141874D01*
X124522603Y-97137892D01*
X124534719Y-97124863D01*
X124543733Y-97109669D01*
X124546619Y-97105349D01*
X124593796Y-97042331D01*
X124644091Y-96907483D01*
X124644091Y-96907481D01*
X124644092Y-96907479D01*
X124649323Y-96858816D01*
X124650500Y-96847873D01*
X124650499Y-94752128D01*
X124650499Y-94752127D01*
X124650499Y-94752120D01*
X124644092Y-94692521D01*
X124640062Y-94681716D01*
X124593796Y-94557669D01*
X124507546Y-94442454D01*
X124449938Y-94399329D01*
X124392332Y-94356204D01*
X124392330Y-94356203D01*
X124364731Y-94345909D01*
X124337284Y-94320354D01*
X124335946Y-94282874D01*
X124361501Y-94255427D01*
X124364709Y-94254098D01*
X124392331Y-94243796D01*
X124507546Y-94157546D01*
X124593796Y-94042331D01*
X124644091Y-93907483D01*
X124644091Y-93907481D01*
X124644092Y-93907479D01*
X124649247Y-93859523D01*
X124650500Y-93847873D01*
X124650499Y-91752128D01*
X124650499Y-91752127D01*
X124650499Y-91752120D01*
X124644092Y-91692521D01*
X124644091Y-91692517D01*
X124593796Y-91557669D01*
X124507546Y-91442454D01*
X124438314Y-91390627D01*
X124392333Y-91356205D01*
X124392331Y-91356204D01*
X124257483Y-91305909D01*
X124205960Y-91300369D01*
X124198754Y-91299043D01*
X124183462Y-91295027D01*
X124183456Y-91295026D01*
X123773906Y-91248113D01*
X123742667Y-91230811D01*
X123742423Y-91231056D01*
X123741570Y-91230203D01*
X123741174Y-91229984D01*
X123740476Y-91229109D01*
X123620891Y-91109524D01*
X123620887Y-91109521D01*
X123587056Y-91088263D01*
X123477690Y-91019544D01*
X123318059Y-90963687D01*
X123318055Y-90963686D01*
X123318053Y-90963686D01*
X123150000Y-90944751D01*
X122981946Y-90963686D01*
X122981937Y-90963688D01*
X122822310Y-91019544D01*
X122822308Y-91019545D01*
X122679112Y-91109521D01*
X122679108Y-91109524D01*
X122559519Y-91229112D01*
X122558817Y-91229993D01*
X122558418Y-91230213D01*
X122557577Y-91231055D01*
X122557335Y-91230813D01*
X122526092Y-91248113D01*
X122158801Y-91290185D01*
X122125520Y-91293998D01*
X122116519Y-91295029D01*
X122091533Y-91298525D01*
X122086107Y-91300244D01*
X122076552Y-91302249D01*
X122042520Y-91305907D01*
X121907666Y-91356205D01*
X121792454Y-91442454D01*
X121706204Y-91557667D01*
X121706202Y-91557671D01*
X121670909Y-91652295D01*
X121645354Y-91679743D01*
X121607875Y-91681081D01*
X121580427Y-91655526D01*
X121579096Y-91652313D01*
X121543796Y-91557669D01*
X121457546Y-91442454D01*
X121388314Y-91390627D01*
X121342333Y-91356205D01*
X121342331Y-91356204D01*
X121207483Y-91305909D01*
X121207484Y-91305909D01*
X121206563Y-91305810D01*
X121204885Y-91305629D01*
X121193969Y-91302986D01*
X121193948Y-91303055D01*
X121192783Y-91302698D01*
X121192507Y-91302632D01*
X121192286Y-91302547D01*
X121192278Y-91302544D01*
X120753157Y-91201943D01*
X120722611Y-91180250D01*
X120690477Y-91129110D01*
X120570890Y-91009523D01*
X120427690Y-90919544D01*
X120268059Y-90863687D01*
X120268055Y-90863686D01*
X120268053Y-90863686D01*
X120100000Y-90844751D01*
X119931946Y-90863686D01*
X119931937Y-90863688D01*
X119772310Y-90919544D01*
X119772308Y-90919545D01*
X119629112Y-91009521D01*
X119629108Y-91009524D01*
X119509524Y-91129108D01*
X119509521Y-91129112D01*
X119477389Y-91180250D01*
X119446842Y-91201943D01*
X119007716Y-91302545D01*
X119007342Y-91302688D01*
X119006882Y-91302798D01*
X119006082Y-91303042D01*
X119006067Y-91302994D01*
X118995112Y-91305629D01*
X118992519Y-91305908D01*
X118857666Y-91356205D01*
X118742454Y-91442454D01*
X118656205Y-91557666D01*
X118605907Y-91692520D01*
X118599500Y-91752120D01*
X118599500Y-93847879D01*
X118605907Y-93907478D01*
X118610673Y-93920256D01*
X118656204Y-94042331D01*
X118742454Y-94157546D01*
X118857669Y-94243796D01*
X118885267Y-94254089D01*
X118912715Y-94279645D01*
X118914054Y-94317124D01*
X118888498Y-94344572D01*
X118885276Y-94345907D01*
X118864274Y-94353740D01*
X118857666Y-94356205D01*
X118742454Y-94442454D01*
X118656205Y-94557666D01*
X118605907Y-94692520D01*
X118599500Y-94752120D01*
X118599500Y-96267629D01*
X118585148Y-96302277D01*
X118550500Y-96316629D01*
X118515852Y-96302277D01*
X117176163Y-94962588D01*
X117166427Y-94956083D01*
X117147465Y-94943413D01*
X117073389Y-94893917D01*
X117073386Y-94893915D01*
X117073385Y-94893915D01*
X117039940Y-94880062D01*
X116959194Y-94846615D01*
X116959188Y-94846613D01*
X116910298Y-94836888D01*
X116837959Y-94822500D01*
X116837956Y-94822500D01*
X114887300Y-94822500D01*
X114879315Y-94821620D01*
X114879290Y-94821789D01*
X114877559Y-94821531D01*
X114793503Y-94809009D01*
X114496317Y-94764739D01*
X114492645Y-94764048D01*
X114491065Y-94763687D01*
X114484491Y-94762947D01*
X114482758Y-94762720D01*
X114410859Y-94752009D01*
X114408642Y-94751759D01*
X114374694Y-94747945D01*
X114374684Y-94747944D01*
X114374682Y-94747944D01*
X114373016Y-94747817D01*
X114355765Y-94748052D01*
X114349615Y-94747749D01*
X114323000Y-94744751D01*
X114287559Y-94748743D01*
X114282758Y-94749046D01*
X114282663Y-94749047D01*
X114280753Y-94749296D01*
X114277614Y-94749863D01*
X114154946Y-94763686D01*
X114154937Y-94763688D01*
X113995310Y-94819544D01*
X113995308Y-94819545D01*
X113852112Y-94909521D01*
X113852108Y-94909524D01*
X113732524Y-95029108D01*
X113732521Y-95029112D01*
X113642545Y-95172308D01*
X113642544Y-95172310D01*
X113586688Y-95331937D01*
X113586686Y-95331946D01*
X113573161Y-95451986D01*
X113555020Y-95484810D01*
X113524469Y-95495500D01*
X112331140Y-95495500D01*
X112209919Y-95519613D01*
X112209910Y-95519615D01*
X112095717Y-95566915D01*
X111992939Y-95635588D01*
X110312588Y-97315939D01*
X110243916Y-97418715D01*
X110236178Y-97437398D01*
X110196615Y-97532908D01*
X110196611Y-97532923D01*
X110176764Y-97632700D01*
X110176765Y-97632701D01*
X110172500Y-97654145D01*
X110172500Y-97716785D01*
X110158148Y-97751433D01*
X110123500Y-97765785D01*
X110088852Y-97751433D01*
X109588683Y-97251264D01*
X109579988Y-97239471D01*
X109379307Y-96858895D01*
X109376401Y-96852227D01*
X109376398Y-96852220D01*
X109375789Y-96850478D01*
X109375787Y-96850475D01*
X109375787Y-96850474D01*
X109279817Y-96697740D01*
X109279816Y-96697738D01*
X109152262Y-96570184D01*
X109152259Y-96570182D01*
X108999526Y-96474212D01*
X108829258Y-96414633D01*
X108829257Y-96414632D01*
X108829255Y-96414632D01*
X108829251Y-96414631D01*
X108829249Y-96414631D01*
X108650000Y-96394435D01*
X108470750Y-96414631D01*
X108470741Y-96414633D01*
X108300473Y-96474212D01*
X108147740Y-96570182D01*
X108147736Y-96570185D01*
X108020185Y-96697736D01*
X108020182Y-96697740D01*
X107924212Y-96850473D01*
X107864633Y-97020741D01*
X107864631Y-97020750D01*
X107844435Y-97200000D01*
X107864631Y-97379249D01*
X107864633Y-97379258D01*
X107924212Y-97549526D01*
X108020182Y-97702259D01*
X108020185Y-97702263D01*
X108147739Y-97829817D01*
X108156117Y-97835081D01*
X108300478Y-97925789D01*
X108302222Y-97926399D01*
X108308891Y-97929305D01*
X108689471Y-98129988D01*
X108701264Y-98138683D01*
X109208148Y-98645567D01*
X109222500Y-98680215D01*
X109222500Y-101438591D01*
X109208148Y-101473239D01*
X109173500Y-101487591D01*
X109147431Y-101480081D01*
X109087693Y-101442545D01*
X108928062Y-101386688D01*
X108928061Y-101386687D01*
X108928059Y-101386687D01*
X108928055Y-101386686D01*
X108928053Y-101386686D01*
X108760000Y-101367751D01*
X108591946Y-101386686D01*
X108591942Y-101386686D01*
X108591941Y-101386687D01*
X108591938Y-101386687D01*
X108591938Y-101386688D01*
X108549969Y-101401372D01*
X108539118Y-101403830D01*
X108528641Y-101404976D01*
X108528629Y-101404978D01*
X108288251Y-101466789D01*
X108251120Y-101461518D01*
X108241400Y-101453981D01*
X107591852Y-100804433D01*
X107577500Y-100769785D01*
X107577500Y-99938198D01*
X107577499Y-99938193D01*
X107576339Y-99932357D01*
X107576339Y-99932356D01*
X107557234Y-99836310D01*
X107553386Y-99816966D01*
X107553383Y-99816958D01*
X107518630Y-99733057D01*
X107506085Y-99702772D01*
X107506083Y-99702767D01*
X107437411Y-99599992D01*
X107350008Y-99512589D01*
X107035614Y-99198195D01*
X107028081Y-99188482D01*
X106846316Y-98880878D01*
X106846315Y-98880877D01*
X106846290Y-98880834D01*
X106837122Y-98865918D01*
X106837116Y-98865910D01*
X106834391Y-98862748D01*
X106830026Y-98856838D01*
X106765477Y-98754110D01*
X106645890Y-98634523D01*
X106645887Y-98634521D01*
X106500430Y-98543123D01*
X106478728Y-98512537D01*
X106477500Y-98501634D01*
X106477500Y-95089595D01*
X106479044Y-95077392D01*
X106488537Y-95040475D01*
X106568023Y-94731360D01*
X106572093Y-94714310D01*
X106572142Y-94713640D01*
X106572356Y-94712611D01*
X106572394Y-94712373D01*
X106572406Y-94712374D01*
X106574756Y-94701082D01*
X106586313Y-94668059D01*
X106605249Y-94500000D01*
X106593982Y-94400000D01*
X107394751Y-94400000D01*
X107412516Y-94557671D01*
X107413687Y-94568059D01*
X107469544Y-94727690D01*
X107559523Y-94870890D01*
X107679110Y-94990477D01*
X107822310Y-95080456D01*
X107981941Y-95136313D01*
X108150000Y-95155249D01*
X108318059Y-95136313D01*
X108360031Y-95121625D01*
X108370887Y-95119167D01*
X108381360Y-95118023D01*
X108727393Y-95029043D01*
X108739596Y-95027500D01*
X110642738Y-95027500D01*
X110660557Y-95030854D01*
X110959852Y-95147702D01*
X110959867Y-95147707D01*
X110959872Y-95147709D01*
X111005349Y-95163018D01*
X111005350Y-95163018D01*
X111005353Y-95163019D01*
X111016757Y-95164560D01*
X111026369Y-95166867D01*
X111081941Y-95186313D01*
X111250000Y-95205249D01*
X111418059Y-95186313D01*
X111577690Y-95130456D01*
X111720890Y-95040477D01*
X111840477Y-94920890D01*
X111930456Y-94777690D01*
X111986313Y-94618059D01*
X112005249Y-94450000D01*
X111986313Y-94281941D01*
X111930456Y-94122310D01*
X111840477Y-93979110D01*
X111720890Y-93859523D01*
X111577690Y-93769544D01*
X111434797Y-93719544D01*
X111418062Y-93713688D01*
X111418061Y-93713687D01*
X111418059Y-93713687D01*
X111418055Y-93713686D01*
X111418053Y-93713686D01*
X111250000Y-93694751D01*
X111189303Y-93701589D01*
X111184068Y-93701896D01*
X111162151Y-93702008D01*
X111162147Y-93702008D01*
X111090245Y-93712719D01*
X111088517Y-93712945D01*
X111081939Y-93713686D01*
X111080350Y-93714049D01*
X111076683Y-93714739D01*
X110695445Y-93771530D01*
X110694292Y-93771721D01*
X110693583Y-93771839D01*
X110685564Y-93772500D01*
X108739595Y-93772500D01*
X108727392Y-93770956D01*
X108381399Y-93681986D01*
X108364307Y-93677905D01*
X108364299Y-93677904D01*
X108363619Y-93677854D01*
X108362575Y-93677636D01*
X108362373Y-93677605D01*
X108362374Y-93677594D01*
X108351081Y-93675241D01*
X108318060Y-93663687D01*
X108318053Y-93663686D01*
X108150000Y-93644751D01*
X107981946Y-93663686D01*
X107981937Y-93663688D01*
X107822310Y-93719544D01*
X107822308Y-93719545D01*
X107679112Y-93809521D01*
X107679108Y-93809524D01*
X107559524Y-93929108D01*
X107559521Y-93929112D01*
X107469545Y-94072308D01*
X107469544Y-94072310D01*
X107413688Y-94231937D01*
X107413686Y-94231946D01*
X107394751Y-94400000D01*
X106593982Y-94400000D01*
X106586313Y-94331941D01*
X106530456Y-94172310D01*
X106440477Y-94029110D01*
X106320890Y-93909523D01*
X106317643Y-93907483D01*
X106241316Y-93859523D01*
X106177690Y-93819544D01*
X106018059Y-93763687D01*
X106018055Y-93763686D01*
X106018053Y-93763686D01*
X105850000Y-93744751D01*
X105681946Y-93763686D01*
X105681937Y-93763688D01*
X105522310Y-93819544D01*
X105522308Y-93819545D01*
X105379112Y-93909521D01*
X105379108Y-93909524D01*
X105259524Y-94029108D01*
X105259521Y-94029112D01*
X105169545Y-94172308D01*
X105169544Y-94172310D01*
X105113688Y-94331937D01*
X105113686Y-94331946D01*
X105094751Y-94500000D01*
X105113686Y-94668053D01*
X105113687Y-94668061D01*
X105128373Y-94710033D01*
X105130831Y-94720887D01*
X105131976Y-94731354D01*
X105131978Y-94731369D01*
X105220956Y-95077390D01*
X105222500Y-95089593D01*
X105222500Y-98838197D01*
X105222500Y-98961803D01*
X105238502Y-99042252D01*
X105246613Y-99083032D01*
X105246615Y-99083038D01*
X105276570Y-99155353D01*
X105276570Y-99155354D01*
X105288735Y-99184723D01*
X105293917Y-99197233D01*
X105294560Y-99198195D01*
X105335377Y-99259282D01*
X105362588Y-99300007D01*
X105377700Y-99315119D01*
X105387237Y-99328586D01*
X105392349Y-99339250D01*
X105394385Y-99376697D01*
X105369345Y-99404616D01*
X105362389Y-99407321D01*
X105234272Y-99446186D01*
X105234268Y-99446188D01*
X105060458Y-99539092D01*
X105060455Y-99539094D01*
X104908117Y-99664117D01*
X104783094Y-99816455D01*
X104783092Y-99816458D01*
X104690185Y-99990273D01*
X104632976Y-100178866D01*
X104632976Y-100178867D01*
X104613659Y-100374999D01*
X104613659Y-100375000D01*
X104632976Y-100571132D01*
X104632976Y-100571133D01*
X104690185Y-100759726D01*
X104783092Y-100933541D01*
X104783094Y-100933544D01*
X104812445Y-100969307D01*
X104823332Y-101005195D01*
X104812446Y-101031478D01*
X104783507Y-101066741D01*
X104690654Y-101240456D01*
X104690649Y-101240468D01*
X104633470Y-101428961D01*
X104633468Y-101428969D01*
X104614161Y-101624999D01*
X104614161Y-101625000D01*
X104633468Y-101821030D01*
X104633470Y-101821038D01*
X104690649Y-102009531D01*
X104690654Y-102009543D01*
X104756922Y-102133522D01*
X104756923Y-102133523D01*
X105324145Y-101566299D01*
X105319000Y-101585504D01*
X105319000Y-101664496D01*
X105339444Y-101740796D01*
X105378940Y-101809205D01*
X105434795Y-101865060D01*
X105503204Y-101904556D01*
X105579504Y-101925000D01*
X105658496Y-101925000D01*
X105734796Y-101904556D01*
X105803205Y-101865060D01*
X105859060Y-101809205D01*
X105898556Y-101740796D01*
X105919000Y-101664496D01*
X105919000Y-101585504D01*
X105913855Y-101566302D01*
X106481075Y-102133523D01*
X106481075Y-102133522D01*
X106547347Y-102009539D01*
X106547350Y-102009532D01*
X106604529Y-101821038D01*
X106604531Y-101821030D01*
X106614916Y-101715592D01*
X106632595Y-101682518D01*
X106668483Y-101671631D01*
X106698328Y-101685747D01*
X107059616Y-102047035D01*
X107073968Y-102081683D01*
X107059616Y-102116331D01*
X107043720Y-102126953D01*
X107002770Y-102143915D01*
X106941577Y-102184803D01*
X106899992Y-102212588D01*
X104162588Y-104949992D01*
X104093915Y-105052770D01*
X104081380Y-105083034D01*
X104081380Y-105083035D01*
X104046615Y-105166961D01*
X104046611Y-105166976D01*
X104023317Y-105284082D01*
X104023318Y-105284083D01*
X104022500Y-105288196D01*
X104022500Y-105749996D01*
X104020309Y-105764483D01*
X103893078Y-106175575D01*
X103885068Y-106204472D01*
X103885067Y-106204474D01*
X103884566Y-106209576D01*
X103882052Y-106220957D01*
X103864632Y-106270745D01*
X103864632Y-106270746D01*
X103864631Y-106270750D01*
X103844435Y-106450000D01*
X103864631Y-106629249D01*
X103864633Y-106629258D01*
X103924212Y-106799526D01*
X104015461Y-106944745D01*
X104020184Y-106952262D01*
X104147738Y-107079816D01*
X104205316Y-107115995D01*
X104226205Y-107143492D01*
X104567033Y-108287539D01*
X104647460Y-108557506D01*
X104649500Y-108571496D01*
X104649500Y-109147879D01*
X104655907Y-109207478D01*
X104655909Y-109207483D01*
X104706204Y-109342331D01*
X104792454Y-109457546D01*
X104907669Y-109543796D01*
X105042517Y-109594091D01*
X105042520Y-109594092D01*
X105086177Y-109598785D01*
X105102127Y-109600500D01*
X107197872Y-109600499D01*
X107197878Y-109600499D01*
X107257478Y-109594092D01*
X107257479Y-109594091D01*
X107257483Y-109594091D01*
X107392331Y-109543796D01*
X107507546Y-109457546D01*
X107593796Y-109342331D01*
X107644091Y-109207483D01*
X107644091Y-109207481D01*
X107644092Y-109207479D01*
X107650499Y-109147879D01*
X107650500Y-109147873D01*
X107650499Y-107052128D01*
X107650499Y-107052120D01*
X107644092Y-106992521D01*
X107639092Y-106979115D01*
X107593796Y-106857669D01*
X107587583Y-106849370D01*
X107550267Y-106799522D01*
X107507546Y-106742454D01*
X107403897Y-106664862D01*
X107392333Y-106656205D01*
X107392331Y-106656204D01*
X107320061Y-106629249D01*
X107257479Y-106605907D01*
X107197879Y-106599500D01*
X107197873Y-106599500D01*
X106725125Y-106599500D01*
X106706944Y-106596002D01*
X106687074Y-106588063D01*
X105393666Y-106071272D01*
X105366817Y-106045090D01*
X105365046Y-106040280D01*
X105279689Y-105764479D01*
X105277500Y-105749998D01*
X105277500Y-105630215D01*
X105291852Y-105595567D01*
X107545567Y-103341852D01*
X107580215Y-103327500D01*
X108466785Y-103327500D01*
X108501433Y-103341852D01*
X108515785Y-103376500D01*
X108501433Y-103411148D01*
X107412588Y-104499992D01*
X107343916Y-104602767D01*
X107339404Y-104613663D01*
X107339403Y-104613666D01*
X107296615Y-104716961D01*
X107296611Y-104716974D01*
X107277374Y-104813685D01*
X107277375Y-104813686D01*
X107272500Y-104838198D01*
X107272500Y-105160405D01*
X107270956Y-105172608D01*
X107181986Y-105518599D01*
X107177905Y-105535691D01*
X107177904Y-105535698D01*
X107177854Y-105536380D01*
X107177636Y-105537423D01*
X107177605Y-105537626D01*
X107177594Y-105537624D01*
X107175241Y-105548916D01*
X107163688Y-105581935D01*
X107163686Y-105581946D01*
X107145869Y-105740081D01*
X107144751Y-105750000D01*
X107147350Y-105773062D01*
X107163347Y-105915047D01*
X107163687Y-105918059D01*
X107219544Y-106077690D01*
X107258995Y-106140475D01*
X107307819Y-106218179D01*
X107309523Y-106220890D01*
X107429110Y-106340477D01*
X107572310Y-106430456D01*
X107731941Y-106486313D01*
X107900000Y-106505249D01*
X108068059Y-106486313D01*
X108227690Y-106430456D01*
X108370890Y-106340477D01*
X108490477Y-106220890D01*
X108578003Y-106081593D01*
X108608586Y-106059895D01*
X108645560Y-106066176D01*
X108654138Y-106073018D01*
X108686635Y-106105515D01*
X108722549Y-106126250D01*
X108817862Y-106181280D01*
X108817864Y-106181280D01*
X108817865Y-106181281D01*
X108923465Y-106209576D01*
X108964230Y-106220499D01*
X108964231Y-106220500D01*
X108964234Y-106220500D01*
X109115769Y-106220500D01*
X109115769Y-106220499D01*
X109262135Y-106181281D01*
X109393365Y-106105515D01*
X109457677Y-106041202D01*
X109492324Y-106026851D01*
X109526972Y-106041203D01*
X109537594Y-106057100D01*
X109583809Y-106168674D01*
X109692483Y-106331318D01*
X109699799Y-106368101D01*
X109693231Y-106384609D01*
X109669548Y-106422301D01*
X109669543Y-106422312D01*
X109613688Y-106581937D01*
X109613686Y-106581946D01*
X109598878Y-106713366D01*
X109580737Y-106746189D01*
X109566371Y-106754128D01*
X109522310Y-106769547D01*
X109522308Y-106769547D01*
X109522308Y-106769548D01*
X109379112Y-106859524D01*
X109379108Y-106859527D01*
X109259524Y-106979111D01*
X109259521Y-106979115D01*
X109169545Y-107122311D01*
X109169544Y-107122313D01*
X109160051Y-107149444D01*
X109113687Y-107281944D01*
X109094751Y-107450003D01*
X109113687Y-107618062D01*
X109169544Y-107777693D01*
X109259523Y-107920893D01*
X109379110Y-108040480D01*
X109522310Y-108130459D01*
X109681941Y-108186316D01*
X109681951Y-108186317D01*
X109681953Y-108186318D01*
X109684628Y-108186929D01*
X109684452Y-108187698D01*
X109714780Y-108204449D01*
X109725171Y-108240483D01*
X109711127Y-108269657D01*
X109693250Y-108287534D01*
X109583809Y-108451325D01*
X109508429Y-108633309D01*
X109508429Y-108633310D01*
X109470000Y-108826512D01*
X109470000Y-109075000D01*
X110170000Y-109075000D01*
X110170000Y-109575000D01*
X109470000Y-109575000D01*
X109470000Y-109823487D01*
X109508429Y-110016689D01*
X109508429Y-110016690D01*
X109583809Y-110198674D01*
X109693246Y-110362460D01*
X109832539Y-110501753D01*
X109996325Y-110611190D01*
X110178310Y-110686570D01*
X110220000Y-110694862D01*
X110220000Y-109891988D01*
X110229940Y-109909205D01*
X110285795Y-109965060D01*
X110354204Y-110004556D01*
X110430504Y-110025000D01*
X110509496Y-110025000D01*
X110585796Y-110004556D01*
X110654205Y-109965060D01*
X110710060Y-109909205D01*
X110720000Y-109891988D01*
X110720000Y-110694862D01*
X110761689Y-110686570D01*
X110761690Y-110686570D01*
X110943674Y-110611190D01*
X111107460Y-110501753D01*
X111211379Y-110397834D01*
X112300000Y-110397834D01*
X112306401Y-110457372D01*
X112306401Y-110457373D01*
X112356648Y-110592091D01*
X112442811Y-110707188D01*
X112557908Y-110793351D01*
X112692626Y-110843598D01*
X112752166Y-110850000D01*
X113550000Y-110850000D01*
X114050000Y-110850000D01*
X114847834Y-110850000D01*
X114907372Y-110843598D01*
X114907373Y-110843598D01*
X115042091Y-110793351D01*
X115157188Y-110707188D01*
X115243351Y-110592091D01*
X115293598Y-110457373D01*
X115293598Y-110457372D01*
X115300000Y-110397834D01*
X115300000Y-109600000D01*
X114050000Y-109600000D01*
X114050000Y-110850000D01*
X113550000Y-110850000D01*
X113550000Y-109600000D01*
X112300000Y-109600000D01*
X112300000Y-110397834D01*
X111211379Y-110397834D01*
X111246753Y-110362460D01*
X111356190Y-110198674D01*
X111431570Y-110016690D01*
X111431570Y-110016689D01*
X111470000Y-109823487D01*
X111470000Y-109575000D01*
X110770000Y-109575000D01*
X110770000Y-109075000D01*
X111470000Y-109075000D01*
X111470000Y-108826512D01*
X111431570Y-108633310D01*
X111431570Y-108633309D01*
X111356190Y-108451325D01*
X111256526Y-108302165D01*
X112300000Y-108302165D01*
X112300000Y-109100000D01*
X113550000Y-109100000D01*
X114050000Y-109100000D01*
X115300000Y-109100000D01*
X115300000Y-108302165D01*
X115293598Y-108242627D01*
X115293598Y-108242626D01*
X115243351Y-108107908D01*
X115157188Y-107992811D01*
X115042091Y-107906648D01*
X114907373Y-107856401D01*
X114847834Y-107850000D01*
X114050000Y-107850000D01*
X114050000Y-109100000D01*
X113550000Y-109100000D01*
X113550000Y-107850000D01*
X112752166Y-107850000D01*
X112692627Y-107856401D01*
X112692626Y-107856401D01*
X112557908Y-107906648D01*
X112442811Y-107992811D01*
X112356648Y-108107908D01*
X112306401Y-108242626D01*
X112306401Y-108242627D01*
X112300000Y-108302165D01*
X111256526Y-108302165D01*
X111246753Y-108287539D01*
X111107463Y-108148249D01*
X111083655Y-108132341D01*
X111062819Y-108101158D01*
X111070136Y-108064376D01*
X111092125Y-108046330D01*
X111159771Y-108018310D01*
X111189283Y-108006086D01*
X111292058Y-107937414D01*
X111379461Y-107850011D01*
X112641411Y-106588061D01*
X112645500Y-106581941D01*
X112710083Y-106485286D01*
X112735054Y-106425000D01*
X112738277Y-106417220D01*
X112738277Y-106417219D01*
X112745101Y-106400744D01*
X112757386Y-106371087D01*
X112781500Y-106249856D01*
X112781500Y-106126250D01*
X112781500Y-102887215D01*
X112795852Y-102852567D01*
X112830500Y-102838215D01*
X112865148Y-102852567D01*
X115589383Y-105576802D01*
X115596920Y-105586522D01*
X115778682Y-105894122D01*
X115787880Y-105909086D01*
X115787882Y-105909089D01*
X115790608Y-105912252D01*
X115794979Y-105918170D01*
X115845370Y-105998366D01*
X115859523Y-106020890D01*
X115979110Y-106140477D01*
X116122310Y-106230456D01*
X116281941Y-106286313D01*
X116450000Y-106305249D01*
X116618059Y-106286313D01*
X116745753Y-106241631D01*
X116783194Y-106243733D01*
X116808184Y-106271697D01*
X116806082Y-106309141D01*
X116805782Y-106309752D01*
X116793950Y-106333472D01*
X116793930Y-106333513D01*
X116793922Y-106333530D01*
X116786073Y-106350003D01*
X116786068Y-106350014D01*
X116785743Y-106350728D01*
X116776029Y-106376817D01*
X116773974Y-106381555D01*
X116764418Y-106400749D01*
X116764413Y-106400761D01*
X116708604Y-106596911D01*
X116708602Y-106596920D01*
X116689785Y-106800000D01*
X116708602Y-107003079D01*
X116708603Y-107003085D01*
X116764417Y-107199248D01*
X116764420Y-107199255D01*
X116855325Y-107381818D01*
X116855328Y-107381822D01*
X116978233Y-107544576D01*
X116978236Y-107544579D01*
X117003008Y-107567162D01*
X117018945Y-107601110D01*
X117006208Y-107636384D01*
X116991109Y-107647592D01*
X116578225Y-107844719D01*
X116557113Y-107849500D01*
X116152120Y-107849500D01*
X116092521Y-107855907D01*
X115957666Y-107906205D01*
X115842454Y-107992454D01*
X115756205Y-108107666D01*
X115705907Y-108242520D01*
X115699500Y-108302120D01*
X115699500Y-110397879D01*
X115705907Y-110457478D01*
X115705909Y-110457483D01*
X115756204Y-110592331D01*
X115842454Y-110707546D01*
X115934934Y-110776776D01*
X115957074Y-110793351D01*
X115957669Y-110793796D01*
X116092517Y-110844091D01*
X116092520Y-110844092D01*
X116136177Y-110848785D01*
X116152127Y-110850500D01*
X118247872Y-110850499D01*
X118247878Y-110850499D01*
X118307478Y-110844092D01*
X118307479Y-110844091D01*
X118307483Y-110844091D01*
X118442331Y-110793796D01*
X118557546Y-110707546D01*
X118643796Y-110592331D01*
X118694091Y-110457483D01*
X118694091Y-110457481D01*
X118694092Y-110457479D01*
X118700499Y-110397879D01*
X118700500Y-110397873D01*
X118700499Y-109754011D01*
X118701239Y-109745526D01*
X118985017Y-108131622D01*
X119005153Y-108099984D01*
X119015524Y-108094438D01*
X119696549Y-107829838D01*
X119701937Y-107827709D01*
X119701941Y-107827707D01*
X119702023Y-107827675D01*
X119702130Y-107827632D01*
X119702142Y-107827626D01*
X119702161Y-107827619D01*
X119755295Y-107802593D01*
X119755296Y-107802591D01*
X119756793Y-107801887D01*
X119762577Y-107799056D01*
X119774319Y-107794506D01*
X119787637Y-107789348D01*
X119961041Y-107681981D01*
X120011990Y-107635534D01*
X120047262Y-107622798D01*
X120078008Y-107635533D01*
X120128959Y-107681981D01*
X120302363Y-107789348D01*
X120492544Y-107863024D01*
X120693024Y-107900500D01*
X120693026Y-107900500D01*
X120896974Y-107900500D01*
X120896976Y-107900500D01*
X121097456Y-107863024D01*
X121287637Y-107789348D01*
X121461041Y-107681981D01*
X121512364Y-107635193D01*
X121547632Y-107622459D01*
X121578381Y-107635196D01*
X121629257Y-107681576D01*
X121802590Y-107788900D01*
X121992674Y-107862538D01*
X122193072Y-107900000D01*
X122396928Y-107900000D01*
X122597325Y-107862538D01*
X122787409Y-107788900D01*
X122960736Y-107681580D01*
X123011616Y-107635196D01*
X123046890Y-107622459D01*
X123077636Y-107635194D01*
X123128959Y-107681981D01*
X123302363Y-107789348D01*
X123492544Y-107863024D01*
X123693024Y-107900500D01*
X123693026Y-107900500D01*
X123896974Y-107900500D01*
X123896976Y-107900500D01*
X124097456Y-107863024D01*
X124287637Y-107789348D01*
X124461041Y-107681981D01*
X124611764Y-107544579D01*
X124734673Y-107381821D01*
X124825582Y-107199250D01*
X124881397Y-107003083D01*
X124900215Y-106800000D01*
X124881397Y-106596917D01*
X124825582Y-106400750D01*
X124734673Y-106218179D01*
X124649593Y-106105515D01*
X124611766Y-106055423D01*
X124611763Y-106055420D01*
X124461045Y-105918022D01*
X124461042Y-105918020D01*
X124461041Y-105918019D01*
X124287637Y-105810652D01*
X124287634Y-105810651D01*
X124287633Y-105810650D01*
X124097462Y-105736978D01*
X124097460Y-105736977D01*
X124097456Y-105736976D01*
X123896976Y-105699500D01*
X123693024Y-105699500D01*
X123492544Y-105736976D01*
X123492540Y-105736977D01*
X123492537Y-105736978D01*
X123302366Y-105810650D01*
X123128954Y-105918022D01*
X123077637Y-105964802D01*
X123042363Y-105977538D01*
X123011616Y-105964801D01*
X122960742Y-105918423D01*
X122787409Y-105811099D01*
X122597325Y-105737461D01*
X122396928Y-105700000D01*
X122193072Y-105700000D01*
X121992674Y-105737461D01*
X121802590Y-105811099D01*
X121629257Y-105918423D01*
X121578380Y-105964802D01*
X121543106Y-105977538D01*
X121512359Y-105964801D01*
X121499798Y-105953350D01*
X121483861Y-105919402D01*
X121486559Y-105900956D01*
X121531313Y-105773059D01*
X121550249Y-105605000D01*
X121531313Y-105436941D01*
X121524362Y-105417078D01*
X121517800Y-105398323D01*
X121515284Y-105386924D01*
X121514668Y-105380648D01*
X121514521Y-105379146D01*
X121428912Y-105030259D01*
X121427500Y-105018582D01*
X121427500Y-104208307D01*
X121441852Y-104173659D01*
X121476500Y-104159307D01*
X121503722Y-104167564D01*
X121591873Y-104226465D01*
X121710256Y-104275501D01*
X121835931Y-104300500D01*
X121964069Y-104300500D01*
X122089744Y-104275501D01*
X122208127Y-104226465D01*
X122314669Y-104155276D01*
X122405276Y-104064669D01*
X122476465Y-103958127D01*
X122525501Y-103839744D01*
X122550500Y-103714069D01*
X122550500Y-103585931D01*
X122525501Y-103460256D01*
X122476465Y-103341873D01*
X122405276Y-103235331D01*
X122314669Y-103144724D01*
X122300487Y-103135248D01*
X122235301Y-103091692D01*
X122208127Y-103073535D01*
X122176550Y-103060455D01*
X122089742Y-103024498D01*
X122089737Y-103024497D01*
X121964072Y-102999500D01*
X121964069Y-102999500D01*
X121835931Y-102999500D01*
X121835927Y-102999500D01*
X121710262Y-103024497D01*
X121710257Y-103024498D01*
X121591872Y-103073535D01*
X121591871Y-103073535D01*
X121503722Y-103132434D01*
X121466940Y-103139750D01*
X121435758Y-103118914D01*
X121427500Y-103091692D01*
X121427500Y-101678111D01*
X121441852Y-101643463D01*
X121471012Y-101629419D01*
X121623006Y-101612294D01*
X121664978Y-101597606D01*
X121675834Y-101595148D01*
X121686307Y-101594004D01*
X122032340Y-101505024D01*
X122044543Y-101503481D01*
X122435819Y-101503481D01*
X122435822Y-101503481D01*
X122557054Y-101479367D01*
X122649123Y-101441230D01*
X122671252Y-101432064D01*
X122774027Y-101363392D01*
X122861430Y-101275989D01*
X123386666Y-100750753D01*
X123413096Y-100711197D01*
X123455338Y-100647978D01*
X123469192Y-100614529D01*
X123502641Y-100533780D01*
X123526755Y-100412548D01*
X123526755Y-100288942D01*
X123526755Y-99904852D01*
X123528299Y-99892649D01*
X123541598Y-99840932D01*
X123584013Y-99675980D01*
X123606541Y-99645999D01*
X123643672Y-99640728D01*
X123666117Y-99653536D01*
X124158148Y-100145567D01*
X124172500Y-100180215D01*
X124172500Y-102477413D01*
X124171561Y-102486962D01*
X124099864Y-102847825D01*
X124098992Y-102852214D01*
X124097182Y-102858848D01*
X124088318Y-102884181D01*
X124088317Y-102884184D01*
X124082884Y-102932393D01*
X124082257Y-102936432D01*
X124081590Y-102939792D01*
X124074418Y-102987876D01*
X124074197Y-102990086D01*
X124074196Y-102990095D01*
X124074222Y-103006449D01*
X124073914Y-103012009D01*
X124069382Y-103052237D01*
X124069382Y-103052238D01*
X124079802Y-103144723D01*
X124088318Y-103220298D01*
X124144175Y-103379929D01*
X124234154Y-103523129D01*
X124353741Y-103642716D01*
X124496941Y-103732695D01*
X124656572Y-103788552D01*
X124824631Y-103807488D01*
X124992690Y-103788552D01*
X125081850Y-103757353D01*
X125119292Y-103759455D01*
X125144282Y-103787419D01*
X125147032Y-103803586D01*
X125149499Y-110947237D01*
X125149191Y-110952741D01*
X125137593Y-111055666D01*
X125135151Y-111066362D01*
X125101858Y-111161512D01*
X125097097Y-111171399D01*
X125043461Y-111256759D01*
X125036620Y-111265337D01*
X124965337Y-111336620D01*
X124956759Y-111343461D01*
X124871399Y-111397097D01*
X124861512Y-111401858D01*
X124766362Y-111435151D01*
X124755666Y-111437593D01*
X124659877Y-111448386D01*
X124652732Y-111449192D01*
X124647247Y-111449500D01*
X101652753Y-111449500D01*
X101647267Y-111449192D01*
X101639061Y-111448267D01*
X101544333Y-111437593D01*
X101533637Y-111435151D01*
X101469221Y-111412612D01*
X101438484Y-111401856D01*
X101428603Y-111397098D01*
X101343240Y-111343461D01*
X101334662Y-111336620D01*
X101263379Y-111265337D01*
X101256538Y-111256759D01*
X101202899Y-111171393D01*
X101198144Y-111161519D01*
X101164847Y-111066361D01*
X101162406Y-111055665D01*
X101150808Y-110952733D01*
X101150500Y-110947247D01*
X101150500Y-110565335D01*
X101164852Y-110530687D01*
X101199500Y-110516335D01*
X101226723Y-110524593D01*
X101356325Y-110611190D01*
X101538310Y-110686570D01*
X101580000Y-110694862D01*
X101580000Y-109891988D01*
X101589940Y-109909205D01*
X101645795Y-109965060D01*
X101714204Y-110004556D01*
X101790504Y-110025000D01*
X101869496Y-110025000D01*
X101945796Y-110004556D01*
X102014205Y-109965060D01*
X102070060Y-109909205D01*
X102080000Y-109891988D01*
X102080000Y-110694862D01*
X102121689Y-110686570D01*
X102121690Y-110686570D01*
X102303674Y-110611190D01*
X102467460Y-110501753D01*
X102606753Y-110362460D01*
X102716190Y-110198674D01*
X102791570Y-110016690D01*
X102791570Y-110016689D01*
X102830000Y-109823487D01*
X102830000Y-109575000D01*
X102130000Y-109575000D01*
X102130000Y-109075000D01*
X102830000Y-109075000D01*
X102830000Y-108826512D01*
X102791570Y-108633310D01*
X102791570Y-108633309D01*
X102716190Y-108451325D01*
X102606753Y-108287539D01*
X102467460Y-108148246D01*
X102303674Y-108038809D01*
X102121691Y-107963429D01*
X102121682Y-107963426D01*
X102080000Y-107955135D01*
X102080000Y-108758011D01*
X102070060Y-108740795D01*
X102014205Y-108684940D01*
X101945796Y-108645444D01*
X101869496Y-108625000D01*
X101790504Y-108625000D01*
X101714204Y-108645444D01*
X101645795Y-108684940D01*
X101589940Y-108740795D01*
X101580000Y-108758011D01*
X101580000Y-107955135D01*
X101579999Y-107955135D01*
X101538317Y-107963426D01*
X101538308Y-107963429D01*
X101356325Y-108038809D01*
X101226723Y-108125406D01*
X101189940Y-108132722D01*
X101158758Y-108111887D01*
X101150500Y-108084664D01*
X101150500Y-106535335D01*
X101164852Y-106500687D01*
X101199500Y-106486335D01*
X101226723Y-106494593D01*
X101356325Y-106581190D01*
X101538310Y-106656570D01*
X101580000Y-106664862D01*
X101580000Y-105861988D01*
X101589940Y-105879205D01*
X101645795Y-105935060D01*
X101714204Y-105974556D01*
X101790504Y-105995000D01*
X101869496Y-105995000D01*
X101945796Y-105974556D01*
X102014205Y-105935060D01*
X102070060Y-105879205D01*
X102080000Y-105861988D01*
X102080000Y-106664862D01*
X102121689Y-106656570D01*
X102121690Y-106656570D01*
X102303674Y-106581190D01*
X102467460Y-106471753D01*
X102606753Y-106332460D01*
X102716190Y-106168674D01*
X102762405Y-106057101D01*
X102788923Y-106030582D01*
X102826426Y-106030582D01*
X102842323Y-106041204D01*
X102878809Y-106077689D01*
X102906635Y-106105515D01*
X102942549Y-106126250D01*
X103037862Y-106181280D01*
X103037864Y-106181280D01*
X103037865Y-106181281D01*
X103143465Y-106209576D01*
X103184230Y-106220499D01*
X103184231Y-106220500D01*
X103184234Y-106220500D01*
X103335769Y-106220500D01*
X103335769Y-106220499D01*
X103482135Y-106181281D01*
X103613365Y-106105515D01*
X103720515Y-105998365D01*
X103796281Y-105867135D01*
X103835499Y-105720769D01*
X103835500Y-105720769D01*
X103835500Y-105569231D01*
X103835499Y-105569230D01*
X103800053Y-105436942D01*
X103796281Y-105422865D01*
X103796280Y-105422864D01*
X103796280Y-105422862D01*
X103748246Y-105339666D01*
X103720515Y-105291635D01*
X103613365Y-105184485D01*
X103582398Y-105166606D01*
X103482137Y-105108719D01*
X103482133Y-105108718D01*
X103335769Y-105069500D01*
X103335766Y-105069500D01*
X103184234Y-105069500D01*
X103184231Y-105069500D01*
X103037866Y-105108718D01*
X103037862Y-105108719D01*
X102906634Y-105184485D01*
X102906634Y-105184486D01*
X102799486Y-105291634D01*
X102799485Y-105291634D01*
X102753952Y-105370500D01*
X102724199Y-105393330D01*
X102711517Y-105395000D01*
X102130000Y-105395000D01*
X102130000Y-104895000D01*
X102830000Y-104895000D01*
X102830000Y-104496512D01*
X102791570Y-104303310D01*
X102791570Y-104303309D01*
X102716190Y-104121325D01*
X102606753Y-103957539D01*
X102467460Y-103818246D01*
X102303674Y-103708809D01*
X102121691Y-103633429D01*
X102121682Y-103633426D01*
X102080000Y-103625135D01*
X102080000Y-104428011D01*
X102070060Y-104410795D01*
X102014205Y-104354940D01*
X101945796Y-104315444D01*
X101869496Y-104295000D01*
X101790504Y-104295000D01*
X101714204Y-104315444D01*
X101645795Y-104354940D01*
X101589940Y-104410795D01*
X101580000Y-104428011D01*
X101580000Y-103625135D01*
X101579999Y-103625135D01*
X101538317Y-103633426D01*
X101538308Y-103633429D01*
X101356325Y-103708809D01*
X101226723Y-103795406D01*
X101189940Y-103802722D01*
X101158758Y-103781887D01*
X101150500Y-103754664D01*
X101150500Y-102487075D01*
X105110475Y-102487075D01*
X105234460Y-102553347D01*
X105234467Y-102553350D01*
X105422961Y-102610529D01*
X105422969Y-102610531D01*
X105619000Y-102629839D01*
X105815030Y-102610531D01*
X105815038Y-102610529D01*
X106003532Y-102553350D01*
X106003539Y-102553347D01*
X106127522Y-102487075D01*
X106127523Y-102487075D01*
X105619000Y-101978553D01*
X105110475Y-102487075D01*
X101150500Y-102487075D01*
X101150500Y-97027605D01*
X101164852Y-96992957D01*
X101199500Y-96978605D01*
X101234148Y-96992957D01*
X101244770Y-97008854D01*
X101281715Y-97098047D01*
X101399725Y-97302447D01*
X101399735Y-97302462D01*
X101543403Y-97489693D01*
X101543413Y-97489705D01*
X101710294Y-97656586D01*
X101710306Y-97656596D01*
X101897537Y-97800264D01*
X101897546Y-97800270D01*
X101897550Y-97800273D01*
X102101951Y-97918284D01*
X102320007Y-98008606D01*
X102320010Y-98008606D01*
X102320013Y-98008608D01*
X102547974Y-98069690D01*
X102547975Y-98069690D01*
X102547986Y-98069693D01*
X102781989Y-98100500D01*
X102781993Y-98100500D01*
X103018007Y-98100500D01*
X103018011Y-98100500D01*
X103252014Y-98069693D01*
X103434149Y-98020890D01*
X103479986Y-98008608D01*
X103479986Y-98008607D01*
X103479993Y-98008606D01*
X103698049Y-97918284D01*
X103902450Y-97800273D01*
X104089699Y-97656592D01*
X104256592Y-97489699D01*
X104400273Y-97302450D01*
X104518284Y-97098049D01*
X104608606Y-96879993D01*
X104669693Y-96652014D01*
X104700500Y-96418011D01*
X104700500Y-96181989D01*
X104669693Y-95947986D01*
X104608606Y-95720007D01*
X104518284Y-95501951D01*
X104400273Y-95297550D01*
X104400270Y-95297546D01*
X104400264Y-95297537D01*
X104256596Y-95110306D01*
X104256586Y-95110294D01*
X104089705Y-94943413D01*
X104089693Y-94943403D01*
X103902462Y-94799735D01*
X103902447Y-94799725D01*
X103698050Y-94681716D01*
X103479996Y-94591395D01*
X103479986Y-94591391D01*
X103252025Y-94530309D01*
X103252018Y-94530308D01*
X103252014Y-94530307D01*
X103018011Y-94499500D01*
X102781989Y-94499500D01*
X102547986Y-94530307D01*
X102547982Y-94530307D01*
X102547974Y-94530309D01*
X102320013Y-94591391D01*
X102320003Y-94591395D01*
X102101949Y-94681716D01*
X101897552Y-94799725D01*
X101897537Y-94799735D01*
X101710306Y-94943403D01*
X101710294Y-94943413D01*
X101543413Y-95110294D01*
X101543403Y-95110306D01*
X101399735Y-95297537D01*
X101399725Y-95297552D01*
X101281716Y-95501949D01*
X101244770Y-95591146D01*
X101218251Y-95617664D01*
X101180748Y-95617664D01*
X101154230Y-95591145D01*
X101150500Y-95572394D01*
X101150500Y-91156001D01*
X103774500Y-91156001D01*
X103774500Y-91293998D01*
X103801417Y-91429318D01*
X103801420Y-91429328D01*
X103854225Y-91556811D01*
X103854800Y-91557671D01*
X103930883Y-91671539D01*
X104028460Y-91769116D01*
X104074102Y-91799613D01*
X104143189Y-91845775D01*
X104270672Y-91898580D01*
X104270678Y-91898581D01*
X104270681Y-91898582D01*
X104406001Y-91925499D01*
X104406007Y-91925500D01*
X104543993Y-91925500D01*
X104679328Y-91898580D01*
X104806811Y-91845775D01*
X104921542Y-91769114D01*
X105019114Y-91671542D01*
X105095775Y-91556811D01*
X105148580Y-91429328D01*
X105175500Y-91293993D01*
X105175500Y-91156007D01*
X105175499Y-91156001D01*
X106774500Y-91156001D01*
X106774500Y-91293998D01*
X106801417Y-91429318D01*
X106801420Y-91429328D01*
X106854225Y-91556811D01*
X106854800Y-91557671D01*
X106930883Y-91671539D01*
X107028460Y-91769116D01*
X107074102Y-91799613D01*
X107143189Y-91845775D01*
X107270672Y-91898580D01*
X107270678Y-91898581D01*
X107270681Y-91898582D01*
X107406001Y-91925499D01*
X107406007Y-91925500D01*
X107543993Y-91925500D01*
X107679328Y-91898580D01*
X107806811Y-91845775D01*
X107921542Y-91769114D01*
X108019114Y-91671542D01*
X108095775Y-91556811D01*
X108148580Y-91429328D01*
X108175500Y-91293993D01*
X108175500Y-91156007D01*
X108170150Y-91129109D01*
X108148582Y-91020681D01*
X108148579Y-91020670D01*
X108143961Y-91009521D01*
X108095775Y-90893189D01*
X108049613Y-90824102D01*
X108019116Y-90778460D01*
X107921539Y-90680883D01*
X107853074Y-90635137D01*
X107806811Y-90604225D01*
X107806808Y-90604223D01*
X107806807Y-90604223D01*
X107679329Y-90551420D01*
X107679318Y-90551417D01*
X107543998Y-90524500D01*
X107543993Y-90524500D01*
X107406007Y-90524500D01*
X107406001Y-90524500D01*
X107270681Y-90551417D01*
X107270670Y-90551420D01*
X107143192Y-90604223D01*
X107028460Y-90680883D01*
X106930883Y-90778460D01*
X106854223Y-90893192D01*
X106801420Y-91020670D01*
X106801417Y-91020681D01*
X106774500Y-91156001D01*
X105175499Y-91156001D01*
X105170150Y-91129109D01*
X105148582Y-91020681D01*
X105148579Y-91020670D01*
X105143961Y-91009521D01*
X105095775Y-90893189D01*
X105049613Y-90824102D01*
X105019116Y-90778460D01*
X104921539Y-90680883D01*
X104853074Y-90635137D01*
X104806811Y-90604225D01*
X104806808Y-90604223D01*
X104806807Y-90604223D01*
X104679329Y-90551420D01*
X104679318Y-90551417D01*
X104543998Y-90524500D01*
X104543993Y-90524500D01*
X104406007Y-90524500D01*
X104406001Y-90524500D01*
X104270681Y-90551417D01*
X104270670Y-90551420D01*
X104143192Y-90604223D01*
X104028460Y-90680883D01*
X103930883Y-90778460D01*
X103854223Y-90893192D01*
X103801420Y-91020670D01*
X103801417Y-91020681D01*
X103774500Y-91156001D01*
X101150500Y-91156001D01*
X101150500Y-90352752D01*
X101150808Y-90347266D01*
X101162406Y-90244332D01*
X101164848Y-90233637D01*
X101198145Y-90138477D01*
X101202897Y-90128610D01*
X101256541Y-90043235D01*
X101263375Y-90034666D01*
X101334666Y-89963375D01*
X101343235Y-89956541D01*
X101428610Y-89902897D01*
X101438477Y-89898145D01*
X101533640Y-89864847D01*
X101544330Y-89862406D01*
X101647270Y-89850807D01*
X101652741Y-89850500D01*
X124573644Y-89857584D01*
G37*
G04 #@! TD.AperFunction*
G04 #@! TA.AperFunction,Conductor*
G36*
X109494374Y-104262340D02*
G01*
X109508726Y-104296988D01*
X109507785Y-104306547D01*
X109470000Y-104496512D01*
X109470000Y-104895000D01*
X110170000Y-104895000D01*
X110170000Y-105395000D01*
X109588483Y-105395000D01*
X109553835Y-105380648D01*
X109546048Y-105370500D01*
X109531903Y-105346000D01*
X109500515Y-105291635D01*
X109393365Y-105184485D01*
X109362398Y-105166606D01*
X109262137Y-105108719D01*
X109262133Y-105108718D01*
X109115769Y-105069500D01*
X109115766Y-105069500D01*
X108964234Y-105069500D01*
X108964231Y-105069500D01*
X108817866Y-105108718D01*
X108817862Y-105108719D01*
X108686636Y-105184484D01*
X108624425Y-105246694D01*
X108589776Y-105261045D01*
X108555128Y-105246693D01*
X108542322Y-105224248D01*
X108533095Y-105188364D01*
X108538366Y-105151234D01*
X108545899Y-105141519D01*
X109425079Y-104262339D01*
X109459726Y-104247988D01*
X109494374Y-104262340D01*
G37*
G04 #@! TD.AperFunction*
G04 #@! TA.AperFunction,Conductor*
G36*
X122653855Y-97794171D02*
G01*
X122657990Y-97802113D01*
X122658035Y-97803101D01*
X122658700Y-98038708D01*
X122657793Y-98043258D01*
X122567598Y-98258748D01*
X122561242Y-98265057D01*
X122552288Y-98265024D01*
X122550691Y-98264206D01*
X122134265Y-98008972D01*
X122129002Y-98001727D01*
X122130404Y-97992883D01*
X122132102Y-97990728D01*
X122298208Y-97824622D01*
X122305457Y-97821241D01*
X122645316Y-97791479D01*
X122653855Y-97794171D01*
G37*
G04 #@! TD.AperFunction*
G04 #@! TA.AperFunction,Conductor*
G36*
X120287717Y-91677568D02*
G01*
X120321635Y-91691764D01*
X120327944Y-91698120D01*
X120328449Y-91705471D01*
X120229259Y-92091214D01*
X120223880Y-92098373D01*
X120217928Y-92100000D01*
X119982072Y-92100000D01*
X119973799Y-92096573D01*
X119970741Y-92091214D01*
X119871550Y-91705471D01*
X119872808Y-91696605D01*
X119878363Y-91691764D01*
X120095484Y-91600889D01*
X120104437Y-91600857D01*
X120287717Y-91677568D01*
G37*
G04 #@! TD.AperFunction*
G04 #@! TA.AperFunction,Conductor*
G36*
X123157566Y-95807581D02*
G01*
X123157932Y-95807932D01*
X124141123Y-96791123D01*
X124144550Y-96799396D01*
X124141123Y-96807669D01*
X124140522Y-96808230D01*
X123389797Y-97460201D01*
X123389786Y-97460211D01*
X123217863Y-97632135D01*
X123209590Y-97635562D01*
X123201970Y-97632740D01*
X122240913Y-96807874D01*
X122236867Y-96799886D01*
X122239655Y-96791376D01*
X122239893Y-96791106D01*
X123141037Y-95808296D01*
X123149152Y-95804516D01*
X123157566Y-95807581D01*
G37*
G04 #@! TD.AperFunction*
G04 #@! TA.AperFunction,Conductor*
G36*
X110341215Y-107320744D02*
G01*
X110348373Y-107326122D01*
X110350000Y-107332074D01*
X110350000Y-107567931D01*
X110346573Y-107576204D01*
X110341214Y-107579262D01*
X109955471Y-107678452D01*
X109946605Y-107677194D01*
X109941764Y-107671638D01*
X109927568Y-107637720D01*
X109850889Y-107454518D01*
X109850857Y-107445566D01*
X109941764Y-107228366D01*
X109948120Y-107222058D01*
X109955471Y-107221553D01*
X110341215Y-107320744D01*
G37*
G04 #@! TD.AperFunction*
G04 #@! TA.AperFunction,Conductor*
G36*
X119340560Y-104492033D02*
G01*
X119507966Y-104659439D01*
X119511393Y-104667712D01*
X119510042Y-104673169D01*
X119282122Y-105105400D01*
X119275232Y-105111120D01*
X119267329Y-105110766D01*
X119003815Y-105002563D01*
X118997463Y-104996251D01*
X118997436Y-104996184D01*
X118889233Y-104732670D01*
X118889260Y-104723715D01*
X118894599Y-104717877D01*
X119326832Y-104489956D01*
X119335746Y-104489129D01*
X119340560Y-104492033D01*
G37*
G04 #@! TD.AperFunction*
G04 #@! TA.AperFunction,Conductor*
G36*
X115491759Y-95993449D02*
G01*
X115498649Y-95999169D01*
X115500000Y-96004626D01*
X115500000Y-96241373D01*
X115496573Y-96249646D01*
X115491759Y-96252550D01*
X115024961Y-96397020D01*
X115016045Y-96396192D01*
X115010706Y-96390354D01*
X114900883Y-96127509D01*
X114900857Y-96118556D01*
X114900862Y-96118542D01*
X115010707Y-95855643D01*
X115017058Y-95849333D01*
X115024960Y-95848979D01*
X115491759Y-95993449D01*
G37*
G04 #@! TD.AperFunction*
G04 #@! TA.AperFunction,Conductor*
G36*
X104776647Y-105853427D02*
G01*
X104779551Y-105858241D01*
X104924020Y-106325038D01*
X104923192Y-106333954D01*
X104917354Y-106339293D01*
X104654511Y-106449115D01*
X104645556Y-106449142D01*
X104645489Y-106449115D01*
X104382645Y-106339293D01*
X104376333Y-106332941D01*
X104375979Y-106325039D01*
X104520449Y-105858240D01*
X104526169Y-105851351D01*
X104531626Y-105850000D01*
X104768374Y-105850000D01*
X104776647Y-105853427D01*
G37*
G04 #@! TD.AperFunction*
G04 #@! TA.AperFunction,Conductor*
G36*
X124926748Y-102560565D02*
G01*
X124929612Y-102565252D01*
X125052307Y-102946338D01*
X125051581Y-102955264D01*
X125045687Y-102960717D01*
X124826820Y-103052322D01*
X124822256Y-103053229D01*
X124588826Y-103052295D01*
X124580567Y-103048835D01*
X124577173Y-103040548D01*
X124577397Y-103038315D01*
X124595672Y-102946338D01*
X124671128Y-102566557D01*
X124676102Y-102559111D01*
X124682604Y-102557138D01*
X124918475Y-102557138D01*
X124926748Y-102560565D01*
G37*
G04 #@! TD.AperFunction*
G04 #@! TA.AperFunction,Conductor*
G36*
X122814066Y-105342539D02*
G01*
X122577164Y-105791805D01*
X122299293Y-105677707D01*
X122185195Y-105399836D01*
X122634461Y-105162934D01*
X122814066Y-105342539D01*
G37*
G04 #@! TD.AperFunction*
G04 #@! TA.AperFunction,Conductor*
G36*
X110926647Y-99253427D02*
G01*
X110929551Y-99258241D01*
X111074020Y-99725038D01*
X111073192Y-99733954D01*
X111067354Y-99739293D01*
X110804511Y-99849115D01*
X110795556Y-99849142D01*
X110795489Y-99849115D01*
X110532645Y-99739293D01*
X110526333Y-99732941D01*
X110525979Y-99725039D01*
X110670449Y-99258240D01*
X110676169Y-99251351D01*
X110681626Y-99250000D01*
X110918374Y-99250000D01*
X110926647Y-99253427D01*
G37*
G04 #@! TD.AperFunction*
G04 #@! TA.AperFunction,Conductor*
G36*
X114783954Y-95849807D02*
G01*
X114789293Y-95855645D01*
X114899115Y-96118489D01*
X114899142Y-96127444D01*
X114899115Y-96127511D01*
X114789293Y-96390354D01*
X114782941Y-96396666D01*
X114775038Y-96397020D01*
X114308241Y-96252550D01*
X114301351Y-96246830D01*
X114300000Y-96241373D01*
X114300000Y-96004626D01*
X114303427Y-95996353D01*
X114308239Y-95993449D01*
X114775039Y-95848979D01*
X114783954Y-95849807D01*
G37*
G04 #@! TD.AperFunction*
G04 #@! TA.AperFunction,Conductor*
G36*
X123337717Y-91777568D02*
G01*
X123371635Y-91791764D01*
X123377944Y-91798120D01*
X123378449Y-91805471D01*
X123279259Y-92191214D01*
X123273880Y-92198373D01*
X123267928Y-92200000D01*
X123032072Y-92200000D01*
X123023799Y-92196573D01*
X123020741Y-92191214D01*
X122921550Y-91805471D01*
X122922808Y-91796605D01*
X122928363Y-91791764D01*
X123145484Y-91700889D01*
X123154437Y-91700857D01*
X123337717Y-91777568D01*
G37*
G04 #@! TD.AperFunction*
G04 #@! TA.AperFunction,Conductor*
G36*
X108663394Y-101895808D02*
G01*
X108668235Y-101901364D01*
X108759109Y-102118483D01*
X108759142Y-102127437D01*
X108759109Y-102127517D01*
X108668235Y-102344635D01*
X108661879Y-102350944D01*
X108654528Y-102351449D01*
X108268786Y-102252259D01*
X108261627Y-102246880D01*
X108260000Y-102240928D01*
X108260000Y-102005071D01*
X108263427Y-101996798D01*
X108268783Y-101993741D01*
X108654528Y-101894550D01*
X108663394Y-101895808D01*
G37*
G04 #@! TD.AperFunction*
G04 #@! TA.AperFunction,Conductor*
G36*
X118399591Y-98926200D02*
G01*
X118766469Y-99215106D01*
X118770848Y-99222916D01*
X118768422Y-99231536D01*
X118767536Y-99232537D01*
X118602379Y-99399021D01*
X118598510Y-99401607D01*
X118379979Y-99491182D01*
X118371025Y-99491149D01*
X118364716Y-99484793D01*
X118364666Y-99484670D01*
X118330690Y-99399021D01*
X118214660Y-99106524D01*
X118214795Y-99097572D01*
X118217260Y-99093942D01*
X118384083Y-98927119D01*
X118392355Y-98923693D01*
X118399591Y-98926200D01*
G37*
G04 #@! TD.AperFunction*
G04 #@! TA.AperFunction,Conductor*
G36*
X123086972Y-99392825D02*
G01*
X123120890Y-99407021D01*
X123127199Y-99413377D01*
X123127704Y-99420728D01*
X123028514Y-99806471D01*
X123023135Y-99813630D01*
X123017183Y-99815257D01*
X122781327Y-99815257D01*
X122773054Y-99811830D01*
X122769996Y-99806471D01*
X122670805Y-99420728D01*
X122672063Y-99411862D01*
X122677618Y-99407021D01*
X122894739Y-99316146D01*
X122903692Y-99316114D01*
X123086972Y-99392825D01*
G37*
G04 #@! TD.AperFunction*
G04 #@! TA.AperFunction,Conductor*
G36*
X118751671Y-106574926D02*
G01*
X119291207Y-106797437D01*
X119297548Y-106803759D01*
X119297562Y-106803792D01*
X119520056Y-107343286D01*
X119520042Y-107352241D01*
X119513701Y-107358563D01*
X119513477Y-107358653D01*
X118543388Y-107735566D01*
X118534436Y-107735368D01*
X118530878Y-107732933D01*
X118362066Y-107564121D01*
X118358639Y-107555848D01*
X118359432Y-107551616D01*
X118506948Y-107171942D01*
X118507939Y-107169971D01*
X118520789Y-107149522D01*
X118567221Y-107016825D01*
X118567311Y-107016580D01*
X118736347Y-106581520D01*
X118742537Y-106575051D01*
X118751489Y-106574853D01*
X118751671Y-106574926D01*
G37*
G04 #@! TD.AperFunction*
G04 #@! TA.AperFunction,Conductor*
G36*
X106037717Y-94577568D02*
G01*
X106071635Y-94591764D01*
X106077944Y-94598120D01*
X106078449Y-94605471D01*
X105979259Y-94991214D01*
X105973880Y-94998373D01*
X105967928Y-95000000D01*
X105732072Y-95000000D01*
X105723799Y-94996573D01*
X105720741Y-94991214D01*
X105621550Y-94605471D01*
X105622808Y-94596605D01*
X105628363Y-94591764D01*
X105845484Y-94500889D01*
X105854437Y-94500857D01*
X106037717Y-94577568D01*
G37*
G04 #@! TD.AperFunction*
G04 #@! TA.AperFunction,Conductor*
G36*
X120228287Y-91600294D02*
G01*
X121079397Y-91795280D01*
X121086695Y-91800467D01*
X121088188Y-91809297D01*
X121085060Y-91814953D01*
X120108277Y-92792714D01*
X120100006Y-92796145D01*
X120091731Y-92792722D01*
X120091723Y-92792714D01*
X119114939Y-91814953D01*
X119111516Y-91806678D01*
X119114947Y-91798407D01*
X119120600Y-91795280D01*
X119971712Y-91600294D01*
X119974325Y-91600000D01*
X120225675Y-91600000D01*
X120228287Y-91600294D01*
G37*
G04 #@! TD.AperFunction*
G04 #@! TA.AperFunction,Conductor*
G36*
X108026201Y-105253427D02*
G01*
X108029259Y-105258786D01*
X108128449Y-105644528D01*
X108127191Y-105653394D01*
X108121635Y-105658235D01*
X107904517Y-105749109D01*
X107895563Y-105749142D01*
X107895483Y-105749109D01*
X107678364Y-105658235D01*
X107672055Y-105651879D01*
X107671550Y-105644528D01*
X107770741Y-105258786D01*
X107776120Y-105251627D01*
X107782072Y-105250000D01*
X108017928Y-105250000D01*
X108026201Y-105253427D01*
G37*
G04 #@! TD.AperFunction*
G04 #@! TA.AperFunction,Conductor*
G36*
X110572529Y-101153427D02*
G01*
X110575587Y-101158786D01*
X110674777Y-101544528D01*
X110673519Y-101553394D01*
X110667963Y-101558235D01*
X110450845Y-101649109D01*
X110441891Y-101649142D01*
X110441811Y-101649109D01*
X110224692Y-101558235D01*
X110218383Y-101551879D01*
X110217878Y-101544528D01*
X110317069Y-101158786D01*
X110322448Y-101151627D01*
X110328400Y-101150000D01*
X110564256Y-101150000D01*
X110572529Y-101153427D01*
G37*
G04 #@! TD.AperFunction*
G04 #@! TA.AperFunction,Conductor*
G36*
X119129915Y-105692791D02*
G01*
X119130500Y-105693420D01*
X119712170Y-106367515D01*
X119714980Y-106376018D01*
X119711595Y-106383422D01*
X119298437Y-106797554D01*
X119290168Y-106800991D01*
X119290135Y-106800991D01*
X118708702Y-106800022D01*
X118700434Y-106796581D01*
X118697021Y-106788303D01*
X118697168Y-106786470D01*
X118871422Y-105699212D01*
X118876115Y-105691586D01*
X118882975Y-105689364D01*
X119121642Y-105689364D01*
X119129915Y-105692791D01*
G37*
G04 #@! TD.AperFunction*
G04 #@! TA.AperFunction,Conductor*
G36*
X120926097Y-105109422D02*
G01*
X120929187Y-105114907D01*
X121023585Y-105499611D01*
X121022228Y-105508462D01*
X121016739Y-105513192D01*
X120799517Y-105604109D01*
X120790563Y-105604142D01*
X120790483Y-105604109D01*
X120573479Y-105513284D01*
X120567170Y-105506929D01*
X120566701Y-105499442D01*
X120638320Y-105234354D01*
X120670664Y-105114643D01*
X120676130Y-105107550D01*
X120681959Y-105105995D01*
X120917824Y-105105995D01*
X120926097Y-105109422D01*
G37*
G04 #@! TD.AperFunction*
G04 #@! TA.AperFunction,Conductor*
G36*
X123279403Y-97108758D02*
G01*
X123280509Y-97110037D01*
X123470744Y-97365134D01*
X123472943Y-97373814D01*
X123469661Y-97380378D01*
X123303450Y-97547530D01*
X123295187Y-97550980D01*
X123295107Y-97550980D01*
X123060966Y-97550043D01*
X123052707Y-97546583D01*
X123049335Y-97539052D01*
X123023753Y-97117738D01*
X123026672Y-97109274D01*
X123034722Y-97105353D01*
X123035431Y-97105331D01*
X123271130Y-97105331D01*
X123279403Y-97108758D01*
G37*
G04 #@! TD.AperFunction*
G04 #@! TA.AperFunction,Conductor*
G36*
X123742105Y-102376028D02*
G01*
X123591941Y-102861223D01*
X123337941Y-102861223D01*
X123187777Y-102376028D01*
X123464941Y-102260223D01*
X123742105Y-102376028D01*
G37*
G04 #@! TD.AperFunction*
G04 #@! TA.AperFunction,Conductor*
G36*
X110841215Y-106620741D02*
G01*
X110848373Y-106626119D01*
X110850000Y-106632071D01*
X110850000Y-106867928D01*
X110846573Y-106876201D01*
X110841214Y-106879259D01*
X110455471Y-106978449D01*
X110446605Y-106977191D01*
X110441764Y-106971635D01*
X110427568Y-106937717D01*
X110350889Y-106754515D01*
X110350857Y-106745563D01*
X110441764Y-106528363D01*
X110448120Y-106522055D01*
X110455471Y-106521550D01*
X110841215Y-106620741D01*
G37*
G04 #@! TD.AperFunction*
G04 #@! TA.AperFunction,Conductor*
G36*
X104779089Y-106370072D02*
G01*
X106594542Y-107095448D01*
X106600953Y-107101700D01*
X106601066Y-107110654D01*
X106600849Y-107111163D01*
X106152011Y-108096582D01*
X106145463Y-108102690D01*
X106145451Y-108102695D01*
X105161727Y-108469498D01*
X105152778Y-108469177D01*
X105146676Y-108462623D01*
X105146430Y-108461890D01*
X104527481Y-106384279D01*
X104528403Y-106375371D01*
X104535353Y-106369725D01*
X104538694Y-106369238D01*
X104774749Y-106369238D01*
X104779089Y-106370072D01*
G37*
G04 #@! TD.AperFunction*
G04 #@! TA.AperFunction,Conductor*
G36*
X114291215Y-96620741D02*
G01*
X114298373Y-96626119D01*
X114300000Y-96632071D01*
X114300000Y-96867928D01*
X114296573Y-96876201D01*
X114291214Y-96879259D01*
X113905471Y-96978449D01*
X113896605Y-96977191D01*
X113891764Y-96971635D01*
X113877568Y-96937717D01*
X113800889Y-96754515D01*
X113800857Y-96745563D01*
X113891764Y-96528363D01*
X113898120Y-96522055D01*
X113905471Y-96521550D01*
X114291215Y-96620741D01*
G37*
G04 #@! TD.AperFunction*
G04 #@! TA.AperFunction,Conductor*
G36*
X108400000Y-96249000D02*
G01*
X108514805Y-96527164D01*
X108150000Y-96693842D01*
X107896000Y-96693842D01*
X108122836Y-96135195D01*
X108400000Y-96249000D01*
G37*
G04 #@! TD.AperFunction*
G04 #@! TA.AperFunction,Conductor*
G36*
X121097945Y-95390342D02*
G01*
X121104271Y-95396680D01*
X121104347Y-95396868D01*
X121654027Y-96798139D01*
X121894112Y-97410173D01*
X121893943Y-97419127D01*
X121891493Y-97422719D01*
X121722719Y-97591493D01*
X121714446Y-97594920D01*
X121710174Y-97594112D01*
X119696875Y-96804349D01*
X119690426Y-96798139D01*
X119690257Y-96789185D01*
X119690336Y-96788990D01*
X120097438Y-95803780D01*
X120103759Y-95797447D01*
X121088991Y-95390335D01*
X121097945Y-95390342D01*
G37*
G04 #@! TD.AperFunction*
G04 #@! TA.AperFunction,Conductor*
G36*
X117857792Y-105535113D02*
G01*
X117860091Y-105538374D01*
X118344067Y-106559293D01*
X118344515Y-106568237D01*
X118338507Y-106574877D01*
X118337989Y-106575107D01*
X117800196Y-106798839D01*
X117791241Y-106798853D01*
X117791218Y-106798844D01*
X117252256Y-106575197D01*
X117245928Y-106568861D01*
X117245933Y-106559906D01*
X117246263Y-106559180D01*
X117672531Y-105704679D01*
X117674722Y-105701637D01*
X117841247Y-105535112D01*
X117849519Y-105531686D01*
X117857792Y-105535113D01*
G37*
G04 #@! TD.AperFunction*
G04 #@! TA.AperFunction,Conductor*
G36*
X118368153Y-107558940D02*
G01*
X118537604Y-107728391D01*
X118541031Y-107736664D01*
X118540854Y-107738690D01*
X118202334Y-109663922D01*
X118197526Y-109671477D01*
X118188785Y-109673419D01*
X118187182Y-109673019D01*
X117203912Y-109352214D01*
X117197110Y-109346390D01*
X117197100Y-109346371D01*
X116698573Y-108360678D01*
X116697899Y-108351751D01*
X116703735Y-108344959D01*
X116703876Y-108344889D01*
X118354839Y-107556654D01*
X118363781Y-107556183D01*
X118368153Y-107558940D01*
G37*
G04 #@! TD.AperFunction*
G04 #@! TA.AperFunction,Conductor*
G36*
X123277663Y-91700076D02*
G01*
X124125934Y-91797243D01*
X124133764Y-91801589D01*
X124136227Y-91810198D01*
X124132880Y-91817136D01*
X123158277Y-92792714D01*
X123150006Y-92796145D01*
X123141731Y-92792722D01*
X123141723Y-92792714D01*
X122167119Y-91817136D01*
X122163696Y-91808861D01*
X122167127Y-91800590D01*
X122174063Y-91797243D01*
X123022337Y-91700076D01*
X123023668Y-91700000D01*
X123276332Y-91700000D01*
X123277663Y-91700076D01*
G37*
G04 #@! TD.AperFunction*
G04 #@! TA.AperFunction,Conductor*
G36*
X111119214Y-103453612D02*
G01*
X111123034Y-103461711D01*
X111123048Y-103462226D01*
X111123990Y-103697625D01*
X111123083Y-103702189D01*
X111032290Y-103919116D01*
X111025934Y-103925425D01*
X111016980Y-103925392D01*
X111015991Y-103924922D01*
X110651117Y-103730303D01*
X110645430Y-103723386D01*
X110644923Y-103719980D01*
X110644923Y-103484150D01*
X110648350Y-103475877D01*
X110656060Y-103472464D01*
X111110787Y-103450587D01*
X111119214Y-103453612D01*
G37*
G04 #@! TD.AperFunction*
G04 #@! TA.AperFunction,Conductor*
G36*
X108641215Y-94270741D02*
G01*
X108648373Y-94276119D01*
X108650000Y-94282071D01*
X108650000Y-94517928D01*
X108646573Y-94526201D01*
X108641214Y-94529259D01*
X108255471Y-94628449D01*
X108246605Y-94627191D01*
X108241764Y-94621635D01*
X108227568Y-94587717D01*
X108150889Y-94404515D01*
X108150857Y-94395563D01*
X108241764Y-94178363D01*
X108248120Y-94172055D01*
X108255471Y-94171550D01*
X108641215Y-94270741D01*
G37*
G04 #@! TD.AperFunction*
G04 #@! TA.AperFunction,Conductor*
G36*
X116341759Y-102345526D02*
G01*
X116348649Y-102351246D01*
X116350000Y-102356703D01*
X116350000Y-102593450D01*
X116346573Y-102601723D01*
X116341759Y-102604627D01*
X115874961Y-102749097D01*
X115866045Y-102748269D01*
X115860706Y-102742431D01*
X115750883Y-102479586D01*
X115750857Y-102470633D01*
X115750862Y-102470619D01*
X115860707Y-102207720D01*
X115867058Y-102201410D01*
X115874960Y-102201056D01*
X116341759Y-102345526D01*
G37*
G04 #@! TD.AperFunction*
G04 #@! TA.AperFunction,Conductor*
G36*
X113771095Y-97552709D02*
G01*
X113921437Y-97704258D01*
X113936421Y-97719363D01*
X113939815Y-97727650D01*
X113937242Y-97734923D01*
X113680643Y-98054891D01*
X113672794Y-98059201D01*
X113664196Y-98056698D01*
X113663243Y-98055844D01*
X113496651Y-97889252D01*
X113493224Y-97880979D01*
X113493254Y-97880140D01*
X113504285Y-97726777D01*
X113516220Y-97560829D01*
X113520232Y-97552824D01*
X113527855Y-97549969D01*
X113762814Y-97549306D01*
X113771095Y-97552709D01*
G37*
G04 #@! TD.AperFunction*
G04 #@! TA.AperFunction,Conductor*
G36*
X116194058Y-105111259D02*
G01*
X116536959Y-105313882D01*
X116542338Y-105321041D01*
X116541833Y-105328392D01*
X116452564Y-105546175D01*
X116446255Y-105552531D01*
X116446175Y-105552564D01*
X116228392Y-105641833D01*
X116219438Y-105641800D01*
X116213882Y-105636959D01*
X116011259Y-105294058D01*
X116010001Y-105285192D01*
X116013057Y-105279835D01*
X116179834Y-105113058D01*
X116188106Y-105109632D01*
X116194058Y-105111259D01*
G37*
G04 #@! TD.AperFunction*
G04 #@! TA.AperFunction,Conductor*
G36*
X109337805Y-99672836D02*
G01*
X109223707Y-99950707D01*
X108945836Y-100064805D01*
X108708934Y-99615539D01*
X108888539Y-99435934D01*
X109337805Y-99672836D01*
G37*
G04 #@! TD.AperFunction*
G04 #@! TA.AperFunction,Conductor*
G36*
X118440166Y-101943059D02*
G01*
X118606940Y-102109833D01*
X118610367Y-102118106D01*
X118608740Y-102124058D01*
X118406117Y-102466959D01*
X118398958Y-102472338D01*
X118391607Y-102471833D01*
X118173824Y-102382564D01*
X118167468Y-102376255D01*
X118167435Y-102376175D01*
X118078166Y-102158392D01*
X118078199Y-102149438D01*
X118083038Y-102143883D01*
X118425941Y-101941258D01*
X118434807Y-101940001D01*
X118440166Y-101943059D01*
G37*
G04 #@! TD.AperFunction*
G04 #@! TA.AperFunction,Conductor*
G36*
X114336362Y-95251990D02*
G01*
X114803080Y-95321514D01*
X114810756Y-95326121D01*
X114813054Y-95333085D01*
X114813054Y-95569007D01*
X114809627Y-95577280D01*
X114805609Y-95579906D01*
X114429309Y-95726816D01*
X114420356Y-95726632D01*
X114414261Y-95720434D01*
X114322916Y-95502189D01*
X114322009Y-95497627D01*
X114322945Y-95263513D01*
X114326405Y-95255257D01*
X114334692Y-95251863D01*
X114336362Y-95251990D01*
G37*
G04 #@! TD.AperFunction*
G04 #@! TA.AperFunction,Conductor*
G36*
X114382417Y-98962192D02*
G01*
X114600202Y-99051462D01*
X114606558Y-99057771D01*
X114606591Y-99057851D01*
X114695860Y-99275634D01*
X114695827Y-99284588D01*
X114690986Y-99290144D01*
X114348085Y-99492767D01*
X114339219Y-99494025D01*
X114333860Y-99490967D01*
X114167086Y-99324193D01*
X114163659Y-99315920D01*
X114165286Y-99309968D01*
X114314264Y-99057851D01*
X114367910Y-98967066D01*
X114375068Y-98961688D01*
X114382417Y-98962192D01*
G37*
G04 #@! TD.AperFunction*
G04 #@! TA.AperFunction,Conductor*
G36*
X116103394Y-98887026D02*
G01*
X116108235Y-98892582D01*
X116199109Y-99109701D01*
X116199142Y-99118655D01*
X116199109Y-99118735D01*
X116108235Y-99335853D01*
X116101879Y-99342162D01*
X116094528Y-99342667D01*
X115708786Y-99243477D01*
X115701627Y-99238098D01*
X115700000Y-99232146D01*
X115700000Y-98996289D01*
X115703427Y-98988016D01*
X115708783Y-98984959D01*
X116094528Y-98885768D01*
X116103394Y-98887026D01*
G37*
G04 #@! TD.AperFunction*
G04 #@! TA.AperFunction,Conductor*
G36*
X119267354Y-105110706D02*
G01*
X119273666Y-105117058D01*
X119274020Y-105124961D01*
X119129551Y-105591759D01*
X119123831Y-105598649D01*
X119118374Y-105600000D01*
X118881626Y-105600000D01*
X118873353Y-105596573D01*
X118870449Y-105591759D01*
X118725979Y-105124961D01*
X118726807Y-105116045D01*
X118732643Y-105110707D01*
X118995490Y-105000883D01*
X119004444Y-105000857D01*
X119267354Y-105110706D01*
G37*
G04 #@! TD.AperFunction*
G04 #@! TA.AperFunction,Conductor*
G36*
X118673167Y-104489956D02*
G01*
X118897380Y-104608186D01*
X119105400Y-104717877D01*
X119111120Y-104724767D01*
X119110766Y-104732670D01*
X119002563Y-104996184D01*
X118996251Y-105002536D01*
X118996184Y-105002563D01*
X118732670Y-105110766D01*
X118723715Y-105110739D01*
X118717877Y-105105400D01*
X118489957Y-104673169D01*
X118489129Y-104664253D01*
X118492031Y-104659441D01*
X118659440Y-104492032D01*
X118667712Y-104488606D01*
X118673167Y-104489956D01*
G37*
G04 #@! TD.AperFunction*
G04 #@! TA.AperFunction,Conductor*
G36*
X117679240Y-98850343D02*
G01*
X117679455Y-98850558D01*
X117679786Y-98850903D01*
X117969196Y-99164996D01*
X117972282Y-99173402D01*
X117968898Y-99181164D01*
X117804153Y-99347233D01*
X117795894Y-99350693D01*
X117795814Y-99350693D01*
X117559779Y-99350027D01*
X117551516Y-99346577D01*
X117548292Y-99340370D01*
X117492780Y-99027323D01*
X117494709Y-99018580D01*
X117496021Y-99017015D01*
X117662694Y-98850343D01*
X117670967Y-98846916D01*
X117679240Y-98850343D01*
G37*
G04 #@! TD.AperFunction*
G04 #@! TA.AperFunction,Conductor*
G36*
X111245318Y-94204161D02*
G01*
X111249926Y-94211839D01*
X111250054Y-94213516D01*
X111250990Y-94447625D01*
X111250083Y-94452189D01*
X111158738Y-94670434D01*
X111152382Y-94676743D01*
X111143690Y-94676816D01*
X110767391Y-94529906D01*
X110760931Y-94523705D01*
X110759946Y-94519007D01*
X110759946Y-94283085D01*
X110763373Y-94274812D01*
X110769919Y-94271514D01*
X111236631Y-94201991D01*
X111245318Y-94204161D01*
G37*
G04 #@! TD.AperFunction*
G04 #@! TA.AperFunction,Conductor*
G36*
X106405561Y-99133199D02*
G01*
X106411117Y-99138040D01*
X106613740Y-99480941D01*
X106614998Y-99489807D01*
X106611940Y-99495166D01*
X106445166Y-99661940D01*
X106436893Y-99665367D01*
X106430941Y-99663740D01*
X106088040Y-99461117D01*
X106082661Y-99453958D01*
X106083165Y-99446609D01*
X106172436Y-99228822D01*
X106178743Y-99222468D01*
X106396609Y-99133166D01*
X106405561Y-99133199D01*
G37*
G04 #@! TD.AperFunction*
G04 #@! TA.AperFunction,Conductor*
G36*
X108926284Y-97089260D02*
G01*
X108932122Y-97094599D01*
X109160042Y-97526830D01*
X109160870Y-97535746D01*
X109157966Y-97540560D01*
X108990560Y-97707966D01*
X108982287Y-97711393D01*
X108976830Y-97710042D01*
X108544599Y-97482122D01*
X108538879Y-97475232D01*
X108539233Y-97467329D01*
X108647436Y-97203815D01*
X108653746Y-97197464D01*
X108917329Y-97089233D01*
X108926284Y-97089260D01*
G37*
G04 #@! TD.AperFunction*
G04 #@! TA.AperFunction,Conductor*
G36*
X105979318Y-98860679D02*
G01*
X105994077Y-98867434D01*
X106260429Y-98989342D01*
X106266526Y-98995901D01*
X106266376Y-99004442D01*
X106176861Y-99221486D01*
X106170539Y-99227828D01*
X106170482Y-99227851D01*
X105954244Y-99316484D01*
X105945290Y-99316451D01*
X105939258Y-99310716D01*
X105731034Y-98876376D01*
X105730547Y-98867434D01*
X105736526Y-98860768D01*
X105741584Y-98859618D01*
X105974449Y-98859618D01*
X105979318Y-98860679D01*
G37*
G04 #@! TD.AperFunction*
G04 #@! TA.AperFunction,Conductor*
G36*
X121946162Y-100746722D02*
G01*
X121953320Y-100752100D01*
X121954947Y-100758052D01*
X121954947Y-100993909D01*
X121951520Y-101002182D01*
X121946161Y-101005240D01*
X121560418Y-101104430D01*
X121551552Y-101103172D01*
X121546711Y-101097616D01*
X121532515Y-101063698D01*
X121455836Y-100880496D01*
X121455804Y-100871544D01*
X121546711Y-100654344D01*
X121553067Y-100648036D01*
X121560418Y-100647531D01*
X121946162Y-100746722D01*
G37*
G04 #@! TD.AperFunction*
G04 #@! TA.AperFunction,Conductor*
G36*
X104926284Y-106339260D02*
G01*
X104932122Y-106344599D01*
X105160042Y-106776830D01*
X105160870Y-106785746D01*
X105157966Y-106790560D01*
X104990560Y-106957966D01*
X104982287Y-106961393D01*
X104976830Y-106960042D01*
X104544599Y-106732122D01*
X104538879Y-106725232D01*
X104539233Y-106717329D01*
X104647436Y-106453815D01*
X104653746Y-106447464D01*
X104917329Y-106339233D01*
X104926284Y-106339260D01*
G37*
G04 #@! TD.AperFunction*
G04 #@! TA.AperFunction,Conductor*
G36*
X122293201Y-98938603D02*
G01*
X122459961Y-99105363D01*
X122463388Y-99113636D01*
X122461779Y-99119557D01*
X122259106Y-99464953D01*
X122251963Y-99470354D01*
X122244578Y-99469858D01*
X122026824Y-99380601D01*
X122020468Y-99374292D01*
X122020435Y-99374212D01*
X121931146Y-99156380D01*
X121931179Y-99147426D01*
X121935967Y-99141901D01*
X122278925Y-98936833D01*
X122287783Y-98935530D01*
X122293201Y-98938603D01*
G37*
G04 #@! TD.AperFunction*
M02*
