G04 #@! TF.GenerationSoftware,KiCad,Pcbnew,8.0.6-8.0.6-0~ubuntu22.04.1*
G04 #@! TF.CreationDate,2024-11-03T15:11:06-08:00*
G04 #@! TF.ProjectId,uSlime,75536c69-6d65-42e6-9b69-6361645f7063,rev?*
G04 #@! TF.SameCoordinates,Original*
G04 #@! TF.FileFunction,Copper,L2,Bot*
G04 #@! TF.FilePolarity,Positive*
%FSLAX46Y46*%
G04 Gerber Fmt 4.6, Leading zero omitted, Abs format (unit mm)*
G04 Created by KiCad (PCBNEW 8.0.6-8.0.6-0~ubuntu22.04.1) date 2024-11-03 15:11:06*
%MOMM*%
%LPD*%
G01*
G04 APERTURE LIST*
G04 Aperture macros list*
%AMFreePoly0*
4,1,19,0.550000,-0.750000,0.000000,-0.750000,0.000000,-0.744911,-0.071157,-0.744911,-0.207708,-0.704816,-0.327430,-0.627875,-0.420627,-0.520320,-0.479746,-0.390866,-0.500000,-0.250000,-0.500000,0.250000,-0.479746,0.390866,-0.420627,0.520320,-0.327430,0.627875,-0.207708,0.704816,-0.071157,0.744911,0.000000,0.744911,0.000000,0.750000,0.550000,0.750000,0.550000,-0.750000,0.550000,-0.750000,
$1*%
%AMFreePoly1*
4,1,19,0.000000,0.744911,0.071157,0.744911,0.207708,0.704816,0.327430,0.627875,0.420627,0.520320,0.479746,0.390866,0.500000,0.250000,0.500000,-0.250000,0.479746,-0.390866,0.420627,-0.520320,0.327430,-0.627875,0.207708,-0.704816,0.071157,-0.744911,0.000000,-0.744911,0.000000,-0.750000,-0.550000,-0.750000,-0.550000,0.750000,0.000000,0.750000,0.000000,0.744911,0.000000,0.744911,
$1*%
G04 Aperture macros list end*
G04 #@! TA.AperFunction,SMDPad,CuDef*
%ADD10C,1.000000*%
G04 #@! TD*
G04 #@! TA.AperFunction,ComponentPad*
%ADD11C,1.200000*%
G04 #@! TD*
G04 #@! TA.AperFunction,ComponentPad*
%ADD12O,1.000000X1.800000*%
G04 #@! TD*
G04 #@! TA.AperFunction,ComponentPad*
%ADD13O,1.000000X2.100000*%
G04 #@! TD*
G04 #@! TA.AperFunction,ComponentPad*
%ADD14C,1.000000*%
G04 #@! TD*
G04 #@! TA.AperFunction,SMDPad,CuDef*
%ADD15R,2.000000X2.000000*%
G04 #@! TD*
G04 #@! TA.AperFunction,SMDPad,CuDef*
%ADD16FreePoly0,0.000000*%
G04 #@! TD*
G04 #@! TA.AperFunction,SMDPad,CuDef*
%ADD17R,1.000000X1.500000*%
G04 #@! TD*
G04 #@! TA.AperFunction,SMDPad,CuDef*
%ADD18FreePoly1,0.000000*%
G04 #@! TD*
G04 #@! TA.AperFunction,ViaPad*
%ADD19C,0.500000*%
G04 #@! TD*
G04 #@! TA.AperFunction,ViaPad*
%ADD20C,0.600000*%
G04 #@! TD*
G04 #@! TA.AperFunction,Conductor*
%ADD21C,0.254000*%
G04 #@! TD*
G04 APERTURE END LIST*
D10*
X123800000Y-98850000D03*
D11*
X117795000Y-106800000D03*
X119295000Y-106800000D03*
X120795000Y-106800000D03*
X122295000Y-106800000D03*
X123795000Y-106800000D03*
D12*
X110470000Y-109325000D03*
D13*
X110470000Y-105145000D03*
D12*
X101830000Y-109325000D03*
D13*
X101830000Y-105145000D03*
D14*
X105619000Y-100375000D03*
X105619000Y-101625000D03*
D15*
X113800000Y-109350000D03*
X117200000Y-109350000D03*
X123150000Y-95800000D03*
X120100000Y-92750000D03*
X106150000Y-108100000D03*
X123150000Y-92750000D03*
D16*
X119750000Y-109107500D03*
D17*
X121050000Y-109107500D03*
D18*
X122350000Y-109107500D03*
D15*
X117050000Y-92750000D03*
D19*
X123050000Y-93700000D03*
X122350000Y-96650000D03*
X123300000Y-99050000D03*
X114543601Y-95918104D03*
D20*
X119650000Y-105000000D03*
X109223000Y-99950000D03*
X120954643Y-97145357D03*
X108050000Y-96250000D03*
X124250000Y-100900000D03*
X116200000Y-91000000D03*
D19*
X118826861Y-101348309D03*
X113966601Y-97526104D03*
D20*
X108650000Y-97200000D03*
X104650000Y-106450000D03*
D19*
X110550000Y-106873003D03*
X118600000Y-99400000D03*
X109850000Y-107450003D03*
X117800000Y-99350000D03*
X114600000Y-99150000D03*
X116174672Y-105832672D03*
X113309792Y-103515170D03*
X113730216Y-106604389D03*
X123800000Y-108304000D03*
X122000000Y-98850000D03*
X116200000Y-99114218D03*
X117673000Y-101600000D03*
X116112843Y-103426070D03*
X114573000Y-103100000D03*
X113804460Y-110800002D03*
D20*
X117200000Y-109350000D03*
X121000000Y-103650000D03*
X110800000Y-99850000D03*
X119450000Y-108650000D03*
X110553257Y-94364182D03*
D19*
X120277000Y-99343000D03*
X112002002Y-97597538D03*
X110421908Y-101952492D03*
X111113626Y-107982763D03*
X107900000Y-105750000D03*
X105225000Y-93875000D03*
X108760000Y-102123000D03*
X106175000Y-99225000D03*
X122895974Y-103845972D03*
X111301144Y-94420481D03*
X111100000Y-93750000D03*
X121000000Y-98981002D03*
D21*
X110421908Y-101136040D02*
X112002002Y-99555946D01*
X112002002Y-99555946D02*
X112002002Y-97597538D01*
X110421908Y-101952492D02*
X110421908Y-101136040D01*
X114543601Y-95918104D02*
X117050000Y-93411705D01*
X117050000Y-93411705D02*
X117050000Y-92750000D01*
X122000000Y-98850000D02*
X121550000Y-98400000D01*
X121550000Y-98400000D02*
X121300000Y-98400000D01*
X121300000Y-98400000D02*
X120100000Y-97200000D01*
X120100000Y-97200000D02*
X120100000Y-92750000D01*
X122350000Y-96650000D02*
X123150000Y-95850000D01*
X123150000Y-95850000D02*
X123150000Y-95800000D01*
X123150000Y-93600000D02*
X123050000Y-93700000D01*
X123150000Y-92750000D02*
X123150000Y-93600000D01*
X123500000Y-98850000D02*
X123300000Y-99050000D01*
X123800000Y-98850000D02*
X123500000Y-98850000D01*
X124104000Y-106491000D02*
X123795000Y-106800000D01*
X122095199Y-100519147D02*
X124104000Y-102527948D01*
X122095199Y-98945199D02*
X122095199Y-100519147D01*
X122000000Y-98850000D02*
X122095199Y-98945199D01*
X124104000Y-102527948D02*
X124104000Y-106491000D01*
X121000000Y-98981002D02*
X120731004Y-98981002D01*
X120731004Y-98981002D02*
X120516002Y-98766000D01*
X120516002Y-98766000D02*
X120066107Y-98766000D01*
X120066107Y-98766000D02*
X117795211Y-96495104D01*
X117795211Y-96495104D02*
X114195104Y-96495104D01*
X114195104Y-96495104D02*
X111450000Y-93750000D01*
X111450000Y-93750000D02*
X111100000Y-93750000D01*
X122895974Y-103845972D02*
X122345972Y-103845972D01*
X119700000Y-99041946D02*
X117608054Y-96950000D01*
X122345972Y-103845972D02*
X119700000Y-101200000D01*
X114205603Y-96949104D02*
X113829767Y-96949104D01*
X119700000Y-101200000D02*
X119700000Y-99041946D01*
X117608054Y-96950000D02*
X114206499Y-96950000D01*
X114206499Y-96950000D02*
X114205603Y-96949104D01*
X113829767Y-96949104D02*
X111301144Y-94420481D01*
X113966601Y-97526104D02*
X117542106Y-97526104D01*
X117542106Y-97526104D02*
X119177000Y-99160998D01*
X119177000Y-99160998D02*
X119177000Y-100998170D01*
X119177000Y-100998170D02*
X118826861Y-101348309D01*
X110553257Y-94364182D02*
X110553257Y-94488596D01*
X110553257Y-94488596D02*
X110800000Y-94735339D01*
X110800000Y-94735339D02*
X110800000Y-99850000D01*
X110550000Y-106873003D02*
X110826997Y-106873003D01*
X118600000Y-99307948D02*
X118600000Y-99400000D01*
X110826997Y-106873003D02*
X111700000Y-106000000D01*
X111700000Y-106000000D02*
X111700000Y-100500000D01*
X111700000Y-100500000D02*
X114116782Y-98083218D01*
X114116782Y-98083218D02*
X117375270Y-98083218D01*
X117375270Y-98083218D02*
X118600000Y-99307948D01*
X109850000Y-107450003D02*
X110892050Y-107450003D01*
X114304834Y-98537218D02*
X117187218Y-98537218D01*
X110892050Y-107450003D02*
X112154000Y-106188053D01*
X112154000Y-106188053D02*
X112154000Y-100688052D01*
X117187218Y-98537218D02*
X117800000Y-99150000D01*
X112154000Y-100688052D02*
X114304834Y-98537218D01*
X122350000Y-106855000D02*
X122295000Y-106800000D01*
X122350000Y-109107500D02*
X122350000Y-106855000D01*
X113800000Y-109350000D02*
X110495000Y-109350000D01*
X110495000Y-109350000D02*
X110470000Y-109325000D01*
X106150000Y-107950000D02*
X106150000Y-108100000D01*
X104650000Y-105350000D02*
X104650000Y-106450000D01*
X109026002Y-102700000D02*
X107300000Y-102700000D01*
X109850000Y-98400000D02*
X109850000Y-101876002D01*
X107300000Y-102700000D02*
X104650000Y-105350000D01*
X104650000Y-106450000D02*
X106150000Y-107950000D01*
X109850000Y-101876002D02*
X109026002Y-102700000D01*
X108650000Y-97200000D02*
X109850000Y-98400000D01*
X115150000Y-104808000D02*
X115150000Y-99700000D01*
X116174672Y-105832672D02*
X115150000Y-104808000D01*
X115150000Y-99700000D02*
X114600000Y-99150000D01*
X113309792Y-106183965D02*
X113730216Y-106604389D01*
X113309792Y-103515170D02*
X113309792Y-106183965D01*
X123800000Y-106805000D02*
X123795000Y-106800000D01*
X123800000Y-108304000D02*
X123800000Y-106805000D01*
X117673000Y-101600000D02*
X116200000Y-100127000D01*
X116200000Y-100127000D02*
X116200000Y-99114218D01*
X117795000Y-101722000D02*
X117795000Y-106800000D01*
X117673000Y-101600000D02*
X117795000Y-101722000D01*
X116850000Y-104163227D02*
X116112843Y-103426070D01*
X117584024Y-107900000D02*
X116850000Y-107165976D01*
X120584024Y-107900000D02*
X117584024Y-107900000D01*
X121050000Y-109107500D02*
X121050000Y-108365976D01*
X121050000Y-108365976D02*
X120584024Y-107900000D01*
X116850000Y-107165976D02*
X116850000Y-104163227D01*
X114573000Y-106290703D02*
X114573000Y-103100000D01*
X115450000Y-107167703D02*
X114573000Y-106290703D01*
X113804460Y-110800002D02*
X115003998Y-110800002D01*
X115450000Y-110354000D02*
X115450000Y-107167703D01*
X115003998Y-110800002D02*
X115450000Y-110354000D01*
X117442500Y-109107500D02*
X117200000Y-109350000D01*
X119750000Y-109107500D02*
X117442500Y-109107500D01*
X121000000Y-105095000D02*
X119295000Y-106800000D01*
X119750000Y-109107500D02*
X119750000Y-108950000D01*
X121000000Y-103650000D02*
X121000000Y-105095000D01*
X119750000Y-108950000D02*
X119450000Y-108650000D01*
X123650000Y-103907948D02*
X120795000Y-106762948D01*
X123650000Y-102716000D02*
X123650000Y-103907948D01*
X120795000Y-106762948D02*
X120795000Y-106800000D01*
X120277000Y-99343000D02*
X123650000Y-102716000D01*
X107900000Y-106316005D02*
X109610998Y-108027003D01*
X109610998Y-108027003D02*
X111069386Y-108027003D01*
X107900000Y-105750000D02*
X107900000Y-106316005D01*
X111069386Y-108027003D02*
X111113626Y-107982763D01*
X105225000Y-93875000D02*
X105850000Y-94500000D01*
X106175000Y-99225000D02*
X106950000Y-100000000D01*
X106950000Y-101050000D02*
X108023000Y-102123000D01*
X105850000Y-94500000D02*
X105850000Y-98900000D01*
X106950000Y-100000000D02*
X106950000Y-101050000D01*
X105850000Y-98900000D02*
X106175000Y-99225000D01*
X108023000Y-102123000D02*
X108760000Y-102123000D01*
X120954643Y-97145357D02*
X122059286Y-98250000D01*
X122577000Y-98610998D02*
X122577000Y-99577000D01*
X122059286Y-98250000D02*
X122216002Y-98250000D01*
X122216002Y-98250000D02*
X122577000Y-98610998D01*
X122577000Y-99577000D02*
X123900000Y-100900000D01*
X123900000Y-100900000D02*
X124250000Y-100900000D01*
G04 #@! TA.AperFunction,Conductor*
G36*
X124573644Y-89857584D02*
G01*
X124573980Y-89857607D01*
X124577000Y-89857607D01*
X124577004Y-89857608D01*
X124640144Y-89857607D01*
X124645630Y-89857914D01*
X124748562Y-89869512D01*
X124759257Y-89871953D01*
X124854407Y-89905247D01*
X124864292Y-89910007D01*
X124943020Y-89959475D01*
X124949654Y-89963643D01*
X124958233Y-89970485D01*
X125029514Y-90041766D01*
X125036356Y-90050345D01*
X125089992Y-90135707D01*
X125094752Y-90145593D01*
X125128045Y-90240741D01*
X125130487Y-90251438D01*
X125142084Y-90354368D01*
X125142392Y-90359854D01*
X125142392Y-90425963D01*
X125142416Y-90426334D01*
X125149499Y-110947237D01*
X125149191Y-110952741D01*
X125137593Y-111055666D01*
X125135151Y-111066362D01*
X125101858Y-111161512D01*
X125097097Y-111171399D01*
X125043461Y-111256759D01*
X125036620Y-111265337D01*
X124965337Y-111336620D01*
X124956759Y-111343461D01*
X124871399Y-111397097D01*
X124861512Y-111401858D01*
X124766362Y-111435151D01*
X124755666Y-111437593D01*
X124659877Y-111448386D01*
X124652732Y-111449192D01*
X124647247Y-111449500D01*
X115322047Y-111449500D01*
X115287399Y-111435148D01*
X115273047Y-111400500D01*
X115287399Y-111365852D01*
X115299427Y-111357807D01*
X115299112Y-111357218D01*
X115301225Y-111356087D01*
X115301231Y-111356085D01*
X115404006Y-111287413D01*
X115491409Y-111200010D01*
X115893306Y-110798111D01*
X115927953Y-110783760D01*
X115954356Y-110792547D01*
X115954592Y-110792116D01*
X115956983Y-110793421D01*
X115957315Y-110793532D01*
X115957664Y-110793793D01*
X115957665Y-110793794D01*
X115957667Y-110793794D01*
X115957669Y-110793796D01*
X116092517Y-110844091D01*
X116092520Y-110844092D01*
X116136177Y-110848785D01*
X116152127Y-110850500D01*
X118247872Y-110850499D01*
X118247878Y-110850499D01*
X118307478Y-110844092D01*
X118307479Y-110844091D01*
X118307483Y-110844091D01*
X118442331Y-110793796D01*
X118557546Y-110707546D01*
X118643796Y-110592331D01*
X118694091Y-110457483D01*
X118694091Y-110457481D01*
X118694092Y-110457479D01*
X118700500Y-110397879D01*
X118700500Y-109784000D01*
X118714852Y-109749352D01*
X118749500Y-109735000D01*
X118785516Y-109735000D01*
X118820164Y-109749352D01*
X118830088Y-109763644D01*
X118865233Y-109840601D01*
X118865234Y-109840602D01*
X118943010Y-109961625D01*
X118943013Y-109961629D01*
X118943014Y-109961630D01*
X119037168Y-110070291D01*
X119037171Y-110070294D01*
X119145909Y-110164515D01*
X119266861Y-110242246D01*
X119266860Y-110242246D01*
X119334445Y-110273110D01*
X119397741Y-110302017D01*
X119535696Y-110342524D01*
X119678111Y-110363000D01*
X119678115Y-110363000D01*
X120300008Y-110363000D01*
X120357552Y-110358884D01*
X120371940Y-110357855D01*
X120405176Y-110348095D01*
X120436106Y-110349199D01*
X120442517Y-110351591D01*
X120442520Y-110351592D01*
X120486177Y-110356285D01*
X120502127Y-110358000D01*
X121597872Y-110357999D01*
X121597878Y-110357999D01*
X121657478Y-110351592D01*
X121657479Y-110351591D01*
X121657483Y-110351591D01*
X121792331Y-110301296D01*
X121907546Y-110215046D01*
X121993796Y-110099831D01*
X122044091Y-109964983D01*
X122044091Y-109964981D01*
X122044092Y-109964979D01*
X122050499Y-109905379D01*
X122050500Y-109905373D01*
X122050499Y-108309628D01*
X122050499Y-108309620D01*
X122044092Y-108250021D01*
X122044091Y-108250017D01*
X121993796Y-108115169D01*
X121988360Y-108107908D01*
X121970960Y-108084664D01*
X121907546Y-107999954D01*
X121838314Y-107948127D01*
X121792333Y-107913705D01*
X121792331Y-107913704D01*
X121734223Y-107892031D01*
X121657479Y-107863407D01*
X121597879Y-107857000D01*
X121597873Y-107857000D01*
X121448739Y-107857000D01*
X121414091Y-107842648D01*
X121376559Y-107805116D01*
X121362207Y-107770468D01*
X121376559Y-107735820D01*
X121385408Y-107728809D01*
X121461041Y-107681981D01*
X121512361Y-107635196D01*
X121547633Y-107622460D01*
X121578382Y-107635197D01*
X121629257Y-107681576D01*
X121802590Y-107788900D01*
X121992674Y-107862538D01*
X122193072Y-107900000D01*
X122396928Y-107900000D01*
X122597325Y-107862538D01*
X122787409Y-107788900D01*
X122960736Y-107681580D01*
X123011616Y-107635196D01*
X123046890Y-107622459D01*
X123077636Y-107635194D01*
X123128959Y-107681981D01*
X123149295Y-107694572D01*
X123171198Y-107725014D01*
X123172500Y-107736233D01*
X123172500Y-107877914D01*
X123164989Y-107903984D01*
X123119545Y-107976305D01*
X123063688Y-108135937D01*
X123063686Y-108135946D01*
X123044751Y-108304000D01*
X123061612Y-108453650D01*
X123063687Y-108472059D01*
X123119544Y-108631690D01*
X123209523Y-108774890D01*
X123329110Y-108894477D01*
X123472310Y-108984456D01*
X123631941Y-109040313D01*
X123800000Y-109059249D01*
X123968059Y-109040313D01*
X124127690Y-108984456D01*
X124270890Y-108894477D01*
X124390477Y-108774890D01*
X124480456Y-108631690D01*
X124536313Y-108472059D01*
X124555249Y-108304000D01*
X124536313Y-108135941D01*
X124480456Y-107976310D01*
X124480455Y-107976309D01*
X124480454Y-107976305D01*
X124435011Y-107903984D01*
X124427500Y-107877914D01*
X124427500Y-107730041D01*
X124441852Y-107695393D01*
X124450706Y-107688380D01*
X124451426Y-107687933D01*
X124461041Y-107681981D01*
X124611764Y-107544579D01*
X124734673Y-107381821D01*
X124825582Y-107199250D01*
X124881397Y-107003083D01*
X124900215Y-106800000D01*
X124881397Y-106596917D01*
X124825582Y-106400750D01*
X124814158Y-106377808D01*
X124736637Y-106222123D01*
X124731500Y-106200282D01*
X124731500Y-102466145D01*
X124731499Y-102466141D01*
X124730458Y-102460910D01*
X124724725Y-102432085D01*
X124724725Y-102432082D01*
X124707388Y-102344925D01*
X124707386Y-102344914D01*
X124705889Y-102341299D01*
X124669907Y-102254431D01*
X124660085Y-102230720D01*
X124660083Y-102230715D01*
X124591411Y-102127940D01*
X124504008Y-102040537D01*
X122737051Y-100273580D01*
X122722699Y-100238932D01*
X122722699Y-99652362D01*
X122737051Y-99617714D01*
X122771699Y-99603362D01*
X122806347Y-99617714D01*
X122829110Y-99640477D01*
X122972310Y-99730456D01*
X123131941Y-99786313D01*
X123300000Y-99805249D01*
X123437554Y-99789749D01*
X123457262Y-99791550D01*
X123603868Y-99836024D01*
X123800000Y-99855341D01*
X123996132Y-99836024D01*
X124184727Y-99778814D01*
X124358538Y-99685910D01*
X124510883Y-99560883D01*
X124635910Y-99408538D01*
X124728814Y-99234727D01*
X124786024Y-99046132D01*
X124805341Y-98850000D01*
X124786024Y-98653868D01*
X124728814Y-98465273D01*
X124635910Y-98291462D01*
X124635907Y-98291458D01*
X124635905Y-98291455D01*
X124582537Y-98226427D01*
X124510883Y-98139117D01*
X124426290Y-98069693D01*
X124358544Y-98014094D01*
X124358541Y-98014092D01*
X124358539Y-98014091D01*
X124358538Y-98014090D01*
X124199842Y-97929265D01*
X124184726Y-97921185D01*
X123996132Y-97863976D01*
X123800000Y-97844659D01*
X123603867Y-97863976D01*
X123603866Y-97863976D01*
X123415273Y-97921185D01*
X123241458Y-98014092D01*
X123241455Y-98014094D01*
X123089117Y-98139117D01*
X122964091Y-98291458D01*
X122903221Y-98405337D01*
X122886077Y-98423727D01*
X122829112Y-98459521D01*
X122829108Y-98459524D01*
X122757038Y-98531594D01*
X122722390Y-98545946D01*
X122687742Y-98531594D01*
X122680901Y-98523016D01*
X122590478Y-98379112D01*
X122590477Y-98379110D01*
X122470890Y-98259523D01*
X122327690Y-98169544D01*
X122168059Y-98113687D01*
X122168057Y-98113686D01*
X122168047Y-98113684D01*
X122165983Y-98113452D01*
X122136828Y-98099409D01*
X121950009Y-97912590D01*
X121950005Y-97912587D01*
X121934252Y-97902061D01*
X121847233Y-97843917D01*
X121807599Y-97827500D01*
X121733038Y-97796615D01*
X121733032Y-97796613D01*
X121684142Y-97786888D01*
X121611803Y-97772500D01*
X121611800Y-97772500D01*
X121580215Y-97772500D01*
X121545567Y-97758148D01*
X120741852Y-96954433D01*
X120727500Y-96919785D01*
X120727500Y-94299499D01*
X120741852Y-94264851D01*
X120776500Y-94250499D01*
X121147878Y-94250499D01*
X121207478Y-94244092D01*
X121207479Y-94244091D01*
X121207483Y-94244091D01*
X121342331Y-94193796D01*
X121457546Y-94107546D01*
X121543796Y-93992331D01*
X121579089Y-93897703D01*
X121604644Y-93870256D01*
X121642124Y-93868917D01*
X121669572Y-93894472D01*
X121670905Y-93897690D01*
X121688612Y-93945164D01*
X121706205Y-93992333D01*
X121721369Y-94012589D01*
X121792454Y-94107546D01*
X121857290Y-94156082D01*
X121895821Y-94184927D01*
X121907669Y-94193796D01*
X122002292Y-94229088D01*
X122002295Y-94229089D01*
X122029743Y-94254645D01*
X122031082Y-94292124D01*
X122005526Y-94319572D01*
X122002295Y-94320911D01*
X121907666Y-94356205D01*
X121792454Y-94442454D01*
X121706205Y-94557666D01*
X121655907Y-94692520D01*
X121649500Y-94752120D01*
X121649500Y-96371266D01*
X121646750Y-96387449D01*
X121613689Y-96481934D01*
X121613686Y-96481946D01*
X121594751Y-96650000D01*
X121613686Y-96818053D01*
X121613688Y-96818062D01*
X121669543Y-96977687D01*
X121669546Y-96977694D01*
X121697756Y-97022591D01*
X121702175Y-97031532D01*
X121706203Y-97042331D01*
X121729636Y-97073632D01*
X121731896Y-97076923D01*
X121749487Y-97104919D01*
X121759521Y-97120887D01*
X121759524Y-97120891D01*
X121778882Y-97140249D01*
X121783460Y-97145531D01*
X121792454Y-97157546D01*
X121804466Y-97166538D01*
X121809749Y-97171116D01*
X121879110Y-97240477D01*
X122022310Y-97330456D01*
X122181941Y-97386313D01*
X122350000Y-97405249D01*
X122518059Y-97386313D01*
X122677690Y-97330456D01*
X122713411Y-97308010D01*
X122739481Y-97300499D01*
X124197878Y-97300499D01*
X124257478Y-97294092D01*
X124257479Y-97294091D01*
X124257483Y-97294091D01*
X124392331Y-97243796D01*
X124507546Y-97157546D01*
X124593796Y-97042331D01*
X124644091Y-96907483D01*
X124644091Y-96907481D01*
X124644092Y-96907479D01*
X124649064Y-96861225D01*
X124650500Y-96847873D01*
X124650499Y-94752128D01*
X124650499Y-94752127D01*
X124650499Y-94752120D01*
X124644092Y-94692521D01*
X124640062Y-94681716D01*
X124593796Y-94557669D01*
X124585299Y-94546319D01*
X124573313Y-94530307D01*
X124507546Y-94442454D01*
X124449938Y-94399329D01*
X124392332Y-94356204D01*
X124392328Y-94356202D01*
X124297704Y-94320909D01*
X124270256Y-94295354D01*
X124268918Y-94257875D01*
X124294473Y-94230427D01*
X124297676Y-94229099D01*
X124392331Y-94193796D01*
X124507546Y-94107546D01*
X124593796Y-93992331D01*
X124644091Y-93857483D01*
X124644091Y-93857481D01*
X124644092Y-93857479D01*
X124650499Y-93797879D01*
X124650500Y-93797873D01*
X124650499Y-91702128D01*
X124650499Y-91702127D01*
X124650499Y-91702120D01*
X124644092Y-91642521D01*
X124644091Y-91642517D01*
X124593796Y-91507669D01*
X124507546Y-91392454D01*
X124438314Y-91340627D01*
X124392333Y-91306205D01*
X124392331Y-91306204D01*
X124347381Y-91289439D01*
X124257479Y-91255907D01*
X124197879Y-91249500D01*
X122102120Y-91249500D01*
X122042521Y-91255907D01*
X121907666Y-91306205D01*
X121792454Y-91392454D01*
X121706204Y-91507667D01*
X121706202Y-91507671D01*
X121670909Y-91602295D01*
X121645354Y-91629743D01*
X121607875Y-91631081D01*
X121580427Y-91605526D01*
X121579096Y-91602313D01*
X121543796Y-91507669D01*
X121457546Y-91392454D01*
X121388314Y-91340627D01*
X121342333Y-91306205D01*
X121342331Y-91306204D01*
X121297381Y-91289439D01*
X121207479Y-91255907D01*
X121147879Y-91249500D01*
X119052120Y-91249500D01*
X118992521Y-91255907D01*
X118857666Y-91306205D01*
X118742454Y-91392454D01*
X118656204Y-91507667D01*
X118656202Y-91507671D01*
X118620909Y-91602295D01*
X118595354Y-91629743D01*
X118557875Y-91631081D01*
X118530427Y-91605526D01*
X118529096Y-91602313D01*
X118493796Y-91507669D01*
X118407546Y-91392454D01*
X118338314Y-91340627D01*
X118292333Y-91306205D01*
X118292331Y-91306204D01*
X118247381Y-91289439D01*
X118157479Y-91255907D01*
X118097879Y-91249500D01*
X116002120Y-91249500D01*
X115942521Y-91255907D01*
X115807666Y-91306205D01*
X115692454Y-91392454D01*
X115606205Y-91507666D01*
X115555907Y-91642520D01*
X115549500Y-91702120D01*
X115549500Y-93797879D01*
X115555908Y-93857479D01*
X115555908Y-93857481D01*
X115555909Y-93857483D01*
X115568710Y-93891806D01*
X115588611Y-93945164D01*
X115587272Y-93982643D01*
X115577348Y-93996935D01*
X114406771Y-95167513D01*
X114377619Y-95181556D01*
X114375551Y-95181789D01*
X114375538Y-95181792D01*
X114215911Y-95237648D01*
X114215909Y-95237649D01*
X114072713Y-95327625D01*
X114072711Y-95327627D01*
X114028525Y-95371812D01*
X113993877Y-95386163D01*
X113959230Y-95371811D01*
X111850012Y-93262592D01*
X111850008Y-93262589D01*
X111849581Y-93262304D01*
X111747233Y-93193917D01*
X111747230Y-93193915D01*
X111747229Y-93193915D01*
X111713784Y-93180062D01*
X111633038Y-93146615D01*
X111633036Y-93146614D01*
X111633035Y-93146614D01*
X111633032Y-93146613D01*
X111633023Y-93146611D01*
X111520904Y-93124309D01*
X111504393Y-93117740D01*
X111427690Y-93069544D01*
X111268059Y-93013687D01*
X111268055Y-93013686D01*
X111268053Y-93013686D01*
X111100000Y-92994751D01*
X110931946Y-93013686D01*
X110931937Y-93013688D01*
X110772310Y-93069544D01*
X110772308Y-93069545D01*
X110629112Y-93159521D01*
X110629108Y-93159524D01*
X110509524Y-93279108D01*
X110509521Y-93279112D01*
X110419545Y-93422308D01*
X110419544Y-93422310D01*
X110371287Y-93560218D01*
X110346297Y-93588182D01*
X110341221Y-93590284D01*
X110203730Y-93638394D01*
X110050997Y-93734364D01*
X110050993Y-93734367D01*
X109923442Y-93861918D01*
X109923439Y-93861922D01*
X109827469Y-94014655D01*
X109767890Y-94184923D01*
X109767888Y-94184932D01*
X109747692Y-94364182D01*
X109767888Y-94543431D01*
X109767890Y-94543440D01*
X109827469Y-94713708D01*
X109923439Y-94866441D01*
X109923442Y-94866445D01*
X109981086Y-94924089D01*
X109984372Y-94927720D01*
X110008286Y-94956967D01*
X110156633Y-95093125D01*
X110172455Y-95127126D01*
X110172500Y-95129224D01*
X110172500Y-97716785D01*
X110158148Y-97751433D01*
X110123500Y-97765785D01*
X110088852Y-97751433D01*
X109588683Y-97251264D01*
X109579988Y-97239471D01*
X109379307Y-96858895D01*
X109376401Y-96852227D01*
X109376398Y-96852220D01*
X109375789Y-96850478D01*
X109375787Y-96850475D01*
X109375787Y-96850474D01*
X109279817Y-96697740D01*
X109279816Y-96697738D01*
X109152262Y-96570184D01*
X109152259Y-96570182D01*
X108999526Y-96474212D01*
X108829258Y-96414633D01*
X108829257Y-96414632D01*
X108829255Y-96414632D01*
X108829251Y-96414631D01*
X108829249Y-96414631D01*
X108650000Y-96394435D01*
X108470750Y-96414631D01*
X108470741Y-96414633D01*
X108300473Y-96474212D01*
X108147740Y-96570182D01*
X108147736Y-96570185D01*
X108020185Y-96697736D01*
X108020182Y-96697740D01*
X107924212Y-96850473D01*
X107864633Y-97020741D01*
X107864631Y-97020750D01*
X107844435Y-97200000D01*
X107864631Y-97379249D01*
X107864633Y-97379258D01*
X107924212Y-97549526D01*
X108020182Y-97702259D01*
X108020185Y-97702263D01*
X108147739Y-97829817D01*
X108171360Y-97844659D01*
X108300478Y-97925789D01*
X108302222Y-97926399D01*
X108308891Y-97929305D01*
X108689471Y-98129988D01*
X108701264Y-98138683D01*
X109208148Y-98645567D01*
X109222500Y-98680215D01*
X109222500Y-101438591D01*
X109208148Y-101473239D01*
X109173500Y-101487591D01*
X109147431Y-101480081D01*
X109087693Y-101442545D01*
X108928062Y-101386688D01*
X108928061Y-101386687D01*
X108928059Y-101386687D01*
X108928055Y-101386686D01*
X108928053Y-101386686D01*
X108760000Y-101367751D01*
X108591946Y-101386686D01*
X108591942Y-101386686D01*
X108591941Y-101386687D01*
X108591938Y-101386687D01*
X108591938Y-101386688D01*
X108549969Y-101401372D01*
X108539118Y-101403830D01*
X108528641Y-101404976D01*
X108528629Y-101404978D01*
X108288251Y-101466789D01*
X108251120Y-101461518D01*
X108241400Y-101453981D01*
X107591852Y-100804433D01*
X107577500Y-100769785D01*
X107577500Y-99938200D01*
X107577500Y-99938197D01*
X107576561Y-99933479D01*
X107576562Y-99933477D01*
X107554167Y-99820891D01*
X107553386Y-99816966D01*
X107512012Y-99717081D01*
X107506083Y-99702767D01*
X107437411Y-99599992D01*
X107350008Y-99512589D01*
X107035614Y-99198195D01*
X107028081Y-99188482D01*
X106846316Y-98880878D01*
X106846315Y-98880877D01*
X106846290Y-98880834D01*
X106837122Y-98865918D01*
X106837116Y-98865910D01*
X106834391Y-98862748D01*
X106830026Y-98856838D01*
X106765477Y-98754110D01*
X106645890Y-98634523D01*
X106645887Y-98634521D01*
X106500430Y-98543123D01*
X106478728Y-98512537D01*
X106477500Y-98501634D01*
X106477500Y-94438197D01*
X106470001Y-94400500D01*
X106453385Y-94316965D01*
X106416986Y-94229089D01*
X106406084Y-94202769D01*
X106406082Y-94202765D01*
X106374890Y-94156082D01*
X106374890Y-94156083D01*
X106337413Y-94099994D01*
X106085614Y-93848195D01*
X106078081Y-93838482D01*
X105896316Y-93530878D01*
X105896315Y-93530877D01*
X105896290Y-93530834D01*
X105887122Y-93515918D01*
X105887116Y-93515910D01*
X105884391Y-93512748D01*
X105880026Y-93506838D01*
X105815477Y-93404110D01*
X105695890Y-93284523D01*
X105687278Y-93279112D01*
X105660507Y-93262290D01*
X105552690Y-93194544D01*
X105393059Y-93138687D01*
X105393055Y-93138686D01*
X105393053Y-93138686D01*
X105225000Y-93119751D01*
X105056946Y-93138686D01*
X105056937Y-93138688D01*
X104897310Y-93194544D01*
X104897308Y-93194545D01*
X104754112Y-93284521D01*
X104754108Y-93284524D01*
X104634524Y-93404108D01*
X104634521Y-93404112D01*
X104544545Y-93547308D01*
X104544544Y-93547310D01*
X104488688Y-93706937D01*
X104488686Y-93706946D01*
X104469751Y-93875000D01*
X104485486Y-94014655D01*
X104488687Y-94043059D01*
X104544544Y-94202690D01*
X104570558Y-94244091D01*
X104634521Y-94345887D01*
X104634524Y-94345891D01*
X104754111Y-94465478D01*
X104871689Y-94539357D01*
X104876295Y-94542636D01*
X104880878Y-94546316D01*
X105188476Y-94728078D01*
X105198195Y-94735614D01*
X105208148Y-94745567D01*
X105222500Y-94780215D01*
X105222500Y-98838197D01*
X105222500Y-98961803D01*
X105246614Y-99083035D01*
X105275590Y-99152987D01*
X105293917Y-99197233D01*
X105294560Y-99198195D01*
X105342048Y-99269266D01*
X105362588Y-99300007D01*
X105377700Y-99315119D01*
X105387238Y-99328586D01*
X105392569Y-99339707D01*
X105394604Y-99377155D01*
X105369564Y-99405074D01*
X105362607Y-99407778D01*
X105234463Y-99446650D01*
X105110476Y-99512922D01*
X105110475Y-99512923D01*
X105677697Y-100080144D01*
X105658496Y-100075000D01*
X105579504Y-100075000D01*
X105503204Y-100095444D01*
X105434795Y-100134940D01*
X105378940Y-100190795D01*
X105339444Y-100259204D01*
X105319000Y-100335504D01*
X105319000Y-100414496D01*
X105324144Y-100433697D01*
X104756923Y-99866475D01*
X104756922Y-99866476D01*
X104690654Y-99990456D01*
X104690649Y-99990468D01*
X104633470Y-100178961D01*
X104633468Y-100178969D01*
X104614161Y-100374999D01*
X104633468Y-100571030D01*
X104633470Y-100571038D01*
X104690649Y-100759531D01*
X104690654Y-100759543D01*
X104783506Y-100933258D01*
X104783511Y-100933265D01*
X104812445Y-100968520D01*
X104823332Y-101004408D01*
X104812446Y-101030691D01*
X104783091Y-101066460D01*
X104690185Y-101240273D01*
X104632976Y-101428866D01*
X104632976Y-101428867D01*
X104613659Y-101624999D01*
X104613659Y-101625000D01*
X104632976Y-101821132D01*
X104632976Y-101821133D01*
X104690185Y-102009726D01*
X104713205Y-102052793D01*
X104750201Y-102122008D01*
X104783092Y-102183541D01*
X104783094Y-102183544D01*
X104849310Y-102264227D01*
X104908117Y-102335883D01*
X104995427Y-102407537D01*
X105060455Y-102460905D01*
X105060458Y-102460907D01*
X105060462Y-102460910D01*
X105234273Y-102553814D01*
X105422868Y-102611024D01*
X105619000Y-102630341D01*
X105815132Y-102611024D01*
X106003727Y-102553814D01*
X106177538Y-102460910D01*
X106329883Y-102335883D01*
X106454910Y-102183538D01*
X106547814Y-102009727D01*
X106605024Y-101821132D01*
X106615373Y-101716047D01*
X106633051Y-101682975D01*
X106668940Y-101672088D01*
X106698785Y-101686204D01*
X107059616Y-102047035D01*
X107073968Y-102081683D01*
X107059616Y-102116331D01*
X107043720Y-102126953D01*
X107002769Y-102143916D01*
X107002767Y-102143917D01*
X106943470Y-102183538D01*
X106899992Y-102212588D01*
X104162588Y-104949992D01*
X104093644Y-105053175D01*
X104092995Y-105054990D01*
X104046616Y-105166957D01*
X104046613Y-105166967D01*
X104023225Y-105284553D01*
X104022500Y-105288198D01*
X104022500Y-105749996D01*
X104020309Y-105764483D01*
X103893078Y-106175575D01*
X103885068Y-106204472D01*
X103885067Y-106204474D01*
X103884566Y-106209576D01*
X103882052Y-106220957D01*
X103864632Y-106270745D01*
X103864631Y-106270748D01*
X103864631Y-106270750D01*
X103844435Y-106450000D01*
X103864631Y-106629249D01*
X103864633Y-106629258D01*
X103924212Y-106799526D01*
X104020182Y-106952259D01*
X104020185Y-106952263D01*
X104147739Y-107079817D01*
X104179980Y-107100075D01*
X104300478Y-107175789D01*
X104302222Y-107176399D01*
X104308891Y-107179305D01*
X104346725Y-107199255D01*
X104623355Y-107345124D01*
X104647309Y-107373980D01*
X104649500Y-107388467D01*
X104649500Y-109147879D01*
X104655907Y-109207478D01*
X104655909Y-109207483D01*
X104706204Y-109342331D01*
X104792454Y-109457546D01*
X104907669Y-109543796D01*
X105042517Y-109594091D01*
X105042520Y-109594092D01*
X105086177Y-109598785D01*
X105102127Y-109600500D01*
X107197872Y-109600499D01*
X107197878Y-109600499D01*
X107257478Y-109594092D01*
X107257479Y-109594091D01*
X107257483Y-109594091D01*
X107392331Y-109543796D01*
X107507546Y-109457546D01*
X107593796Y-109342331D01*
X107644091Y-109207483D01*
X107644091Y-109207481D01*
X107644092Y-109207479D01*
X107650499Y-109147879D01*
X107650500Y-109147873D01*
X107650499Y-107072218D01*
X107664851Y-107037571D01*
X107699499Y-107023219D01*
X107734147Y-107037571D01*
X109123587Y-108427011D01*
X109210990Y-108514414D01*
X109313765Y-108583086D01*
X109357576Y-108601233D01*
X109427964Y-108630389D01*
X109457867Y-108636337D01*
X109489049Y-108657171D01*
X109496366Y-108693954D01*
X109470000Y-108826512D01*
X109470000Y-109075000D01*
X110170000Y-109075000D01*
X110170000Y-109575000D01*
X109470000Y-109575000D01*
X109470000Y-109823487D01*
X109508429Y-110016689D01*
X109508429Y-110016690D01*
X109583809Y-110198674D01*
X109693246Y-110362460D01*
X109832539Y-110501753D01*
X109996325Y-110611190D01*
X110178310Y-110686570D01*
X110220000Y-110694862D01*
X110220000Y-109891988D01*
X110229940Y-109909205D01*
X110285795Y-109965060D01*
X110354204Y-110004556D01*
X110430504Y-110025000D01*
X110509496Y-110025000D01*
X110585796Y-110004556D01*
X110654205Y-109965060D01*
X110710060Y-109909205D01*
X110720000Y-109891988D01*
X110720000Y-110694862D01*
X110761689Y-110686570D01*
X110761690Y-110686570D01*
X110943674Y-110611190D01*
X111107460Y-110501753D01*
X111246753Y-110362460D01*
X111356190Y-110198674D01*
X111431570Y-110016690D01*
X111431570Y-110016689D01*
X111470000Y-109823487D01*
X111470000Y-109575000D01*
X110770000Y-109575000D01*
X110770000Y-109075000D01*
X111470000Y-109075000D01*
X111470000Y-108826512D01*
X111444524Y-108698434D01*
X111451841Y-108661652D01*
X111466508Y-108647389D01*
X111584516Y-108573240D01*
X111704103Y-108453653D01*
X111794082Y-108310453D01*
X111796982Y-108302165D01*
X112300000Y-108302165D01*
X112300000Y-109100000D01*
X113550000Y-109100000D01*
X113550000Y-107850000D01*
X112752166Y-107850000D01*
X112692627Y-107856401D01*
X112692626Y-107856401D01*
X112557908Y-107906648D01*
X112442811Y-107992811D01*
X112356648Y-108107908D01*
X112306401Y-108242626D01*
X112306401Y-108242627D01*
X112300000Y-108302165D01*
X111796982Y-108302165D01*
X111849939Y-108150822D01*
X111868875Y-107982763D01*
X111849939Y-107814704D01*
X111794082Y-107655073D01*
X111730100Y-107553247D01*
X111723817Y-107516274D01*
X111736939Y-107492531D01*
X112641411Y-106588061D01*
X112641505Y-106587921D01*
X112641545Y-106587862D01*
X112692520Y-106511571D01*
X112723702Y-106490736D01*
X112760485Y-106498052D01*
X112774005Y-106511573D01*
X112774159Y-106511803D01*
X112822380Y-106583972D01*
X112979625Y-106741217D01*
X112993668Y-106770372D01*
X112993900Y-106772436D01*
X112993902Y-106772446D01*
X112993903Y-106772448D01*
X113049760Y-106932079D01*
X113139739Y-107075279D01*
X113259326Y-107194866D01*
X113402526Y-107284845D01*
X113562157Y-107340702D01*
X113730216Y-107359638D01*
X113898275Y-107340702D01*
X114057906Y-107284845D01*
X114201106Y-107194866D01*
X114320693Y-107075279D01*
X114345678Y-107035514D01*
X114376263Y-107013814D01*
X114413236Y-107020095D01*
X114421815Y-107026937D01*
X114808148Y-107413270D01*
X114822500Y-107447918D01*
X114822500Y-107801000D01*
X114808148Y-107835648D01*
X114773500Y-107850000D01*
X114050000Y-107850000D01*
X114050000Y-109551000D01*
X114035648Y-109585648D01*
X114001000Y-109600000D01*
X112300000Y-109600000D01*
X112300000Y-110397834D01*
X112306401Y-110457372D01*
X112306401Y-110457373D01*
X112356648Y-110592091D01*
X112442811Y-110707188D01*
X112557908Y-110793351D01*
X112692626Y-110843598D01*
X112752166Y-110850000D01*
X113011056Y-110850000D01*
X113045704Y-110864352D01*
X113059747Y-110893512D01*
X113068147Y-110968061D01*
X113124004Y-111127692D01*
X113124005Y-111127693D01*
X113213981Y-111270889D01*
X113213984Y-111270893D01*
X113308943Y-111365852D01*
X113323295Y-111400500D01*
X113308943Y-111435148D01*
X113274295Y-111449500D01*
X101652753Y-111449500D01*
X101647267Y-111449192D01*
X101639061Y-111448267D01*
X101544333Y-111437593D01*
X101533637Y-111435151D01*
X101442860Y-111403388D01*
X101438484Y-111401856D01*
X101428603Y-111397098D01*
X101343240Y-111343461D01*
X101334662Y-111336620D01*
X101263379Y-111265337D01*
X101256538Y-111256759D01*
X101220880Y-111200010D01*
X101202899Y-111171393D01*
X101198144Y-111161519D01*
X101164847Y-111066361D01*
X101162406Y-111055665D01*
X101150808Y-110952733D01*
X101150500Y-110947247D01*
X101150500Y-110565335D01*
X101164852Y-110530687D01*
X101199500Y-110516335D01*
X101226723Y-110524593D01*
X101356325Y-110611190D01*
X101538310Y-110686570D01*
X101580000Y-110694862D01*
X101580000Y-109891988D01*
X101589940Y-109909205D01*
X101645795Y-109965060D01*
X101714204Y-110004556D01*
X101790504Y-110025000D01*
X101869496Y-110025000D01*
X101945796Y-110004556D01*
X102014205Y-109965060D01*
X102070060Y-109909205D01*
X102080000Y-109891988D01*
X102080000Y-110694862D01*
X102121689Y-110686570D01*
X102121690Y-110686570D01*
X102303674Y-110611190D01*
X102467460Y-110501753D01*
X102606753Y-110362460D01*
X102716190Y-110198674D01*
X102791570Y-110016690D01*
X102791570Y-110016689D01*
X102830000Y-109823487D01*
X102830000Y-109575000D01*
X102130000Y-109575000D01*
X102130000Y-109075000D01*
X102830000Y-109075000D01*
X102830000Y-108826512D01*
X102791570Y-108633310D01*
X102791570Y-108633309D01*
X102716190Y-108451325D01*
X102606753Y-108287539D01*
X102467460Y-108148246D01*
X102303674Y-108038809D01*
X102121691Y-107963429D01*
X102121682Y-107963426D01*
X102080000Y-107955135D01*
X102080000Y-108758011D01*
X102070060Y-108740795D01*
X102014205Y-108684940D01*
X101945796Y-108645444D01*
X101869496Y-108625000D01*
X101790504Y-108625000D01*
X101714204Y-108645444D01*
X101645795Y-108684940D01*
X101589940Y-108740795D01*
X101580000Y-108758011D01*
X101580000Y-107955135D01*
X101579999Y-107955135D01*
X101538317Y-107963426D01*
X101538308Y-107963429D01*
X101356325Y-108038809D01*
X101226723Y-108125406D01*
X101189940Y-108132722D01*
X101158758Y-108111887D01*
X101150500Y-108084664D01*
X101150500Y-106535335D01*
X101164852Y-106500687D01*
X101199500Y-106486335D01*
X101226723Y-106494593D01*
X101356325Y-106581190D01*
X101538310Y-106656570D01*
X101580000Y-106664862D01*
X101580000Y-105861988D01*
X101589940Y-105879205D01*
X101645795Y-105935060D01*
X101714204Y-105974556D01*
X101790504Y-105995000D01*
X101869496Y-105995000D01*
X101945796Y-105974556D01*
X102014205Y-105935060D01*
X102070060Y-105879205D01*
X102080000Y-105861988D01*
X102080000Y-106664862D01*
X102121689Y-106656570D01*
X102121690Y-106656570D01*
X102303674Y-106581190D01*
X102467460Y-106471753D01*
X102606753Y-106332460D01*
X102716190Y-106168674D01*
X102762405Y-106057101D01*
X102788923Y-106030582D01*
X102826426Y-106030582D01*
X102842323Y-106041204D01*
X102906633Y-106105513D01*
X102906635Y-106105515D01*
X102929190Y-106118537D01*
X103037862Y-106181280D01*
X103037864Y-106181280D01*
X103037865Y-106181281D01*
X103143465Y-106209576D01*
X103184230Y-106220499D01*
X103184231Y-106220500D01*
X103184234Y-106220500D01*
X103335769Y-106220500D01*
X103335769Y-106220499D01*
X103482135Y-106181281D01*
X103613365Y-106105515D01*
X103720515Y-105998365D01*
X103789312Y-105879205D01*
X103796280Y-105867137D01*
X103796280Y-105867136D01*
X103796281Y-105867135D01*
X103835499Y-105720769D01*
X103835500Y-105720769D01*
X103835500Y-105569231D01*
X103835499Y-105569230D01*
X103796281Y-105422866D01*
X103796280Y-105422862D01*
X103727033Y-105302925D01*
X103720515Y-105291635D01*
X103613365Y-105184485D01*
X103482137Y-105108719D01*
X103482133Y-105108718D01*
X103335769Y-105069500D01*
X103335766Y-105069500D01*
X103184234Y-105069500D01*
X103184231Y-105069500D01*
X103037866Y-105108718D01*
X103037862Y-105108719D01*
X102906634Y-105184485D01*
X102906634Y-105184486D01*
X102799486Y-105291634D01*
X102799485Y-105291634D01*
X102753952Y-105370500D01*
X102724199Y-105393330D01*
X102711517Y-105395000D01*
X102130000Y-105395000D01*
X102130000Y-104895000D01*
X102830000Y-104895000D01*
X102830000Y-104496512D01*
X102791570Y-104303310D01*
X102791570Y-104303309D01*
X102716190Y-104121325D01*
X102606753Y-103957539D01*
X102467460Y-103818246D01*
X102303674Y-103708809D01*
X102121691Y-103633429D01*
X102121682Y-103633426D01*
X102080000Y-103625135D01*
X102080000Y-104428011D01*
X102070060Y-104410795D01*
X102014205Y-104354940D01*
X101945796Y-104315444D01*
X101869496Y-104295000D01*
X101790504Y-104295000D01*
X101714204Y-104315444D01*
X101645795Y-104354940D01*
X101589940Y-104410795D01*
X101580000Y-104428011D01*
X101580000Y-103625135D01*
X101579999Y-103625135D01*
X101538317Y-103633426D01*
X101538308Y-103633429D01*
X101356325Y-103708809D01*
X101226723Y-103795406D01*
X101189940Y-103802722D01*
X101158758Y-103781887D01*
X101150500Y-103754664D01*
X101150500Y-97027605D01*
X101164852Y-96992957D01*
X101199500Y-96978605D01*
X101234148Y-96992957D01*
X101244770Y-97008854D01*
X101258637Y-97042333D01*
X101281716Y-97098049D01*
X101309131Y-97145533D01*
X101399725Y-97302447D01*
X101399735Y-97302462D01*
X101543403Y-97489693D01*
X101543413Y-97489705D01*
X101710294Y-97656586D01*
X101710306Y-97656596D01*
X101897537Y-97800264D01*
X101897546Y-97800270D01*
X101897550Y-97800273D01*
X101944709Y-97827500D01*
X102092088Y-97912590D01*
X102101951Y-97918284D01*
X102320007Y-98008606D01*
X102320010Y-98008606D01*
X102320013Y-98008608D01*
X102547974Y-98069690D01*
X102547975Y-98069690D01*
X102547986Y-98069693D01*
X102781989Y-98100500D01*
X102781993Y-98100500D01*
X103018007Y-98100500D01*
X103018011Y-98100500D01*
X103252014Y-98069693D01*
X103479993Y-98008606D01*
X103698049Y-97918284D01*
X103902450Y-97800273D01*
X104089699Y-97656592D01*
X104256592Y-97489699D01*
X104400273Y-97302450D01*
X104518284Y-97098049D01*
X104608606Y-96879993D01*
X104669693Y-96652014D01*
X104700500Y-96418011D01*
X104700500Y-96181989D01*
X104669693Y-95947986D01*
X104661686Y-95918104D01*
X104608608Y-95720013D01*
X104608604Y-95720003D01*
X104547462Y-95572394D01*
X104518284Y-95501951D01*
X104400273Y-95297550D01*
X104400270Y-95297546D01*
X104400264Y-95297537D01*
X104256596Y-95110306D01*
X104256586Y-95110294D01*
X104089705Y-94943413D01*
X104089693Y-94943403D01*
X103902462Y-94799735D01*
X103902447Y-94799725D01*
X103698050Y-94681716D01*
X103479996Y-94591395D01*
X103479986Y-94591391D01*
X103252025Y-94530309D01*
X103252018Y-94530308D01*
X103252014Y-94530307D01*
X103018011Y-94499500D01*
X102781989Y-94499500D01*
X102547986Y-94530307D01*
X102547982Y-94530307D01*
X102547974Y-94530309D01*
X102320013Y-94591391D01*
X102320003Y-94591395D01*
X102101949Y-94681716D01*
X101897552Y-94799725D01*
X101897537Y-94799735D01*
X101710306Y-94943403D01*
X101710294Y-94943413D01*
X101543413Y-95110294D01*
X101543403Y-95110306D01*
X101399735Y-95297537D01*
X101399725Y-95297552D01*
X101281716Y-95501949D01*
X101244770Y-95591146D01*
X101218251Y-95617664D01*
X101180748Y-95617664D01*
X101154230Y-95591145D01*
X101150500Y-95572394D01*
X101150500Y-91156001D01*
X103774500Y-91156001D01*
X103774500Y-91293998D01*
X103801417Y-91429318D01*
X103801420Y-91429329D01*
X103854223Y-91556807D01*
X103854225Y-91556811D01*
X103884616Y-91602294D01*
X103930883Y-91671539D01*
X104028460Y-91769116D01*
X104074102Y-91799613D01*
X104143189Y-91845775D01*
X104270672Y-91898580D01*
X104270678Y-91898581D01*
X104270681Y-91898582D01*
X104406001Y-91925499D01*
X104406007Y-91925500D01*
X104543993Y-91925500D01*
X104679328Y-91898580D01*
X104806811Y-91845775D01*
X104921542Y-91769114D01*
X105019114Y-91671542D01*
X105095775Y-91556811D01*
X105148580Y-91429328D01*
X105175500Y-91293993D01*
X105175500Y-91156007D01*
X105175499Y-91156001D01*
X106774500Y-91156001D01*
X106774500Y-91293998D01*
X106801417Y-91429318D01*
X106801420Y-91429329D01*
X106854223Y-91556807D01*
X106854225Y-91556811D01*
X106884616Y-91602294D01*
X106930883Y-91671539D01*
X107028460Y-91769116D01*
X107074102Y-91799613D01*
X107143189Y-91845775D01*
X107270672Y-91898580D01*
X107270678Y-91898581D01*
X107270681Y-91898582D01*
X107406001Y-91925499D01*
X107406007Y-91925500D01*
X107543993Y-91925500D01*
X107679328Y-91898580D01*
X107806811Y-91845775D01*
X107921542Y-91769114D01*
X108019114Y-91671542D01*
X108095775Y-91556811D01*
X108148580Y-91429328D01*
X108175500Y-91293993D01*
X108175500Y-91156007D01*
X108148580Y-91020672D01*
X108095775Y-90893189D01*
X108049613Y-90824102D01*
X108019116Y-90778460D01*
X107921539Y-90680883D01*
X107853074Y-90635137D01*
X107806811Y-90604225D01*
X107806808Y-90604223D01*
X107806807Y-90604223D01*
X107679329Y-90551420D01*
X107679318Y-90551417D01*
X107543998Y-90524500D01*
X107543993Y-90524500D01*
X107406007Y-90524500D01*
X107406001Y-90524500D01*
X107270681Y-90551417D01*
X107270670Y-90551420D01*
X107143192Y-90604223D01*
X107028460Y-90680883D01*
X106930883Y-90778460D01*
X106854223Y-90893192D01*
X106801420Y-91020670D01*
X106801417Y-91020681D01*
X106774500Y-91156001D01*
X105175499Y-91156001D01*
X105148580Y-91020672D01*
X105095775Y-90893189D01*
X105049613Y-90824102D01*
X105019116Y-90778460D01*
X104921539Y-90680883D01*
X104853074Y-90635137D01*
X104806811Y-90604225D01*
X104806808Y-90604223D01*
X104806807Y-90604223D01*
X104679329Y-90551420D01*
X104679318Y-90551417D01*
X104543998Y-90524500D01*
X104543993Y-90524500D01*
X104406007Y-90524500D01*
X104406001Y-90524500D01*
X104270681Y-90551417D01*
X104270670Y-90551420D01*
X104143192Y-90604223D01*
X104028460Y-90680883D01*
X103930883Y-90778460D01*
X103854223Y-90893192D01*
X103801420Y-91020670D01*
X103801417Y-91020681D01*
X103774500Y-91156001D01*
X101150500Y-91156001D01*
X101150500Y-90352752D01*
X101150808Y-90347266D01*
X101162406Y-90244332D01*
X101164848Y-90233637D01*
X101198145Y-90138477D01*
X101202897Y-90128610D01*
X101256541Y-90043235D01*
X101263375Y-90034666D01*
X101334666Y-89963375D01*
X101343235Y-89956541D01*
X101428610Y-89902897D01*
X101438477Y-89898145D01*
X101533640Y-89864847D01*
X101544330Y-89862406D01*
X101647270Y-89850807D01*
X101652741Y-89850500D01*
X124573644Y-89857584D01*
G37*
G04 #@! TD.AperFunction*
G04 #@! TA.AperFunction,Conductor*
G36*
X111058148Y-102446915D02*
G01*
X111072500Y-102481563D01*
X111072500Y-103703214D01*
X111058148Y-103737862D01*
X111023500Y-103752214D01*
X110996278Y-103743956D01*
X110943679Y-103708811D01*
X110943675Y-103708809D01*
X110761691Y-103633429D01*
X110761682Y-103633426D01*
X110720000Y-103625135D01*
X110720000Y-104428011D01*
X110710060Y-104410795D01*
X110654205Y-104354940D01*
X110585796Y-104315444D01*
X110509496Y-104295000D01*
X110430504Y-104295000D01*
X110354204Y-104315444D01*
X110285795Y-104354940D01*
X110229940Y-104410795D01*
X110220000Y-104428011D01*
X110220000Y-103625135D01*
X110219999Y-103625135D01*
X110178317Y-103633426D01*
X110178308Y-103633429D01*
X109996325Y-103708809D01*
X109832539Y-103818246D01*
X109693246Y-103957539D01*
X109583809Y-104121325D01*
X109508429Y-104303309D01*
X109508429Y-104303310D01*
X109470000Y-104496512D01*
X109470000Y-104895000D01*
X110170000Y-104895000D01*
X110170000Y-105395000D01*
X109588483Y-105395000D01*
X109553835Y-105380648D01*
X109546048Y-105370500D01*
X109507033Y-105302925D01*
X109500515Y-105291635D01*
X109393365Y-105184485D01*
X109262137Y-105108719D01*
X109262133Y-105108718D01*
X109115769Y-105069500D01*
X109115766Y-105069500D01*
X108964234Y-105069500D01*
X108964231Y-105069500D01*
X108817866Y-105108718D01*
X108817862Y-105108719D01*
X108686634Y-105184485D01*
X108686634Y-105184486D01*
X108579487Y-105291632D01*
X108577758Y-105293886D01*
X108545278Y-105312634D01*
X108509053Y-105302925D01*
X108497397Y-105290123D01*
X108490478Y-105279112D01*
X108490477Y-105279110D01*
X108370890Y-105159523D01*
X108227690Y-105069544D01*
X108068059Y-105013687D01*
X108068055Y-105013686D01*
X108068053Y-105013686D01*
X107900000Y-104994751D01*
X107731946Y-105013686D01*
X107731937Y-105013688D01*
X107572310Y-105069544D01*
X107572308Y-105069545D01*
X107429112Y-105159521D01*
X107429108Y-105159524D01*
X107309524Y-105279108D01*
X107309521Y-105279112D01*
X107219545Y-105422308D01*
X107219544Y-105422310D01*
X107163688Y-105581937D01*
X107163686Y-105581946D01*
X107145211Y-105745919D01*
X107144751Y-105750000D01*
X107146383Y-105764483D01*
X107163686Y-105918053D01*
X107163687Y-105918061D01*
X107178373Y-105960033D01*
X107180831Y-105970887D01*
X107181976Y-105981354D01*
X107181978Y-105981369D01*
X107270956Y-106327390D01*
X107272500Y-106339593D01*
X107272500Y-106377808D01*
X107281519Y-106423149D01*
X107296613Y-106499037D01*
X107296616Y-106499047D01*
X107313289Y-106539298D01*
X107313289Y-106576801D01*
X107286770Y-106603319D01*
X107260618Y-106605422D01*
X107260531Y-106606236D01*
X107197879Y-106599500D01*
X107197873Y-106599500D01*
X105707215Y-106599500D01*
X105672567Y-106585148D01*
X105588683Y-106501264D01*
X105579988Y-106489471D01*
X105398314Y-106144940D01*
X105394848Y-106136572D01*
X105279691Y-105764485D01*
X105277500Y-105749998D01*
X105277500Y-105630215D01*
X105291852Y-105595567D01*
X107545567Y-103341852D01*
X107580215Y-103327500D01*
X109087802Y-103327500D01*
X109087805Y-103327500D01*
X109209037Y-103303386D01*
X109294322Y-103268059D01*
X109323235Y-103256083D01*
X109426010Y-103187411D01*
X109513413Y-103100008D01*
X109996733Y-102616686D01*
X110031380Y-102602335D01*
X110057449Y-102609845D01*
X110074049Y-102620275D01*
X110094218Y-102632948D01*
X110253849Y-102688805D01*
X110421908Y-102707741D01*
X110589967Y-102688805D01*
X110749598Y-102632948D01*
X110892798Y-102542969D01*
X110988852Y-102446915D01*
X111023500Y-102432563D01*
X111058148Y-102446915D01*
G37*
G04 #@! TD.AperFunction*
G04 #@! TA.AperFunction,Conductor*
G36*
X119459207Y-101846626D02*
G01*
X120537213Y-102924632D01*
X120551565Y-102959280D01*
X120537213Y-102993928D01*
X120528636Y-103000769D01*
X120497733Y-103020187D01*
X120370185Y-103147736D01*
X120347973Y-103183085D01*
X120317386Y-103204786D01*
X120280413Y-103198503D01*
X120261214Y-103175765D01*
X120254404Y-103159325D01*
X120226465Y-103091873D01*
X120155276Y-102985331D01*
X120064669Y-102894724D01*
X119958127Y-102823535D01*
X119850266Y-102778857D01*
X119839742Y-102774498D01*
X119839737Y-102774497D01*
X119714072Y-102749500D01*
X119714069Y-102749500D01*
X119585931Y-102749500D01*
X119585927Y-102749500D01*
X119460262Y-102774497D01*
X119460257Y-102774498D01*
X119341874Y-102823534D01*
X119235331Y-102894723D01*
X119144723Y-102985331D01*
X119073534Y-103091874D01*
X119024498Y-103210257D01*
X119024497Y-103210262D01*
X118999500Y-103335927D01*
X118999500Y-103464072D01*
X119024497Y-103589737D01*
X119024498Y-103589742D01*
X119024499Y-103589744D01*
X119073535Y-103708127D01*
X119144724Y-103814669D01*
X119235331Y-103905276D01*
X119341873Y-103976465D01*
X119460256Y-104025501D01*
X119585931Y-104050500D01*
X119714069Y-104050500D01*
X119839744Y-104025501D01*
X119958127Y-103976465D01*
X120064669Y-103905276D01*
X120140324Y-103829620D01*
X120174971Y-103815269D01*
X120209619Y-103829621D01*
X120221221Y-103848085D01*
X120274212Y-103999526D01*
X120364989Y-104143994D01*
X120372500Y-104170064D01*
X120372500Y-104814784D01*
X120358148Y-104849432D01*
X119508845Y-105698734D01*
X119474197Y-105713086D01*
X119465193Y-105712252D01*
X119396976Y-105699500D01*
X119193024Y-105699500D01*
X118992544Y-105736976D01*
X118992540Y-105736977D01*
X118992537Y-105736978D01*
X118802366Y-105810650D01*
X118628957Y-105918020D01*
X118578011Y-105964463D01*
X118542736Y-105977199D01*
X118511989Y-105964463D01*
X118461043Y-105918020D01*
X118445703Y-105908522D01*
X118423801Y-105878079D01*
X118422500Y-105866862D01*
X118422500Y-102090764D01*
X118423014Y-102083686D01*
X118425891Y-102063977D01*
X118445097Y-102031765D01*
X118481455Y-102022569D01*
X118496438Y-102028092D01*
X118496690Y-102027570D01*
X118499164Y-102028760D01*
X118499171Y-102028765D01*
X118658802Y-102084622D01*
X118826861Y-102103558D01*
X118994920Y-102084622D01*
X119154551Y-102028765D01*
X119297751Y-101938786D01*
X119389911Y-101846626D01*
X119424559Y-101832274D01*
X119459207Y-101846626D01*
G37*
G04 #@! TD.AperFunction*
G04 #@! TA.AperFunction,Conductor*
G36*
X105937904Y-100340351D02*
G01*
X105952256Y-100374999D01*
X105937904Y-100409647D01*
X105913855Y-100433695D01*
X105919000Y-100414496D01*
X105919000Y-100335504D01*
X105913854Y-100316302D01*
X105937904Y-100340351D01*
G37*
G04 #@! TD.AperFunction*
G04 #@! TA.AperFunction,Conductor*
G36*
X112189719Y-97675106D02*
G01*
X112223637Y-97689302D01*
X112229946Y-97695658D01*
X112230451Y-97703009D01*
X112131261Y-98088752D01*
X112125882Y-98095911D01*
X112119930Y-98097538D01*
X111884074Y-98097538D01*
X111875801Y-98094111D01*
X111872743Y-98088752D01*
X111773552Y-97703009D01*
X111774810Y-97694143D01*
X111780365Y-97689302D01*
X111997486Y-97598427D01*
X112006439Y-97598395D01*
X112189719Y-97675106D01*
G37*
G04 #@! TD.AperFunction*
G04 #@! TA.AperFunction,Conductor*
G36*
X110548109Y-101455919D02*
G01*
X110551167Y-101461278D01*
X110650357Y-101847020D01*
X110649099Y-101855886D01*
X110643543Y-101860727D01*
X110426425Y-101951601D01*
X110417471Y-101951634D01*
X110417391Y-101951601D01*
X110200272Y-101860727D01*
X110193963Y-101854371D01*
X110193458Y-101847020D01*
X110292649Y-101461278D01*
X110298028Y-101454119D01*
X110303980Y-101452492D01*
X110539836Y-101452492D01*
X110548109Y-101455919D01*
G37*
G04 #@! TD.AperFunction*
G04 #@! TA.AperFunction,Conductor*
G36*
X110840649Y-94364139D02*
G01*
X110848909Y-94367593D01*
X110852308Y-94375878D01*
X110852189Y-94377504D01*
X110846011Y-94420480D01*
X110864446Y-94548705D01*
X110885771Y-94595400D01*
X110886711Y-94598607D01*
X110925094Y-94867566D01*
X110922870Y-94876240D01*
X110915164Y-94880802D01*
X110913511Y-94880919D01*
X110677555Y-94880919D01*
X110669644Y-94877839D01*
X110658451Y-94867566D01*
X110350101Y-94584552D01*
X110346323Y-94576433D01*
X110349392Y-94568021D01*
X110349685Y-94567713D01*
X110549812Y-94366643D01*
X110558074Y-94363198D01*
X110840649Y-94364139D01*
G37*
G04 #@! TD.AperFunction*
G04 #@! TA.AperFunction,Conductor*
G36*
X110926647Y-99253427D02*
G01*
X110929551Y-99258241D01*
X111074020Y-99725038D01*
X111073192Y-99733954D01*
X111067354Y-99739293D01*
X110804511Y-99849115D01*
X110795556Y-99849142D01*
X110795489Y-99849115D01*
X110532645Y-99739293D01*
X110526333Y-99732941D01*
X110525979Y-99725039D01*
X110670449Y-99258240D01*
X110676169Y-99251351D01*
X110681626Y-99250000D01*
X110918374Y-99250000D01*
X110926647Y-99253427D01*
G37*
G04 #@! TD.AperFunction*
G04 #@! TA.AperFunction,Conductor*
G36*
X110890085Y-106625479D02*
G01*
X110898273Y-106628906D01*
X111064648Y-106795281D01*
X111068075Y-106803554D01*
X111064648Y-106811827D01*
X111063108Y-106813123D01*
X110734791Y-107044140D01*
X110726053Y-107046098D01*
X110719819Y-107042877D01*
X110552765Y-106877154D01*
X110549306Y-106868898D01*
X110549966Y-106634752D01*
X110553416Y-106626492D01*
X110561698Y-106623088D01*
X110890085Y-106625479D01*
G37*
G04 #@! TD.AperFunction*
G04 #@! TA.AperFunction,Conductor*
G36*
X118399593Y-98926201D02*
G01*
X118766467Y-99215104D01*
X118770847Y-99222915D01*
X118768421Y-99231534D01*
X118767535Y-99232536D01*
X118602379Y-99399021D01*
X118598510Y-99401607D01*
X118379979Y-99491182D01*
X118371025Y-99491149D01*
X118364716Y-99484793D01*
X118364666Y-99484670D01*
X118264647Y-99232536D01*
X118214660Y-99106524D01*
X118214795Y-99097572D01*
X118217260Y-99093942D01*
X118384083Y-98927119D01*
X118392355Y-98923693D01*
X118399593Y-98926201D01*
G37*
G04 #@! TD.AperFunction*
G04 #@! TA.AperFunction,Conductor*
G36*
X110341215Y-107320744D02*
G01*
X110348373Y-107326122D01*
X110350000Y-107332074D01*
X110350000Y-107567931D01*
X110346573Y-107576204D01*
X110341214Y-107579262D01*
X109955471Y-107678452D01*
X109946605Y-107677194D01*
X109941764Y-107671638D01*
X109927568Y-107637720D01*
X109850889Y-107454518D01*
X109850857Y-107445566D01*
X109941764Y-107228366D01*
X109948120Y-107222058D01*
X109955471Y-107221553D01*
X110341215Y-107320744D01*
G37*
G04 #@! TD.AperFunction*
G04 #@! TA.AperFunction,Conductor*
G36*
X117679240Y-98850343D02*
G01*
X117679455Y-98850558D01*
X117679786Y-98850903D01*
X117969196Y-99164996D01*
X117972282Y-99173402D01*
X117968898Y-99181164D01*
X117804153Y-99347233D01*
X117795894Y-99350693D01*
X117795814Y-99350693D01*
X117559779Y-99350027D01*
X117551516Y-99346577D01*
X117548292Y-99340370D01*
X117492780Y-99027323D01*
X117494709Y-99018580D01*
X117496021Y-99017015D01*
X117662694Y-98850343D01*
X117670967Y-98846916D01*
X117679240Y-98850343D01*
G37*
G04 #@! TD.AperFunction*
G04 #@! TA.AperFunction,Conductor*
G36*
X104776647Y-105853427D02*
G01*
X104779551Y-105858241D01*
X104924020Y-106325038D01*
X104923192Y-106333954D01*
X104917354Y-106339293D01*
X104654511Y-106449115D01*
X104645556Y-106449142D01*
X104645489Y-106449115D01*
X104382645Y-106339293D01*
X104376333Y-106332941D01*
X104375979Y-106325039D01*
X104520449Y-105858240D01*
X104526169Y-105851351D01*
X104531626Y-105850000D01*
X104768374Y-105850000D01*
X104776647Y-105853427D01*
G37*
G04 #@! TD.AperFunction*
G04 #@! TA.AperFunction,Conductor*
G36*
X104926284Y-106339260D02*
G01*
X104932122Y-106344599D01*
X105160042Y-106776830D01*
X105160870Y-106785746D01*
X105157966Y-106790560D01*
X104990560Y-106957966D01*
X104982287Y-106961393D01*
X104976830Y-106960042D01*
X104544599Y-106732122D01*
X104538879Y-106725232D01*
X104539233Y-106717329D01*
X104647436Y-106453815D01*
X104653746Y-106447464D01*
X104917329Y-106339233D01*
X104926284Y-106339260D01*
G37*
G04 #@! TD.AperFunction*
G04 #@! TA.AperFunction,Conductor*
G36*
X108926284Y-97089260D02*
G01*
X108932122Y-97094599D01*
X109160042Y-97526830D01*
X109160870Y-97535746D01*
X109157966Y-97540560D01*
X108990560Y-97707966D01*
X108982287Y-97711393D01*
X108976830Y-97710042D01*
X108544599Y-97482122D01*
X108538879Y-97475232D01*
X108539233Y-97467329D01*
X108647436Y-97203815D01*
X108653746Y-97197464D01*
X108917329Y-97089233D01*
X108926284Y-97089260D01*
G37*
G04 #@! TD.AperFunction*
G04 #@! TA.AperFunction,Conductor*
G36*
X117417058Y-101161259D02*
G01*
X117759959Y-101363882D01*
X117765338Y-101371041D01*
X117764833Y-101378392D01*
X117675564Y-101596175D01*
X117669255Y-101602531D01*
X117669175Y-101602564D01*
X117451392Y-101691833D01*
X117442438Y-101691800D01*
X117436882Y-101686959D01*
X117234259Y-101344058D01*
X117233001Y-101335192D01*
X117236057Y-101329835D01*
X117402834Y-101163058D01*
X117411106Y-101159632D01*
X117417058Y-101161259D01*
G37*
G04 #@! TD.AperFunction*
G04 #@! TA.AperFunction,Conductor*
G36*
X116387717Y-99191786D02*
G01*
X116421635Y-99205982D01*
X116427944Y-99212338D01*
X116428449Y-99219689D01*
X116329259Y-99605432D01*
X116323880Y-99612591D01*
X116317928Y-99614218D01*
X116082072Y-99614218D01*
X116073799Y-99610791D01*
X116070741Y-99605432D01*
X115971550Y-99219689D01*
X115972808Y-99210823D01*
X115978363Y-99205982D01*
X116195484Y-99115107D01*
X116204437Y-99115075D01*
X116387717Y-99191786D01*
G37*
G04 #@! TD.AperFunction*
G04 #@! TA.AperFunction,Conductor*
G36*
X117911321Y-101599953D02*
G01*
X117919580Y-101603413D01*
X117922974Y-101611678D01*
X117922025Y-102051703D01*
X117918580Y-102059969D01*
X117910325Y-102063378D01*
X117674543Y-102063378D01*
X117666270Y-102059951D01*
X117664575Y-102057804D01*
X117449184Y-101707313D01*
X117447772Y-101698470D01*
X117453026Y-101691219D01*
X117454621Y-101690400D01*
X117670812Y-101599915D01*
X117675371Y-101599009D01*
X117911321Y-101599953D01*
G37*
G04 #@! TD.AperFunction*
G04 #@! TA.AperFunction,Conductor*
G36*
X108087717Y-105827568D02*
G01*
X108121635Y-105841764D01*
X108127944Y-105848120D01*
X108128449Y-105855471D01*
X108029259Y-106241214D01*
X108023880Y-106248373D01*
X108017928Y-106250000D01*
X107782072Y-106250000D01*
X107773799Y-106246573D01*
X107770741Y-106241214D01*
X107671550Y-105855471D01*
X107672808Y-105846605D01*
X107678363Y-105841764D01*
X107895484Y-105750889D01*
X107904437Y-105750857D01*
X108087717Y-105827568D01*
G37*
G04 #@! TD.AperFunction*
G04 #@! TA.AperFunction,Conductor*
G36*
X105455561Y-93783199D02*
G01*
X105461117Y-93788040D01*
X105663740Y-94130941D01*
X105664998Y-94139807D01*
X105661940Y-94145166D01*
X105495166Y-94311940D01*
X105486893Y-94315367D01*
X105480941Y-94313740D01*
X105138040Y-94111117D01*
X105132661Y-94103958D01*
X105133165Y-94096609D01*
X105222436Y-93878822D01*
X105228743Y-93872468D01*
X105446609Y-93783166D01*
X105455561Y-93783199D01*
G37*
G04 #@! TD.AperFunction*
G04 #@! TA.AperFunction,Conductor*
G36*
X106405561Y-99133199D02*
G01*
X106411117Y-99138040D01*
X106613740Y-99480941D01*
X106614998Y-99489807D01*
X106611940Y-99495166D01*
X106445166Y-99661940D01*
X106436893Y-99665367D01*
X106430941Y-99663740D01*
X106088040Y-99461117D01*
X106082661Y-99453958D01*
X106083165Y-99446609D01*
X106172436Y-99228822D01*
X106178743Y-99222468D01*
X106396609Y-99133166D01*
X106405561Y-99133199D01*
G37*
G04 #@! TD.AperFunction*
G04 #@! TA.AperFunction,Conductor*
G36*
X105979318Y-98860679D02*
G01*
X105994077Y-98867434D01*
X106260429Y-98989342D01*
X106266526Y-98995901D01*
X106266376Y-99004442D01*
X106176861Y-99221486D01*
X106170539Y-99227828D01*
X106170482Y-99227851D01*
X105954244Y-99316484D01*
X105945290Y-99316451D01*
X105939258Y-99310716D01*
X105731034Y-98876376D01*
X105730547Y-98867434D01*
X105736526Y-98860768D01*
X105741584Y-98859618D01*
X105974449Y-98859618D01*
X105979318Y-98860679D01*
G37*
G04 #@! TD.AperFunction*
G04 #@! TA.AperFunction,Conductor*
G36*
X108663394Y-101895808D02*
G01*
X108668235Y-101901364D01*
X108759109Y-102118483D01*
X108759142Y-102127437D01*
X108759109Y-102127517D01*
X108668235Y-102344635D01*
X108661879Y-102350944D01*
X108654528Y-102351449D01*
X108268786Y-102252259D01*
X108261627Y-102246880D01*
X108260000Y-102240928D01*
X108260000Y-102005071D01*
X108263427Y-101996798D01*
X108268783Y-101993741D01*
X108654528Y-101894550D01*
X108663394Y-101895808D01*
G37*
G04 #@! TD.AperFunction*
M02*
