M48
; DRILL file {KiCad 8.0.2-8.0.2-0~ubuntu22.04.1} date 2024-06-05T03:13:57-0700
; FORMAT={-:-/ absolute / inch / decimal}
; #@! TF.CreationDate,2024-06-05T03:13:57-07:00
; #@! TF.GenerationSoftware,Kicad,Pcbnew,8.0.2-8.0.2-0~ubuntu22.04.1
; #@! TF.FileFunction,Plated,1,2,PTH
FMAT,2
INCH
; #@! TA.AperFunction,Plated,PTH,ViaDrill
T1C0.0118
; #@! TA.AperFunction,Plated,PTH,ViaDrill
T2C0.0157
; #@! TA.AperFunction,Plated,PTH,ComponentDrill
T3C0.0236
; #@! TA.AperFunction,Plated,PTH,ComponentDrill
T4C0.0295
%
G90
G05
T1
X4.1673Y-3.7205
X4.1801Y-3.9065
X4.248Y-4.1634
X4.2579Y-3.7165
X4.2819Y-4.0206
X4.3248Y-4.2303
X4.3445Y-4.2028
X4.3483Y-4.002
X4.3749Y-4.0827
X4.3799Y-3.7185
X4.4626Y-4.061
X4.479Y-3.8406
X4.4803Y-3.8091
X4.4899Y-4.0413
X4.5009Y-3.7598
X4.512Y-3.8998
X4.5748Y-3.9021
X4.6378Y-3.9114
X4.6524Y-4.0307
X4.6693Y-3.9134
X4.7283Y-3.6063
X4.7557Y-4.1577
X4.7817Y-3.9715
X4.8041Y-3.9125
X4.8291Y-3.8599
X4.8386Y-3.91
X4.8484Y-3.6102
X4.8543Y-3.8406
X4.9144Y-4.0572
T2
X4.1201Y-4.1909
X4.2677Y-3.7894
X4.2776Y-3.8268
X4.3001Y-3.935
X4.3622Y-3.9311
X4.5217Y-4.0846
X4.5236Y-3.7844
X4.5276Y-3.6201
X4.6526Y-4.0846
X4.815Y-4.1605
X4.8608Y-4.026
T3
X4.1582Y-3.9518
X4.1582Y-4.001
T4
X4.6376Y-4.2047
X4.6967Y-4.2047
X4.7557Y-4.2047
X4.8148Y-4.2047
X4.8738Y-4.2047
T3
G00X4.0091Y-4.1179
M15
G01X4.0091Y-4.1612
M16
G05
G00X4.0091Y-4.2884
M15
G01X4.0091Y-4.3199
M16
G05
G00X4.3492Y-4.1179
M15
G01X4.3492Y-4.1612
M16
G05
G00X4.3492Y-4.2884
M15
G01X4.3492Y-4.3199
M16
G05
M30
